<?xml version="1.0" encoding="utf-8"?>
<!-- Generator: Adobe Illustrator 24.1.0, SVG Export Plug-In . SVG Version: 6.00 Build 0)  -->
<svg version="1.1" id="Capa_1" xmlns="http://www.w3.org/2000/svg" xmlns:xlink="http://www.w3.org/1999/xlink" x="0px" y="0px"
	 viewBox="0 0 368 368" enable-background="new 0 0 368 368" xml:space="preserve">
<g>
	<polygon fill="#49AA50" points="114.121,91.955 216.2,57.305 216.2,309.893 114.103,276.254 114.103,195.476 93.743,195.489 
		93.743,174.943 114.121,174.943 114.121,154.829 135.644,154.829 135.65,133.647 114.12,133.647 114.153,112.412 135.644,112.407 
		135.644,91.957 	"/>
	<rect x="93.76" y="71.595" fill="#49AA50" width="20.36" height="20.36"/>
	<rect x="72.497" y="112.338" fill="#49AA50" width="21.246" height="21.246"/>
	<rect x="93.743" y="133.583" fill="#49AA50" width="21.246" height="21.246"/>
	<circle fill="#0C6F17" cx="254.282" cy="220.467" r="9.164"/>
	<path fill="#0C6F17" d="M143.728,44.953L280.894,0.575c7.543-2.44,15.273,3.184,15.273,11.111v344.627
		c0,7.952-7.775,13.579-15.328,11.093l-137.167-45.134c-4.791-1.576-8.028-6.05-8.028-11.093V56.064
		C135.644,50.999,138.909,46.512,143.728,44.953z M156.856,64.685v238.46l116.22,37.968V26.253L156.856,64.685z"/>
</g>
</svg>
