<?xml version="1.0" encoding="utf-8"?>
<!-- Generator: Adobe Illustrator 24.1.0, SVG Export Plug-In . SVG Version: 6.00 Build 0)  -->
<svg version="1.1" id="Capa_1" xmlns="http://www.w3.org/2000/svg" xmlns:xlink="http://www.w3.org/1999/xlink" x="0px" y="0px"
	 viewBox="0 0 368 368" enable-background="new 0 0 368 368" xml:space="preserve">
<g>
	<g>
		<g>
			<g>
				<path fill="#002147" d="M164.528,154.333v170.332H42.632c0.226-10.378,1.852-18.775,4.515-25.268
					c8.876-21.647,20.364-43.349,34.763-57.755c19.077-19.108,43.447-30.831,69.285-36.043v-2.614l-86.807,0.003
					c-5.444,2.001-17.778,15.948-30.785,32.788c-4.455,5.767-9.203,15.862-11.964,21.469C10.466,279.941,2.046,298.406,2,323.988
					v41.286h203.16V43.172l115.125-0.063c-2.503,12.387-9.794,31.144-17.778,42.301c-8.717,12.182-23.73,28.088-34.48,36.887
					c-14.991,12.268-41.186,27.383-62.868,26.695v40.468c0,0,13.618,2.65,54.176-13.864c13.714-5.584,34.698-22.533,41.816-28.144
					c7.77-6.124,18.2-17.073,25.621-27.298c13.366-18.414,19.47-25.38,23.789-38.954c0.358-1.121,9.791-21.847,10.354-37.413V2.5
					H164.528V154.333z"/>
				<path fill="#002147" d="M151.195,205.599v-2.614h-0.753H45.614c-0.002,0-0.003,0.003-0.004,0.003l123.657-0.003
					c0.128,0.895-0.138,1.795,0,2.689h-18.424C150.963,205.644,151.076,205.628,151.195,205.599z"/>
				<path fill="#002147" d="M183.404,202.985c0,0-14.764-111.761-15.236-112.413c-6.618-9.139-26.436-41.383-36.484-50
					c-6.77-5.805-24.066-16.479-36.824-22.419c-7.667-3.57-33.352-12.86-36.146-13.371C47.316,2.696,48.122,2.5,31.12,2.5H2v200.485
					H183.404z M42.632,162.229L42.41,43.089c25.978,5.171,49.876,17.888,69.047,37.079c19.076,19.108,34.97,56.156,40.204,82.061
					H42.632z"/>
				<path fill="#002147" d="M248.463,202.985h75.883v121.68c-27.426-4.569-64.663-34.01-82.242-52.855
					c-5.486-5.883-10.808-11.805-15.324-18.272l-0.299,57.929c1.739,1.928,12.599,11.672,14.899,13.728
					c9.815,8.773,31.217,21.56,32.13,22.119c19.883,12.206,38.779,18.186,64.296,18.186H365V148.992h-30.533
					c0,0-18.74,17.677-37.79,30.347C279.328,190.877,248.463,202.985,248.463,202.985z"/>
			</g>
		</g>
	</g>
</g>
</svg>
