<?xml version="1.0" encoding="utf-8"?>
<!-- Generator: Adobe Illustrator 24.1.0, SVG Export Plug-In . SVG Version: 6.00 Build 0)  -->
<svg version="1.1" id="Capa_1" xmlns="http://www.w3.org/2000/svg" xmlns:xlink="http://www.w3.org/1999/xlink" x="0px"
	y="0px" viewBox="0 0 368 368" enable-background="new 0 0 368 368" xml:space="preserve">
	<g>
		<g>
			<polygon fill="#752439"
				points="59.445,223.456 59.445,138.675 148.701,138.675 96.749,84.777 3,84.777 3,179.287 		" />
			<path fill="#752439" d="M56.904,26.115c0,12.764-10.799,23.113-24.122,23.113c-13.323,0-24.12-10.349-24.12-23.113
			C8.662,13.346,19.46,3,32.783,3C46.105,3,56.904,13.346,56.904,26.115z" />
			<polygon fill="#752439"
				points="140.4,63.814 232.459,63.937 232.459,149.463 288.706,99.682 288.706,9.85 197.823,9.85 		" />
			<path fill="#752439" d="M326.255,49.228c-13.322,0-24.124-10.349-24.124-23.113C302.131,13.346,312.933,3,326.255,3
			c13.323,0,24.12,10.346,24.12,23.115C350.375,38.879,339.578,49.228,326.255,49.228z" />
			<polygon fill="#752439" points="311.484,141.514 311.356,229.722 222.102,229.724 274.048,283.624 367.802,283.624 
			367.805,196.538 		" />
			<path fill="#752439" d="M316.631,327.358c0-12.766,10.799-23.114,24.123-23.114c13.32,0,24.123,10.349,24.123,23.114
			c0,12.767-10.803,23.116-24.123,23.116C327.43,350.474,316.631,340.125,316.631,327.358z" />
			<polygon fill="#752439" points="229.387,304.616 137.332,304.491 137.332,218.964 81.077,268.746 81.077,358.579 171.965,358.582 
					" />
			<path fill="#752439" d="M35.437,320.772c13.321,0,24.121,10.348,24.121,23.113c0,12.766-10.799,23.115-24.121,23.115
			c-13.324,0-24.125-10.349-24.125-23.115C11.311,331.12,22.113,320.772,35.437,320.772z" />
		</g>
	</g>
</svg>