<?xml version="1.0" encoding="utf-8"?>
<!-- Generator: Adobe Illustrator 24.1.0, SVG Export Plug-In . SVG Version: 6.00 Build 0)  -->
<svg version="1.1" id="Capa_1" xmlns="http://www.w3.org/2000/svg" xmlns:xlink="http://www.w3.org/1999/xlink" x="0px"
	y="0px" viewBox="0 0 368 368" style="enable-background:new 0 0 368 368;" xml:space="preserve">
	<style type="text/css">
		.st0 {
			fill: #090609;
		}

		.st1 {
			fill: #0C3249;
		}

		.st2 {
			fill: #920804;
		}

		.st3 {
			fill: #D48418;
		}

		.st4 {
			fill: none;
			stroke: #326292;
			stroke-miterlimit: 10;
		}
	</style>
	<g>
		<g>
			<path class="st1" d="M116.3,275.1c2,3.9,3.8,7.6,5.8,11.3c16.6,30.9,39.4,57.7,68.4,80.5c0.4,0.3,0.9,0.7,1.3,0.7
			c1.5,0.2,3.1,0.2,4.7,0.3c0-35.1,0-70.1,0-105.2C169.2,263.7,142.6,267.8,116.3,275.1z" />
			<path class="st1" d="M49.4,304.5c13.8,14.3,29.4,26.4,47,36.3c17.6,9.9,36.3,17.2,56.3,21.7c-23.6-24-42.1-50.9-55.4-80.9
			C80.5,287.7,64.6,295.4,49.4,304.5z" />
			<path class="st1" d="M216.9,368c1.3-0.1,2.5,0,3.7-0.2c0.7-0.1,1.5-0.4,2.1-0.8c27.7-23,49.5-50,65.2-81.2c1.7-3.5,3.4-7,5.1-10.6
			c-24.9-7.3-50.1-11.4-76.1-12.3C216.9,297.9,216.9,332.9,216.9,368z" />
			<path class="st1" d="M312,281.5c-6.6,15-14.5,29.2-23.8,42.7c-9.3,13.6-19.9,26.3-31.6,38.3c40.8-9.6,75.1-29,103.4-58
			C344.8,295.4,328.8,287.7,312,281.5z" />
			<path class="st1" d="M80,176.7c1.1-25.9,6.1-51,15-75.6c-19.2-7-37.2-15.8-54.4-26.2C17.1,105.5,4.2,139.3,2,176.7
			C28,176.7,53.9,176.7,80,176.7z" />
			<path class="st1" d="M80,195.6c-26,0-51.9,0-78,0c2.2,37.4,15.1,71.2,38.6,101.7c17.1-10.4,34.9-18.9,53.7-25.9
			C85.7,246.7,80.9,221.5,80,195.6z" />
			<path class="st2" d="M100.4,195.6c-1.3,12.6,7.5,58.7,13.2,69.4c13.4-4,27.1-7.1,40.9-9.4c13.9-2.2,27.9-3.6,42-4
			c0-18.8,0-37.4,0-56C164.4,195.6,132.4,195.6,100.4,195.6z" />
			<path class="st3" d="M100.3,176.7c32.2,0,64.2,0,96.2,0c0-18.7,0-37.3,0-56c-28.1-0.9-55.5-5.3-82.4-13.2
			C106,130,101.4,153,100.3,176.7z" />
			<path class="st4" d="M95.7,96.6" />
			<path class="st1" d="M198.6,4c-1.2,0.4-2.3,0.5-3,1.1c-30.9,24.2-54.7,53-71.6,86.6c-0.9,1.9-1.8,3.8-2.7,5.7
			c12.1,5.1,67.8,13.7,77.3,12C198.6,74.4,198.6,39.4,198.6,4z" />
			<path class="st1"
				d="M156.3,7.4c-43.1,9.3-79.3,28.9-109,58.5c16,9.3,32.6,17,50.2,23.3C111.6,58.7,131.3,31.5,156.3,7.4z" />
			<path class="st1" d="M223,4.4c0,35,0,70,0,105c13.9,1,63.5-6.9,75.1-12c-0.1-0.3-0.3-0.7-0.4-1c-16.3-35.2-40-65.4-71-90.7
			C225.6,4.8,224.6,4,223,4.4z" />
			<path class="st1" d="M366,67.7c-9.3-9.7-19.5-18.4-30.8-26.1c-11.2-7.7-23.2-14.3-35.8-19.8C288.4,17,263.1,8.9,260,9.4
			c24.5,24,43.5,51.3,57.3,81.7C328.5,87.6,361,72,366,67.7z" />
		</g>
	</g>
</svg>