<?xml version="1.0" encoding="utf-8"?>
<!-- Generator: Adobe Illustrator 24.1.0, SVG Export Plug-In . SVG Version: 6.00 Build 0)  -->
<svg version="1.1" id="Capa_1" xmlns="http://www.w3.org/2000/svg" xmlns:xlink="http://www.w3.org/1999/xlink" x="0px"
	y="0px" viewBox="0 0 368 368" enable-background="new 0 0 368 368" xml:space="preserve">
	<g>
		<g>
			<path opacity="0.6" fill="#DAEEDC" d="M364.197,183.288c0,100.193-81.016,181.41-180.957,181.41
			c-99.941,0-180.957-81.217-180.957-181.41C2.284,83.102,83.299,1.883,183.241,1.883C283.182,1.883,364.197,83.102,364.197,183.288
			z" />
			<path fill="#028910" d="M364.197,183.288c0,100.193-81.016,181.41-180.957,181.41c-99.941,0-180.957-81.217-180.957-181.41
			C2.284,83.102,83.299,1.883,183.241,1.883C283.182,1.883,364.197,83.102,364.197,183.288z M183.241,5.373
			C85.222,5.373,5.767,85.028,5.767,183.288c0,98.266,79.455,177.923,177.474,177.923c98.018,0,177.477-79.657,177.477-177.923
			C360.717,85.028,281.258,5.373,183.241,5.373z" />
			<g>
				<g>
					<path fill="#269932" d="M254.719,222.604c0,0-68.246-80.707-72.504-114.243c-4.497-35.417,12.194-56.622,23.593-68.317
					c10.073-10.333,31.943-17.166,43.728-17.795c42.87-2.297,65.405,26.217,73.655,49.372c4.275,12.006,1.778,37.123-3.245,48.836
					C308.204,147.813,254.719,222.604,254.719,222.604z" />
					<path fill="#028910" d="M254.719,222.572c0,0-68.246-81.095-72.504-114.791c-4.497-35.589,12.194-56.893,23.593-68.647
					c10.073-10.383,31.943-17.248,43.728-17.883c42.87-2.305,65.405,26.345,73.655,49.61c4.275,12.066,1.778,37.303-3.245,49.072
					C308.204,147.421,254.719,222.572,254.719,222.572z M318.514,119.483c4.9-11.479,7.334-36.095,3.163-47.859
					c-8.042-22.69-30.019-50.63-71.833-48.381c-11.492,0.618-32.82,7.312-42.644,17.438c-11.117,11.462-27.396,32.24-23.012,66.948
					c4.156,32.864,70.714,111.952,70.714,111.952S307.061,146.289,318.514,119.483z" />
				</g>
				<path fill="#93CC98" d="M284.507,95.787c0,16.964-13.723,30.716-30.646,30.716c-16.918,0-30.64-13.752-30.64-30.716
				c0-16.966,13.722-30.718,30.64-30.718C270.784,65.068,284.507,78.821,284.507,95.787z" />
				<path fill="#028910" d="M284.507,95.787c0,16.964-13.723,30.716-30.646,30.716c-16.918,0-30.64-13.752-30.64-30.716
				c0-16.966,13.722-30.718,30.64-30.718C270.784,65.068,284.507,78.821,284.507,95.787z M253.91,67.007
				c-15.603,0-28.257,12.847-28.257,28.697c0,15.85,12.654,28.698,28.257,28.698c15.604,0,28.26-12.848,28.26-28.698
				C282.17,79.854,269.515,67.007,253.91,67.007z" />
			</g>
		</g>
	</g>
</svg>