<?xml version="1.0" encoding="utf-8"?>
<!-- Generator: Adobe Illustrator 24.1.0, SVG Export Plug-In . SVG Version: 6.00 Build 0)  -->
<svg version="1.1" id="Capa_1" xmlns="http://www.w3.org/2000/svg" xmlns:xlink="http://www.w3.org/1999/xlink" x="0px" y="0px"
	 viewBox="0 0 368 368" enable-background="new 0 0 368 368" xml:space="preserve">
<g>
	<g>
		<path fill="#C29E9D" d="M262.327,157.696l-45.46-61.422l-21.021,27.25l30.781,41.595c7.73,10.431,7.73,27.357,0,37.799
			l-76.951,103.949c-7.73,10.441-20.26,10.441-27.984,0L44.74,202.918c-7.731-10.441-7.731-27.368,0-37.799l76.952-103.964
			c7.724-10.442,20.254-10.442,27.984,0l7.88,10.642l21.384-26.756l-23.77-32.113c-10.762-14.534-28.212-14.534-38.971,0
			L9.041,157.696c-10.764,14.535-10.764,38.099,0,52.64l107.158,144.763c10.759,14.535,28.21,14.535,38.971,0l107.157-144.763
			C273.089,195.795,273.089,172.231,262.327,157.696z"/>
		<path fill="#C29E9D" d="M114.347,210.301l45.462,61.427l21.02-27.26l-30.782-41.585c-7.729-10.437-7.729-27.364,0-37.804
			l76.95-103.955c7.728-10.436,20.26-10.436,27.987,0l76.951,103.955c7.727,10.44,7.727,27.368,0,37.804l-76.951,103.958
			c-7.727,10.437-20.258,10.437-27.987,0l-7.879-10.643l-21.381,26.021l23.767,32.844c10.763,14.539,28.212,14.539,38.972,0
			l107.159-144.764c10.765-14.53,10.765-38.104,0-52.639L260.476,12.894c-10.76-14.525-28.209-14.525-38.972,0L114.347,157.662
			C103.587,172.197,103.587,195.771,114.347,210.301z"/>
		<path fill="#955654" d="M332.922,201.443L255.24,306.382c-7.727,10.619-19.958,11.411-29.193-0.535l-6.93-9.647l-21.381,26.021
			l23.767,32.658c10.763,14.789,28.212,14.789,38.972,0l95.521-128.856C355.997,226.022,332.035,201.423,332.922,201.443z"/>
		<path fill="#955654" d="M232.948,55.602c0,0-21.822-23.154-23.364-26.604l-66.248,89.497l21.242,26.956l62.419-84.531
			c0.987-1.353,1.976-2.201,3.099-3.216C230.076,57.586,232.965,55.732,232.948,55.602z"/>
		<path fill="#955654" d="M239.145,126.377l-22.279-30.054l-21.021,27.201l22.381,30.246
			C218.014,154.271,239.145,126.377,239.145,126.377z"/>
		<path fill="#955654" d="M126.207,56.586c0,0,4.193-3.275,9.478-3.26c7.658,0.019,12.515,6.104,12.515,6.104l9.356,12.368
			l21.384-26.756L158.086,16.87L126.207,56.586z"/>
	</g>
</g>
</svg>
