<svg version="1.1" id="Layer_1" xmlns="http://www.w3.org/2000/svg" xmlns:xlink="http://www.w3.org/1999/xlink" x="0px" y="0px"
	 width="100%" viewBox="0 0 374 367" enable-background="new 0 0 374 367" xml:space="preserve">
<path fill="#FEFEFE" opacity="1.000000" stroke="none" 
	d="
M1.000000,170.000000 
	C1.000000,113.683632 1.000000,57.367268 1.000000,1.025450 
	C125.612144,1.025450 250.224304,1.025450 374.918213,1.025450 
	C374.918213,123.241928 374.918213,245.483917 374.918213,367.862976 
	C250.333435,367.862976 125.666740,367.862976 1.000000,367.862976 
	C1.000000,311.570343 1.000000,255.253830 1.336400,198.620361 
	C1.965157,199.230682 2.061172,200.288986 2.579387,201.065536 
	C10.070799,212.291534 17.323406,223.693130 25.221371,234.627853 
	C37.657562,251.845718 50.560555,268.725952 63.223049,285.780945 
	C80.374886,308.882568 97.716049,331.848633 114.533600,355.191620 
	C125.639099,370.606232 145.838318,369.038513 155.639450,354.205627 
	C164.733307,340.443176 175.292160,327.651520 185.144760,314.386932 
	C196.542694,299.041870 207.872452,283.646149 219.234177,268.274231 
	C232.453201,250.389450 245.557602,232.418243 258.943665,214.659363 
	C265.866333,205.475296 270.080414,195.443268 269.953979,183.902100 
	C269.840210,173.518967 266.934021,164.033997 260.366333,155.681320 
	C252.728348,145.967453 245.469162,135.955750 237.786682,125.848175 
	C230.394424,115.967529 223.261047,106.312012 215.861954,96.296852 
	C208.545700,105.785469 201.699280,114.664726 194.795883,123.617882 
	C202.550217,133.955231 210.017761,143.910248 217.331177,154.182709 
	C219.706177,158.090179 221.993301,161.883850 224.810455,165.231476 
	C232.797058,174.721970 233.064453,190.849335 226.542786,200.575806 
	C218.322815,212.835144 208.924789,224.304581 200.024429,235.786041 
	C198.662125,233.863922 195.693710,234.292023 195.278854,236.887787 
	C194.459900,242.011856 189.218231,242.150452 186.912613,246.673248 
	C185.268173,237.757614 171.523468,237.522430 175.763794,226.133667 
	C172.984955,226.887634 170.927124,227.445984 168.581848,227.879028 
	C167.846497,226.870560 167.398575,225.987396 167.119553,224.762512 
	C167.754242,222.621490 168.220047,220.822189 168.685852,219.022888 
	C167.167358,218.681900 165.660599,218.265106 164.126099,218.027573 
	C163.160965,217.878189 162.154236,217.997543 161.014252,217.685150 
	C159.307510,215.480652 157.528366,213.727585 156.239944,211.667618 
	C152.389008,205.510574 147.544220,199.637085 145.255829,192.914734 
	C141.133621,180.805466 145.369919,169.960083 153.191452,160.193344 
	C156.887390,155.578217 159.827316,150.357651 163.415680,145.230133 
	C179.602295,123.606499 195.397705,102.100121 211.406143,80.753502 
	C217.725250,72.327209 224.518997,64.256882 231.488098,56.002083 
	C242.019806,51.376282 248.509659,55.045765 252.974976,60.661251 
	C260.190338,69.735153 266.929993,79.188683 273.827209,88.513954 
	C291.602448,112.546860 309.259705,136.667847 327.166870,160.601929 
	C333.298370,168.797043 337.417816,177.509033 335.881836,187.893356 
	C335.179810,192.639420 333.291504,197.210037 331.577026,201.909668 
	C330.238708,203.365341 329.300598,204.798141 328.284882,206.173599 
	C318.775848,219.050156 309.244934,231.910553 299.737061,244.787964 
	C284.921814,264.853638 270.228302,285.010468 255.265793,304.965668 
	C247.828613,314.884430 240.249405,317.763733 229.509995,310.095367 
	C228.053101,309.055084 226.692734,307.779175 225.577515,306.381165 
	C223.065353,303.232025 220.734909,299.937927 218.034058,296.303864 
	C210.734741,305.187622 203.812210,313.612823 196.757538,322.198822 
	C203.110580,330.979218 209.317886,339.560974 215.528763,348.140106 
	C216.989960,350.158508 218.459106,352.171143 219.931458,354.181427 
	C231.365616,369.793060 248.077637,370.064575 259.680664,354.560791 
	C278.967987,328.789429 298.081573,302.887787 317.219513,277.004944 
	C329.837189,259.940338 342.369293,242.812454 355.280548,225.744049 
	C361.308441,217.086960 368.118591,208.896973 372.274597,199.529449 
	C374.899841,193.612183 373.436371,185.925430 374.035248,179.052261 
	C374.648590,172.013000 372.235229,165.824173 368.913330,159.932007 
	C367.397644,157.243591 365.192963,154.948456 363.349487,152.439194 
	C349.903412,134.136871 336.510162,115.795609 323.022827,97.523766 
	C302.268341,69.406799 281.407715,41.368099 260.683746,13.228710 
	C252.427414,2.018124 237.913544,-2.132320 227.786057,5.283803 
	C219.186569,11.581007 213.158615,20.541632 207.844177,30.215256 
	C194.345520,48.337322 181.058563,66.194237 167.821671,84.088203 
	C159.227371,95.706207 150.706131,107.378265 141.801804,119.072403 
	C135.239838,127.300011 128.853088,135.355515 122.861862,143.695129 
	C115.691505,153.676056 107.017937,162.858734 105.455612,175.951889 
	C104.013741,188.035629 105.109802,199.682327 112.346191,209.762772 
	C126.703079,229.762222 141.444412,249.486176 156.112183,269.260712 
	C156.991455,270.446106 158.621902,271.074310 160.279922,271.979736 
	C161.293823,272.949921 162.464172,273.896271 162.474762,274.855377 
	C162.519714,278.933014 162.220978,283.014435 162.016479,287.446198 
	C157.084946,294.316589 152.157516,300.815033 147.291321,307.359009 
	C141.304184,315.410309 130.338364,316.862640 124.074928,309.319977 
	C113.635925,296.748993 103.938759,283.550385 94.173523,270.434113 
	C77.403137,247.908813 60.750893,225.294510 44.190796,202.614090 
	C36.549976,192.149368 36.368603,176.029526 44.099575,165.496170 
	C53.189156,153.111725 62.543343,140.921722 71.756836,128.627960 
	C90.178520,104.047493 108.582535,79.453758 127.317368,54.947083 
	C139.552948,52.367420 143.009918,53.722523 150.014725,63.452568 
	C151.982315,66.185661 154.294266,68.670868 156.690002,71.561462 
	C162.091827,64.868568 167.032211,58.625282 172.106155,52.492496 
	C178.083755,45.267433 178.127701,45.313572 172.349762,37.542622 
	C170.962097,35.676296 169.695923,33.716946 168.261002,31.888987 
	C164.583191,27.203749 160.841919,22.568323 157.133118,17.619574 
	C156.407501,15.793213 155.898315,14.095389 154.907761,12.752671 
	C144.317322,-1.603030 126.879761,-1.904245 117.179451,9.723363 
	C104.324570,25.132318 92.965485,41.791634 81.011528,57.949085 
	C64.500443,80.266159 47.760571,102.421288 31.645880,125.021690 
	C21.118542,139.785980 8.194883,152.957840 1.000000,170.000000 
M183.931549,236.378479 
	C184.254608,232.837814 184.254608,232.837814 179.600769,234.273102 
	C181.153595,235.279099 182.243515,235.985214 183.931549,236.378479 
M168.517151,225.411880 
	C168.517151,225.411880 168.583603,225.523117 168.517151,225.411880 
z"/>
<path fill="#12A5C7" opacity="1.000000" stroke="none" 
	d="
M1.000000,170.468658 
	C8.194883,152.957840 21.118542,139.785980 31.645880,125.021690 
	C47.760571,102.421288 64.500443,80.266159 81.011528,57.949085 
	C92.965485,41.791634 104.324570,25.132318 117.179451,9.723363 
	C126.879761,-1.904245 144.317322,-1.603030 154.907761,12.752671 
	C155.898315,14.095389 156.407501,15.793213 156.818970,17.768696 
	C146.663116,30.429327 136.828491,42.647423 126.993851,54.865513 
	C108.582535,79.453758 90.178520,104.047493 71.756836,128.627960 
	C62.543343,140.921722 53.189156,153.111725 44.099575,165.496170 
	C36.368603,176.029526 36.549976,192.149368 44.190796,202.614090 
	C60.750893,225.294510 77.403137,247.908813 94.173523,270.434113 
	C103.938759,283.550385 113.635925,296.748993 124.074928,309.319977 
	C130.338364,316.862640 141.304184,315.410309 147.291321,307.359009 
	C152.157516,300.815033 157.084946,294.316589 162.325989,287.296692 
	C166.678665,281.457397 170.738144,276.154327 174.692688,270.774078 
	C183.168839,259.242065 191.590820,247.670288 200.035004,236.114807 
	C208.924789,224.304581 218.322815,212.835144 226.542786,200.575806 
	C233.064453,190.849335 232.797058,174.721970 224.810455,165.231476 
	C221.993301,161.883850 219.706177,158.090179 217.565140,153.987549 
	C218.834808,152.287430 219.723099,151.104843 220.596878,149.911621 
	C226.414841,141.966782 232.229706,134.019669 238.045563,126.073288 
	C245.469162,135.955750 252.728348,145.967453 260.366333,155.681320 
	C266.934021,164.033997 269.840210,173.518967 269.953979,183.902100 
	C270.080414,195.443268 265.866333,205.475296 258.943665,214.659363 
	C245.557602,232.418243 232.453201,250.389450 219.234177,268.274231 
	C207.872452,283.646149 196.542694,299.041870 185.144760,314.386932 
	C175.292160,327.651520 164.733307,340.443176 155.639450,354.205627 
	C145.838318,369.038513 125.639099,370.606232 114.533600,355.191620 
	C97.716049,331.848633 80.374886,308.882568 63.223049,285.780945 
	C50.560555,268.725952 37.657562,251.845718 25.221371,234.627853 
	C17.323406,223.693130 10.070799,212.291534 2.579387,201.065536 
	C2.061172,200.288986 1.965157,199.230682 1.336400,198.151703 
	C1.000000,188.979111 1.000000,179.958206 1.000000,170.468658 
z"/>
<path fill="#12A5C7" opacity="1.000000" stroke="none" 
	d="
M208.077087,29.965824 
	C213.158615,20.541632 219.186569,11.581007 227.786057,5.283803 
	C237.913544,-2.132320 252.427414,2.018124 260.683746,13.228710 
	C281.407715,41.368099 302.268341,69.406799 323.022827,97.523766 
	C336.510162,115.795609 349.903412,134.136871 363.349487,152.439194 
	C365.192963,154.948456 367.397644,157.243591 368.913330,159.932007 
	C372.235229,165.824173 374.648590,172.013000 374.035248,179.052261 
	C373.436371,185.925430 374.899841,193.612183 372.274597,199.529449 
	C368.118591,208.896973 361.308441,217.086960 355.054871,225.527008 
	C346.972656,217.472610 339.456909,209.666412 331.941193,201.860214 
	C333.291504,197.210037 335.179810,192.639420 335.881836,187.893356 
	C337.417816,177.509033 333.298370,168.797043 327.166870,160.601929 
	C309.259705,136.667847 291.602448,112.546860 273.827209,88.513954 
	C266.929993,79.188683 260.190338,69.735153 252.974976,60.661251 
	C248.509659,55.045765 242.019806,51.376282 231.424744,55.659813 
	C223.338989,46.881889 215.708038,38.423859 208.077087,29.965824 
z"/>
<path fill="#146AC9" opacity="1.000000" stroke="none" 
	d="
M331.577026,201.909668 
	C339.456909,209.666412 346.972656,217.472610 354.714050,225.495850 
	C342.369293,242.812454 329.837189,259.940338 317.219513,277.004944 
	C298.081573,302.887787 278.967987,328.789429 259.680664,354.560791 
	C248.077637,370.064575 231.365616,369.793060 219.931458,354.181427 
	C218.459106,352.171143 216.989960,350.158508 215.528763,348.140106 
	C209.317886,339.560974 203.110580,330.979218 196.757538,322.198822 
	C203.812210,313.612823 210.734741,305.187622 218.034058,296.303864 
	C220.734909,299.937927 223.065353,303.232025 225.577515,306.381165 
	C226.692734,307.779175 228.053101,309.055084 229.509995,310.095367 
	C240.249405,317.763733 247.828613,314.884430 255.265793,304.965668 
	C270.228302,285.010468 284.921814,264.853638 299.737061,244.787964 
	C309.244934,231.910553 318.775848,219.050156 328.284882,206.173599 
	C329.300598,204.798141 330.238708,203.365341 331.577026,201.909668 
z"/>
<path fill="#12A5C7" opacity="1.000000" stroke="none" 
	d="
M166.950653,225.104233 
	C167.398575,225.987396 167.846497,226.870560 168.648438,228.232239 
	C171.822983,232.461166 174.668671,236.192993 177.455490,239.968277 
	C179.441223,242.658371 181.305313,245.133514 177.527557,248.218491 
	C175.341293,250.003784 174.029099,252.851959 172.296707,255.202026 
	C168.173889,260.794861 164.035126,266.375946 159.902802,271.961792 
	C158.621902,271.074310 156.991455,270.446106 156.112183,269.260712 
	C141.444412,249.486176 126.703079,229.762222 112.346191,209.762772 
	C105.109802,199.682327 104.013741,188.035629 105.455612,175.951889 
	C107.017937,162.858734 115.691505,153.676056 122.861862,143.695129 
	C128.853088,135.355515 135.239838,127.300011 142.088303,119.228516 
	C149.520035,128.029343 156.314911,136.720367 163.109802,145.411392 
	C159.827316,150.357651 156.887390,155.578217 153.191452,160.193344 
	C145.369919,169.960083 141.133621,180.805466 145.255829,192.914734 
	C147.544220,199.637085 152.389008,205.510574 156.239944,211.667618 
	C157.528366,213.727585 159.307510,215.480652 161.043900,218.018066 
	C163.133865,220.809509 165.042252,222.956879 166.950653,225.104233 
z"/>
<path fill="#146AC9" opacity="1.000000" stroke="none" 
	d="
M163.415680,145.230133 
	C156.314911,136.720367 149.520035,128.029343 142.438660,119.182213 
	C150.706131,107.378265 159.227371,95.706207 167.821671,84.088203 
	C181.058563,66.194237 194.345520,48.337322 207.844177,30.215260 
	C215.708038,38.423859 223.338989,46.881889 231.033279,55.682190 
	C224.518997,64.256882 217.725250,72.327209 211.406143,80.753502 
	C195.397705,102.100121 179.602295,123.606499 163.415680,145.230133 
z"/>
<path fill="#156AC8" opacity="1.000000" stroke="none" 
	d="
M237.786682,125.848175 
	C232.229706,134.019669 226.414841,141.966782 220.596878,149.911621 
	C219.723099,151.104843 218.834808,152.287430 217.719269,153.670090 
	C210.017761,143.910248 202.550217,133.955231 194.795883,123.617882 
	C201.699280,114.664726 208.545700,105.785469 215.861954,96.296852 
	C223.261047,106.312012 230.394424,115.967529 237.786682,125.848175 
z"/>
<path fill="#156AC9" opacity="1.000000" stroke="none" 
	d="
M127.317375,54.947086 
	C136.828491,42.647423 146.663116,30.429327 156.811890,18.062111 
	C160.841919,22.568323 164.583191,27.203749 168.261002,31.888987 
	C169.695923,33.716946 170.962097,35.676296 172.349762,37.542622 
	C178.127701,45.313572 178.083755,45.267433 172.106155,52.492496 
	C167.032211,58.625282 162.091827,64.868568 156.690002,71.561462 
	C154.294266,68.670868 151.982315,66.185661 150.014725,63.452568 
	C143.009918,53.722523 139.552948,52.367420 127.317375,54.947086 
z"/>
<path fill="#FBFDFC" opacity="1.000000" stroke="none" 
	d="
M160.279907,271.979736 
	C164.035126,266.375946 168.173889,260.794861 172.296707,255.202026 
	C174.029099,252.851959 175.341293,250.003784 177.527557,248.218491 
	C181.305313,245.133514 179.441223,242.658371 177.455490,239.968277 
	C174.668671,236.192993 171.822983,232.461166 168.935883,228.357544 
	C170.927124,227.445984 172.984955,226.887634 175.763794,226.133667 
	C171.523468,237.522430 185.268173,237.757614 186.912613,246.673248 
	C189.218231,242.150452 194.459900,242.011856 195.278854,236.887787 
	C195.693710,234.292023 198.662125,233.863922 200.024414,235.786026 
	C191.590820,247.670288 183.168839,259.242065 174.692688,270.774078 
	C170.738144,276.154327 166.678665,281.457397 162.357239,286.944946 
	C162.220978,283.014435 162.519714,278.933014 162.474762,274.855377 
	C162.464172,273.896271 161.293823,272.949921 160.279907,271.979736 
z"/>
<path fill="#FBFDFC" opacity="1.000000" stroke="none" 
	d="
M167.119537,224.762512 
	C165.042252,222.956879 163.133865,220.809509 161.195816,218.329239 
	C162.154236,217.997543 163.160965,217.878189 164.126099,218.027573 
	C165.660599,218.265106 167.167358,218.681900 168.685852,219.022888 
	C168.220047,220.822189 167.754242,222.621490 167.119537,224.762512 
z"/>
<path fill="#FBFDFC" opacity="1.000000" stroke="none" 
	d="
M183.632507,236.534912 
	C182.243515,235.985214 181.153595,235.279099 179.600769,234.273102 
	C184.254608,232.837814 184.254608,232.837814 183.632507,236.534912 
z"/>
<path fill="#FBFDFC" opacity="1.000000" stroke="none" 
	d="
M168.550385,225.467499 
	C168.583603,225.523117 168.517151,225.411880 168.550385,225.467499 
z"/>
</svg>