<?xml version="1.0" encoding="utf-8"?>
<!-- Generator: Adobe Illustrator 24.1.0, SVG Export Plug-In . SVG Version: 6.00 Build 0)  -->
<svg version="1.1" id="Capa_1" xmlns="http://www.w3.org/2000/svg" xmlns:xlink="http://www.w3.org/1999/xlink" x="0px" y="0px"
	 viewBox="0 0 368 368" enable-background="new 0 0 368 368" xml:space="preserve">
<g>
	<g>
		<polygon fill="#366275" points="102.183,366.167 193.987,187.236 244.106,187.236 152.299,366.231 		"/>
		<polygon fill="#366275" points="161.35,366.231 253.649,186.418 303.77,186.418 212.382,366.231 		"/>
		<polygon fill="#366275" points="221.433,366.231 312.856,186.418 362.975,186.418 271.154,366.231 		"/>
		<polygon fill="#7996A3" points="362.975,181.196 275.784,2.264 225.665,2.264 312.856,181.194 		"/>
		<polygon fill="#7996A3" points="303.684,181.196 216.612,2.231 166.467,2.231 253.568,181.194 		"/>
		<polygon fill="#7996A3" points="241.515,181.196 157.412,2.264 107.293,2.231 191.394,181.194 		"/>
		<polygon fill="#15485E" points="125.998,186.418 185.205,186.418 158.395,239.031 		"/>
		<polygon fill="#15485E" points="117.246,186.418 64.574,186.418 126.884,300.348 153.122,249.254 		"/>
		<polygon fill="#15485E" points="55.556,186.418 1.93,186.418 93.129,366.231 122.247,309.358 		"/>
	</g>
</g>
</svg>
