<?xml version="1.0" encoding="utf-8"?>
<!-- Generator: Adobe Illustrator 24.1.0, SVG Export Plug-In . SVG Version: 6.00 Build 0)  -->
<svg version="1.1" id="Capa_1" xmlns="http://www.w3.org/2000/svg" xmlns:xlink="http://www.w3.org/1999/xlink" x="0px" y="0px"
	 viewBox="0 0 368 368" enable-background="new 0 0 368 368" xml:space="preserve">
<g>
	<g>
		<polygon fill="#E1A724" points="1.264,1.897 1.264,38.829 238.324,38.829 269.635,1.897 		"/>
		<polygon fill="#EBC46D" points="1.264,55.447 1.264,92.378 196.856,92.378 228.697,55.447 		"/>
		<polygon fill="#F0D391" points="1.264,110.845 1.264,147.776 151.367,147.776 183.211,110.845 		"/>
		<polygon fill="#E1A724" points="1.264,365.667 1.264,328.734 238.324,328.734 269.635,365.667 		"/>
		<polygon fill="#EBC46D" points="1.264,312.116 1.264,275.186 196.856,275.186 228.697,312.116 		"/>
		<polygon fill="#F0D391" points="1.264,256.721 1.264,219.789 151.367,219.789 183.211,256.721 		"/>
		<polygon fill="#FAF0DA" points="1.264,166.241 1.264,199.479 137.722,199.479 124.077,184.705 137.722,166.241 		"/>
		<path fill="#DD9900" d="M301.721,359.075L158.636,198.518c-0.269-0.352-0.247-0.786,0.056-1.117L303.151,39.857
			c0.353-0.382,0.323-0.896-0.07-1.256l-20.72-18.866c-0.638-0.576-0.277-1.458,0.677-1.659l77.68-16.369
			c0.988-0.211,1.914,0.45,1.7,1.21L345.144,65.17c-0.209,0.755-1.392,1.074-2.189,0.595l-19.871-12.059
			c-0.613-0.375-1.524-0.274-1.975,0.221l-130.63,143.525c-0.277,0.307-0.318,0.698-0.106,1.032l116.485,158.52
			C308.45,359.547,303.608,361.5,301.721,359.075"/>
	</g>
</g>
</svg>
