<?xml version="1.0" encoding="utf-8"?>
<!-- Generator: Adobe Illustrator 24.1.0, SVG Export Plug-In . SVG Version: 6.00 Build 0)  -->
<svg version="1.1" id="Capa_1" xmlns="http://www.w3.org/2000/svg" xmlns:xlink="http://www.w3.org/1999/xlink" x="0px" y="0px"
	 viewBox="0 0 368 368" enable-background="new 0 0 368 368" xml:space="preserve">
<g>
	<g>
		<path fill="#3B8ABF" d="M260.059,308.147V217.77h103.034c0,0,0-90.379-102.824-90.379c-85.187,0-103.245,59.791-103.245,91.806
			C157.024,268.862,195.958,308.147,260.059,308.147z"/>
		<path fill="#3B8ABF" d="M257.491,65.715v31.349c0,0-9.685-0.182-19.512,0.796c-5.71,0.566-11.154,1.54-14.195,2.035
			c-6.747,1.097-16.526,4.085-22.949,6.161c-10.021,3.24-22.636,9.858-30.387,14.747c-3.158,1.993-7.862,5.145-11.742,8.324
			c-3.53,2.895-6.285,5.521-8.55,7.507c-4.182,3.67-10.829,11.367-13.813,15.491c-2.301,3.181-5.474,7.89-8.372,12.872
			c-3.833,6.59-6.635,14.121-8.292,18.862c-1.538,4.402-2.748,10.021-3.981,16.702c-0.627,3.385-1.02,7.983-1.082,11.461
			c-0.074,4.219,0.029,8.485,0.271,12.278c0.214,3.357,0.985,7.234,1.306,9.925c0.779,6.498,4.726,18.118,7.355,23.739
			c2.047,4.369,4.868,10.12,9.054,16.415c3.618,5.448,8.014,10.82,11.181,14.285c1.979,2.163,5.639,6.005,8.921,8.857
			c3.432,2.978,7.217,6.067,9.669,7.908c5.706,4.284,11.075,7.539,17.031,10.836c8.075,4.469,17.536,8.431,25.683,10.908
			c8.583,2.61,12.864,3.846,21.29,5.2c17.963,2.885,32.839,2.231,32.839,2.231l0.433,30.721c0,0-9.436,0.622-20.234-0.445
			c-6.807-0.675-13.711-1.792-16.242-2.206c-4.974-0.811-13.493-2.622-20.749-4.816c-7.255-2.195-14.323-4.542-19.814-6.913
			c-2.057-0.886-5.136-2.084-7.966-3.491c-3.756-1.864-7.299-3.418-10.738-5.408c-4.219-2.442-8.155-4.809-10.89-6.494
			c-1.039-0.639-4.684-3.029-8.155-5.574c-3.042-2.231-5.923-4.622-7.163-5.49c-0.71-0.495-4.891-4.117-8.46-7.331
			c-4.578-4.123-14.779-15.016-21.68-24.799c-2.483-3.52-4.628-7.21-6.74-10.582c-2.739-4.377-4.558-8.705-6.223-12.127
			c-0.971-1.992-2.059-4.607-3.13-7.508c-1.065-2.89-2.177-6.185-3.135-9.222c-1.835-5.809-2.919-11.21-3.538-14.98
			c-0.4-2.45-0.942-5.549-1.202-8.623c-0.455-5.402-0.912-11.297-0.71-17.36c0.2-6,0.834-12.124,1.799-17.688
			c0.994-5.736,2.139-10.734,3.381-14.741c1.424-4.611,3.808-11.833,7.044-18.753c2.605-5.573,6.371-12.493,9.352-16.975
			c2.448-3.681,5.191-7.863,8.838-12.291c2.831-3.441,5.902-6.964,8.923-10.21c4.089-4.388,9.335-9.118,13.446-12.578
			c2.493-2.099,6.831-5.498,11.41-8.745c5.682-4.026,11.889-7.736,14.911-9.392c3.734-2.05,8.539-4.687,13.338-6.82
			c4.845-2.152,9.408-4.011,13.357-5.549c1.882-0.735,6.739-2.467,11.015-3.727c3.771-1.108,7.962-2.328,11.684-3.178
			c4.038-0.921,8.708-1.87,9.554-2.044c4.829-0.993,9.86-1.593,13.679-2.096c4.039-0.533,7.133-0.682,8.167-0.81
			C245.59,66.016,257.491,65.715,257.491,65.715z"/>
		<path fill="#3B8ABF" d="M3.867,232.619h37.875c0,0-0.271-5.241-0.181-11.346c0.083-5.837,0.513-12.453,1.061-16.242
			c0.303-2.075,0.608-5.153,1.164-8.35c0.516-2.951,1.059-6.17,1.789-9.21c1.197-5.007,2.415-9.565,3.388-12.805
			c0.698-2.319,1.583-5.154,2.893-8.599c1.561-4.105,3.424-9.017,4.727-11.593c0.938-1.856,3.788-8.117,5.287-10.744
			c1.838-3.226,1.729-3.125,3.461-6.178c1.031-1.819,2.475-4.225,3.517-5.743c1.064-1.549,2.322-3.362,3.744-5.64
			c0.746-1.189,2.276-3.248,3.2-4.484c1.503-2.016,2.583-3.356,4.193-5.486c1.454-1.921,2.341-2.782,3.805-4.644
			c0.941-1.194,2.627-3.068,3.608-4.141c2.49-2.723,5.609-6.037,7.622-8.028c1.681-1.664,2.28-2.235,5.519-5.287
			c2.572-2.423,5.372-4.77,7.744-6.78c2.603-2.201,6.227-4.977,6.227-4.977s2.905-2.319,6.751-4.967
			c2.432-1.675,5.111-3.449,7.685-5.174c2.583-1.729,5.146-3.186,6.786-4.175c2.34-1.415,6.481-3.747,10.235-5.668
			c4.254-2.175,8.157-3.936,10.963-5.305c2.486-1.216,6.421-2.762,11.017-4.604c3.1-1.243,7.192-2.695,10.389-3.723
			c7.166-2.298,14.348-4.278,18.001-5.186c4.639-1.153,14.602-3.292,22.219-4.17c8.869-1.024,19.208-2.139,29.096-2.233
			c3.288-0.031,9.748,0.066,9.748,0.066V2.576c0,0-22.815-1.022-32.273-0.078c0,0-5.187,0.246-11.277,0.885
			c-6.319,0.662-13.606,1.732-17.374,2.322c-1.978,0.309-8.067,1.346-14.979,2.956c-3.289,0.766-7.137,1.774-10.402,2.603
			c-4.592,1.164-8.464,2.416-11.25,3.337c-4.546,1.504-8.879,3.006-16.078,5.904c-3.117,1.252-7.275,2.862-11.648,4.859
			c-1.37,0.624-11.102,5.404-11.971,5.879c-0.703,0.385-4.25,2.304-7.773,4.339c-4.344,2.51-8.859,5.349-9.694,5.869
			c-1.672,1.038-5.618,3.667-9.383,6.299c-2.098,1.468-4.386,3.192-5.53,4.031c-2.698,1.977-5.971,4.639-7.006,5.472
			c-2.17,1.748-5.013,4.191-5.575,4.676c-1.998,1.723-5.806,5.208-6.269,5.636c-1.558,1.445-4.042,3.87-5.277,5.089
			c-4.519,4.459-13.378,14.009-18.398,20.781c-1.232,1.664-3.193,4.111-5.047,6.774c-3.041,4.36-6.219,9.241-8.091,12.184
			c-1.182,1.865-3.757,6.083-6.313,11.041c-1.142,2.216-2.312,4.512-3.481,6.864c-2.71,5.455-4.822,11.025-6.32,14.547
			c-2.256,5.304-5.614,16.449-7.061,22.028c-1.146,4.411-2.84,13.302-3.635,17.68c-0.579,3.176-1.454,10.831-1.601,13.204
			c-0.152,2.388-0.428,5.122-0.519,7.929c-0.05,1.615-0.07,3.248-0.095,4.833c-0.039,2.248-0.041,4.395-0.074,6.256
			c-0.031,1.629,0.13,5.872,0.366,9.603C3.58,229.686,3.867,232.619,3.867,232.619z"/>
	</g>
</g>
</svg>
