<?xml version="1.0" encoding="UTF-8"?>
<svg id="Layer_1" data-name="Layer 1" xmlns="http://www.w3.org/2000/svg" width="541.21" height="557.54" viewBox="0 0 541.21 557.54">
  <defs>
    <style>
      .cls-1 {
        fill: #f5f6ff;
      }

      .cls-2 {
        fill: #c5cef7;
      }

      .cls-3 {
        fill: #cad0fc;
      }

      .cls-4 {
        fill: #fddeb2;
      }

      .cls-5 {
        fill: #afb8fa;
      }

      .cls-6 {
        fill: #7f8cf5;
      }
    </style>
  </defs>
  <path class="cls-5" d="M450.79,180.2l-287.62,147.43c-1.49.86-3.49.22-4.44-1.43l-37.17-64.38c-.95-1.65-.51-3.7.99-4.56L397.33,87.12c1.49-.86,3.49-.22,4.44,1.43l50.01,87.09c.95,1.65.51,3.7-.99,4.56Z"/>
  <circle class="cls-4" cx="284.67" cy="268.43" r="13.86"/>
  <rect class="cls-6" x="89.44" y="299.27" width="38.47" height="25.24" rx="2.86" ry="2.86" transform="translate(-141.39 96.12) rotate(-30)"/>
  <rect class="cls-1" x="57.42" y="305.96" width="20.96" height="57.76" rx="2.3" ry="2.3" transform="translate(-158.32 78.81) rotate(-30)"/>
  <rect class="cls-2" x="231.51" y="121.02" width="19.73" height="36.19" transform="translate(-36.14 163.6) rotate(-35)"/>
  <rect class="cls-3" x="439.49" y="31.46" width="49.9" height="154.17" rx="5.59" ry="5.59" transform="translate(7.95 246.76) rotate(-30)"/>
  <path d="M143.63,300.08l-7.06-12.26c-3.39-5.88-6.56-11.23-13.13-12.99-6.57-1.76-13.42-.86-19.3,2.53l-23.11,13.34c-12.15,7.01-13.75,22.09-6.74,34.24l6.38,11.05c4.71,8.15,11.06,13.83,19.86,13.83,4.31,0,8.68-1.1,12.68-3.4l23.1-13.34c5.88-3.39,10.09-8.88,11.85-15.45s-1.13-11.68-4.53-17.55ZM126.54,316.15l-23.11,13.34c-2.81,1.62-6.43.65-8.05-2.16l-6.73-11.65c-1.62-2.81-.65-6.43,2.16-8.05l23.11-13.34c2.81-1.62,6.43-.65,8.05,2.16l6.73,11.65c1.62,2.81.65,6.43-2.16,8.05Z"/>
  <path d="M95.38,327.33l-6.73-11.65c-.98-1.7-1-3.7-.24-5.38l-6.57-11.38c-6.69-11.59-21.57-15.58-33.16-8.89l-9.97,5.75c-11.59,6.69-15.58,21.57-8.88,33.16l24.15,41.83c4.49,7.78,12.67,12.13,21.06,12.13,4.12,0,8.28-1.05,12.1-3.25l9.97-5.75h0c11.59-6.7,15.57-21.57,8.88-33.16l-6.07-10.51c-1.83-.18-3.55-1.2-4.54-2.9ZM87.32,356.97l-9.96,5.75c-2.25,1.3-5.16.52-6.46-1.73l-24.15-41.83c-1.3-2.25-.52-5.16,1.73-6.46l9.96-5.75c2.25-1.3,5.16-.52,6.46,1.73l24.15,41.83c1.3,2.25.52,5.16-1.73,6.46Z"/>
  <path d="M243.88,91.41l-48.19,33.74,41.24,60,50.13-32.08-43.18-61.67ZM222.92,129.95l16.16-11.32,20.76,29.64-16.16,11.32-20.76-29.64Z"/>
  <path d="M469.33,167.03l-52.34-90.76c-3.09-5-8.65-8.99-14.36-10.52-5.94-1.59-12.14-.77-17.45,2.3L112.69,239.35c-5.13,3.08-8.79,7.95-10.35,13.75-1.59,5.94-.78,12.14,2.29,17.46l13.32,23.07c1.63.31,3.12,1.27,4.01,2.81l6.73,11.65c.89,1.54.97,3.31.43,4.88l12.68,21.97c3.07,5.32,8.03,9.12,13.97,10.71,1.99.53,4,.8,6,.8,3.76,0,7.47-.93,10.85-2.75l291.66-147.51.86-.47c10.98-6.34,10.53-17.71,4.19-28.69ZM450.51,180.36l-155.01,79.44c1.89,2.37,3.03,5.36,3.03,8.63,0,7.65-6.2,13.86-13.86,13.86-6.35,0-11.69-4.28-13.33-10.1l-107.89,55.29c-1.65.95-3.77.38-4.72-1.26l-37.17-64.38c-.95-1.65-.38-3.77,1.26-4.72L397.19,87.53c1.65-.95,3.77-.38,4.72,1.26l49.86,86.85c.95,1.65.38,3.77-1.26,4.72Z"/>
  <path d="M284.67,235.02c-18.42,0-33.41,14.99-33.41,33.41s14.98,33.41,33.41,33.41,33.41-14.99,33.41-33.41-14.98-33.41-33.41-33.41ZM284.67,282.28c-7.65,0-13.86-6.2-13.86-13.86s6.2-13.86,13.86-13.86,13.86,6.2,13.86,13.86-6.2,13.86-13.86,13.86Z"/>
  <path d="M535.77,143.08l-65.57-113.58c-4.14-7.17-10.84-12.31-18.86-14.46-8.02-2.15-16.39-1.05-23.56,3.09l-23.29,13.45c-14.83,8.56-19.93,27.6-11.37,42.42l65.58,113.58c5.75,9.95,16.2,15.52,26.95,15.52,5.26,0,10.6-1.34,15.48-4.15l23.29-13.45c7.17-4.14,12.31-10.84,14.46-18.86,2.15-8.02,1.05-16.39-3.09-23.56ZM514.63,168.58l-23.29,13.45c-5.48,3.16-12.55,1.27-15.72-4.21l-65.58-113.58c-3.16-5.48-1.27-12.55,4.21-15.72l23.29-13.45c5.48-3.16,12.55-1.27,15.72,4.21l65.58,113.58c3.16,5.48,1.27,12.55-4.21,15.72Z"/>
  <path d="M254.14,103.27l.02.02-50.81,35.56c-1.69,1.19-3.72,1.89-5.95,1.89-5.72,0-10.35-4.63-10.35-10.35,0-3.52,1.77-6.61,4.45-8.47h0s.47-.33.47-.33l50.11-35.08.21-.14c1.69-1.21,3.75-1.89,5.95-1.89,5.7,0,10.33,4.63,10.33,10.35,0,3.5-1.75,6.61-4.42,8.46Z"/>
  <path d="M148.42,511.81c-.79,4.77,2.07,9.6,6.83,11.3h83.01c4.9-.69,8.58-4.71,8.8-9.33.25-5.17-3.89-9.93-9.46-10.38h-80.38c-4.51.63-8.09,4.08-8.8,8.41Z"/>
  <path d="M431.1,513.77c-.23,4.63-3.89,8.64-8.81,9.34h-83.01c-4.75-1.71-7.61-6.54-6.81-11.3.7-4.32,4.28-7.78,8.79-8.42h27.31l-83.89-211.95,17.78-7.7,87.12,219.64h32.08c5.56.45,9.69,5.21,9.45,10.37Z"/>
  <path d="M176.18,507.12l60.42-145.53c1.94-6.6,8.89-9.53,13.66-7.36,3.75,1.71,6.08,6.55,4.99,11.56l-56.22,141.33h-22.85Z"/>
  <circle cx="260.49" cy="329.06" r="9.16"/>
</svg>