<svg xmlns="http://www.w3.org/2000/svg" xmlns:xlink="http://www.w3.org/1999/xlink" width="1080" zoomAndPan="magnify" viewBox="0 0 810 809.999993" height="1080" preserveAspectRatio="xMidYMid meet" version="1.0"><defs><clipPath id="2a86a67273"><path d="M 2 16 L 810 16 L 810 772.296875 L 2 772.296875 Z M 2 16 " clip-rule="nonzero"/></clipPath></defs><g clip-path="url(#2a86a67273)"><path fill="#fefefe" d="M 956.925781 774.355469 C 638.738281 774.355469 320.554688 774.355469 2.214844 774.355469 C 2.214844 522.035156 2.214844 269.714844 2.214844 16.855469 C 367.042969 16.855469 732.019531 16.855469 1097.59375 17.570312 C 1095.496094 18.773438 1092.765625 19.101562 1090.117188 19.769531 C 989.273438 45.207031 925.984375 139.226562 940.121094 242.554688 C 954.972656 351.097656 1056.527344 427.605469 1164.464844 411.570312 C 1257.25 397.78125 1325.617188 325.523438 1335.050781 231.273438 C 1343.875 143.117188 1289.878906 58.214844 1204.703125 26.558594 C 1194.964844 22.9375 1184.949219 20.070312 1175.0625 16.855469 C 1481.730469 16.855469 1788.402344 16.855469 2095.75 17.601562 C 1994.105469 36.734375 1921.15625 142.082031 1939.195312 245.417969 C 1958.152344 354.003906 2053.695312 425.273438 2162.160156 411.734375 C 2245.605469 401.316406 2313.683594 337.257812 2331.03125 252.839844 C 2347.824219 171.101562 2308.765625 82.667969 2236.148438 42.179688 C 2216.53125 31.242188 2194.214844 25.164062 2173.136719 16.855469 C 2277.449219 16.855469 2381.761719 16.855469 2486.738281 17.574219 C 2471.273438 25.496094 2453.84375 30.710938 2439.238281 40.25 C 2386.628906 74.628906 2379.621094 159.132812 2437.527344 199.417969 C 2464.917969 218.472656 2495.773438 229.136719 2527.039062 239.410156 C 2545.4375 245.453125 2564.339844 251.433594 2580.996094 260.980469 C 2605.285156 274.902344 2606.863281 304.449219 2585.847656 323.230469 C 2579.867188 328.570312 2572.40625 332.824219 2564.914062 335.792969 C 2545.808594 343.367188 2526.296875 343.644531 2506.699219 336.730469 C 2483.089844 328.394531 2462.40625 315.347656 2444.066406 298.507812 C 2432.710938 288.089844 2429.957031 287.414062 2417.890625 296.917969 C 2409.027344 303.894531 2400.675781 311.59375 2392.597656 319.488281 C 2381.152344 330.667969 2380.769531 336.410156 2391.75 348.242188 C 2439.605469 399.816406 2498.453125 420.972656 2567.972656 409.207031 C 2605.261719 402.894531 2637.558594 386.359375 2659.960938 354.511719 C 2689.097656 313.082031 2695.234375 241.542969 2629.746094 205.746094 C 2603.886719 191.613281 2575.234375 182.566406 2547.804688 171.320312 C 2529.214844 163.699219 2509.546875 158.050781 2492.152344 148.316406 C 2470.699219 136.3125 2470.210938 112.046875 2489.382812 96.335938 C 2494.296875 92.3125 2500.285156 89.085938 2506.304688 87.019531 C 2528.761719 79.296875 2551.164062 80.582031 2571.871094 92.046875 C 2585.523438 99.605469 2598.046875 109.332031 2610.574219 118.761719 C 2618.105469 124.433594 2624.734375 125.164062 2631.570312 118.523438 C 2641.144531 109.214844 2650.839844 100.007812 2659.960938 90.269531 C 2666.402344 83.386719 2667.160156 75.328125 2660.222656 68.238281 C 2653.300781 61.164062 2646.039062 54.316406 2638.277344 48.191406 C 2618.738281 32.773438 2595.683594 24.476562 2572.367188 16.855469 C 2610.082031 16.855469 2647.792969 16.855469 2685.519531 16.855469 C 2685.53125 269.242188 2685.53125 521.632812 2685.53125 774.355469 C 2196.414062 774.355469 1707.277344 774.355469 1217.351562 773.40625 C 1216.566406 762.265625 1216.566406 752.074219 1216.566406 741.375 C 1221.203125 741.808594 1224.910156 742.3125 1228.628906 742.476562 C 1253.429688 743.5625 1271.929688 725.621094 1270.816406 701.644531 C 1269.679688 677.152344 1251.476562 662.582031 1226.007812 666.023438 C 1219.941406 666.839844 1213.710938 667.765625 1208.082031 669.976562 C 1205.257812 671.089844 1201.746094 675.191406 1201.71875 677.96875 C 1201.398438 710.09375 1201.6875 742.226562 1201.8125 774.355469 C 1125.625 774.355469 1049.4375 774.355469 972.519531 773.652344 C 985.421875 738.71875 999.058594 704.480469 1012.925781 669.65625 C 1007.597656 669.65625 1003.195312 669.65625 998.429688 669.65625 C 995.25 677.59375 992.085938 685.496094 988.921875 693.398438 C 985.765625 701.285156 982.605469 709.171875 978.726562 718.863281 C 972.917969 705.648438 967.109375 694.421875 963.039062 682.59375 C 959.164062 671.328125 953.074219 666.207031 940.523438 670.375 C 945.054688 680.3125 949.734375 690.472656 954.328125 700.675781 C 959.929688 713.125 969.308594 725.429688 969.898438 738.128906 C 970.445312 749.976562 961.621094 762.261719 956.925781 774.355469 M 605.53125 517.050781 C 560.40625 528.273438 533.863281 562.953125 534.421875 609.972656 C 534.960938 655.804688 570.898438 693.21875 618.8125 697.835938 C 660.957031 701.894531 704.523438 670.253906 713.988281 628.871094 C 720.121094 602.070312 715.171875 577.25 702.605469 553.308594 C 706.195312 552.210938 709.851562 551.300781 713.355469 549.980469 C 746.433594 537.507812 767.496094 513.941406 773.191406 479.199219 C 778.75 445.285156 768.945312 415.652344 741.476562 392.144531 C 747.355469 385.519531 754.078125 379.457031 758.988281 372.175781 C 794.683594 319.242188 767.320312 245.015625 701.324219 229.539062 C 702.996094 226.554688 704.757812 223.613281 706.335938 220.578125 C 728.746094 177.414062 713.703125 124.292969 672.070312 99.503906 C 630.058594 74.492188 575.65625 86.949219 548.765625 127.96875 C 514.464844 180.296875 541.183594 253.992188 607.332031 269.453125 C 581.148438 309.496094 589.65625 361.675781 623.28125 390.082031 C 624.234375 390.890625 624.640625 392.347656 624.03125 393.972656 C 589.90625 424.429688 582.195312 469.507812 604.171875 509.632812 C 605.445312 511.953125 606.164062 514.582031 605.53125 517.050781 M 184.992188 268.011719 C 203.011719 263.609375 219.175781 255.574219 231.933594 241.980469 C 260.257812 211.800781 265.789062 168.136719 246.128906 133.601562 C 225.597656 97.539062 186.851562 80.054688 145.566406 89.039062 C 102.152344 98.488281 70.042969 140.308594 75.96875 185.515625 C 78 201.003906 85.472656 215.78125 88.945312 231.214844 C 52.203125 240.636719 27.773438 263.363281 19.238281 300.335938 C 10.910156 336.390625 22.140625 367.171875 49.546875 392.949219 C 23.164062 416.75 12.367188 446.074219 18.507812 481.269531 C 24.757812 517.097656 56.898438 549 90.113281 553.734375 C 79.496094 573.632812 72.507812 594.125 75.542969 617.390625 C 81.285156 661.398438 116.136719 694.589844 161.03125 697.789062 C 202.578125 700.75 242.6875 672.277344 254.195312 631.660156 C 266.25 589.105469 246.984375 544.519531 207.71875 524.875 C 199.914062 520.96875 191.503906 518.277344 184.507812 514.195312 C 199.378906 490.273438 203.5625 464.859375 195.867188 437.5 C 190.675781 419.046875 179.242188 404.847656 167.292969 390.664062 C 198.089844 365.390625 213.578125 314.09375 184.992188 268.011719 M 1661.085938 267.324219 C 1668.707031 259.628906 1676.328125 251.933594 1684.066406 244.113281 C 1685.457031 245.734375 1686.390625 246.734375 1687.230469 247.8125 C 1726.277344 297.746094 1765.234375 347.75 1804.507812 397.507812 C 1807.84375 401.730469 1813.203125 407.023438 1817.769531 407.164062 C 1844.824219 408.003906 1871.921875 407.484375 1899.007812 407.328125 C 1899.828125 407.320312 1900.640625 406.269531 1903.910156 404.007812 C 1848.65625 332.191406 1793.582031 260.605469 1738.574219 189.109375 C 1786.183594 133.34375 1833.085938 78.410156 1880.808594 22.515625 C 1876.59375 20.996094 1875.320312 20.140625 1874.039062 20.132812 C 1848.328125 20.011719 1822.613281 19.804688 1796.90625 20.175781 C 1793.6875 20.222656 1789.78125 22.761719 1787.433594 25.296875 C 1761.8125 52.925781 1736.476562 80.816406 1710.992188 108.570312 C 1687.96875 133.648438 1664.859375 158.648438 1640.152344 185.453125 C 1640.152344 181.078125 1640.152344 179.167969 1640.152344 177.253906 C 1640.152344 130.265625 1640.175781 83.277344 1640.136719 36.289062 C 1640.125 24.296875 1636.078125 20.058594 1624.316406 19.945312 C 1608.542969 19.796875 1592.765625 19.785156 1576.996094 19.953125 C 1566.101562 20.070312 1563.070312 23.195312 1562.980469 34.324219 C 1562.835938 51.472656 1562.941406 68.625 1562.941406 85.773438 C 1562.941406 187.640625 1562.933594 289.503906 1562.949219 391.371094 C 1562.953125 405.394531 1565.128906 407.582031 1578.863281 407.613281 C 1593.949219 407.648438 1609.039062 407.671875 1624.125 407.605469 C 1637.136719 407.550781 1640.105469 404.707031 1640.136719 392.179688 C 1640.195312 367.140625 1641.574219 341.996094 1639.710938 317.101562 C 1638.167969 296.476562 1643.5625 280.5625 1661.085938 267.324219 M 1403.480469 289.59375 C 1403.480469 324.214844 1403.445312 358.832031 1403.5 393.453125 C 1403.515625 404.75 1406.164062 407.5 1417.261719 407.585938 C 1433.023438 407.710938 1448.789062 407.707031 1464.550781 407.589844 C 1475.851562 407.503906 1479.242188 404.265625 1479.25 392.800781 C 1479.320312 273.515625 1479.320312 154.234375 1479.242188 34.953125 C 1479.238281 24.054688 1475.140625 20.089844 1464.261719 19.957031 C 1449.53125 19.78125 1434.792969 19.890625 1420.058594 19.921875 C 1405.597656 19.949219 1403.488281 22.066406 1403.484375 36.632812 C 1403.472656 120.265625 1403.480469 203.902344 1403.480469 289.59375 M 314.285156 422.761719 C 338.398438 401.003906 366.160156 385.4375 397.433594 374.890625 C 436.558594 402.679688 471.425781 440.769531 476.65625 462.257812 C 470.484375 460.601562 464.574219 457.75 458.730469 457.882812 C 454.683594 457.972656 450.726562 462.179688 446.730469 464.542969 C 449.113281 468.507812 450.65625 474.832031 454.023438 476.03125 C 469.773438 481.652344 485.988281 486.007812 502.128906 490.5 C 508.277344 492.210938 513.648438 490.035156 514.582031 483.378906 C 517.007812 466.089844 519.214844 448.726562 520.210938 431.320312 C 520.40625 427.957031 515.21875 422.359375 511.550781 421.371094 C 509.027344 420.691406 503.535156 425.535156 501.738281 429.101562 C 499.628906 433.289062 500.082031 438.769531 499.714844 441.527344 C 476.03125 418.089844 451.761719 394.078125 429.972656 372.515625 C 455.019531 357.714844 482.472656 341.492188 510.371094 325.003906 C 510.371094 327.917969 509.359375 332.195312 510.636719 335.621094 C 512.097656 339.53125 515.640625 345.519531 518.199219 345.480469 C 521.976562 345.425781 528.351562 341.351562 528.972656 338.097656 C 532.125 321.640625 534.023438 304.917969 535.816406 288.230469 C 536.5 281.859375 533.050781 277.554688 526.125 277.792969 C 509.703125 278.363281 493.242188 278.703125 476.914062 280.34375 C 473.304688 280.707031 468.039062 285.648438 467.335938 289.230469 C 466.082031 295.582031 470.96875 298.929688 477.5625 298.886719 C 483.480469 298.84375 489.402344 298.875 496.816406 298.875 C 467.753906 330.003906 434.734375 351.671875 395.933594 364.199219 C 361.425781 343.570312 335.578125 313.871094 314.15625 276.578125 C 322.191406 278.667969 328.074219 281.386719 333.925781 281.316406 C 338.027344 281.269531 343.914062 278.410156 345.75 275.035156 C 348.84375 269.359375 345.0625 264.402344 338.976562 262.558594 C 323.28125 257.804688 307.488281 253.390625 291.738281 248.820312 C 284.144531 246.617188 279.269531 249.914062 278.242188 257.148438 C 275.886719 273.757812 273.773438 290.453125 272.855469 307.183594 C 272.660156 310.714844 277.339844 316.585938 280.960938 317.785156 C 286.882812 319.742188 291.179688 315.527344 292.125 309.011719 C 292.773438 304.570312 293.335938 300.113281 293.621094 298.015625 C 317.53125 321.601562 341.65625 345.398438 365.277344 368.695312 C 335.378906 378.867188 308.007812 396.648438 281.207031 419.398438 C 281.855469 412.738281 283.472656 407.839844 282.402344 403.628906 C 281.425781 399.792969 278.1875 395 274.761719 393.664062 C 269.253906 391.511719 264.59375 395.035156 263.707031 401.132812 C 261.34375 417.40625 259.207031 433.714844 257.339844 450.054688 C 256.476562 457.609375 260.246094 461.894531 268.074219 461.601562 C 284.15625 461 300.285156 460.726562 316.269531 459.082031 C 319.953125 458.703125 325.390625 453.726562 326.019531 450.160156 C 327.097656 444.03125 322.347656 440.40625 315.660156 440.507812 C 309.683594 440.597656 303.703125 440.523438 297.308594 440.523438 C 303.003906 434.523438 308.105469 429.136719 314.285156 422.761719 M 1760.65625 517.203125 C 1756.980469 484.703125 1724.703125 463.65625 1685.542969 478.597656 C 1683.179688 479.5 1680.429688 483.316406 1680.394531 485.8125 C 1680.019531 511.867188 1680.027344 537.929688 1680.378906 563.980469 C 1680.410156 566.496094 1682.910156 570.25 1685.21875 571.265625 C 1725.621094 589.019531 1763.035156 563.074219 1760.65625 517.203125 M 1013.355469 574.730469 C 1017.289062 573.59375 1021.492188 572.976562 1025.070312 571.140625 C 1027.613281 569.832031 1031.039062 566.941406 1031.113281 564.65625 C 1031.644531 549.023438 1031.390625 533.363281 1031.390625 517.707031 C 1017.601562 517.707031 1004.804688 517.707031 991.730469 517.707031 C 991.941406 522.058594 992.121094 525.703125 992.332031 530.0625 C 1000.410156 530.0625 1007.820312 530.0625 1016.214844 530.0625 C 1016.214844 535.503906 1016.214844 540.207031 1016.214844 544.910156 C 1016.214844 562.644531 1015.097656 563.726562 997.289062 563.28125 C 976.65625 562.761719 961.761719 548.664062 960.160156 528.144531 C 958.574219 507.78125 970.996094 490.011719 991.160156 487.746094 C 1002.613281 486.460938 1014.585938 489.832031 1026.355469 491.105469 C 1027.835938 478.433594 1027.835938 478.433594 1014.628906 475.734375 C 1012.28125 475.257812 1009.949219 474.683594 1007.582031 474.3125 C 967.246094 467.949219 935.644531 502.183594 946.628906 540.328125 C 954.148438 566.445312 979.902344 580.164062 1013.355469 574.730469 M 1482.441406 560.292969 C 1497.523438 579.136719 1520.902344 582.792969 1545.507812 569.925781 C 1545.507812 537.242188 1545.511719 504.378906 1545.476562 471.515625 C 1545.472656 470.5625 1545.003906 469.609375 1544.714844 468.511719 C 1539.960938 468.511719 1535.394531 468.511719 1529.785156 468.511719 C 1529.785156 479.882812 1529.785156 490.699219 1529.785156 502.046875 C 1510.898438 499.140625 1493.273438 498.695312 1482.097656 516.15625 C 1473.277344 529.929688 1473.664062 544.621094 1482.441406 560.292969 M 1901.339844 503.128906 C 1887.386719 498.527344 1873.5625 500.132812 1860.152344 504.957031 C 1857.402344 505.945312 1854.105469 510.335938 1854.066406 513.199219 C 1853.636719 545.015625 1853.785156 576.839844 1853.851562 608.664062 C 1853.855469 610.222656 1854.550781 611.777344 1854.808594 612.84375 C 1859.792969 612.84375 1864.074219 612.84375 1869.28125 612.84375 C 1869.28125 600.402344 1869.28125 588.585938 1869.28125 576.796875 C 1901.453125 577.179688 1916.800781 568.9375 1921.851562 549.085938 C 1926.695312 530.042969 1919.507812 513.074219 1901.339844 503.128906 M 2136.277344 500.820312 C 2134.566406 500.734375 2132.859375 500.582031 2131.152344 500.574219 C 2106.785156 500.445312 2091.835938 514.597656 2091.800781 537.808594 C 2091.765625 560.546875 2108.238281 577.160156 2131.375 576.960938 C 2138.449219 576.902344 2145.511719 575.03125 2152.574219 573.953125 C 2159.558594 572.890625 2161.894531 569.054688 2161.34375 561.882812 C 2160.609375 552.359375 2161.160156 542.734375 2161.160156 533.15625 C 2161.160156 511.703125 2161.160156 490.246094 2161.160156 468.664062 C 2155.53125 468.664062 2151.003906 468.664062 2145.804688 468.664062 C 2145.804688 480.214844 2145.804688 491.078125 2145.804688 502.347656 C 2142.742188 501.820312 2140.414062 501.421875 2136.277344 500.820312 M 1119.175781 692.371094 C 1119.175781 689.117188 1119.175781 685.859375 1119.175781 681.792969 C 1105.265625 681.792969 1092.722656 681.792969 1079.9375 681.792969 C 1079.9375 672.570312 1079.9375 664.1875 1079.9375 654.808594 C 1093.210938 654.808594 1106.082031 654.808594 1118.769531 654.808594 C 1118.769531 650.148438 1118.769531 646.496094 1118.769531 642.71875 C 1100.3125 642.71875 1082.324219 642.71875 1064.445312 642.71875 C 1064.445312 674.96875 1064.445312 706.679688 1064.445312 738.363281 C 1082.953125 738.363281 1100.882812 738.363281 1118.683594 738.363281 C 1118.683594 733.988281 1118.683594 730.359375 1118.683594 725.785156 C 1105.625 725.785156 1093.09375 725.785156 1080.246094 725.785156 C 1080.246094 715.164062 1080.246094 705.511719 1080.246094 695.90625 C 1093.523438 695.273438 1106.066406 694.675781 1119.175781 692.371094 M 1291.238281 669.296875 C 1290.011719 673.472656 1288.78125 677.648438 1287.410156 682.3125 C 1297.550781 680.976562 1305.859375 679.144531 1314.203125 678.96875 C 1324.773438 678.746094 1328.148438 683.921875 1326.226562 692.90625 C 1314.613281 695.699219 1303.480469 697.464844 1293.035156 701.175781 C 1284.640625 704.160156 1280.695312 711.84375 1281.023438 720.878906 C 1281.355469 730.058594 1286.574219 736.183594 1294.902344 739.402344 C 1310.347656 745.371094 1325.179688 742.621094 1339.21875 734.941406 C 1341.210938 733.851562 1342.671875 730.0625 1342.746094 727.472656 C 1343.101562 714.8125 1343.203125 702.125 1342.8125 689.464844 C 1342.441406 677.453125 1336.160156 668.648438 1324.1875 667.15625 C 1313.992188 665.886719 1303.347656 668.199219 1291.238281 669.296875 M 1527.253906 728.042969 C 1539.878906 705.558594 1533.3125 677.578125 1513.277344 668.503906 C 1495.503906 660.453125 1473.425781 666.640625 1464.523438 682.167969 C 1454.566406 699.53125 1459.339844 725.101562 1474.558594 735.933594 C 1490.148438 747.03125 1513.335938 744.070312 1527.253906 728.042969 M 1317.019531 576.671875 C 1338.828125 570.589844 1348.941406 554.082031 1344.761719 531.378906 C 1340.679688 509.183594 1325.890625 498.292969 1302.738281 500.433594 C 1283.347656 502.222656 1271.363281 516.589844 1271.394531 538 C 1271.429688 564.648438 1286.730469 578.207031 1317.019531 576.671875 M 1999.273438 529.691406 C 1999.316406 516.542969 1992.792969 507.582031 1980.992188 502.722656 C 1961.9375 494.878906 1940.121094 505.902344 1934.558594 525.769531 C 1925.105469 559.542969 1948.519531 582.953125 1984.203125 576.144531 C 1994.363281 574.207031 1997.539062 570.078125 1994.148438 560.546875 C 1961.203125 566.75 1948.71875 562.1875 1949.941406 544.1875 C 1960.507812 544.1875 1971.101562 544.4375 1981.683594 544.105469 C 1990.199219 543.839844 1996.949219 540.546875 1999.273438 529.691406 M 1778.171875 516.441406 C 1769.507812 532.984375 1769.277344 549.578125 1780.511719 564.679688 C 1791.476562 579.410156 1807.636719 577.902344 1823.671875 576.050781 C 1834.019531 574.855469 1837.046875 570.082031 1833.621094 560.542969 C 1800.753906 566.777344 1788.144531 562.171875 1789.421875 544.519531 C 1789.757812 544.445312 1790.089844 544.308594 1790.425781 544.304688 C 1799.3125 544.261719 1808.203125 544.105469 1817.089844 544.234375 C 1825.722656 544.355469 1833.730469 543.125 1837.644531 534.15625 C 1841.003906 526.457031 1837.183594 515.027344 1829.578125 508.320312 C 1814.980469 495.441406 1792.78125 498.453125 1778.171875 516.441406 M 2241.378906 532.738281 C 2242.847656 518.089844 2236.183594 507.136719 2222.921875 502.386719 C 2203.738281 495.523438 2182.890625 506.207031 2177.398438 525.710938 C 2167.902344 559.460938 2191.316406 582.9375 2226.980469 576.160156 C 2237.113281 574.234375 2240.332031 570.105469 2237.015625 560.566406 C 2203.769531 566.597656 2191.726562 562.210938 2192.710938 544.195312 C 2202.9375 544.195312 2213.371094 545.367188 2223.363281 543.765625 C 2229.601562 542.765625 2235.167969 537.578125 2241.378906 532.738281 M 1948.066406 665.226562 C 1932.71875 666.214844 1920.824219 672.660156 1915.902344 687.890625 C 1910.757812 703.808594 1911.988281 719.367188 1923.996094 732.066406 C 1935.097656 743.804688 1949.5 744.640625 1964.035156 740.511719 C 1980.742188 735.765625 1990.109375 718.03125 1987.234375 698.527344 C 1984.0625 677 1971.75 666.027344 1948.066406 665.226562 M 2495.496094 570.496094 C 2497.015625 568.152344 2499.769531 565.851562 2499.84375 563.464844 C 2500.269531 550.121094 2500.460938 536.742188 2499.917969 523.410156 C 2499.425781 511.222656 2489.882812 501.242188 2477.429688 500.894531 C 2467.03125 500.605469 2456.574219 502.554688 2446.476562 503.480469 C 2446.476562 509.253906 2446.476562 513.113281 2446.476562 517.089844 C 2479.78125 511.023438 2484.460938 512.5625 2483.503906 527.84375 C 2472.683594 530.277344 2461.902344 531.867188 2451.710938 535.246094 C 2442.449219 538.3125 2437.71875 545.828125 2438.222656 555.984375 C 2438.738281 566.335938 2445.050781 572.039062 2454.191406 574.984375 C 2467.929688 579.410156 2481.179688 577.28125 2495.496094 570.496094 M 1561.398438 550.886719 C 1568.027344 572.625 1584.105469 580.953125 1610.128906 576.128906 C 1623.222656 573.699219 1623.316406 573.558594 1620.832031 560.328125 C 1589.226562 567.5 1577.683594 563.5 1576.464844 544.183594 C 1587.039062 544.183594 1597.585938 544.441406 1608.113281 544.121094 C 1623.191406 543.65625 1630.195312 532.625 1624.3125 518.699219 C 1619.621094 507.601562 1610.835938 501.640625 1599 500.660156 C 1572.378906 498.453125 1556.191406 519.238281 1561.398438 550.886719 M 1089.230469 576.824219 C 1108.648438 574.664062 1108.648438 574.664062 1106.558594 560.574219 C 1073.296875 566.527344 1061.457031 562.234375 1062.539062 544.1875 C 1071.738281 544.1875 1080.964844 544.03125 1090.183594 544.234375 C 1098.90625 544.425781 1107.351562 543.078125 1110.613281 534.035156 C 1114.046875 524.503906 1110.460938 515.789062 1103.257812 508.9375 C 1086.109375 492.632812 1055.601562 500.546875 1047.832031 523.523438 C 1039.746094 547.433594 1049.945312 580.640625 1089.230469 576.824219 M 1386.453125 514.210938 C 1401.605469 512.25 1407.476562 517.292969 1407.53125 532.429688 C 1407.578125 546.003906 1407.539062 559.578125 1407.539062 573.050781 C 1413.355469 573.050781 1417.933594 573.050781 1423.175781 573.050781 C 1423.175781 557.960938 1423.445312 543.609375 1423.109375 529.269531 C 1422.65625 510.027344 1408.902344 497.984375 1389.890625 500.886719 C 1379.53125 502.472656 1369.476562 506.046875 1359.800781 508.585938 C 1359.800781 530.9375 1359.800781 552.027344 1359.800781 573.121094 C 1365.128906 573.121094 1369.746094 573.121094 1374.738281 573.121094 C 1374.738281 557.382812 1375.214844 542.292969 1374.546875 527.25 C 1374.191406 519.277344 1376.394531 514.953125 1386.453125 514.210938 M 2271.976562 562.949219 C 2271.976562 547.910156 2271.976562 532.875 2271.976562 518.117188 C 2295.636719 508.070312 2304.777344 513.808594 2304.78125 538.019531 C 2304.78125 549.835938 2304.78125 561.652344 2304.78125 572.886719 C 2310.957031 572.886719 2315.507812 572.886719 2320.398438 572.886719 C 2320.398438 557.253906 2320.8125 542.515625 2320.289062 527.8125 C 2319.683594 510.734375 2307.867188 499.425781 2290.8125 500.832031 C 2280.425781 501.6875 2270.238281 505.398438 2260.085938 508.269531 C 2258.5 508.71875 2256.539062 511.53125 2256.515625 513.277344 C 2256.261719 533.0625 2256.355469 552.855469 2256.355469 573.214844 C 2261.90625 573.214844 2266.5 573.214844 2271.976562 573.214844 C 2271.976562 570.199219 2271.976562 567.546875 2271.976562 562.949219 M 2046.644531 500.53125 C 2037.363281 502.804688 2027.992188 504.789062 2018.863281 507.558594 C 2016.675781 508.222656 2013.792969 511.46875 2013.75 513.578125 C 2013.359375 533.34375 2013.519531 553.121094 2013.519531 573.21875 C 2019.320312 573.21875 2023.925781 573.21875 2029.148438 573.21875 C 2029.148438 556.578125 2029.074219 540.511719 2029.226562 524.449219 C 2029.25 521.960938 2029.992188 517.472656 2030.960938 517.3125 C 2038.496094 516.082031 2046.804688 513.65625 2053.554688 515.789062 C 2057.582031 517.0625 2061.113281 525.730469 2061.574219 531.34375 C 2062.710938 545.179688 2061.949219 559.175781 2061.949219 573.078125 C 2067.722656 573.078125 2072.300781 573.078125 2077.582031 573.078125 C 2077.582031 558.363281 2077.75 544.363281 2077.542969 530.363281 C 2077.265625 511.394531 2067.9375 501.972656 2046.644531 500.53125 M 1648.320312 723.746094 C 1648.320312 728.753906 1648.320312 733.757812 1648.320312 738.726562 C 1654.050781 738.726562 1658.417969 738.726562 1664.058594 738.726562 C 1664.058594 724.222656 1664.058594 710.0625 1664.058594 695.035156 C 1676.492188 695.035156 1687.664062 695.035156 1698.777344 695.035156 C 1698.777344 690.257812 1698.777344 686.398438 1698.777344 681.722656 C 1686.84375 681.722656 1675.675781 681.722656 1664.410156 681.722656 C 1664.410156 672.507812 1664.410156 664.128906 1664.410156 654.832031 C 1676.679688 654.832031 1688.507812 654.832031 1700.53125 654.832031 C 1700.53125 650.28125 1700.53125 646.660156 1700.53125 642.617188 C 1683.074219 642.617188 1666.058594 642.617188 1648.320312 642.617188 C 1648.320312 669.125 1648.320312 695.429688 1648.320312 723.746094 M 1546.367188 739.417969 C 1558.105469 739.453125 1570.238281 741.25 1581.417969 738.765625 C 1586.816406 737.566406 1592.308594 728.917969 1594.375 722.546875 C 1597.011719 714.417969 1591.851562 707.304688 1584.433594 703.03125 C 1578.230469 699.457031 1571.34375 697.015625 1565.363281 693.136719 C 1562.75 691.445312 1560.332031 687.410156 1560.351562 684.457031 C 1560.367188 682.65625 1565.171875 679.425781 1567.863281 679.390625 C 1575.230469 679.289062 1582.617188 680.542969 1590.367188 681.292969 C 1590.367188 677.960938 1590.367188 673.933594 1590.367188 667.324219 C 1580.023438 667.324219 1569.550781 666.203125 1559.445312 667.65625 C 1550.25 668.980469 1544.515625 676.007812 1543.835938 685.636719 C 1543.207031 694.539062 1548.261719 700.375 1555.875 704.246094 C 1561.050781 706.878906 1566.726562 708.847656 1571.269531 712.308594 C 1574.558594 714.816406 1576.351562 719.289062 1578.8125 722.882812 C 1574.859375 725.03125 1570.921875 728.917969 1566.949219 728.957031 C 1559.390625 729.035156 1551.8125 726.910156 1543.378906 725.5625 C 1543.863281 730.050781 1544.332031 734.375 1546.367188 739.417969 M 1155.890625 742.527344 C 1159.980469 742.183594 1164.164062 742.269531 1168.140625 741.402344 C 1177.796875 739.296875 1185.535156 734.449219 1187.1875 723.855469 C 1188.832031 713.324219 1183.566406 706.171875 1174.441406 701.542969 C 1169.265625 698.917969 1163.648438 696.957031 1158.949219 693.667969 C 1156.050781 691.644531 1154.507812 687.683594 1152.355469 684.59375 C 1155.664062 682.65625 1158.9375 679.183594 1162.285156 679.109375 C 1168.988281 678.960938 1175.738281 680.667969 1182.871094 681.667969 C 1182.871094 678.097656 1182.871094 674.074219 1182.871094 669.644531 C 1172.234375 665.304688 1161.300781 663.847656 1150.140625 667.949219 C 1142.070312 670.914062 1137.03125 676.800781 1136.359375 685.484375 C 1135.710938 693.929688 1140.226562 699.816406 1147.375 703.703125 C 1153.074219 706.800781 1159.371094 708.988281 1164.589844 712.714844 C 1167.675781 714.917969 1169.183594 719.328125 1171.402344 722.742188 C 1167.824219 724.921875 1164.253906 728.898438 1160.664062 728.914062 C 1152.714844 728.957031 1144.757812 727.007812 1136.816406 725.875 C 1135.574219 739.917969 1135.574219 739.914062 1149.078125 741.667969 C 1150.777344 741.890625 1152.472656 742.132812 1155.890625 742.527344 M 1760.832031 669.214844 C 1744.792969 680.148438 1745.789062 695.882812 1763.09375 704.863281 C 1767.929688 707.375 1773.21875 709.277344 1777.496094 712.523438 C 1780.617188 714.890625 1782.414062 719.003906 1784.804688 722.339844 C 1780.988281 724.660156 1777.214844 728.832031 1773.351562 728.914062 C 1765.707031 729.078125 1758.015625 726.980469 1747.742188 725.425781 C 1749.925781 730.671875 1751.367188 738.910156 1753.832031 739.226562 C 1764.695312 740.632812 1776.042969 740.964844 1786.847656 739.304688 C 1794.996094 738.050781 1799.992188 731.078125 1800.640625 722.230469 C 1801.28125 713.476562 1797.300781 707.011719 1789.882812 702.820312 C 1783.957031 699.476562 1777.429688 697.144531 1771.726562 693.496094 C 1769 691.753906 1767.554688 687.996094 1765.53125 685.152344 C 1768.667969 683.0625 1771.746094 679.324219 1774.945312 679.21875 C 1781.886719 678.988281 1788.886719 680.617188 1796.210938 681.527344 C 1796.210938 677.773438 1796.210938 673.75 1796.210938 669.511719 C 1784.925781 665.40625 1773.714844 663.640625 1760.832031 669.214844 M 2024.917969 711.613281 C 2027.664062 715.398438 2030.40625 719.183594 2033.148438 722.964844 C 2028.828125 725.09375 2024.539062 728.878906 2020.175781 728.96875 C 2013.03125 729.109375 2005.835938 726.847656 1998.625 725.59375 C 1998.625 730.085938 1998.625 734.453125 1998.625 740.605469 C 2010.484375 740.605469 2022.058594 741.777344 2033.253906 740.234375 C 2042.246094 738.996094 2048.316406 732.050781 2049.191406 722.398438 C 2050.019531 713.242188 2045.46875 706.613281 2037.582031 702.355469 C 2031.878906 699.273438 2025.667969 697.042969 2020.265625 693.535156 C 2017.527344 691.757812 2016.082031 687.988281 2014.050781 685.121094 C 2017.210938 683.046875 2020.316406 679.34375 2023.550781 679.226562 C 2030.496094 678.96875 2037.503906 680.558594 2044.730469 681.421875 C 2044.730469 677.410156 2044.730469 673.484375 2044.730469 669.445312 C 2032.644531 665.363281 2020.488281 662.472656 2009.675781 669.589844 C 2004.457031 673.023438 1999.324219 680.375 1998.941406 686.265625 C 1998.59375 691.648438 2003.792969 698.359375 2008.230469 702.800781 C 2012.128906 706.699219 2018.359375 708.257812 2024.917969 711.613281 M 1126.730469 533.289062 C 1134.359375 537.703125 1142.28125 541.699219 1149.492188 546.714844 C 1153.003906 549.15625 1155.191406 553.5 1157.980469 556.980469 C 1153.824219 559.4375 1149.746094 563.757812 1145.5 563.933594 C 1138.261719 564.230469 1130.917969 561.921875 1120.429688 560.179688 C 1123.109375 566.050781 1124.71875 573.980469 1127.203125 574.265625 C 1138.121094 575.515625 1149.5 575.796875 1160.292969 573.96875 C 1167.820312 572.691406 1172.671875 565.972656 1173.351562 557.4375 C 1174.058594 548.632812 1170.449219 542.0625 1163.019531 537.796875 C 1156.824219 534.242188 1150.050781 531.679688 1143.976562 527.949219 C 1141.429688 526.382812 1137.960938 522.179688 1138.570312 520.527344 C 1139.617188 517.6875 1143.476562 514.113281 1146.257812 514.023438 C 1153.582031 513.789062 1160.964844 515.261719 1168.550781 516.082031 C 1171.613281 507.285156 1168.839844 501.550781 1158.292969 501.28125 C 1151.878906 501.117188 1145.15625 500.597656 1139.074219 502.167969 C 1123.816406 506.113281 1119.132812 517.492188 1126.730469 533.289062 M 2543.503906 576.714844 C 2554.175781 574.34375 2563.078125 569.96875 2564.421875 557.515625 C 2565.773438 544.984375 2557.652344 539.027344 2547.941406 534.296875 C 2543.945312 532.351562 2539.441406 531.105469 2536.019531 528.445312 C 2533.1875 526.242188 2531.609375 522.425781 2529.472656 519.320312 C 2532.804688 517.332031 2536.105469 513.753906 2539.476562 513.691406 C 2546.125 513.558594 2552.816406 515.375 2561.65625 516.710938 C 2560.066406 511.742188 2559.726562 504.484375 2557.082031 503.511719 C 2546.40625 499.582031 2535.058594 498.433594 2524.285156 504.363281 C 2510.433594 511.988281 2509.796875 529.4375 2523.289062 537.625 C 2528.820312 540.980469 2535.222656 542.988281 2540.5 546.65625 C 2544.035156 549.113281 2546.292969 553.40625 2549.121094 556.878906 C 2544.644531 559.371094 2540.265625 563.675781 2535.667969 563.929688 C 2528.789062 564.304688 2521.753906 561.832031 2514.78125 560.570312 C 2512.328125 573.804688 2512.871094 574.894531 2525.285156 576.464844 C 2530.683594 577.148438 2536.214844 576.769531 2543.503906 576.714844 M 1193.535156 552.664062 C 1193.574219 555.746094 1193.242188 558.886719 1193.714844 561.902344 C 1195.351562 572.324219 1205.679688 578.234375 1218.039062 576.960938 C 1228.742188 575.859375 1229.65625 569.597656 1227.601562 560.789062 C 1224.730469 561.773438 1221.910156 562.847656 1219.027344 563.703125 C 1213.261719 565.417969 1209.320312 563.703125 1209.214844 557.25 C 1208.996094 544.050781 1209.148438 530.847656 1209.148438 516.570312 C 1216.273438 516.570312 1222.214844 516.570312 1227.539062 516.570312 C 1227.539062 511.863281 1227.539062 508.277344 1227.539062 503.828125 C 1221.121094 503.828125 1215.453125 503.828125 1208.773438 503.828125 C 1208.773438 496.246094 1208.773438 489.546875 1208.773438 483.039062 C 1203.113281 483.039062 1198.523438 483.039062 1193.105469 483.039062 C 1193.105469 490.433594 1193.105469 497.132812 1193.105469 503.933594 C 1188.277344 504.230469 1184.292969 504.476562 1180.195312 504.726562 C 1180.195312 509.125 1180.195312 512.960938 1180.195312 517.394531 C 1184.914062 517.394531 1188.894531 517.394531 1193.535156 517.394531 C 1193.535156 528.902344 1193.535156 539.804688 1193.535156 552.664062 M 1845.574219 711.859375 C 1851.34375 738.566406 1874.957031 749.535156 1902.847656 738.359375 C 1902.847656 734.753906 1902.847656 731.101562 1902.847656 726.492188 C 1888.210938 729.007812 1872.703125 734.765625 1863.554688 717.539062 C 1858.175781 707.414062 1858.753906 696.804688 1865.546875 687.496094 C 1875.507812 673.839844 1889.316406 679.652344 1902.972656 681.691406 C 1902.398438 676.136719 1906.769531 669.90625 1897.765625 667.449219 C 1866.226562 658.835938 1842.613281 678.019531 1845.574219 711.859375 M 2357.128906 558.472656 C 2347.949219 548.292969 2347.152344 536.503906 2353.089844 525.085938 C 2362.015625 507.910156 2377.847656 514.3125 2391.671875 516.257812 C 2391.671875 511.492188 2391.671875 507.539062 2391.671875 503.765625 C 2365.257812 497.578125 2349.261719 501.917969 2339.714844 517.480469 C 2331.171875 531.410156 2332.203125 551.324219 2342.117188 563.921875 C 2352.714844 577.382812 2370.664062 580.792969 2392.023438 573.222656 C 2392.023438 569.683594 2392.023438 566.023438 2392.023438 564.917969 C 2380.242188 563.042969 2369.277344 561.300781 2357.128906 558.472656 M 1360.367188 723.316406 C 1372.375 742.222656 1391.394531 747.566406 1413.386719 738.433594 C 1413.386719 734.417969 1413.386719 730.605469 1413.386719 726.589844 C 1399.929688 728.996094 1386.515625 734 1376.800781 720.761719 C 1369.6875 711.070312 1369.59375 699.964844 1375.34375 689.765625 C 1384.554688 673.429688 1399.761719 679.46875 1414.59375 681.683594 C 1412.871094 675.90625 1417.84375 669.175781 1408.195312 667.285156 C 1391.847656 664.078125 1376.40625 664.671875 1364.980469 678.449219 C 1354.195312 691.457031 1353.46875 706.402344 1360.367188 723.316406 M 1256.507812 522.417969 C 1256.507812 516.6875 1256.507812 510.953125 1256.507812 504.964844 C 1250.808594 504.964844 1245.960938 504.964844 1241.390625 504.964844 C 1241.390625 528.136719 1241.390625 550.59375 1241.390625 573.140625 C 1246.53125 573.140625 1251.113281 573.140625 1256.507812 573.140625 C 1256.507812 556.460938 1256.507812 540.441406 1256.507812 522.417969 M 1818.238281 669.320312 C 1817.171875 670.289062 1815.183594 671.25 1815.175781 672.226562 C 1815 694.320312 1815.042969 716.417969 1815.042969 738.460938 C 1820.722656 738.460938 1825.285156 738.460938 1829.976562 738.460938 C 1829.976562 715.132812 1829.976562 692.449219 1829.976562 669.308594 C 1826.257812 669.308594 1823.203125 669.308594 1818.238281 669.320312 M 1429.066406 727.550781 C 1429.066406 731.210938 1429.066406 734.867188 1429.066406 738.484375 C 1434.953125 738.484375 1439.546875 738.484375 1444.15625 738.484375 C 1444.15625 715.136719 1444.15625 692.417969 1444.15625 669.875 C 1438.980469 669.875 1434.378906 669.875 1429.066406 669.875 C 1429.066406 688.828125 1429.066406 707.214844 1429.066406 727.550781 M 2422.5 532.5 C 2422.5 523.371094 2422.5 514.242188 2422.5 504.933594 C 2417.015625 504.933594 2412.476562 504.933594 2407.832031 504.933594 C 2407.832031 527.929688 2407.832031 550.328125 2407.832031 573.042969 C 2412.855469 573.042969 2417.421875 573.042969 2422.5 573.042969 C 2422.5 559.785156 2422.5 547.167969 2422.5 532.5 M 1719.652344 739.007812 C 1723.257812 739.007812 1726.867188 739.007812 1730.378906 739.007812 C 1730.378906 715.058594 1730.378906 692.394531 1730.378906 669.777344 C 1725.398438 669.777344 1721.089844 669.777344 1715.933594 669.777344 C 1715.933594 688.167969 1715.808594 706.160156 1716.015625 724.148438 C 1716.074219 729.0625 1717.136719 733.964844 1719.652344 739.007812 M 1312.210938 469.308594 C 1308.835938 475.152344 1305.460938 480.996094 1301.671875 487.558594 C 1316.910156 488.335938 1322.261719 484.03125 1326.828125 468.683594 C 1322.375 468.683594 1318.03125 468.683594 1312.210938 469.308594 M 1742.300781 634.492188 C 1725.816406 633.199219 1723.46875 634.984375 1718.609375 652.460938 C 1727.265625 654.714844 1733.757812 652.453125 1737.554688 643.792969 C 1738.765625 641.035156 1740.867188 638.671875 1742.300781 634.492188 M 2419.84375 468.476562 C 2415.902344 468.476562 2411.957031 468.476562 2407.988281 468.476562 C 2407.988281 474 2407.988281 478.488281 2407.988281 482.9375 C 2413.0625 482.9375 2417.371094 482.9375 2422.988281 482.9375 C 2422.429688 477.90625 2421.925781 473.398438 2419.84375 468.476562 M 1251.484375 468.34375 C 1248.15625 468.34375 1244.828125 468.34375 1241.542969 468.34375 C 1241.542969 473.949219 1241.542969 478.480469 1241.542969 482.605469 C 1246.941406 482.605469 1251.527344 482.605469 1258.480469 482.605469 C 1256.363281 476.914062 1254.78125 472.65625 1251.484375 468.34375 M 1822.101562 648.558594 C 1835.496094 649.84375 1829.519531 640.621094 1830.417969 634.308594 C 1824.988281 634.308594 1820.359375 634.308594 1814.632812 634.308594 C 1817.679688 639.121094 1809.195312 647.042969 1822.101562 648.558594 M 1437.621094 648.558594 C 1450.941406 648.804688 1442.296875 639.445312 1444.804688 634.378906 C 1439.125 634.378906 1434.5 634.378906 1429.941406 634.378906 C 1428.273438 647.089844 1428.273438 647.089844 1437.621094 648.558594 Z M 1437.621094 648.558594 " fill-opacity="1" fill-rule="nonzero"/></g><path fill="#8d1b19" d="M 607.15625 267.945312 C 541.183594 253.992188 514.464844 180.296875 548.765625 127.96875 C 575.65625 86.949219 630.058594 74.492188 672.070312 99.503906 C 713.703125 124.292969 728.746094 177.414062 706.335938 220.578125 C 704.757812 223.613281 702.996094 226.554688 700.660156 230.601562 C 698.132812 233.660156 696.078125 235.523438 694.421875 237.6875 C 675.855469 261.980469 636.523438 275.652344 607.15625 267.945312 Z M 607.15625 267.945312 " fill-opacity="1" fill-rule="nonzero"/><path fill="#8d1b19" d="M 183.371094 515.023438 C 191.503906 518.277344 199.914062 520.96875 207.71875 524.875 C 246.984375 544.519531 266.25 589.105469 254.195312 631.660156 C 242.6875 672.277344 202.578125 700.75 161.03125 697.789062 C 116.136719 694.589844 81.285156 661.398438 75.542969 617.390625 C 72.507812 594.125 79.496094 573.632812 90.6875 552.796875 C 98.511719 545.097656 105.222656 537.609375 113.117188 531.710938 C 133.988281 516.113281 158.167969 513.089844 183.371094 515.023438 Z M 183.371094 515.023438 " fill-opacity="1" fill-rule="nonzero"/><path fill="#9e4444" d="M 183.941406 514.609375 C 158.167969 513.089844 133.988281 516.113281 113.117188 531.710938 C 105.222656 537.609375 98.511719 545.097656 90.554688 552.082031 C 56.898438 549 24.757812 517.097656 18.507812 481.269531 C 12.367188 446.074219 23.164062 416.75 50.5 392.167969 C 75.835938 372.691406 103.507812 368.476562 132.46875 375.554688 C 144.3125 378.449219 154.992188 386.097656 166.203125 391.582031 C 179.242188 404.847656 190.675781 419.046875 195.867188 437.5 C 203.5625 464.859375 199.378906 490.273438 183.941406 514.609375 Z M 183.941406 514.609375 " fill-opacity="1" fill-rule="nonzero"/><path fill="#9e4444" d="M 607.242188 268.699219 C 636.523438 275.652344 675.855469 261.980469 694.421875 237.6875 C 696.078125 235.523438 698.132812 233.660156 700.585938 231.363281 C 767.320312 245.015625 794.683594 319.242188 758.988281 372.175781 C 754.078125 379.457031 747.355469 385.519531 740.628906 393.046875 C 737.375 395.226562 734.855469 396.332031 732.570312 397.800781 C 711.492188 411.371094 688.433594 416.039062 664.355469 409.71875 C 650.847656 406.175781 638.289062 399.027344 625.300781 393.503906 C 624.640625 392.347656 624.234375 390.890625 623.28125 390.082031 C 589.65625 361.675781 581.148438 309.496094 607.242188 268.699219 Z M 607.242188 268.699219 " fill-opacity="1" fill-rule="nonzero"/><path fill="#ba8181" d="M 90.457031 230.882812 C 85.472656 215.78125 78 201.003906 75.96875 185.515625 C 70.042969 140.308594 102.152344 98.488281 145.566406 89.039062 C 186.851562 80.054688 225.597656 97.539062 246.128906 133.601562 C 265.789062 168.136719 260.257812 211.800781 231.933594 241.980469 C 219.175781 255.574219 203.011719 263.609375 183.902344 267.558594 C 158.808594 237.730469 128.761719 223.777344 90.457031 230.882812 Z M 90.457031 230.882812 " fill-opacity="1" fill-rule="nonzero"/><path fill="#ba8181" d="M 701.164062 553.941406 C 715.171875 577.25 720.121094 602.070312 713.988281 628.871094 C 704.523438 670.253906 660.957031 701.894531 618.8125 697.835938 C 570.898438 693.21875 534.960938 655.804688 534.421875 609.972656 C 533.863281 562.953125 560.40625 528.273438 606.953125 517.339844 C 622.691406 532.273438 637.148438 546.292969 658.023438 551.90625 C 672.480469 555.792969 686.703125 555.132812 701.164062 553.941406 Z M 701.164062 553.941406 " fill-opacity="1" fill-rule="nonzero"/><path fill="#b76b6b" d="M 89.699219 231.046875 C 128.761719 223.777344 158.808594 237.730469 183.148438 267.746094 C 213.578125 314.09375 198.089844 365.390625 166.746094 391.121094 C 154.992188 386.097656 144.3125 378.449219 132.46875 375.554688 C 103.507812 368.476562 75.835938 372.691406 50.78125 391.507812 C 22.140625 367.171875 10.910156 336.390625 19.238281 300.335938 C 27.773438 263.363281 52.203125 240.636719 89.699219 231.046875 Z M 89.699219 231.046875 " fill-opacity="1" fill-rule="nonzero"/><path fill="#b76b6b" d="M 701.886719 553.625 C 686.703125 555.132812 672.480469 555.792969 658.023438 551.90625 C 637.148438 546.292969 622.691406 532.273438 607.757812 517.347656 C 606.164062 514.582031 605.445312 511.953125 604.171875 509.632812 C 582.195312 469.507812 589.90625 424.429688 624.667969 393.738281 C 638.289062 399.027344 650.847656 406.175781 664.355469 409.71875 C 688.433594 416.039062 711.492188 411.371094 732.570312 397.800781 C 734.855469 396.332031 737.375 395.226562 740.480469 393.707031 C 768.945312 415.652344 778.75 445.285156 773.191406 479.199219 C 767.496094 513.941406 746.433594 537.507812 713.355469 549.980469 C 709.851562 551.300781 706.195312 552.210938 701.886719 553.625 Z M 701.886719 553.625 " fill-opacity="1" fill-rule="nonzero"/><path fill="#331110" d="M 313.75 423.257812 C 308.105469 429.136719 303.003906 434.523438 297.308594 440.523438 C 303.703125 440.523438 309.683594 440.597656 315.660156 440.507812 C 322.347656 440.40625 327.097656 444.03125 326.019531 450.160156 C 325.390625 453.726562 319.953125 458.703125 316.269531 459.082031 C 300.285156 460.726562 284.15625 461 268.074219 461.601562 C 260.246094 461.894531 256.476562 457.609375 257.339844 450.054688 C 259.207031 433.714844 261.34375 417.40625 263.707031 401.132812 C 264.59375 395.035156 269.253906 391.511719 274.761719 393.664062 C 278.1875 395 281.425781 399.792969 282.402344 403.628906 C 283.472656 407.839844 281.855469 412.738281 281.207031 419.398438 C 308.007812 396.648438 335.378906 378.867188 365.277344 368.695312 C 341.65625 345.398438 317.53125 321.601562 293.621094 298.015625 C 293.335938 300.113281 292.773438 304.570312 292.125 309.011719 C 291.179688 315.527344 286.882812 319.742188 280.960938 317.785156 C 277.339844 316.585938 272.660156 310.714844 272.855469 307.183594 C 273.773438 290.453125 275.886719 273.757812 278.242188 257.148438 C 279.269531 249.914062 284.144531 246.617188 291.738281 248.820312 C 307.488281 253.390625 323.28125 257.804688 338.976562 262.558594 C 345.0625 264.402344 348.84375 269.359375 345.75 275.035156 C 343.914062 278.410156 338.027344 281.269531 333.925781 281.316406 C 328.074219 281.386719 322.191406 278.667969 314.15625 276.578125 C 335.578125 313.871094 361.425781 343.570312 395.933594 364.199219 C 434.734375 351.671875 467.753906 330.003906 496.816406 298.875 C 489.402344 298.875 483.480469 298.84375 477.5625 298.886719 C 470.96875 298.929688 466.082031 295.582031 467.335938 289.230469 C 468.039062 285.648438 473.304688 280.707031 476.914062 280.34375 C 493.242188 278.703125 509.703125 278.363281 526.125 277.792969 C 533.050781 277.554688 536.5 281.859375 535.816406 288.230469 C 534.023438 304.917969 532.125 321.640625 528.972656 338.097656 C 528.351562 341.351562 521.976562 345.425781 518.199219 345.480469 C 515.640625 345.519531 512.097656 339.53125 510.636719 335.621094 C 509.359375 332.195312 510.371094 327.917969 510.371094 325.003906 C 482.472656 341.492188 455.019531 357.714844 429.972656 372.515625 C 451.761719 394.078125 476.03125 418.089844 499.714844 441.527344 C 500.082031 438.769531 499.628906 433.289062 501.738281 429.101562 C 503.535156 425.535156 509.027344 420.691406 511.550781 421.371094 C 515.21875 422.359375 520.40625 427.957031 520.210938 431.320312 C 519.214844 448.726562 517.007812 466.089844 514.582031 483.378906 C 513.648438 490.035156 508.277344 492.210938 502.128906 490.5 C 485.988281 486.007812 469.773438 481.652344 454.023438 476.03125 C 450.65625 474.832031 449.113281 468.507812 446.730469 464.542969 C 450.726562 462.179688 454.683594 457.972656 458.730469 457.882812 C 464.574219 457.75 470.484375 460.601562 476.65625 462.257812 C 471.425781 440.769531 436.558594 402.679688 397.433594 374.890625 C 366.160156 385.4375 338.398438 401.003906 313.75 423.257812 Z M 313.75 423.257812 " fill-opacity="1" fill-rule="nonzero"/></svg>