<?xml version="1.0" encoding="utf-8"?>
<!-- Generator: Adobe Illustrator 24.1.0, SVG Export Plug-In . SVG Version: 6.00 Build 0)  -->
<svg version="1.1" id="Capa_1" xmlns="http://www.w3.org/2000/svg" xmlns:xlink="http://www.w3.org/1999/xlink" x="0px"
    y="0px" viewBox="0 0 368 368" enable-background="new 0 0 368 368" xml:space="preserve">
    <g id="svg_1">
            <g id="svg_2">
            <path id="svg_3" d="m159.305,243.52749c-2.844,-0.19 -8.579,-0.726 -11.295,-1.597c-3.203,-1.027 -9.002,-4.689 -11.635,-6.801c-3.348,-2.69 -9.428,-9.044 -12.258,-12.029c-2.506,-2.642 -7.077,-7.989 -9.08,-11.044c-1.49,-2.264 -3.164,-7.432 -3.564,-10.118c-1.455,-9.787 0,-39.588 0,-39.588s-11.125,8.951 -13.045,13.195c-1.712,3.779 -1.47,18.277 -1.274,24.373c0.087,2.721 4.577,20.983 6.464,23.453c4.994,6.529 10.584,12.702 12.705,15.207c3.133,3.702 10.236,10.377 14.126,13.254c3.542,2.623 11.555,6.625 15.814,7.688c5.183,1.297 21.346,0.801 21.346,0.801l0,17.194c0,0 -49.331,1.97 -65.622,0c-8.162,-0.987 -24.391,-4.566 -31.95,-7.836c-5.555,-2.403 -16.085,-8.606 -20.836,-12.378c-5.827,-4.624 -17.014,-14.637 -21.531,-20.572c-5.378,-7.064 -16.096,-21.2 -19.667,-29.351c-2.938,-6.71 -8.003,-16.503 -8.003,-29.036l0,-151.954c0,0 46.58,-21.64 63.25,-24.795c10.102,-1.91 31.095,-2.329 41.111,0c16.668,3.878 63.249,26.392 63.249,26.392l0,215.941c-0.002,0 -6.234,-0.26 -8.305,-0.399zm-142.705,-205.143l0,75.179c0,0 11.33,11.161 15.714,14.098c6.771,4.539 21.503,11.65 29.452,13.233c10.766,2.143 33.127,3.204 43.78,0.66c6.842,-1.636 20.004,-7.416 25.693,-11.597c5.373,-3.946 18.977,-18.796 18.977,-18.796l0,-72.778c0,0 -15.32,1.213 -20.159,2.799c-3.197,1.046 -9.2,4.328 -11.862,6.399c-4.656,3.622 -13.78,11.425 -16.999,16.395c-2.161,3.34 -4.737,10.9 -6.253,14.563c-1.965,4.746 -6.541,19.181 -6.541,19.181l-4.992,19.039l-9.489,-31.988c0,0 -2.666,-11.627 -4.348,-15.197c-1.862,-3.957 -6.931,-11.186 -9.883,-14.395c-2.822,-3.072 -8.675,-9.216 -12.312,-11.22c-2.98,-1.642 -9.638,-3.437 -12.988,-3.974c-4.411,-0.709 -17.79,-1.601 -17.79,-1.601z" fill="#00599D" />
            <path id="svg_4" d="m58.075,85.00249c0,6.38 -5.117,11.552 -11.42,11.552c-6.305,0 -11.419,-5.172 -11.419,-11.552c0,-6.378 5.115,-11.552 11.419,-11.552c6.303,0 11.42,5.174 11.42,11.552z" fill="#00599D" />
            <path id="svg_5" d="m133.044,85.00249c0,6.38 -5.113,11.552 -11.418,11.552c-6.306,0 -11.419,-5.172 -11.419,-11.552c0,-6.378 5.113,-11.552 11.419,-11.552c6.305,0 11.418,5.174 11.418,11.552z" fill="#00599D" />
        </g>
    </g>
    </g>
</svg>