<?xml version="1.0" encoding="utf-8"?>
<!-- Generator: Adobe Illustrator 24.1.0, SVG Export Plug-In . SVG Version: 6.00 Build 0)  -->
<svg version="1.1" id="Capa_1" xmlns="http://www.w3.org/2000/svg" xmlns:xlink="http://www.w3.org/1999/xlink" x="0px" y="0px"
	 viewBox="0 0 368 368" enable-background="new 0 0 368 368" xml:space="preserve">
<g>
	<g>
		<path fill="#061E5C" d="M187.526,306.24L15.35,324.254l5.527-101.914L79.544,82.093l64.053-58.703l18.848-12.047l96.503,29.906
			l76.097,89.3l11.479,105.081l8.209,13.559l-58.374,116.03L187.526,306.24z M271.417,223.725l62.918,24.781l3.686-3.324
			L326.4,138.167L271.417,223.725z M199.145,132.349l63.628,89.991l53.141-88.47L199.145,132.349z M208.356,126.119l108.266-2.631
			l-61.218-68.115l-51.299,62.994L208.356,126.119z M252.145,46.234l-88.426-22.431l23.666,97.192L252.145,46.234z M130.824,213.401
			l120.896,15.585l0.141-5.121l-60.224-84.039l-13.322,6.921L130.824,213.401z M154.366,29.205l-71.563,64.24l84.742,28.244
			l8.502-4.432L154.366,29.205z M122.056,209.879l55.267-76.284l-94.662-29.489L122.056,209.879z M39.583,194.653l7.797,12.002
			l64.19,8.209L78.41,112.689L39.583,194.653z M30.371,224.557l-4.959,87.638l83.466-87.223l-65.895-10.798L30.371,224.557z
			 M37.597,312.195l138.162-13.637l-52.994-62.371l-11.62-0.557L37.597,312.195z M205.522,304.163l45.914-67.009l-123.427-11.213
			l63.627,76.145L205.522,304.163z M213.459,309.147l72.695,40.706l-20.83-97.33l-12.188-1.384L213.459,309.147z M296.074,343.206
			l38.91-80.497l-3.767-4.925l-46.622-18.829l-11.479,12.044L296.074,343.206z"/>
		<path fill="#2862E0" stroke="#2862E0" stroke-miterlimit="10" d="M263.77,65.468c-11.424,0-20.685-9.048-20.685-20.208
			c0-11.161,9.261-20.208,20.685-20.208c11.424,0,20.686,9.047,20.686,20.208C284.456,56.42,275.194,65.468,263.77,65.468z"/>
		<path fill="#3FB4FC" d="M326.888,143.165c-9.436,0.001-17.086-7.474-17.086-16.691c0-9.22,7.65-16.692,17.086-16.692
			c9.435,0,17.084,7.473,17.084,16.692C343.973,135.69,336.324,143.165,326.888,143.165z"/>
		<path fill="#2862E0" stroke="#2862E0" stroke-miterlimit="10" d="M346.443,266.107c-10.844,0-19.635-8.59-19.635-19.185
			c0-10.594,8.791-19.183,19.635-19.183c10.844-0.001,19.636,8.589,19.636,19.184C366.079,257.517,357.287,266.107,346.443,266.107z
			"/>
		<path fill="#2150AD" stroke="#2150AD" stroke-miterlimit="10" d="M291.177,365.79c-12.253,0-22.187-9.705-22.187-21.676
			s9.933-21.676,22.187-21.675c12.252,0,22.187,9.704,22.187,21.676C313.363,356.086,303.429,365.79,291.177,365.79z"/>
		<path fill="#2150AD" stroke="#2150AD" stroke-miterlimit="10" d="M185.546,146.878c-11.424,0-20.686-9.05-20.686-20.211
			c0-11.159,9.262-20.208,20.686-20.208c11.423,0,20.685,9.049,20.685,20.208C206.231,137.828,196.969,146.878,185.546,146.878z"/>
		<path fill="#428EFC" d="M263.77,253.206c-11.424,0-20.685-9.049-20.685-20.21c0-11.161,9.261-20.21,20.685-20.21
			c11.424,0,20.686,9.049,20.686,20.21C284.456,244.157,275.194,253.206,263.77,253.206z"/>
		<path fill="#3FB4FC" d="M195.749,326.306c-11.423,0-20.684-9.048-20.684-20.208s9.261-20.209,20.684-20.209
			c11.424,0.001,20.686,9.049,20.686,20.209S207.173,326.305,195.749,326.306z"/>
		<path fill="#2862E0" stroke="#2862E0" stroke-miterlimit="10" d="M22.297,339.598c-11.422,0-20.685-9.047-20.685-20.21
			c0-11.16,9.262-20.208,20.685-20.208c11.425,0,20.686,9.047,20.686,20.209C42.983,330.551,33.723,339.598,22.297,339.598z"/>
		<path fill="#2150AD" stroke="#2150AD" stroke-miterlimit="10" d="M27.685,224.408c-10.33,0-18.703-8.181-18.703-18.27
			c0-10.091,8.373-18.271,18.703-18.271c10.327-0.001,18.7,8.181,18.7,18.271C46.385,216.227,38.012,224.408,27.685,224.408z"/>
		<path fill="#428EFC" d="M115.966,239.361c-12.284,0-22.244-9.732-22.244-21.732c0-12.002,9.959-21.734,22.244-21.734
			c12.285,0,22.246,9.732,22.246,21.734C138.211,229.629,128.251,239.361,115.966,239.361z"/>
		<path fill="#3FB4FC" d="M74.73,116.416c-10.328,0-18.702-8.179-18.702-18.269c0-10.09,8.373-18.271,18.702-18.27
			c10.327,0,18.7,8.18,18.701,18.27C93.432,108.238,85.057,116.416,74.73,116.416z"/>
		<path fill="#428EFC" d="M156.639,28.918c-7.669,0-13.884-6.072-13.884-13.564c0-7.49,6.215-13.563,13.884-13.564
			c7.668,0,13.883,6.074,13.883,13.564C170.521,22.847,164.307,28.918,156.639,28.918z"/>
	</g>
</g>
</svg>
