<?xml version="1.0" encoding="utf-8"?>
<!-- Generator: Adobe Illustrator 24.1.0, SVG Export Plug-In . SVG Version: 6.00 Build 0)  -->
<svg version="1.1" id="Capa_1" xmlns="http://www.w3.org/2000/svg" xmlns:xlink="http://www.w3.org/1999/xlink" x="0px" y="0px"
	 viewBox="0 0 368 368" enable-background="new 0 0 368 368" xml:space="preserve">
<g>
	<g>
		<path fill="#731514" d="M147.679,56.057v278.65l21.151,6.184V70.32l48.444,32.669l-0.115,237.626l23.055-5.662l0.072-216.443
			l48.841,32.935v165.681l-0.002,12.377c-27.548,21.688-57.311,32.297-96.827,33.099c-54.221,1.102-94.191-34.169-94.191-34.169
			V23.425L147.679,56.057z"/>
		<path fill="#731514" d="M307.91,6.885l-0.085,31.367c40.234,31.071,59.988,74.753,59.988,129.475
			c0,93.826-76.158,169.886-170.102,169.886c-93.946,0-170.102-76.06-170.102-169.886c0-51.145,18.152-93.261,53.959-124.406
			l-0.018-32.185C32.683,46.554,2.578,102.814,2.578,167.727c0,107.634,87.363,194.887,195.134,194.887
			c107.769,0,195.134-87.253,195.134-194.887C392.846,99.828,360.635,41.777,307.91,6.885z"/>
	</g>
</g>
</svg>
