<?xml version="1.0" encoding="utf-8"?>
<!-- Generator: Adobe Illustrator 24.1.0, SVG Export Plug-In . SVG Version: 6.00 Build 0)  -->
<svg version="1.1" id="Capa_1" xmlns="http://www.w3.org/2000/svg" xmlns:xlink="http://www.w3.org/1999/xlink" x="0px" y="0px"
	 viewBox="0 0 368 368" enable-background="new 0 0 368 368" xml:space="preserve">
<g>
	<g>
		<path fill="#BB7900" d="M99.01,149.458c1.194,2.629-19.179,23.616-19.636,18.346c-4.772-54.985,24.089-92.804,22.926-90.112
			c-0.152,0.356,0.102,0.286-0.055,0.646C95.158,94.604,84.206,116.889,99.01,149.458z"/>
		<path fill="#FE3F3F" d="M152.699,287.707c-1.048,0.031,9.741-33.178,4.075-38.42c-1.132-1.047,19.436-15.248,19.436-15.248
			C182.495,242.994,154.967,287.641,152.699,287.707z"/>
		
			<radialGradient id="SVGID_1_" cx="-611.0299" cy="600.9216" r="41.3004" gradientTransform="matrix(-0.6496 -1.1098 1.1521 -0.6561 -958.1955 -96.7446)" gradientUnits="userSpaceOnUse">
			<stop  offset="0" style="stop-color:#548FAE"/>
			<stop  offset="1" style="stop-color:#00284B"/>
		</radialGradient>
		<path fill="url(#SVGID_1_)" d="M189.745,198.153c0,31.555-26.669,57.133-59.568,57.133c-32.898,0-59.57-25.578-59.57-57.133
			c0-31.555,26.672-57.133,59.57-57.133C163.075,141.02,189.745,166.598,189.745,198.153z"/>
		<linearGradient id="SVGID_2_" gradientUnits="userSpaceOnUse" x1="2.696" y1="151.9918" x2="106.9824" y2="151.9918">
			<stop  offset="0" style="stop-color:#FFCE72"/>
			<stop  offset="1" style="stop-color:#FFA400"/>
		</linearGradient>
		<path fill="url(#SVGID_2_)" d="M106.982,226.98c0-0.846-1.081-2.074-1.594-2.736C54.091,157.871,94.27,92.567,101.324,79.891
			c0,0,1.257-1.614,0.976-2.199c-0.581-1.203-1.915-0.84-3.012-1.024c-7.182-1.202-18.003,3.926-25.619,6.996
			C35.624,99.004-7.862,166.298,4.999,197.077c12.38,29.627,78.981,31.514,97.31,30.078
			C105.486,226.904,106.982,227.496,106.982,226.98z"/>
		<path fill="#D11717" d="M156.793,174.203c-0.107,0.86,0.338,0.949,0.716,1.436c52.498,67.82-21.609,131.584-32.32,141.905
			c-0.915,0.879-1.908,0.913-1.24,1.443c0.357,0.284,0.921,0.399,1.553,0.527c10.198,2.071,49.071-7.755,57.339-11.089
			c38.045-15.341,79.9-68.63,67.039-99.409c-12.892-30.854-77.936-35.834-91.196-35.367
			C157.63,173.685,156.831,173.892,156.793,174.203z"/>
	</g>
</g>
</svg>
