<?xml version="1.0" encoding="utf-8"?>
<!-- Generator: Adobe Illustrator 24.1.0, SVG Export Plug-In . SVG Version: 6.00 Build 0)  -->
<svg version="1.1" id="Capa_1" xmlns="http://www.w3.org/2000/svg" xmlns:xlink="http://www.w3.org/1999/xlink" x="0px" y="0px"
	 viewBox="0 0 368 368" enable-background="new 0 0 368 368" xml:space="preserve">
<g>
	<g>
		<path fill-rule="evenodd" clip-rule="evenodd" fill="#EEDFDE" d="M179.723,1.039c29.169,0,58.339,0.013,87.51-0.039
			c1.369-0.002,2.097,0.498,2.775,1.879c29.075,59.276,58.175,118.536,87.329,177.758c0.869,1.765,0.779,2.967-0.047,4.648
			c-29.167,59.29-58.298,118.606-87.4,177.938c-0.661,1.346-1.388,1.775-2.693,1.774c-58.397-0.041-116.794-0.042-175.19,0.002
			c-1.319,0.002-2.002-0.474-2.653-1.806C60.161,303.687,30.94,244.2,1.688,184.735c-0.653-1.326-0.679-2.231-0.012-3.584
			c12.928-26.215,25.8-52.468,38.689-78.712c16.329-33.245,32.67-66.483,48.964-99.753c0.637-1.298,1.316-1.68,2.542-1.678
			C121.154,1.049,150.439,1.039,179.723,1.039z"/>
		<path fill-rule="evenodd" clip-rule="evenodd" fill="#89221E" d="M180.231,101.297c14.1,0,28.201,0.026,42.301-0.041
			c1.39-0.007,2.07,0.536,2.742,1.929c12.618,26.152,25.279,52.273,37.971,78.376c0.546,1.123,0.621,1.958,0.118,3.113
			c-7.05,16.209-14.064,32.439-21.086,48.666c-5.835,13.481-11.678,26.958-17.478,40.461c-0.473,1.103-0.989,1.534-2.065,1.533
			c-28.143-0.037-56.286-0.035-84.43-0.004c-0.985,0-1.515-0.341-1.972-1.389c-11.159-25.542-22.351-51.063-33.537-76.589
			c-1.852-4.223-3.676-8.465-5.579-12.656c-0.505-1.113-0.562-1.933,0.005-3.107c12.644-26.21,25.25-52.447,37.82-78.706
			c0.585-1.224,1.213-1.617,2.376-1.613C151.688,101.314,165.96,101.297,180.231,101.297z"/>
		<path fill-rule="evenodd" clip-rule="evenodd" fill="#89221E" d="M297.774,87.455c-0.877,0-1.493,0-2.108,0
			c-24.719,0-49.439-0.012-74.158,0.003c-25.118,0.014-50.237,0.078-75.354,0.077c-27.574-0.002-55.146-0.053-82.72-0.081
			c-2.05-0.002-2.055-0.006-1.008-2.136c11.281-22.966,22.572-45.928,33.821-68.917c0.586-1.198,1.198-1.639,2.382-1.638
			c53.949,0.038,107.898,0.034,161.847,0.024c0.999,0,1.759,0.06,2.378,1.326c11.441,23.398,22.938,46.758,34.42,70.129
			C297.413,86.528,297.519,86.835,297.774,87.455z"/>
		<path fill-rule="evenodd" clip-rule="evenodd" fill="#BB807E" d="M66.787,289.206c0.924,0,1.546,0,2.167,0
			c73.698,0,147.395,0,221.095,0c2.469,0,2.469,0,1.249,2.485c-9.466,19.28-18.94,38.554-28.374,57.856
			c-0.527,1.077-1.091,1.463-2.138,1.463c-54.117-0.029-108.235-0.028-162.354-0.006c-0.952,0.001-1.554-0.271-2.059-1.305
			c-9.64-19.702-19.313-39.384-28.977-59.071C67.229,290.292,67.097,289.933,66.787,289.206z"/>
		<path fill-rule="evenodd" clip-rule="evenodd" fill="#BB807E" d="M122.276,101.367c-3.226,6.725-6.321,13.199-9.431,19.664
			c-9.599,19.963-19.195,39.929-28.825,59.871c-0.622,1.289-0.712,2.292-0.101,3.68c12.622,28.705,25.195,57.44,37.778,86.168
			c0.62,1.412,1.253,2.817,2,4.496c-0.835,0-1.388,0-1.941,0c-20.038,0-40.077-0.014-60.115,0.033
			c-1.284,0.003-2.013-0.383-2.686-1.756c-14.539-29.697-29.128-59.36-43.72-89.022c-0.481-0.98-0.702-1.757-0.134-2.911
			c12.929-26.222,25.816-52.471,38.692-78.729c0.488-0.994,0.947-1.602,2.072-1.599c21.808,0.047,43.616,0.035,65.424,0.036
			C121.514,101.299,121.74,101.33,122.276,101.367z"/>
		<path fill-rule="evenodd" clip-rule="evenodd" fill="#BB807E" d="M237.417,275.162c2.92-6.788,5.711-13.303,8.522-19.807
			c6.97-16.135,13.948-32.265,20.924-48.396c3.254-7.528,6.489-15.069,9.792-22.567c0.539-1.223,0.492-2.115-0.09-3.313
			c-12.598-25.894-25.154-51.817-37.718-77.735c-0.988-2.039-0.988-2.045,1.024-2.045c21.003-0.001,42.006,0.014,63.009-0.038
			c1.32-0.004,2.033,0.474,2.688,1.813c12.767,26.088,25.573,52.151,38.392,78.203c0.523,1.065,0.716,1.865,0.117,3.08
			c-14.67,29.751-29.294,59.532-43.905,89.323c-0.494,1.008-0.952,1.603-2.07,1.6c-19.861-0.045-39.723-0.032-59.584-0.035
			C238.236,275.245,237.958,275.204,237.417,275.162z"/>
	</g>
</g>
</svg>
