<?xml version="1.0" encoding="utf-8"?>
<!-- Generator: Adobe Illustrator 24.1.0, SVG Export Plug-In . SVG Version: 6.00 Build 0)  -->
<svg version="1.1" id="Capa_1" xmlns="http://www.w3.org/2000/svg" xmlns:xlink="http://www.w3.org/1999/xlink" x="0px" y="0px"
	 viewBox="0 0 368 368" enable-background="new 0 0 368 368" xml:space="preserve">
<g>
	<g>
		<path fill-rule="evenodd" clip-rule="evenodd" fill="#FFF1E1" d="M47.63,3.458c2.312-0.021,6.808-0.026,10.074-0.031
			c83.727-0.1,167.454-0.091,251.18-0.014l6.674-0.06c0,0,30.87,59.808,42.899,84.917c1.207,2.517,3.748,8.597,3.748,8.597
			s-2.707,6.678-4.357,10.023c-14.593,29.564-29.371,59.007-44.104,88.478c-28.257,56.532-56.526,113.058-84.751,169.608
			c-0.367,0.733-1.102,2.076-1.102,2.076s-1.175,0.001-1.95,0c-27.805-0.059-55.609-0.014-83.414-0.102l-8.524,0.024l0,0
			c0,0-3.086-7.045-4.624-10.132c-26.337-52.894-52.579-105.852-78.856-158.788c-15.306-30.835-30.663-61.638-45.904-92.519
			c-1.166-2.363-3.862-8.668-3.862-8.668s2.871-6.181,4.207-8.869c12.885-25.955,25.891-51.829,38.911-77.692
			C44.542,8.982,45.592,7.179,47.63,3.458z"/>
		<path fill-rule="evenodd" clip-rule="evenodd" fill="#FF9F30" d="M58.091,14.193c82.901,0,165.487,0,248.373,0
			c-1.406,2.888-2.702,5.625-4.059,8.321c-10.816,21.476-21.72,42.893-32.392,64.464c-1.71,3.455-3.517,4.606-6.964,4.597
			c-55.289-0.151-110.581-0.12-165.872-0.047c-1.971,0.003-3.002-0.745-3.9-2.666c-5.79-12.397-11.66-24.745-17.511-37.104
			c-5.521-11.664-11.052-23.316-16.574-34.979C58.84,16.033,58.541,15.252,58.091,14.193z"/>
		<path fill-rule="evenodd" clip-rule="evenodd" fill="#FFD5A6" d="M183.89,356.336c-12.06,0-24.118,0.008-36.176-0.018
			c-0.706-0.001-1.67,0.466-2.07-0.385c-0.345-0.729,0.463-1.387,0.797-2.053c7.171-14.298,14.335-28.601,21.52-42.887
			c7.815-15.533,15.663-31.043,23.474-46.579c9.914-19.719,19.785-39.467,29.71-59.176c8.448-16.779,16.958-33.514,25.416-50.284
			c7.546-14.963,15.076-29.938,22.561-44.942c0.783-1.567,1.17-1.809,1.997-0.078c6.273,13.151,12.573,26.284,18.895,39.402
			c5.624,11.665,11.278,23.31,16.944,34.95c0.544,1.119,0.545,1.946-0.058,3.144c-6.701,13.276-13.313,26.616-19.964,39.928
			c-5.715,11.436-11.461,22.852-17.175,34.29c-5.777,11.563-11.522,23.15-17.298,34.711c-5.713,11.439-11.452,22.859-17.167,34.294
			c-3.937,7.876-7.883,15.743-11.754,23.662c-0.737,1.507-1.575,2.073-3.099,2.063C208.257,356.302,196.074,356.336,183.89,356.336z
			"/>
		<path fill-rule="evenodd" clip-rule="evenodd" fill="#FF9F30" d="M181.061,102.327c26.049,0,52.099,0,78.148,0
			c0.438,0,0.876,0.031,1.311-0.006c1.23-0.107,1.595,0.16,0.838,1.617c-2.571,4.955-5.03,9.986-7.544,14.981
			c-9.077,18.046-18.159,36.088-27.243,54.13c-7.48,14.855-14.958,29.716-22.445,44.568c-8.147,16.163-16.302,32.32-24.455,48.479
			c-0.157,0.313-0.325,0.617-0.473,0.936c-0.535,1.163-0.955,1.309-1.566-0.02c-1.819-3.954-3.73-7.852-5.589-11.779
			c-9.871-20.848-19.748-41.695-29.605-62.552c-6.921-14.645-13.805-29.313-20.727-43.959c-6.92-14.645-13.872-29.269-20.794-43.912
			c-1.16-2.453-1.12-2.482,1.247-2.482C128.463,102.327,154.762,102.327,181.061,102.327z"/>
		<path fill-rule="evenodd" clip-rule="evenodd" fill="#FFD5A6" d="M91.862,108.393c3.192,6.721,6.257,13.17,9.318,19.619
			c6.216,13.104,12.445,26.203,18.645,39.316c4.673,9.883,9.292,19.803,13.968,29.687c6.084,12.857,12.213,25.686,18.299,38.543
			c4.647,9.819,9.254,19.664,13.887,29.491c2.061,4.373,4.124,8.749,6.225,13.1c0.507,1.053,0.481,1.839-0.084,2.95
			c-7.932,15.624-15.803,31.286-23.682,46.946c-3.608,7.175-7.199,14.361-10.802,21.541c-0.148,0.296-0.333,0.57-0.606,1.034
			c-2.609-5.212-5.14-10.242-7.646-15.286c-5.224-10.513-10.437-21.037-15.649-31.558c-5.463-11.024-10.915-22.053-16.383-33.073
			c-5.497-11.081-11.014-22.149-16.515-33.231c-5.034-10.14-10.057-20.29-15.089-30.432c-3.292-6.635-6.576-13.279-9.913-19.885
			c-0.611-1.207-0.601-2.175-0.013-3.39c4.968-10.27,9.899-20.566,14.823-30.863c3.504-7.332,6.978-14.682,10.474-22.018
			C84.642,123.492,88.176,116.108,91.862,108.393z"/>
		<path fill-rule="evenodd" clip-rule="evenodd" fill="#FF9F30" d="M349.302,102.475c-12.09,24.203-24.045,48.142-36.212,72.499
			c-11.699-24.282-23.253-48.265-34.93-72.499C301.952,102.475,325.46,102.475,349.302,102.475z"/>
		<path fill-rule="evenodd" clip-rule="evenodd" fill="#FF9F30" d="M349.272,91.35c-23.644,0-47.021,0-70.695,0
			c12.03-23.897,23.978-47.625,36.083-71.672C326.251,43.679,337.708,67.404,349.272,91.35z"/>
		<path fill-rule="evenodd" clip-rule="evenodd" fill="#FF9F30" d="M49.621,174.511c-2.912-5.853-5.652-11.355-8.388-16.863
			c-7.44-14.969-14.879-29.941-22.313-44.916c-1.462-2.945-2.879-5.921-4.366-8.848c-0.571-1.126-0.383-1.59,0.738-1.558
			c0.312,0.01,0.625,0,0.936,0c21.868,0,43.734-0.003,65.601,0.01c0.607,0,1.439-0.345,1.774,0.242
			c0.441,0.773-0.357,1.412-0.673,2.072c-6.146,12.912-12.3,25.822-18.457,38.731C59.589,153.623,54.702,163.861,49.621,174.511z"/>
		<path fill-rule="evenodd" clip-rule="evenodd" fill="#FF9F30" d="M49.937,19.776c11.35,23.967,22.556,47.635,33.874,71.535
			c-23.271,0-46.312,0-69.721,0C26.071,67.403,37.944,43.708,49.937,19.776z"/>
	</g>
</g>
</svg>
