<?xml version="1.0" encoding="utf-8"?>
<!-- Generator: Adobe Illustrator 24.1.0, SVG Export Plug-In . SVG Version: 6.00 Build 0)  -->
<svg version="1.1" id="Capa_1" xmlns="http://www.w3.org/2000/svg" xmlns:xlink="http://www.w3.org/1999/xlink" x="0px" y="0px"
	 viewBox="0 0 1304 368" enable-background="new 0 0 1304 368" xml:space="preserve">
<g>
	<g enable-background="new    ">
		<path d="M423.176,295.262c-11.826,0-21.496-3.651-29.008-10.956c-7.651-7.372-11.476-16.624-11.476-27.754
			c0-11.061,3.825-20.276,11.476-27.65c7.653-7.443,17.322-11.165,29.008-11.165c6.329,0,12.938,1.079,19.825,3.234v10.226
			c-6.609-2.504-13.217-3.756-19.825-3.756c-8.347,0-15.27,2.813-20.764,8.437c-5.426,5.557-8.139,12.43-8.139,20.622
			c0,8.333,2.713,15.242,8.139,20.727c5.564,5.557,12.485,8.333,20.764,8.333c6.399,0,13.007-1.321,19.825-3.966v10.435
			c-3.479,1.043-6.852,1.842-10.121,2.399C429.609,294.984,426.375,295.262,423.176,295.262z"/>
		<path d="M478.476,295.888c-9.114,0-16.173-2.921-21.181-8.765c-4.8-5.494-7.2-12.45-7.2-20.868c0-8.416,2.364-15.198,7.095-20.347
			c5.077-5.494,12.138-8.242,21.181-8.242c8.973,0,15.999,2.957,21.077,8.868c4.659,5.357,6.991,12.313,6.991,20.868
			c0,8.488-2.332,15.271-6.991,20.347C494.508,293.175,487.517,295.888,478.476,295.888z M478.371,247.369
			c-10.713,0-16.068,6.297-16.068,18.89c0,5.812,1.32,10.517,3.965,14.113c2.852,3.875,6.921,5.813,12.208,5.813
			c10.502,0,15.755-6.261,15.755-18.785c0-6.019-1.288-10.759-3.86-14.218C487.517,249.308,483.518,247.369,478.371,247.369z"/>
		<path d="M553.914,293.488v-34.642c0-3.339-1.062-6.052-3.182-8.139c-2.123-2.087-4.852-3.13-8.191-3.13
			c-3.896,0-8.452,1.009-13.669,3.025v42.885H517.29v-49.075c12.827-4.359,21.471-6.539,25.932-6.539
			c6.692,0,12.061,1.934,16.104,5.801c4.112,3.925,6.169,8.981,6.169,15.172v34.642H553.914z"/>
		<path d="M599.823,295.992c-4.244,0-7.861-1.252-10.852-3.756c-2.991-2.573-4.486-5.878-4.486-9.913v-32.137h-10.434v-9.704h10.434
			v-16.276h11.582v16.276h14.399v9.704h-14.399v31.524c0,1.457,0.47,2.584,1.409,3.381c0.939,0.799,2.069,1.197,3.391,1.197
			c2.017,0,5.181-1.078,9.495-3.235v10.196C606.536,295.078,603.022,295.992,599.823,295.992z"/>
		<path d="M643.855,247.578c-4.035,0-8.034,0.558-12,1.669v44.241h-11.582v-50.762c7.93-3.235,15.999-4.853,24.207-4.853
			c1.669,0,3.652,0.104,5.947,0.313v9.703C646.255,247.683,644.063,247.578,643.855,247.578z"/>
		<path d="M682.564,295.888c-9.113,0-16.173-2.921-21.181-8.765c-4.8-5.494-7.2-12.45-7.2-20.868c0-8.416,2.364-15.198,7.096-20.347
			c5.077-5.494,12.138-8.242,21.182-8.242c8.973,0,15.998,2.957,21.076,8.868c4.66,5.357,6.991,12.313,6.991,20.868
			c0,8.488-2.331,15.271-6.991,20.347C698.598,293.175,691.606,295.888,682.564,295.888z M682.461,247.369
			c-10.713,0-16.069,6.297-16.069,18.89c0,5.812,1.321,10.517,3.965,14.113c2.852,3.875,6.921,5.813,12.208,5.813
			c10.503,0,15.756-6.261,15.756-18.785c0-6.019-1.288-10.759-3.86-14.218C691.606,249.308,687.607,247.369,682.461,247.369z"/>
		<path d="M737.03,295.262c-4.243,0-7.861-1.267-10.852-3.797c-2.991-2.602-4.486-5.926-4.486-9.976v-67.927h11.582v66.883
			c0,3.409,1.773,5.113,5.321,5.113c3.478,0,6.434-0.73,8.869-2.191v9.679C744.402,294.524,740.925,295.262,737.03,295.262z"/>
		<path d="M810.754,295.992c-9.062,0-16.448-2.886-22.164-8.66c-5.576-5.703-8.364-12.659-8.364-20.868
			c0-8.348,2.469-15.094,7.408-20.242c5.077-5.426,12.139-8.139,21.182-8.139c4.033,0,8.243,0.521,12.625,1.565v-26.086h11.582
			v77.525C824.868,294.358,817.445,295.992,810.754,295.992z M809.441,247.787c-5.496,0-9.703,1.705-12.625,5.112
			c-2.922,3.409-4.383,7.93-4.383,13.564c0,5.565,1.738,10.296,5.218,14.19c3.547,3.896,8.103,5.843,13.668,5.843
			c2.781,0,6.156-0.59,10.121-1.773v-35.163C818.032,248.379,814.032,247.787,809.441,247.787z"/>
		<path d="M855.977,271.264c0,3.179,1.252,6.252,3.756,9.221c3.13,3.801,7.199,5.7,12.208,5.7c5.843,0,12.276-1.252,19.303-3.757
			v10.401c-7.095,2.038-13.529,3.059-19.303,3.059c-9.043,0-16.034-2.817-20.973-8.451c-4.661-5.286-6.991-12.138-6.991-20.556
			c0-8.139,2.226-14.851,6.679-20.138c4.938-5.981,11.999-8.974,21.181-8.974c6.261,0,11.582,2.087,15.965,6.261
			c4.45,4.174,6.678,9.218,6.678,15.13c0,3.756-1.393,6.714-4.174,8.869c-2.783,2.156-6.122,3.234-10.017,3.234H855.977z
			 M871.94,247.474c-5.496,0-9.773,2.053-12.834,6.156c-2.087,2.853-3.13,5.496-3.13,7.93h23.268c2.435,0,3.652-1.147,3.652-3.443
			c0-2.295-1.148-4.659-3.443-7.095C877.157,248.657,874.653,247.474,871.94,247.474z"/>
		<path d="M934.755,224.414v-10.852h11.582v10.852H934.755z M934.755,293.384v-52.901h11.582v52.901H934.755z"/>
		<path d="M997.671,293.488v-34.642c0-3.339-1.062-6.052-3.183-8.139c-2.122-2.087-4.852-3.13-8.19-3.13
			c-3.896,0-8.452,1.009-13.669,3.025v42.885h-11.582v-49.075c12.828-4.359,21.472-6.539,25.933-6.539
			c6.692,0,12.061,1.934,16.104,5.801c4.111,3.925,6.169,8.981,6.169,15.172v34.642H997.671z"/>
		<path d="M1049.266,322.704c-7.111,0-14.675-1.461-22.692-4.383v-10.747c7.513,3.616,14.712,5.426,21.599,5.426
			c3.339,0,6.398-1.218,9.182-3.652c2.781-2.365,4.174-5.183,4.174-8.451v-5.947c-3.617,0.765-7.235,1.147-10.852,1.147
			c-9.182,0-16.59-2.922-22.225-8.765c-5.565-5.703-8.348-12.693-8.348-20.973c0-8.277,2.51-15.094,7.527-20.451
			c5.157-5.355,12.231-8.034,21.224-8.034c8.364,0,16.449,1.636,24.255,4.904v58.118c0,6.19-2.336,11.373-7.007,15.547
			C1061.501,320.617,1055.888,322.704,1049.266,322.704z M1061.527,249.139c-3.896-1.041-7.93-1.561-12.104-1.561
			c-5.496,0-9.722,1.718-12.678,5.151c-2.957,3.434-4.435,7.961-4.435,13.579c0,5.481,1.738,10.165,5.218,14.049
			c3.615,4.023,8.207,6.035,13.772,6.035c2.852,0,6.261-0.588,10.226-1.769V249.139z"/>
		<path d="M1111.193,247.578c-4.035,0-8.034,0.558-11.999,1.669v44.241h-11.582v-50.762c7.93-3.235,15.998-4.853,24.207-4.853
			c1.67,0,3.652,0.104,5.947,0.313v9.703C1113.593,247.683,1111.402,247.578,1111.193,247.578z"/>
		<path d="M1133.521,271.264c0,3.179,1.252,6.252,3.756,9.221c3.13,3.801,7.199,5.7,12.208,5.7c5.843,0,12.276-1.252,19.303-3.757
			v10.401c-7.095,2.038-13.529,3.059-19.303,3.059c-9.043,0-16.034-2.817-20.973-8.451c-4.661-5.286-6.991-12.138-6.991-20.556
			c0-8.139,2.226-14.851,6.679-20.138c4.938-5.981,11.999-8.974,21.181-8.974c6.261,0,11.582,2.087,15.965,6.261
			c4.45,4.174,6.678,9.218,6.678,15.13c0,3.756-1.393,6.714-4.174,8.869c-2.783,2.156-6.122,3.234-10.017,3.234H1133.521z
			 M1149.485,247.474c-5.496,0-9.773,2.053-12.834,6.156c-2.087,2.853-3.13,5.496-3.13,7.93h23.268c2.435,0,3.652-1.147,3.652-3.443
			c0-2.295-1.148-4.659-3.443-7.095C1154.702,248.657,1152.198,247.474,1149.485,247.474z"/>
		<path d="M1197.273,295.992c-5.983,0-11.687-0.938-17.111-2.817v-10.852c5.843,2.783,11.407,4.174,16.694,4.174
			c2.921,0,5.355-0.643,7.304-1.93c1.946-1.287,2.922-2.87,2.922-4.748c0-2.572-2.332-5.008-6.991-7.304
			c-8-3.895-12.278-6.052-12.834-6.469c-4.661-3.131-6.991-7.06-6.991-11.791c0-5.635,2.191-9.877,6.574-12.729
			c3.686-2.435,8.242-3.652,13.668-3.652c4.592,0,9.704,0.905,15.339,2.713v10.33c-5.472-2.226-10.32-3.339-14.545-3.339
			c-6.303,0-9.454,2.019-9.454,6.052c0,2.157,2.322,4.313,6.965,6.469c7.136,3.271,11.5,5.462,13.095,6.574
			c4.644,3.339,6.965,7.548,6.965,12.625c0,5.843-2.54,10.261-7.617,13.251C1207.29,294.845,1202.629,295.992,1197.273,295.992z"/>
		<path d="M1254.242,295.888c-9.113,0-16.173-2.921-21.181-8.765c-4.8-5.494-7.2-12.45-7.2-20.868
			c0-8.416,2.364-15.198,7.096-20.347c5.077-5.494,12.138-8.242,21.182-8.242c8.973,0,15.998,2.957,21.076,8.868
			c4.66,5.357,6.991,12.313,6.991,20.868c0,8.488-2.331,15.271-6.991,20.347C1270.275,293.175,1263.284,295.888,1254.242,295.888z
			 M1254.139,247.369c-10.713,0-16.069,6.297-16.069,18.89c0,5.812,1.321,10.517,3.965,14.113c2.852,3.875,6.921,5.813,12.208,5.813
			c10.503,0,15.756-6.261,15.756-18.785c0-6.019-1.288-10.759-3.86-14.218C1263.284,249.308,1259.285,247.369,1254.139,247.369z"/>
	</g>
	<g enable-background="new    ">
		<path d="M392.485,59.172c0.04-0.245,0.173-0.509,0.397-0.794c0.224-0.285,0.499-0.55,0.825-0.794
			c0.326-0.245,0.672-0.438,1.039-0.581c0.367-0.143,0.712-0.214,1.039-0.214h15.645c0.692,0,1.283,0.214,1.772,0.642
			c0.489,0.428,0.855,0.805,1.1,1.13l1.528,3.484l32.084,82.749c0.326,0.815,0.265,1.477-0.183,1.986
			c-0.449,0.51-1.222,0.764-2.322,0.764h-17.54c-0.938,0-1.66-0.173-2.169-0.52c-0.51-0.346-0.907-0.926-1.191-1.742
			c-0.816-2.078-1.61-4.145-2.384-6.203c-0.774-2.057-1.549-4.125-2.322-6.203h-32.452c-0.774,2.078-1.558,4.146-2.353,6.203
			c-0.794,2.058-1.579,4.125-2.353,6.203c-0.53,1.508-1.569,2.261-3.117,2.261H361.5c-0.774,0-1.416-0.204-1.925-0.611
			c-0.51-0.407-0.602-1.018-0.275-1.833L392.485,59.172z M403.608,85.329c-0.774,2.078-1.558,4.319-2.353,6.723
			c-0.795,2.404-1.58,4.828-2.353,7.272c-0.774,2.445-1.559,4.859-2.353,7.242s-1.58,4.614-2.353,6.692h18.762L403.608,85.329z"/>
		<path d="M457.937,59.417c0-0.733,0.245-1.365,0.733-1.895c0.489-0.529,1.161-0.794,2.017-0.794h18.09
			c0.692,0,1.323,0.244,1.895,0.733c0.57,0.489,0.875,1.141,0.917,1.956v66.492h33.613c0.733,0,1.365,0.244,1.895,0.733
			c0.529,0.489,0.794,1.161,0.794,2.017v16.073c0,0.693-0.235,1.324-0.703,1.895c-0.469,0.571-1.131,0.876-1.986,0.917h-54.575
			c-1.793,0-2.689-0.896-2.689-2.689V59.417z"/>
		<path d="M519.112,59.47c0-0.812,0.275-1.462,0.825-1.95c0.55-0.487,1.231-0.731,2.047-0.731h65.759
			c0.733,0,1.384,0.223,1.956,0.67c0.57,0.447,0.896,1.117,0.978,2.011v15.173c0,0.731-0.255,1.432-0.764,2.103
			c-0.51,0.67-1.233,1.005-2.169,1.005h-21.084v66.917c0,0.734-0.265,1.397-0.792,1.988c-0.529,0.592-1.22,0.887-2.072,0.887
			h-17.922c-0.691,0-1.342-0.275-1.951-0.826c-0.609-0.55-0.914-1.233-0.914-2.049V77.751h-21.023c-0.816,0-1.498-0.263-2.047-0.792
			c-0.55-0.528-0.825-1.301-0.825-2.316V59.47z"/>
		<path d="M605.464,59.6c0-0.855,0.233-1.537,0.701-2.047c0.467-0.509,1.128-0.764,1.981-0.764h60.632
			c0.896,0,1.589,0.264,2.078,0.792c0.489,0.528,0.733,1.238,0.733,2.132v15.112c0,0.691-0.244,1.351-0.733,1.98
			c-0.489,0.63-1.202,0.944-2.139,0.944h-39.602v15.156h30.557c0.773,0,1.415,0.184,1.925,0.55c0.509,0.367,0.764,0.978,0.764,1.833
			v13.201c0,0.571-0.224,1.121-0.672,1.65c-0.449,0.53-1.101,0.794-1.956,0.794h-30.618v15.646h41.069
			c1.833,0,2.75,0.935,2.75,2.802v15.357c0,0.407-0.163,0.771-0.489,1.096c-0.163,1.138-0.999,1.707-2.506,1.707h-61.793
			c-0.813,0-1.464-0.214-1.951-0.642c-0.488-0.428-0.731-1.09-0.731-1.986V59.6z"/>
		<path d="M688.09,59.6c0-0.855,0.223-1.537,0.672-2.047c0.448-0.509,1.12-0.764,2.017-0.764h39.479
			c4.196,0,8.129,0.785,11.796,2.353c3.666,1.569,6.864,3.697,9.595,6.386c2.729,2.689,4.879,5.836,6.447,9.442
			c1.568,3.606,2.353,7.447,2.353,11.52c0,2.771-0.377,5.409-1.13,7.915c-0.755,2.505-1.803,4.849-3.147,7.028
			c-1.345,2.18-2.944,4.156-4.798,5.928c-1.854,1.772-3.881,3.291-6.081,4.553l15.707,29.579c0.284,0.571,0.651,1.243,1.1,2.017
			c0.448,0.774,0.673,1.447,0.673,2.017c0,0.652-0.215,1.151-0.643,1.497c-0.428,0.347-1.008,0.52-1.741,0.52h-20.962
			c-0.693,0-1.314-0.204-1.864-0.611c-0.55-0.407-0.907-0.957-1.069-1.65l-14.851-27.929h-9.901v27.563
			c0,1.752-0.938,2.628-2.811,2.628h-18.151c-0.815,0-1.467-0.214-1.955-0.642c-0.489-0.428-0.733-1.09-0.733-1.986V59.6z
			 M735.942,86.735c0-1.222-0.225-2.444-0.673-3.667c-0.448-1.222-1.08-2.342-1.895-3.361c-0.815-1.018-1.793-1.874-2.934-2.566
			c-1.141-0.692-2.404-1.14-3.789-1.345c-1.141-0.081-2.21-0.153-3.208-0.214c-0.999-0.061-2.089-0.092-3.27-0.092h-8.435v22.429
			h11.245c0.733,0,1.385-0.02,1.956-0.062c0.57-0.04,1.201-0.101,1.895-0.183c1.426-0.162,2.709-0.581,3.851-1.253
			c1.14-0.672,2.098-1.507,2.872-2.505c0.773-0.998,1.364-2.118,1.772-3.361C735.737,89.312,735.942,88.039,735.942,86.735z"/>
		<path d="M774.198,59.478c0-0.733,0.224-1.365,0.672-1.895c0.448-0.529,1.12-0.794,2.017-0.794h19.984
			c0.57,0,1.161,0.143,1.772,0.428c0.611,0.286,1.141,0.774,1.589,1.467c5.174,8.353,10.308,16.583,15.401,24.69
			c5.092,8.108,10.246,16.338,15.462,24.69V59.111c0.162-0.733,0.488-1.304,0.978-1.711c0.489-0.407,1.059-0.611,1.711-0.611h17.418
			c0.855,0,1.567,0.235,2.139,0.703c0.57,0.469,0.855,1.131,0.855,1.986v85.682c0,0.815-0.244,1.416-0.733,1.803
			c-0.488,0.388-1.161,0.581-2.017,0.581h-19.495c-0.53,0-0.999-0.183-1.406-0.55s-0.835-0.856-1.283-1.467
			c-5.419-8.963-10.777-17.825-16.073-26.585c-5.297-8.759-10.675-17.621-16.134-26.584v52.497c0,0.896-0.204,1.569-0.611,2.017
			c-0.407,0.449-1.141,0.672-2.2,0.672h-17.356c-0.938,0-1.619-0.254-2.047-0.764c-0.428-0.509-0.642-1.13-0.642-1.864V59.478z"/>
		<path d="M900.092,59.172c0.04-0.245,0.173-0.509,0.397-0.794c0.224-0.285,0.499-0.55,0.825-0.794
			c0.325-0.245,0.672-0.438,1.039-0.581c0.366-0.143,0.712-0.214,1.039-0.214h15.645c0.692,0,1.284,0.214,1.772,0.642
			c0.489,0.428,0.855,0.805,1.101,1.13l1.527,3.484l32.085,82.749c0.326,0.815,0.265,1.477-0.183,1.986
			c-0.449,0.51-1.223,0.764-2.323,0.764h-17.539c-0.938,0-1.661-0.173-2.17-0.52c-0.51-0.346-0.907-0.926-1.191-1.742
			c-0.815-2.078-1.61-4.145-2.384-6.203c-0.774-2.057-1.549-4.125-2.322-6.203h-32.451c-0.774,2.078-1.559,4.146-2.354,6.203
			c-0.794,2.058-1.579,4.125-2.353,6.203c-0.53,1.508-1.569,2.261-3.117,2.261h-18.028c-0.774,0-1.416-0.204-1.925-0.611
			c-0.511-0.407-0.602-1.018-0.275-1.833L900.092,59.172z M911.215,85.329c-0.774,2.078-1.559,4.319-2.353,6.723
			c-0.795,2.404-1.58,4.828-2.354,7.272c-0.774,2.445-1.558,4.859-2.353,7.242s-1.579,4.614-2.353,6.692h18.762L911.215,85.329z"/>
		<path d="M967.927,59.478c0-0.733,0.224-1.365,0.672-1.895c0.448-0.529,1.12-0.794,2.017-0.794H990.6
			c0.57,0,1.161,0.143,1.772,0.428c0.611,0.286,1.141,0.774,1.589,1.467c5.174,8.353,10.308,16.583,15.401,24.69
			c5.092,8.108,10.246,16.338,15.462,24.69V59.111c0.162-0.733,0.488-1.304,0.978-1.711c0.489-0.407,1.059-0.611,1.711-0.611h17.418
			c0.855,0,1.567,0.235,2.139,0.703c0.57,0.469,0.855,1.131,0.855,1.986v85.682c0,0.815-0.244,1.416-0.733,1.803
			c-0.488,0.388-1.161,0.581-2.017,0.581h-19.495c-0.53,0-0.999-0.183-1.406-0.55s-0.835-0.856-1.283-1.467
			c-5.419-8.963-10.777-17.825-16.073-26.585c-5.297-8.759-10.675-17.621-16.134-26.584v52.497c0,0.896-0.204,1.569-0.611,2.017
			c-0.407,0.449-1.141,0.672-2.2,0.672h-17.356c-0.938,0-1.619-0.254-2.047-0.764c-0.428-0.509-0.642-1.13-0.642-1.864V59.478z"/>
		<path d="M1137.09,63.389c0.692,0.408,1.201,0.938,1.527,1.589c0.326,0.652,0.265,1.427-0.184,2.323l-10.328,14.667
			c-0.448,0.693-0.927,1.091-1.436,1.192c-0.511,0.102-1.131-0.071-1.864-0.52c-1.997-1.507-4.197-2.668-6.601-3.483
			c-2.404-0.814-4.95-1.222-7.639-1.222c-3.342,0-6.417,0.632-9.229,1.895c-2.812,1.263-5.236,2.995-7.272,5.195
			c-2.038,2.2-3.627,4.767-4.768,7.7s-1.711,6.071-1.711,9.412c0,3.341,0.57,6.468,1.711,9.381c1.141,2.914,2.729,5.46,4.768,7.639
			c2.036,2.18,4.461,3.902,7.272,5.165c2.812,1.263,5.887,1.895,9.229,1.895c2.688,0,5.256-0.417,7.7-1.253
			c2.444-0.835,4.664-2.006,6.661-3.514c0.733-0.448,1.345-0.631,1.833-0.55c0.489,0.083,0.979,0.449,1.467,1.1l10.451,15.034
			c0.447,0.897,0.509,1.65,0.183,2.261c-0.326,0.611-0.835,1.121-1.527,1.528c-3.83,2.567-7.955,4.553-12.376,5.958
			c-4.421,1.406-9.075,2.109-13.964,2.109c-4.319,0-8.465-0.55-12.438-1.65c-3.972-1.1-7.69-2.668-11.153-4.706
			c-3.463-2.037-6.61-4.471-9.441-7.303c-2.833-2.832-5.267-5.968-7.304-9.412c-2.037-3.442-3.605-7.15-4.705-11.123
			c-1.101-3.973-1.65-8.118-1.65-12.437c0-4.318,0.55-8.464,1.65-12.437c1.1-3.973,2.668-7.701,4.705-11.184
			s4.471-6.651,7.304-9.503c2.831-2.851,5.979-5.286,9.441-7.303c3.463-2.017,7.182-3.585,11.153-4.706
			c3.973-1.12,8.118-1.681,12.438-1.681c4.889,0,9.503,0.683,13.842,2.047C1129.175,58.858,1133.26,60.822,1137.09,63.389z"/>
		<path d="M1154.201,59.478c0-0.733,0.224-1.365,0.672-1.895c0.448-0.529,1.12-0.794,2.017-0.794h17.968
			c0.611,0,1.263,0.244,1.956,0.733c0.692,0.489,1.039,1.141,1.039,1.956v85.376c0,1.793-0.999,2.689-2.995,2.689h-17.968
			c-1.793,0-2.688-0.896-2.688-2.689V59.478z"/>
		<path d="M1223.503,59.172c0.04-0.245,0.173-0.509,0.397-0.794c0.224-0.285,0.499-0.55,0.825-0.794
			c0.325-0.245,0.672-0.438,1.039-0.581c0.366-0.143,0.712-0.214,1.039-0.214h15.645c0.692,0,1.284,0.214,1.772,0.642
			c0.489,0.428,0.855,0.805,1.101,1.13l1.527,3.484l32.085,82.749c0.326,0.815,0.265,1.477-0.183,1.986
			c-0.449,0.51-1.223,0.764-2.323,0.764h-17.539c-0.938,0-1.661-0.173-2.17-0.52c-0.51-0.346-0.907-0.926-1.191-1.742
			c-0.815-2.078-1.61-4.145-2.384-6.203c-0.774-2.057-1.549-4.125-2.322-6.203h-32.451c-0.774,2.078-1.559,4.146-2.354,6.203
			c-0.794,2.058-1.579,4.125-2.353,6.203c-0.53,1.508-1.569,2.261-3.117,2.261h-18.028c-0.774,0-1.416-0.204-1.925-0.611
			c-0.511-0.407-0.602-1.018-0.275-1.833L1223.503,59.172z M1234.626,85.329c-0.774,2.078-1.559,4.319-2.353,6.723
			c-0.795,2.404-1.58,4.828-2.354,7.272c-0.774,2.445-1.558,4.859-2.353,7.242s-1.579,4.614-2.353,6.692h18.762L1234.626,85.329z"/>
	</g>
	<g>
		<polygon fill="#49AA50" points="43.805,93.043 145.245,58.61 145.245,309.613 43.788,276.185 43.788,195.914 23.555,195.927 
			23.555,175.51 43.805,175.51 43.805,155.522 65.193,155.522 65.199,134.473 43.805,134.473 43.837,113.371 65.193,113.366 
			65.193,93.045 		"/>
		<rect x="23.572" y="72.81" fill="#49AA50" width="20.233" height="20.233"/>
		<rect x="2.443" y="113.297" fill="#49AA50" width="21.112" height="21.112"/>
		<rect x="23.555" y="134.409" fill="#49AA50" width="21.112" height="21.112"/>
		<circle fill="#0C6F17" cx="183.087" cy="220.749" r="9.106"/>
		<path fill="#0C6F17" d="M73.226,46.335L209.532,2.236c7.495-2.425,15.177,3.164,15.177,11.042v342.464
			c0,7.902-7.726,13.493-15.232,11.024L73.171,321.915c-4.76-1.567-7.978-6.012-7.978-11.024V57.376
			C65.193,52.343,68.438,47.884,73.226,46.335z M86.272,65.943v236.963l115.491,37.73V27.753L86.272,65.943z"/>
	</g>
</g>
</svg>
