<?xml version="1.0" encoding="UTF-8" standalone="no"?>
<!-- Generator: Adobe Illustrator 24.1.0, SVG Export Plug-In . SVG Version: 6.00 Build 0)  -->

<svg
   version="1.1"
   id="Capa_1"
   x="0px"
   y="0px"
   viewBox="0 0 1304 368"
   enable-background="new 0 0 1304 368"
   xml:space="preserve"
   xmlns="http://www.w3.org/2000/svg"
   xmlns:svg="http://www.w3.org/2000/svg"><defs
   id="defs79" />
<g
   id="g74">
	<g
   enable-background="new    "
   id="g34">
		<path
   d="M423.176,295.262c-11.826,0-21.496-3.651-29.008-10.956c-7.651-7.372-11.476-16.624-11.476-27.754    c0-11.061,3.825-20.276,11.476-27.65c7.653-7.443,17.322-11.165,29.008-11.165c6.329,0,12.938,1.079,19.825,3.234v10.226    c-6.609-2.504-13.217-3.756-19.825-3.756c-8.347,0-15.27,2.813-20.764,8.437c-5.426,5.557-8.139,12.43-8.139,20.622    c0,8.333,2.713,15.242,8.139,20.727c5.564,5.557,12.485,8.333,20.764,8.333c6.399,0,13.007-1.321,19.825-3.966v10.435    c-3.479,1.043-6.852,1.842-10.121,2.399C429.609,294.984,426.375,295.262,423.176,295.262z"
   id="path2" />
		<path
   d="M478.476,295.888c-9.114,0-16.173-2.921-21.181-8.765c-4.8-5.494-7.2-12.45-7.2-20.868c0-8.416,2.364-15.198,7.095-20.347    c5.077-5.494,12.138-8.242,21.181-8.242c8.973,0,15.999,2.957,21.077,8.868c4.659,5.357,6.991,12.313,6.991,20.868    c0,8.488-2.332,15.271-6.991,20.347C494.508,293.175,487.517,295.888,478.476,295.888z M478.371,247.369    c-10.713,0-16.068,6.297-16.068,18.89c0,5.812,1.32,10.517,3.965,14.113c2.852,3.875,6.921,5.813,12.208,5.813    c10.502,0,15.755-6.261,15.755-18.785c0-6.019-1.288-10.759-3.86-14.218C487.517,249.308,483.518,247.369,478.371,247.369z"
   id="path4" />
		<path
   d="M553.914,293.488v-34.642c0-3.339-1.062-6.052-3.182-8.139c-2.123-2.087-4.852-3.13-8.191-3.13    c-3.896,0-8.452,1.009-13.669,3.025v42.885H517.29v-49.075c12.827-4.359,21.471-6.539,25.932-6.539    c6.692,0,12.061,1.934,16.104,5.801c4.112,3.925,6.169,8.981,6.169,15.172v34.642H553.914z"
   id="path6" />
		<path
   d="M599.823,295.992c-4.244,0-7.861-1.252-10.852-3.756c-2.991-2.573-4.486-5.878-4.486-9.913v-32.137h-10.434v-9.704h10.434    v-16.276h11.582v16.276h14.399v9.704h-14.399v31.524c0,1.457,0.47,2.584,1.409,3.381c0.939,0.799,2.069,1.197,3.391,1.197    c2.017,0,5.181-1.078,9.495-3.235v10.196C606.536,295.078,603.022,295.992,599.823,295.992z"
   id="path8" />
		<path
   d="M643.855,247.578c-4.035,0-8.034,0.558-12,1.669v44.241h-11.582v-50.762c7.93-3.235,15.999-4.853,24.207-4.853    c1.669,0,3.652,0.104,5.947,0.313v9.703C646.255,247.683,644.063,247.578,643.855,247.578z"
   id="path10" />
		<path
   d="M682.564,295.888c-9.113,0-16.173-2.921-21.181-8.765c-4.8-5.494-7.2-12.45-7.2-20.868c0-8.416,2.364-15.198,7.096-20.347    c5.077-5.494,12.138-8.242,21.182-8.242c8.973,0,15.998,2.957,21.076,8.868c4.66,5.357,6.991,12.313,6.991,20.868    c0,8.488-2.331,15.271-6.991,20.347C698.598,293.175,691.606,295.888,682.564,295.888z M682.461,247.369    c-10.713,0-16.069,6.297-16.069,18.89c0,5.812,1.321,10.517,3.965,14.113c2.852,3.875,6.921,5.813,12.208,5.813    c10.503,0,15.756-6.261,15.756-18.785c0-6.019-1.288-10.759-3.86-14.218C691.606,249.308,687.607,247.369,682.461,247.369z"
   id="path12" />
		<path
   d="M737.03,295.262c-4.243,0-7.861-1.267-10.852-3.797c-2.991-2.602-4.486-5.926-4.486-9.976v-67.927h11.582v66.883    c0,3.409,1.773,5.113,5.321,5.113c3.478,0,6.434-0.73,8.869-2.191v9.679C744.402,294.524,740.925,295.262,737.03,295.262z"
   id="path14" />
		<path
   d="M810.754,295.992c-9.062,0-16.448-2.886-22.164-8.66c-5.576-5.703-8.364-12.659-8.364-20.868    c0-8.348,2.469-15.094,7.408-20.242c5.077-5.426,12.139-8.139,21.182-8.139c4.033,0,8.243,0.521,12.625,1.565v-26.086h11.582    v77.525C824.868,294.358,817.445,295.992,810.754,295.992z M809.441,247.787c-5.496,0-9.703,1.705-12.625,5.112    c-2.922,3.409-4.383,7.93-4.383,13.564c0,5.565,1.738,10.296,5.218,14.19c3.547,3.896,8.103,5.843,13.668,5.843    c2.781,0,6.156-0.59,10.121-1.773v-35.163C818.032,248.379,814.032,247.787,809.441,247.787z"
   id="path16" />
		<path
   d="M855.977,271.264c0,3.179,1.252,6.252,3.756,9.221c3.13,3.801,7.199,5.7,12.208,5.7c5.843,0,12.276-1.252,19.303-3.757    v10.401c-7.095,2.038-13.529,3.059-19.303,3.059c-9.043,0-16.034-2.817-20.973-8.451c-4.661-5.286-6.991-12.138-6.991-20.556    c0-8.139,2.226-14.851,6.679-20.138c4.938-5.981,11.999-8.974,21.181-8.974c6.261,0,11.582,2.087,15.965,6.261    c4.45,4.174,6.678,9.218,6.678,15.13c0,3.756-1.393,6.714-4.174,8.869c-2.783,2.156-6.122,3.234-10.017,3.234H855.977z     M871.94,247.474c-5.496,0-9.773,2.053-12.834,6.156c-2.087,2.853-3.13,5.496-3.13,7.93h23.268c2.435,0,3.652-1.147,3.652-3.443    c0-2.295-1.148-4.659-3.443-7.095C877.157,248.657,874.653,247.474,871.94,247.474z"
   id="path18" />
		<path
   d="M934.755,224.414v-10.852h11.582v10.852H934.755z M934.755,293.384v-52.901h11.582v52.901H934.755z"
   id="path20" />
		<path
   d="M997.671,293.488v-34.642c0-3.339-1.062-6.052-3.183-8.139c-2.122-2.087-4.852-3.13-8.19-3.13    c-3.896,0-8.452,1.009-13.669,3.025v42.885h-11.582v-49.075c12.828-4.359,21.472-6.539,25.933-6.539    c6.692,0,12.061,1.934,16.104,5.801c4.111,3.925,6.169,8.981,6.169,15.172v34.642H997.671z"
   id="path22" />
		<path
   d="M1049.266,322.704c-7.111,0-14.675-1.461-22.692-4.383v-10.747c7.513,3.616,14.712,5.426,21.599,5.426    c3.339,0,6.398-1.218,9.182-3.652c2.781-2.365,4.174-5.183,4.174-8.451v-5.947c-3.617,0.765-7.235,1.147-10.852,1.147    c-9.182,0-16.59-2.922-22.225-8.765c-5.565-5.703-8.348-12.693-8.348-20.973c0-8.277,2.51-15.094,7.527-20.451    c5.157-5.355,12.231-8.034,21.224-8.034c8.364,0,16.449,1.636,24.255,4.904v58.118c0,6.19-2.336,11.373-7.007,15.547    C1061.501,320.617,1055.888,322.704,1049.266,322.704z M1061.527,249.139c-3.896-1.041-7.93-1.561-12.104-1.561    c-5.496,0-9.722,1.718-12.678,5.151c-2.957,3.434-4.435,7.961-4.435,13.579c0,5.481,1.738,10.165,5.218,14.049    c3.615,4.023,8.207,6.035,13.772,6.035c2.852,0,6.261-0.588,10.226-1.769V249.139z"
   id="path24" />
		<path
   d="M1111.193,247.578c-4.035,0-8.034,0.558-11.999,1.669v44.241h-11.582v-50.762c7.93-3.235,15.998-4.853,24.207-4.853    c1.67,0,3.652,0.104,5.947,0.313v9.703C1113.593,247.683,1111.402,247.578,1111.193,247.578z"
   id="path26" />
		<path
   d="M1133.521,271.264c0,3.179,1.252,6.252,3.756,9.221c3.13,3.801,7.199,5.7,12.208,5.7c5.843,0,12.276-1.252,19.303-3.757    v10.401c-7.095,2.038-13.529,3.059-19.303,3.059c-9.043,0-16.034-2.817-20.973-8.451c-4.661-5.286-6.991-12.138-6.991-20.556    c0-8.139,2.226-14.851,6.679-20.138c4.938-5.981,11.999-8.974,21.181-8.974c6.261,0,11.582,2.087,15.965,6.261    c4.45,4.174,6.678,9.218,6.678,15.13c0,3.756-1.393,6.714-4.174,8.869c-2.783,2.156-6.122,3.234-10.017,3.234H1133.521z     M1149.485,247.474c-5.496,0-9.773,2.053-12.834,6.156c-2.087,2.853-3.13,5.496-3.13,7.93h23.268c2.435,0,3.652-1.147,3.652-3.443    c0-2.295-1.148-4.659-3.443-7.095C1154.702,248.657,1152.198,247.474,1149.485,247.474z"
   id="path28" />
		<path
   d="M1197.273,295.992c-5.983,0-11.687-0.938-17.111-2.817v-10.852c5.843,2.783,11.407,4.174,16.694,4.174    c2.921,0,5.355-0.643,7.304-1.93c1.946-1.287,2.922-2.87,2.922-4.748c0-2.572-2.332-5.008-6.991-7.304    c-8-3.895-12.278-6.052-12.834-6.469c-4.661-3.131-6.991-7.06-6.991-11.791c0-5.635,2.191-9.877,6.574-12.729    c3.686-2.435,8.242-3.652,13.668-3.652c4.592,0,9.704,0.905,15.339,2.713v10.33c-5.472-2.226-10.32-3.339-14.545-3.339    c-6.303,0-9.454,2.019-9.454,6.052c0,2.157,2.322,4.313,6.965,6.469c7.136,3.271,11.5,5.462,13.095,6.574    c4.644,3.339,6.965,7.548,6.965,12.625c0,5.843-2.54,10.261-7.617,13.251C1207.29,294.845,1202.629,295.992,1197.273,295.992z"
   id="path30" />
		<path
   d="M1254.242,295.888c-9.113,0-16.173-2.921-21.181-8.765c-4.8-5.494-7.2-12.45-7.2-20.868    c0-8.416,2.364-15.198,7.096-20.347c5.077-5.494,12.138-8.242,21.182-8.242c8.973,0,15.998,2.957,21.076,8.868    c4.66,5.357,6.991,12.313,6.991,20.868c0,8.488-2.331,15.271-6.991,20.347C1270.275,293.175,1263.284,295.888,1254.242,295.888z     M1254.139,247.369c-10.713,0-16.069,6.297-16.069,18.89c0,5.812,1.321,10.517,3.965,14.113c2.852,3.875,6.921,5.813,12.208,5.813    c10.503,0,15.756-6.261,15.756-18.785c0-6.019-1.288-10.759-3.86-14.218C1263.284,249.308,1259.285,247.369,1254.139,247.369z"
   id="path32" />
	</g>
	<g
   enable-background="new    "
   id="g58">
		
		
		
		
		
		
		
		
		
		
		
	<text
   xml:space="preserve"
   style="font-style:normal;font-weight:normal;font-size:107.016px;line-height:1.25;font-family:sans-serif;fill:#000000;fill-opacity:1;stroke:none;stroke-width:2.67538"
   x="509.95602"
   y="125.32618"
   id="text8402"
   transform="scale(0.7233497,1.3824572)"><tspan
     id="tspan8400"
     x="509.95602"
     y="125.32618"
     style="font-style:normal;font-variant:normal;font-weight:bold;font-stretch:normal;font-size:107.016px;font-family:sans-serif;-inkscape-font-specification:'sans-serif, Bold';font-variant-ligatures:normal;font-variant-caps:normal;font-variant-numeric:normal;font-variant-east-asian:normal;stroke-width:2.67538">ACCESOUD</tspan></text></g>
	<g
   id="g72">
		<polygon
   fill="#49AA50"
   points="43.805,93.043 145.245,58.61 145.245,309.613 43.788,276.185 43.788,195.914 23.555,195.927     23.555,175.51 43.805,175.51 43.805,155.522 65.193,155.522 65.199,134.473 43.805,134.473 43.837,113.371 65.193,113.366     65.193,93.045   "
   id="polygon60" />
		<rect
   x="23.572"
   y="72.81"
   fill="#49AA50"
   width="20.233"
   height="20.233"
   id="rect62" />
		<rect
   x="2.443"
   y="113.297"
   fill="#49AA50"
   width="21.112"
   height="21.112"
   id="rect64" />
		<rect
   x="23.555"
   y="134.409"
   fill="#49AA50"
   width="21.112"
   height="21.112"
   id="rect66" />
		<circle
   fill="#0C6F17"
   cx="183.087"
   cy="220.749"
   r="9.106"
   id="circle68" />
		<path
   fill="#0C6F17"
   d="M73.226,46.335L209.532,2.236c7.495-2.425,15.177,3.164,15.177,11.042v342.464    c0,7.902-7.726,13.493-15.232,11.024L73.171,321.915c-4.76-1.567-7.978-6.012-7.978-11.024V57.376    C65.193,52.343,68.438,47.884,73.226,46.335z M86.272,65.943v236.963l115.491,37.73V27.753L86.272,65.943z"
   id="path70" />
	</g>
</g>
</svg>
