<?xml version="1.0" encoding="utf-8"?>
<!-- Generator: Adobe Illustrator 24.1.0, SVG Export Plug-In . SVG Version: 6.00 Build 0)  -->
<svg version="1.1" id="Capa_1" xmlns="http://www.w3.org/2000/svg" xmlns:xlink="http://www.w3.org/1999/xlink" x="0px" y="0px"
	 viewBox="0 0 1304 368" enable-background="new 0 0 1304 368" xml:space="preserve">
<g>
	<g>
		<g>
			<path d="M466.585,215.118c7.896,0,14.29,2.75,19.181,8.249c4.736,5.345,7.107,12.128,7.107,20.35
				c0,8.274-2.371,15.058-7.107,20.35c-4.89,5.448-11.284,8.171-19.181,8.171c-4.535,0-9.348-1.08-14.442-3.237v-50.567
				C457.033,216.224,461.848,215.118,466.585,215.118z M466.585,268.46c6.52,0,11.818-2.436,15.894-7.312
				c3.821-4.618,5.732-10.441,5.732-17.47c0-7.029-1.91-12.852-5.732-17.471c-4.076-4.874-9.374-7.312-15.894-7.312
				c-2.903,0-6.164,0.642-9.78,1.925v45.715C460.421,267.819,463.682,268.46,466.585,268.46z"/>
			<path d="M519.43,230.381c4.087,0,7.563,1.464,10.424,4.394c2.852,2.878,4.279,6.372,4.279,10.483c0,2.313-0.805,4.162-2.414,5.55
				c-1.61,1.388-3.64,2.081-6.091,2.081h-19.996c0.203,4.449,1.479,8.106,3.831,10.969c2.504,3.069,5.849,4.602,10.04,4.602
				c4.086,0,8.173-0.745,12.261-2.235v4.163c-3.985,1.233-8.074,1.85-12.261,1.85c-6.082,0-10.729-2.004-13.948-6.013
				c-3.056-3.751-4.585-8.71-4.585-14.877c0-6.013,1.452-10.894,4.355-14.646C508.596,232.489,513.298,230.381,519.43,230.381z
				 M529.472,245.258c0-2.775-0.997-5.319-2.989-7.632c-1.995-2.312-4.319-3.468-6.977-3.468c-4.141,0-7.463,1.464-9.967,4.394
				c-2.25,2.724-3.552,6.244-3.908,10.56h20.007c1.023,0,1.916-0.372,2.683-1.117C529.09,247.25,529.472,246.337,529.472,245.258z"
				/>
			<path d="M555.758,272.391c-1.326,0-2.548-0.219-3.669-0.655c-1.12-0.437-2.1-1.052-2.941-1.85
				c-0.841-0.796-1.504-1.734-1.987-2.813c-0.484-1.08-0.727-2.261-0.727-3.546v-27.981h-7.642v-3.777h7.642V219.82h4.662v11.948
				h9.398v3.777h-9.398v27.916c0,1.333,0.458,2.526,1.376,3.576c0.916,1.052,2.012,1.577,3.286,1.577
				c1.782,0,3.718-0.54,5.805-1.619v3.931C559.781,271.902,557.845,272.391,555.758,272.391z"/>
			<path d="M584.533,230.381c4.089,0,7.563,1.464,10.425,4.394c2.852,2.878,4.278,6.372,4.278,10.483
				c0,2.313-0.805,4.162-2.414,5.55c-1.61,1.388-3.639,2.081-6.092,2.081h-19.996c0.205,4.449,1.482,8.106,3.832,10.969
				c2.503,3.069,5.851,4.602,10.039,4.602c4.088,0,8.174-0.745,12.263-2.235v4.163c-3.986,1.233-8.073,1.85-12.263,1.85
				c-6.079,0-10.729-2.004-13.948-6.013c-3.056-3.751-4.585-8.71-4.585-14.877c0-6.013,1.452-10.894,4.356-14.646
				C573.699,232.489,578.401,230.381,584.533,230.381z M594.575,245.258c0-2.775-0.997-5.319-2.989-7.632
				c-1.995-2.312-4.319-3.468-6.977-3.468c-4.138,0-7.46,1.464-9.965,4.394c-2.251,2.724-3.554,6.244-3.91,10.56h20.008
				c1.023,0,1.917-0.372,2.683-1.117C594.193,247.25,594.575,246.337,594.575,245.258z"/>
			<path d="M635.152,270.927c-3.62,0.925-7.108,1.387-10.47,1.387c-6.012,0-10.749-2.004-14.213-6.012
				c-3.311-3.803-4.967-8.761-4.967-14.877c0-6.063,1.656-11.048,4.967-14.954c3.516-4.059,8.253-6.089,14.213-6.089
				c3.464,0,6.954,0.489,10.47,1.464v4.008c-3.363-1.129-6.854-1.695-10.47-1.695c-4.484,0-8.049,1.717-10.698,5.152
				c-2.548,3.282-3.821,7.307-3.821,12.076c0,4.718,1.273,8.718,3.821,11.998c2.648,3.435,6.214,5.153,10.698,5.153
				c3.616,0,7.107-0.54,10.47-1.619V270.927z"/>
			<path d="M670.071,270.927c-3.619,0.925-7.107,1.387-10.469,1.387c-6.013,0-10.75-2.004-14.214-6.012
				c-3.311-3.803-4.967-8.761-4.967-14.877c0-6.063,1.656-11.048,4.967-14.954c3.516-4.059,8.252-6.089,14.214-6.089
				c3.463,0,6.953,0.489,10.469,1.464v4.008c-3.362-1.129-6.853-1.695-10.469-1.695c-4.484,0-8.05,1.717-10.698,5.152
				c-2.547,3.282-3.821,7.307-3.821,12.076c0,4.718,1.273,8.718,3.821,11.998c2.648,3.435,6.214,5.153,10.698,5.153
				c3.616,0,7.107-0.54,10.469-1.619V270.927z"/>
			<path d="M678.398,212.035h4.662v4.702h-4.662V212.035z M683.06,231.845v39.082h-4.662v-39.082H683.06z"/>
			<path d="M729.672,251.733c0,6.219-1.555,11.127-4.662,14.723c-3.209,3.854-7.846,5.781-13.907,5.781
				c-6.012,0-10.697-2.081-14.059-6.244c-3.21-3.904-4.815-8.966-4.815-15.185c0-6.064,1.579-10.971,4.738-14.723
				c3.363-3.854,8.047-5.782,14.06-5.782c5.909,0,10.544,2.108,13.907,6.32C728.092,240.582,729.672,245.618,729.672,251.733z
				 M697.348,250.77c0,5.077,1.07,9.18,3.21,12.307c2.446,3.589,5.96,5.383,10.545,5.383c4.636,0,8.1-1.64,10.393-4.922
				c2.037-2.82,3.058-6.768,3.058-11.844c0-5.025-1.047-9.126-3.133-12.306c-2.397-3.537-5.859-5.307-10.393-5.307
				c-4.637,0-8.126,1.615-10.469,4.846C698.419,241.85,697.348,245.798,697.348,250.77z M714.924,212.035h4.661l-6.572,9.712h-3.744
				L714.924,212.035z"/>
			<path d="M737.694,271.004v-35.921c8.272-3.032,13.966-4.548,17.082-4.548c2.144,0,4.11,0.354,5.897,1.062
				c1.788,0.708,3.308,1.698,4.559,2.968c1.251,1.27,2.22,2.806,2.91,4.603c0.689,1.8,1.034,3.778,1.034,5.936v25.9h-4.66v-25.9
				c0-1.542-0.256-2.968-0.765-4.278c-0.51-1.311-1.211-2.454-2.102-3.431c-0.891-0.975-1.962-1.734-3.21-2.273
				c-1.248-0.54-2.636-0.81-4.163-0.81c-3.771,0-7.745,1.002-11.92,3.006v33.686H737.694z"/>
			<path d="M819.108,230.458c3.758,0,7.466,0.668,11.122,2.004v-20.351h4.662v56.811c-4.992,2.159-9.808,3.237-14.442,3.237
				c-6.063,0-10.954-2.029-14.671-6.089c-3.771-4.111-5.655-9.173-5.655-15.185c0-6.013,1.681-10.92,5.044-14.723
				C808.467,232.359,813.114,230.458,819.108,230.458z M819.565,234.235c-4.674,0-8.253,1.618-10.741,4.856
				c-2.388,3.033-3.582,6.964-3.582,11.794c0,4.831,1.422,8.916,4.267,12.256c2.945,3.598,6.754,5.396,11.427,5.396
				c2.642,0,5.739-0.668,9.293-2.004v-30.371C826.929,234.878,823.373,234.235,819.565,234.235z"/>
			<path d="M862.138,230.381c4.087,0,7.563,1.464,10.423,4.394c2.853,2.878,4.281,6.372,4.281,10.483
				c0,2.313-0.805,4.162-2.414,5.55c-1.611,1.388-3.641,2.081-6.092,2.081h-19.997c0.204,4.449,1.481,8.106,3.832,10.969
				c2.504,3.069,5.85,4.602,10.039,4.602c4.087,0,8.174-0.745,12.263-2.235v4.163c-3.986,1.233-8.075,1.85-12.263,1.85
				c-6.08,0-10.728-2.004-13.948-6.013c-3.056-3.751-4.584-8.71-4.584-14.877c0-6.013,1.452-10.894,4.354-14.646
				C851.304,232.489,856.006,230.381,862.138,230.381z M872.18,245.258c0-2.775-0.996-5.319-2.989-7.632
				c-1.995-2.312-4.319-3.468-6.977-3.468c-4.14,0-7.462,1.464-9.966,4.394c-2.249,2.724-3.552,6.244-3.909,10.56h20.008
				c1.022,0,1.917-0.372,2.683-1.117C871.798,247.25,872.18,246.337,872.18,245.258z"/>
			<path d="M895.408,272.314c-1.324,0-2.547-0.224-3.667-0.668c-1.121-0.447-2.101-1.076-2.941-1.889
				c-0.841-0.813-1.504-1.76-1.987-2.839c-0.484-1.079-0.726-2.26-0.726-3.545v-51.415h4.662v51.415
				c0,1.336,0.458,2.532,1.376,3.584c0.916,1.054,2.011,1.58,3.284,1.58c1.733,0,3.644-0.565,5.732-1.696v4.057
				C899.306,271.842,897.394,272.314,895.408,272.314z"/>
			<path d="M959.06,230.612c0,1.85-0.266,3.61-0.802,5.28c-0.536,1.67-1.299,3.187-2.292,4.547
				c-0.993,1.363-2.178,2.557-3.552,3.585c-1.376,1.028-2.905,1.824-4.586,2.39l15.817,24.512h-5.578l-15.206-23.587
				c-0.205,0.052-1.059,0.077-2.56,0.077c-1.504,0-3.681,0-6.535,0v23.742h-4.662v-52.339c4.892-2.209,9.705-3.315,14.443-3.315
				c4.33,0,7.997,1.464,11.003,4.393C957.558,222.776,959.06,226.347,959.06,230.612z M942.021,243.639
				c3.413,0,6.316-1.28,8.711-3.842c2.446-2.612,3.669-5.661,3.669-9.144c0-2.97-1.071-5.609-3.21-7.915
				c-2.139-2.305-4.688-3.458-7.641-3.458c-2.854,0-6.114,0.666-9.781,1.998v22.36H942.021z"/>
			<path d="M970.218,212.035h4.66v4.702h-4.66V212.035z M974.878,231.845v39.082h-4.66v-39.082H974.878z"/>
			<path d="M1002.584,230.381c4.087,0,7.563,1.464,10.424,4.394c2.853,2.878,4.278,6.372,4.278,10.483
				c0,2.313-0.803,4.162-2.413,5.55c-1.609,1.388-3.639,2.081-6.09,2.081h-19.998c0.205,4.449,1.482,8.106,3.832,10.969
				c2.503,3.069,5.851,4.602,10.04,4.602c4.087,0,8.174-0.745,12.262-2.235v4.163c-3.985,1.233-8.073,1.85-12.262,1.85
				c-6.079,0-10.729-2.004-13.948-6.013c-3.057-3.751-4.583-8.71-4.583-14.877c0-6.013,1.45-10.894,4.354-14.646
				C991.75,232.489,996.45,230.381,1002.584,230.381z M1012.626,245.258c0-2.775-0.998-5.319-2.99-7.632
				c-1.994-2.312-4.32-3.468-6.976-3.468c-4.14,0-7.462,1.464-9.967,4.394c-2.249,2.724-3.551,6.244-3.909,10.56h20.009
				c1.021,0,1.917-0.372,2.683-1.117C1012.242,247.25,1012.626,246.337,1012.626,245.258z"/>
			<path d="M1045.79,235.931c-2.74-1.233-5.657-1.851-8.751-1.851c-5.883,0-8.826,2.235-8.826,6.706
				c0,2.416,1.697,4.498,5.093,6.244l9.578,4.934c3.413,2.364,5.12,5.345,5.12,8.942c0,3.854-1.556,6.809-4.662,8.864
				c-2.597,1.593-5.681,2.39-9.245,2.39c-4.178,0-7.718-0.539-10.622-1.619v-4.548c3.362,1.696,6.801,2.544,10.315,2.544
				c2.495,0,4.636-0.616,6.419-1.85c1.987-1.387,2.981-3.16,2.981-5.318c0-2.724-1.698-5.011-5.093-6.86
				c-1.572-0.874-3.143-1.696-4.714-2.467c-1.57-0.771-3.116-1.618-4.637-2.543c-1.81-1.027-3.128-2.248-3.955-3.661
				c-0.827-1.413-1.241-2.941-1.241-4.587c0-3.75,1.324-6.577,3.973-8.478c2.343-1.645,5.323-2.467,8.94-2.467
				c3.21,0,6.316,0.54,9.324,1.619V235.931z"/>
			<path d="M1073.756,293.281c-5.043,0-9.935-0.951-14.672-2.852v-4.394c4.585,2.313,9.476,3.469,14.672,3.469
				c3.005,0,5.579-1.159,7.717-3.475c2.141-2.213,3.209-4.863,3.209-7.952v-7.181c-1.579,0.473-3.184,0.839-4.813,1.102
				c-1.632,0.262-3.313,0.393-5.043,0.393c-6.113,0-11.081-2.081-14.902-6.243c-3.719-4.059-5.577-9.121-5.577-15.186
				c0-6.167,1.63-11.073,4.89-14.722c3.423-3.855,8.173-5.782,14.25-5.782c5.772,0,11.056,1.054,15.858,3.161v44.477
				c0,4.317-1.529,7.913-4.585,10.792C1081.753,291.816,1078.085,293.281,1073.756,293.281z M1073.908,234.235
				c-4.736,0-8.355,1.615-10.851,4.846c-2.395,3.025-3.591,6.974-3.591,11.844c0,4.77,1.426,8.871,4.279,12.305
				c2.954,3.59,6.8,5.384,11.539,5.384c2.648,0,5.782-0.641,9.398-1.922v-30.688
				C1081.065,234.826,1077.475,234.235,1073.908,234.235z"/>
			<path d="M1135.267,251.733c0,6.219-1.554,11.127-4.661,14.723c-3.21,3.854-7.847,5.781-13.907,5.781
				c-6.013,0-10.698-2.081-14.061-6.244c-3.209-3.904-4.813-8.966-4.813-15.185c0-6.064,1.578-10.971,4.736-14.723
				c3.363-3.854,8.05-5.782,14.061-5.782c5.909,0,10.544,2.108,13.907,6.32C1133.688,240.582,1135.267,245.618,1135.267,251.733z
				 M1102.944,250.77c0,5.077,1.07,9.18,3.209,12.307c2.445,3.589,5.96,5.383,10.546,5.383c4.634,0,8.1-1.64,10.393-4.922
				c2.036-2.82,3.056-6.768,3.056-11.844c0-5.025-1.045-9.126-3.132-12.306c-2.396-3.537-5.859-5.307-10.393-5.307
				c-4.637,0-8.126,1.615-10.469,4.846C1104.015,241.85,1102.944,245.798,1102.944,250.77z"/>
			<path d="M1165.145,292.865v-59.326c4.941-2.105,10.188-3.158,15.741-3.158c5.96,0,10.672,1.927,14.136,5.781
				c3.26,3.649,4.892,8.556,4.892,14.723c0,6.012-1.86,11.049-5.579,15.108c-3.859,4.112-8.786,6.167-14.778,6.167
				c-1.676,0-3.328-0.131-4.953-0.393c-1.626-0.264-3.225-0.63-4.799-1.102v22.2H1165.145z M1180.472,234.158
				c-3.606,0-7.161,0.59-10.666,1.77v30.533c3.605,1.281,6.704,1.922,9.294,1.922c4.672,0,8.507-1.768,11.504-5.306
				c2.792-3.333,4.19-7.409,4.19-12.229c0-4.921-1.169-8.87-3.505-11.844C1188.698,235.773,1185.092,234.158,1180.472,234.158z"/>
			<path d="M1237.355,267.612c-4.637,3.135-9.985,4.702-16.047,4.702c-4.229,0-7.744-1.053-10.544-3.16
				c-2.701-2.158-4.051-4.934-4.051-8.325c0-3.75,1.605-6.757,4.813-9.019c3.617-2.569,8.89-3.855,15.818-3.855h5.349v-5.442
				c0-2.197-0.815-4.113-2.444-5.749c-1.631-1.686-3.669-2.529-6.114-2.529c-4.687,0-8.992,0.771-12.914,2.313v-4.162
				c3.974-1.284,8.559-1.927,13.754-1.927c3.464,0,6.393,1.156,8.789,3.469c2.394,2.261,3.591,5.113,3.591,8.556V267.612z
				 M1232.693,251.733h-4.89c-5.553,0-9.756,0.972-12.608,2.916c-2.345,1.587-3.516,3.633-3.516,6.139
				c0,2.199,0.891,4.041,2.675,5.525c1.782,1.483,4.203,2.224,7.259,2.224c4.075,0,7.768-0.945,11.08-2.838V251.733z"/>
			<path d="M1264.252,234.312c-3.618,0-7.183,0.592-10.698,1.773v34.918h-4.66v-37.322c4.737-2.098,10.01-3.147,15.816-3.147
				c0.561,0,1.044,0,1.452,0s0.738,0.026,0.994,0.077v3.854c-0.714-0.051-1.312-0.089-1.795-0.115
				C1264.875,234.326,1264.506,234.312,1264.252,234.312z"/>
			<path d="M1302,267.612c-4.637,3.135-9.984,4.702-16.048,4.702c-4.229,0-7.743-1.053-10.545-3.16
				c-2.7-2.158-4.05-4.934-4.05-8.325c0-3.75,1.605-6.757,4.814-9.019c3.617-2.569,8.888-3.855,15.818-3.855h5.348v-5.442
				c0-2.197-0.815-4.113-2.445-5.749c-1.63-1.686-3.667-2.529-6.113-2.529c-4.687,0-8.991,0.771-12.914,2.313v-4.162
				c3.974-1.284,8.559-1.927,13.754-1.927c3.464,0,6.393,1.156,8.788,3.469c2.395,2.261,3.592,5.113,3.592,8.556V267.612z
				 M1297.338,251.733h-4.89c-5.552,0-9.756,0.972-12.608,2.916c-2.344,1.587-3.515,3.633-3.515,6.139
				c0,2.199,0.891,4.041,2.674,5.525c1.783,1.483,4.204,2.224,7.259,2.224c4.075,0,7.768-0.945,11.08-2.838V251.733z"/>
			<path d="M461.388,364.814c-1.326,0-2.548-0.224-3.667-0.668c-1.121-0.447-2.102-1.075-2.941-1.888
				c-0.841-0.813-1.504-1.76-1.987-2.839c-0.484-1.079-0.726-2.26-0.726-3.545v-51.415h4.661v51.415
				c0,1.336,0.459,2.531,1.375,3.584c0.917,1.053,2.011,1.58,3.286,1.58c1.733,0,3.643-0.565,5.731-1.696v4.057
				C465.286,364.342,463.375,364.814,461.388,364.814z"/>
			<path d="M500.817,360.112c-4.636,3.135-9.984,4.702-16.047,4.702c-4.229,0-7.743-1.054-10.545-3.16
				c-2.701-2.158-4.051-4.933-4.051-8.325c0-3.751,1.606-6.756,4.816-9.019c3.616-2.569,8.889-3.854,15.817-3.854h5.35v-5.442
				c0-2.197-0.815-4.113-2.447-5.749c-1.63-1.686-3.667-2.529-6.112-2.529c-4.688,0-8.992,0.771-12.915,2.313v-4.162
				c3.974-1.284,8.559-1.927,13.756-1.927c3.463,0,6.392,1.156,8.787,3.468c2.393,2.262,3.591,5.114,3.591,8.557V360.112z
				 M496.157,344.233h-4.892c-5.553,0-9.755,0.972-12.608,2.916c-2.343,1.587-3.514,3.633-3.514,6.139
				c0,2.199,0.89,4.041,2.673,5.524c1.784,1.484,4.204,2.225,7.26,2.225c4.076,0,7.769-0.945,11.081-2.838V344.233z"/>
			<path d="M548.193,307.618c7.894,0,14.288,2.75,19.179,8.249c4.738,5.345,7.106,12.128,7.106,20.35
				c0,8.274-2.369,15.058-7.106,20.35c-4.89,5.448-11.284,8.17-19.179,8.17c-4.535,0-9.35-1.079-14.443-3.237v-50.567
				C538.641,308.724,543.455,307.618,548.193,307.618z M548.193,360.959c6.518,0,11.817-2.436,15.892-7.311
				c3.821-4.618,5.732-10.441,5.732-17.47c0-7.029-1.91-12.852-5.732-17.471c-4.076-4.874-9.374-7.311-15.892-7.311
				c-2.905,0-6.166,0.642-9.782,1.925v45.715C542.028,360.319,545.289,360.959,548.193,360.959z"/>
			<path d="M601.038,322.881c4.088,0,7.563,1.464,10.425,4.393c2.851,2.878,4.278,6.372,4.278,10.483
				c0,2.313-0.806,4.162-2.414,5.549c-1.61,1.388-3.639,2.082-6.092,2.082h-19.996c0.204,4.449,1.481,8.105,3.831,10.969
				c2.503,3.069,5.851,4.601,10.04,4.601c4.088,0,8.174-0.743,12.262-2.235v4.163c-3.986,1.233-8.073,1.85-12.262,1.85
				c-6.079,0-10.729-2.004-13.948-6.013c-3.056-3.75-4.585-8.71-4.585-14.876c0-6.013,1.452-10.895,4.356-14.647
				C590.203,324.989,594.906,322.881,601.038,322.881z M611.079,337.758c0-2.775-0.996-5.319-2.989-7.631
				c-1.995-2.313-4.319-3.469-6.977-3.469c-4.139,0-7.461,1.465-9.965,4.394c-2.251,2.725-3.553,6.244-3.909,10.561h20.008
				c1.023,0,1.918-0.372,2.683-1.118C610.697,339.75,611.079,338.837,611.079,337.758z"/>
			<path d="M644.243,328.431c-2.739-1.233-5.655-1.85-8.749-1.85c-5.885,0-8.826,2.235-8.826,6.707c0,2.416,1.697,4.498,5.094,6.244
				l9.578,4.934c3.411,2.364,5.12,5.345,5.12,8.941c0,3.854-1.556,6.81-4.662,8.864c-2.598,1.593-5.681,2.39-9.245,2.39
				c-4.179,0-7.718-0.54-10.623-1.619v-4.547c3.363,1.695,6.802,2.543,10.316,2.543c2.495,0,4.636-0.617,6.419-1.85
				c1.987-1.387,2.979-3.16,2.979-5.318c0-2.724-1.697-5.011-5.093-6.86c-1.57-0.874-3.143-1.696-4.712-2.467
				c-1.572-0.771-3.116-1.618-4.637-2.543c-1.809-1.027-3.128-2.248-3.956-3.662c-0.826-1.413-1.24-2.941-1.24-4.587
				c0-3.75,1.324-6.577,3.974-8.479c2.342-1.644,5.323-2.466,8.94-2.466c3.209,0,6.316,0.54,9.322,1.619V328.431z"/>
			<path d="M670.649,322.881c4.087,0,7.563,1.464,10.424,4.393c2.854,2.878,4.278,6.372,4.278,10.483
				c0,2.313-0.803,4.162-2.414,5.549c-1.608,1.388-3.638,2.082-6.089,2.082H656.85c0.205,4.449,1.482,8.105,3.832,10.969
				c2.504,3.069,5.851,4.601,10.039,4.601c4.088,0,8.176-0.743,12.263-2.235v4.163c-3.987,1.233-8.074,1.85-12.263,1.85
				c-6.079,0-10.729-2.004-13.948-6.013c-3.056-3.75-4.583-8.71-4.583-14.876c0-6.013,1.45-10.895,4.356-14.647
				C659.815,324.989,664.516,322.881,670.649,322.881z M680.691,337.758c0-2.775-0.998-5.319-2.989-7.631
				c-1.994-2.313-4.32-3.469-6.977-3.469c-4.139,0-7.461,1.465-9.966,4.394c-2.248,2.725-3.552,6.244-3.909,10.561h20.01
				c1.021,0,1.916-0.372,2.683-1.118C680.308,339.75,680.691,338.837,680.691,337.758z"/>
			<path d="M709.881,326.812c-3.619,0-7.183,0.591-10.698,1.773v34.918h-4.662v-37.321c4.738-2.098,10.01-3.147,15.818-3.147
				c0.56,0,1.042,0,1.452,0c0.407,0,0.738,0.026,0.993,0.078v3.854c-0.715-0.051-1.313-0.089-1.795-0.116
				C710.505,326.825,710.135,326.812,709.881,326.812z"/>
			<path d="M746.712,363.426c-3.619,0.926-7.107,1.388-10.469,1.388c-6.011,0-10.749-2.004-14.212-6.012
				c-3.313-3.803-4.967-8.761-4.967-14.878c0-6.063,1.654-11.048,4.967-14.954c3.514-4.059,8.252-6.089,14.212-6.089
				c3.464,0,6.954,0.488,10.469,1.464v4.009c-3.363-1.13-6.852-1.696-10.469-1.696c-4.483,0-8.049,1.718-10.698,5.153
				c-2.547,3.282-3.82,7.307-3.82,12.075c0,4.718,1.272,8.717,3.82,11.999c2.649,3.435,6.215,5.153,10.698,5.153
				c3.618,0,7.106-0.54,10.469-1.619V363.426z"/>
			<path d="M755.041,304.536h4.66v4.701h-4.66V304.536z M759.7,324.345v39.081h-4.66v-39.081H759.7z"/>
			<path d="M806.313,344.233c0,6.218-1.556,11.127-4.662,14.723c-3.21,3.854-7.845,5.781-13.907,5.781
				c-6.011,0-10.698-2.08-14.061-6.243c-3.21-3.905-4.813-8.967-4.813-15.186c0-6.063,1.577-10.971,4.736-14.722
				c3.363-3.855,8.05-5.782,14.06-5.782c5.91,0,10.546,2.108,13.907,6.32C804.732,333.082,806.313,338.118,806.313,344.233z
				 M773.99,343.271c0,5.076,1.069,9.179,3.21,12.306c2.444,3.589,5.959,5.382,10.544,5.382c4.636,0,8.1-1.639,10.393-4.921
				c2.036-2.82,3.056-6.768,3.056-11.844c0-5.025-1.045-9.126-3.133-12.306c-2.395-3.538-5.859-5.307-10.394-5.307
				c-4.634,0-8.125,1.615-10.467,4.846C775.059,334.35,773.99,338.297,773.99,343.271z M791.564,304.536h4.662l-6.572,9.712h-3.744
				L791.564,304.536z"/>
			<path d="M814.334,363.503v-35.92c8.272-3.032,13.966-4.548,17.082-4.548c2.145,0,4.111,0.354,5.898,1.063
				c1.787,0.708,3.308,1.698,4.558,2.967c1.251,1.271,2.22,2.806,2.91,4.603c0.689,1.8,1.035,3.777,1.035,5.936v25.899h-4.662
				v-25.899c0-1.542-0.256-2.968-0.764-4.278c-0.51-1.311-1.211-2.454-2.102-3.43c-0.891-0.976-1.96-1.735-3.208-2.274
				c-1.249-0.54-2.636-0.81-4.165-0.81c-3.771,0-7.744,1.002-11.92,3.007v33.684H814.334z"/>
			<path d="M906.413,309.006v3.777h-22.16v20.658h22.16v3.777h-22.16v22.354h22.16v3.777h-26.822v-54.343H906.413z"/>
			<path d="M936.597,328.431c-2.74-1.233-5.657-1.85-8.75-1.85c-5.883,0-8.826,2.235-8.826,6.707c0,2.416,1.699,4.498,5.093,6.244
				l9.578,4.934c3.413,2.364,5.12,5.345,5.12,8.941c0,3.854-1.554,6.81-4.661,8.864c-2.598,1.593-5.681,2.39-9.246,2.39
				c-4.177,0-7.718-0.54-10.621-1.619v-4.547c3.362,1.695,6.8,2.543,10.315,2.543c2.496,0,4.635-0.617,6.418-1.85
				c1.987-1.387,2.981-3.16,2.981-5.318c0-2.724-1.699-5.011-5.092-6.86c-1.572-0.874-3.143-1.696-4.715-2.467
				c-1.57-0.771-3.116-1.618-4.637-2.543c-1.81-1.027-3.128-2.248-3.954-3.662c-0.828-1.413-1.241-2.941-1.241-4.587
				c0-3.75,1.323-6.577,3.973-8.479c2.343-1.644,5.323-2.466,8.94-2.466c3.21,0,6.316,0.54,9.324,1.619V328.431z"/>
			<path d="M959.902,364.891c-1.325,0-2.548-0.219-3.667-0.655c-1.123-0.438-2.103-1.053-2.943-1.85
				c-0.84-0.796-1.502-1.734-1.987-2.814c-0.485-1.079-0.725-2.26-0.725-3.545v-27.981h-7.642v-3.777h7.642v-11.948h4.66v11.948
				h9.399v3.777h-9.399v27.916c0,1.333,0.46,2.526,1.376,3.576c0.917,1.051,2.012,1.576,3.286,1.576
				c1.782,0,3.718-0.539,5.808-1.618v3.931C963.924,364.402,961.99,364.891,959.902,364.891z"/>
			<path d="M1004.527,324.422v35.767c-7.917,3.033-13.584,4.548-17.006,4.548c-2.144,0-4.11-0.353-5.898-1.062
				c-1.788-0.708-3.306-1.697-4.557-2.968c-1.252-1.269-2.223-2.792-2.912-4.565c-0.688-1.772-1.034-3.738-1.034-5.896v-25.823
				h4.662v25.823c0,1.542,0.252,2.968,0.762,4.278c0.508,1.31,1.206,2.441,2.094,3.392c0.889,0.951,1.953,1.695,3.197,2.235
				c1.244,0.54,2.627,0.809,4.15,0.809c3.706,0,7.666-1.001,11.88-3.005v-33.531H1004.527z"/>
			<path d="M1033.215,322.958c3.759,0,7.467,0.668,11.123,2.004v-20.35h4.66v56.811c-4.992,2.159-9.807,3.238-14.442,3.238
				c-6.062,0-10.954-2.03-14.671-6.09c-3.771-4.111-5.654-9.173-5.654-15.185c0-6.013,1.681-10.92,5.042-14.723
				C1022.574,324.86,1027.222,322.958,1033.215,322.958z M1033.672,326.735c-4.673,0-8.252,1.619-10.74,4.856
				c-2.389,3.033-3.582,6.964-3.582,11.794c0,4.831,1.423,8.916,4.266,12.256c2.946,3.597,6.756,5.396,11.428,5.396
				c2.642,0,5.739-0.668,9.295-2.004v-30.371C1041.036,327.378,1037.48,326.735,1033.672,326.735z"/>
			<path d="M1060.843,304.536h4.66v4.701h-4.66V304.536z M1065.503,324.345v39.081h-4.66v-39.081H1065.503z"/>
			<path d="M1105.314,360.112c-4.637,3.135-9.985,4.702-16.048,4.702c-4.229,0-7.744-1.054-10.545-3.16
				c-2.7-2.158-4.05-4.933-4.05-8.325c0-3.751,1.605-6.756,4.813-9.019c3.618-2.569,8.889-3.854,15.819-3.854h5.348v-5.442
				c0-2.197-0.815-4.113-2.445-5.749c-1.63-1.686-3.668-2.529-6.113-2.529c-4.687,0-8.991,0.771-12.914,2.313v-4.162
				c3.973-1.284,8.559-1.927,13.753-1.927c3.465,0,6.393,1.156,8.789,3.468c2.395,2.262,3.592,5.114,3.592,8.557V360.112z
				 M1100.652,344.233h-4.89c-5.553,0-9.757,0.972-12.609,2.916c-2.344,1.587-3.515,3.633-3.515,6.139
				c0,2.199,0.891,4.041,2.675,5.524c1.782,1.484,4.202,2.225,7.258,2.225c4.076,0,7.768-0.945,11.081-2.838V344.233z"/>
			<path d="M1116.853,363.503v-35.92c8.27-3.032,13.966-4.548,17.081-4.548c2.144,0,4.109,0.354,5.896,1.063
				c1.788,0.708,3.308,1.698,4.559,2.967c1.251,1.271,2.221,2.806,2.912,4.603c0.687,1.8,1.033,3.777,1.033,5.936v25.899h-4.661
				v-25.899c0-1.542-0.255-2.968-0.765-4.278c-0.509-1.311-1.21-2.454-2.101-3.43c-0.892-0.976-1.961-1.735-3.209-2.274
				c-1.249-0.54-2.637-0.81-4.165-0.81c-3.771,0-7.744,1.002-11.922,3.007v33.684H1116.853z"/>
			<path d="M1172.785,364.891c-1.324,0-2.548-0.219-3.668-0.655c-1.121-0.438-2.101-1.053-2.942-1.85
				c-0.84-0.796-1.503-1.734-1.987-2.814c-0.484-1.079-0.726-2.26-0.726-3.545v-27.981h-7.642v-3.777h7.642v-11.948h4.662v11.948
				h9.398v3.777h-9.398v27.916c0,1.333,0.458,2.526,1.375,3.576c0.917,1.051,2.013,1.576,3.286,1.576
				c1.782,0,3.718-0.539,5.807-1.618v3.931C1176.809,364.402,1174.873,364.891,1172.785,364.891z"/>
			<path d="M1186.157,304.536h4.661v4.701h-4.661V304.536z M1190.818,324.345v39.081h-4.661v-39.081H1190.818z"/>
			<path d="M1212.365,364.814c-1.325,0-2.548-0.224-3.667-0.668c-1.121-0.447-2.102-1.075-2.941-1.888
				c-0.841-0.813-1.504-1.76-1.988-2.839c-0.484-1.079-0.725-2.26-0.725-3.545v-51.415h4.66v51.415c0,1.336,0.459,2.531,1.376,3.584
				c0.917,1.053,2.011,1.58,3.285,1.58c1.731,0,3.643-0.565,5.731-1.696v4.057C1216.263,364.342,1214.352,364.814,1212.365,364.814z
				"/>
		</g>
	</g>
	<g>
		<g>
			<path d="M452.6,166.686c0.37-1.489,0.793-2.867,1.274-4.135c0.479-1.266,0.905-2.421,1.275-3.465L514.87,9.088
				c0.223-0.819,0.832-1.732,1.829-2.739c0.998-1.006,2.344-1.509,4.044-1.509h17.839c1.773,0,3.046,0.447,3.823,1.341
				c0.774,0.894,1.347,1.677,1.717,2.347l3.656,8.718l58.503,147.651c0,0.223,0.055,0.615,0.167,1.173
				c0.11,0.559,0.166,1.025,0.166,1.397c0,2.235-1.626,3.353-4.876,3.353h-21.827c-1.627,0-2.882-0.335-3.768-1.006
				c-0.887-0.671-1.626-1.713-2.217-3.13l-1.995-5.141c-1.404-3.577-2.807-7.154-4.209-10.73c-1.405-3.577-2.771-7.19-4.101-10.842
				h-68.364c-1.922,5.217-3.786,10.115-5.596,14.698c-1.811,4.583-3.343,8.589-4.598,12.015c-1.035,2.759-2.954,4.136-5.761,4.136
				h-22.161c-1.404,0-2.531-0.26-3.38-0.782c-0.848-0.521-1.274-1.303-1.274-2.348C452.489,167.246,452.525,166.91,452.6,166.686z
				 M529.719,47.425c-3.989,10.283-7.961,20.94-11.912,31.967c-3.952,11.029-7.922,21.647-11.912,31.855h47.203L529.719,47.425z"/>
			<path d="M629.104,10.094c0-3.501,1.662-5.253,4.986-5.253h62.936c7.46,0,14.328,1.472,20.61,4.415
				c6.277,2.944,11.688,6.874,16.231,11.792c4.544,4.918,8.069,10.563,10.581,16.934c2.51,6.371,3.767,13.021,3.767,19.951
				c0,6.781-1.24,13.32-3.716,19.616c-2.478,6.297-5.953,11.886-10.427,16.766c-4.476,4.881-9.821,8.793-16.032,11.736
				c-6.213,2.944-13.018,4.415-20.413,4.415h-36.501v55.551c0,3.205-1.657,4.806-4.97,4.806h-22.195
				c-3.237,0-4.857-1.602-4.857-4.806V10.094z M715.861,57.764c0-3.062-0.592-6.067-1.776-9.018
				c-1.184-2.95-2.812-5.564-4.885-7.842c-2.073-2.277-4.552-4.125-7.439-5.544c-2.889-1.419-6.034-2.13-9.438-2.13h-31.196v49.068
				h31.196c3.331,0,6.439-0.671,9.328-2.015c2.885-1.345,5.384-3.156,7.495-5.433c2.109-2.277,3.756-4.892,4.941-7.844
				C715.269,64.057,715.861,60.976,715.861,57.764z"/>
			<path d="M775.471,10.206c0-3.577,1.623-5.365,4.875-5.365h106.813c1.918,0,3.284,0.543,4.099,1.628
				c0.813,1.084,1.218,2.448,1.218,4.094v19.743c0,1.346-0.461,2.543-1.385,3.591c-0.923,1.048-2.309,1.57-4.155,1.57h-78.779
				v33.866h60.718c1.478-0.147,2.66,0.168,3.547,0.951c0.885,0.782,1.33,2.106,1.33,3.968v20.23c0,1.342-0.372,2.535-1.11,3.578
				c-0.738,1.044-1.921,1.564-3.545,1.564h-60.94v40.574h81.66c2.067,0,3.436,0.448,4.101,1.346c0.664,0.898,0.997,2.281,0.997,4.15
				v20.417c0,3.142-1.625,4.712-4.875,4.712H780.345c-1.33,0-2.476-0.372-3.435-1.118c-0.96-0.745-1.439-1.937-1.439-3.577V10.206z"
				/>
			<path d="M910.091,166.686c0.37-1.489,0.793-2.867,1.274-4.135c0.481-1.266,0.904-2.421,1.274-3.465L972.361,9.088
				c0.222-0.819,0.832-1.732,1.828-2.739c0.998-1.006,2.345-1.509,4.044-1.509h17.839c1.773,0,3.047,0.447,3.822,1.341
				c0.777,0.894,1.349,1.677,1.718,2.347l3.656,8.718l58.503,147.651c0,0.223,0.055,0.615,0.167,1.173
				c0.111,0.559,0.167,1.025,0.167,1.397c0,2.235-1.626,3.353-4.876,3.353h-21.827c-1.627,0-2.881-0.335-3.768-1.006
				c-0.887-0.671-1.626-1.713-2.217-3.13l-1.995-5.141c-1.402-3.577-2.807-7.154-4.21-10.73c-1.404-3.577-2.77-7.19-4.1-10.842
				H952.75c-1.922,5.217-3.787,10.115-5.596,14.698c-1.811,4.583-3.344,8.589-4.598,12.015c-1.035,2.759-2.955,4.136-5.762,4.136
				h-22.16c-1.405,0-2.532-0.26-3.379-0.782c-0.85-0.521-1.274-1.303-1.274-2.348C909.981,167.246,910.017,166.91,910.091,166.686z
				 M987.21,47.425c-3.99,10.283-7.962,20.94-11.912,31.967c-3.953,11.029-7.922,21.647-11.912,31.855h47.202L987.21,47.425z"/>
		</g>
	</g>
	<g>
		<g>
			<g>
				<path fill="#002147" d="M164.528,154.333v170.332H42.632c0.226-10.378,1.852-18.775,4.515-25.268
					c8.876-21.647,20.364-43.349,34.763-57.755c19.077-19.108,43.447-30.831,69.285-36.043v-2.614l-86.807,0.003
					c-5.444,2.001-17.778,15.948-30.785,32.788c-4.455,5.767-9.203,15.862-11.964,21.469C10.466,279.941,2.046,298.406,2,323.988
					v41.286h203.16V43.172l115.125-0.063c-2.503,12.387-9.794,31.144-17.778,42.301c-8.717,12.182-23.73,28.088-34.48,36.887
					c-14.991,12.268-41.186,27.383-62.868,26.695v40.468c0,0,13.618,2.65,54.176-13.864c13.714-5.584,34.698-22.533,41.816-28.144
					c7.77-6.124,18.2-17.073,25.621-27.298c13.366-18.414,19.47-25.38,23.789-38.954c0.358-1.121,9.791-21.847,10.354-37.413V2.5
					H164.528V154.333z"/>
				<path fill="#002147" d="M151.195,205.599v-2.614h-0.753H45.614c-0.002,0-0.003,0.003-0.004,0.003l123.657-0.003
					c0.128,0.895-0.138,1.795,0,2.689h-18.424C150.963,205.644,151.076,205.628,151.195,205.599z"/>
				<path fill="#002147" d="M183.404,202.985c0,0-14.764-111.761-15.236-112.413c-6.618-9.139-26.436-41.383-36.484-50
					c-6.77-5.805-24.066-16.479-36.824-22.419c-7.667-3.57-33.352-12.86-36.146-13.371C47.316,2.696,48.122,2.5,31.12,2.5H2v200.485
					H183.404z M42.632,162.229L42.41,43.089c25.978,5.171,49.876,17.888,69.047,37.079c19.076,19.108,34.97,56.156,40.204,82.061
					H42.632z"/>
				<path fill="#002147" d="M248.463,202.985h75.883v121.68c-27.426-4.569-64.663-34.01-82.242-52.855
					c-5.486-5.883-10.808-11.805-15.324-18.272l-0.299,57.929c1.739,1.928,12.599,11.672,14.899,13.728
					c9.815,8.773,31.217,21.56,32.13,22.119c19.883,12.206,38.779,18.186,64.296,18.186H365V148.992h-30.533
					c0,0-18.74,17.677-37.79,30.347C279.328,190.877,248.463,202.985,248.463,202.985z"/>
			</g>
		</g>
	</g>
</g>
</svg>
