<?xml version="1.0" encoding="utf-8"?>
<!-- Generator: Adobe Illustrator 24.1.0, SVG Export Plug-In . SVG Version: 6.00 Build 0)  -->
<svg version="1.1" id="Capa_1" xmlns="http://www.w3.org/2000/svg" xmlns:xlink="http://www.w3.org/1999/xlink" x="0px" y="0px"
	 viewBox="0 0 1304 368" enable-background="new 0 0 1304 368" xml:space="preserve">
<g>
	<g>
		<polygon fill="#752439" points="59.445,223.456 59.445,138.675 148.701,138.675 96.749,84.777 3,84.777 3,179.287 		"/>
		<path fill="#752439" d="M56.904,26.115c0,12.764-10.799,23.113-24.122,23.113c-13.323,0-24.12-10.349-24.12-23.113
			C8.662,13.346,19.46,3,32.783,3C46.105,3,56.904,13.346,56.904,26.115z"/>
		<polygon fill="#752439" points="140.4,63.814 232.459,63.937 232.459,149.463 288.706,99.682 288.706,9.85 197.823,9.85 		"/>
		<path fill="#752439" d="M326.255,49.228c-13.322,0-24.124-10.349-24.124-23.113C302.131,13.346,312.933,3,326.255,3
			c13.323,0,24.12,10.346,24.12,23.115C350.375,38.879,339.578,49.228,326.255,49.228z"/>
		<polygon fill="#752439" points="311.484,141.514 311.356,229.722 222.102,229.724 274.048,283.624 367.802,283.624 
			367.805,196.538 		"/>
		<path fill="#752439" d="M316.631,327.358c0-12.766,10.799-23.114,24.123-23.114c13.32,0,24.123,10.349,24.123,23.114
			c0,12.767-10.803,23.116-24.123,23.116C327.43,350.474,316.631,340.125,316.631,327.358z"/>
		<polygon fill="#752439" points="229.387,304.616 137.332,304.491 137.332,218.964 81.077,268.746 81.077,358.579 171.965,358.582 
					"/>
		<path fill="#752439" d="M35.437,320.772c13.321,0,24.121,10.348,24.121,23.113c0,12.766-10.799,23.115-24.121,23.115
			c-13.324,0-24.125-10.349-24.125-23.115C11.311,331.12,22.113,320.772,35.437,320.772z"/>
	</g>
	<g>
		<g>
			<g>
				<path d="M553.398,164.941c0.298-1.185,0.637-2.281,1.025-3.291c0.384-1.007,0.727-1.926,1.023-2.757l48.017-119.343
					c0.177-0.652,0.668-1.378,1.469-2.178c0.804-0.801,1.884-1.201,3.252-1.201h14.343c1.424,0,2.45,0.356,3.073,1.067
					c0.623,0.711,1.083,1.333,1.381,1.867l2.94,6.936l47.035,117.477c0,0.178,0.044,0.489,0.133,0.934
					c0.089,0.445,0.133,0.816,0.133,1.112c0,1.778-1.307,2.668-3.919,2.668h-17.55c-1.307,0-2.314-0.267-3.027-0.8
					c-0.715-0.534-1.307-1.364-1.781-2.49l-1.605-4.09c-1.129-2.846-2.256-5.691-3.385-8.537c-1.129-2.846-2.227-5.721-3.295-8.627
					h-54.965c-1.544,4.15-3.045,8.049-4.498,11.695c-1.455,3.646-2.687,6.833-3.698,9.56c-0.831,2.194-2.376,3.29-4.631,3.29H557.05
					c-1.129,0-2.034-0.207-2.717-0.622c-0.682-0.414-1.024-1.036-1.024-1.868C553.309,165.386,553.338,165.119,553.398,164.941z
					 M615.4,70.054c-3.206,8.182-6.4,16.66-9.576,25.434c-3.178,8.774-6.369,17.223-9.576,25.344h37.947L615.4,70.054z"/>
				<path d="M696.195,40.351c0-2.786,1.306-4.18,3.919-4.18h54.519c6,0,11.609,1.127,16.838,3.379
					c5.225,2.254,9.783,5.307,13.672,9.159c3.889,3.855,6.949,8.39,9.177,13.607c2.226,5.217,3.34,10.76,3.34,16.63
					c0,4.091-0.565,8.004-1.693,11.738c-1.128,3.735-2.703,7.204-4.721,10.405c-2.019,3.201-4.425,6.091-7.217,8.671
					c-2.791,2.579-5.879,4.758-9.263,6.537l23.16,45.621c0.119,0.593,0.327,1.187,0.623,1.779c0.298,0.593,0.446,1.216,0.446,1.867
					c0,1.778-1.041,2.668-3.119,2.668h-20.667c-2.139,0-3.563-1.096-4.275-3.29l-21.559-42.686c-0.952,0-1.975,0.016-3.074,0.044
					c-1.101,0.03-2.614,0.044-4.542,0.044c-1.931,0-4.454,0-7.572,0c-3.118,0-7.142,0-12.071,0v42.063
					c0,2.549-1.366,3.824-4.099,3.824h-17.905c-1.189,0-2.137-0.312-2.849-0.934c-0.713-0.623-1.07-1.586-1.07-2.891V40.351z
					 M771.291,79.08c0-2.543-0.474-5.014-1.425-7.409c-0.95-2.396-2.287-4.54-4.008-6.433c-1.724-1.893-3.772-3.431-6.148-4.615
					c-2.377-1.183-4.96-1.863-7.749-2.041c-2.079-0.059-4.114-0.103-6.104-0.133c-1.99-0.029-4.052-0.045-6.19-0.045h-17.549v41.263
					h23.518c1.188,0,2.301,0,3.34,0c1.04,0,2.153-0.058,3.34-0.178c2.792-0.178,5.36-0.828,7.708-1.952
					c2.344-1.123,4.348-2.617,6.012-4.482c1.664-1.863,2.955-3.994,3.875-6.389C770.832,84.271,771.291,81.742,771.291,79.08z"/>
				<path d="M902.421,113.006c0-1.185,0.325-2.134,0.979-2.846c0.654-0.711,1.634-1.066,2.94-1.066h14.521
					c1.009,0,1.96,0.355,2.849,1.066c0.892,0.712,1.337,1.661,1.337,2.846v40.819c0,0.712-0.179,1.394-0.534,2.045
					c-0.357,0.653-1.011,1.275-1.959,1.868c-0.06,0-0.09,0.015-0.09,0.044c0,0.03-0.032,0.044-0.09,0.044
					c-2.791,1.957-5.79,3.706-8.997,5.247c-3.207,1.542-6.563,2.832-10.067,3.869c-3.503,1.037-7.097,1.837-10.779,2.4
					c-3.682,0.563-7.363,0.845-11.045,0.845c-6.236,0-12.263-0.8-18.084-2.401c-5.822-1.601-11.239-3.882-16.258-6.847
					c-5.018-2.964-9.59-6.506-13.719-10.628c-4.127-4.119-7.676-8.684-10.644-13.695c-2.971-5.009-5.257-10.404-6.859-16.185
					c-1.605-5.78-2.406-11.812-2.406-18.097c0-6.225,0.801-12.228,2.406-18.009c1.602-5.78,3.888-11.189,6.859-16.229
					c2.968-5.038,6.517-9.634,10.644-13.784c4.129-4.149,8.716-7.706,13.764-10.672c5.047-2.963,10.466-5.26,16.258-6.892
					c5.79-1.629,11.832-2.445,18.127-2.445c4.217,0,8.418,0.372,12.606,1.112c4.187,0.742,8.24,1.854,12.159,3.334
					c1.483,0.594,3.251,1.334,5.302,2.224c2.048,0.889,3.993,1.868,5.834,2.935c1.84,1.067,3.398,2.165,4.676,3.29
					c1.276,1.127,1.915,2.224,1.915,3.291c0,0.475-0.267,1.231-0.801,2.268c-0.535,1.038-1.203,2.209-2.005,3.512
					c-0.803,1.305-1.708,2.655-2.718,4.047c-1.008,1.393-1.99,2.653-2.938,3.779c-0.952,1.128-1.813,2.061-2.583,2.801
					c-0.775,0.743-1.367,1.112-1.782,1.112c-0.357,0-0.788-0.073-1.292-0.222c-0.505-0.147-1.025-0.429-1.56-0.845
					c-3.741-2.608-7.957-4.682-12.649-6.225c-4.691-1.541-9.472-2.313-14.341-2.313c-6.356,0-12.174,1.187-17.461,3.557
					c-5.286,2.372-9.829,5.573-13.629,9.605c-3.801,4.032-6.771,8.701-8.908,14.006c-2.139,5.307-3.207,10.894-3.207,16.764
					c0,6.047,1.143,11.725,3.428,17.03c2.287,5.307,5.376,9.931,9.266,13.873c3.888,3.943,8.446,7.056,13.672,9.337
					c5.227,2.283,10.779,3.423,16.66,3.423c2.196,0,4.363-0.162,6.503-0.488c2.137-0.325,4.141-0.741,6.012-1.245
					c1.871-0.503,3.549-1.067,5.033-1.69c1.485-0.623,2.702-1.229,3.653-1.823V113.006z"/>
				<path d="M947.406,102.336c0-6.225,0.8-12.242,2.404-18.053c1.604-5.81,3.89-11.234,6.858-16.274
					c2.97-5.039,6.518-9.634,10.646-13.784c4.129-4.149,8.716-7.692,13.765-10.627c5.047-2.935,10.466-5.216,16.256-6.848
					c5.792-1.629,11.834-2.445,18.129-2.445c6.236,0,12.248,0.816,18.039,2.445c5.791,1.632,11.209,3.913,16.257,6.848
					c5.047,2.935,9.65,6.478,13.808,10.627c4.156,4.15,7.706,8.746,10.646,13.784c2.938,5.04,5.226,10.464,6.858,16.274
					c1.633,5.811,2.45,11.858,2.45,18.141c0,6.284-0.816,12.303-2.45,18.053c-1.633,5.751-3.92,11.146-6.858,16.185
					c-2.94,5.04-6.49,9.62-10.646,13.74c-4.158,4.122-8.761,7.648-13.808,10.582c-5.048,2.935-10.467,5.202-16.257,6.803
					c-5.791,1.601-11.833,2.401-18.128,2.401c-6.296,0-12.339-0.8-18.13-2.401c-5.79-1.601-11.209-3.882-16.256-6.847
					c-5.048-2.964-9.636-6.506-13.764-10.628c-4.129-4.119-7.661-8.684-10.602-13.695c-2.938-5.009-5.21-10.404-6.814-16.185
					C948.206,114.652,947.406,108.62,947.406,102.336z M973.149,102.158c0,5.988,1.084,11.59,3.253,16.807
					c2.168,5.218,5.137,9.753,8.908,13.606c3.772,3.854,8.225,6.907,13.363,9.16c5.136,2.254,10.704,3.379,16.704,3.379
					c5.937,0,11.476-1.126,16.613-3.379c5.136-2.253,9.605-5.306,13.406-9.16c3.8-3.853,6.785-8.389,8.953-13.606
					c2.169-5.217,3.252-10.819,3.252-16.807c0-5.929-1.083-11.501-3.252-16.72c-2.167-5.216-5.153-9.766-8.953-13.65
					c-3.801-3.882-8.271-6.95-13.406-9.205c-5.138-2.251-10.677-3.378-16.613-3.378c-6,0-11.567,1.127-16.704,3.378
					c-5.138,2.254-9.591,5.323-13.363,9.205c-3.771,3.884-6.74,8.435-8.908,13.65C974.233,90.656,973.149,96.229,973.149,102.158z"
					/>
			</g>
		</g>
		<g>
			<path d="M578.595,201.037c4.623,0,9.059,0.81,13.304,2.428v3.999c-4.34-1.951-8.775-2.928-13.304-2.928
				c-6.294,0-11.469,2.235-15.523,6.703c-4.052,4.373-6.078,9.792-6.078,16.253c0,6.465,2.026,11.859,6.078,16.184
				c4.102,4.516,9.275,6.773,15.523,6.773c3.909,0,7.7-0.712,11.373-2.135v-19.857H577.45v-3.499h16.882v25.563
				c-4.961,2.285-10.205,3.427-15.737,3.427c-7.535,0-13.734-2.499-18.596-7.498c-4.913-5.045-7.368-11.354-7.368-18.921
				c0-7.521,2.456-13.805,7.368-18.851C564.956,203.584,571.156,201.037,578.595,201.037z"/>
			<path d="M620.764,215.175c3.827,0,7.079,1.356,9.759,4.07c2.67,2.667,4.005,5.904,4.005,9.712c0,2.142-0.753,3.855-2.262,5.141
				c-1.505,1.285-3.405,1.928-5.701,1.928h-18.717c0.19,4.121,1.386,7.509,3.585,10.16c2.343,2.843,5.476,4.263,9.397,4.263
				c3.826,0,7.651-0.689,11.479-2.071v3.856c-3.729,1.142-7.557,1.713-11.479,1.713c-5.691,0-10.04-1.856-13.054-5.57
				c-2.862-3.474-4.292-8.068-4.292-13.781c0-5.569,1.358-10.091,4.076-13.566C610.623,217.128,615.024,215.175,620.764,215.175z
				 M630.165,228.957c0-2.571-0.934-4.928-2.797-7.069c-1.866-2.142-4.044-3.213-6.532-3.213c-3.874,0-6.984,1.357-9.327,4.069
				c-2.107,2.524-3.326,5.784-3.659,9.782h18.727c0.958,0,1.794-0.344,2.512-1.035C629.806,230.801,630.165,229.956,630.165,228.957
				z"/>
			<path d="M661.206,220.316c-2.564-1.143-5.294-1.714-8.19-1.714c-5.509,0-8.261,2.07-8.261,6.212c0,2.238,1.591,4.166,4.768,5.783
				l8.966,4.57c3.194,2.19,4.79,4.952,4.79,8.283c0,3.57-1.455,6.309-4.364,8.211c-2.431,1.475-5.316,2.213-8.653,2.213
				c-3.91,0-7.226-0.499-9.943-1.499v-4.212c3.147,1.571,6.365,2.356,9.655,2.356c2.337,0,4.339-0.571,6.01-1.714
				c1.86-1.285,2.789-2.928,2.789-4.927c0-2.522-1.588-4.641-4.765-6.354c-1.473-0.809-2.942-1.571-4.412-2.286
				c-1.473-0.713-2.918-1.499-4.34-2.356c-1.696-0.952-2.929-2.082-3.703-3.392c-0.774-1.309-1.162-2.725-1.162-4.249
				c0-3.474,1.239-6.092,3.72-7.854c2.192-1.523,4.982-2.285,8.368-2.285c3.005,0,5.911,0.499,8.727,1.499V220.316z"/>
			<path d="M683.019,254.09c-1.24,0-2.383-0.203-3.432-0.607c-1.051-0.405-1.967-0.975-2.753-1.714
				c-0.789-0.737-1.41-1.607-1.86-2.606c-0.455-0.999-0.68-2.094-0.68-3.285v-25.919h-7.154v-3.499h7.154v-11.067h4.361v11.067
				h8.798v3.499h-8.798v25.859c0,1.235,0.43,2.34,1.287,3.313c0.861,0.974,1.885,1.46,3.076,1.46c1.67,0,3.482-0.5,5.438-1.499
				v3.642C686.786,253.637,684.975,254.09,683.019,254.09z"/>
			<path d="M695.538,198.181h4.363v4.356h-4.363V198.181z M699.901,216.532v36.202h-4.363v-36.202H699.901z"/>
			<path d="M743.532,234.954c0,5.761-1.457,10.307-4.363,13.639c-3.005,3.57-7.345,5.355-13.019,5.355
				c-5.627,0-10.013-1.928-13.162-5.784c-3.002-3.617-4.505-8.307-4.505-14.066c0-5.616,1.478-10.163,4.435-13.638
				c3.147-3.57,7.534-5.355,13.161-5.355c5.532,0,9.872,1.952,13.019,5.855C742.051,224.624,743.532,229.29,743.532,234.954z
				 M713.275,234.063c0,4.702,1.002,8.502,3.005,11.398c2.287,3.325,5.577,4.987,9.869,4.987c4.339,0,7.582-1.519,9.728-4.56
				c1.908-2.612,2.861-6.269,2.861-10.972c0-4.654-0.977-8.453-2.934-11.399c-2.24-3.276-5.482-4.915-9.727-4.915
				c-4.34,0-7.606,1.497-9.798,4.489C714.277,225.799,713.275,229.456,713.275,234.063z M729.727,198.181h4.363l-6.152,8.997h-3.505
				L729.727,198.181z"/>
			<path d="M751.04,252.805v-33.274c7.745-2.809,13.073-4.213,15.991-4.213c2.007,0,3.847,0.328,5.518,0.984
				c1.674,0.656,3.096,1.573,4.268,2.749c1.172,1.177,2.077,2.598,2.724,4.264c0.644,1.667,0.969,3.499,0.969,5.498v23.992h-4.364
				v-23.992c0-1.428-0.238-2.749-0.714-3.962c-0.479-1.214-1.134-2.273-1.967-3.177c-0.836-0.904-1.836-1.607-3.005-2.107
				c-1.169-0.5-2.467-0.75-3.898-0.75c-3.531,0-7.248,0.928-11.159,2.785v31.203H751.04z"/>
			<path d="M827.247,215.247c3.518,0,6.988,0.619,10.412,1.856v-18.85h4.364v52.624c-4.676,1.999-9.182,2.999-13.521,2.999
				c-5.673,0-10.253-1.88-13.732-5.641c-3.531-3.808-5.293-8.497-5.293-14.067c0-5.569,1.574-10.114,4.721-13.638
				C817.288,217.008,821.638,215.247,827.247,215.247z M827.674,218.746c-4.375,0-7.724,1.499-10.054,4.499
				c-2.233,2.809-3.352,6.45-3.352,10.924c0,4.476,1.331,8.26,3.993,11.353c2.759,3.333,6.322,4.999,10.697,4.999
				c2.472,0,5.373-0.618,8.7-1.856V220.53C834.568,219.341,831.24,218.746,827.674,218.746z"/>
			<path d="M867.525,215.175c3.826,0,7.078,1.356,9.757,4.07c2.671,2.667,4.007,5.904,4.007,9.712c0,2.142-0.755,3.855-2.261,5.141
				c-1.506,1.285-3.405,1.928-5.701,1.928H854.61c0.19,4.121,1.386,7.509,3.584,10.16c2.344,2.843,5.477,4.263,9.398,4.263
				c3.826,0,7.651-0.689,11.477-2.071v3.856c-3.731,1.142-7.558,1.713-11.477,1.713c-5.691,0-10.044-1.856-13.055-5.57
				c-2.862-3.474-4.292-8.068-4.292-13.781c0-5.569,1.359-10.091,4.076-13.566C857.384,217.128,861.786,215.175,867.525,215.175z
				 M876.926,228.957c0-2.571-0.935-4.928-2.8-7.069c-1.866-2.142-4.041-3.213-6.529-3.213c-3.874,0-6.984,1.357-9.33,4.069
				c-2.105,2.524-3.324,5.784-3.657,9.782h18.727c0.958,0,1.794-0.344,2.511-1.035C876.566,230.801,876.926,229.956,876.926,228.957
				z"/>
			<path d="M934.146,253.947c-7.535,0-13.734-2.499-18.597-7.498c-4.912-5.045-7.368-11.354-7.368-18.921
				c0-7.521,2.456-13.805,7.368-18.851c4.958-5.094,11.157-7.641,18.597-7.641c4.147,0,8.058,0.643,11.729,1.928v3.856
				c-3.767-1.523-7.678-2.286-11.729-2.286c-6.294,0-11.469,2.235-15.522,6.703c-4.053,4.373-6.079,9.792-6.079,16.253
				c0,6.465,2.026,11.859,6.079,16.184c4.102,4.516,9.274,6.773,15.522,6.773c4.051,0,7.963-0.737,11.729-2.213v3.856
				C941.917,253.328,938.009,253.947,934.146,253.947z"/>
			<path d="M990.723,234.954c0,5.761-1.454,10.307-4.363,13.639c-3.005,3.57-7.343,5.355-13.018,5.355
				c-5.626,0-10.013-1.928-13.16-5.784c-3.005-3.617-4.506-8.307-4.506-14.066c0-5.616,1.477-10.163,4.435-13.638
				c3.147-3.57,7.534-5.355,13.16-5.355c5.53,0,9.871,1.952,13.018,5.855C989.245,224.624,990.723,229.29,990.723,234.954z
				 M960.467,234.063c0,4.702,1.002,8.502,3.004,11.398c2.29,3.325,5.58,4.987,9.871,4.987c4.339,0,7.582-1.519,9.728-4.56
				c1.906-2.612,2.86-6.269,2.86-10.972c0-4.654-0.977-8.453-2.931-11.399c-2.243-3.276-5.485-4.915-9.728-4.915
				c-4.339,0-7.606,1.497-9.799,4.489C961.469,225.799,960.467,229.456,960.467,234.063z"/>
			<path d="M999.233,252.805v-33.274c7.744-2.809,13.073-4.213,15.991-4.213c2.007,0,3.846,0.328,5.518,0.984
				c1.675,0.656,3.096,1.573,4.268,2.749c1.172,1.177,2.079,2.598,2.724,4.264c0.646,1.667,0.969,3.499,0.969,5.498v23.992h-4.364
				v-23.992c0-1.428-0.238-2.749-0.715-3.962c-0.478-1.214-1.134-2.273-1.967-3.177c-0.835-0.904-1.836-1.607-3.005-2.107
				c-1.169-0.5-2.468-0.75-3.898-0.75c-3.53,0-7.25,0.928-11.159,2.785v31.203H999.233z"/>
			<path d="M1051.59,254.09c-1.241,0-2.385-0.203-3.434-0.607c-1.048-0.405-1.966-0.975-2.753-1.714
				c-0.787-0.737-1.407-1.607-1.86-2.606c-0.455-0.999-0.68-2.094-0.68-3.285v-25.919h-7.151v-3.499h7.151v-11.067h4.364v11.067
				h8.798v3.499h-8.798v25.859c0,1.235,0.43,2.34,1.287,3.313c0.858,0.974,1.883,1.46,3.076,1.46c1.669,0,3.481-0.5,5.435-1.499
				v3.642C1055.357,253.637,1053.545,254.09,1051.59,254.09z"/>
			<path d="M1078.341,218.817c-3.386,0-6.723,0.548-10.014,1.642v32.346h-4.362v-34.571c4.433-1.943,9.369-2.915,14.806-2.915
				c0.524,0,0.976,0,1.359,0c0.381,0,0.69,0.025,0.929,0.071v3.57c-0.668-0.046-1.229-0.082-1.68-0.106
				C1078.925,218.83,1078.578,218.817,1078.341,218.817z"/>
			<path d="M1113.675,249.663c-4.34,2.905-9.347,4.357-15.021,4.357c-3.958,0-7.249-0.977-9.872-2.928
				c-2.528-1.999-3.79-4.57-3.79-7.711c0-3.475,1.502-6.259,4.507-8.354c3.385-2.38,8.32-3.57,14.806-3.57h5.006v-5.041
				c0-2.035-0.762-3.811-2.289-5.325c-1.526-1.562-3.433-2.343-5.722-2.343c-4.388,0-8.416,0.713-12.088,2.142v-3.856
				c3.72-1.189,8.012-1.785,12.875-1.785c3.242,0,5.984,1.071,8.225,3.212c2.242,2.096,3.363,4.738,3.363,7.926V249.663z
				 M1109.311,234.954h-4.576c-5.198,0-9.133,0.9-11.803,2.701c-2.193,1.469-3.29,3.365-3.29,5.686c0,2.037,0.833,3.743,2.503,5.118
				c1.667,1.374,3.933,2.061,6.793,2.061c3.814,0,7.272-0.876,10.372-2.63V234.954z"/>
			<path d="M1136.132,254.09c-1.24,0-2.385-0.203-3.432-0.607c-1.051-0.405-1.968-0.975-2.755-1.714
				c-0.787-0.737-1.408-1.607-1.86-2.606c-0.452-0.999-0.68-2.094-0.68-3.285v-25.919h-7.152v-3.499h7.152v-11.067h4.363v11.067
				h8.798v3.499h-8.798v25.859c0,1.235,0.43,2.34,1.287,3.313c0.86,0.974,1.884,1.46,3.076,1.46c1.67,0,3.48-0.5,5.438-1.499v3.642
				C1139.898,253.637,1138.087,254.09,1136.132,254.09z"/>
			<path d="M1174.399,249.663c-4.34,2.905-9.347,4.357-15.021,4.357c-3.959,0-7.25-0.977-9.872-2.928
				c-2.528-1.999-3.791-4.57-3.791-7.711c0-3.475,1.503-6.259,4.506-8.354c3.386-2.38,8.32-3.57,14.807-3.57h5.005v-5.041
				c0-2.035-0.762-3.811-2.287-5.325c-1.528-1.562-3.434-2.343-5.722-2.343c-4.388,0-8.417,0.713-12.089,2.142v-3.856
				c3.72-1.189,8.012-1.785,12.874-1.785c3.242,0,5.985,1.071,8.227,3.212c2.241,2.096,3.362,4.738,3.362,7.926V249.663z
				 M1170.034,234.954h-4.576c-5.198,0-9.131,0.9-11.802,2.701c-2.194,1.469-3.29,3.365-3.29,5.686c0,2.037,0.833,3.743,2.504,5.118
				c1.668,1.374,3.934,2.061,6.794,2.061c3.814,0,7.272-0.876,10.37-2.63V234.954z"/>
			<path d="M1210.232,252.733c-3.388,0.857-6.652,1.286-9.8,1.286c-5.626,0-10.061-1.857-13.303-5.569
				c-3.101-3.523-4.65-8.116-4.65-13.782c0-5.616,1.549-10.234,4.65-13.852c3.29-3.76,7.725-5.641,13.303-5.641
				c3.243,0,6.51,0.453,9.8,1.356v3.713c-3.147-1.046-6.413-1.571-9.8-1.571c-4.195,0-7.535,1.591-10.013,4.772
				c-2.385,3.04-3.576,6.769-3.576,11.186c0,4.37,1.191,8.075,3.576,11.115c2.478,3.182,5.817,4.773,10.013,4.773
				c3.387,0,6.653-0.5,9.8-1.5V252.733z"/>
			<path d="M1218.027,198.181h4.363v4.356h-4.363V198.181z M1222.391,216.532v36.202h-4.363v-36.202H1222.391z"/>
			<path d="M1266.021,234.954c0,5.761-1.455,10.307-4.364,13.639c-3.004,3.57-7.344,5.355-13.019,5.355
				c-5.625,0-10.012-1.928-13.159-5.784c-3.004-3.617-4.508-8.307-4.508-14.066c0-5.616,1.479-10.163,4.437-13.638
				c3.146-3.57,7.533-5.355,13.16-5.355c5.532,0,9.872,1.952,13.018,5.855C1264.543,224.624,1266.021,229.29,1266.021,234.954z
				 M1235.765,234.063c0,4.702,1.002,8.502,3.004,11.398c2.289,3.325,5.58,4.987,9.87,4.987c4.339,0,7.582-1.519,9.729-4.56
				c1.906-2.612,2.859-6.269,2.859-10.972c0-4.654-0.977-8.453-2.932-11.399c-2.242-3.276-5.484-4.915-9.728-4.915
				c-4.338,0-7.606,1.497-9.799,4.489C1236.767,225.799,1235.765,229.456,1235.765,234.063z M1252.217,198.181h4.363l-6.152,8.997
				h-3.504L1252.217,198.181z"/>
			<path d="M1273.531,252.805v-33.274c7.743-2.809,13.071-4.213,15.989-4.213c2.007,0,3.847,0.328,5.521,0.984
				c1.672,0.656,3.094,1.573,4.266,2.749c1.172,1.177,2.08,2.598,2.724,4.264c0.647,1.667,0.97,3.499,0.97,5.498v23.992h-4.364
				v-23.992c0-1.428-0.239-2.749-0.714-3.962c-0.479-1.214-1.134-2.273-1.967-3.177c-0.834-0.904-1.836-1.607-3.005-2.107
				c-1.169-0.5-2.467-0.75-3.898-0.75c-3.53,0-7.249,0.928-11.158,2.785v31.203H1273.531z"/>
			<path d="M581.527,302.216l-21.03,56.48h-3.791l7.653-20.421l-15.591-36.059h4.791l12.806,30.704l11.443-30.704H581.527z"/>
			<path d="M632.096,339.631c-7.535,0-13.732-2.499-18.596-7.498c-4.913-5.045-7.369-11.353-7.369-18.921
				c0-7.522,2.456-13.805,7.369-18.851c4.959-5.094,11.157-7.641,18.596-7.641c4.149,0,8.059,0.643,11.731,1.928v3.857
				c-3.768-1.523-7.679-2.286-11.731-2.286c-6.294,0-11.469,2.235-15.52,6.703c-4.056,4.373-6.082,9.791-6.082,16.254
				c0,6.464,2.026,11.858,6.082,16.183c4.099,4.516,9.272,6.773,15.52,6.773c4.053,0,7.964-0.737,11.731-2.213v3.856
				C639.867,339.012,635.958,339.631,632.096,339.631z"/>
			<path d="M688.672,320.638c0,5.76-1.454,10.307-4.363,13.638c-3.002,3.57-7.342,5.355-13.017,5.355
				c-5.627,0-10.014-1.928-13.161-5.784c-3.005-3.618-4.506-8.307-4.506-14.067c0-5.616,1.477-10.162,4.435-13.638
				c3.147-3.57,7.534-5.355,13.162-5.355c5.53,0,9.869,1.953,13.016,5.855C687.194,310.309,688.672,314.974,688.672,320.638z
				 M658.417,319.747c0,4.703,1.001,8.502,3.003,11.399c2.29,3.325,5.58,4.987,9.872,4.987c4.339,0,7.582-1.52,9.727-4.559
				c1.907-2.612,2.863-6.269,2.863-10.972c0-4.654-0.979-8.453-2.933-11.399c-2.243-3.276-5.485-4.916-9.727-4.916
				c-4.34,0-7.607,1.496-9.801,4.489C659.418,311.483,658.417,315.14,658.417,319.747z"/>
			<path d="M720.144,338.417v-24.919c0-2.428-0.859-4.545-2.574-6.354c-1.717-1.809-3.768-2.714-6.152-2.714
				c-2.671,0-5.962,0.929-9.872,2.785v31.203h-4.361v-33.273l6.722-2.571c1.575-0.618,3.028-1.046,4.363-1.285
				c1.333-0.237,2.527-0.357,3.578-0.357c3.766,0,6.842,1.285,9.225,3.855c1.05-0.38,2.075-0.785,3.076-1.213
				c1.003-0.429,2.003-0.833,3.005-1.214c1.382-0.523,2.646-0.893,3.791-1.107c1.145-0.214,2.191-0.321,3.147-0.321
				c3.622,0,6.626,1.214,9.011,3.642c2.385,2.381,3.577,5.355,3.577,8.925v24.919h-4.363v-24.919c0-2.428-0.86-4.545-2.575-6.354
				c-1.67-1.809-3.696-2.714-6.081-2.714c-2.386,0-5.864,1.119-10.442,3.357c0.857,1.856,1.288,3.761,1.288,5.712v24.919H720.144z"
				/>
			<path d="M757.336,358.74v-54.955c4.626-1.951,9.537-2.925,14.736-2.925c5.577,0,9.987,1.785,13.229,5.355
				c3.052,3.381,4.58,7.926,4.58,13.639c0,5.569-1.742,10.234-5.223,13.995c-3.612,3.809-8.226,5.712-13.831,5.712
				c-1.57,0-3.115-0.122-4.638-0.364c-1.52-0.245-3.017-0.583-4.491-1.021v20.565H757.336z M771.683,304.358
				c-3.375,0-6.704,0.547-9.984,1.639v28.284c3.375,1.186,6.274,1.78,8.7,1.78c4.374,0,7.964-1.638,10.769-4.915
				c2.613-3.087,3.921-6.862,3.921-11.328c0-4.559-1.095-8.216-3.28-10.972C779.383,305.854,776.009,304.358,771.683,304.358z"/>
			<path d="M813.414,304.501c-3.388,0-6.724,0.547-10.014,1.642v32.346h-4.364v-34.572c4.435-1.943,9.371-2.914,14.806-2.914
				c0.524,0,0.977,0,1.36,0c0.38,0,0.691,0.024,0.929,0.071v3.57c-0.668-0.047-1.229-0.083-1.682-0.108
				C813.997,304.513,813.65,304.501,813.414,304.501z"/>
			<path d="M848.745,335.347c-4.338,2.904-9.345,4.355-15.018,4.355c-3.961,0-7.251-0.976-9.872-2.928
				c-2.528-1.999-3.791-4.569-3.791-7.711c0-3.475,1.503-6.259,4.506-8.355c3.387-2.379,8.321-3.57,14.808-3.57h5.007v-5.042
				c0-2.035-0.765-3.81-2.289-5.326c-1.526-1.561-3.436-2.343-5.722-2.343c-4.388,0-8.417,0.714-12.088,2.143v-3.856
				c3.72-1.189,8.009-1.785,12.873-1.785c3.242,0,5.984,1.07,8.226,3.213c2.241,2.096,3.361,4.737,3.361,7.926V335.347z
				 M844.384,320.638h-4.579c-5.197,0-9.131,0.9-11.8,2.701c-2.195,1.469-3.291,3.365-3.291,5.687c0,2.036,0.835,3.743,2.502,5.118
				c1.669,1.375,3.935,2.061,6.795,2.061c3.814,0,7.272-0.876,10.373-2.63V320.638z"/>
			<path d="M877.642,306c-2.564-1.142-5.294-1.713-8.19-1.713c-5.508,0-8.261,2.07-8.261,6.212c0,2.239,1.587,4.167,4.768,5.784
				l8.966,4.57c3.194,2.19,4.79,4.951,4.79,8.283c0,3.57-1.455,6.308-4.364,8.211c-2.433,1.475-5.316,2.214-8.653,2.214
				c-3.913,0-7.226-0.5-9.943-1.499v-4.213c3.147,1.571,6.366,2.356,9.655,2.356c2.337,0,4.339-0.571,6.01-1.714
				c1.859-1.285,2.789-2.928,2.789-4.927c0-2.523-1.588-4.641-4.767-6.355c-1.471-0.808-2.941-1.57-4.411-2.285
				c-1.473-0.714-2.918-1.499-4.34-2.356c-1.695-0.952-2.929-2.082-3.703-3.392c-0.775-1.309-1.162-2.725-1.162-4.249
				c0-3.475,1.239-6.093,3.72-7.854c2.191-1.523,4.982-2.285,8.368-2.285c3.005,0,5.913,0.5,8.727,1.5V306z"/>
		</g>
	</g>
</g>
</svg>
