<?xml version="1.0" encoding="utf-8"?>
<!-- Generator: Adobe Illustrator 24.1.0, SVG Export Plug-In . SVG Version: 6.00 Build 0)  -->
<svg version="1.1" id="Capa_1" xmlns="http://www.w3.org/2000/svg" xmlns:xlink="http://www.w3.org/1999/xlink" x="0px" y="0px"
	 viewBox="0 0 1304 368" enable-background="new 0 0 1304 368" xml:space="preserve">
<g>
	<g>
		<polygon fill="#991C1A" points="3,56.891 89.947,4.5 180.675,56.891 93.728,109.284 93.728,210.325 3,161.675 		"/>
		<polygon fill="#991C1A" points="271.404,4.5 180.675,56.891 271.404,105.541 271.404,210.325 365.914,157.933 365.914,56.891 		
			"/>
		<polygon fill="#991C1A" points="180.675,262.718 271.404,210.325 271.365,317.41 188.236,367.5 93.728,315.108 93.728,210.325 		
			"/>
	</g>
	<g>
		<g>
			<path d="M507.56,261.839c5.576,0,10.922,0.982,16.039,2.943v4.847c-5.231-2.366-10.579-3.549-16.039-3.549
				c-7.587,0-13.826,2.709-18.712,8.125c-4.885,5.302-7.328,11.869-7.328,19.704c0,7.837,2.443,14.375,7.328,19.618
				c4.943,5.475,11.181,8.211,18.712,8.211c4.712,0,9.284-0.863,13.71-2.588v-24.072h-15.089v-4.242h20.35v30.988
				c-5.979,2.771-12.304,4.155-18.971,4.155c-9.083,0-16.555-3.029-22.418-9.089c-5.922-6.115-8.882-13.762-8.882-22.938
				c0-9.117,2.96-16.734,8.882-22.852C491.12,264.927,498.594,261.839,507.56,261.839z"/>
			<path d="M558.398,278.977c4.614,0,8.534,1.645,11.764,4.934c3.219,3.233,4.828,7.156,4.828,11.772
				c0,2.597-0.907,4.674-2.724,6.232c-1.816,1.558-4.107,2.338-6.872,2.338h-22.567c0.231,4.995,1.672,9.102,4.323,12.316
				c2.826,3.446,6.603,5.168,11.33,5.168c4.612,0,9.225-0.836,13.838-2.51v4.674c-4.498,1.386-9.111,2.078-13.838,2.078
				c-6.86,0-12.107-2.25-15.739-6.751c-3.448-4.212-5.174-9.781-5.174-16.706c0-6.752,1.64-12.233,4.916-16.447
				C546.173,281.343,551.479,278.977,558.398,278.977z M569.731,295.683c0-3.115-1.126-5.972-3.373-8.569
				c-2.251-2.597-4.874-3.896-7.872-3.896c-4.671,0-8.419,1.645-11.247,4.934c-2.539,3.06-4.009,7.012-4.411,11.858h22.579
				c1.153,0,2.163-0.417,3.027-1.255C569.298,297.92,569.731,296.894,569.731,295.683z"/>
			<path d="M607.153,285.21c-3.091-1.385-6.382-2.078-9.873-2.078c-6.639,0-9.959,2.51-9.959,7.531c0,2.713,1.917,5.05,5.748,7.011
				l10.808,5.54c3.851,2.655,5.778,6.002,5.778,10.041c0,4.328-1.755,7.647-5.262,9.954c-2.931,1.788-6.41,2.684-10.433,2.684
				c-4.714,0-8.71-0.606-11.986-1.818v-5.107c3.794,1.905,7.674,2.857,11.641,2.857c2.817,0,5.232-0.692,7.244-2.077
				c2.241-1.558,3.362-3.549,3.362-5.972c0-3.059-1.916-5.627-5.747-7.704c-1.773-0.981-3.546-1.904-5.319-2.77
				c-1.773-0.865-3.517-1.818-5.232-2.856c-2.043-1.154-3.53-2.524-4.465-4.112c-0.932-1.587-1.399-3.303-1.399-5.151
				c0-4.211,1.496-7.386,4.484-9.521c2.643-1.846,6.007-2.77,10.089-2.77c3.622,0,7.128,0.607,10.52,1.818V285.21z"/>
			<path d="M633.452,326.152c-1.496,0-2.875-0.246-4.139-0.736c-1.265-0.49-2.372-1.182-3.321-2.077
				c-0.948-0.894-1.696-1.948-2.241-3.16c-0.548-1.212-0.819-2.538-0.819-3.982v-31.421h-8.623v-4.241h8.623v-13.416h5.26v13.416
				h10.606v4.241h-10.606v31.348c0,1.498,0.517,2.836,1.551,4.016c1.035,1.18,2.271,1.77,3.709,1.77c2.01,0,4.196-0.606,6.553-1.818
				v4.414C637.992,325.603,635.808,326.152,633.452,326.152z"/>
			<path d="M648.541,258.376h5.26v5.28h-5.26V258.376z M653.801,280.622v43.885h-5.26v-43.885H653.801z"/>
			<path d="M706.399,302.954c0,6.983-1.755,12.495-5.26,16.534c-3.622,4.327-8.853,6.491-15.694,6.491
				c-6.784,0-12.071-2.337-15.865-7.012c-3.623-4.384-5.432-10.069-5.432-17.052c0-6.808,1.78-12.32,5.345-16.533
				c3.795-4.328,9.082-6.492,15.866-6.492c6.668,0,11.9,2.367,15.694,7.098C704.616,290.432,706.399,296.088,706.399,302.954z
				 M669.925,301.874c0,5.701,1.208,10.307,3.621,13.818c2.76,4.03,6.727,6.045,11.899,6.045c5.23,0,9.141-1.842,11.729-5.528
				c2.297-3.167,3.448-7.6,3.448-13.3c0-5.643-1.179-10.248-3.535-13.818c-2.704-3.973-6.612-5.96-11.728-5.96
				c-5.23,0-9.169,1.814-11.813,5.441C671.133,291.856,669.925,296.289,669.925,301.874z M689.757,258.376h5.26l-7.415,10.906
				h-4.225L689.757,258.376z"/>
			<path d="M715.454,324.594v-40.337c9.333-3.404,15.759-5.108,19.276-5.108c2.419,0,4.637,0.398,6.654,1.193
				c2.016,0.795,3.732,1.907,5.143,3.333c1.413,1.427,2.506,3.15,3.285,5.169c0.778,2.02,1.166,4.241,1.166,6.664v29.085h-5.259
				v-29.085c0-1.73-0.288-3.333-0.862-4.803c-0.575-1.472-1.366-2.756-2.371-3.852c-1.007-1.097-2.213-1.948-3.622-2.553
				c-1.408-0.606-2.973-0.91-4.699-0.91c-4.255,0-8.739,1.125-13.451,3.376v37.827H715.454z"/>
			<path d="M807.322,279.063c4.242,0,8.424,0.751,12.552,2.251v-22.852h5.259v63.794c-5.634,2.424-11.066,3.636-16.296,3.636
				c-6.842,0-12.361-2.279-16.556-6.839c-4.254-4.616-6.382-10.3-6.382-17.052c0-6.752,1.898-12.262,5.691-16.534
				C795.315,281.199,800.56,279.063,807.322,279.063z M807.838,283.306c-5.272,0-9.313,1.816-12.12,5.452
				c-2.694,3.406-4.041,7.82-4.041,13.244s1.605,10.012,4.814,13.762c3.323,4.04,7.622,6.059,12.896,6.059
				c2.98,0,6.475-0.749,10.487-2.25v-34.105C816.149,284.027,812.137,283.306,807.838,283.306z"/>
			<path d="M855.88,278.977c4.614,0,8.534,1.645,11.763,4.934c3.219,3.233,4.829,7.156,4.829,11.772
				c0,2.597-0.908,4.674-2.724,6.232c-1.816,1.558-4.107,2.338-6.872,2.338H840.31c0.231,4.995,1.672,9.102,4.324,12.316
				c2.825,3.446,6.601,5.168,11.329,5.168c4.612,0,9.223-0.836,13.838-2.51v4.674c-4.498,1.386-9.112,2.078-13.838,2.078
				c-6.86,0-12.106-2.25-15.739-6.751c-3.449-4.212-5.174-9.781-5.174-16.706c0-6.752,1.638-12.233,4.916-16.447
				C843.655,281.343,848.96,278.977,855.88,278.977z M867.213,295.683c0-3.115-1.125-5.972-3.374-8.569
				c-2.25-2.597-4.873-3.896-7.872-3.896c-4.673,0-8.419,1.645-11.246,4.934c-2.539,3.06-4.009,7.012-4.412,11.858h22.579
				c1.154,0,2.162-0.417,3.027-1.255C866.781,297.92,867.213,296.894,867.213,295.683z"/>
			<path d="M912.222,263.483v61.024h-5.26v-61.024H912.222z"/>
			<path d="M925.932,324.594v-40.337c9.334-3.404,15.76-5.108,19.275-5.108c2.419,0,4.639,0.398,6.655,1.193
				c2.017,0.795,3.732,1.907,5.143,3.333c1.412,1.427,2.506,3.15,3.285,5.169c0.777,2.02,1.167,4.241,1.167,6.664v29.085h-5.26
				v-29.085c0-1.73-0.288-3.333-0.863-4.803c-0.574-1.472-1.366-2.756-2.371-3.852c-1.007-1.097-2.214-1.948-3.622-2.553
				c-1.408-0.606-2.975-0.91-4.699-0.91c-4.255,0-8.739,1.125-13.453,3.376v37.827H925.932z"/>
			<path d="M974.65,280.622l14.659,37.913l13.538-37.913h4.484l-15.78,43.885h-5.691l-16.815-43.885H974.65z"/>
			<path d="M1032.472,278.977c4.614,0,8.533,1.645,11.763,4.934c3.221,3.233,4.829,7.156,4.829,11.772
				c0,2.597-0.907,4.674-2.724,6.232c-1.816,1.558-4.107,2.338-6.873,2.338h-22.567c0.231,4.995,1.673,9.102,4.324,12.316
				c2.826,3.446,6.603,5.168,11.33,5.168c4.612,0,9.225-0.836,13.838-2.51v4.674c-4.498,1.386-9.11,2.078-13.838,2.078
				c-6.86,0-12.107-2.25-15.739-6.751c-3.449-4.212-5.174-9.781-5.174-16.706c0-6.752,1.639-12.233,4.916-16.447
				C1020.247,281.343,1025.552,278.977,1032.472,278.977z M1043.805,295.683c0-3.115-1.126-5.972-3.374-8.569
				c-2.25-2.597-4.873-3.896-7.872-3.896c-4.671,0-8.419,1.645-11.247,4.934c-2.539,3.06-4.009,7.012-4.412,11.858h22.579
				c1.154,0,2.163-0.417,3.028-1.255C1043.372,297.92,1043.805,296.894,1043.805,295.683z"/>
			<path d="M1059.411,324.594v-40.337c9.334-3.404,15.759-5.108,19.276-5.108c2.419,0,4.638,0.398,6.654,1.193
				c2.017,0.795,3.732,1.907,5.144,3.333c1.413,1.427,2.506,3.15,3.285,5.169c0.778,2.02,1.166,4.241,1.166,6.664v29.085h-5.258
				v-29.085c0-1.73-0.288-3.333-0.862-4.803c-0.576-1.472-1.367-2.756-2.372-3.852c-1.007-1.097-2.212-1.948-3.622-2.553
				c-1.41-0.606-2.975-0.91-4.699-0.91c-4.255,0-8.739,1.125-13.452,3.376v37.827H1059.411z"/>
			<path d="M1122.529,326.152c-1.496,0-2.876-0.246-4.14-0.736c-1.264-0.49-2.371-1.182-3.319-2.077
				c-0.948-0.894-1.695-1.948-2.242-3.16c-0.546-1.212-0.819-2.538-0.819-3.982v-31.421h-8.623v-4.241h8.623v-13.416h5.26v13.416
				h10.606v4.241h-10.606v31.348c0,1.498,0.517,2.836,1.552,4.016c1.035,1.18,2.271,1.77,3.708,1.77
				c2.012,0,4.194-0.606,6.553-1.818v4.414C1127.069,325.603,1124.885,326.152,1122.529,326.152z"/>
			<path d="M1168.661,320.785c-5.232,3.521-11.267,5.279-18.107,5.279c-4.773,0-8.739-1.183-11.9-3.549
				c-3.048-2.423-4.57-5.539-4.57-9.348c0-4.212,1.812-7.587,5.433-10.127c4.081-2.885,10.031-4.328,17.85-4.328h6.035V292.6
				c0-2.467-0.919-4.619-2.758-6.455c-1.841-1.893-4.14-2.84-6.899-2.84c-5.288,0-10.146,0.865-14.572,2.596v-4.675
				c4.484-1.441,9.657-2.164,15.52-2.164c3.91,0,7.214,1.298,9.917,3.896c2.701,2.54,4.053,5.742,4.053,9.608V320.785z
				 M1163.4,302.954h-5.518c-6.266,0-11.01,1.092-14.228,3.275c-2.645,1.781-3.967,4.079-3.967,6.894
				c0,2.469,1.005,4.537,3.019,6.204c2.011,1.666,4.742,2.498,8.19,2.498c4.6,0,8.766-1.061,12.503-3.188V302.954z"/>
			<path d="M1199.01,283.391c-4.081,0-8.104,0.664-12.071,1.991v39.212h-5.26v-41.91c5.347-2.356,11.296-3.534,17.85-3.534
				c0.631,0,1.178,0,1.638,0c0.459,0,0.833,0.03,1.122,0.087v4.327c-0.807-0.056-1.481-0.1-2.027-0.129
				C1199.715,283.406,1199.299,283.391,1199.01,283.391z"/>
			<path d="M1210.565,258.376h5.261v5.28h-5.261V258.376z M1215.826,280.622v43.885h-5.261v-43.885H1215.826z"/>
			<path d="M1268.423,302.954c0,6.983-1.755,12.495-5.259,16.534c-3.623,4.327-8.854,6.491-15.694,6.491
				c-6.785,0-12.072-2.337-15.866-7.012c-3.622-4.384-5.433-10.069-5.433-17.052c0-6.808,1.782-12.32,5.347-16.533
				c3.793-4.328,9.082-6.492,15.866-6.492c6.668,0,11.899,2.367,15.693,7.098C1266.641,290.432,1268.423,296.088,1268.423,302.954z
				 M1231.948,301.874c0,5.701,1.208,10.307,3.623,13.818c2.758,4.03,6.725,6.045,11.899,6.045c5.229,0,9.14-1.842,11.726-5.528
				c2.299-3.167,3.45-7.6,3.45-13.3c0-5.643-1.179-10.248-3.536-13.818c-2.702-3.973-6.611-5.96-11.727-5.96
				c-5.232,0-9.17,1.814-11.813,5.441C1233.155,291.856,1231.948,296.289,1231.948,301.874z"/>
			<path d="M1300.5,285.21c-3.09-1.385-6.382-2.078-9.873-2.078c-6.641,0-9.96,2.51-9.96,7.531c0,2.713,1.916,5.05,5.748,7.011
				l10.808,5.54c3.851,2.655,5.777,6.002,5.777,10.041c0,4.328-1.753,7.647-5.26,9.954c-2.932,1.788-6.409,2.684-10.433,2.684
				c-4.715,0-8.709-0.606-11.986-1.818v-5.107c3.792,1.905,7.674,2.857,11.641,2.857c2.815,0,5.229-0.692,7.243-2.077
				c2.242-1.558,3.363-3.549,3.363-5.972c0-3.059-1.916-5.627-5.747-7.704c-1.772-0.981-3.546-1.904-5.319-2.77
				c-1.772-0.865-3.516-1.818-5.231-2.856c-2.042-1.154-3.531-2.524-4.463-4.112c-0.934-1.587-1.4-3.303-1.4-5.151
				c0-4.211,1.494-7.386,4.484-9.521c2.643-1.846,6.006-2.77,10.089-2.77c3.622,0,7.127,0.607,10.519,1.818V285.21z"/>
		</g>
	</g>
	<g>
		<g>
			<path d="M476.93,194.256c0.343-1.38,0.738-2.656,1.185-3.831c0.447-1.173,0.842-2.242,1.186-3.21l55.594-138.948
				c0.207-0.759,0.773-1.605,1.703-2.537c0.928-0.932,2.181-1.397,3.764-1.397h16.607c1.649,0,2.836,0.414,3.557,1.243
				c0.722,0.828,1.254,1.552,1.599,2.174l3.404,8.076L619.989,192.6c0,0.206,0.051,0.569,0.154,1.086
				c0.102,0.518,0.154,0.95,0.154,1.294c0,2.071-1.513,3.106-4.539,3.106H595.44c-1.513,0-2.682-0.311-3.506-0.931
				c-0.826-0.622-1.515-1.588-2.063-2.899l-1.856-4.763c-1.308-3.313-2.615-6.626-3.921-9.939c-1.307-3.314-2.579-6.66-3.816-10.044
				H516.64c-1.789,4.832-3.524,9.371-5.208,13.616c-1.687,4.244-3.113,7.956-4.281,11.13c-0.963,2.555-2.751,3.831-5.363,3.831
				h-20.629c-1.307,0-2.355-0.241-3.145-0.725c-0.792-0.483-1.187-1.207-1.187-2.174
				C476.826,194.773,476.861,194.463,476.93,194.256z M548.717,83.78c-3.713,9.526-7.411,19.397-11.088,29.612
				c-3.679,10.216-7.374,20.052-11.087,29.509h43.939L548.717,83.78z"/>
			<path d="M642.264,49.199c0-3.244,1.513-4.867,4.538-4.867h63.124c6.944,0,13.443,1.312,19.493,3.934
				c6.05,2.624,11.328,6.178,15.832,10.665c4.504,4.488,8.046,9.767,10.625,15.841c2.578,6.075,3.867,12.528,3.867,19.362
				c0,4.763-0.654,9.318-1.958,13.666c-1.307,4.348-3.13,8.387-5.468,12.115c-2.338,3.728-5.123,7.092-8.354,10.095
				c-3.233,3.003-6.806,5.539-10.727,7.61l26.818,53.115c0.137,0.691,0.376,1.381,0.722,2.071c0.342,0.691,0.516,1.416,0.516,2.174
				c0,2.071-1.204,3.106-3.611,3.106h-23.929c-2.476,0-4.125-1.276-4.951-3.831l-24.961-49.699c-1.101,0-2.286,0.018-3.558,0.052
				c-1.274,0.036-3.026,0.052-5.26,0.052c-2.234,0-5.157,0-8.768,0c-3.609,0-8.269,0-13.976,0v48.973
				c0,2.968-1.582,4.452-4.744,4.452h-20.733c-1.376,0-2.476-0.362-3.3-1.087c-0.825-0.725-1.239-1.846-1.239-3.365V49.199z
				 M729.213,94.289c0-2.961-0.551-5.836-1.649-8.626c-1.101-2.79-2.648-5.287-4.642-7.491c-1.995-2.203-4.368-3.994-7.117-5.372
				c-2.75-1.377-5.743-2.169-8.973-2.376c-2.409-0.068-4.764-0.12-7.065-0.156c-2.305-0.034-4.693-0.051-7.169-0.051h-20.319v48.042
				h27.23c1.375,0,2.664,0,3.868,0c1.202,0,2.491-0.068,3.868-0.207c3.232-0.207,6.205-0.965,8.922-2.273
				c2.716-1.307,5.036-3.046,6.961-5.218c1.926-2.17,3.421-4.649,4.488-7.438C728.68,100.333,729.213,97.389,729.213,94.289z"/>
			<path d="M785.734,48.888c0-1.243,0.396-2.312,1.186-3.21c0.79-0.896,1.908-1.345,3.352-1.345h20.938
				c0.481,0,1.014,0.103,1.6,0.311c0.583,0.207,1.116,0.517,1.598,0.932c0.48,0.414,0.894,0.897,1.237,1.449
				c0.343,0.553,0.517,1.175,0.517,1.864v61.502l57.862-62.847c1.375-2.139,2.889-3.21,4.539-3.21h29.499
				c1.857,0,2.785,0.414,2.785,1.243c0,0.553-0.412,1.278-1.238,2.174l-54.459,63.677l63.536,82.52
				c1.031,1.382,1.547,2.382,1.547,3.003c0,0.761-0.722,1.139-2.166,1.139H886.71c-1.649,0-3.164-1.069-4.537-3.209l-48.477-62.019
				l-17.534,18.222v42.451c0,3.039-1.651,4.556-4.952,4.556h-20.938c-3.025,0-4.538-1.517-4.538-4.556V48.888z"/>
			<path d="M929.824,194.256c0.343-1.38,0.738-2.656,1.186-3.831c0.447-1.173,0.842-2.242,1.187-3.21l55.594-138.948
				c0.206-0.759,0.773-1.605,1.701-2.537c0.929-0.932,2.183-1.397,3.765-1.397h16.606c1.651,0,2.837,0.414,3.559,1.243
				c0.722,0.828,1.253,1.552,1.598,2.174l3.405,8.076l54.459,136.775c0,0.206,0.052,0.569,0.155,1.086
				c0.104,0.518,0.154,0.95,0.154,1.294c0,2.071-1.513,3.106-4.538,3.106h-20.32c-1.513,0-2.681-0.311-3.506-0.931
				c-0.825-0.622-1.513-1.588-2.063-2.899l-1.856-4.763c-1.307-3.313-2.614-6.626-3.918-9.939c-1.307-3.314-2.579-6.66-3.816-10.044
				h-63.639c-1.789,4.832-3.525,9.371-5.208,13.616c-1.686,4.244-3.112,7.956-4.28,11.13c-0.964,2.555-2.751,3.831-5.364,3.831
				h-20.628c-1.307,0-2.356-0.241-3.146-0.725c-0.79-0.483-1.185-1.207-1.185-2.174
				C929.721,194.773,929.754,194.463,929.824,194.256z M1001.61,83.78c-3.713,9.526-7.409,19.397-11.086,29.612
				c-3.681,10.216-7.376,20.052-11.089,29.509h43.94L1001.61,83.78z"/>
		</g>
	</g>
</g>
</svg>
