<?xml version="1.0" encoding="utf-8"?>
<!-- Generator: Adobe Illustrator 24.1.0, SVG Export Plug-In . SVG Version: 6.00 Build 0)  -->
<svg version="1.1" id="Capa_1" xmlns="http://www.w3.org/2000/svg" xmlns:xlink="http://www.w3.org/1999/xlink" x="0px" y="0px"
	 viewBox="0 0 1304 368" style="enable-background:new 0 0 1304 368;" xml:space="preserve">
<style type="text/css">
	.st0{fill:#090609;}
	.st1{fill:#0C3249;}
	.st2{fill:#920804;}
	.st3{fill:#D48418;}
	.st4{fill:none;stroke:#326292;stroke-miterlimit:10;}
</style>
<g>
	<g>
		<g>
			<path class="st0" d="M470.3,250.7c6.7,0,13.2,1.2,19.3,3.5v5.8c-6.3-2.8-12.7-4.3-19.3-4.3c-9.1,0-16.7,3.3-22.5,9.8
				c-5.9,6.4-8.8,14.2-8.8,23.6c0,9.4,2.9,17.3,8.8,23.5c6,6.6,13.5,9.9,22.5,9.9c5.7,0,11.2-1,16.5-3.1v-28.9h-18.2v-5.1h24.5v37.2
				c-7.2,3.3-14.8,5-22.9,5c-10.9,0-19.9-3.6-27-10.9c-7.1-7.3-10.7-16.5-10.7-27.5c0-10.9,3.6-20.1,10.7-27.4
				C450.5,254.4,459.5,250.7,470.3,250.7z"/>
			<path class="st0" d="M531.5,271.2c5.6,0,10.3,2,14.2,5.9c3.9,3.9,5.8,8.6,5.8,14.1c0,3.1-1.1,5.6-3.3,7.5
				c-2.2,1.9-4.9,2.8-8.3,2.8h-27.2c0.3,6,2,10.9,5.2,14.8c3.4,4.1,8,6.2,13.6,6.2c5.6,0,11.1-1,16.7-3v5.6
				c-5.4,1.7-11,2.5-16.7,2.5c-8.3,0-14.6-2.7-19-8.1c-4.2-5.1-6.2-11.7-6.2-20c0-8.1,2-14.7,5.9-19.7
				C516.8,274.1,523.2,271.2,531.5,271.2z M545.2,291.3c0-3.7-1.4-7.2-4.1-10.3c-2.7-3.1-5.9-4.7-9.5-4.7c-5.6,0-10.1,2-13.5,5.9
				c-3.1,3.7-4.8,8.4-5.3,14.2H540c1.4,0,2.6-0.5,3.6-1.5C544.7,294,545.2,292.8,545.2,291.3z"/>
			<path class="st0" d="M590.3,278.7c-3.7-1.7-7.7-2.5-11.9-2.5c-8,0-12,3-12,9c0,3.3,2.3,6.1,6.9,8.4l13,6.6c4.6,3.2,7,7.2,7,12
				c0,5.2-2.1,9.2-6.3,11.9c-3.5,2.1-7.7,3.2-12.6,3.2c-5.7,0-10.5-0.7-14.4-2.2v-6.1c4.6,2.3,9.2,3.4,14,3.4c3.4,0,6.3-0.8,8.7-2.5
				c2.7-1.9,4.1-4.3,4.1-7.2c0-3.7-2.3-6.8-6.9-9.2c-2.1-1.2-4.3-2.3-6.4-3.3c-2.1-1-4.2-2.2-6.3-3.4c-2.5-1.4-4.3-3-5.4-4.9
				c-1.1-1.9-1.7-4-1.7-6.2c0-5.1,1.8-8.9,5.4-11.4c3.2-2.2,7.2-3.3,12.2-3.3c4.4,0,8.6,0.7,12.7,2.2L590.3,278.7L590.3,278.7z"/>
			<path class="st0" d="M622,327.9c-1.8,0-3.5-0.3-5-0.9c-1.5-0.6-2.9-1.4-4-2.5c-1.1-1.1-2-2.3-2.7-3.8c-0.7-1.5-1-3-1-4.8v-37.7
				h-10.4v-5.1h10.4V257h6.3v16.1h12.8v5.1h-12.8v37.6c0,1.8,0.6,3.4,1.9,4.8c1.2,1.4,2.7,2.1,4.5,2.1c2.4,0,5.1-0.7,7.9-2.2v5.3
				C627.4,327.2,624.8,327.9,622,327.9z"/>
			<path class="st0" d="M640.1,246.5h6.3v6.3h-6.3V246.5z M646.5,273.2v52.7h-6.3v-52.7H646.5z"/>
			<path class="st0" d="M709.8,300c0,8.4-2.1,15-6.3,19.8c-4.4,5.2-10.7,7.8-18.9,7.8c-8.2,0-14.5-2.8-19.1-8.4
				c-4.4-5.3-6.5-12.1-6.5-20.5c0-8.2,2.1-14.8,6.4-19.8c4.6-5.2,10.9-7.8,19.1-7.8c8,0,14.3,2.8,18.9,8.5
				C707.7,285,709.8,291.8,709.8,300z M665.9,298.7c0,6.8,1.5,12.4,4.4,16.6c3.3,4.8,8.1,7.3,14.3,7.3c6.3,0,11-2.2,14.1-6.6
				c2.8-3.8,4.2-9.1,4.2-16c0-6.8-1.4-12.3-4.3-16.6c-3.3-4.8-8-7.2-14.1-7.2c-6.3,0-11,2.2-14.2,6.5
				C667.4,286.7,665.9,292,665.9,298.7z M689.8,246.5h6.3l-8.9,13.1h-5.1L689.8,246.5z"/>
			<path class="st0" d="M720.8,326v-48.4c11.2-4.1,19-6.1,23.2-6.1c2.9,0,5.6,0.5,8,1.4c2.4,1,4.5,2.3,6.2,4c1.7,1.7,3,3.8,4,6.2
				c0.9,2.4,1.4,5.1,1.4,8V326h-6.3v-34.9c0-2.1-0.3-4-1-5.8c-0.7-1.8-1.6-3.3-2.9-4.6c-1.2-1.3-2.7-2.3-4.4-3.1
				c-1.7-0.7-3.6-1.1-5.7-1.1c-5.1,0-10.5,1.4-16.2,4.1V326L720.8,326L720.8,326z"/>
			<path class="st0" d="M802.7,325.8l29.6-73.2h8.3l28.8,73.2h-6.8l-7.6-19.1h-37.8l-7.7,19.1H802.7z M853.1,301.6l-16.6-42.3
				l-17.1,42.3H853.1z"/>
			<path class="st0" d="M916.5,325.9c-4.9,1.2-9.7,1.9-14.2,1.9c-8.2,0-14.6-2.7-19.3-8.1c-4.5-5.1-6.8-11.8-6.8-20
				c0-8.2,2.3-14.9,6.8-20.2c4.8-5.5,11.2-8.2,19.3-8.2c4.7,0,9.5,0.7,14.2,2v5.4c-4.6-1.5-9.3-2.3-14.2-2.3
				c-6.1,0-10.9,2.3-14.5,6.9c-3.5,4.4-5.2,9.8-5.2,16.3c0,6.4,1.7,11.7,5.2,16.2c3.6,4.6,8.4,6.9,14.5,6.9c4.9,0,9.7-0.7,14.2-2.2
				V325.9z"/>
			<path class="st0" d="M965.2,321.4c-6.3,4.2-13.6,6.3-21.8,6.3c-5.7,0-10.5-1.4-14.3-4.3c-3.7-2.9-5.5-6.6-5.5-11.2
				c0-5.1,2.2-9.1,6.5-12.2c4.9-3.5,12.1-5.2,21.5-5.2h7.3v-7.3c0-3-1.1-5.5-3.3-7.7c-2.2-2.3-5-3.4-8.3-3.4c-6.4,0-12.2,1-17.6,3.1
				V274c5.4-1.7,11.6-2.6,18.7-2.6c4.7,0,8.7,1.6,11.9,4.7c3.3,3,4.9,6.9,4.9,11.5L965.2,321.4L965.2,321.4z M958.8,300h-6.6
				c-7.5,0-13.3,1.3-17.1,3.9c-3.2,2.1-4.8,4.9-4.8,8.3c0,3,1.2,5.4,3.6,7.4c2.4,2,5.7,3,9.9,3c5.5,0,10.6-1.3,15.1-3.8L958.8,300
				L958.8,300z"/>
			<path class="st0" d="M1003.6,271.4c5.1,0,10.1,0.9,15.1,2.7v-27.4h6.3v76.6c-6.8,2.9-13.3,4.4-19.6,4.4c-8.2,0-14.9-2.7-19.9-8.2
				c-5.1-5.5-7.7-12.4-7.7-20.5s2.3-14.7,6.9-19.8C989.1,273.9,995.4,271.4,1003.6,271.4z M1004.2,276.4c-6.4,0-11.2,2.2-14.6,6.5
				c-3.2,4.1-4.9,9.4-4.9,15.9c0,6.5,1.9,12,5.8,16.5c4,4.8,9.2,7.3,15.5,7.3c3.6,0,7.8-0.9,12.6-2.7V279
				C1014.2,277.3,1009.4,276.4,1004.2,276.4z"/>
			<path class="st0" d="M1062.1,271.2c5.6,0,10.3,2,14.2,5.9c3.9,3.9,5.8,8.6,5.8,14.1c0,3.1-1.1,5.6-3.3,7.5s-4.9,2.8-8.3,2.8
				h-27.2c0.3,6,2,10.9,5.2,14.8c3.4,4.1,8,6.2,13.6,6.2c5.6,0,11.1-1,16.7-3v5.6c-5.4,1.7-11,2.5-16.7,2.5c-8.3,0-14.6-2.7-19-8.1
				c-4.2-5.1-6.2-11.7-6.2-20c0-8.1,2-14.7,5.9-19.7C1047.3,274.1,1053.7,271.2,1062.1,271.2z M1075.7,291.3c0-3.7-1.4-7.2-4.1-10.3
				c-2.7-3.1-5.9-4.7-9.5-4.7c-5.6,0-10.1,2-13.5,5.9c-3.1,3.7-4.8,8.4-5.3,14.2h27.2c1.4,0,2.6-0.5,3.6-1.5
				C1075.2,294,1075.7,292.8,1075.7,291.3z M1067.3,246.4h6.3l-8.9,13.1h-5.1L1067.3,246.4z"/>
			<path class="st0" d="M1126.2,325.9v-36.3c0-3.5-1.2-6.6-3.7-9.2c-2.5-2.6-5.5-3.9-8.9-3.9c-3.9,0-8.7,1.4-14.3,4.1v45.4h-6.3
				v-48.4l9.8-3.7c2.3-0.9,4.4-1.5,6.3-1.9c1.9-0.3,3.7-0.5,5.2-0.5c5.5,0,9.9,1.9,13.4,5.6c1.5-0.6,3-1.1,4.5-1.8
				c1.5-0.6,2.9-1.2,4.4-1.8c2-0.8,3.8-1.3,5.5-1.6c1.7-0.3,3.2-0.5,4.6-0.5c5.3,0,9.6,1.8,13.1,5.3c3.5,3.5,5.2,7.8,5.2,13v36.3
				h-6.3v-36.3c0-3.5-1.2-6.6-3.7-9.2c-2.4-2.6-5.4-3.9-8.8-3.9c-3.5,0-8.5,1.6-15.2,4.9c1.2,2.7,1.9,5.5,1.9,8.3v36.3L1126.2,325.9
				L1126.2,325.9z"/>
			<path class="st0" d="M1181,246.5h6.3v6.3h-6.3V246.5z M1187.4,273.2v52.7h-6.3v-52.7H1187.4z"/>
			<path class="st0" d="M1240.3,325.9c-4.9,1.2-9.7,1.9-14.2,1.9c-8.2,0-14.6-2.7-19.3-8.1c-4.5-5.1-6.8-11.8-6.8-20
				c0-8.2,2.2-14.9,6.8-20.2c4.8-5.5,11.2-8.2,19.3-8.2c4.7,0,9.5,0.7,14.2,2v5.4c-4.6-1.5-9.3-2.3-14.2-2.3
				c-6.1,0-10.9,2.3-14.5,6.9c-3.5,4.4-5.2,9.8-5.2,16.3c0,6.4,1.7,11.7,5.2,16.2c3.6,4.6,8.4,6.9,14.5,6.9c4.9,0,9.7-0.7,14.2-2.2
				V325.9z"/>
			<path class="st0" d="M1289,321.4c-6.3,4.2-13.6,6.3-21.8,6.3c-5.7,0-10.5-1.4-14.3-4.3c-3.7-2.9-5.5-6.6-5.5-11.2
				c0-5.1,2.2-9.1,6.5-12.2c4.9-3.5,12.1-5.2,21.5-5.2h7.3v-7.3c0-3-1.1-5.5-3.3-7.7c-2.2-2.3-5-3.4-8.3-3.4c-6.4,0-12.2,1-17.6,3.1
				V274c5.4-1.7,11.6-2.6,18.7-2.6c4.7,0,8.7,1.6,11.9,4.7c3.3,3,4.9,6.9,4.9,11.5L1289,321.4L1289,321.4z M1282.6,300h-6.6
				c-7.5,0-13.3,1.3-17.1,3.9c-3.2,2.1-4.8,4.9-4.8,8.3c0,3,1.2,5.4,3.6,7.4c2.4,2,5.7,3,9.9,3c5.5,0,10.6-1.3,15.1-3.8L1282.6,300
				L1282.6,300z"/>
		</g>
	</g>
	<g>
		<g>
			<path class="st0" d="M291.7,129.4c0.5,0.3,0.9,0.6,1.2,1c0.3,0.4,0.5,0.9,0.5,1.4c0,0.4-0.1,0.9-0.4,1.3l-5.7,9.7
				c-0.7,0.9-1.4,1.3-2.1,1.3c-0.2,0-0.5,0-0.8-0.1c-0.3-0.1-0.6-0.2-0.9-0.4c-2.5-1.8-5.1-3.1-7.9-4.1c-2.8-1-5.8-1.5-9-1.5
				c-4,0-7.6,0.8-10.9,2.3c-3.3,1.5-6.2,3.5-8.6,6.1s-4.3,5.6-5.6,9.1c-1.3,3.5-2,7.2-2,11.2c0,3.9,0.7,7.6,2,11.1
				c1.3,3.5,3.2,6.5,5.6,9s5.3,4.6,8.6,6.1c3.3,1.5,7,2.2,10.9,2.2c3.2,0,6.2-0.5,9-1.5c2.9-1,5.5-2.3,7.9-4.1
				c0.3-0.2,0.6-0.4,1-0.5c0.3-0.1,0.6-0.1,0.8-0.2c0.7,0,1.3,0.4,2,1.3l5.8,9.8c0.2,0.5,0.4,0.9,0.4,1.3c0,0.5-0.2,1-0.5,1.3
				c-0.3,0.4-0.7,0.7-1.1,1c-3.7,2.5-7.6,4.4-11.8,5.7c-4.2,1.3-8.7,2-13.4,2c-4.1,0-8.1-0.5-11.9-1.6c-3.8-1.1-7.4-2.6-10.7-4.5
				c-3.3-1.9-6.3-4.3-9-7c-2.7-2.7-5-5.7-7-9c-1.9-3.3-3.5-6.8-4.5-10.6s-1.6-7.8-1.6-11.9c0-4.1,0.5-8.1,1.6-11.9s2.6-7.4,4.5-10.7
				c1.9-3.3,4.3-6.4,7-9.1c2.7-2.7,5.7-5.1,9-7s6.9-3.4,10.7-4.5c3.8-1.1,7.8-1.6,11.9-1.6c4.6,0,9,0.7,13.2,2
				C284.1,125,288.1,126.9,291.7,129.4z"/>
			<path class="st0" d="M303.3,207.7c0.2-0.8,0.4-1.5,0.7-2.2c0.3-0.7,0.5-1.3,0.7-1.8l31.5-78.5c0.1-0.4,0.4-0.9,1-1.4
				c0.5-0.5,1.2-0.8,2.1-0.8h9.4c0.9,0,1.6,0.2,2,0.7s0.7,0.9,0.9,1.2l1.9,4.6l30.9,77.3c0,0.1,0,0.3,0.1,0.6
				c0.1,0.3,0.1,0.5,0.1,0.7c0,1.2-0.9,1.8-2.6,1.8h-11.5c-0.9,0-1.5-0.2-2-0.5c-0.5-0.4-0.9-0.9-1.2-1.6l-1.1-2.7
				c-0.7-1.9-1.5-3.7-2.2-5.6s-1.5-3.8-2.2-5.7h-36.1c-1,2.7-2,5.3-3,7.7c-1,2.4-1.8,4.5-2.4,6.3c-0.5,1.4-1.6,2.2-3,2.2h-11.7
				c-0.7,0-1.3-0.1-1.8-0.4c-0.4-0.3-0.7-0.7-0.7-1.2C303.2,208,303.2,207.9,303.3,207.7z M344,145.3c-2.1,5.4-4.2,11-6.3,16.7
				c-2.1,5.8-4.2,11.3-6.3,16.7h24.9L344,145.3z"/>
			<path class="st0" d="M401.9,125.6c0.1-0.7,0.4-1.4,0.9-1.8c0.5-0.5,1.1-0.7,1.9-0.7h14.6c1.4,0,2.3,0.7,2.7,2.2l20.6,57.6
				c3.5-9.7,7-19.3,10.4-28.8c3.5-9.5,7-19.1,10.4-28.8c0.5-1.5,1.4-2.2,2.7-2.2h14.7c0.8,0,1.4,0.3,1.9,0.8
				c0.5,0.5,0.8,1.1,0.8,1.8c1.4,13.7,2.9,27.3,4.4,40.9c1.5,13.6,3,27.2,4.4,40.8v0.2c0,1.6-0.9,2.4-2.6,2.4h-11.3
				c-1.8,0-2.7-0.9-2.8-2.6l-6-55.3l-19.5,53.8c-0.2,0.5-0.5,1.1-0.9,1.5c-0.4,0.5-0.9,0.7-1.3,0.7h-10.5c-0.5,0-1-0.2-1.4-0.7
				c-0.4-0.4-0.7-1-0.9-1.6c-3.2-9-6.4-18-9.7-26.9c-3.2-8.9-6.5-17.9-9.8-26.9l-6,55.3c0,1.7-0.9,2.6-2.7,2.6h-11.3
				c-1.7,0-2.6-0.9-2.6-2.6L401.9,125.6z"/>
			<path class="st0" d="M506.8,125.8c0-1.8,0.9-2.8,2.6-2.8h33.2c3.9,0,7.6,0.8,10.9,2.3c3.3,1.5,6.2,3.6,8.6,6.2s4.3,5.5,5.6,8.9
				s2,6.8,2,10.4c0,3.5-0.7,7-2,10.3c-1.3,3.3-3.1,6.2-5.5,8.8c-2.4,2.6-5.2,4.6-8.5,6.1c-3.3,1.5-6.9,2.3-10.8,2.3h-19.3v29.1
				c0,1.7-0.9,2.5-2.6,2.5h-11.7c-1.7,0-2.6-0.8-2.6-2.5L506.8,125.8L506.8,125.8z M552.6,150.7c0-1.6-0.3-3.2-0.9-4.7
				c-0.6-1.5-1.5-2.9-2.6-4.1c-1.1-1.2-2.4-2.2-3.9-2.9c-1.5-0.7-3.2-1.1-5-1.1h-16.5v25.7h16.5c1.8,0,3.4-0.4,4.9-1.1
				c1.5-0.7,2.8-1.7,4-2.8c1.1-1.2,2-2.6,2.6-4.1C552.3,154,552.6,152.4,552.6,150.7z"/>
			<path class="st0" d="M600.4,174.6c0,3.3,0.5,6.2,1.4,8.8c0.9,2.6,2.3,4.8,3.9,6.6c1.7,1.8,3.7,3.2,6.1,4.2c2.4,1,5,1.4,7.9,1.4
				c3,0,5.8-0.5,8.2-1.5c2.4-1,4.5-2.4,6.1-4.3c1.7-1.9,2.9-4.1,3.8-6.7c0.9-2.6,1.3-5.4,1.3-8.6v-49c0-0.7,0.3-1.3,0.8-1.8
				c0.5-0.5,1.1-0.8,1.9-0.8h11.3c0.8,0,1.5,0.3,2.1,0.8c0.6,0.5,0.8,1.1,0.8,1.8v49.7c0,6-1,11.3-2.9,15.8
				c-1.9,4.5-4.6,8.3-7.9,11.3c-3.3,3-7.2,5.2-11.6,6.7c-4.4,1.5-9.1,2.2-14,2.2s-9.6-0.8-14-2.4c-4.4-1.6-8.3-3.9-11.6-6.9
				s-5.9-6.8-7.9-11.3c-1.9-4.5-2.9-9.6-2.9-15.4v-49.7c0-0.6,0.2-1.2,0.7-1.8c0.4-0.5,1-0.8,1.7-0.8h11.9c0.6,0,1.2,0.3,1.8,0.8
				c0.6,0.5,0.9,1.1,0.9,1.8L600.4,174.6L600.4,174.6z"/>
			<path class="st0" d="M722.9,146.2c-0.5,0-1-0.1-1.4-0.4c-0.4-0.3-0.9-0.6-1.5-1l-0.1-0.1c-0.7-0.7-1.7-1.6-2.9-2.5
				c-1.2-0.9-2.5-1.7-3.9-2.5c-1.4-0.8-3-1.4-4.7-2c-1.7-0.5-3.3-0.8-5.1-0.8c-2.2,0-4.1,0.2-5.8,0.7c-1.7,0.5-3.1,1.2-4.2,2
				c-1.1,0.8-2,1.8-2.6,3c-0.6,1.1-0.9,2.3-0.9,3.6c0,1.4,0.4,2.6,1.3,3.7c0.9,1.1,2.1,2,3.6,2.8c1.5,0.8,3.2,1.6,5.2,2.3
				c2,0.7,4,1.4,6.1,2c2.5,0.7,4.9,1.5,7.3,2.4c2.4,0.9,4.7,1.8,6.9,2.9c2.2,1.1,4.3,2.3,6.2,3.6c1.9,1.3,3.6,2.8,4.9,4.5
				s2.5,3.6,3.3,5.7c0.8,2.1,1.2,4.4,1.2,7c0,4.3-0.9,8.1-2.6,11.5c-1.7,3.4-4.1,6.4-7.1,8.8c-3,2.4-6.6,4.3-10.6,5.6
				c-4.1,1.3-8.5,2-13.1,2c-3,0-6-0.4-9-1.1s-5.8-1.7-8.5-3c-2.7-1.3-5.3-2.8-7.8-4.7c-2.4-1.8-4.6-3.9-6.5-6.1v0.1l-0.1-0.2
				c-0.9-1-1.3-1.9-1.3-2.7c0-0.4,0.1-0.8,0.4-1.2c0.2-0.4,0.6-0.8,1.1-1.3l1.9-1.9c0.6-0.5,1.2-1.1,1.9-1.7c0.7-0.6,1.3-1.2,2-1.7
				c0.7-0.5,1.3-0.9,1.8-1.3c0.6-0.4,1-0.5,1.4-0.5c0.5,0,1.1,0.2,1.5,0.5s0.9,0.7,1.2,1l0.2,0.2h-0.1c1.4,1.3,2.9,2.5,4.6,3.7
				c1.7,1.2,3.4,2.2,5.2,3.1c1.8,0.9,3.6,1.6,5.4,2.2c1.8,0.5,3.4,0.8,5,0.8c2.1,0,4.2-0.3,6-0.8c1.9-0.5,3.5-1.3,4.9-2.3
				c1.4-1,2.4-2.2,3.2-3.6c0.8-1.4,1.2-3,1.2-4.7c0-1.7-0.5-3.2-1.5-4.4c-1-1.2-2.3-2.3-4-3.2c-1.6-0.9-3.5-1.7-5.5-2.4
				c-2-0.7-4.1-1.3-6.2-1.9c-4.8-1.4-8.9-3-12.5-4.7c-3.6-1.7-6.5-3.6-8.9-5.6c-2.4-2.1-4.2-4.4-5.4-7c-1.2-2.6-1.8-5.5-1.8-8.7
				c0-3.6,0.7-6.9,2.2-9.9s3.5-5.5,6.2-7.7c2.7-2.1,5.9-3.8,9.7-5c3.8-1.2,8-1.8,12.7-1.8c3.5,0,7.2,0.6,10.8,1.7
				c3.7,1.1,7.1,2.6,10.2,4.6c0.9,0.6,1.9,1.2,2.9,2c1,0.7,1.9,1.5,2.7,2.3c0.8,0.8,1.5,1.5,2,2.2c0.5,0.7,0.8,1.3,0.8,1.8
				c0,0.5-0.1,0.9-0.4,1.4c-0.2,0.5-0.5,0.9-0.9,1.3l-1.8,1.9v-0.1c-0.6,0.6-1.2,1.3-1.8,1.9c-0.6,0.7-1.2,1.3-1.9,1.8
				c-0.6,0.5-1.2,1-1.7,1.3S723.2,146.2,722.9,146.2z"/>
			<path class="st0" d="M813.2,208.2c-0.4-0.8-0.8-1.6-1.2-2.5c-0.4-0.8-0.7-1.7-1.1-2.6l-30.7-76.9c0-0.1,0-0.3-0.1-0.5
				c-0.1-0.2-0.1-0.5-0.1-0.8c0-1.2,0.8-1.9,2.4-1.9H795c1.5,0,2.5,0.7,3,2.2c0.9,2.5,1.9,5.3,3.1,8.6c1.2,3.3,2.5,6.8,3.9,10.5
				c1.4,3.7,2.8,7.5,4.3,11.3s2.9,7.6,4.3,11.2c1.4,3.6,2.7,7,3.9,10.2c1.2,3.2,2.2,5.9,3,8.2c0.9-2.3,1.9-5,3-8.2
				c1.2-3.2,2.4-6.6,3.8-10.2c1.3-3.6,2.7-7.4,4.2-11.2c1.4-3.9,2.8-7.6,4.2-11.3c1.4-3.7,2.7-7.2,3.9-10.5s2.3-6.2,3.2-8.6
				c0.5-1.5,1.6-2.2,3.2-2.2h12.3c1.8,0,2.6,0.6,2.6,1.9c0,0.3,0,0.5-0.1,0.8c-0.1,0.2-0.1,0.4-0.1,0.5L830,203.1
				c-0.3,0.8-0.6,1.6-0.9,2.4c-0.3,0.8-0.7,1.6-1.1,2.3c-0.5,1-1.3,1.6-2.2,1.8c-0.9,0.2-2,0.3-3.2,0.3h-6.7c-0.9,0-1.5-0.2-1.9-0.5
				C813.7,209,813.4,208.6,813.2,208.2z"/>
			<path class="st0" d="M872.6,125.6c0-0.7,0.2-1.3,0.6-1.8c0.4-0.5,1.1-0.8,1.9-0.8h11.6c0.7,0,1.3,0.2,1.9,0.7
				c0.6,0.5,0.9,1.1,0.9,1.9v81.7c0,1.7-0.9,2.6-2.7,2.6h-11.6c-1.7,0-2.6-0.9-2.6-2.6L872.6,125.6L872.6,125.6z"/>
			<path class="st0" d="M908.5,125.8c0-1.8,0.9-2.8,2.6-2.8h35.8c3.9,0,7.6,0.7,11.1,2.2c3.4,1.5,6.4,3.5,9,6c2.6,2.5,4.6,5.5,6,8.9
				c1.5,3.4,2.2,7.1,2.2,10.9c0,2.7-0.4,5.3-1.1,7.7c-0.7,2.5-1.8,4.7-3.1,6.8c-1.3,2.1-2.9,4-4.7,5.7c-1.8,1.7-3.9,3.1-6.1,4.3
				l15.2,30c0.1,0.4,0.2,0.8,0.4,1.2c0.2,0.4,0.3,0.8,0.3,1.2c0,1.2-0.7,1.8-2,1.8h-13.6c-1.4,0-2.3-0.7-2.8-2.2l-14.2-28.1
				c-0.6,0-1.3,0-2,0c-0.7,0-1.7,0-3,0c-1.3,0-2.9,0-5,0c-2,0-4.7,0-7.9,0v27.7c0,1.7-0.9,2.5-2.7,2.5h-11.8c-0.8,0-1.4-0.2-1.9-0.6
				c-0.5-0.4-0.7-1-0.7-1.9L908.5,125.8L908.5,125.8z M957.8,151.3c0-1.7-0.3-3.3-0.9-4.9c-0.6-1.6-1.5-3-2.6-4.2
				c-1.1-1.2-2.5-2.3-4-3c-1.6-0.8-3.3-1.2-5.1-1.3c-1.4,0-2.7-0.1-4-0.1c-1.3,0-2.7,0-4.1,0h-11.5v27.1H941c0.8,0,1.5,0,2.2,0
				c0.7,0,1.4,0,2.2-0.1c1.8-0.1,3.5-0.5,5.1-1.3c1.5-0.7,2.9-1.7,3.9-2.9c1.1-1.2,1.9-2.6,2.5-4.2
				C957.5,154.7,957.8,153,957.8,151.3z"/>
			<path class="st0" d="M984.3,125.6c0-0.8,0.3-1.4,0.8-1.9s1.2-0.7,1.9-0.7h61.5c0.7,0,1.3,0.2,1.9,0.6s0.9,1.1,1,1.9v10.2
				c0,0.8-0.2,1.5-0.7,2s-1.2,0.9-2.1,0.9h-22.2v68.4c0,0.7-0.2,1.3-0.7,1.9c-0.5,0.5-1.2,0.8-2,0.8H1012c-0.7,0-1.3-0.3-1.9-0.8
				c-0.6-0.5-0.8-1.1-0.8-1.9v-68.4H987c-0.8,0-1.4-0.2-1.9-0.7c-0.5-0.5-0.8-1.2-0.8-2.2L984.3,125.6L984.3,125.6z"/>
			<path class="st0" d="M1081.4,174.6c0,3.3,0.5,6.2,1.4,8.8c0.9,2.6,2.3,4.8,3.9,6.6c1.7,1.8,3.7,3.2,6.1,4.2c2.4,1,5,1.4,7.9,1.4
				c3,0,5.8-0.5,8.2-1.5c2.4-1,4.5-2.4,6.1-4.3c1.7-1.9,2.9-4.1,3.8-6.7c0.9-2.6,1.3-5.4,1.3-8.6v-49c0-0.7,0.3-1.3,0.8-1.8
				c0.5-0.5,1.1-0.8,1.9-0.8h11.3c0.8,0,1.5,0.3,2.1,0.8c0.6,0.5,0.8,1.1,0.8,1.8v49.7c0,6-1,11.3-2.9,15.8s-4.6,8.3-7.9,11.3
				c-3.3,3-7.2,5.2-11.6,6.7c-4.4,1.5-9.1,2.2-14,2.2s-9.6-0.8-14-2.4c-4.4-1.6-8.3-3.9-11.6-6.9s-5.9-6.8-7.9-11.3
				c-1.9-4.5-2.9-9.6-2.9-15.4v-49.7c0-0.6,0.2-1.2,0.7-1.8c0.4-0.5,1-0.8,1.7-0.8h11.9c0.6,0,1.2,0.3,1.8,0.8
				c0.6,0.5,0.9,1.1,0.9,1.8L1081.4,174.6L1081.4,174.6z"/>
			<path class="st0" d="M1148.5,207.7c0.2-0.8,0.4-1.5,0.7-2.2c0.3-0.7,0.5-1.3,0.7-1.8l31.5-78.5c0.1-0.4,0.4-0.9,1-1.4
				c0.5-0.5,1.2-0.8,2.1-0.8h9.4c0.9,0,1.6,0.2,2,0.7c0.4,0.5,0.7,0.9,0.9,1.2l1.9,4.6l30.9,77.3c0,0.1,0,0.3,0.1,0.6
				s0.1,0.5,0.1,0.7c0,1.2-0.9,1.8-2.6,1.8h-11.5c-0.9,0-1.5-0.2-2-0.5s-0.9-0.9-1.2-1.6l-1.1-2.7c-0.7-1.9-1.5-3.7-2.2-5.6
				c-0.7-1.9-1.5-3.8-2.2-5.7H1171c-1,2.7-2,5.3-3,7.7c-1,2.4-1.8,4.5-2.4,6.3c-0.5,1.4-1.6,2.2-3,2.2h-11.7c-0.7,0-1.3-0.1-1.8-0.4
				c-0.4-0.3-0.7-0.7-0.7-1.2C1148.4,208,1148.4,207.9,1148.5,207.7z M1189.2,145.3c-2.1,5.4-4.2,11-6.3,16.7
				c-2.1,5.8-4.2,11.3-6.3,16.7h24.9L1189.2,145.3z"/>
			<path class="st0" d="M1242.3,125.6c0-0.7,0.2-1.3,0.7-1.8c0.5-0.5,1.1-0.8,2-0.8h11.6c0.7,0,1.3,0.2,1.8,0.7
				c0.5,0.4,0.8,1.1,0.8,1.9v68.3h36.6c0.7,0,1.3,0.2,1.8,0.7c0.5,0.5,0.8,1.1,0.8,2v10.7c0,0.7-0.2,1.3-0.7,1.8
				c-0.5,0.5-1.1,0.8-1.9,0.8h-51c-1.7,0-2.6-0.9-2.6-2.6L1242.3,125.6L1242.3,125.6z"/>
		</g>
	</g>
	<g>
		<path class="st1" d="M116.3,275.1c2,3.9,3.8,7.6,5.8,11.3c16.6,30.9,39.4,57.7,68.4,80.5c0.4,0.3,0.9,0.7,1.3,0.7
			c1.5,0.2,3.1,0.2,4.7,0.3c0-35.1,0-70.1,0-105.2C169.2,263.7,142.6,267.8,116.3,275.1z"/>
		<path class="st1" d="M49.4,304.5c13.8,14.3,29.4,26.4,47,36.3c17.6,9.9,36.3,17.2,56.3,21.7c-23.6-24-42.1-50.9-55.4-80.9
			C80.5,287.7,64.6,295.4,49.4,304.5z"/>
		<path class="st1" d="M216.9,368c1.3-0.1,2.5,0,3.7-0.2c0.7-0.1,1.5-0.4,2.1-0.8c27.7-23,49.5-50,65.2-81.2c1.7-3.5,3.4-7,5.1-10.6
			c-24.9-7.3-50.1-11.4-76.1-12.3C216.9,297.9,216.9,332.9,216.9,368z"/>
		<path class="st1" d="M312,281.5c-6.6,15-14.5,29.2-23.8,42.7c-9.3,13.6-19.9,26.3-31.6,38.3c40.8-9.6,75.1-29,103.4-58
			C344.8,295.4,328.8,287.7,312,281.5z"/>
		<path class="st1" d="M80,176.7c1.1-25.9,6.1-51,15-75.6c-19.2-7-37.2-15.8-54.4-26.2C17.1,105.5,4.2,139.3,2,176.7
			C28,176.7,53.9,176.7,80,176.7z"/>
		<path class="st1" d="M80,195.6c-26,0-51.9,0-78,0c2.2,37.4,15.1,71.2,38.6,101.7c17.1-10.4,34.9-18.9,53.7-25.9
			C85.7,246.7,80.9,221.5,80,195.6z"/>
		<path class="st2" d="M100.4,195.6c-1.3,12.6,7.5,58.7,13.2,69.4c13.4-4,27.1-7.1,40.9-9.4c13.9-2.2,27.9-3.6,42-4
			c0-18.8,0-37.4,0-56C164.4,195.6,132.4,195.6,100.4,195.6z"/>
		<path class="st3" d="M100.3,176.7c32.2,0,64.2,0,96.2,0c0-18.7,0-37.3,0-56c-28.1-0.9-55.5-5.3-82.4-13.2
			C106,130,101.4,153,100.3,176.7z"/>
		<path class="st4" d="M95.7,96.6"/>
		<path class="st1" d="M198.6,4c-1.2,0.4-2.3,0.5-3,1.1c-30.9,24.2-54.7,53-71.6,86.6c-0.9,1.9-1.8,3.8-2.7,5.7
			c12.1,5.1,67.8,13.7,77.3,12C198.6,74.4,198.6,39.4,198.6,4z"/>
		<path class="st1" d="M156.3,7.4c-43.1,9.3-79.3,28.9-109,58.5c16,9.3,32.6,17,50.2,23.3C111.6,58.7,131.3,31.5,156.3,7.4z"/>
		<path class="st1" d="M223,4.4c0,35,0,70,0,105c13.9,1,63.5-6.9,75.1-12c-0.1-0.3-0.3-0.7-0.4-1c-16.3-35.2-40-65.4-71-90.7
			C225.6,4.8,224.6,4,223,4.4z"/>
		<path class="st1" d="M366,67.7c-9.3-9.7-19.5-18.4-30.8-26.1c-11.2-7.7-23.2-14.3-35.8-19.8C288.4,17,263.1,8.9,260,9.4
			c24.5,24,43.5,51.3,57.3,81.7C328.5,87.6,361,72,366,67.7z"/>
	</g>
</g>
</svg>
