<?xml version="1.0" encoding="utf-8"?>
<!-- Generator: Adobe Illustrator 24.1.0, SVG Export Plug-In . SVG Version: 6.00 Build 0)  -->
<svg version="1.1" id="Capa_1" xmlns="http://www.w3.org/2000/svg" xmlns:xlink="http://www.w3.org/1999/xlink" x="0px" y="0px"
	 viewBox="0 0 1304 368" enable-background="new 0 0 1304 368" xml:space="preserve">
<g>
	<g>
		<g>
			<g>
				<path d="M430.943,278.292v62.061h-5.305v-62.061H430.943z"/>
				<path d="M444.765,340.442v-41.023c9.408-3.462,15.888-5.193,19.432-5.193c2.439,0,4.677,0.405,6.709,1.212
					c2.032,0.811,3.764,1.94,5.186,3.39c1.423,1.452,2.526,3.204,3.313,5.259c0.784,2.054,1.176,4.313,1.176,6.776v29.58h-5.303
					v-29.58c0-1.759-0.294-3.387-0.869-4.885c-0.582-1.495-1.378-2.801-2.391-3.917c-1.017-1.114-2.232-1.979-3.65-2.598
					c-1.421-0.615-3.003-0.924-4.738-0.924c-4.29,0-8.81,1.145-13.564,3.433v38.471H444.765z"/>
				<path d="M498.228,283.35c0-3.179,1.102-5.802,3.305-7.863c2.26-2.122,4.982-3.182,8.169-3.182c1.914,0,3.797,0.271,5.652,0.809
					v4.824c-1.912-0.879-3.796-1.32-5.652-1.32c-0.868,0-1.668,0.192-2.391,0.573c-0.725,0.382-1.377,0.881-1.957,1.496
					c-0.577,0.616-1.026,1.336-1.346,2.155c-0.316,0.823-0.477,1.674-0.477,2.554v12.323h10.085v4.313h-10.085v40.319h-5.303
					v-40.319h-9.216v-4.313h9.216V283.35z"/>
				<path d="M562.909,318.435c0,7.101-1.767,12.706-5.302,16.813c-3.653,4.401-8.929,6.603-15.824,6.603
					c-6.842,0-12.173-2.378-15.998-7.131c-3.65-4.46-5.476-10.241-5.476-17.343c0-6.924,1.794-12.528,5.388-16.814
					c3.823-4.401,9.159-6.601,15.997-6.601c6.722,0,11.997,2.406,15.823,7.219C561.111,305.702,562.909,311.451,562.909,318.435z
					 M526.133,317.335c0,5.799,1.216,10.482,3.652,14.055c2.781,4.099,6.78,6.148,11.998,6.148c5.273,0,9.215-1.874,11.82-5.622
					c2.319-3.22,3.479-7.729,3.479-13.526c0-5.74-1.189-10.423-3.564-14.055c-2.725-4.039-6.664-6.06-11.824-6.06
					c-5.273,0-9.246,1.845-11.91,5.535C527.35,307.147,526.133,311.656,526.133,317.335z"/>
				<path d="M590.726,298.539c-4.115,0-8.172,0.676-12.169,2.025v39.878h-5.306V297.82c5.393-2.396,11.392-3.594,17.998-3.594
					c0.637,0,1.186,0,1.651,0c0.463,0,0.841,0.03,1.13,0.087v4.402c-0.814-0.057-1.493-0.102-2.043-0.132
					C591.435,298.554,591.015,298.539,590.726,298.539z"/>
				<path d="M630.107,340.353V309.63c0-2.991-1.041-5.604-3.13-7.833c-2.084-2.231-4.578-3.346-7.477-3.346
					c-3.246,0-7.244,1.144-11.997,3.434v38.468h-5.302v-41.021l8.171-3.169c1.915-0.763,3.681-1.292,5.303-1.586
					c1.621-0.292,3.073-0.439,4.348-0.439c4.578,0,8.315,1.583,11.216,4.752c1.272-0.469,2.519-0.968,3.735-1.496
					c1.219-0.528,2.433-1.025,3.653-1.497c1.679-0.644,3.215-1.099,4.609-1.364c1.388-0.262,2.665-0.395,3.824-0.395
					c4.402,0,8.054,1.495,10.954,4.489c2.896,2.936,4.348,6.603,4.348,11.003v30.723h-5.306V309.63c0-2.991-1.042-5.604-3.13-7.833
					c-2.027-2.231-4.492-3.346-7.387-3.346c-2.901,0-7.13,1.379-12.692,4.139c1.041,2.287,1.563,4.634,1.563,7.04v30.723H630.107z"
					/>
				<path d="M707.305,336.569c-5.275,3.579-11.359,5.37-18.256,5.37c-4.811,0-8.81-1.205-11.997-3.61
					c-3.072-2.465-4.606-5.635-4.606-9.508c0-4.282,1.826-7.716,5.476-10.3c4.115-2.932,10.111-4.402,17.997-4.402h6.083v-6.213
					c0-2.51-0.927-4.699-2.778-6.566c-1.858-1.926-4.175-2.89-6.957-2.89c-5.332,0-10.229,0.882-14.692,2.641v-4.754
					c4.521-1.466,9.736-2.2,15.649-2.2c3.939,0,7.273,1.32,9.996,3.96c2.726,2.583,4.087,5.842,4.087,9.773V336.569z
					 M702.002,318.435h-5.564c-6.316,0-11.096,1.109-14.344,3.329c-2.667,1.811-4,4.147-4,7.009c0,2.512,1.015,4.616,3.042,6.31
					c2.029,1.695,4.786,2.541,8.262,2.541c4.635,0,8.836-1.081,12.604-3.242V318.435z"/>
				<path d="M750.858,340.353c-4.113,1.058-8.085,1.586-11.911,1.586c-6.839,0-12.229-2.29-16.168-6.867
					c-3.769-4.342-5.652-10.005-5.652-16.99c0-6.923,1.883-12.617,5.652-17.078c3.999-4.635,9.389-6.954,16.168-6.954
					c3.943,0,7.912,0.557,11.911,1.672v4.578c-3.823-1.29-7.796-1.936-11.911-1.936c-5.098,0-9.157,1.961-12.169,5.884
					c-2.9,3.749-4.347,8.345-4.347,13.793c0,5.385,1.447,9.955,4.347,13.7c3.011,3.924,7.07,5.886,12.169,5.886
					c4.115,0,8.088-0.618,11.911-1.85V340.353z"/>
				<path d="M760.335,273.098h5.301v5.37h-5.301V273.098z M765.636,295.721v44.632h-5.301v-44.632H765.636z"/>
				<path d="M818.667,318.435c0,7.101-1.769,12.706-5.303,16.813c-3.652,4.401-8.926,6.603-15.822,6.603
					c-6.839,0-12.172-2.378-15.997-7.131c-3.652-4.46-5.478-10.241-5.478-17.343c0-6.924,1.798-12.528,5.391-16.814
					c3.822-4.401,9.155-6.601,15.998-6.601c6.72,0,11.994,2.406,15.819,7.219C816.871,305.702,818.667,311.451,818.667,318.435z
					 M781.892,317.335c0,5.799,1.219,10.482,3.651,14.055c2.783,4.099,6.782,6.148,11.999,6.148c5.275,0,9.213-1.874,11.823-5.622
					c2.317-3.22,3.478-7.729,3.478-13.526c0-5.74-1.188-10.423-3.564-14.055c-2.726-4.039-6.665-6.06-11.821-6.06
					c-5.277,0-9.247,1.845-11.914,5.535C783.11,307.147,781.892,311.656,781.892,317.335z M801.888,273.098h5.303l-7.477,11.091
					h-4.26L801.888,273.098z"/>
				<path d="M827.795,340.442v-41.023c9.41-3.462,15.889-5.193,19.433-5.193c2.44,0,4.674,0.405,6.712,1.212
					c2.029,0.811,3.76,1.94,5.183,3.39c1.424,1.452,2.529,3.204,3.313,5.259c0.781,2.054,1.178,4.313,1.178,6.776v29.58h-5.306
					v-29.58c0-1.759-0.289-3.387-0.868-4.885c-0.58-1.495-1.377-2.801-2.391-3.917c-1.016-1.114-2.231-1.979-3.65-2.598
					c-1.423-0.615-3-0.924-4.738-0.924c-4.293,0-8.811,1.145-13.563,3.433v38.471H827.795z"/>
				<path d="M931.683,276.619c5.623,0,11.01,0.998,16.172,2.994v4.93c-5.278-2.406-10.667-3.61-16.172-3.61
					c-7.651,0-13.94,2.755-18.864,8.263c-4.927,5.391-7.39,12.073-7.39,20.039c0,7.97,2.463,14.621,7.39,19.952
					c4.982,5.568,11.271,8.35,18.864,8.35c4.752,0,9.358-0.878,13.822-2.633v-24.481h-15.214v-4.315h20.517v31.517
					c-6.026,2.816-12.4,4.225-19.125,4.225c-9.159,0-16.69-3.082-22.604-9.242c-5.969-6.221-8.955-13.998-8.955-23.329
					c0-9.272,2.986-17.02,8.955-23.24C915.104,279.76,922.643,276.619,931.683,276.619z"/>
				<path d="M982.938,294.049c4.649,0,8.602,1.672,11.859,5.017c3.246,3.289,4.868,7.279,4.868,11.974
					c0,2.64-0.915,4.753-2.747,6.337c-1.829,1.585-4.14,2.377-6.927,2.377h-22.753c0.233,5.081,1.688,9.258,4.36,12.527
					c2.848,3.504,6.656,5.256,11.422,5.256c4.648,0,9.3-0.851,13.952-2.553v4.754c-4.537,1.409-9.187,2.113-13.952,2.113
					c-6.917,0-12.206-2.29-15.869-6.867c-3.478-4.283-5.216-9.948-5.216-16.99c0-6.867,1.65-12.441,4.958-16.726
					C970.612,296.458,975.963,294.049,982.938,294.049z M994.364,311.04c0-3.169-1.138-6.075-3.402-8.715
					c-2.27-2.641-4.913-3.962-7.939-3.962c-4.709,0-8.486,1.671-11.339,5.018c-2.558,3.111-4.041,7.131-4.447,12.06h22.766
					c1.164,0,2.18-0.423,3.053-1.276C993.927,313.315,994.364,312.271,994.364,311.04z"/>
				<path d="M1049.307,318.435c0,7.101-1.768,12.706-5.304,16.813c-3.654,4.401-8.926,6.603-15.822,6.603
					c-6.843,0-12.172-2.378-15.997-7.131c-3.652-4.46-5.479-10.241-5.479-17.343c0-6.924,1.796-12.528,5.394-16.814
					c3.822-4.401,9.153-6.601,15.992-6.601c6.722,0,11.997,2.406,15.823,7.219C1047.507,305.702,1049.307,311.451,1049.307,318.435z
					 M1012.532,317.335c0,5.799,1.215,10.482,3.65,14.055c2.784,4.099,6.78,6.148,11.999,6.148c5.272,0,9.214-1.874,11.823-5.622
					c2.317-3.22,3.476-7.729,3.476-13.526c0-5.74-1.19-10.423-3.564-14.055c-2.724-4.039-6.665-6.06-11.824-6.06
					c-5.271,0-9.244,1.845-11.909,5.535C1013.747,307.147,1012.532,311.656,1012.532,317.335z"/>
				<path d="M1079.122,365.883c-5.736,0-11.3-1.086-16.689-3.257v-5.019c5.215,2.642,10.78,3.962,16.689,3.962
					c3.42,0,6.35-1.324,8.78-3.969c2.437-2.529,3.654-5.553,3.654-9.081v-8.201c-1.798,0.54-3.624,0.957-5.479,1.258
					c-1.854,0.298-3.766,0.449-5.737,0.449c-6.954,0-12.605-2.378-16.95-7.131c-4.232-4.635-6.347-10.416-6.347-17.342
					c0-7.042,1.852-12.647,5.563-16.813c3.895-4.403,9.298-6.603,16.211-6.603c6.567,0,12.582,1.203,18.042,3.609v50.793
					c0,4.931-1.738,9.037-5.217,12.325C1088.222,364.211,1084.05,365.883,1079.122,365.883z M1079.297,298.451
					c-5.39,0-9.504,1.845-12.344,5.533c-2.726,3.456-4.087,7.964-4.087,13.528c0,5.447,1.623,10.131,4.868,14.053
					c3.363,4.098,7.737,6.148,13.128,6.148c3.013,0,6.579-0.731,10.693-2.194v-35.046
					C1087.441,299.126,1083.354,298.451,1079.297,298.451z"/>
				<path d="M1127.373,298.539c-4.118,0-8.172,0.676-12.173,2.025v39.878h-5.302V297.82c5.391-2.396,11.389-3.594,17.995-3.594
					c0.637,0,1.187,0,1.651,0s0.84,0.03,1.131,0.087v4.402c-0.813-0.057-1.494-0.102-2.043-0.132
					C1128.082,298.554,1127.662,298.539,1127.373,298.539z"/>
				<path d="M1170.318,336.569c-5.275,3.579-11.36,5.37-18.256,5.37c-4.813,0-8.812-1.205-11.998-3.61
					c-3.07-2.465-4.607-5.635-4.607-9.508c0-4.282,1.824-7.716,5.475-10.3c4.115-2.932,10.114-4.402,17.997-4.402h6.087v-6.213
					c0-2.51-0.929-4.699-2.781-6.566c-1.858-1.926-4.172-2.89-6.958-2.89c-5.331,0-10.23,0.882-14.693,2.641v-4.754
					c4.521-1.466,9.739-2.2,15.652-2.2c3.942,0,7.27,1.32,9.997,3.96c2.724,2.583,4.085,5.842,4.085,9.773V336.569z
					 M1165.017,318.435h-5.565c-6.317,0-11.098,1.109-14.347,3.329c-2.666,1.811-3.995,4.147-3.995,7.009
					c0,2.512,1.013,4.616,3.041,6.31c2.028,1.695,4.78,2.541,8.261,2.541c4.634,0,8.836-1.081,12.605-3.242V318.435z
					 M1160.409,273.01h5.303l-7.476,11.092h-4.263L1160.409,273.01z"/>
				<path d="M1186.312,283.35c0-3.179,1.104-5.802,3.308-7.863c2.258-2.122,4.983-3.182,8.171-3.182c1.911,0,3.794,0.271,5.65,0.809
					v4.824c-1.914-0.879-3.798-1.32-5.65-1.32c-0.871,0-1.666,0.192-2.39,0.573c-0.728,0.382-1.381,0.881-1.958,1.496
					c-0.579,0.616-1.028,1.336-1.349,2.155c-0.316,0.823-0.476,1.674-0.476,2.554v12.323h10.085v4.313h-10.085v40.319h-5.307
					v-40.319h-9.211v-4.313h9.211V283.35z"/>
				<path d="M1211.958,273.098h5.306v5.37h-5.306V273.098z M1217.264,295.721v44.632h-5.306v-44.632H1217.264z"/>
				<path d="M1261.512,340.353c-4.118,1.058-8.084,1.586-11.91,1.586c-6.841,0-12.229-2.29-16.172-6.867
					c-3.766-4.342-5.649-10.005-5.649-16.99c0-6.923,1.883-12.617,5.649-17.078c4-4.635,9.388-6.954,16.172-6.954
					c3.939,0,7.911,0.557,11.91,1.672v4.578c-3.827-1.29-7.794-1.936-11.91-1.936c-5.101,0-9.161,1.961-12.171,5.884
					c-2.901,3.749-4.348,8.345-4.348,13.793c0,5.385,1.446,9.955,4.348,13.7c3.01,3.924,7.071,5.886,12.171,5.886
					c4.115,0,8.083-0.618,11.91-1.85V340.353z"/>
				<path d="M1302.284,336.569c-5.275,3.579-11.361,5.37-18.26,5.37c-4.809,0-8.808-1.205-11.995-3.61
					c-3.072-2.465-4.609-5.635-4.609-9.508c0-4.282,1.829-7.716,5.477-10.3c4.116-2.932,10.114-4.402,17.999-4.402h6.086v-6.213
					c0-2.51-0.93-4.699-2.786-6.566c-1.854-1.926-4.172-2.89-6.955-2.89c-5.331,0-10.229,0.882-14.689,2.641v-4.754
					c4.518-1.466,9.735-2.2,15.647-2.2c3.939,0,7.271,1.32,10,3.96c2.722,2.583,4.084,5.842,4.084,9.773V336.569z M1296.982,318.435
					h-5.565c-6.317,0-11.098,1.109-14.346,3.329c-2.666,1.811-3.999,4.147-3.999,7.009c0,2.512,1.015,4.616,3.045,6.31
					c2.028,1.695,4.78,2.541,8.26,2.541c4.634,0,8.836-1.081,12.605-3.242V318.435z"/>
			</g>
		</g>
		<g>
			<g>
				<path d="M613.312,50.644c0.855,0.505,1.566,1.118,2.137,1.837c0.572,0.722,0.857,1.587,0.857,2.595
					c0,0.794-0.215,1.623-0.643,2.488l-10.357,17.841c-1.212,1.659-2.492,2.487-3.845,2.487c-0.427,0-0.926-0.089-1.496-0.269
					c-0.569-0.179-1.14-0.45-1.706-0.812c-4.486-3.243-9.291-5.768-14.418-7.567c-5.127-1.802-10.571-2.705-16.337-2.705
					c-7.262,0-13.918,1.389-19.967,4.162c-6.051,2.777-11.286,6.544-15.699,11.301c-4.415,4.757-7.847,10.343-10.303,16.759
					c-2.456,6.415-3.687,13.299-3.687,20.652c0,7.283,1.23,14.111,3.687,20.491c2.456,6.381,5.888,11.949,10.303,16.706
					c4.413,4.758,9.648,8.507,15.699,11.246c6.049,2.741,12.706,4.111,19.967,4.111c5.766,0,11.265-0.903,16.499-2.706
					c5.232-1.801,10.052-4.324,14.468-7.569c0.57-0.432,1.158-0.719,1.765-0.864c0.604-0.143,1.12-0.251,1.547-0.325
					c1.209,0,2.455,0.796,3.738,2.38l10.571,18.057c0.426,0.865,0.641,1.659,0.641,2.38c0,1.009-0.303,1.838-0.907,2.487
					c-0.605,0.649-1.301,1.262-2.083,1.837c-6.694,4.542-13.9,8.058-21.625,10.544c-7.725,2.486-15.856,3.729-24.4,3.729
					c-7.545,0-14.79-0.971-21.73-2.917c-6.938-1.949-13.437-4.721-19.486-8.326c-6.055-3.605-11.551-7.913-16.501-12.922
					c-4.948-5.009-9.201-10.561-12.76-16.652c-3.56-6.092-6.3-12.651-8.22-19.68c-1.923-7.028-2.884-14.362-2.884-22.005
					c0-7.64,0.961-14.975,2.884-22.003c1.92-7.029,4.661-13.626,8.22-19.788c3.56-6.163,7.813-11.768,12.76-16.815
					c4.951-5.045,10.446-9.351,16.501-12.921c6.049-3.568,12.548-6.344,19.486-8.326c6.941-1.981,14.185-2.974,21.73-2.974
					c8.471,0,16.517,1.208,24.134,3.623C599.467,42.625,606.62,46.102,613.312,50.644z"/>
				<path d="M645.346,43.723c0-1.297,0.389-2.415,1.17-3.352c0.781-0.935,1.951-1.405,3.512-1.405h21.177
					c1.206,0,2.341,0.432,3.405,1.296c1.064,0.866,1.597,2.019,1.597,3.461V194.78c0,3.172-1.669,4.758-5.002,4.758h-21.177
					c-3.121,0-4.683-1.586-4.683-4.758V43.723z"/>
				<path d="M710.912,44.047c0-3.387,1.562-5.081,4.698-5.081h65.352c7.188,0,13.916,1.37,20.181,4.108
					c6.264,2.741,11.729,6.454,16.393,11.138c4.659,4.687,8.326,10.202,10.996,16.543c2.671,6.344,4.006,13.084,4.006,20.221
					c0,4.975-0.679,9.733-2.031,14.273c-1.353,4.542-3.24,8.759-5.658,12.652c-2.423,3.892-5.305,7.405-8.649,10.541
					c-3.348,3.135-7.048,5.786-11.107,7.948l27.766,55.471c0.142,0.72,0.389,1.442,0.745,2.163c0.355,0.721,0.534,1.479,0.534,2.27
					c0,2.164-1.245,3.244-3.738,3.244h-24.771c-2.563,0-4.273-1.333-5.126-4.002l-25.841-51.9c-1.139,0-2.368,0.018-3.687,0.053
					c-1.315,0.038-3.131,0.053-5.443,0.053c-2.317,0-5.339,0-9.078,0s-8.561,0-14.468,0v51.147c0,3.099-1.64,4.649-4.911,4.649
					H715.61c-1.424,0-2.564-0.378-3.418-1.137c-0.855-0.757-1.28-1.926-1.28-3.512V44.047z M800.929,91.138
					c0-3.091-0.568-6.095-1.709-9.008c-1.137-2.914-2.741-5.522-4.804-7.823c-2.064-2.301-4.52-4.171-7.369-5.612
					c-2.847-1.438-5.943-2.264-9.289-2.481c-2.494-0.071-4.932-0.125-7.315-0.163c-2.385-0.035-4.858-0.054-7.422-0.054h-21.035
					v50.173h28.19c1.42,0,2.756,0,4.002,0c1.244,0,2.581-0.073,4.006-0.217c3.344-0.217,6.423-1.007,9.236-2.374
					c2.812-1.363,5.215-3.181,7.208-5.448c1.993-2.268,3.542-4.857,4.646-7.769C800.379,97.449,800.929,94.375,800.929,91.138z"/>
				<path d="M859.448,44.156c0-3.462,1.562-5.19,4.698-5.19h102.939c1.852,0,3.166,0.524,3.952,1.575
					c0.782,1.048,1.171,2.367,1.171,3.96v19.1c0,1.301-0.44,2.459-1.331,3.472c-0.893,1.014-2.228,1.52-4.005,1.52h-75.924v32.763
					h58.516c1.425-0.144,2.564,0.162,3.419,0.919c0.854,0.757,1.282,2.037,1.282,3.837v19.572c0,1.298-0.36,2.451-1.07,3.461
					c-0.713,1.01-1.85,1.513-3.418,1.513h-58.729v39.252h78.7c1.992,0,3.312,0.435,3.95,1.302c0.641,0.87,0.962,2.206,0.962,4.015
					v19.751c0,3.04-1.566,4.558-4.699,4.558H864.146c-1.283,0-2.388-0.36-3.31-1.081c-0.927-0.72-1.388-1.876-1.388-3.461V44.156z"
					/>
				<path d="M1000.185,43.83c0-1.366,0.409-2.522,1.228-3.459c0.819-0.935,1.978-1.405,3.475-1.405h24.555
					c0.998,0,1.941,0.234,2.832,0.701c0.891,0.47,1.689,1.209,2.403,2.218c12.174,17.588,24.239,35.052,36.201,52.387
					c11.959,17.339,24.025,34.802,36.197,52.388V43.074c0.215-1.296,0.748-2.306,1.605-3.028c0.851-0.718,1.885-1.08,3.094-1.08
					h20.609c1.424,0,2.652,0.432,3.684,1.296c1.031,0.866,1.549,2.019,1.549,3.461v151.382c0,2.956-1.675,4.433-5.02,4.433h-23.173
					c-1.563,0-3.024-0.974-4.375-2.921c-12.53-18.381-25.009-36.744-37.427-55.092c-12.426-18.342-24.864-36.745-37.323-55.199
					V194.78c0,1.585-0.374,2.774-1.122,3.568c-0.746,0.794-2.013,1.19-3.791,1.19h-20.499c-1.642,0-2.834-0.415-3.581-1.244
					c-0.748-0.827-1.122-1.964-1.122-3.405V43.83z"/>
				<path d="M1172.106,44.156c0-3.462,1.566-5.19,4.702-5.19h102.938c1.851,0,3.167,0.524,3.95,1.575
					c0.783,1.048,1.175,2.367,1.175,3.96v19.1c0,1.301-0.444,2.459-1.333,3.472c-0.893,1.014-2.228,1.52-4.006,1.52h-75.923v32.763
					h58.518c1.423-0.144,2.563,0.162,3.417,0.919c0.852,0.757,1.282,2.037,1.282,3.837v19.572c0,1.298-0.357,2.451-1.068,3.461
					c-0.711,1.01-1.853,1.513-3.419,1.513h-58.729v39.252h78.7c1.992,0,3.311,0.435,3.952,1.302c0.64,0.87,0.961,2.206,0.961,4.015
					v19.751c0,3.04-1.568,4.558-4.701,4.558h-105.713c-1.285,0-2.389-0.36-3.312-1.081c-0.927-0.72-1.391-1.876-1.391-3.461V44.156z
					"/>
			</g>
		</g>
	</g>
	<g>
		<path opacity="0.6" fill="#DAEEDC" d="M364.197,183.288c0,100.193-81.016,181.41-180.957,181.41
			c-99.941,0-180.957-81.217-180.957-181.41C2.284,83.102,83.299,1.883,183.241,1.883C283.182,1.883,364.197,83.102,364.197,183.288
			z"/>
		<path fill="#028910" d="M364.197,183.288c0,100.193-81.016,181.41-180.957,181.41c-99.941,0-180.957-81.217-180.957-181.41
			C2.284,83.102,83.299,1.883,183.241,1.883C283.182,1.883,364.197,83.102,364.197,183.288z M183.241,5.373
			C85.222,5.373,5.767,85.028,5.767,183.288c0,98.266,79.455,177.923,177.474,177.923c98.018,0,177.477-79.657,177.477-177.923
			C360.717,85.028,281.258,5.373,183.241,5.373z"/>
		<g>
			<g>
				<path fill="#269932" d="M254.719,222.604c0,0-68.246-80.707-72.504-114.243c-4.497-35.417,12.194-56.622,23.593-68.317
					c10.073-10.333,31.943-17.166,43.728-17.795c42.87-2.297,65.405,26.217,73.655,49.372c4.275,12.006,1.778,37.123-3.245,48.836
					C308.204,147.813,254.719,222.604,254.719,222.604z"/>
				<path fill="#028910" d="M254.719,222.572c0,0-68.246-81.095-72.504-114.791c-4.497-35.589,12.194-56.893,23.593-68.647
					c10.073-10.383,31.943-17.248,43.728-17.883c42.87-2.305,65.405,26.345,73.655,49.61c4.275,12.066,1.778,37.303-3.245,49.072
					C308.204,147.421,254.719,222.572,254.719,222.572z M318.514,119.483c4.9-11.479,7.334-36.095,3.163-47.859
					c-8.042-22.69-30.019-50.63-71.833-48.381c-11.492,0.618-32.82,7.312-42.644,17.438c-11.117,11.462-27.396,32.24-23.012,66.948
					c4.156,32.864,70.714,111.952,70.714,111.952S307.061,146.289,318.514,119.483z"/>
			</g>
			<path fill="#93CC98" d="M284.507,95.787c0,16.964-13.723,30.716-30.646,30.716c-16.918,0-30.64-13.752-30.64-30.716
				c0-16.966,13.722-30.718,30.64-30.718C270.784,65.068,284.507,78.821,284.507,95.787z"/>
			<path fill="#028910" d="M284.507,95.787c0,16.964-13.723,30.716-30.646,30.716c-16.918,0-30.64-13.752-30.64-30.716
				c0-16.966,13.722-30.718,30.64-30.718C270.784,65.068,284.507,78.821,284.507,95.787z M253.91,67.007
				c-15.603,0-28.257,12.847-28.257,28.697c0,15.85,12.654,28.698,28.257,28.698c15.604,0,28.26-12.848,28.26-28.698
				C282.17,79.854,269.515,67.007,253.91,67.007z"/>
		</g>
	</g>
</g>
</svg>
