<?xml version="1.0" encoding="utf-8"?>
<!-- Generator: Adobe Illustrator 24.1.0, SVG Export Plug-In . SVG Version: 6.00 Build 0)  -->
<svg version="1.1" id="Capa_1" xmlns="http://www.w3.org/2000/svg" xmlns:xlink="http://www.w3.org/1999/xlink" x="0px" y="0px"
	 viewBox="0 0 1304 368" enable-background="new 0 0 1304 368" xml:space="preserve">
<g>
	<g>
		<g>
			<g>
				<path d="M468.08,203.557c0.598,0.351,1.095,0.776,1.495,1.275c0.398,0.501,0.598,1.102,0.598,1.803
					c0,0.551-0.15,1.126-0.448,1.726l-7.248,12.387c-0.848,1.152-1.745,1.727-2.69,1.727c-0.299,0-0.648-0.063-1.046-0.189
					c-0.399-0.124-0.797-0.311-1.195-0.563c-3.138-2.252-6.501-4.003-10.087-5.255c-3.586-1.25-7.397-1.876-11.432-1.876
					c-5.081,0-9.739,0.964-13.972,2.89c-4.235,1.927-7.896,4.541-10.983,7.844c-3.09,3.303-5.492,7.182-7.211,11.635
					c-1.718,4.454-2.577,9.233-2.577,14.337c0,5.055,0.859,9.796,2.577,14.225c1.719,4.43,4.121,8.295,7.211,11.599
					c3.088,3.303,6.749,5.905,10.983,7.807c4.233,1.901,8.891,2.852,13.972,2.852c4.035,0,7.883-0.625,11.545-1.877
					c3.661-1.25,7.035-3.002,10.124-5.254c0.398-0.301,0.809-0.5,1.233-0.601c0.422-0.1,0.784-0.176,1.083-0.225
					c0.847,0,1.719,0.551,2.616,1.651l7.397,12.536c0.298,0.601,0.448,1.151,0.448,1.651c0,0.702-0.213,1.276-0.635,1.727
					c-0.425,0.45-0.91,0.876-1.458,1.275c-4.682,3.153-9.726,5.593-15.13,7.319c-5.405,1.727-11.096,2.589-17.074,2.589
					c-5.28,0-10.348-0.675-15.205-2.026c-4.857-1.351-9.403-3.277-13.637-5.78c-4.234-2.501-8.083-5.491-11.544-8.97
					c-3.462-3.478-6.439-7.331-8.928-11.56c-2.491-4.228-4.409-8.783-5.754-13.662c-1.345-4.879-2.017-9.972-2.017-15.276
					c0-5.304,0.672-10.396,2.017-15.276c1.345-4.879,3.263-9.458,5.754-13.738c2.49-4.278,5.466-8.169,8.928-11.672
					c3.461-3.503,7.31-6.494,11.544-8.972c4.234-2.478,8.78-4.403,13.637-5.78c4.856-1.376,9.924-2.064,15.205-2.064
					c5.928,0,11.556,0.839,16.888,2.515C458.391,197.99,463.397,200.404,468.08,203.557z"/>
				<path d="M511.192,261.659c0,4.204,0.598,7.982,1.793,11.335c1.196,3.353,2.877,6.193,5.044,8.52
					c2.167,2.328,4.756,4.104,7.771,5.331c3.013,1.227,6.362,1.839,10.049,1.839c3.886,0,7.372-0.65,10.46-1.953
					c3.088-1.3,5.691-3.14,7.808-5.517c2.117-2.376,3.737-5.229,4.857-8.558c1.121-3.327,1.682-6.993,1.682-10.997v-62.907
					c0-0.9,0.322-1.676,0.968-2.327c0.645-0.649,1.464-0.975,2.458-0.975h14.445c1.042,0,1.923,0.326,2.643,0.975
					c0.719,0.651,1.08,1.427,1.08,2.327v63.732c0,7.758-1.245,14.525-3.733,20.306c-2.489,5.78-5.848,10.597-10.08,14.45
					c-4.231,3.854-9.157,6.732-14.781,8.632c-5.624,1.901-11.573,2.853-17.845,2.853c-6.271,0-12.219-1.013-17.843-3.04
					c-5.625-2.026-10.552-4.992-14.783-8.895c-4.231-3.904-7.591-8.733-10.08-14.488c-2.49-5.755-3.732-12.36-3.732-19.818v-63.732
					c0-0.799,0.286-1.55,0.859-2.252c0.572-0.7,1.307-1.05,2.204-1.05h15.244c0.748,0,1.519,0.326,2.316,0.975
					c0.797,0.651,1.196,1.427,1.196,2.327V261.659z"/>
				<path d="M610.791,198.752c0.1-0.949,0.473-1.738,1.121-2.364c0.648-0.626,1.469-0.938,2.466-0.938h18.68
					c1.743,0,2.888,0.952,3.437,2.853l26.376,73.866c4.433-12.411,8.879-24.722,13.338-36.933
					c4.458-12.21,8.879-24.521,13.262-36.933c0.697-1.901,1.842-2.853,3.437-2.853h18.754c0.997,0,1.806,0.326,2.429,0.975
					c0.622,0.651,0.958,1.427,1.008,2.327c1.842,17.567,3.711,35.057,5.604,52.473c1.893,17.415,3.786,34.881,5.679,52.396v0.225
					c0,2.052-1.096,3.078-3.288,3.078h-14.496c-2.242,0-3.413-1.1-3.512-3.303l-7.622-71.013l-24.881,69.061
					c-0.25,0.701-0.647,1.351-1.195,1.952c-0.549,0.6-1.121,0.9-1.718,0.9h-13.45c-0.648,0-1.246-0.287-1.793-0.862
					c-0.548-0.576-0.946-1.239-1.195-1.99c-4.085-11.561-8.195-23.046-12.329-34.456c-4.135-11.409-8.293-22.92-12.479-34.53
					l-7.621,70.938c0,2.203-1.147,3.303-3.437,3.303h-14.495c-2.192,0-3.288-1.1-3.288-3.303L610.791,198.752z"/>
				<path d="M744.763,198.978c0-2.352,1.121-3.528,3.363-3.528h42.44c5.032,0,9.664,0.988,13.898,2.965
					c4.232,1.978,7.883,4.616,10.946,7.919c3.064,3.303,5.442,7.094,7.136,11.373c1.693,4.28,2.54,8.746,2.54,13.399
					c0,4.555-0.835,8.946-2.507,13.174c-1.67,4.23-4.015,7.983-7.032,11.261c-3.017,3.278-6.622,5.905-10.811,7.882
					c-4.19,1.977-8.778,2.965-13.766,2.965h-24.614v37.309c0,2.151-1.117,3.227-3.351,3.227h-14.967
					c-2.184,0-3.276-1.076-3.276-3.227V198.978z M803.268,230.994c0-2.056-0.399-4.075-1.198-6.057
					c-0.799-1.981-1.897-3.736-3.295-5.266c-1.397-1.531-3.069-2.771-5.017-3.725c-1.947-0.952-4.068-1.43-6.364-1.43h-21.038
					v32.954h21.038c2.246,0,4.342-0.451,6.29-1.353c1.946-0.903,3.631-2.12,5.054-3.65c1.422-1.529,2.533-3.285,3.332-5.267
					C802.869,235.22,803.268,233.151,803.268,230.994z"/>
				<path d="M843.614,198.752c0-0.9,0.297-1.676,0.893-2.327c0.595-0.649,1.439-0.975,2.533-0.975h14.817
					c0.893,0,1.675,0.289,2.346,0.863c0.67,0.575,1.004,1.389,1.004,2.439v87.604h46.775c0.896,0,1.668,0.313,2.316,0.939
					c0.647,0.625,0.971,1.463,0.971,2.514v13.737c0,0.9-0.299,1.689-0.897,2.365c-0.598,0.675-1.395,1.013-2.391,1.013h-65.092
					c-2.185,0-3.277-1.1-3.277-3.303V198.752z"/>
				<path d="M930.438,198.752c0-0.9,0.273-1.676,0.819-2.327c0.546-0.649,1.364-0.975,2.457-0.975h14.819
					c0.844,0,1.637,0.299,2.381,0.901c0.746,0.6,1.118,1.4,1.118,2.401v104.869c0,2.203-1.168,3.303-3.499,3.303h-14.819
					c-2.184,0-3.276-1.1-3.276-3.303V198.752z"/>
				<path d="M1071.432,251.299c0,5.206-0.674,10.198-2.02,14.976c-1.346,4.779-3.241,9.233-5.684,13.362
					c-2.443,4.128-5.371,7.87-8.786,11.222c-3.415,3.354-7.216,6.219-11.403,8.596c-4.188,2.377-8.687,4.216-13.498,5.517
					c-4.81,1.302-9.832,1.952-15.068,1.952h-35.893c-0.898,0-1.695-0.199-2.393-0.601c-0.698-0.4-1.046-1.25-1.046-2.553V198.978
					c0-2.352,1.146-3.528,3.439-3.528h35.893c7.926,0,15.317,1.438,22.172,4.316c6.855,2.878,12.823,6.831,17.909,11.86
					c5.085,5.031,9.086,10.936,12.002,17.717C1069.974,236.124,1071.432,243.443,1071.432,251.299z M997.236,216.018v70.337h7.099
					c3.735,0,7.472-0.075,11.207-0.225c4.933-0.15,9.49-1.164,13.674-3.043c4.184-1.88,7.808-4.396,10.872-7.552
					c3.063-3.157,5.454-6.851,7.173-11.086c1.719-4.233,2.578-8.78,2.578-13.638c0-5.16-0.934-9.882-2.802-14.166
					c-1.868-4.283-4.422-7.952-7.659-11.009c-3.239-3.055-7.024-5.422-11.357-7.1c-4.334-1.679-8.942-2.519-13.824-2.519H997.236z"
					/>
				<path d="M1087.346,251.299c0-5.254,0.672-10.333,2.017-15.238c1.346-4.904,3.262-9.483,5.754-13.737
					c2.49-4.253,5.466-8.132,8.929-11.636c3.462-3.502,7.309-6.493,11.544-8.971c4.234-2.477,8.779-4.403,13.636-5.779
					c4.858-1.377,9.925-2.065,15.205-2.065c5.231,0,10.275,0.688,15.131,2.065c4.857,1.376,9.402,3.302,13.637,5.779
					c4.234,2.477,8.093,5.468,11.582,8.971c3.486,3.504,6.464,7.383,8.929,11.636c2.466,4.253,4.383,8.832,5.753,13.737
					c1.37,4.905,2.055,10.009,2.055,15.313c0,5.305-0.686,10.386-2.055,15.239c-1.371,4.854-3.287,9.409-5.753,13.663
					c-2.465,4.253-5.443,8.119-8.929,11.597c-3.488,3.479-7.348,6.454-11.582,8.932c-4.234,2.478-8.78,4.392-13.637,5.743
					c-4.856,1.351-9.926,2.026-15.206,2.026c-5.28,0-10.349-0.675-15.205-2.026c-4.858-1.351-9.403-3.277-13.636-5.78
					c-4.235-2.501-8.082-5.491-11.545-8.97c-3.463-3.478-6.426-7.331-8.892-11.56c-2.465-4.228-4.37-8.783-5.716-13.662
					C1088.019,261.696,1087.346,256.604,1087.346,251.299z M1108.94,251.149c0,5.056,0.909,9.785,2.727,14.188
					c1.818,4.405,4.309,8.233,7.472,11.485c3.163,3.253,6.899,5.831,11.209,7.732c4.308,1.902,8.978,2.852,14.01,2.852
					c4.981,0,9.626-0.95,13.936-2.852c4.307-1.901,8.056-4.478,11.246-7.732c3.187-3.252,5.691-7.081,7.51-11.485
					c1.818-4.403,2.727-9.132,2.727-14.188c0-5.003-0.909-9.707-2.727-14.112c-1.819-4.403-4.323-8.245-7.51-11.522
					c-3.19-3.277-6.938-5.867-11.246-7.77c-4.31-1.901-8.955-2.852-13.936-2.852c-5.032,0-9.702,0.951-14.01,2.852
					c-4.309,1.902-8.045,4.492-11.209,7.77c-3.163,3.278-5.653,7.12-7.472,11.522C1109.849,241.442,1108.94,246.146,1108.94,251.149
					z"/>
				<path d="M1284.231,225.176c-0.647,0-1.246-0.161-1.793-0.487c-0.548-0.326-1.171-0.763-1.868-1.314l-0.15-0.075
					c-0.946-0.95-2.167-2.001-3.661-3.153c-1.494-1.15-3.164-2.226-5.006-3.228c-1.843-1-3.823-1.851-5.94-2.552
					c-2.117-0.701-4.271-1.051-6.463-1.051c-2.79,0-5.256,0.313-7.397,0.938c-2.142,0.626-3.935,1.477-5.379,2.552
					c-1.445,1.077-2.541,2.339-3.288,3.79c-0.747,1.453-1.121,3.003-1.121,4.654c0,1.802,0.561,3.378,1.681,4.729
					c1.121,1.352,2.64,2.553,4.558,3.604c1.917,1.051,4.121,2.015,6.612,2.89c2.49,0.876,5.105,1.739,7.846,2.59
					c3.139,0.951,6.252,1.977,9.34,3.077c3.089,1.101,6.04,2.34,8.854,3.716c2.813,1.378,5.441,2.903,7.882,4.579
					c2.44,1.678,4.545,3.604,6.313,5.781c1.768,2.176,3.164,4.604,4.185,7.281c1.021,2.677,1.532,5.693,1.532,9.045
					c0,5.455-1.096,10.385-3.288,14.789c-2.193,4.404-5.219,8.17-9.078,11.297c-3.862,3.128-8.394,5.53-13.599,7.206
					c-5.206,1.676-10.797,2.515-16.775,2.515c-3.836,0-7.646-0.451-11.432-1.351c-3.786-0.901-7.423-2.177-10.909-3.829
					c-3.488-1.651-6.789-3.641-9.9-5.968c-3.114-2.327-5.892-4.941-8.332-7.845v0.075l-0.149-0.3
					c-1.096-1.25-1.644-2.403-1.644-3.454c0-0.55,0.15-1.076,0.448-1.577c0.299-0.499,0.748-1.051,1.345-1.651l2.466-2.478
					c0.748-0.649,1.544-1.375,2.391-2.176c0.847-0.8,1.693-1.526,2.541-2.177c0.847-0.65,1.631-1.201,2.354-1.651
					c0.722-0.45,1.308-0.675,1.756-0.675c0.696,0,1.344,0.226,1.942,0.675c0.598,0.45,1.096,0.876,1.495,1.276l0.298,0.3h-0.073
					c1.742,1.652,3.697,3.228,5.865,4.73c2.166,1.5,4.396,2.84,6.687,4.015c2.291,1.176,4.57,2.102,6.837,2.778
					c2.265,0.676,4.396,1.013,6.388,1.013c2.74,0,5.305-0.349,7.696-1.051c2.392-0.699,4.458-1.689,6.202-2.965
					c1.743-1.276,3.112-2.816,4.109-4.617c0.997-1.801,1.495-3.802,1.495-6.004c0-2.202-0.648-4.091-1.943-5.667
					c-1.296-1.576-2.989-2.952-5.081-4.129c-2.092-1.175-4.445-2.19-7.06-3.04c-2.616-0.851-5.245-1.651-7.884-2.402
					c-6.078-1.852-11.394-3.853-15.952-6.005c-4.558-2.152-8.357-4.566-11.396-7.244c-3.039-2.677-5.318-5.68-6.836-9.009
					c-1.521-3.327-2.279-7.067-2.279-11.222c0-4.654,0.934-8.896,2.802-12.723c1.868-3.829,4.52-7.107,7.958-9.836
					c3.437-2.726,7.571-4.853,12.403-6.379c4.831-1.526,10.237-2.29,16.214-2.29c4.532,0,9.14,0.712,13.823,2.14
					c4.681,1.425,9.016,3.391,13.001,5.893c1.195,0.751,2.416,1.602,3.662,2.552c1.245,0.951,2.391,1.915,3.436,2.89
					c1.047,0.977,1.906,1.927,2.579,2.853c0.672,0.926,1.008,1.715,1.008,2.365c0,0.6-0.149,1.213-0.448,1.839
					c-0.298,0.626-0.672,1.189-1.121,1.689l-2.241,2.402v-0.076c-0.747,0.801-1.52,1.627-2.316,2.477
					c-0.798,0.852-1.595,1.614-2.391,2.29c-0.797,0.675-1.52,1.239-2.167,1.688C1285.227,224.951,1284.679,225.176,1284.231,225.176
					z"/>
			</g>
		</g>
		<g>
			<g>
				<path d="M412.603,148.876l-27.239-66.158v66.058h-6.086V78.106h10.776l25.842,62.749l25.842-62.749h10.776v70.669h-6.086V82.717
					l-27.239,66.158H412.603z"/>
				<path d="M514.773,123.916c0,8.086-2.03,14.468-6.085,19.145c-4.191,5.013-10.244,7.518-18.161,7.518
					c-7.849,0-13.968-2.706-18.359-8.119c-4.19-5.077-6.286-11.661-6.286-19.748c0-7.885,2.061-14.267,6.186-19.146
					c4.39-5.012,10.509-7.518,18.359-7.518c7.716,0,13.77,2.74,18.16,8.22C512.711,109.415,514.773,115.963,514.773,123.916z
					 M472.568,122.664c0,6.602,1.397,11.937,4.191,16.002c3.192,4.668,7.783,7.001,13.769,7.001c6.053,0,10.577-2.133,13.57-6.401
					c2.66-3.667,3.991-8.8,3.991-15.402c0-6.535-1.364-11.868-4.091-16.003c-3.128-4.6-7.651-6.901-13.57-6.901
					c-6.054,0-10.611,2.1-13.669,6.302C473.965,111.063,472.568,116.197,472.568,122.664z M495.517,72.292h6.087l-8.582,12.63
					h-4.889L495.517,72.292z"/>
				<path d="M547.045,96.249c4.908,0,9.748,0.87,14.524,2.606V72.392h6.086v73.877c-6.52,2.807-12.806,4.21-18.858,4.21
					c-7.917,0-14.302-2.64-19.157-7.919c-4.924-5.346-7.384-11.929-7.384-19.747c0-7.818,2.195-14.199,6.586-19.146
					C533.152,98.722,539.219,96.249,547.045,96.249z M547.642,101.161c-6.101,0-10.775,2.104-14.024,6.315
					c-3.118,3.943-4.675,9.056-4.675,15.337c0,6.282,1.857,11.594,5.57,15.938c3.846,4.678,8.819,7.017,14.921,7.017
					c3.449,0,7.493-0.868,12.136-2.606v-39.495C557.259,101.998,552.616,101.161,547.642,101.161z"/>
				<path d="M623.928,98.154v46.512c-10.336,3.943-17.737,5.913-22.205,5.913c-2.8,0-5.367-0.46-7.701-1.381
					c-2.334-0.921-4.317-2.206-5.95-3.859c-1.634-1.651-2.902-3.632-3.801-5.936c-0.901-2.306-1.35-4.862-1.35-7.669v-33.58h6.086
					v33.58c0,2.005,0.331,3.859,0.995,5.563c0.663,1.704,1.574,3.175,2.734,4.41c1.16,1.238,2.55,2.206,4.175,2.908
					c1.625,0.702,3.43,1.052,5.419,1.052c4.84,0,10.009-1.303,15.513-3.91V98.154H623.928z"/>
				<path d="M651.865,150.679c-1.73,0-3.327-0.29-4.789-0.868c-1.464-0.582-2.743-1.399-3.842-2.457
					c-1.098-1.057-1.963-2.288-2.594-3.692c-0.633-1.403-0.948-2.939-0.948-4.611v-66.86h6.087v66.86
					c0,1.739,0.599,3.293,1.795,4.661c1.198,1.371,2.628,2.055,4.29,2.055c2.261,0,4.756-0.734,7.483-2.206v5.276
					C656.954,150.065,654.459,150.679,651.865,150.679z"/>
				<path d="M712.229,123.916c0,8.086-2.03,14.468-6.086,19.145c-4.191,5.013-10.244,7.518-18.159,7.518
					c-7.849,0-13.969-2.706-18.359-8.119c-4.19-5.077-6.286-11.661-6.286-19.748c0-7.885,2.062-14.267,6.187-19.146
					c4.389-5.012,10.509-7.518,18.359-7.518c7.715,0,13.77,2.74,18.159,8.22C710.167,109.415,712.229,115.963,712.229,123.916z
					 M670.024,122.664c0,6.602,1.397,11.937,4.191,16.002c3.193,4.668,7.782,7.001,13.769,7.001c6.052,0,10.576-2.133,13.57-6.401
					c2.66-3.667,3.991-8.8,3.991-15.402c0-6.535-1.365-11.868-4.091-16.003c-3.128-4.6-7.651-6.901-13.57-6.901
					c-6.054,0-10.611,2.1-13.669,6.302C671.421,111.063,670.024,116.197,670.024,122.664z"/>
				<path d="M773.635,96.249c4.908,0,9.748,0.87,14.524,2.606V72.392h6.086v73.877c-6.52,2.807-12.806,4.21-18.857,4.21
					c-7.917,0-14.303-2.64-19.157-7.919c-4.923-5.346-7.384-11.929-7.384-19.747c0-7.818,2.196-14.199,6.586-19.146
					C759.742,98.722,765.81,96.249,773.635,96.249z M774.233,101.161c-6.102,0-10.776,2.104-14.025,6.315
					c-3.119,3.943-4.676,9.056-4.676,15.337c0,6.282,1.857,11.594,5.57,15.938c3.846,4.678,8.82,7.017,14.921,7.017
					c3.448,0,7.493-0.868,12.136-2.606v-39.495C783.848,101.998,779.206,101.161,774.233,101.161z"/>
				<path d="M829.823,96.149c5.337,0,9.875,1.905,13.611,5.714c3.724,3.743,5.587,8.287,5.587,13.632
					c0,3.007-1.051,5.413-3.152,7.217c-2.101,1.805-4.752,2.707-7.953,2.707h-26.112c0.267,5.786,1.936,10.541,5.004,14.264
					c3.269,3.991,7.639,5.984,13.11,5.984c5.335,0,10.673-0.967,16.011-2.906v5.413c-5.205,1.604-10.543,2.405-16.011,2.405
					c-7.939,0-14.009-2.605-18.213-7.818c-3.991-4.878-5.986-11.327-5.986-19.347c0-7.819,1.896-14.167,5.687-19.045
					C815.676,98.89,821.815,96.149,829.823,96.149z M842.935,115.495c0-3.609-1.302-6.917-3.904-9.924
					c-2.603-3.007-5.639-4.51-9.109-4.51c-5.405,0-9.742,1.905-13.014,5.713c-2.936,3.543-4.638,8.12-5.104,13.733h26.127
					c1.334,0,2.502-0.484,3.503-1.454C842.435,118.086,842.935,116.898,842.935,115.495z"/>
			</g>
		</g>
	</g>
	<g>
		<path fill="#C29E9D" d="M262.327,157.696l-45.46-61.422l-21.021,27.25l30.781,41.595c7.73,10.431,7.73,27.357,0,37.799
			l-76.951,103.949c-7.73,10.441-20.26,10.441-27.984,0L44.74,202.918c-7.731-10.441-7.731-27.368,0-37.799l76.952-103.964
			c7.724-10.442,20.254-10.442,27.984,0l7.88,10.642l21.384-26.756l-23.77-32.113c-10.762-14.534-28.212-14.534-38.971,0
			L9.041,157.696c-10.764,14.535-10.764,38.099,0,52.64l107.158,144.763c10.759,14.535,28.21,14.535,38.971,0l107.157-144.763
			C273.089,195.795,273.089,172.231,262.327,157.696z"/>
		<path fill="#C29E9D" d="M114.347,210.301l45.462,61.427l21.02-27.26l-30.782-41.585c-7.729-10.437-7.729-27.364,0-37.804
			l76.95-103.955c7.728-10.436,20.26-10.436,27.987,0l76.951,103.955c7.727,10.44,7.727,27.368,0,37.804l-76.951,103.958
			c-7.727,10.437-20.258,10.437-27.987,0l-7.879-10.643l-21.381,26.021l23.767,32.844c10.763,14.539,28.212,14.539,38.972,0
			l107.159-144.764c10.765-14.53,10.765-38.104,0-52.639L260.476,12.894c-10.76-14.525-28.209-14.525-38.972,0L114.347,157.662
			C103.587,172.197,103.587,195.771,114.347,210.301z"/>
		<path fill="#955654" d="M332.922,201.443L255.24,306.382c-7.727,10.619-19.958,11.411-29.193-0.535l-6.93-9.647l-21.381,26.021
			l23.767,32.658c10.763,14.789,28.212,14.789,38.972,0l95.521-128.856C355.997,226.022,332.035,201.423,332.922,201.443z"/>
		<path fill="#955654" d="M232.948,55.602c0,0-21.822-23.154-23.364-26.604l-66.248,89.497l21.242,26.956l62.419-84.531
			c0.987-1.353,1.976-2.201,3.099-3.216C230.076,57.586,232.965,55.732,232.948,55.602z"/>
		<path fill="#955654" d="M239.145,126.377l-22.279-30.054l-21.021,27.201l22.381,30.246
			C218.014,154.271,239.145,126.377,239.145,126.377z"/>
		<path fill="#955654" d="M126.207,56.586c0,0,4.193-3.275,9.478-3.26c7.658,0.019,12.515,6.104,12.515,6.104l9.356,12.368
			l21.384-26.756L158.086,16.87L126.207,56.586z"/>
	</g>
</g>
</svg>
