<svg version="1.1" id="Layer_1" xmlns="http://www.w3.org/2000/svg" xmlns:xlink="http://www.w3.org/1999/xlink" x="0px" y="0px"
	 width="100%" viewBox="0 0 1304 368" enable-background="new 0 0 1304 368" xml:space="preserve">
<path fill="#FEFEFE" opacity="1.000000" stroke="none" 
	d="
M1.000000,184.000000 
	C1.000000,123.007660 1.000000,62.015316 1.000000,1.017229 
	C435.604462,1.011486 870.208923,1.011486 1304.906738,1.011486 
	C1304.906738,123.588989 1304.906738,246.178070 1304.906738,368.883575 
	C870.333374,368.883575 435.666687,368.883575 1.000005,368.890076 
	C1.000000,308.237549 1.000000,247.578476 1.368605,186.662537 
	C1.583638,197.710419 5.896124,207.377411 12.662000,216.136490 
	C16.361530,220.925888 20.196659,225.614380 23.785524,230.484787 
	C40.237568,252.811707 56.580269,275.219238 73.047379,297.535004 
	C87.983772,317.776367 102.979530,337.974487 118.050583,358.115723 
	C124.989510,367.389069 139.395050,370.710815 148.303162,363.828644 
	C154.252792,359.232147 158.999084,352.867188 163.605591,346.780334 
	C181.464615,323.182007 199.094757,299.409790 216.727280,275.640869 
	C231.625717,255.557587 246.359573,235.352188 261.261200,215.271271 
	C271.857208,200.992447 275.272705,185.433365 268.854980,168.636993 
	C266.573364,162.665588 262.668335,157.204239 258.912720,151.931458 
	C252.887650,143.472366 246.370071,135.364075 239.800385,126.881035 
	C232.415970,117.003685 225.291824,107.352837 217.884979,97.319016 
	C210.638245,106.690506 203.782913,115.555809 196.881866,124.480225 
	C201.411331,130.674347 205.718460,136.751328 210.231613,142.671249 
	C213.301422,146.697937 216.659790,150.504639 219.640900,154.594299 
	C221.787582,158.546005 223.769165,162.669708 226.654358,166.013809 
	C235.538147,176.310562 234.300980,194.562149 226.319458,205.238480 
	C201.294968,238.712051 176.452103,272.321533 151.585922,305.913177 
	C142.949112,317.580627 131.779968,318.444885 123.108719,307.437988 
	C113.803490,295.626343 105.017647,283.403534 96.078056,271.306274 
	C80.359886,250.036163 65.032227,228.466797 48.889053,207.525360 
	C38.771378,194.400375 38.024338,179.038422 45.345581,167.543182 
	C50.606598,159.282745 56.867676,151.653992 62.762093,143.803116 
	C84.753571,114.512291 106.777817,85.246063 129.142563,55.996712 
	C145.635849,49.604004 150.487030,63.841835 158.667206,72.538177 
	C165.516739,64.087326 172.135284,56.019070 178.578247,47.812946 
	C179.186203,47.038628 179.213257,45.010075 178.626617,44.218388 
	C172.134583,35.457012 165.467819,26.825102 159.119354,18.021362 
	C158.606583,16.678701 157.797455,15.488457 157.042908,14.264565 
	C149.955109,2.768002 134.091537,-1.557920 122.960159,7.609503 
	C119.510834,10.450253 116.608078,14.074219 113.897621,17.672909 
	C97.881241,38.938015 81.942032,60.261845 66.079964,81.642410 
	C49.342968,104.202293 32.766357,126.881187 16.025009,149.437820 
	C10.183896,157.307907 4.256693,165.078735 2.439039,175.048767 
	C1.897133,178.021164 1.476304,181.015640 1.000000,184.000000 
M165.746201,146.033035 
	C181.620392,124.590202 197.410049,103.084015 213.410828,81.736076 
	C219.723053,73.314407 226.506012,65.245567 233.862106,56.974060 
	C244.596970,52.190830 250.765991,56.340809 254.965225,61.647385 
	C263.181488,72.030235 270.895233,82.812027 278.771393,93.462410 
	C295.566772,116.173553 312.234833,138.979813 329.163177,161.591263 
	C335.298859,169.786728 339.410431,178.506409 337.869751,188.890930 
	C337.165100,193.640259 335.263275,198.211975 333.185425,202.973953 
	C331.847656,204.941696 330.575500,206.957993 329.161896,208.869629 
	C315.516571,227.322189 301.859802,245.766312 288.181274,264.194244 
	C277.167175,279.032593 266.408478,294.074127 254.964645,308.574219 
	C249.121964,315.977295 242.156845,317.904816 234.174072,312.720245 
	C231.334610,310.876099 228.859467,308.354675 226.556931,305.832977 
	C224.267517,303.325684 222.403915,300.429565 220.053299,297.304749 
	C212.745682,306.183960 205.816025,314.603882 198.737839,323.204315 
	C205.211685,332.101257 211.545319,340.802185 217.874466,349.506317 
	C219.241913,351.386902 220.582550,353.287018 221.953690,355.164886 
	C233.468643,370.935303 250.322723,370.965485 262.008820,355.217712 
	C278.829834,332.550323 295.658051,309.888245 312.434540,287.187958 
	C327.312134,267.057129 342.123291,246.877228 357.644745,226.756195 
	C358.984558,225.118179 360.483093,223.584045 361.635742,221.823471 
	C365.822174,215.428635 371.693451,209.457825 373.648102,202.416245 
	C378.326965,185.560806 378.012512,169.279495 366.029968,154.062439 
	C346.237305,128.927002 327.715424,102.789230 308.721436,77.027092 
	C293.316803,56.133270 278.005127,35.170906 262.652771,14.238539 
	C254.319702,2.876731 239.900803,-1.142091 229.785324,6.288966 
	C221.200073,12.595890 215.125381,21.521759 209.595230,31.460207 
	C195.383072,50.618961 181.128998,69.746819 166.975677,88.948959 
	C159.425262,99.192780 152.048920,109.564896 143.923920,119.939301 
	C143.287369,120.455109 142.512390,120.866989 142.035324,121.502518 
	C136.055908,129.468124 129.969559,137.359741 124.210892,145.483185 
	C117.285187,155.252930 108.926682,164.266418 107.433640,177.005325 
	C106.035698,188.932755 107.062126,200.494904 114.122078,210.468781 
	C125.809288,226.979767 138.041199,243.105759 150.082184,259.365387 
	C153.544479,264.040680 157.139343,268.617798 160.932785,273.579132 
	C167.666306,264.765045 173.882568,256.386505 180.404297,248.252899 
	C182.139420,246.088913 182.089630,244.921265 180.465149,242.778275 
	C172.973267,232.895187 165.519211,222.972305 158.423401,212.804245 
	C154.259903,206.838120 149.567307,200.801498 147.281387,194.061096 
	C143.174057,181.950027 147.287918,171.025452 155.169495,161.224426 
	C158.889267,156.598770 161.840942,151.355469 165.746201,146.033035 
M867.198425,173.301743 
	C860.786194,163.189468 854.401184,153.059692 847.924622,142.988800 
	C847.178894,141.829193 845.941223,140.165909 844.900940,140.143204 
	C834.983765,139.926727 825.059998,140.013962 815.319824,140.013962 
	C815.319824,174.380600 815.319824,208.115906 815.319824,241.679352 
	C823.385315,241.679352 831.126831,241.679352 839.357300,241.679352 
	C839.357300,218.578476 839.357300,195.799484 839.357300,172.059601 
	C853.366150,194.783615 866.783142,216.590088 880.281799,238.345856 
	C881.157349,239.756882 882.620483,241.766174 883.880066,241.818619 
	C891.622559,242.141022 899.385254,241.980225 907.048401,241.980225 
	C907.048401,207.693405 907.048401,174.073654 907.048401,140.222794 
	C899.306946,140.222794 891.734802,140.222794 883.669556,140.222794 
	C883.669556,159.459915 883.669556,178.471939 883.669556,197.483963 
	C883.379761,197.562286 883.089966,197.640610 882.800171,197.718918 
	C877.751953,189.768646 872.703674,181.818375 867.198425,173.301743 
M476.241943,173.419556 
	C469.989960,154.570648 453.598206,142.034027 432.755157,140.997025 
	C417.468658,140.236481 402.141174,140.293777 386.831421,140.016647 
	C385.578308,139.993958 384.320984,140.202942 383.320618,140.283691 
	C383.320618,174.415894 383.320618,208.135544 383.320618,241.042694 
	C400.273773,241.042694 416.955658,241.885010 433.515076,240.820999 
	C452.516083,239.600113 466.720337,229.817474 474.651581,212.165619 
	C480.182739,199.855362 480.264160,187.040848 476.241943,173.419556 
M493.204834,190.547211 
	C493.410736,201.658966 495.088806,212.441925 501.230957,221.988327 
	C511.876648,238.534317 528.074585,244.008896 546.685608,243.777069 
	C559.212097,243.621063 570.888245,240.524475 580.945740,232.270386 
	C601.716675,215.223801 601.755005,177.288925 589.068787,158.939682 
	C578.109558,143.088303 562.177612,137.948792 544.002869,138.235748 
	C528.083740,138.487122 513.894592,143.256119 503.676270,156.457687 
	C496.112701,166.229416 493.713165,177.627213 493.204834,190.547211 
M1203.497681,197.223877 
	C1199.606934,193.483170 1196.237549,188.825272 1191.689819,186.240036 
	C1186.320679,183.187759 1180.002930,181.681549 1173.967896,179.954590 
	C1166.966431,177.951080 1159.676147,176.863983 1152.825439,174.476974 
	C1150.418457,173.638290 1147.568970,170.224472 1147.404419,167.816727 
	C1147.218750,165.103485 1149.482666,161.928040 1151.367920,159.483170 
	C1152.426025,158.111099 1154.802979,157.495987 1156.704224,157.075562 
	C1171.379883,153.830490 1184.602051,157.580673 1196.879761,165.676895 
	C1198.319458,166.626297 1199.839355,167.453964 1202.154297,168.834229 
	C1202.154297,161.364960 1202.015137,154.928253 1202.218384,148.502396 
	C1202.307495,145.685944 1201.503174,144.116821 1198.644775,143.645340 
	C1187.553101,141.815826 1176.522461,138.904404 1165.370728,138.339813 
	C1152.784546,137.702621 1140.593750,140.710907 1130.444458,149.153427 
	C1115.155884,161.870926 1116.969360,185.469788 1134.465820,194.893723 
	C1140.776489,198.292816 1148.065796,199.960251 1155.015991,202.062012 
	C1161.180420,203.926147 1167.732056,204.718399 1173.633057,207.148605 
	C1176.275146,208.236694 1178.742554,211.917938 1179.497192,214.879074 
	C1180.475708,218.718704 1177.576660,221.697540 1174.084961,223.506042 
	C1172.777466,224.183243 1171.340698,224.730148 1169.899536,225.011658 
	C1153.403687,228.234100 1138.709961,223.782745 1125.167236,214.432327 
	C1123.678589,213.404541 1122.010010,212.637299 1119.781494,211.388687 
	C1119.781494,219.073807 1120.003662,225.730743 1119.685669,232.361786 
	C1119.531860,235.570862 1120.924561,236.656586 1123.570190,237.637100 
	C1135.236450,241.960754 1147.317871,244.023132 1159.684204,243.843140 
	C1169.855469,243.695084 1179.880005,242.300278 1189.057495,237.259888 
	C1204.196045,228.945541 1209.910156,213.892517 1203.497681,197.223877 
M1074.500000,241.998062 
	C1083.732788,241.998062 1092.965576,241.998062 1102.062012,241.998062 
	C1102.062012,234.965378 1102.062012,228.684875 1102.062012,221.903519 
	C1086.320679,221.903519 1070.768311,221.903519 1055.318359,221.903519 
	C1055.318359,213.324097 1055.318359,205.255249 1055.318359,196.803452 
	C1070.025513,196.803452 1084.434204,196.803452 1098.746582,196.803452 
	C1098.746582,190.006088 1098.746582,183.605835 1098.746582,176.809753 
	C1084.042847,176.809753 1069.638306,176.809753 1055.324951,176.809753 
	C1055.324951,170.999146 1055.324951,165.598373 1055.324951,159.879547 
	C1071.056519,159.879547 1086.489990,159.879547 1102.039551,159.879547 
	C1102.039551,153.158112 1102.039551,146.763519 1102.039551,140.306580 
	C1077.604736,140.306580 1053.394165,140.306580 1029.293213,140.306580 
	C1029.293213,174.338638 1029.293213,208.065216 1029.293213,241.998062 
	C1044.222900,241.998062 1058.861450,241.998062 1074.500000,241.998062 
M789.395020,222.008026 
	C774.648926,222.008026 759.902893,222.008026 745.362061,222.008026 
	C745.362061,213.256561 745.362061,205.186523 745.362061,196.735107 
	C760.106873,196.735107 774.515991,196.735107 788.705566,196.735107 
	C788.705566,189.930832 788.705566,183.526047 788.705566,176.735260 
	C773.964905,176.735260 759.561035,176.735260 745.362793,176.735260 
	C745.362793,170.920395 745.362793,165.514618 745.362793,159.817566 
	C761.139771,159.817566 776.580017,159.817566 792.006836,159.817566 
	C792.006836,153.105804 792.006836,146.709579 792.006836,140.339752 
	C767.531067,140.339752 743.323975,140.339752 719.326233,140.339752 
	C719.326233,174.406311 719.326233,208.133316 719.326233,241.765793 
	C743.751038,241.765793 767.849243,241.765793 792.251526,241.765793 
	C792.251526,235.742813 792.317566,229.946259 792.168762,224.155167 
	C792.150024,223.424683 791.001953,222.723221 789.395020,222.008026 
M673.833679,158.237991 
	C682.476990,162.393845 691.120300,166.549683 700.004456,170.821335 
	C700.004456,164.078644 699.827026,157.422485 700.082153,150.782959 
	C700.202637,147.647125 699.136902,146.121582 696.295410,144.833420 
	C686.751587,140.506836 676.714722,138.334152 666.357849,138.193344 
	C641.441711,137.854630 621.459595,148.529785 614.534180,173.653046 
	C611.571533,184.400665 611.519287,195.327972 613.884521,206.217606 
	C617.502136,222.873062 626.835754,234.807236 643.250916,240.343170 
	C662.007690,246.668793 680.231445,244.344284 697.841553,235.918274 
	C698.858093,235.431870 699.877441,233.751373 699.908020,232.600357 
	C700.097168,225.485184 700.003113,218.362457 700.003113,210.296936 
	C697.991150,211.422607 696.613953,212.109833 695.322266,212.931458 
	C691.546265,215.333389 687.956055,218.072952 684.022339,220.173477 
	C668.430176,228.499603 643.197266,225.250107 639.538025,198.148056 
	C636.612366,176.479507 646.108337,155.321671 673.833679,158.237991 
M955.865601,168.561005 
	C955.865601,192.968369 955.865601,217.375732 955.865601,241.750229 
	C964.731140,241.750229 972.981384,241.750229 981.668701,241.750229 
	C981.668701,214.442062 981.668701,187.388489 981.668701,159.786896 
	C992.470032,159.786896 1002.839294,159.786896 1013.080872,159.786896 
	C1013.080872,152.953354 1013.080872,146.674011 1013.080872,140.256104 
	C983.322876,140.256104 953.769348,140.256104 924.203064,140.256104 
	C924.203064,146.918640 924.203064,153.318802 924.203064,160.183380 
	C934.854675,160.183380 945.251221,160.183380 955.865601,160.183380 
	C955.865601,162.962509 955.865601,165.272934 955.865601,168.561005 
M453.751312,58.513103 
	C453.751312,72.440834 453.751312,86.368568 453.751312,100.625534 
	C455.924835,100.488823 457.494171,100.390121 458.879211,100.303001 
	C458.879211,76.772217 458.879211,53.705925 458.879211,30.676044 
	C449.191925,29.748230 449.180298,29.743401 445.655426,38.221771 
	C442.089447,46.799030 438.547119,55.386112 434.999237,63.970867 
	C431.098053,73.410492 427.202301,82.852364 422.993866,93.044876 
	C422.180328,91.394638 421.731995,90.603294 421.387573,89.769073 
	C414.303162,72.610512 407.218323,55.452106 400.160950,38.282413 
	C396.757172,30.001429 396.782410,29.987196 387.783447,30.414719 
	C387.503418,30.428020 387.235809,30.702438 386.820557,30.934336 
	C386.820557,53.949524 386.820557,77.027794 386.820557,100.295654 
	C388.625641,100.295654 390.190948,100.295654 392.379639,100.295654 
	C392.379639,78.824860 392.379639,57.601089 392.379639,36.377316 
	C401.495514,56.380260 409.730560,76.472229 417.972473,96.561378 
	C418.918304,98.866859 419.773376,101.765022 423.049805,100.568474 
	C424.849396,99.911270 426.911896,98.314056 427.632141,96.620308 
	C434.249176,81.060204 440.591034,65.383171 447.029694,49.747059 
	C448.831665,45.371021 450.688782,41.017696 452.520630,36.653957 
	C452.930878,36.715721 453.341095,36.777481 453.751343,36.839245 
	C453.751343,43.732838 453.751343,50.626427 453.751312,58.513103 
M978.164795,324.495544 
	C978.164795,329.594788 978.164795,334.694031 978.164795,339.669952 
	C982.697754,339.669952 986.596802,339.669952 990.751465,339.669952 
	C990.751465,336.677155 990.751526,334.032715 990.751526,331.388245 
	C990.751526,328.827759 990.751465,326.267273 990.751465,323.208618 
	C992.725952,323.972168 993.918945,324.516113 995.161316,324.900513 
	C1003.378479,327.443298 1011.591431,324.975891 1015.787842,318.029877 
	C1021.099121,309.238556 1021.177490,299.850067 1016.172119,291.016296 
	C1014.590698,288.225220 1010.873352,286.121460 1007.676453,284.881317 
	C1001.679321,282.554962 996.402954,285.495453 991.153809,289.106934 
	C990.857727,287.539429 990.637207,286.371490 990.434509,285.298218 
	C986.268860,285.298218 982.357788,285.298218 978.164795,285.298218 
	C978.164795,298.239288 978.164795,310.868347 978.164795,324.495544 
M902.501587,324.998505 
	C909.599609,324.998505 916.697693,324.998505 923.769897,324.998505 
	C923.769897,321.399384 923.769897,318.331848 923.769897,314.815460 
	C915.452576,314.815460 907.392700,314.815460 899.452393,314.815460 
	C899.452393,309.955170 899.452393,305.562561 899.452393,300.770294 
	C907.197388,300.770294 914.614868,300.770294 921.772095,300.770294 
	C921.772095,297.285309 921.772095,294.213806 921.772095,290.725281 
	C914.033875,290.725281 906.632751,290.725281 899.311890,290.725281 
	C899.311890,287.670624 899.311890,285.062714 899.311890,282.015137 
	C907.559448,282.015137 915.627441,282.015137 923.826416,282.015137 
	C923.826416,278.502106 923.826416,275.435608 923.826416,272.336975 
	C911.089233,272.336975 898.564636,272.336975 886.257812,272.336975 
	C886.257812,290.057556 886.257812,307.440887 886.257812,324.998505 
	C891.552246,324.998505 896.527649,324.998505 902.501587,324.998505 
M402.822998,288.714081 
	C402.230255,286.992188 401.629761,285.272949 401.045990,283.548004 
	C397.016724,271.642181 397.017792,271.639374 384.515198,272.072296 
	C384.257812,272.081207 384.009033,272.337128 383.349701,272.704041 
	C389.677124,290.040619 396.021301,307.423004 402.438751,325.006256 
	C406.431458,325.006256 410.258545,324.838470 414.062439,325.063293 
	C416.747681,325.221985 417.742218,324.082275 418.589691,321.675812 
	C422.994354,309.168365 427.616364,296.737457 432.151581,284.275848 
	C433.588135,280.328613 434.990417,276.368896 436.522858,272.095703 
	C431.605042,272.095703 427.454498,272.095703 423.102448,272.095703 
	C418.901886,284.212524 414.702209,296.326752 410.050903,309.743683 
	C407.431000,302.155182 405.241333,295.812866 402.822998,288.714081 
M1031.367432,290.908508 
	C1021.335144,304.530426 1026.472778,321.435364 1041.833008,324.846008 
	C1050.443604,326.757904 1058.948242,326.062103 1067.061035,322.524628 
	C1067.061035,319.012451 1067.061035,315.630646 1067.061035,312.056427 
	C1052.878418,320.187744 1040.526245,318.377380 1039.291870,307.815918 
	C1048.914917,307.815918 1058.491699,307.815918 1068.118896,307.815918 
	C1068.118896,305.222260 1068.198608,303.061371 1068.104492,300.908051 
	C1067.769409,293.241211 1063.750732,287.178864 1057.040405,285.389648 
	C1047.961914,282.969025 1039.250244,283.613007 1031.367432,290.908508 
M646.767700,325.065338 
	C653.520325,327.066895 659.445190,324.996399 665.131897,320.873596 
	C665.503052,322.518921 665.776550,323.731201 666.017517,324.799194 
	C670.091553,324.799194 673.868103,324.799194 677.955200,324.799194 
	C677.955200,315.482269 678.243958,306.358673 677.861633,297.263336 
	C677.568665,290.294098 674.167358,286.643341 667.372681,285.177826 
	C658.816223,283.332275 650.338501,284.104401 642.006104,286.317383 
	C642.006104,289.659027 642.006104,292.627441 642.006104,295.632812 
	C659.300476,291.461090 663.823486,292.074982 665.280212,298.836182 
	C659.721375,299.681702 654.102295,300.232147 648.632874,301.453156 
	C643.060852,302.697052 638.941895,305.920807 638.387390,312.137573 
	C637.851013,318.150879 640.591492,322.336548 646.767700,325.065338 
M1167.843872,294.846375 
	C1168.484741,296.057617 1169.125610,297.268860 1170.050537,299.017120 
	C1166.922729,299.353638 1164.608521,299.488403 1162.336426,299.872070 
	C1158.266724,300.559296 1154.080811,300.973145 1150.201294,302.271790 
	C1144.651855,304.129578 1141.918823,308.764526 1142.318726,314.196625 
	C1142.742432,319.949860 1146.239746,323.862061 1152.025879,325.306671 
	C1158.367065,326.889832 1163.736816,324.667633 1169.032471,320.911102 
	C1169.489990,322.480530 1169.861206,323.753510 1170.137573,324.701782 
	C1174.338989,324.701782 1178.090576,324.701782 1182.005371,324.701782 
	C1182.005371,315.762390 1182.152710,307.126190 1181.962402,298.497467 
	C1181.784180,290.420593 1178.040894,285.726868 1170.139893,285.077148 
	C1162.182983,284.422821 1154.125244,284.994202 1146.097168,285.028564 
	C1146.097168,289.538971 1146.097168,292.607452 1146.097168,295.934753 
	C1153.156982,293.252411 1160.006104,291.485229 1167.843872,294.846375 
M600.351868,325.010773 
	C602.663879,325.277069 604.057251,324.861206 603.932251,321.916779 
	C603.699524,316.432343 603.862122,310.931152 603.861450,305.436920 
	C603.860657,298.679932 603.861267,291.922943 603.861267,285.346619 
	C599.289368,285.346619 595.386658,285.346619 591.259094,285.346619 
	C591.259094,294.007080 591.427734,302.318390 591.111633,310.611206 
	C591.051025,312.201630 589.418762,314.508636 587.939331,315.136108 
	C580.946350,318.102234 576.806641,315.605103 576.463257,308.098358 
	C576.115295,300.491608 576.386475,292.856567 576.386475,285.284485 
	C571.938110,285.284485 568.022705,285.284485 563.911194,285.284485 
	C563.911194,287.560272 563.908997,289.540619 563.911560,291.520935 
	C563.920715,298.513519 563.735535,305.513245 563.989441,312.496948 
	C564.336487,322.040283 571.237854,327.463104 580.529541,325.407745 
	C583.516541,324.747040 586.254883,322.962097 589.107178,321.692078 
	C589.672913,321.440216 590.239990,321.191467 590.883667,320.907166 
	C591.175720,322.389832 591.417236,323.615631 591.692139,325.010864 
	C594.446167,325.010864 596.931091,325.010864 600.351868,325.010773 
M848.088562,308.506744 
	C848.073486,304.680786 848.261353,300.841034 848.002930,297.031586 
	C847.378662,287.830109 840.516296,282.587494 831.496582,284.618958 
	C828.506470,285.292419 825.755005,287.027283 822.896240,288.280792 
	C822.326660,288.530518 821.764771,288.797852 821.088379,289.107910 
	C820.822327,287.622955 820.602539,286.396484 820.412781,285.337463 
	C816.168884,285.337463 812.272705,285.337463 808.500549,285.337463 
	C808.500549,298.738495 808.500549,311.787262 808.500549,324.642639 
	C812.739258,324.642639 816.637085,324.642639 820.746887,324.642639 
	C820.746887,316.307404 821.024048,308.327026 820.634705,300.379303 
	C820.427185,296.142700 822.485596,294.740814 825.922241,294.130219 
	C832.398743,292.979492 834.983154,294.724274 835.313965,301.447937 
	C835.695557,309.205200 835.402710,316.995667 835.402710,324.714844 
	C840.065125,324.714844 843.977112,324.714844 848.088562,324.714844 
	C848.088562,319.446381 848.088562,314.474548 848.088562,308.506744 
M481.742340,312.485168 
	C481.742554,307.992340 481.616364,303.493622 481.824158,299.010406 
	C481.882446,297.752350 482.589355,296.030670 483.567566,295.389496 
	C489.627472,291.417542 495.903259,294.217560 496.283173,301.309784 
	C496.699524,309.081909 496.377960,316.893555 496.377960,324.762848 
	C500.961548,324.762848 504.872009,324.762848 509.030029,324.762848 
	C509.030029,315.230652 509.381073,305.928040 508.929626,296.664551 
	C508.492523,287.695282 501.436066,282.598633 492.623444,284.593964 
	C489.484772,285.304657 486.611816,287.183014 483.610687,288.512787 
	C483.178375,288.704315 482.707184,288.808075 482.048737,289.017853 
	C481.839569,287.669800 481.650696,286.452393 481.469574,285.285065 
	C477.270935,285.285065 473.363739,285.285065 469.455017,285.285065 
	C469.455017,298.636932 469.455017,311.688995 469.455017,324.694153 
	C473.649658,324.694153 477.549530,324.694153 481.742340,324.694153 
	C481.742340,320.744507 481.742340,317.109802 481.742340,312.485168 
M768.321838,285.564484 
	C759.266602,289.031189 755.080017,295.567688 755.395386,305.746033 
	C755.694031,315.382233 760.348328,322.535828 768.771179,324.524872 
	C773.326904,325.600739 778.352722,325.621826 783.032166,325.039337 
	C792.292297,323.886688 797.800293,317.052765 798.783630,306.660492 
	C799.684937,297.135803 795.098267,288.276611 786.648621,286.076050 
	C781.075317,284.624573 774.922974,285.396912 768.321838,285.564484 
M944.871826,285.033447 
	C943.774780,285.404175 942.650208,285.709229 941.585327,286.156464 
	C935.636047,288.655121 932.629272,292.818329 932.869751,298.152924 
	C933.107422,303.425201 936.564087,307.225250 942.965210,308.928833 
	C946.157715,309.778442 949.520447,310.044983 952.645508,311.066864 
	C954.236572,311.587097 955.472168,313.194580 956.868408,314.310577 
	C955.272644,315.190918 953.579651,316.959808 952.097900,316.797729 
	C945.688965,316.096771 939.341858,314.831116 932.915405,313.761414 
	C932.915405,315.979767 932.915405,319.259705 932.915405,322.514587 
	C943.594666,327.156830 956.886902,326.932983 964.105957,322.061951 
	C968.221008,319.285278 970.011230,315.531738 969.385986,310.553772 
	C968.786194,305.778503 965.809204,303.176117 961.532104,301.942657 
	C958.202393,300.982391 954.649292,300.742950 951.385559,299.627106 
	C949.282898,298.908203 947.524109,297.183441 945.611267,295.909454 
	C947.664490,294.949310 949.795715,293.047089 951.756104,293.209290 
	C957.191650,293.659058 962.556091,294.968628 968.007812,295.949066 
	C968.007812,295.177246 967.760742,293.793671 968.051025,292.533966 
	C969.233887,287.400787 966.329529,285.500458 962.036072,285.221527 
	C956.605408,284.868683 951.143433,284.996582 944.871826,285.033447 
M757.718750,64.370735 
	C753.834656,77.458427 756.817200,89.603180 766.190613,96.931679 
	C775.958313,104.568398 786.677551,102.821793 797.508606,99.533226 
	C800.464417,98.635796 801.174011,97.076744 801.158264,94.154488 
	C801.039062,72.024155 801.096130,49.892887 801.086792,27.761915 
	C801.086365,26.829250 800.973633,25.896633 800.913269,24.964544 
	C798.913208,24.964544 797.313538,24.964544 795.342590,24.964544 
	C795.342590,33.651455 795.342590,42.084499 795.342590,50.567314 
	C771.682373,46.777187 764.619934,49.271397 757.718750,64.370735 
M571.624207,99.142845 
	C572.522034,97.497879 574.188293,95.858994 574.201355,94.207024 
	C574.375427,72.220001 574.322388,50.231133 574.304443,28.242739 
	C574.303589,27.153540 574.106079,26.064501 573.993530,24.907892 
	C572.193665,24.907892 570.744751,24.907892 568.778564,24.907892 
	C568.778564,33.594406 568.778564,42.126358 568.778564,50.928276 
	C566.317017,50.308357 564.430969,49.669262 562.492554,49.373310 
	C553.601685,48.015877 544.826111,47.584351 537.534424,54.264149 
	C529.683105,61.456577 527.169739,75.305992 531.610779,86.233849 
	C535.813660,96.575684 544.624451,102.510742 556.266541,102.043266 
	C561.160950,101.846733 566.002686,100.339157 571.624207,99.142845 
M555.214294,290.685608 
	C555.631409,288.192047 554.812561,286.260376 552.160461,286.063507 
	C545.953308,285.602753 539.576233,284.427338 533.541626,285.343506 
	C524.313538,286.744446 519.315430,293.555328 518.513428,303.255615 
	C517.716431,312.894958 521.566528,320.152588 529.644653,323.527679 
	C537.150818,326.663818 544.871460,326.528381 552.498352,323.920715 
	C553.604187,323.542664 554.946594,322.088959 555.085510,320.994232 
	C555.449402,318.126160 555.208252,315.181335 555.208252,311.981567 
	C545.208191,317.842896 538.534180,318.506653 534.321289,314.314850 
	C530.518372,310.531006 529.623169,301.630402 533.438171,297.157806 
	C540.518860,288.856689 547.862915,293.744263 555.213867,298.178619 
	C555.213867,295.556671 555.213867,293.567261 555.214294,290.685608 
M1078.805664,318.607086 
	C1085.111938,326.395111 1099.463135,327.458710 1108.928223,323.743774 
	C1109.895508,323.364197 1111.001709,322.004517 1111.102783,321.004456 
	C1111.394897,318.117645 1111.206055,315.182220 1111.206055,311.981079 
	C1101.227905,317.825745 1094.472534,318.505432 1090.287109,314.340179 
	C1086.629639,310.700378 1085.635010,302.193054 1089.214111,297.581116 
	C1096.194458,288.586304 1103.713867,293.795502 1110.982178,297.973999 
	C1111.739502,286.073761 1111.593872,285.596222 1100.197998,284.461639 
	C1091.427856,283.588379 1082.879272,285.041229 1077.778320,293.187286 
	C1072.691284,301.311218 1073.053345,309.884796 1078.805664,318.607086 
M699.015869,286.290192 
	C690.678162,289.975433 687.356628,296.743469 687.401245,305.463837 
	C687.440674,313.182709 690.274109,319.532074 697.504272,322.993713 
	C705.364868,326.757172 713.567383,326.654449 721.715881,323.837494 
	C722.721619,323.489838 723.994507,322.212433 724.092529,321.257874 
	C724.400208,318.262085 724.205750,315.214783 724.205750,311.727783 
	C714.969360,317.898773 707.357666,318.611115 703.127930,314.137848 
	C699.408752,310.204590 698.706665,301.270142 702.593018,296.942902 
	C709.708984,289.019958 716.894409,293.591339 724.210876,298.313354 
	C724.210876,295.865936 723.934387,294.017548 724.264832,292.284882 
	C725.121521,287.792999 722.809753,286.151367 718.888611,285.268097 
	C712.404663,283.807526 706.051941,283.817230 699.015869,286.290192 
M519.104492,62.573528 
	C513.142883,50.903461 505.215759,46.829227 492.256592,48.774731 
	C481.993896,50.315426 475.425415,57.162621 473.676056,69.152328 
	C473.019226,73.654083 473.255707,78.454163 474.015015,82.961548 
	C475.930359,94.331612 484.988831,101.956749 496.112549,102.205650 
	C509.450165,102.504097 518.365479,96.687737 520.415894,84.361282 
	C521.541077,77.597176 519.775146,70.352150 519.104492,62.573528 
M714.686890,58.934086 
	C708.304077,49.013279 698.901367,46.750042 688.125488,49.027725 
	C678.420471,51.079044 673.136414,57.910286 671.322144,67.258438 
	C670.510986,71.437874 670.642212,75.895836 670.963745,80.181015 
	C671.829041,91.711830 680.745789,101.172745 691.240356,102.120323 
	C705.033752,103.365776 714.725586,97.493629 717.813110,85.688080 
	C720.162781,76.703926 719.551880,67.901482 714.686890,58.934086 
M820.191345,54.680267 
	C817.867371,59.721684 814.488953,64.547722 813.407288,69.842896 
	C809.367188,89.621231 820.871948,102.855110 840.825195,102.115318 
	C843.461975,102.017555 846.080627,101.443481 848.708679,101.097359 
	C852.130554,100.646713 853.833740,99.066254 852.448669,95.440613 
	C829.174500,100.358139 819.070679,94.939339 819.070923,77.130623 
	C827.872742,77.130623 836.682129,77.250214 845.486511,77.090790 
	C851.920044,76.974289 856.570740,72.644104 855.751648,66.855629 
	C855.194214,62.916477 853.751953,58.623016 851.368774,55.511719 
	C844.233093,46.195999 830.776978,45.868626 820.191345,54.680267 
M628.761597,293.500153 
	C628.761597,285.405212 628.761597,277.310272 628.761597,269.300720 
	C624.227234,269.300720 620.319397,269.300720 616.456177,269.300720 
	C616.456177,288.004639 616.456177,306.384186 616.456177,324.697510 
	C620.667419,324.697510 624.570190,324.697510 628.761536,324.697510 
	C628.761536,314.417175 628.761536,304.458679 628.761597,293.500153 
M1206.762329,292.500183 
	C1206.762329,284.739441 1206.762329,276.978668 1206.762329,269.304504 
	C1202.225464,269.304504 1198.320068,269.304504 1194.458496,269.304504 
	C1194.458496,288.008850 1194.458496,306.384277 1194.458496,324.693726 
	C1198.670288,324.693726 1202.570557,324.693726 1206.762329,324.693726 
	C1206.762329,314.078064 1206.762329,303.789124 1206.762329,292.500183 
M591.659912,50.305973 
	C591.098450,51.119499 590.055359,51.928860 590.048340,52.747173 
	C589.954712,63.578442 589.550110,74.436310 590.149536,85.236115 
	C590.762207,96.273689 598.444153,103.029221 609.532410,102.028839 
	C616.668640,101.385002 623.638489,98.897202 630.524414,97.273247 
	C630.524414,81.110962 630.524414,65.858162 630.524414,50.503727 
	C628.614685,50.503727 627.016724,50.503727 624.945129,50.503727 
	C624.945129,61.822224 624.944946,72.946548 624.945190,84.070869 
	C624.945435,95.421570 624.946106,95.423988 613.685486,97.567307 
	C613.033813,97.691338 612.366638,97.745743 611.704041,97.799118 
	C602.172729,98.567070 596.099792,93.062622 596.035645,83.468903 
	C595.969910,73.636520 595.934937,63.802223 596.071228,53.971325 
	C596.108582,51.277515 595.530579,49.798512 591.659912,50.305973 
M1132.755249,323.146606 
	C1132.755249,310.547760 1132.755249,297.948944 1132.755249,285.240173 
	C1128.334229,285.240173 1124.430664,285.240173 1120.413208,285.240173 
	C1120.413208,298.556793 1120.413208,311.609924 1120.413208,325.420685 
	C1124.719727,324.951233 1128.702515,324.517090 1132.755249,323.146606 
M745.757935,303.500793 
	C745.757935,297.402008 745.757935,291.303223 745.757935,285.295197 
	C741.224304,285.295197 737.315674,285.295197 733.451538,285.295197 
	C733.451538,298.667053 733.451538,311.718597 733.451538,324.702759 
	C737.658936,324.702759 741.561584,324.702759 745.757935,324.702759 
	C745.757935,317.758209 745.757935,311.129303 745.757935,303.500793 
M445.785919,284.990479 
	C445.252167,285.482208 444.255646,285.970825 444.252319,286.466156 
	C444.166748,299.217010 444.184692,311.968597 444.184692,324.717896 
	C448.634308,324.717896 452.534546,324.717896 456.456299,324.717896 
	C456.456299,311.357391 456.456299,298.304169 456.456299,284.978577 
	C453.018677,284.978577 449.873108,284.978577 445.785919,284.990479 
M652.488647,55.500275 
	C652.488647,45.234440 652.488647,34.968609 652.488647,24.400352 
	C650.225952,24.528782 648.650024,24.618229 646.910828,24.716944 
	C646.910828,46.641415 646.884521,68.129547 646.923401,89.617561 
	C646.939575,98.530243 652.583008,103.267578 661.533752,102.165939 
	C665.089844,101.728249 667.257751,100.507973 665.727417,96.450951 
	C654.744080,99.528725 652.492554,97.752014 652.489563,85.997017 
	C652.487061,76.164780 652.488770,66.332535 652.488647,55.500275 
M780.831787,264.990784 
	C779.405762,265.488495 777.390808,265.556488 776.658386,266.560272 
	C773.874878,270.375122 771.505859,274.492462 768.870361,278.673676 
	C776.574768,279.348419 785.449463,273.093964 788.697144,264.991455 
	C786.335327,264.991455 784.021667,264.991455 780.831787,264.990784 
M454.349823,278.998871 
	C455.255585,278.237854 456.808746,277.575378 456.942535,276.696808 
	C457.305603,274.312103 457.067078,271.835785 457.067078,269.300262 
	C452.466431,269.300262 448.270874,269.300262 444.207886,269.300262 
	C444.207886,272.667297 444.207886,275.729584 444.207886,278.999237 
	C447.461578,278.999237 450.422943,278.999237 454.349823,278.998871 
M732.916565,273.521301 
	C732.916565,275.270935 732.916565,277.020569 732.916565,278.777466 
	C737.580444,278.777466 741.651550,278.777466 745.869751,278.777466 
	C745.869751,275.498383 745.869751,272.441895 745.869751,269.002411 
	C742.402283,269.002411 739.107239,269.216034 735.853577,268.940979 
	C732.739929,268.677795 732.735352,270.426666 732.916565,273.521301 
M1125.533447,269.001495 
	C1123.760498,269.001495 1121.987549,269.001495 1120.140381,269.001495 
	C1120.140381,272.536072 1120.140381,275.592316 1120.140381,278.672668 
	C1124.565796,278.672668 1128.759399,278.672668 1132.743164,278.672668 
	C1132.743164,275.276886 1132.743164,272.215454 1132.743164,269.001495 
	C1130.442627,269.001495 1128.469604,269.001495 1125.533447,269.001495 
M501.290222,26.722048 
	C499.458588,29.928829 497.626953,33.135609 495.271942,37.258705 
	C503.466736,36.032711 503.796600,28.991821 507.738159,25.352169 
	C507.483154,24.923862 507.228149,24.495554 506.973145,24.067247 
	C505.216187,24.751703 503.459198,25.436159 501.290222,26.722048 
z"/>
<path fill="#12A5C7" opacity="1.000000" stroke="none" 
	d="
M1.000000,184.333328 
	C1.476304,181.015640 1.897133,178.021164 2.439039,175.048767 
	C4.256693,165.078735 10.183896,157.307907 16.025009,149.437820 
	C32.766357,126.881187 49.342968,104.202293 66.079964,81.642410 
	C81.942032,60.261845 97.881241,38.938015 113.897621,17.672909 
	C116.608078,14.074219 119.510834,10.450253 122.960159,7.609503 
	C134.091537,-1.557920 149.955109,2.768002 157.042908,14.264565 
	C157.797455,15.488457 158.606583,16.678701 158.833267,18.147552 
	C148.447342,30.930571 138.618561,43.450588 128.789764,55.970604 
	C106.777817,85.246063 84.753571,114.512291 62.762093,143.803116 
	C56.867676,151.653992 50.606598,159.282745 45.345581,167.543182 
	C38.024338,179.038422 38.771378,194.400375 48.889053,207.525360 
	C65.032227,228.466797 80.359886,250.036163 96.078056,271.306274 
	C105.017647,283.403534 113.803490,295.626343 123.108719,307.437988 
	C131.779968,318.444885 142.949112,317.580627 151.585922,305.913177 
	C176.452103,272.321533 201.294968,238.712051 226.319458,205.238480 
	C234.300980,194.562149 235.538147,176.310562 226.654358,166.013809 
	C223.769165,162.669708 221.787582,158.546005 219.884766,154.330261 
	C221.052261,152.957230 221.725189,152.030991 222.403549,151.108719 
	C228.288681,143.107910 234.174805,135.107819 240.060638,127.107529 
	C246.370071,135.364075 252.887650,143.472366 258.912720,151.931458 
	C262.668335,157.204239 266.573364,162.665588 268.854980,168.636993 
	C275.272705,185.433365 271.857208,200.992447 261.261200,215.271271 
	C246.359573,235.352188 231.625717,255.557587 216.727280,275.640869 
	C199.094757,299.409790 181.464615,323.182007 163.605591,346.780334 
	C158.999084,352.867188 154.252792,359.232147 148.303162,363.828644 
	C139.395050,370.710815 124.989510,367.389069 118.050583,358.115723 
	C102.979530,337.974487 87.983772,317.776367 73.047379,297.535004 
	C56.580269,275.219238 40.237568,252.811707 23.785524,230.484787 
	C20.196659,225.614380 16.361530,220.925888 12.662000,216.136490 
	C5.896124,207.377411 1.583638,197.710419 1.368605,186.202820 
	C1.000000,185.555557 1.000000,185.111099 1.000000,184.333328 
z"/>
<path fill="#12A5C7" opacity="1.000000" stroke="none" 
	d="
M333.904419,202.864243 
	C335.263275,198.211975 337.165100,193.640259 337.869751,188.890930 
	C339.410431,178.506409 335.298859,169.786728 329.163177,161.591263 
	C312.234833,138.979813 295.566772,116.173553 278.771393,93.462410 
	C270.895233,82.812027 263.181488,72.030235 254.965225,61.647385 
	C250.765991,56.340809 244.596970,52.190830 233.409332,56.652672 
	C225.328064,47.876957 217.699600,39.422634 210.071136,30.968311 
	C215.125381,21.521759 221.200073,12.595890 229.785324,6.288966 
	C239.900803,-1.142091 254.319702,2.876731 262.652771,14.238539 
	C278.005127,35.170906 293.316803,56.133270 308.721436,77.027092 
	C327.715424,102.789230 346.237305,128.927002 366.029968,154.062439 
	C378.012512,169.279495 378.326965,185.560806 373.648102,202.416245 
	C371.693451,209.457825 365.822174,215.428635 361.635742,221.823471 
	C360.483093,223.584045 358.984558,225.118179 357.077972,226.516403 
	C348.975616,218.472488 341.440002,210.668365 333.904419,202.864243 
z"/>
<path fill="#146AC9" opacity="1.000000" stroke="none" 
	d="
M333.544922,202.919098 
	C341.440002,210.668365 348.975616,218.472488 356.737488,226.497803 
	C342.123291,246.877228 327.312134,267.057129 312.434540,287.187958 
	C295.658051,309.888245 278.829834,332.550323 262.008820,355.217712 
	C250.322723,370.965485 233.468643,370.935303 221.953690,355.164886 
	C220.582550,353.287018 219.241913,351.386902 217.874466,349.506317 
	C211.545319,340.802185 205.211685,332.101257 198.737839,323.204315 
	C205.816025,314.603882 212.745682,306.183960 220.053299,297.304749 
	C222.403915,300.429565 224.267517,303.325684 226.556931,305.832977 
	C228.859467,308.354675 231.334610,310.876099 234.174072,312.720245 
	C242.156845,317.904816 249.121964,315.977295 254.964645,308.574219 
	C266.408478,294.074127 277.167175,279.032593 288.181274,264.194244 
	C301.859802,245.766312 315.516571,227.322189 329.161896,208.869629 
	C330.575500,206.957993 331.847656,204.941696 333.544922,202.919098 
z"/>
<path fill="#010101" opacity="1.000000" stroke="none" 
	d="
M867.426880,173.584930 
	C872.703674,181.818375 877.751953,189.768646 882.800171,197.718918 
	C883.089966,197.640610 883.379761,197.562286 883.669556,197.483963 
	C883.669556,178.471939 883.669556,159.459915 883.669556,140.222794 
	C891.734802,140.222794 899.306946,140.222794 907.048401,140.222794 
	C907.048401,174.073654 907.048401,207.693405 907.048401,241.980225 
	C899.385254,241.980225 891.622559,242.141022 883.880066,241.818619 
	C882.620483,241.766174 881.157349,239.756882 880.281799,238.345856 
	C866.783142,216.590088 853.366150,194.783615 839.357300,172.059601 
	C839.357300,195.799484 839.357300,218.578476 839.357300,241.679352 
	C831.126831,241.679352 823.385315,241.679352 815.319824,241.679352 
	C815.319824,208.115906 815.319824,174.380600 815.319824,140.013962 
	C825.059998,140.013962 834.983765,139.926727 844.900940,140.143204 
	C845.941223,140.165909 847.178894,141.829193 847.924622,142.988800 
	C854.401184,153.059692 860.786194,163.189468 867.426880,173.584930 
z"/>
<path fill="#010101" opacity="1.000000" stroke="none" 
	d="
M476.417969,173.782761 
	C480.264160,187.040848 480.182739,199.855362 474.651581,212.165619 
	C466.720337,229.817474 452.516083,239.600113 433.515076,240.820999 
	C416.955658,241.885010 400.273773,241.042694 383.320618,241.042694 
	C383.320618,208.135544 383.320618,174.415894 383.320618,140.283691 
	C384.320984,140.202942 385.578308,139.993958 386.831421,140.016647 
	C402.141174,140.293777 417.468658,140.236481 432.755157,140.997025 
	C453.598206,142.034027 469.989960,154.570648 476.417969,173.782761 
M433.430969,160.890472 
	C425.462433,160.004578 417.493896,159.118668 409.260498,158.203323 
	C409.260498,180.508347 409.260498,201.546005 409.260498,222.810791 
	C415.398285,222.810791 421.383911,223.271729 427.273224,222.714554 
	C439.420654,221.565292 448.437561,213.356033 450.945709,201.281525 
	C451.845856,196.948074 452.005615,192.382935 451.912689,187.935883 
	C451.649719,175.349854 446.232849,165.979156 433.430969,160.890472 
z"/>
<path fill="#030303" opacity="1.000000" stroke="none" 
	d="
M493.220825,190.088501 
	C493.713165,177.627213 496.112701,166.229416 503.676270,156.457687 
	C513.894592,143.256119 528.083740,138.487122 544.002869,138.235748 
	C562.177612,137.948792 578.109558,143.088303 589.068787,158.939682 
	C601.755005,177.288925 601.716675,215.223801 580.945740,232.270386 
	C570.888245,240.524475 559.212097,243.621063 546.685608,243.777069 
	C528.074585,244.008896 511.876648,238.534317 501.230957,221.988327 
	C495.088806,212.441925 493.410736,201.658966 493.220825,190.088501 
M566.982300,211.310593 
	C572.343262,198.466339 572.439514,185.423416 567.710999,172.489197 
	C563.781128,161.739960 555.815918,156.810303 544.178772,157.004608 
	C534.440063,157.167206 526.746094,162.993164 523.063416,173.091766 
	C519.372681,183.212296 519.036438,193.621002 521.479065,203.970734 
	C523.952820,214.452591 529.470215,222.706512 540.975281,224.782562 
	C552.158447,226.800507 560.466492,222.489960 566.982300,211.310593 
z"/>
<path fill="#030303" opacity="1.000000" stroke="none" 
	d="
M1203.682861,197.563614 
	C1209.910156,213.892517 1204.196045,228.945541 1189.057495,237.259888 
	C1179.880005,242.300278 1169.855469,243.695084 1159.684204,243.843140 
	C1147.317871,244.023132 1135.236450,241.960754 1123.570190,237.637100 
	C1120.924561,236.656586 1119.531860,235.570862 1119.685669,232.361786 
	C1120.003662,225.730743 1119.781494,219.073807 1119.781494,211.388687 
	C1122.010010,212.637299 1123.678589,213.404541 1125.167236,214.432327 
	C1138.709961,223.782745 1153.403687,228.234100 1169.899536,225.011658 
	C1171.340698,224.730148 1172.777466,224.183243 1174.084961,223.506042 
	C1177.576660,221.697540 1180.475708,218.718704 1179.497192,214.879074 
	C1178.742554,211.917938 1176.275146,208.236694 1173.633057,207.148605 
	C1167.732056,204.718399 1161.180420,203.926147 1155.015991,202.062012 
	C1148.065796,199.960251 1140.776489,198.292816 1134.465820,194.893723 
	C1116.969360,185.469788 1115.155884,161.870926 1130.444458,149.153427 
	C1140.593750,140.710907 1152.784546,137.702621 1165.370728,138.339813 
	C1176.522461,138.904404 1187.553101,141.815826 1198.644775,143.645340 
	C1201.503174,144.116821 1202.307495,145.685944 1202.218384,148.502396 
	C1202.015137,154.928253 1202.154297,161.364960 1202.154297,168.834229 
	C1199.839355,167.453964 1198.319458,166.626297 1196.879761,165.676895 
	C1184.602051,157.580673 1171.379883,153.830490 1156.704224,157.075562 
	C1154.802979,157.495987 1152.426025,158.111099 1151.367920,159.483170 
	C1149.482666,161.928040 1147.218750,165.103485 1147.404419,167.816727 
	C1147.568970,170.224472 1150.418457,173.638290 1152.825439,174.476974 
	C1159.676147,176.863983 1166.966431,177.951080 1173.967896,179.954590 
	C1180.002930,181.681549 1186.320679,183.187759 1191.689819,186.240036 
	C1196.237549,188.825272 1199.606934,193.483170 1203.682861,197.563614 
z"/>
<path fill="#000000" opacity="1.000000" stroke="none" 
	d="
M1074.000000,241.998062 
	C1058.861450,241.998062 1044.222900,241.998062 1029.293213,241.998062 
	C1029.293213,208.065216 1029.293213,174.338638 1029.293213,140.306580 
	C1053.394165,140.306580 1077.604736,140.306580 1102.039551,140.306580 
	C1102.039551,146.763519 1102.039551,153.158112 1102.039551,159.879547 
	C1086.489990,159.879547 1071.056519,159.879547 1055.324951,159.879547 
	C1055.324951,165.598373 1055.324951,170.999146 1055.324951,176.809753 
	C1069.638306,176.809753 1084.042847,176.809753 1098.746582,176.809753 
	C1098.746582,183.605835 1098.746582,190.006088 1098.746582,196.803452 
	C1084.434204,196.803452 1070.025513,196.803452 1055.318359,196.803452 
	C1055.318359,205.255249 1055.318359,213.324097 1055.318359,221.903519 
	C1070.768311,221.903519 1086.320679,221.903519 1102.062012,221.903519 
	C1102.062012,228.684875 1102.062012,234.965378 1102.062012,241.998062 
	C1092.965576,241.998062 1083.732788,241.998062 1074.000000,241.998062 
z"/>
<path fill="#000000" opacity="1.000000" stroke="none" 
	d="
M789.886108,222.008163 
	C791.001953,222.723221 792.150024,223.424683 792.168762,224.155167 
	C792.317566,229.946259 792.251526,235.742813 792.251526,241.765793 
	C767.849243,241.765793 743.751038,241.765793 719.326233,241.765793 
	C719.326233,208.133316 719.326233,174.406311 719.326233,140.339752 
	C743.323975,140.339752 767.531067,140.339752 792.006836,140.339752 
	C792.006836,146.709579 792.006836,153.105804 792.006836,159.817566 
	C776.580017,159.817566 761.139771,159.817566 745.362793,159.817566 
	C745.362793,165.514618 745.362793,170.920395 745.362793,176.735260 
	C759.561035,176.735260 773.964905,176.735260 788.705566,176.735260 
	C788.705566,183.526047 788.705566,189.930832 788.705566,196.735107 
	C774.515991,196.735107 760.106873,196.735107 745.362061,196.735107 
	C745.362061,205.186523 745.362061,213.256561 745.362061,222.008026 
	C759.902893,222.008026 774.648926,222.008026 789.886108,222.008163 
z"/>
<path fill="#12A5C7" opacity="1.000000" stroke="none" 
	d="
M165.140640,146.392029 
	C161.840942,151.355469 158.889267,156.598770 155.169495,161.224426 
	C147.287918,171.025452 143.174057,181.950027 147.281387,194.061096 
	C149.567307,200.801498 154.259903,206.838120 158.423401,212.804245 
	C165.519211,222.972305 172.973267,232.895187 180.465149,242.778275 
	C182.089630,244.921265 182.139420,246.088913 180.404297,248.252899 
	C173.882568,256.386505 167.666306,264.765045 160.932785,273.579132 
	C157.139343,268.617798 153.544479,264.040680 150.082184,259.365387 
	C138.041199,243.105759 125.809288,226.979767 114.122078,210.468781 
	C107.062126,200.494904 106.035698,188.932755 107.433640,177.005325 
	C108.926682,164.266418 117.285187,155.252930 124.210892,145.483185 
	C129.969559,137.359741 136.055908,129.468124 142.035324,121.502518 
	C142.512390,120.866989 143.287369,120.455109 144.494141,120.183235 
	C151.756439,129.082123 158.448547,137.737076 165.140640,146.392029 
z"/>
<path fill="#030303" opacity="1.000000" stroke="none" 
	d="
M673.396423,158.188202 
	C646.108337,155.321671 636.612366,176.479507 639.538025,198.148056 
	C643.197266,225.250107 668.430176,228.499603 684.022339,220.173477 
	C687.956055,218.072952 691.546265,215.333389 695.322266,212.931458 
	C696.613953,212.109833 697.991150,211.422607 700.003113,210.296936 
	C700.003113,218.362457 700.097168,225.485184 699.908020,232.600357 
	C699.877441,233.751373 698.858093,235.431870 697.841553,235.918274 
	C680.231445,244.344284 662.007690,246.668793 643.250916,240.343170 
	C626.835754,234.807236 617.502136,222.873062 613.884521,206.217606 
	C611.519287,195.327972 611.571533,184.400665 614.534180,173.653046 
	C621.459595,148.529785 641.441711,137.854630 666.357849,138.193344 
	C676.714722,138.334152 686.751587,140.506836 696.295410,144.833420 
	C699.136902,146.121582 700.202637,147.647125 700.082153,150.782959 
	C699.827026,157.422485 700.004456,164.078644 700.004456,170.821335 
	C691.120300,166.549683 682.476990,162.393845 673.396423,158.188202 
z"/>
<path fill="#020202" opacity="1.000000" stroke="none" 
	d="
M955.865601,168.072174 
	C955.865601,165.272934 955.865601,162.962509 955.865601,160.183380 
	C945.251221,160.183380 934.854675,160.183380 924.203064,160.183380 
	C924.203064,153.318802 924.203064,146.918640 924.203064,140.256104 
	C953.769348,140.256104 983.322876,140.256104 1013.080872,140.256104 
	C1013.080872,146.674011 1013.080872,152.953354 1013.080872,159.786896 
	C1002.839294,159.786896 992.470032,159.786896 981.668701,159.786896 
	C981.668701,187.388489 981.668701,214.442062 981.668701,241.750229 
	C972.981384,241.750229 964.731140,241.750229 955.865601,241.750229 
	C955.865601,217.375732 955.865601,192.968369 955.865601,168.072174 
z"/>
<path fill="#146AC9" opacity="1.000000" stroke="none" 
	d="
M165.443420,146.212524 
	C158.448547,137.737076 151.756439,129.082123 144.829193,120.153145 
	C152.048920,109.564896 159.425262,99.192780 166.975677,88.948959 
	C181.128998,69.746819 195.383072,50.618961 209.833191,31.214260 
	C217.699600,39.422634 225.328064,47.876957 233.015579,56.673679 
	C226.506012,65.245567 219.723053,73.314407 213.410828,81.736076 
	C197.410049,103.084015 181.620392,124.590202 165.443420,146.212524 
z"/>
<path fill="#080808" opacity="1.000000" stroke="none" 
	d="
M453.751343,58.016563 
	C453.751343,50.626427 453.751343,43.732838 453.751343,36.839245 
	C453.341095,36.777481 452.930878,36.715721 452.520630,36.653957 
	C450.688782,41.017696 448.831665,45.371021 447.029694,49.747059 
	C440.591034,65.383171 434.249176,81.060204 427.632141,96.620308 
	C426.911896,98.314056 424.849396,99.911270 423.049805,100.568474 
	C419.773376,101.765022 418.918304,98.866859 417.972473,96.561378 
	C409.730560,76.472229 401.495514,56.380260 392.379639,36.377316 
	C392.379639,57.601089 392.379639,78.824860 392.379639,100.295654 
	C390.190948,100.295654 388.625641,100.295654 386.820557,100.295654 
	C386.820557,77.027794 386.820557,53.949524 386.820557,30.934336 
	C387.235809,30.702438 387.503418,30.428020 387.783447,30.414719 
	C396.782410,29.987196 396.757172,30.001429 400.160950,38.282413 
	C407.218323,55.452106 414.303162,72.610512 421.387573,89.769073 
	C421.731995,90.603294 422.180328,91.394638 422.993866,93.044876 
	C427.202301,82.852364 431.098053,73.410492 434.999237,63.970867 
	C438.547119,55.386112 442.089447,46.799030 445.655426,38.221771 
	C449.180298,29.743401 449.191925,29.748230 458.879211,30.676044 
	C458.879211,53.705925 458.879211,76.772217 458.879211,100.303001 
	C457.494171,100.390121 455.924835,100.488823 453.751312,100.625534 
	C453.751312,86.368568 453.751312,72.440834 453.751343,58.016563 
z"/>
<path fill="#090909" opacity="1.000000" stroke="none" 
	d="
M978.164795,323.996460 
	C978.164795,310.868347 978.164795,298.239288 978.164795,285.298218 
	C982.357788,285.298218 986.268860,285.298218 990.434509,285.298218 
	C990.637207,286.371490 990.857727,287.539429 991.153809,289.106934 
	C996.402954,285.495453 1001.679321,282.554962 1007.676453,284.881317 
	C1010.873352,286.121460 1014.590698,288.225220 1016.172119,291.016296 
	C1021.177490,299.850067 1021.099121,309.238556 1015.787842,318.029877 
	C1011.591431,324.975891 1003.378479,327.443298 995.161316,324.900513 
	C993.918945,324.516113 992.725952,323.972168 990.751465,323.208618 
	C990.751465,326.267273 990.751526,328.827759 990.751526,331.388245 
	C990.751526,334.032715 990.751465,336.677155 990.751465,339.669952 
	C986.596802,339.669952 982.697754,339.669952 978.164795,339.669952 
	C978.164795,334.694031 978.164795,329.594788 978.164795,323.996460 
M1001.684998,294.294067 
	C999.223022,294.343658 996.695496,294.076538 994.324829,294.567200 
	C993.002502,294.840881 990.970520,296.326935 990.920227,297.348389 
	C990.606506,303.726532 990.761963,310.127777 990.761963,316.397705 
	C999.829102,317.722809 1003.628418,316.478699 1005.659058,311.856354 
	C1008.327576,305.782288 1006.937622,298.469788 1001.684998,294.294067 
z"/>
<path fill="#000000" opacity="1.000000" stroke="none" 
	d="
M902.002319,324.998505 
	C896.527649,324.998505 891.552246,324.998505 886.257812,324.998505 
	C886.257812,307.440887 886.257812,290.057556 886.257812,272.336975 
	C898.564636,272.336975 911.089233,272.336975 923.826416,272.336975 
	C923.826416,275.435608 923.826416,278.502106 923.826416,282.015137 
	C915.627441,282.015137 907.559448,282.015137 899.311890,282.015137 
	C899.311890,285.062714 899.311890,287.670624 899.311890,290.725281 
	C906.632751,290.725281 914.033875,290.725281 921.772095,290.725281 
	C921.772095,294.213806 921.772095,297.285309 921.772095,300.770294 
	C914.614868,300.770294 907.197388,300.770294 899.452393,300.770294 
	C899.452393,305.562561 899.452393,309.955170 899.452393,314.815460 
	C907.392700,314.815460 915.452576,314.815460 923.769897,314.815460 
	C923.769897,318.331848 923.769897,321.399384 923.769897,324.998505 
	C916.697693,324.998505 909.599609,324.998505 902.002319,324.998505 
z"/>
<path fill="#040404" opacity="1.000000" stroke="none" 
	d="
M402.937317,289.092346 
	C405.241333,295.812866 407.431000,302.155182 410.050903,309.743683 
	C414.702209,296.326752 418.901886,284.212524 423.102448,272.095703 
	C427.454498,272.095703 431.605042,272.095703 436.522858,272.095703 
	C434.990417,276.368896 433.588135,280.328613 432.151581,284.275848 
	C427.616364,296.737457 422.994354,309.168365 418.589691,321.675812 
	C417.742218,324.082275 416.747681,325.221985 414.062439,325.063293 
	C410.258545,324.838470 406.431458,325.006256 402.438751,325.006256 
	C396.021301,307.423004 389.677124,290.040619 383.349701,272.704041 
	C384.009033,272.337128 384.257812,272.081207 384.515198,272.072296 
	C397.017792,271.639374 397.016724,271.642181 401.045990,283.548004 
	C401.629761,285.272949 402.230255,286.992188 402.937317,289.092346 
z"/>
<path fill="#156AC8" opacity="1.000000" stroke="none" 
	d="
M239.800385,126.881027 
	C234.174805,135.107819 228.288681,143.107910 222.403549,151.108719 
	C221.725189,152.030991 221.052261,152.957230 220.132965,154.145676 
	C216.659790,150.504639 213.301422,146.697937 210.231613,142.671249 
	C205.718460,136.751328 201.411331,130.674347 196.881866,124.480225 
	C203.782913,115.555809 210.638245,106.690506 217.884979,97.319016 
	C225.291824,107.352837 232.415970,117.003685 239.800385,126.881027 
z"/>
<path fill="#156AC8" opacity="1.000000" stroke="none" 
	d="
M129.142563,55.996712 
	C138.618561,43.450588 148.447342,30.930571 158.562225,18.284363 
	C165.467819,26.825102 172.134583,35.457012 178.626617,44.218388 
	C179.213257,45.010075 179.186203,47.038628 178.578247,47.812946 
	C172.135284,56.019070 165.516739,64.087326 158.667206,72.538177 
	C150.487030,63.841835 145.635849,49.604004 129.142563,55.996712 
z"/>
<path fill="#050505" opacity="1.000000" stroke="none" 
	d="
M1031.625000,290.648926 
	C1039.250244,283.613007 1047.961914,282.969025 1057.040405,285.389648 
	C1063.750732,287.178864 1067.769409,293.241211 1068.104492,300.908051 
	C1068.198608,303.061371 1068.118896,305.222260 1068.118896,307.815918 
	C1058.491699,307.815918 1048.914917,307.815918 1039.291870,307.815918 
	C1040.526245,318.377380 1052.878418,320.187744 1067.061035,312.056427 
	C1067.061035,315.630646 1067.061035,319.012451 1067.061035,322.524628 
	C1058.948242,326.062103 1050.443604,326.757904 1041.833008,324.846008 
	C1026.472778,321.435364 1021.335144,304.530426 1031.625000,290.648926 
M1054.798218,299.960632 
	C1055.135986,299.513336 1055.813354,299.019440 1055.759399,298.625916 
	C1055.175049,294.368134 1052.189575,292.556976 1046.378540,293.036682 
	C1042.289795,293.374207 1039.344849,295.047729 1039.214355,300.004059 
	C1044.339966,300.004059 1049.128784,300.004059 1054.798218,299.960632 
z"/>
<path fill="#050505" opacity="1.000000" stroke="none" 
	d="
M646.388916,324.956573 
	C640.591492,322.336548 637.851013,318.150879 638.387390,312.137573 
	C638.941895,305.920807 643.060852,302.697052 648.632874,301.453156 
	C654.102295,300.232147 659.721375,299.681702 665.280212,298.836182 
	C663.823486,292.074982 659.300476,291.461090 642.006104,295.632812 
	C642.006104,292.627441 642.006104,289.659027 642.006104,286.317383 
	C650.338501,284.104401 658.816223,283.332275 667.372681,285.177826 
	C674.167358,286.643341 677.568665,290.294098 677.861633,297.263336 
	C678.243958,306.358673 677.955200,315.482269 677.955200,324.799194 
	C673.868103,324.799194 670.091553,324.799194 666.017517,324.799194 
	C665.776550,323.731201 665.503052,322.518921 665.131897,320.873596 
	C659.445190,324.996399 653.520325,327.066895 646.388916,324.956573 
M659.204346,316.990936 
	C666.064392,315.624542 666.710815,314.529236 664.843140,306.583374 
	C661.186523,307.236511 657.374878,307.545929 653.862366,308.737274 
	C652.556152,309.180359 651.110901,311.779541 651.268555,313.227875 
	C651.416565,314.587067 653.453186,315.959595 654.938477,316.869629 
	C655.786865,317.389374 657.194092,316.997131 659.204346,316.990936 
z"/>
<path fill="#050505" opacity="1.000000" stroke="none" 
	d="
M1167.498779,294.583862 
	C1160.006104,291.485229 1153.156982,293.252411 1146.097168,295.934753 
	C1146.097168,292.607452 1146.097168,289.538971 1146.097168,285.028564 
	C1154.125244,284.994202 1162.182983,284.422821 1170.139893,285.077148 
	C1178.040894,285.726868 1181.784180,290.420593 1181.962402,298.497467 
	C1182.152710,307.126190 1182.005371,315.762390 1182.005371,324.701782 
	C1178.090576,324.701782 1174.338989,324.701782 1170.137573,324.701782 
	C1169.861206,323.753510 1169.489990,322.480530 1169.032471,320.911102 
	C1163.736816,324.667633 1158.367065,326.889832 1152.025879,325.306671 
	C1146.239746,323.862061 1142.742432,319.949860 1142.318726,314.196625 
	C1141.918823,308.764526 1144.651855,304.129578 1150.201294,302.271790 
	C1154.080811,300.973145 1158.266724,300.559296 1162.336426,299.872070 
	C1164.608521,299.488403 1166.922729,299.353638 1170.050537,299.017120 
	C1169.125610,297.268860 1168.484741,296.057617 1167.498779,294.583862 
M1169.581543,313.790314 
	C1169.581543,311.682190 1169.581543,309.574066 1169.581543,306.536011 
	C1165.317139,307.280273 1161.398193,307.599884 1157.767334,308.794830 
	C1156.490356,309.215088 1155.075317,311.895721 1155.270874,313.333832 
	C1155.455078,314.689392 1157.740601,316.840027 1158.986816,316.763855 
	C1162.450806,316.551971 1165.854980,315.363922 1169.581543,313.790314 
z"/>
<path fill="#070707" opacity="1.000000" stroke="none" 
	d="
M599.883911,325.010803 
	C596.931091,325.010864 594.446167,325.010864 591.692139,325.010864 
	C591.417236,323.615631 591.175720,322.389832 590.883667,320.907166 
	C590.239990,321.191467 589.672913,321.440216 589.107178,321.692078 
	C586.254883,322.962097 583.516541,324.747040 580.529541,325.407745 
	C571.237854,327.463104 564.336487,322.040283 563.989441,312.496948 
	C563.735535,305.513245 563.920715,298.513519 563.911560,291.520935 
	C563.908997,289.540619 563.911194,287.560272 563.911194,285.284485 
	C568.022705,285.284485 571.938110,285.284485 576.386475,285.284485 
	C576.386475,292.856567 576.115295,300.491608 576.463257,308.098358 
	C576.806641,315.605103 580.946350,318.102234 587.939331,315.136108 
	C589.418762,314.508636 591.051025,312.201630 591.111633,310.611206 
	C591.427734,302.318390 591.259094,294.007080 591.259094,285.346619 
	C595.386658,285.346619 599.289368,285.346619 603.861267,285.346619 
	C603.861267,291.922943 603.860657,298.679932 603.861450,305.436920 
	C603.862122,310.931152 603.699524,316.432343 603.932251,321.916779 
	C604.057251,324.861206 602.663879,325.277069 599.883911,325.010803 
z"/>
<path fill="#070707" opacity="1.000000" stroke="none" 
	d="
M848.088562,309.004730 
	C848.088562,314.474548 848.088562,319.446381 848.088562,324.714844 
	C843.977112,324.714844 840.065125,324.714844 835.402710,324.714844 
	C835.402710,316.995667 835.695557,309.205200 835.313965,301.447937 
	C834.983154,294.724274 832.398743,292.979492 825.922241,294.130219 
	C822.485596,294.740814 820.427185,296.142700 820.634705,300.379303 
	C821.024048,308.327026 820.746887,316.307404 820.746887,324.642639 
	C816.637085,324.642639 812.739258,324.642639 808.500549,324.642639 
	C808.500549,311.787262 808.500549,298.738495 808.500549,285.337463 
	C812.272705,285.337463 816.168884,285.337463 820.412781,285.337463 
	C820.602539,286.396484 820.822327,287.622955 821.088379,289.107910 
	C821.764771,288.797852 822.326660,288.530518 822.896240,288.280792 
	C825.755005,287.027283 828.506470,285.292419 831.496582,284.618958 
	C840.516296,282.587494 847.378662,287.830109 848.002930,297.031586 
	C848.261353,300.841034 848.073486,304.680786 848.088562,309.004730 
z"/>
<path fill="#070707" opacity="1.000000" stroke="none" 
	d="
M481.742340,312.980133 
	C481.742340,317.109802 481.742340,320.744507 481.742340,324.694153 
	C477.549530,324.694153 473.649658,324.694153 469.455017,324.694153 
	C469.455017,311.688995 469.455017,298.636932 469.455017,285.285065 
	C473.363739,285.285065 477.270935,285.285065 481.469574,285.285065 
	C481.650696,286.452393 481.839569,287.669800 482.048737,289.017853 
	C482.707184,288.808075 483.178375,288.704315 483.610687,288.512787 
	C486.611816,287.183014 489.484772,285.304657 492.623444,284.593964 
	C501.436066,282.598633 508.492523,287.695282 508.929626,296.664551 
	C509.381073,305.928040 509.030029,315.230652 509.030029,324.762848 
	C504.872009,324.762848 500.961548,324.762848 496.377960,324.762848 
	C496.377960,316.893555 496.699524,309.081909 496.283173,301.309784 
	C495.903259,294.217560 489.627472,291.417542 483.567566,295.389496 
	C482.589355,296.030670 481.882446,297.752350 481.824158,299.010406 
	C481.616364,303.493622 481.742554,307.992340 481.742340,312.980133 
z"/>
<path fill="#060606" opacity="1.000000" stroke="none" 
	d="
M768.675842,285.369019 
	C774.922974,285.396912 781.075317,284.624573 786.648621,286.076050 
	C795.098267,288.276611 799.684937,297.135803 798.783630,306.660492 
	C797.800293,317.052765 792.292297,323.886688 783.032166,325.039337 
	C778.352722,325.621826 773.326904,325.600739 768.771179,324.524872 
	C760.348328,322.535828 755.694031,315.382233 755.395386,305.746033 
	C755.080017,295.567688 759.266602,289.031189 768.675842,285.369019 
M780.629028,316.653503 
	C786.315796,312.477600 787.865723,301.140564 783.500732,295.648956 
	C780.845581,292.308502 774.564392,291.876373 771.385681,294.815460 
	C768.055481,297.894684 767.044861,306.839813 769.392456,312.310120 
	C771.454041,317.113831 775.470215,317.387299 780.629028,316.653503 
z"/>
<path fill="#060606" opacity="1.000000" stroke="none" 
	d="
M945.283447,284.975281 
	C951.143433,284.996582 956.605408,284.868683 962.036072,285.221527 
	C966.329529,285.500458 969.233887,287.400787 968.051025,292.533966 
	C967.760742,293.793671 968.007812,295.177246 968.007812,295.949066 
	C962.556091,294.968628 957.191650,293.659058 951.756104,293.209290 
	C949.795715,293.047089 947.664490,294.949310 945.611267,295.909485 
	C947.524109,297.183441 949.282898,298.908203 951.385559,299.627106 
	C954.649292,300.742950 958.202393,300.982391 961.532104,301.942657 
	C965.809204,303.176117 968.786194,305.778503 969.385986,310.553772 
	C970.011230,315.531738 968.221008,319.285278 964.105957,322.061951 
	C956.886902,326.932983 943.594666,327.156830 932.915405,322.514587 
	C932.915405,319.259705 932.915405,315.979767 932.915405,313.761414 
	C939.341858,314.831116 945.688965,316.096771 952.097900,316.797729 
	C953.579651,316.959808 955.272644,315.190918 956.868408,314.310608 
	C955.472168,313.194580 954.236572,311.587097 952.645508,311.066864 
	C949.520447,310.044983 946.157715,309.778442 942.965210,308.928833 
	C936.564087,307.225250 933.107422,303.425201 932.869751,298.152924 
	C932.629272,292.818329 935.636047,288.655121 941.585327,286.156464 
	C942.650208,285.709229 943.774780,285.404175 945.283447,284.975281 
z"/>
<path fill="#0D0D0D" opacity="1.000000" stroke="none" 
	d="
M757.805786,63.985825 
	C764.619934,49.271397 771.682373,46.777187 795.342590,50.567314 
	C795.342590,42.084499 795.342590,33.651455 795.342590,24.964544 
	C797.313538,24.964544 798.913208,24.964544 800.913269,24.964544 
	C800.973633,25.896633 801.086365,26.829250 801.086792,27.761915 
	C801.096130,49.892887 801.039062,72.024155 801.158264,94.154488 
	C801.174011,97.076744 800.464417,98.635796 797.508606,99.533226 
	C786.677551,102.821793 775.958313,104.568398 766.190613,96.931679 
	C756.817200,89.603180 753.834656,77.458427 757.805786,63.985825 
M772.704773,95.032715 
	C778.483887,98.800919 784.641235,98.294037 790.962463,96.808914 
	C794.139221,96.062561 795.582458,94.723396 795.462830,91.081856 
	C795.151489,81.602692 795.354675,72.106606 795.353760,62.617268 
	C795.352966,54.935463 795.353699,54.935463 787.918762,53.455025 
	C775.790161,51.040012 766.884949,55.643772 763.577881,66.038704 
	C760.120605,76.905769 763.198425,87.320648 772.704773,95.032715 
z"/>
<path fill="#060606" opacity="1.000000" stroke="none" 
	d="
M571.246338,99.285217 
	C566.002686,100.339157 561.160950,101.846733 556.266541,102.043266 
	C544.624451,102.510742 535.813660,96.575684 531.610779,86.233849 
	C527.169739,75.305992 529.683105,61.456577 537.534424,54.264149 
	C544.826111,47.584351 553.601685,48.015877 562.492554,49.373310 
	C564.430969,49.669262 566.317017,50.308357 568.778564,50.928276 
	C568.778564,42.126358 568.778564,33.594406 568.778564,24.907892 
	C570.744751,24.907892 572.193665,24.907892 573.993530,24.907892 
	C574.106079,26.064501 574.303589,27.153540 574.304443,28.242739 
	C574.322388,50.231133 574.375427,72.220001 574.201355,94.207024 
	C574.188293,95.858994 572.522034,97.497879 571.246338,99.285217 
M544.024597,93.575241 
	C551.206177,99.433258 559.066528,98.688118 567.061890,95.794273 
	C567.852539,95.508095 568.770142,94.182030 568.777527,93.331184 
	C568.887390,80.725563 568.853271,68.118683 568.853271,55.432194 
	C565.894165,54.646606 563.377075,53.775459 560.786682,53.324993 
	C548.052734,51.110516 538.799805,56.452747 536.504089,67.937782 
	C534.635132,77.288071 535.884338,86.167114 544.024597,93.575241 
z"/>
<path fill="#060606" opacity="1.000000" stroke="none" 
	d="
M555.214111,291.131744 
	C555.213867,293.567261 555.213867,295.556671 555.213867,298.178619 
	C547.862915,293.744263 540.518860,288.856689 533.438171,297.157806 
	C529.623169,301.630402 530.518372,310.531006 534.321289,314.314850 
	C538.534180,318.506653 545.208191,317.842896 555.208252,311.981567 
	C555.208252,315.181335 555.449402,318.126160 555.085510,320.994232 
	C554.946594,322.088959 553.604187,323.542664 552.498352,323.920715 
	C544.871460,326.528381 537.150818,326.663818 529.644653,323.527679 
	C521.566528,320.152588 517.716431,312.894958 518.513428,303.255615 
	C519.315430,293.555328 524.313538,286.744446 533.541626,285.343506 
	C539.576233,284.427338 545.953308,285.602753 552.160461,286.063507 
	C554.812561,286.260376 555.631409,288.192047 555.214111,291.131744 
z"/>
<path fill="#060606" opacity="1.000000" stroke="none" 
	d="
M1078.552734,318.341980 
	C1073.053345,309.884796 1072.691284,301.311218 1077.778320,293.187286 
	C1082.879272,285.041229 1091.427856,283.588379 1100.197998,284.461639 
	C1111.593872,285.596222 1111.739502,286.073761 1110.982178,297.973999 
	C1103.713867,293.795502 1096.194458,288.586304 1089.214111,297.581116 
	C1085.635010,302.193054 1086.629639,310.700378 1090.287109,314.340179 
	C1094.472534,318.505432 1101.227905,317.825745 1111.206055,311.981079 
	C1111.206055,315.182220 1111.394897,318.117645 1111.102783,321.004456 
	C1111.001709,322.004517 1109.895508,323.364197 1108.928223,323.743774 
	C1099.463135,327.458710 1085.111938,326.395111 1078.552734,318.341980 
z"/>
<path fill="#060606" opacity="1.000000" stroke="none" 
	d="
M699.382690,286.160095 
	C706.051941,283.817230 712.404663,283.807526 718.888611,285.268097 
	C722.809753,286.151367 725.121521,287.792999 724.264832,292.284882 
	C723.934387,294.017548 724.210876,295.865936 724.210876,298.313354 
	C716.894409,293.591339 709.708984,289.019958 702.593018,296.942902 
	C698.706665,301.270142 699.408752,310.204590 703.127930,314.137848 
	C707.357666,318.611115 714.969360,317.898773 724.205750,311.727783 
	C724.205750,315.214783 724.400208,318.262085 724.092529,321.257874 
	C723.994507,322.212433 722.721619,323.489838 721.715881,323.837494 
	C713.567383,326.654449 705.364868,326.757172 697.504272,322.993713 
	C690.274109,319.532074 687.440674,313.182709 687.401245,305.463837 
	C687.356628,296.743469 690.678162,289.975433 699.382690,286.160095 
z"/>
<path fill="#0A0A0A" opacity="1.000000" stroke="none" 
	d="
M519.208618,62.948746 
	C519.775146,70.352150 521.541077,77.597176 520.415894,84.361282 
	C518.365479,96.687737 509.450165,102.504097 496.112549,102.205650 
	C484.988831,101.956749 475.930359,94.331612 474.015015,82.961548 
	C473.255707,78.454163 473.019226,73.654083 473.676056,69.152328 
	C475.425415,57.162621 481.993896,50.315426 492.256592,48.774731 
	C505.215759,46.829227 513.142883,50.903461 519.208618,62.948746 
M480.267303,66.203362 
	C480.224731,71.649445 479.520264,77.190453 480.284607,82.520821 
	C481.655670,92.082184 488.727905,97.903633 497.649841,97.886620 
	C506.603424,97.869553 512.990234,92.794037 514.427612,83.365379 
	C515.214172,78.205566 515.119873,72.678619 514.188354,67.541016 
	C512.540955,58.454838 506.920227,53.429150 499.488861,53.026794 
	C489.169159,52.468056 484.188019,55.727230 480.267303,66.203362 
z"/>
<path fill="#090909" opacity="1.000000" stroke="none" 
	d="
M714.876831,59.252968 
	C719.551880,67.901482 720.162781,76.703926 717.813110,85.688080 
	C714.725586,97.493629 705.033752,103.365776 691.240356,102.120323 
	C680.745789,101.172745 671.829041,91.711830 670.963745,80.181015 
	C670.642212,75.895836 670.510986,71.437874 671.322144,67.258438 
	C673.136414,57.910286 678.420471,51.079044 688.125488,49.027725 
	C698.901367,46.750042 708.304077,49.013279 714.876831,59.252968 
M710.953735,87.116432 
	C713.581787,79.259720 713.531494,71.378342 710.626953,63.661236 
	C707.677734,55.825462 702.083374,52.626953 692.902344,53.009182 
	C685.716614,53.308338 679.691956,57.503571 678.347961,65.066551 
	C677.243347,71.283005 677.224976,77.994400 678.288940,84.219131 
	C679.669373,92.295708 685.697998,97.086655 692.901550,97.822594 
	C701.047791,98.654839 706.463135,95.626938 710.953735,87.116432 
z"/>
<path fill="#090909" opacity="1.000000" stroke="none" 
	d="
M820.448547,54.429539 
	C830.776978,45.868626 844.233093,46.195999 851.368774,55.511719 
	C853.751953,58.623016 855.194214,62.916477 855.751648,66.855629 
	C856.570740,72.644104 851.920044,76.974289 845.486511,77.090790 
	C836.682129,77.250214 827.872742,77.130623 819.070923,77.130623 
	C819.070679,94.939339 829.174500,100.358139 852.451538,95.442490 
	C853.833740,99.066254 852.130554,100.646713 848.708679,101.097359 
	C846.080627,101.443481 843.461975,102.017555 840.825195,102.115318 
	C820.871948,102.855110 809.367188,89.621231 813.407288,69.842896 
	C814.488953,64.547722 817.867371,59.721684 820.448547,54.429539 
M822.729980,72.839561 
	C829.706543,72.837662 836.683167,72.856796 843.659546,72.824684 
	C846.971436,72.809433 849.528320,71.723602 849.966614,67.946144 
	C850.796509,60.793179 844.298401,53.238178 837.134216,53.027714 
	C827.354919,52.740417 819.135193,60.509075 819.141052,70.294624 
	C819.141541,71.143448 820.863586,71.991226 822.729980,72.839561 
z"/>
<path fill="#0C0C0C" opacity="1.000000" stroke="none" 
	d="
M628.761597,294.000183 
	C628.761536,304.458679 628.761536,314.417175 628.761536,324.697510 
	C624.570190,324.697510 620.667419,324.697510 616.456177,324.697510 
	C616.456177,306.384186 616.456177,288.004639 616.456177,269.300720 
	C620.319397,269.300720 624.227234,269.300720 628.761597,269.300720 
	C628.761597,277.310272 628.761597,285.405212 628.761597,294.000183 
z"/>
<path fill="#0D0D0D" opacity="1.000000" stroke="none" 
	d="
M1206.762329,293.000183 
	C1206.762329,303.789124 1206.762329,314.078064 1206.762329,324.693726 
	C1202.570557,324.693726 1198.670288,324.693726 1194.458496,324.693726 
	C1194.458496,306.384277 1194.458496,288.008850 1194.458496,269.304504 
	C1198.320068,269.304504 1202.225464,269.304504 1206.762329,269.304504 
	C1206.762329,276.978668 1206.762329,284.739441 1206.762329,293.000183 
z"/>
<path fill="#0A0A0A" opacity="1.000000" stroke="none" 
	d="
M592.104858,50.300278 
	C595.530579,49.798512 596.108582,51.277515 596.071228,53.971325 
	C595.934937,63.802223 595.969910,73.636520 596.035645,83.468903 
	C596.099792,93.062622 602.172729,98.567070 611.704041,97.799118 
	C612.366638,97.745743 613.033813,97.691338 613.685486,97.567307 
	C624.946106,95.423988 624.945435,95.421570 624.945190,84.070869 
	C624.944946,72.946548 624.945129,61.822224 624.945129,50.503727 
	C627.016724,50.503727 628.614685,50.503727 630.524414,50.503727 
	C630.524414,65.858162 630.524414,81.110962 630.524414,97.273247 
	C623.638489,98.897202 616.668640,101.385002 609.532410,102.028839 
	C598.444153,103.029221 590.762207,96.273689 590.149536,85.236115 
	C589.550110,74.436310 589.954712,63.578442 590.048340,52.747173 
	C590.055359,51.928860 591.098450,51.119499 592.104858,50.300278 
z"/>
<path fill="#0C0C0C" opacity="1.000000" stroke="none" 
	d="
M1132.720337,323.614746 
	C1128.702515,324.517090 1124.719727,324.951233 1120.413208,325.420685 
	C1120.413208,311.609924 1120.413208,298.556793 1120.413208,285.240173 
	C1124.430664,285.240173 1128.334229,285.240173 1132.755249,285.240173 
	C1132.755249,297.948944 1132.755249,310.547760 1132.720337,323.614746 
z"/>
<path fill="#0D0D0D" opacity="1.000000" stroke="none" 
	d="
M745.757935,304.000610 
	C745.757935,311.129303 745.757935,317.758209 745.757935,324.702759 
	C741.561584,324.702759 737.658936,324.702759 733.451538,324.702759 
	C733.451538,311.718597 733.451538,298.667053 733.451538,285.295197 
	C737.315674,285.295197 741.224304,285.295197 745.757935,285.295197 
	C745.757935,291.303223 745.757935,297.402008 745.757935,304.000610 
z"/>
<path fill="#0D0D0D" opacity="1.000000" stroke="none" 
	d="
M446.256744,284.984528 
	C449.873108,284.978577 453.018677,284.978577 456.456299,284.978577 
	C456.456299,298.304169 456.456299,311.357391 456.456299,324.717896 
	C452.534546,324.717896 448.634308,324.717896 444.184692,324.717896 
	C444.184692,311.968597 444.166748,299.217010 444.252319,286.466156 
	C444.255646,285.970825 445.252167,285.482208 446.256744,284.984528 
z"/>
<path fill="#040404" opacity="1.000000" stroke="none" 
	d="
M652.488647,56.000286 
	C652.488770,66.332535 652.487061,76.164780 652.489563,85.997017 
	C652.492554,97.752014 654.744080,99.528725 665.727661,96.451111 
	C667.257751,100.507973 665.089844,101.728249 661.533752,102.165939 
	C652.583008,103.267578 646.939575,98.530243 646.923401,89.617561 
	C646.884521,68.129547 646.910828,46.641415 646.910828,24.716944 
	C648.650024,24.618229 650.225952,24.528782 652.488647,24.400352 
	C652.488647,34.968609 652.488647,45.234440 652.488647,56.000286 
z"/>
<path fill="#070707" opacity="1.000000" stroke="none" 
	d="
M781.269897,264.991119 
	C784.021667,264.991455 786.335327,264.991455 788.697144,264.991455 
	C785.449463,273.093964 776.574768,279.348419 768.870361,278.673676 
	C771.505859,274.492462 773.874878,270.375122 776.658386,266.560272 
	C777.390808,265.556488 779.405762,265.488495 781.269897,264.991119 
z"/>
<path fill="#010101" opacity="1.000000" stroke="none" 
	d="
M453.867065,278.999054 
	C450.422943,278.999237 447.461578,278.999237 444.207886,278.999237 
	C444.207886,275.729584 444.207886,272.667297 444.207886,269.300262 
	C448.270874,269.300262 452.466431,269.300262 457.067078,269.300262 
	C457.067078,271.835785 457.305603,274.312103 456.942535,276.696808 
	C456.808746,277.575378 455.255585,278.237854 453.867065,278.999054 
z"/>
<path fill="#000000" opacity="1.000000" stroke="none" 
	d="
M732.917236,273.044678 
	C732.735352,270.426666 732.739929,268.677795 735.853577,268.940979 
	C739.107239,269.216034 742.402283,269.002411 745.869751,269.002411 
	C745.869751,272.441895 745.869751,275.498383 745.869751,278.777466 
	C741.651550,278.777466 737.580444,278.777466 732.916565,278.777466 
	C732.916565,277.020569 732.916565,275.270935 732.917236,273.044678 
z"/>
<path fill="#000000" opacity="1.000000" stroke="none" 
	d="
M1126.014893,269.001495 
	C1128.469604,269.001495 1130.442627,269.001495 1132.743164,269.001495 
	C1132.743164,272.215454 1132.743164,275.276886 1132.743164,278.672668 
	C1128.759399,278.672668 1124.565796,278.672668 1120.140381,278.672668 
	C1120.140381,275.592316 1120.140381,272.536072 1120.140381,269.001495 
	C1121.987549,269.001495 1123.760498,269.001495 1126.014893,269.001495 
z"/>
<path fill="#151515" opacity="1.000000" stroke="none" 
	d="
M501.496216,26.421333 
	C503.459198,25.436159 505.216187,24.751703 506.973145,24.067247 
	C507.228149,24.495554 507.483154,24.923862 507.738159,25.352169 
	C503.796600,28.991821 503.466736,36.032711 495.271942,37.258705 
	C497.626953,33.135609 499.458588,29.928829 501.496216,26.421333 
z"/>
<path fill="#FCFCFC" opacity="1.000000" stroke="none" 
	d="
M433.813171,160.978989 
	C446.232849,165.979156 451.649719,175.349854 451.912689,187.935883 
	C452.005615,192.382935 451.845856,196.948074 450.945709,201.281525 
	C448.437561,213.356033 439.420654,221.565292 427.273224,222.714554 
	C421.383911,223.271729 415.398285,222.810791 409.260498,222.810791 
	C409.260498,201.546005 409.260498,180.508347 409.260498,158.203323 
	C417.493896,159.118668 425.462433,160.004578 433.813171,160.978989 
z"/>
<path fill="#FCFCFC" opacity="1.000000" stroke="none" 
	d="
M566.843140,211.660248 
	C560.466492,222.489960 552.158447,226.800507 540.975281,224.782562 
	C529.470215,222.706512 523.952820,214.452591 521.479065,203.970734 
	C519.036438,193.621002 519.372681,183.212296 523.063416,173.091766 
	C526.746094,162.993164 534.440063,157.167206 544.178772,157.004608 
	C555.815918,156.810303 563.781128,161.739960 567.710999,172.489197 
	C572.439514,185.423416 572.343262,198.466339 566.843140,211.660248 
z"/>
<path fill="#F9F9F9" opacity="1.000000" stroke="none" 
	d="
M1002.040894,294.493347 
	C1006.937622,298.469788 1008.327576,305.782288 1005.659058,311.856354 
	C1003.628418,316.478699 999.829102,317.722809 990.761963,316.397705 
	C990.761963,310.127777 990.606506,303.726532 990.920227,297.348389 
	C990.970520,296.326935 993.002502,294.840881 994.324829,294.567200 
	C996.695496,294.076538 999.223022,294.343658 1002.040894,294.493347 
z"/>
<path fill="#F7F7F7" opacity="1.000000" stroke="none" 
	d="
M1054.357910,299.982361 
	C1049.128784,300.004059 1044.339966,300.004059 1039.214355,300.004059 
	C1039.344849,295.047729 1042.289795,293.374207 1046.378540,293.036682 
	C1052.189575,292.556976 1055.175049,294.368134 1055.759399,298.625916 
	C1055.813354,299.019440 1055.135986,299.513336 1054.357910,299.982361 
z"/>
<path fill="#F0F0F0" opacity="1.000000" stroke="none" 
	d="
M658.776978,317.003235 
	C657.194092,316.997131 655.786865,317.389374 654.938477,316.869629 
	C653.453186,315.959595 651.416565,314.587067 651.268555,313.227875 
	C651.110901,311.779541 652.556152,309.180359 653.862366,308.737274 
	C657.374878,307.545929 661.186523,307.236511 664.843140,306.583374 
	C666.710815,314.529236 666.064392,315.624542 658.776978,317.003235 
z"/>
<path fill="#F0F0F0" opacity="1.000000" stroke="none" 
	d="
M1169.432129,314.175903 
	C1165.854980,315.363922 1162.450806,316.551971 1158.986816,316.763855 
	C1157.740601,316.840027 1155.455078,314.689392 1155.270874,313.333832 
	C1155.075317,311.895721 1156.490356,309.215088 1157.767334,308.794830 
	C1161.398193,307.599884 1165.317139,307.280273 1169.581543,306.536011 
	C1169.581543,309.574066 1169.581543,311.682190 1169.432129,314.175903 
z"/>
<path fill="#F7F7F7" opacity="1.000000" stroke="none" 
	d="
M780.236572,316.754395 
	C775.470215,317.387299 771.454041,317.113831 769.392456,312.310120 
	C767.044861,306.839813 768.055481,297.894684 771.385681,294.815460 
	C774.564392,291.876373 780.845581,292.308502 783.500732,295.648956 
	C787.865723,301.140564 786.315796,312.477600 780.236572,316.754395 
z"/>
<path fill="#FBFBFB" opacity="1.000000" stroke="none" 
	d="
M772.373657,94.857788 
	C763.198425,87.320648 760.120605,76.905769 763.577881,66.038704 
	C766.884949,55.643772 775.790161,51.040012 787.918762,53.455025 
	C795.353699,54.935463 795.352966,54.935463 795.353760,62.617268 
	C795.354675,72.106606 795.151489,81.602692 795.462830,91.081856 
	C795.582458,94.723396 794.139221,96.062561 790.962463,96.808914 
	C784.641235,98.294037 778.483887,98.800919 772.373657,94.857788 
z"/>
<path fill="#FAFAFA" opacity="1.000000" stroke="none" 
	d="
M543.754883,93.327560 
	C535.884338,86.167114 534.635132,77.288071 536.504089,67.937782 
	C538.799805,56.452747 548.052734,51.110516 560.786682,53.324993 
	C563.377075,53.775459 565.894165,54.646606 568.853271,55.432194 
	C568.853271,68.118683 568.887390,80.725563 568.777527,93.331184 
	C568.770142,94.182030 567.852539,95.508095 567.061890,95.794273 
	C559.066528,98.688118 551.206177,99.433258 543.754883,93.327560 
z"/>
<path fill="#FBFBFB" opacity="1.000000" stroke="none" 
	d="
M480.400574,65.816246 
	C484.188019,55.727230 489.169159,52.468056 499.488861,53.026794 
	C506.920227,53.429150 512.540955,58.454838 514.188354,67.541016 
	C515.119873,72.678619 515.214172,78.205566 514.427612,83.365379 
	C512.990234,92.794037 506.603424,97.869553 497.649841,97.886620 
	C488.727905,97.903633 481.655670,92.082184 480.284607,82.520821 
	C479.520264,77.190453 480.224731,71.649445 480.400574,65.816246 
z"/>
<path fill="#FBFBFB" opacity="1.000000" stroke="none" 
	d="
M710.835693,87.488785 
	C706.463135,95.626938 701.047791,98.654839 692.901550,97.822594 
	C685.697998,97.086655 679.669373,92.295708 678.288940,84.219131 
	C677.224976,77.994400 677.243347,71.283005 678.347961,65.066551 
	C679.691956,57.503571 685.716614,53.308338 692.902344,53.009182 
	C702.083374,52.626953 707.677734,55.825462 710.626953,63.661236 
	C713.531494,71.378342 713.581787,79.259720 710.835693,87.488785 
z"/>
<path fill="#F7F7F7" opacity="1.000000" stroke="none" 
	d="
M822.257935,72.839523 
	C820.863586,71.991226 819.141541,71.143448 819.141052,70.294624 
	C819.135193,60.509075 827.354919,52.740417 837.134216,53.027714 
	C844.298401,53.238178 850.796509,60.793179 849.966614,67.946144 
	C849.528320,71.723602 846.971436,72.809433 843.659546,72.824684 
	C836.683167,72.856796 829.706543,72.837662 822.257935,72.839523 
z"/>
</svg>