<?xml version="1.0" encoding="utf-8"?>
<!-- Generator: Adobe Illustrator 24.1.0, SVG Export Plug-In . SVG Version: 6.00 Build 0)  -->
<svg version="1.1" id="Capa_1" xmlns="http://www.w3.org/2000/svg" xmlns:xlink="http://www.w3.org/1999/xlink" x="0px" y="0px"
	 viewBox="0 0 1304 368" enable-background="new 0 0 1304 368" xml:space="preserve">
<g>
	<g>
		<g>
			<path d="M514.049,41.516c0-2.621,1.368-4.036,4.105-4.243h20.734c3.352,0,5.029,1.656,5.029,4.967v140.316
				c0,4.278-0.309,8.381-0.924,12.313c-0.753,5.242-2.395,10.105-4.926,14.591c-2.533,4.483-5.697,8.346-9.494,11.589
				c-3.798,3.242-8.127,5.795-12.984,7.658c-4.859,1.863-9.956,2.794-15.293,2.794c-5.885,0-11.479-1.035-16.781-3.105
				c-5.303-2.069-9.905-5.173-13.805-9.313c-0.411-0.345-0.855-0.759-1.334-1.241c-0.478-0.483-0.958-0.983-1.436-1.501
				c-0.479-0.517-0.873-1.053-1.181-1.604c-0.308-0.554-0.462-1.035-0.462-1.449c0-0.553,0.154-1.19,0.462-1.915
				c0.308-0.724,0.718-1.448,1.231-2.173c0.513-0.724,1.061-1.432,1.642-2.121c0.582-0.69,1.147-1.277,1.694-1.759l9.443-8.692
				c0.479-0.414,0.974-0.709,1.488-0.88c0.513-0.173,1.01-0.294,1.488-0.362c1.027,0,2.002,0.396,2.925,1.19
				c0.924,0.792,1.984,1.656,3.182,2.587c1.196,0.931,2.617,1.793,4.26,2.587c1.642,0.792,3.695,1.19,6.159,1.19
				c1.777,0,3.556-0.414,5.336-1.242c1.779-0.828,3.369-1.915,4.772-3.259c1.402-1.346,2.531-2.898,3.388-4.657
				c0.854-1.759,1.283-3.57,1.283-5.433V41.516z"/>
			<path d="M566.803,187.109c0.341-1.38,0.734-2.655,1.181-3.829c0.444-1.172,0.836-2.241,1.181-3.208l55.322-138.867
				c0.205-0.758,0.77-1.604,1.693-2.535c0.924-0.931,2.172-1.397,3.747-1.397h16.525c1.642,0,2.823,0.414,3.542,1.242
				c0.718,0.828,1.247,1.552,1.591,2.173l3.387,8.071l54.193,136.695c0,0.207,0.051,0.568,0.153,1.086
				c0.104,0.518,0.155,0.949,0.155,1.293c0,2.07-1.506,3.104-4.516,3.104h-20.22c-1.506,0-2.669-0.309-3.49-0.931
				c-0.821-0.621-1.506-1.586-2.053-2.897l-1.847-4.76c-1.301-3.312-2.602-6.623-3.9-9.934c-1.3-3.311-2.566-6.657-3.797-10.038
				h-63.328c-1.78,4.829-3.507,9.365-5.183,13.607c-1.678,4.243-3.097,7.951-4.26,11.124c-0.958,2.553-2.738,3.828-5.337,3.828
				h-20.528c-1.301,0-2.345-0.24-3.13-0.724c-0.788-0.482-1.18-1.206-1.18-2.173C566.701,187.626,566.734,187.316,566.803,187.109z
				 M638.239,76.698c-3.694,9.519-7.374,19.386-11.033,29.594c-3.662,10.211-7.338,20.041-11.033,29.492h43.724L638.239,76.698z"/>
			<path d="M731.433,41.93c0-1.31,0.393-2.415,1.18-3.312c0.786-0.896,1.898-1.345,3.335-1.345h23.608
				c0.957,0,1.862,0.225,2.72,0.673c0.854,0.449,1.624,1.156,2.309,2.121c11.7,16.833,23.298,33.544,34.794,50.135
				c11.496,16.592,23.094,33.304,34.794,50.135V41.205c0.206-1.242,0.719-2.207,1.54-2.897c0.821-0.689,1.811-1.035,2.977-1.035
				H858.5c1.368,0,2.549,0.414,3.541,1.242c0.992,0.828,1.488,1.932,1.488,3.311v144.869c0,2.83-1.608,4.242-4.823,4.242h-22.272
				c-1.506,0-2.91-0.931-4.208-2.793c-12.044-17.591-24.035-35.165-35.975-52.722c-11.94-17.556-23.898-35.165-35.872-52.825
				v103.788c0,1.519-0.36,2.657-1.078,3.415c-0.718,0.76-1.934,1.138-3.643,1.138h-19.707c-1.575,0-2.72-0.396-3.438-1.189
				c-0.718-0.793-1.078-1.879-1.078-3.26V41.93z"/>
			<path d="M890.625,114.26c0-7.243,0.924-14.244,2.771-21.006c1.848-6.76,4.482-13.072,7.903-18.937
				c3.421-5.863,7.509-11.21,12.265-16.039c4.756-4.828,10.041-8.951,15.858-12.365c5.815-3.416,12.06-6.07,18.732-7.968
				c6.671-1.896,13.633-2.846,20.887-2.846c7.184,0,14.113,0.949,20.783,2.846c6.672,1.898,12.915,4.552,18.732,7.968
				c5.815,3.414,11.119,7.538,15.909,12.365c4.789,4.83,8.878,10.176,12.265,16.039c3.388,5.864,6.021,12.177,7.903,18.937
				c1.882,6.762,2.822,13.798,2.822,21.109c0,7.313-0.94,14.316-2.822,21.006c-1.882,6.692-4.516,12.97-7.903,18.833
				c-3.387,5.865-7.477,11.193-12.265,15.987c-4.791,4.796-10.094,8.899-15.909,12.314c-5.817,3.415-12.06,6.054-18.732,7.916
				c-6.67,1.862-13.634,2.794-20.886,2.794c-7.254,0-14.216-0.931-20.886-2.794c-6.672-1.863-12.918-4.518-18.732-7.968
				c-5.817-3.449-11.103-7.57-15.858-12.366c-4.757-4.794-8.827-10.105-12.214-15.936c-3.387-5.828-6.005-12.106-7.852-18.832
				C891.549,128.592,890.625,121.574,890.625,114.26z M920.288,114.053c0,6.969,1.248,13.488,3.747,19.558
				c2.497,6.071,5.917,11.348,10.264,15.832c4.344,4.485,9.476,8.037,15.395,10.658c5.918,2.622,12.334,3.932,19.245,3.932
				c6.841,0,13.222-1.31,19.143-3.932c5.917-2.621,11.066-6.173,15.446-10.658c4.378-4.484,7.816-9.761,10.315-15.832
				c2.498-6.07,3.747-12.589,3.747-19.558c0-6.897-1.249-13.382-3.747-19.453c-2.498-6.07-5.937-11.365-10.315-15.884
				c-4.38-4.517-9.529-8.087-15.446-10.71c-5.92-2.621-12.301-3.932-19.143-3.932c-6.912,0-13.328,1.312-19.245,3.932
				c-5.919,2.623-11.051,6.192-15.395,10.71c-4.347,4.519-7.767,9.814-10.264,15.884
				C921.535,100.671,920.288,107.156,920.288,114.053z"/>
		</g>
	</g>
	<g>
		<g>
			<path d="M501.052,259.589c2.023,0.958,3.645,2.364,4.863,4.216c1.218,1.853,1.828,3.965,1.828,6.339
				c0,3.789-1.342,7.037-4.027,9.743c-2.602,2.582-5.865,3.872-9.787,3.872c-3.635,0-7.558-0.875-11.77-2.623v-40.969
				c3.964-1.789,7.887-2.685,11.77-2.685c3.51,0,6.482,1.186,8.92,3.56c2.436,2.373,3.655,5.288,3.655,8.743
				C506.504,254.031,504.685,257.3,501.052,259.589z M494.548,258.402c2.231,0,4.151-0.853,5.761-2.56
				c1.611-1.749,2.417-3.768,2.417-6.058c0-2.498-0.867-4.663-2.602-6.495c-1.734-1.832-3.8-2.748-6.194-2.748
				c-2.396,0-5.06,0.521-7.991,1.562v16.3H494.548z M503.964,270.115c0-2.282-0.805-4.294-2.416-6.039
				c-1.61-1.743-3.53-2.614-5.761-2.614h-9.849v17.679c2.932,1.039,5.595,1.557,7.991,1.557c2.725,0,5.079-1.058,7.061-3.174
				C502.972,275.407,503.964,272.937,503.964,270.115z"/>
			<path d="M538.901,280.011c-3.758,2.54-8.095,3.809-13.009,3.809c-3.428,0-6.277-0.854-8.548-2.56
				c-2.189-1.749-3.283-3.997-3.283-6.745c0-3.039,1.301-5.474,3.902-7.307c2.933-2.081,7.206-3.122,12.823-3.122h4.336v-4.41
				c0-1.78-0.661-3.332-1.982-4.658c-1.322-1.366-2.974-2.049-4.956-2.049c-3.8,0-7.289,0.625-10.469,1.873v-3.372
				c3.221-1.04,6.938-1.561,11.15-1.561c2.808,0,5.182,0.937,7.123,2.81c1.941,1.833,2.912,4.144,2.912,6.933V280.011z
				 M535.122,267.146h-3.964c-4.502,0-7.909,0.788-10.221,2.363c-1.9,1.285-2.85,2.943-2.85,4.974c0,1.782,0.722,3.273,2.169,4.476
				c1.444,1.202,3.406,1.802,5.884,1.802c3.303,0,6.297-0.766,8.982-2.3V267.146z"/>
			<path d="M548.254,282.759v-29.103c6.705-2.456,11.32-3.685,13.847-3.685c1.738,0,3.333,0.287,4.781,0.861
				c1.449,0.574,2.681,1.376,3.696,2.404c1.014,1.03,1.8,2.273,2.36,3.73c0.558,1.458,0.838,3.06,0.838,4.809v20.984h-3.779v-20.984
				c0-1.249-0.207-2.404-0.62-3.466c-0.414-1.061-0.982-1.987-1.704-2.779c-0.723-0.79-1.589-1.406-2.601-1.843
				c-1.012-0.437-2.137-0.655-3.376-0.655c-3.057,0-6.278,0.812-9.663,2.436v27.292H548.254z"/>
			<path d="M605.18,282.696c-2.932,0.75-5.761,1.124-8.486,1.124c-4.873,0-8.714-1.624-11.522-4.871
				c-2.684-3.08-4.026-7.098-4.026-12.053c0-4.912,1.342-8.951,4.026-12.116c2.85-3.289,6.69-4.934,11.522-4.934
				c2.808,0,5.637,0.396,8.486,1.187v3.248c-2.726-0.916-5.554-1.374-8.486-1.374c-3.635,0-6.525,1.392-8.672,4.175
				c-2.066,2.659-3.098,5.919-3.098,9.783c0,3.822,1.032,7.063,3.098,9.721c2.147,2.783,5.038,4.174,8.672,4.174
				c2.932,0,5.761-0.437,8.486-1.312V282.696z"/>
			<path d="M639.745,267.146c0,5.039-1.26,9.015-3.778,11.929c-2.602,3.123-6.36,4.684-11.274,4.684
				c-4.874,0-8.672-1.686-11.398-5.059c-2.601-3.163-3.902-7.265-3.902-12.303c0-4.912,1.279-8.889,3.84-11.928
				c2.726-3.123,6.524-4.684,11.398-4.684c4.791,0,8.548,1.708,11.275,5.121C638.465,258.112,639.745,262.192,639.745,267.146z
				 M613.543,266.366c0,4.113,0.867,7.436,2.601,9.97c1.983,2.908,4.831,4.362,8.548,4.362c3.758,0,6.566-1.329,8.424-3.988
				c1.651-2.285,2.477-5.483,2.477-9.596c0-4.072-0.846-7.394-2.539-9.97c-1.942-2.866-4.749-4.3-8.425-4.3
				c-3.758,0-6.587,1.309-8.486,3.926C614.41,259.138,613.543,262.337,613.543,266.366z"/>
			<path d="M677.868,249.909c3.047,0,6.052,0.542,9.017,1.624v-16.487h3.779v46.027c-4.047,1.748-7.951,2.623-11.707,2.623
				c-4.915,0-8.879-1.645-11.894-4.934c-3.057-3.331-4.584-7.432-4.584-12.304c0-4.871,1.363-8.846,4.088-11.927
				C669.242,251.45,673.009,249.909,677.868,249.909z M678.239,252.969c-3.789,0-6.691,1.312-8.708,3.935
				c-1.936,2.457-2.903,5.642-2.903,9.554c0,3.915,1.153,7.225,3.459,9.931c2.387,2.914,5.475,4.372,9.263,4.372
				c2.142,0,4.652-0.541,7.534-1.624v-24.606C684.208,253.49,681.326,252.969,678.239,252.969z"/>
			<path d="M712.751,249.847c3.314,0,6.131,1.187,8.451,3.56c2.313,2.333,3.469,5.163,3.469,8.494c0,1.874-0.652,3.372-1.957,4.496
				c-1.305,1.124-2.95,1.686-4.937,1.686h-16.212c0.166,3.605,1.201,6.568,3.106,8.887c2.029,2.486,4.743,3.729,8.14,3.729
				c3.313,0,6.625-0.603,9.94-1.811v3.372c-3.232,0.999-6.546,1.499-9.94,1.499c-4.929,0-8.698-1.624-11.308-4.871
				c-2.478-3.039-3.717-7.058-3.717-12.054c0-4.871,1.177-8.826,3.531-11.866C703.969,251.554,707.78,249.847,712.751,249.847z
				 M720.892,261.9c0-2.248-0.809-4.31-2.423-6.183c-1.617-1.874-3.501-2.811-5.655-2.811c-3.355,0-6.049,1.187-8.08,3.56
				c-1.824,2.207-2.879,5.059-3.169,8.556h16.221c0.828,0,1.553-0.301,2.174-0.905C720.581,263.514,720.892,262.774,720.892,261.9z"
				/>
			<path d="M749.325,282.759v-47.727h3.777v17.299c4.213-1.615,7.578-2.423,10.098-2.423c3.469,0,6.276,1.104,8.425,3.31
				c2.146,2.123,3.221,4.955,3.221,8.493v21.047h-3.779v-21.047c0-1.249-0.197-2.404-0.588-3.466
				c-0.394-1.062-0.951-1.988-1.673-2.779c-0.723-0.79-1.59-1.405-2.602-1.842c-1.013-0.437-2.136-0.656-3.375-0.656
				c-3.098,0-6.34,0.812-9.727,2.436v27.355H749.325z"/>
			<path d="M812.57,267.146c0,5.039-1.26,9.015-3.779,11.929c-2.602,3.123-6.36,4.684-11.274,4.684
				c-4.873,0-8.672-1.686-11.398-5.059c-2.602-3.163-3.902-7.265-3.902-12.303c0-4.912,1.279-8.889,3.841-11.928
				c2.726-3.123,6.525-4.684,11.397-4.684c4.791,0,8.549,1.708,11.275,5.121C811.289,258.112,812.57,262.192,812.57,267.146z
				 M786.367,266.366c0,4.113,0.867,7.436,2.602,9.97c1.982,2.908,4.832,4.362,8.548,4.362c3.758,0,6.567-1.329,8.425-3.988
				c1.651-2.285,2.478-5.483,2.478-9.596c0-4.072-0.847-7.394-2.54-9.97c-1.941-2.866-4.75-4.3-8.425-4.3
				c-3.758,0-6.587,1.309-8.486,3.926C787.234,259.138,786.367,262.337,786.367,266.366z"/>
			<path d="M823.781,292.751c0,2.206-0.805,4.064-2.415,5.574c-1.611,1.53-3.532,2.295-5.761,2.295
				c-1.363,0-2.684-0.191-3.964-0.574v-3.423c1.239,0.624,2.561,0.937,3.964,0.937c0.619,0,1.187-0.136,1.704-0.406
				c0.515-0.271,0.98-0.624,1.393-1.062c0.412-0.438,0.732-0.947,0.96-1.53c0.227-0.584,0.341-1.187,0.341-1.811v-41.78h3.779
				V292.751z M820.002,234.983h3.779v3.809h-3.779V234.983z"/>
			<path d="M856.116,280.011c-3.758,2.54-8.094,3.809-13.009,3.809c-3.428,0-6.278-0.854-8.548-2.56
				c-2.19-1.749-3.283-3.997-3.283-6.745c0-3.039,1.301-5.474,3.902-7.307c2.931-2.081,7.206-3.122,12.823-3.122h4.336v-4.41
				c0-1.78-0.662-3.332-1.982-4.658c-1.322-1.366-2.974-2.049-4.956-2.049c-3.8,0-7.29,0.625-10.469,1.873v-3.372
				c3.221-1.04,6.938-1.561,11.15-1.561c2.808,0,5.182,0.937,7.123,2.81c1.94,1.833,2.912,4.144,2.912,6.933V280.011z
				 M852.338,267.146h-3.965c-4.502,0-7.909,0.788-10.222,2.363c-1.9,1.285-2.849,2.943-2.849,4.974
				c0,1.782,0.722,3.273,2.168,4.476c1.446,1.202,3.408,1.802,5.886,1.802c3.303,0,6.296-0.766,8.982-2.3V267.146z"/>
			<path d="M881.141,254.343c-2.22-1-4.585-1.499-7.093-1.499c-4.77,0-7.154,1.811-7.154,5.434c0,1.957,1.376,3.644,4.129,5.059
				l7.765,3.997c2.766,1.915,4.15,4.331,4.15,7.245c0,3.123-1.26,5.517-3.778,7.182c-2.107,1.29-4.605,1.936-7.496,1.936
				c-3.386,0-6.257-0.438-8.61-1.311v-3.685c2.726,1.374,5.513,2.061,8.363,2.061c2.022,0,3.757-0.5,5.203-1.499
				c1.61-1.124,2.416-2.56,2.416-4.309c0-2.207-1.377-4.06-4.129-5.559c-1.274-0.707-2.548-1.374-3.821-1.998
				c-1.274-0.625-2.526-1.312-3.759-2.062c-1.467-0.832-2.536-1.82-3.207-2.966c-0.67-1.145-1.005-2.383-1.005-3.716
				c0-3.039,1.073-5.329,3.221-6.87c1.899-1.332,4.315-1.999,7.247-1.999c2.602,0,5.12,0.437,7.558,1.312V254.343z"/>
			<path d="M920.688,249.909c3.047,0,6.053,0.542,9.018,1.624v-16.487h3.779v46.027c-4.048,1.748-7.951,2.623-11.708,2.623
				c-4.915,0-8.879-1.645-11.894-4.934c-3.056-3.331-4.584-7.432-4.584-12.304c0-4.871,1.363-8.846,4.089-11.927
				C912.063,251.45,915.83,249.909,920.688,249.909z M921.059,252.969c-3.789,0-6.69,1.312-8.707,3.935
				c-1.936,2.457-2.902,5.642-2.902,9.554c0,3.915,1.153,7.225,3.458,9.931c2.388,2.914,5.476,4.372,9.264,4.372
				c2.141,0,4.651-0.541,7.534-1.624v-24.606C927.029,253.49,924.146,252.969,921.059,252.969z"/>
			<path d="M955.571,249.847c3.314,0,6.131,1.187,8.451,3.56c2.311,2.333,3.468,5.163,3.468,8.494c0,1.874-0.652,3.372-1.957,4.496
				c-1.305,1.124-2.951,1.686-4.938,1.686h-16.211c0.165,3.605,1.201,6.568,3.106,8.887c2.029,2.486,4.742,3.729,8.138,3.729
				c3.314,0,6.627-0.603,9.941-1.811v3.372c-3.231,0.999-6.545,1.499-9.941,1.499c-4.928,0-8.696-1.624-11.306-4.871
				c-2.478-3.039-3.717-7.058-3.717-12.054c0-4.871,1.177-8.826,3.53-11.866C946.789,251.554,950.601,249.847,955.571,249.847z
				 M963.712,261.9c0-2.248-0.808-4.31-2.423-6.183c-1.616-1.874-3.5-2.811-5.656-2.811c-3.355,0-6.048,1.187-8.078,3.56
				c-1.824,2.207-2.88,5.059-3.169,8.556h16.22c0.829,0,1.554-0.301,2.175-0.905C963.402,263.514,963.712,262.774,963.712,261.9z"/>
			<path d="M991.898,251.033l10.53,27.354l9.726-27.354h3.222l-11.336,31.663h-4.089l-12.079-31.663H991.898z"/>
			<path d="M1020.949,234.983h3.779v3.809h-3.779V234.983z M1024.728,251.033v31.663h-3.779v-31.663H1024.728z"/>
			<path d="M1048.107,249.909c3.047,0,6.053,0.542,9.017,1.624v-16.487h3.779v46.027c-4.047,1.748-7.95,2.623-11.708,2.623
				c-4.915,0-8.879-1.645-11.893-4.934c-3.057-3.331-4.584-7.432-4.584-12.304c0-4.871,1.363-8.846,4.087-11.927
				C1039.481,251.45,1043.249,249.909,1048.107,249.909z M1048.479,252.969c-3.789,0-6.69,1.312-8.708,3.935
				c-1.936,2.457-2.903,5.642-2.903,9.554c0,3.915,1.153,7.225,3.458,9.931c2.388,2.914,5.475,4.372,9.263,4.372
				c2.142,0,4.652-0.541,7.534-1.624v-24.606C1054.448,253.49,1051.566,252.969,1048.479,252.969z"/>
			<path d="M1092.804,280.011c-3.757,2.54-8.094,3.809-13.008,3.809c-3.427,0-6.277-0.854-8.548-2.56
				c-2.189-1.749-3.282-3.997-3.282-6.745c0-3.039,1.301-5.474,3.902-7.307c2.931-2.081,7.206-3.122,12.822-3.122h4.336v-4.41
				c0-1.78-0.661-3.332-1.981-4.658c-1.322-1.366-2.974-2.049-4.956-2.049c-3.8,0-7.29,0.625-10.47,1.873v-3.372
				c3.221-1.04,6.938-1.561,11.151-1.561c2.808,0,5.182,0.937,7.123,2.81c1.941,1.833,2.911,4.144,2.911,6.933V280.011z
				 M1089.025,267.146h-3.965c-4.501,0-7.908,0.788-10.221,2.363c-1.9,1.285-2.849,2.943-2.849,4.974
				c0,1.782,0.722,3.273,2.167,4.476c1.445,1.202,3.407,1.802,5.884,1.802c3.304,0,6.297-0.766,8.982-2.3V267.146z"/>
			<path d="M1143.475,251.033l-18.212,49.399h-3.284l6.629-17.861l-13.503-31.539h4.149l11.089,26.854l9.91-26.854H1143.475z"/>
			<path d="M503.592,312.423c4.006,0,7.846,0.709,11.523,2.124v3.497c-3.759-1.707-7.6-2.561-11.523-2.561
				c-5.451,0-9.932,1.954-13.442,5.861c-3.51,3.825-5.265,8.563-5.265,14.217c0,5.654,1.755,10.372,5.265,14.154
				c3.552,3.95,8.032,5.925,13.442,5.925c3.386,0,6.669-0.622,9.85-1.868v-17.368h-10.84v-3.06h14.619v22.358
				c-4.296,1.998-8.838,2.998-13.628,2.998c-6.525,0-11.893-2.186-16.105-6.557c-4.254-4.414-6.38-9.93-6.38-16.55
				c0-6.578,2.126-12.073,6.38-16.487C491.781,314.651,497.15,312.423,503.592,312.423z"/>
			<path d="M540.113,324.789c3.314,0,6.131,1.186,8.451,3.56c2.313,2.332,3.469,5.163,3.469,8.493c0,1.874-0.652,3.372-1.957,4.497
				c-1.305,1.124-2.95,1.686-4.938,1.686h-16.211c0.166,3.604,1.201,6.567,3.106,8.887c2.03,2.487,4.743,3.729,8.14,3.729
				c3.313,0,6.626-0.603,9.94-1.811v3.372c-3.231,1-6.545,1.499-9.94,1.499c-4.929,0-8.698-1.624-11.307-4.871
				c-2.478-3.039-3.717-7.058-3.717-12.054c0-4.871,1.177-8.826,3.531-11.866C531.331,326.497,535.142,324.789,540.113,324.789z
				 M548.254,336.842c0-2.248-0.809-4.309-2.423-6.183c-1.617-1.874-3.502-2.811-5.656-2.811c-3.355,0-6.048,1.187-8.08,3.56
				c-1.823,2.207-2.878,5.058-3.169,8.556h16.22c0.828,0,1.553-0.301,2.175-0.906C547.943,338.457,548.254,337.717,548.254,336.842z
				"/>
			<path d="M575.138,329.286c-2.22-0.999-4.585-1.499-7.093-1.499c-4.771,0-7.154,1.812-7.154,5.434
				c0,1.957,1.376,3.644,4.128,5.059l7.765,3.997c2.767,1.915,4.15,4.33,4.15,7.244c0,3.122-1.26,5.517-3.778,7.182
				c-2.106,1.29-4.605,1.937-7.496,1.937c-3.386,0-6.257-0.437-8.61-1.312v-3.685c2.726,1.374,5.513,2.061,8.363,2.061
				c2.022,0,3.757-0.5,5.203-1.499c1.61-1.125,2.416-2.561,2.416-4.31c0-2.206-1.377-4.059-4.128-5.558
				c-1.274-0.707-2.548-1.374-3.821-1.998c-1.274-0.625-2.526-1.312-3.759-2.061c-1.467-0.833-2.536-1.821-3.207-2.967
				c-0.67-1.145-1.005-2.383-1.005-3.715c0-3.039,1.073-5.329,3.221-6.87c1.899-1.332,4.314-1.999,7.247-1.999
				c2.602,0,5.12,0.437,7.558,1.312V329.286z"/>
			<path d="M594.031,358.826c-1.075,0-2.066-0.178-2.974-0.531c-0.908-0.354-1.704-0.854-2.385-1.499
				c-0.681-0.645-1.219-1.405-1.61-2.279c-0.394-0.874-0.588-1.832-0.588-2.873v-22.67h-6.195v-3.06h6.195v-9.68h3.778v9.68h7.619
				v3.06h-7.619v22.617c0,1.081,0.371,2.047,1.115,2.897c0.743,0.852,1.63,1.277,2.664,1.277c1.445,0,3.014-0.436,4.707-1.311v3.186
				C597.292,358.429,595.724,358.826,594.031,358.826z"/>
			<path d="M604.871,309.925h3.778v3.81h-3.778V309.925z M608.649,325.976v31.664h-3.778v-31.664H608.649z"/>
			<path d="M646.435,342.088c0,5.038-1.26,9.015-3.779,11.929c-2.602,3.122-6.36,4.684-11.273,4.684
				c-4.874,0-8.673-1.687-11.398-5.059c-2.602-3.164-3.903-7.265-3.903-12.303c0-4.913,1.279-8.889,3.841-11.928
				c2.725-3.123,6.524-4.684,11.398-4.684c4.789,0,8.548,1.708,11.273,5.121C645.154,333.054,646.435,337.134,646.435,342.088z
				 M620.232,341.309c0,4.113,0.867,7.436,2.602,9.97c1.982,2.907,4.832,4.362,8.548,4.362c3.758,0,6.566-1.33,8.424-3.989
				c1.652-2.284,2.478-5.482,2.478-9.596c0-4.071-0.847-7.394-2.54-9.97c-1.941-2.866-4.75-4.3-8.424-4.3
				c-3.758,0-6.588,1.309-8.487,3.926C621.099,334.081,620.232,337.28,620.232,341.309z M634.479,309.925h3.779l-5.328,7.869h-3.036
				L634.479,309.925z"/>
			<path d="M652.94,357.701v-29.102c6.705-2.456,11.321-3.685,13.847-3.685c1.739,0,3.332,0.287,4.781,0.861
				c1.449,0.573,2.681,1.375,3.696,2.404c1.014,1.029,1.801,2.272,2.36,3.729c0.558,1.458,0.838,3.06,0.838,4.809v20.983h-3.779
				v-20.983c0-1.249-0.207-2.404-0.62-3.466c-0.414-1.061-0.982-1.987-1.704-2.779c-0.723-0.79-1.59-1.405-2.602-1.842
				c-1.013-0.437-2.137-0.656-3.376-0.656c-3.057,0-6.278,0.812-9.663,2.436v27.291H652.94z"/>
			<path d="M718.938,324.852c3.046,0,6.052,0.542,9.017,1.624v-16.487h3.779v46.027c-4.048,1.749-7.951,2.623-11.708,2.623
				c-4.914,0-8.879-1.645-11.892-4.934c-3.057-3.331-4.585-7.433-4.585-12.304c0-4.871,1.363-8.847,4.088-11.928
				C710.312,326.392,714.079,324.852,718.938,324.852z M719.308,327.912c-3.789,0-6.69,1.312-8.708,3.935
				c-1.936,2.457-2.902,5.642-2.902,9.555c0,3.914,1.153,7.225,3.458,9.931c2.388,2.914,5.476,4.371,9.264,4.371
				c2.141,0,4.651-0.541,7.534-1.624v-24.605C725.278,328.433,722.396,327.912,719.308,327.912z"/>
			<path d="M753.821,324.789c3.314,0,6.13,1.186,8.45,3.56c2.313,2.332,3.468,5.163,3.468,8.493c0,1.874-0.652,3.372-1.956,4.497
				c-1.305,1.124-2.95,1.686-4.938,1.686h-16.211c0.165,3.604,1.201,6.567,3.106,8.887c2.029,2.487,4.742,3.729,8.14,3.729
				c3.313,0,6.626-0.603,9.939-1.811v3.372c-3.231,1-6.544,1.499-9.939,1.499c-4.929,0-8.698-1.624-11.308-4.871
				c-2.478-3.039-3.717-7.058-3.717-12.054c0-4.871,1.177-8.826,3.531-11.866C745.039,326.497,748.85,324.789,753.821,324.789z
				 M761.961,336.842c0-2.248-0.808-4.309-2.423-6.183c-1.616-1.874-3.501-2.811-5.655-2.811c-3.356,0-6.049,1.187-8.08,3.56
				c-1.823,2.207-2.88,5.058-3.169,8.556h16.22c0.829,0,1.554-0.301,2.175-0.906C761.651,338.457,761.961,337.717,761.961,336.842z"
				/>
			<path d="M812.075,357.639c-2.932,0.749-5.761,1.124-8.486,1.124c-4.874,0-8.714-1.624-11.522-4.872
				c-2.685-3.08-4.026-7.098-4.026-12.053c0-4.912,1.342-8.951,4.026-12.116c2.85-3.289,6.69-4.934,11.522-4.934
				c2.807,0,5.637,0.396,8.486,1.186v3.248c-2.726-0.915-5.554-1.374-8.486-1.374c-3.635,0-6.525,1.392-8.672,4.175
				c-2.066,2.659-3.098,5.92-3.098,9.783c0,3.822,1.032,7.063,3.098,9.721c2.147,2.783,5.038,4.175,8.672,4.175
				c2.932,0,5.761-0.438,8.486-1.311V357.639z"/>
			<path d="M846.64,342.088c0,5.038-1.26,9.015-3.778,11.929c-2.602,3.122-6.36,4.684-11.274,4.684
				c-4.874,0-8.673-1.687-11.398-5.059c-2.601-3.164-3.902-7.265-3.902-12.303c0-4.913,1.279-8.889,3.84-11.928
				c2.725-3.123,6.524-4.684,11.398-4.684c4.79,0,8.548,1.708,11.275,5.121C845.359,333.054,846.64,337.134,846.64,342.088z
				 M820.438,341.309c0,4.113,0.867,7.436,2.602,9.97c1.982,2.907,4.831,4.362,8.548,4.362c3.758,0,6.566-1.33,8.424-3.989
				c1.651-2.284,2.478-5.482,2.478-9.596c0-4.071-0.846-7.394-2.539-9.97c-1.942-2.866-4.749-4.3-8.425-4.3
				c-3.758,0-6.587,1.309-8.486,3.926C821.304,334.081,820.438,337.28,820.438,341.309z"/>
			<path d="M854.01,357.701v-29.102c6.706-2.456,11.322-3.685,13.848-3.685c1.738,0,3.332,0.287,4.781,0.861
				c1.449,0.573,2.681,1.375,3.695,2.404c1.014,1.029,1.8,2.272,2.359,3.729c0.559,1.458,0.839,3.06,0.839,4.809v20.983h-3.779
				v-20.983c0-1.249-0.208-2.404-0.62-3.466c-0.414-1.061-0.982-1.987-1.704-2.779c-0.723-0.79-1.59-1.405-2.601-1.842
				c-1.013-0.437-2.138-0.656-3.376-0.656c-3.057,0-6.278,0.812-9.664,2.436v27.291H854.01z"/>
			<path d="M910.938,357.639c-2.933,0.749-5.761,1.124-8.486,1.124c-4.874,0-8.714-1.624-11.522-4.872
				c-2.685-3.08-4.026-7.098-4.026-12.053c0-4.912,1.342-8.951,4.026-12.116c2.85-3.289,6.69-4.934,11.522-4.934
				c2.807,0,5.637,0.396,8.486,1.186v3.248c-2.726-0.915-5.555-1.374-8.486-1.374c-3.635,0-6.526,1.392-8.672,4.175
				c-2.066,2.659-3.098,5.92-3.098,9.783c0,3.822,1.032,7.063,3.098,9.721c2.146,2.783,5.038,4.175,8.672,4.175
				c2.931,0,5.761-0.438,8.486-1.311V357.639z"/>
			<path d="M943.025,326.039v28.978c-6.419,2.457-11.013,3.685-13.786,3.685c-1.739,0-3.332-0.287-4.782-0.861
				c-1.449-0.574-2.68-1.375-3.694-2.404c-1.014-1.029-1.801-2.262-2.359-3.699c-0.56-1.436-0.839-3.029-0.839-4.778v-20.92h3.779
				v20.92c0,1.249,0.205,2.405,0.617,3.466c0.412,1.062,0.978,1.979,1.698,2.748c0.721,0.771,1.584,1.374,2.592,1.811
				c1.009,0.437,2.13,0.656,3.365,0.656c3.004,0,6.213-0.812,9.631-2.436v-27.166H943.025z"/>
			<path d="M965.2,327.974c-2.933,0-5.823,0.479-8.672,1.437v28.29h-3.779v-30.237c3.84-1.699,8.115-2.55,12.822-2.55
				c0.455,0,0.846,0,1.177,0c0.33,0,0.598,0.022,0.805,0.063v3.122c-0.579-0.041-1.063-0.072-1.455-0.094
				C965.706,327.985,965.407,327.974,965.2,327.974z"/>
			<path d="M989.049,329.286c-2.22-0.999-4.585-1.499-7.093-1.499c-4.771,0-7.154,1.812-7.154,5.434
				c0,1.957,1.376,3.644,4.128,5.059l7.765,3.997c2.767,1.915,4.15,4.33,4.15,7.244c0,3.122-1.26,5.517-3.779,7.182
				c-2.106,1.29-4.604,1.937-7.496,1.937c-3.386,0-6.256-0.437-8.61-1.312v-3.685c2.726,1.374,5.513,2.061,8.363,2.061
				c2.022,0,3.757-0.5,5.203-1.499c1.611-1.125,2.415-2.561,2.415-4.31c0-2.206-1.376-4.059-4.128-5.558
				c-1.274-0.707-2.548-1.374-3.821-1.998c-1.275-0.625-2.526-1.312-3.759-2.061c-1.467-0.833-2.536-1.821-3.207-2.967
				c-0.67-1.145-1.005-2.383-1.005-3.715c0-3.039,1.073-5.329,3.221-6.87c1.899-1.332,4.315-1.999,7.247-1.999
				c2.602,0,5.12,0.437,7.558,1.312V329.286z"/>
			<path d="M1025.781,342.088c0,5.038-1.26,9.015-3.779,11.929c-2.601,3.122-6.36,4.684-11.274,4.684
				c-4.872,0-8.672-1.687-11.398-5.059c-2.601-3.164-3.902-7.265-3.902-12.303c0-4.913,1.28-8.889,3.841-11.928
				c2.727-3.123,6.525-4.684,11.398-4.684c4.79,0,8.549,1.708,11.274,5.121C1024.501,333.054,1025.781,337.134,1025.781,342.088z
				 M999.579,341.309c0,4.113,0.867,7.436,2.602,9.97c1.982,2.907,4.831,4.362,8.548,4.362c3.758,0,6.567-1.33,8.425-3.989
				c1.651-2.284,2.478-5.482,2.478-9.596c0-4.071-0.847-7.394-2.539-9.97c-1.942-2.866-4.75-4.3-8.425-4.3
				c-3.758,0-6.587,1.309-8.486,3.926C1000.445,334.081,999.579,337.28,999.579,341.309z"/>
			<path d="M1063.904,324.852c3.047,0,6.052,0.542,9.017,1.624v-16.487h3.778v46.027c-4.047,1.749-7.949,2.623-11.707,2.623
				c-4.915,0-8.879-1.645-11.894-4.934c-3.057-3.331-4.584-7.433-4.584-12.304c0-4.871,1.363-8.847,4.088-11.928
				C1055.278,326.392,1059.046,324.852,1063.904,324.852z M1064.275,327.912c-3.789,0-6.691,1.312-8.708,3.935
				c-1.936,2.457-2.903,5.642-2.903,9.555c0,3.914,1.153,7.225,3.459,9.931c2.387,2.914,5.475,4.371,9.264,4.371
				c2.141,0,4.651-0.541,7.533-1.624v-24.605C1070.245,328.433,1067.362,327.912,1064.275,327.912z"/>
			<path d="M1098.787,324.789c3.314,0,6.131,1.186,8.451,3.56c2.313,2.332,3.469,5.163,3.469,8.493c0,1.874-0.652,3.372-1.957,4.497
				c-1.305,1.124-2.95,1.686-4.938,1.686h-16.211c0.166,3.604,1.201,6.567,3.105,8.887c2.029,2.487,4.743,3.729,8.14,3.729
				c3.313,0,6.626-0.603,9.94-1.811v3.372c-3.231,1-6.545,1.499-9.94,1.499c-4.929,0-8.698-1.624-11.308-4.871
				c-2.478-3.039-3.717-7.058-3.717-12.054c0-4.871,1.177-8.826,3.531-11.866C1090.005,326.497,1093.816,324.789,1098.787,324.789z
				 M1106.928,336.842c0-2.248-0.808-4.309-2.423-6.183c-1.617-1.874-3.501-2.811-5.655-2.811c-3.355,0-6.049,1.187-8.08,3.56
				c-1.824,2.207-2.879,5.058-3.168,8.556h16.22c0.829,0,1.554-0.301,2.175-0.906
				C1106.617,338.457,1106.928,337.717,1106.928,336.842z"/>
			<path d="M1155.245,357.639v-21.796c0-2.124-0.743-3.976-2.229-5.558c-1.487-1.582-3.264-2.374-5.328-2.374
				c-2.313,0-5.163,0.812-8.548,2.436v27.292h-3.778v-29.103l5.822-2.248c1.363-0.541,2.622-0.915,3.779-1.124
				c1.155-0.208,2.188-0.312,3.097-0.312c3.262,0,5.925,1.124,7.991,3.372c0.908-0.333,1.796-0.687,2.664-1.061
				c0.868-0.375,1.734-0.728,2.602-1.062c1.197-0.457,2.292-0.781,3.284-0.968c0.991-0.188,1.899-0.281,2.725-0.281
				c3.138,0,5.74,1.061,7.805,3.185c2.065,2.082,3.098,4.684,3.098,7.807v21.796h-3.779v-21.796c0-2.124-0.743-3.976-2.229-5.558
				c-1.446-1.582-3.201-2.374-5.266-2.374c-2.066,0-5.079,0.979-9.045,2.936c0.744,1.624,1.116,3.289,1.116,4.996v21.796H1155.245z"
				/>
			<path d="M1200.438,324.789c3.314,0,6.131,1.186,8.452,3.56c2.311,2.332,3.468,5.163,3.468,8.493c0,1.874-0.652,3.372-1.957,4.497
				c-1.305,1.124-2.951,1.686-4.938,1.686h-16.211c0.166,3.604,1.201,6.567,3.106,8.887c2.029,2.487,4.742,3.729,8.139,3.729
				c3.313,0,6.627-0.603,9.94-1.811v3.372c-3.23,1-6.545,1.499-9.94,1.499c-4.929,0-8.697-1.624-11.308-4.871
				c-2.478-3.039-3.716-7.058-3.716-12.054c0-4.871,1.177-8.826,3.53-11.866C1191.655,326.497,1195.467,324.789,1200.438,324.789z
				 M1208.579,336.842c0-2.248-0.808-4.309-2.424-6.183c-1.616-1.874-3.5-2.811-5.655-2.811c-3.355,0-6.048,1.187-8.079,3.56
				c-1.823,2.207-2.879,5.058-3.169,8.556h16.22c0.829,0,1.553-0.301,2.175-0.906
				C1208.269,338.457,1208.579,337.717,1208.579,336.842z M1203.562,309.863h3.778l-5.327,7.869h-3.035L1203.562,309.863z"/>
			<path d="M1231.251,327.974c-2.933,0-5.823,0.479-8.672,1.437v28.29h-3.779v-30.237c3.84-1.699,8.115-2.55,12.822-2.55
				c0.455,0,0.846,0,1.177,0c0.331,0,0.598,0.022,0.805,0.063v3.122c-0.578-0.041-1.063-0.072-1.455-0.094
				C1231.757,327.985,1231.458,327.974,1231.251,327.974z"/>
			<path d="M1239.552,309.925h3.778v3.81h-3.778V309.925z M1243.33,325.976v31.664h-3.778v-31.664H1243.33z"/>
			<path d="M1263.276,358.826c-1.074,0-2.066-0.178-2.974-0.531c-0.908-0.354-1.703-0.854-2.384-1.499
				c-0.682-0.645-1.219-1.405-1.611-2.279c-0.393-0.874-0.588-1.832-0.588-2.873v-22.67h-6.194v-3.06h6.194v-9.68h3.779v9.68h7.619
				v3.06h-7.619v22.617c0,1.081,0.372,2.047,1.115,2.897c0.744,0.852,1.631,1.277,2.664,1.277c1.445,0,3.014-0.436,4.708-1.311
				v3.186C1266.538,358.429,1264.969,358.826,1263.276,358.826z"/>
			<path d="M1301.93,342.088c0,5.038-1.26,9.015-3.779,11.929c-2.602,3.122-6.36,4.684-11.274,4.684
				c-4.873,0-8.672-1.687-11.398-5.059c-2.602-3.164-3.902-7.265-3.902-12.303c0-4.913,1.279-8.889,3.841-11.928
				c2.726-3.123,6.524-4.684,11.397-4.684c4.791,0,8.549,1.708,11.275,5.121C1300.649,333.054,1301.93,337.134,1301.93,342.088z
				 M1275.727,341.309c0,4.113,0.867,7.436,2.602,9.97c1.982,2.907,4.832,4.362,8.548,4.362c3.758,0,6.567-1.33,8.425-3.989
				c1.65-2.284,2.478-5.482,2.478-9.596c0-4.071-0.847-7.394-2.539-9.97c-1.942-2.866-4.75-4.3-8.426-4.3
				c-3.758,0-6.587,1.309-8.486,3.926C1276.594,334.081,1275.727,337.28,1275.727,341.309z"/>
		</g>
	</g>
	<g>
		<polygon fill="#366275" points="102.183,366.167 193.987,187.236 244.106,187.236 152.299,366.231 		"/>
		<polygon fill="#366275" points="161.35,366.231 253.649,186.418 303.77,186.418 212.382,366.231 		"/>
		<polygon fill="#366275" points="221.433,366.231 312.856,186.418 362.975,186.418 271.154,366.231 		"/>
		<polygon fill="#7996A3" points="362.975,181.196 275.784,2.264 225.665,2.264 312.856,181.194 		"/>
		<polygon fill="#7996A3" points="303.684,181.196 216.612,2.231 166.467,2.231 253.568,181.194 		"/>
		<polygon fill="#7996A3" points="241.515,181.196 157.412,2.264 107.293,2.231 191.394,181.194 		"/>
		<polygon fill="#15485E" points="125.998,186.418 185.205,186.418 158.395,239.031 		"/>
		<polygon fill="#15485E" points="117.246,186.418 64.574,186.418 126.884,300.348 153.122,249.254 		"/>
		<polygon fill="#15485E" points="55.556,186.418 1.93,186.418 93.129,366.231 122.247,309.358 		"/>
	</g>
</g>
</svg>
