<?xml version="1.0" encoding="utf-8"?>
<!-- Generator: Adobe Illustrator 24.1.0, SVG Export Plug-In . SVG Version: 6.00 Build 0)  -->
<svg version="1.1" id="Capa_1" xmlns="http://www.w3.org/2000/svg" xmlns:xlink="http://www.w3.org/1999/xlink" x="0px" y="0px"
	 viewBox="0 0 1304 368" enable-background="new 0 0 1304 368" xml:space="preserve">
<g>
	<g>
		<polygon fill="#E1A724" points="1.264,1.897 1.264,38.829 238.324,38.829 269.635,1.897 		"/>
		<polygon fill="#EBC46D" points="1.264,55.447 1.264,92.378 196.856,92.378 228.697,55.447 		"/>
		<polygon fill="#F0D391" points="1.264,110.845 1.264,147.776 151.367,147.776 183.211,110.845 		"/>
		<polygon fill="#E1A724" points="1.264,365.667 1.264,328.734 238.324,328.734 269.635,365.667 		"/>
		<polygon fill="#EBC46D" points="1.264,312.116 1.264,275.186 196.856,275.186 228.697,312.116 		"/>
		<polygon fill="#F0D391" points="1.264,256.721 1.264,219.789 151.367,219.789 183.211,256.721 		"/>
		<polygon fill="#FAF0DA" points="1.264,166.241 1.264,199.479 137.722,199.479 124.077,184.705 137.722,166.241 		"/>
		<path fill="#DD9900" d="M301.721,359.075L158.636,198.518c-0.269-0.352-0.247-0.786,0.056-1.117L303.151,39.857
			c0.353-0.382,0.323-0.896-0.07-1.256l-20.72-18.866c-0.638-0.576-0.277-1.458,0.677-1.659l77.68-16.369
			c0.988-0.211,1.914,0.45,1.7,1.21L345.144,65.17c-0.209,0.755-1.392,1.074-2.189,0.595l-19.871-12.059
			c-0.613-0.375-1.524-0.274-1.975,0.221l-130.63,143.525c-0.277,0.307-0.318,0.698-0.106,1.032l116.485,158.52
			C308.45,359.547,303.608,361.5,301.721,359.075"/>
	</g>
	<g>
		<g>
			<path d="M451.75,50.165c0-1.132,0.359-2.107,1.077-2.926c0.716-0.816,1.732-1.227,3.042-1.227h19.009
				c0.436,0,0.92,0.095,1.451,0.283c0.53,0.188,1.014,0.472,1.452,0.849c0.436,0.378,0.811,0.819,1.124,1.322
				c0.312,0.503,0.468,1.07,0.468,1.698v56.055l52.531-57.282c1.248-1.949,2.622-2.925,4.12-2.925h26.781
				c1.684,0,2.527,0.377,2.527,1.132c0,0.505-0.374,1.166-1.124,1.981l-49.441,58.037l57.682,75.21
				c0.936,1.26,1.404,2.171,1.404,2.738c0,0.692-0.655,1.038-1.967,1.038h-28.466c-1.499,0-2.872-0.975-4.12-2.926l-44.01-56.526
				l-15.919,16.609v38.69c0,2.769-1.498,4.153-4.495,4.153h-19.009c-2.747,0-4.12-1.384-4.12-4.153V50.165z"/>
			<path d="M592.113,50.447c0-2.955,1.373-4.435,4.121-4.435h57.307c6.305,0,12.204,1.195,17.698,3.586
				c5.492,2.391,10.284,5.632,14.373,9.72c4.088,4.09,7.304,8.903,9.645,14.438c2.342,5.538,3.512,11.419,3.512,17.647
				c0,4.342-0.595,8.493-1.78,12.457c-1.186,3.963-2.841,7.644-4.963,11.04c-2.123,3.397-4.65,6.464-7.584,9.201
				c-2.935,2.737-6.181,5.05-9.738,6.937l24.346,48.41c0.124,0.629,0.342,1.26,0.655,1.888c0.312,0.629,0.468,1.29,0.468,1.981
				c0,1.888-1.093,2.831-3.278,2.831h-21.724c-2.248,0-3.746-1.163-4.495-3.491l-22.661-45.297c-0.999,0-2.076,0.016-3.231,0.047
				c-1.156,0.033-2.747,0.047-4.775,0.047c-2.029,0-4.682,0-7.959,0c-3.277,0-7.507,0-12.688,0v44.636
				c0,2.707-1.437,4.059-4.308,4.059h-18.821c-1.25,0-2.247-0.33-2.997-0.991c-0.749-0.661-1.124-1.683-1.124-3.067V50.447z
				 M671.051,91.544c0-2.698-0.501-5.319-1.499-7.862c-0.998-2.542-2.404-4.819-4.213-6.827c-1.812-2.009-3.965-3.641-6.461-4.898
				c-2.498-1.253-5.214-1.976-8.147-2.165c-2.186-0.062-4.324-0.11-6.414-0.142c-2.092-0.03-4.261-0.047-6.508-0.047h-18.447v43.787
				h24.72c1.248,0,2.418,0,3.511,0c1.092,0,2.262-0.062,3.512-0.189c2.934-0.188,5.633-0.879,8.1-2.071
				c2.465-1.191,4.573-2.776,6.321-4.755c1.746-1.977,3.104-4.238,4.073-6.779C670.566,97.053,671.051,94.37,671.051,91.544z"/>
			<path d="M716.839,116.222c0-6.605,0.843-12.99,2.529-19.157c1.685-6.165,4.087-11.922,7.21-17.27
				c3.121-5.346,6.85-10.223,11.189-14.626c4.338-4.403,9.16-8.163,14.467-11.277c5.306-3.114,11.003-5.536,17.09-7.266
				c6.086-1.73,12.438-2.595,19.055-2.595c6.555,0,12.875,0.865,18.962,2.595c6.086,1.73,11.782,4.152,17.089,7.266
				c5.306,3.114,10.144,6.874,14.514,11.277c4.368,4.403,8.1,9.28,11.19,14.626c3.089,5.348,5.492,11.105,7.21,17.27
				c1.716,6.167,2.575,12.583,2.575,19.251c0,6.67-0.859,13.056-2.575,19.157c-1.718,6.102-4.121,11.828-7.21,17.175
				c-3.09,5.348-6.822,10.208-11.19,14.58c-4.37,4.373-9.208,8.115-14.514,11.229c-5.307,3.115-11.003,5.521-17.089,7.22
				c-6.087,1.698-12.439,2.547-19.056,2.547c-6.618,0-12.969-0.849-19.055-2.547c-6.087-1.699-11.784-4.12-17.09-7.267
				c-5.306-3.146-10.128-6.904-14.467-11.277c-4.339-4.373-8.053-9.217-11.143-14.534c-3.09-5.314-5.478-11.04-7.163-17.174
				C717.682,129.291,716.839,122.891,716.839,116.222z M743.901,116.034c0,6.354,1.138,12.299,3.418,17.835
				c2.278,5.537,5.399,10.35,9.364,14.438c3.963,4.09,8.645,7.33,14.046,9.72c5.398,2.392,11.251,3.586,17.557,3.586
				c6.242,0,12.063-1.194,17.463-3.586c5.399-2.39,10.097-5.63,14.093-9.72c3.995-4.088,7.131-8.901,9.411-14.438
				c2.278-5.536,3.418-11.481,3.418-17.835c0-6.29-1.14-12.205-3.418-17.742c-2.28-5.535-5.416-10.364-9.411-14.485
				c-3.996-4.121-8.694-7.376-14.093-9.767c-5.4-2.391-11.222-3.586-17.463-3.586c-6.306,0-12.159,1.195-17.557,3.586
				c-5.401,2.392-10.083,5.646-14.046,9.767c-3.965,4.121-7.086,8.95-9.364,14.485C745.039,103.829,743.901,109.743,743.901,116.034
				z"/>
			<path d="M884.545,50.258c0-1.194,0.359-2.201,1.077-3.02c0.717-0.816,1.732-1.227,3.043-1.227h21.537
				c0.873,0,1.7,0.205,2.482,0.614c0.779,0.41,1.482,1.054,2.106,1.934c10.675,15.351,21.256,30.591,31.744,45.721
				c10.487,15.132,21.069,30.372,31.743,45.722V49.598c0.188-1.132,0.656-2.013,1.405-2.643c0.749-0.628,1.653-0.943,2.716-0.943
				h18.072c1.248,0,2.325,0.377,3.23,1.132c0.904,0.755,1.358,1.763,1.358,3.021v132.114c0,2.581-1.468,3.87-4.401,3.87h-20.32
				c-1.373,0-2.653-0.85-3.838-2.548c-10.988-16.043-21.928-32.069-32.821-48.081c-10.894-16.01-21.803-32.069-32.727-48.174v94.65
				c0,1.384-0.328,2.423-0.983,3.115c-0.655,0.692-1.765,1.038-3.324,1.038h-17.978c-1.437,0-2.481-0.361-3.137-1.085
				c-0.655-0.723-0.983-1.714-0.983-2.974V50.258z"/>
			<path d="M1029.778,116.222c0-6.605,0.842-12.99,2.528-19.157c1.685-6.165,4.087-11.922,7.21-17.27
				c3.121-5.346,6.851-10.223,11.189-14.626c4.338-4.403,9.161-8.163,14.467-11.277c5.305-3.114,11.002-5.536,17.089-7.266
				c6.086-1.73,12.438-2.595,19.055-2.595c6.555,0,12.875,0.865,18.962,2.595c6.086,1.73,11.782,4.152,17.089,7.266
				c5.305,3.114,10.144,6.874,14.514,11.277c4.369,4.403,8.1,9.28,11.19,14.626c3.089,5.348,5.492,11.105,7.21,17.27
				c1.716,6.167,2.575,12.583,2.575,19.251c0,6.67-0.859,13.056-2.575,19.157c-1.718,6.102-4.121,11.828-7.21,17.175
				c-3.091,5.348-6.821,10.208-11.19,14.58c-4.37,4.373-9.208,8.115-14.514,11.229c-5.307,3.115-11.003,5.521-17.089,7.22
				c-6.087,1.698-12.44,2.547-19.056,2.547c-6.617,0-12.969-0.849-19.055-2.547c-6.086-1.699-11.784-4.12-17.089-7.267
				c-5.306-3.146-10.129-6.904-14.467-11.277c-4.339-4.373-8.053-9.217-11.143-14.534c-3.09-5.314-5.478-11.04-7.163-17.174
				C1030.621,129.291,1029.778,122.891,1029.778,116.222z M1056.84,116.034c0,6.354,1.138,12.299,3.417,17.835
				c2.278,5.537,5.399,10.35,9.364,14.438c3.963,4.09,8.646,7.33,14.046,9.72c5.398,2.392,11.25,3.586,17.557,3.586
				c6.242,0,12.063-1.194,17.464-3.586c5.399-2.39,10.097-5.63,14.093-9.72c3.994-4.088,7.131-8.901,9.411-14.438
				c2.278-5.536,3.417-11.481,3.417-17.835c0-6.29-1.14-12.205-3.417-17.742c-2.28-5.535-5.417-10.364-9.411-14.485
				c-3.996-4.121-8.694-7.376-14.093-9.767c-5.401-2.391-11.222-3.586-17.464-3.586c-6.306,0-12.158,1.195-17.557,3.586
				c-5.401,2.392-10.083,5.646-14.046,9.767c-3.965,4.121-7.086,8.95-9.364,14.485
				C1057.978,103.829,1056.84,109.743,1056.84,116.034z"/>
			<path d="M1276.515,83.381c-0.812,0-1.561-0.203-2.247-0.613c-0.688-0.408-1.467-0.958-2.341-1.651l-0.188-0.094
				c-1.187-1.194-2.715-2.515-4.588-3.963c-1.873-1.446-3.965-2.799-6.273-4.058c-2.311-1.258-4.792-2.327-7.445-3.209
				c-2.654-0.88-5.354-1.321-8.1-1.321c-3.496,0-6.586,0.393-9.27,1.179c-2.685,0.787-4.932,1.856-6.742,3.209
				c-1.812,1.354-3.184,2.941-4.121,4.766c-0.936,1.825-1.404,3.774-1.404,5.851c0,2.264,0.702,4.246,2.107,5.945
				c1.404,1.699,3.308,3.208,5.711,4.53c2.402,1.321,5.165,2.533,8.287,3.633c3.121,1.102,6.398,2.187,9.832,3.255
				c3.933,1.196,7.833,2.486,11.705,3.869c3.87,1.385,7.568,2.943,11.096,4.672c3.526,1.731,6.82,3.649,9.879,5.756
				c3.057,2.108,5.695,4.529,7.912,7.266c2.215,2.737,3.963,5.789,5.244,9.154c1.279,3.366,1.919,7.156,1.919,11.371
				c0,6.858-1.374,13.055-4.12,18.59c-2.748,5.537-6.54,10.271-11.377,14.202c-4.838,3.933-10.52,6.953-17.042,9.06
				c-6.524,2.107-13.531,3.161-21.022,3.161c-4.808,0-9.583-0.566-14.326-1.698c-4.745-1.132-9.303-2.737-13.672-4.813
				c-4.37-2.077-8.506-4.578-12.407-7.502c-3.901-2.925-7.383-6.212-10.44-9.862v0.095l-0.188-0.378
				c-1.374-1.572-2.06-3.021-2.06-4.342c0-0.69,0.187-1.352,0.562-1.981c0.375-0.628,0.937-1.321,1.686-2.076l3.09-3.113
				c0.937-0.817,1.935-1.731,2.997-2.737c1.06-1.006,2.121-1.918,3.183-2.737c1.061-0.817,2.044-1.51,2.95-2.076
				c0.904-0.567,1.639-0.85,2.2-0.85c0.874,0,1.686,0.283,2.435,0.85c0.749,0.566,1.373,1.101,1.873,1.604l0.375,0.377h-0.094
				c2.185,2.076,4.635,4.058,7.351,5.945c2.716,1.888,5.509,3.571,8.381,5.049c2.871,1.478,5.726,2.642,8.568,3.491
				c2.839,0.85,5.508,1.274,8.006,1.274c3.433,0,6.648-0.44,9.645-1.321c2.997-0.88,5.586-2.123,7.772-3.727
				c2.185-1.605,3.9-3.54,5.15-5.804c1.248-2.265,1.873-4.78,1.873-7.55c0-2.767-0.812-5.143-2.434-7.125
				c-1.625-1.981-3.746-3.711-6.368-5.19c-2.621-1.478-5.571-2.751-8.848-3.822c-3.278-1.07-6.571-2.076-9.879-3.02
				c-7.617-2.327-14.279-4.844-19.991-7.55c-5.712-2.704-10.473-5.74-14.281-9.106c-3.808-3.365-6.664-7.14-8.568-11.324
				c-1.905-4.184-2.855-8.885-2.855-14.109c0-5.851,1.17-11.182,3.511-15.995c2.341-4.812,5.666-8.933,9.973-12.363
				c4.307-3.427,9.488-6.101,15.544-8.02c6.054-1.918,12.828-2.879,20.319-2.879c5.68,0,11.455,0.897,17.323,2.69
				c5.867,1.792,11.298,4.263,16.293,7.408c1.499,0.944,3.027,2.014,4.588,3.209c1.56,1.196,2.997,2.406,4.308,3.633
				c1.311,1.226,2.388,2.422,3.23,3.585c0.843,1.165,1.265,2.156,1.265,2.973c0,0.755-0.188,1.526-0.563,2.312
				c-0.374,0.788-0.842,1.495-1.404,2.123l-2.809,3.02v-0.094c-0.936,1.007-1.905,2.045-2.903,3.114
				c-0.999,1.07-1.998,2.029-2.996,2.877c-1,0.85-1.905,1.558-2.716,2.124C1277.763,83.099,1277.077,83.381,1276.515,83.381z"/>
		</g>
	</g>
	<g>
		<g>
			<path d="M480.276,232.851c7.111,0,13.93,1.258,20.457,3.768v6.207c-6.672-3.028-13.491-4.544-20.457-4.544
				c-9.678,0-17.634,3.469-23.866,10.403c-6.233,6.788-9.348,15.198-9.348,25.231c0,10.034,3.115,18.408,9.348,25.12
				c6.305,7.011,14.26,10.515,23.866,10.515c6.012,0,11.84-1.105,17.487-3.315v-30.823h-19.247v-5.431h25.956v39.68
				c-7.626,3.546-15.691,5.321-24.196,5.321c-11.585,0-21.116-3.88-28.595-11.639c-7.553-7.832-11.328-17.623-11.328-29.372
				c0-11.675,3.775-21.428,11.328-29.261C459.307,236.805,468.839,232.851,480.276,232.851z"/>
			<path d="M545.118,254.797c5.884,0,10.885,2.105,15.004,6.318c4.105,4.139,6.16,9.163,6.16,15.074c0,3.325-1.158,5.985-3.475,7.98
				c-2.316,1.994-5.238,2.993-8.766,2.993h-28.783c0.294,6.397,2.133,11.656,5.515,15.771c3.604,4.413,8.421,6.618,14.45,6.618
				c5.882,0,11.765-1.07,17.649-3.214v5.985c-5.736,1.773-11.621,2.661-17.649,2.661c-8.75,0-15.442-2.883-20.075-8.646
				c-4.399-5.393-6.599-12.525-6.599-21.391c0-8.647,2.09-15.665,6.269-21.059C529.525,257.828,536.292,254.797,545.118,254.797z
				 M559.572,276.19c0-3.99-1.435-7.649-4.303-10.974c-2.87-3.325-6.216-4.988-10.041-4.988c-5.958,0-10.739,2.107-14.344,6.318
				c-3.238,3.917-5.112,8.978-5.627,15.185h28.798c1.471,0,2.758-0.535,3.861-1.608C559.021,279.053,559.572,277.741,559.572,276.19
				z"/>
			<path d="M607.303,262.778c-3.942-1.773-8.14-2.661-12.593-2.661c-8.469,0-12.703,3.215-12.703,9.644
				c0,3.474,2.443,6.466,7.331,8.978l13.786,7.093c4.911,3.4,7.369,7.686,7.369,12.857c0,5.542-2.237,9.792-6.709,12.747
				c-3.739,2.289-8.177,3.435-13.308,3.435c-6.013,0-11.108-0.776-15.288-2.328v-6.539c4.839,2.439,9.789,3.657,14.848,3.657
				c3.591,0,6.671-0.887,9.238-2.659c2.859-1.996,4.29-4.546,4.29-7.648c0-3.915-2.444-7.204-7.329-9.865
				c-2.262-1.255-4.523-2.438-6.785-3.547c-2.262-1.108-4.485-2.328-6.672-3.658c-2.606-1.477-4.502-3.232-5.693-5.265
				c-1.191-2.031-1.786-4.229-1.786-6.595c0-5.393,1.906-9.457,5.719-12.192c3.372-2.363,7.661-3.547,12.868-3.547
				c4.62,0,9.091,0.776,13.418,2.328V262.778z"/>
			<path d="M640.846,315.203c-1.908,0-3.667-0.314-5.279-0.941c-1.614-0.629-3.024-1.514-4.234-2.661
				c-1.21-1.145-2.164-2.493-2.859-4.046c-0.698-1.551-1.045-3.25-1.045-5.098v-40.234H616.43v-5.431h10.998v-17.179h6.709v17.179
				h13.527v5.431h-13.527v40.141c0,1.917,0.66,3.631,1.98,5.142c1.319,1.512,2.895,2.267,4.729,2.267
				c2.566,0,5.351-0.776,8.359-2.327v5.653C646.637,314.5,643.852,315.203,640.846,315.203z"/>
			<path d="M660.093,228.419h6.708v6.761h-6.708V228.419z M666.801,256.903v56.195h-6.708v-56.195H666.801z"/>
			<path d="M733.887,285.499c0,8.941-2.237,15.999-6.708,21.17c-4.619,5.542-11.292,8.314-20.016,8.314
				c-8.653,0-15.398-2.994-20.237-8.979c-4.62-5.614-6.929-12.893-6.929-21.835c0-8.718,2.272-15.776,6.819-21.17
				c4.839-5.542,11.584-8.313,20.237-8.313c8.505,0,15.177,3.031,20.017,9.089C731.614,269.466,733.887,276.707,733.887,285.499z
				 M687.365,284.115c0,7.3,1.541,13.199,4.619,17.695c3.52,5.161,8.579,7.741,15.178,7.741c6.67,0,11.657-2.359,14.957-7.078
				c2.932-4.055,4.399-9.732,4.399-17.031c0-7.225-1.504-13.121-4.509-17.694c-3.447-5.087-8.432-7.631-14.957-7.631
				c-6.673,0-11.696,2.324-15.068,6.968C688.906,271.288,687.365,276.965,687.365,284.115z M712.661,228.419h6.709l-9.458,13.965
				h-5.389L712.661,228.419z"/>
			<path d="M745.436,313.208v-51.65c11.906-4.358,20.101-6.538,24.586-6.538c3.086,0,5.915,0.509,8.487,1.527
				c2.573,1.019,4.76,2.442,6.561,4.268c1.801,1.827,3.196,4.033,4.189,6.619c0.992,2.587,1.489,5.431,1.489,8.534v37.241h-6.708
				v-37.241c0-2.216-0.368-4.268-1.1-6.151c-0.734-1.884-1.743-3.528-3.025-4.933c-1.284-1.403-2.823-2.494-4.62-3.27
				c-1.797-0.776-3.794-1.164-5.994-1.164c-5.427,0-11.146,1.441-17.157,4.323v48.436H745.436z"/>
			<path d="M874.881,234.847v5.431h-29.805v29.704h28.485v5.431h-28.485v37.574h-6.708v-78.14H874.881z"/>
			<path d="M887.638,228.419h6.708v6.761h-6.708V228.419z M894.347,256.903v56.195h-6.708v-56.195H894.347z"/>
			<path d="M911.831,313.208v-51.65c11.906-4.358,20.101-6.538,24.586-6.538c3.086,0,5.915,0.509,8.488,1.527
				c2.572,1.019,4.76,2.442,6.561,4.268c1.801,1.827,3.196,4.033,4.189,6.619c0.991,2.587,1.488,5.431,1.488,8.534v37.241h-6.709
				v-37.241c0-2.216-0.367-4.268-1.1-6.151c-0.734-1.884-1.743-3.528-3.025-4.933c-1.283-1.403-2.824-2.494-4.619-3.27
				c-1.797-0.776-3.794-1.164-5.994-1.164c-5.427,0-11.146,1.441-17.157,4.323v48.436H911.831z"/>
			<path d="M1014.223,308.331c-6.673,4.509-14.372,6.761-23.097,6.761c-6.086,0-11.146-1.515-15.177-4.543
				c-3.887-3.103-5.829-7.094-5.829-11.971c0-5.393,2.31-9.715,6.929-12.968c5.206-3.694,12.794-5.543,22.766-5.543h7.699v-7.826
				c0-3.159-1.174-5.914-3.519-8.266c-2.348-2.425-5.279-3.637-8.799-3.637c-6.746,0-12.941,1.108-18.586,3.325v-5.985
				c5.719-1.847,12.318-2.77,19.796-2.77c4.985,0,9.201,1.662,12.648,4.987c3.445,3.252,5.169,7.353,5.169,12.303V308.331z
				 M1007.513,285.499h-7.039c-7.993,0-14.041,1.398-18.147,4.193c-3.373,2.281-5.059,5.224-5.059,8.827
				c0,3.163,1.282,5.81,3.85,7.944c2.565,2.134,6.048,3.198,10.448,3.198c5.865,0,11.18-1.36,15.947-4.081V285.499z"/>
			<path d="M1030.828,313.208v-51.65c11.906-4.358,20.101-6.538,24.586-6.538c3.086,0,5.915,0.509,8.487,1.527
				c2.573,1.019,4.76,2.442,6.561,4.268c1.801,1.827,3.196,4.033,4.189,6.619c0.992,2.587,1.488,5.431,1.488,8.534v37.241h-6.708
				v-37.241c0-2.216-0.368-4.268-1.1-6.151c-0.734-1.884-1.743-3.528-3.024-4.933c-1.283-1.403-2.823-2.494-4.619-3.27
				c-1.797-0.776-3.794-1.164-5.994-1.164c-5.427,0-11.146,1.441-17.157,4.323v48.436H1030.828z"/>
			<path d="M1131.898,313.098c-5.207,1.329-10.228,1.994-15.067,1.994c-8.653,0-15.472-2.881-20.457-8.644
				c-4.768-5.468-7.149-12.597-7.149-21.392c0-8.717,2.382-15.886,7.149-21.501c5.059-5.837,11.878-8.757,20.457-8.757
				c4.985,0,10.008,0.703,15.067,2.105v5.763c-4.839-1.624-9.862-2.438-15.067-2.438c-6.454,0-11.586,2.47-15.398,7.409
				c-3.667,4.72-5.499,10.507-5.499,17.363c0,6.784,1.833,12.535,5.499,17.253c3.812,4.94,8.944,7.409,15.398,7.409
				c5.205,0,10.228-0.775,15.067-2.328V313.098z"/>
			<path d="M1143.885,228.419h6.708v6.761h-6.708V228.419z M1150.593,256.903v56.195h-6.708v-56.195H1150.593z"/>
			<path d="M1190.468,254.797c5.884,0,10.885,2.105,15.004,6.318c4.105,4.139,6.159,9.163,6.159,15.074
				c0,3.325-1.158,5.985-3.476,7.98c-2.316,1.994-5.237,2.993-8.765,2.993h-28.783c0.293,6.397,2.133,11.656,5.515,15.771
				c3.604,4.413,8.42,6.618,14.45,6.618c5.882,0,11.765-1.07,17.649-3.214v5.985c-5.736,1.773-11.62,2.661-17.649,2.661
				c-8.75,0-15.442-2.883-20.074-8.646c-4.4-5.393-6.6-12.525-6.6-21.391c0-8.647,2.09-15.665,6.269-21.059
				C1174.875,257.828,1181.643,254.797,1190.468,254.797z M1204.922,276.19c0-3.99-1.435-7.649-4.303-10.974
				c-2.87-3.325-6.216-4.988-10.041-4.988c-5.958,0-10.739,2.107-14.344,6.318c-3.238,3.917-5.112,8.978-5.626,15.185h28.798
				c1.471,0,2.758-0.535,3.861-1.608C1204.371,279.053,1204.922,277.741,1204.922,276.19z"/>
			<path d="M1246.934,260.45c-5.207,0-10.338,0.851-15.397,2.549v50.209h-6.709v-53.664c6.819-3.017,14.408-4.525,22.767-4.525
				c0.806,0,1.501,0,2.09,0c0.586,0,1.062,0.038,1.43,0.111v5.542c-1.027-0.073-1.889-0.128-2.585-0.167
				C1247.831,260.469,1247.3,260.45,1246.934,260.45z"/>
			<path d="M1301.264,308.331c-6.673,4.509-14.372,6.761-23.096,6.761c-6.086,0-11.146-1.515-15.177-4.543
				c-3.887-3.103-5.829-7.094-5.829-11.971c0-5.393,2.31-9.715,6.929-12.968c5.206-3.694,12.794-5.543,22.767-5.543h7.698v-7.826
				c0-3.159-1.174-5.914-3.519-8.266c-2.348-2.425-5.279-3.637-8.799-3.637c-6.746,0-12.941,1.108-18.586,3.325v-5.985
				c5.718-1.847,12.317-2.77,19.796-2.77c4.985,0,9.2,1.662,12.647,4.987c3.446,3.252,5.169,7.353,5.169,12.303V308.331z
				 M1294.555,285.499h-7.038c-7.993,0-14.042,1.398-18.147,4.193c-3.373,2.281-5.059,5.224-5.059,8.827
				c0,3.163,1.282,5.81,3.85,7.944c2.565,2.134,6.049,3.198,10.448,3.198c5.865,0,11.18-1.36,15.947-4.081V285.499z"/>
		</g>
	</g>
</g>
</svg>
