<?xml version="1.0" encoding="utf-8"?>
<!-- Generator: Adobe Illustrator 24.1.0, SVG Export Plug-In . SVG Version: 6.00 Build 0)  -->
<svg version="1.1" id="Capa_1" xmlns="http://www.w3.org/2000/svg" xmlns:xlink="http://www.w3.org/1999/xlink" x="0px" y="0px"
	 viewBox="0 0 1304 368" enable-background="new 0 0 1304 368" xml:space="preserve">
<g>
	<g>
		<g>
			<path d="M576.586,49.513c0-1.099,0.348-2.045,1.044-2.839c0.694-0.792,1.678-1.19,2.948-1.19h18.421
				c0.423,0,0.892,0.092,1.407,0.274c0.513,0.184,0.983,0.458,1.406,0.824c0.422,0.367,0.785,0.795,1.089,1.283
				c0.302,0.489,0.454,1.039,0.454,1.648v54.397l50.905-55.587c1.21-1.892,2.541-2.839,3.993-2.839h25.953
				c1.633,0,2.45,0.367,2.45,1.098c0,0.49-0.363,1.131-1.089,1.924l-47.912,56.319l55.897,72.988
				c0.908,1.221,1.361,2.105,1.361,2.655c0,0.672-0.635,1.007-1.905,1.007h-27.586c-1.451,0-2.783-0.946-3.992-2.839l-42.648-54.854
				l-15.426,16.117v37.546c0,2.687-1.453,4.03-4.357,4.03h-18.421c-2.662,0-3.992-1.343-3.992-4.03V49.513z"/>
			<path d="M757.797,100.888h0.182l27.494-52.474c0.665-1.343,1.24-2.121,1.724-2.336c0.484-0.213,1.148-0.411,1.996-0.595h25.044
				c1.149,0,1.725,0.519,1.725,1.556c0,0.549-0.394,1.314-1.18,2.29c-7.32,12.517-14.58,25.138-21.777,37.867
				c-7.2,12.729-14.519,25.352-21.96,37.867v52.107c0,2.871-1.361,4.305-4.083,4.305h-18.511c-2.541,0-3.811-1.434-3.811-4.305
				v-51.924l-43.647-75.734c-0.303-0.305-0.544-0.747-0.726-1.327c-0.181-0.58-0.272-1.022-0.272-1.329
				c0-0.916,0.575-1.374,1.725-1.374h24.863c0.484,0.123,0.877,0.199,1.18,0.229c0.302,0.031,0.589,0.139,0.862,0.321
				c0.272,0.183,0.545,0.489,0.816,0.915c0.273,0.428,0.62,1.039,1.044,1.832L757.797,100.888z"/>
			<path d="M833.293,49.788c0-2.869,1.33-4.305,3.993-4.305h55.534c6.109,0,11.826,1.16,17.15,3.481
				c5.323,2.32,9.966,5.463,13.929,9.432c3.961,3.969,7.078,8.64,9.346,14.011c2.269,5.373,3.403,11.081,3.403,17.126
				c0,4.213-0.576,8.242-1.725,12.087c-1.149,3.847-2.753,7.419-4.809,10.716c-2.058,3.296-4.508,6.272-7.351,8.929
				c-2.844,2.655-5.989,4.899-9.437,6.73l23.593,46.98c0.121,0.61,0.333,1.221,0.635,1.83c0.302,0.611,0.454,1.252,0.454,1.923
				c0,1.832-1.059,2.748-3.176,2.748h-21.052c-2.177,0-3.629-1.129-4.355-3.388l-21.959-43.958c-0.969,0-2.012,0.016-3.13,0.047
				c-1.12,0.03-2.663,0.045-4.628,0.045c-1.967,0-4.538,0-7.713,0c-3.176,0-7.275,0-12.296,0v43.316
				c0,2.626-1.391,3.938-4.173,3.938h-18.24c-1.21,0-2.178-0.321-2.903-0.961c-0.726-0.642-1.089-1.633-1.089-2.977V49.788z
				 M909.789,89.669c0-2.619-0.484-5.162-1.452-7.629c-0.969-2.468-2.329-4.677-4.083-6.626c-1.754-1.948-3.842-3.532-6.261-4.751
				c-2.42-1.219-5.052-1.919-7.895-2.103c-2.118-0.06-4.19-0.106-6.216-0.137c-2.028-0.03-4.128-0.047-6.306-0.047h-17.877v42.492
				h23.956c1.21,0,2.345,0,3.404,0c1.058,0,2.192-0.06,3.402-0.184c2.842-0.183,5.46-0.852,7.85-2.009
				c2.389-1.157,4.431-2.695,6.125-4.615c1.693-1.919,3.008-4.113,3.947-6.579C909.319,95.015,909.789,92.411,909.789,89.669z"/>
			<path d="M954.161,113.617c0-6.411,0.817-12.606,2.45-18.59c1.634-5.982,3.961-11.569,6.987-16.759
				c3.024-5.188,6.639-9.92,10.843-14.194c4.205-4.273,8.878-7.922,14.02-10.943c5.141-3.023,10.662-5.373,16.561-7.053
				c5.898-1.678,12.053-2.518,18.466-2.518c6.353,0,12.478,0.84,18.376,2.518c5.897,1.68,11.417,4.03,16.56,7.053
				c5.141,3.021,9.83,6.67,14.065,10.943c4.233,4.274,7.849,9.005,10.843,14.194c2.995,5.19,5.323,10.776,6.988,16.759
				c1.663,5.984,2.495,12.211,2.495,18.682c0,6.472-0.833,12.669-2.495,18.589c-1.665,5.923-3.993,11.48-6.988,16.668
				c-2.995,5.189-6.61,9.905-10.843,14.148c-4.235,4.244-8.924,7.876-14.065,10.897c-5.143,3.022-10.662,5.357-16.56,7.007
				c-5.898,1.647-12.055,2.471-18.467,2.471s-12.567-0.824-18.466-2.471c-5.898-1.65-11.419-3.999-16.561-7.053
				c-5.143-3.051-9.815-6.699-14.02-10.943c-4.205-4.242-7.804-8.942-10.798-14.103c-2.994-5.159-5.308-10.714-6.942-16.667
				C954.977,126.3,954.161,120.089,954.161,113.617z M980.385,113.434c0,6.167,1.103,11.937,3.312,17.308
				c2.207,5.374,5.231,10.044,9.074,14.012c3.841,3.969,8.378,7.113,13.612,9.433c5.232,2.32,10.903,3.48,17.014,3.48
				c6.049,0,11.69-1.16,16.924-3.48c5.231-2.319,9.785-5.463,13.656-9.433c3.871-3.968,6.911-8.638,9.12-14.012
				c2.208-5.371,3.312-11.141,3.312-17.308c0-6.104-1.104-11.844-3.312-17.217c-2.208-5.371-5.249-10.058-9.12-14.057
				c-3.872-3.998-8.425-7.157-13.656-9.478c-5.233-2.32-10.875-3.48-16.924-3.48c-6.11,0-11.782,1.16-17.014,3.48
				c-5.233,2.321-9.771,5.48-13.612,9.478c-3.842,4-6.867,8.686-9.074,14.057C981.488,101.59,980.385,107.329,980.385,113.434z
				 M1020.674,5.738c0.484-1.342,1.165-2.318,2.042-2.93c0.877-0.61,1.829-0.915,2.858-0.915h16.153c0.966,0,1.647,0.23,2.041,0.686
				c0.393,0.459,0.59,1.023,0.59,1.694c0,0.489-0.045,1.023-0.136,1.603c-0.091,0.58-0.258,1.144-0.499,1.694l-8.621,19.414
				c-1.15,2.564-2.753,3.847-4.81,3.847h-14.155c-1.03,0-1.695-0.243-1.997-0.733c-0.304-0.486-0.453-1.066-0.453-1.739
				c0-0.61,0.03-1.221,0.091-1.833c0.059-0.609,0.24-1.25,0.544-1.922L1020.674,5.738z"/>
			<path d="M1116.679,49.604c0-1.158,0.348-2.136,1.044-2.93c0.694-0.792,1.678-1.19,2.949-1.19h20.871
				c0.847,0,1.647,0.199,2.405,0.595c0.755,0.399,1.436,1.024,2.041,1.878c10.345,14.896,20.599,29.686,30.761,44.369
				c10.164,14.684,20.417,29.474,30.761,44.369v-87.73c0.183-1.1,0.636-1.953,1.361-2.565c0.726-0.61,1.603-0.916,2.631-0.916
				h17.514c1.209,0,2.252,0.367,3.131,1.098c0.876,0.733,1.315,1.71,1.315,2.931v128.209c0,2.503-1.422,3.754-4.265,3.754h-19.691
				c-1.332,0-2.572-0.824-3.721-2.473c-10.648-15.568-21.249-31.12-31.805-46.658c-10.557-15.537-21.128-31.121-31.714-46.751
				v91.852c0,1.344-0.318,2.352-0.953,3.023c-0.636,0.672-1.71,1.007-3.222,1.007h-17.422c-1.393,0-2.405-0.351-3.041-1.053
				c-0.635-0.701-0.952-1.664-0.952-2.885V49.604z"/>
		</g>
	</g>
	<g>
		<path fill="#3B8ABF" d="M260.059,308.147V217.77h103.034c0,0,0-90.379-102.824-90.379c-85.187,0-103.245,59.791-103.245,91.806
			C157.024,268.862,195.958,308.147,260.059,308.147z"/>
		<path fill="#3B8ABF" d="M257.491,65.715v31.349c0,0-9.685-0.182-19.512,0.796c-5.71,0.566-11.154,1.54-14.195,2.035
			c-6.747,1.097-16.526,4.085-22.949,6.161c-10.021,3.24-22.636,9.858-30.387,14.747c-3.158,1.993-7.862,5.145-11.742,8.324
			c-3.53,2.895-6.285,5.521-8.55,7.507c-4.182,3.67-10.829,11.367-13.813,15.491c-2.301,3.181-5.474,7.89-8.372,12.872
			c-3.833,6.59-6.635,14.121-8.292,18.862c-1.538,4.402-2.748,10.021-3.981,16.702c-0.627,3.385-1.02,7.983-1.082,11.461
			c-0.074,4.219,0.029,8.485,0.271,12.278c0.214,3.357,0.985,7.234,1.306,9.925c0.779,6.498,4.726,18.118,7.355,23.739
			c2.047,4.369,4.868,10.12,9.054,16.415c3.618,5.448,8.014,10.82,11.181,14.285c1.979,2.163,5.639,6.005,8.921,8.857
			c3.432,2.978,7.217,6.067,9.669,7.908c5.706,4.284,11.075,7.539,17.031,10.836c8.075,4.469,17.536,8.431,25.683,10.908
			c8.583,2.61,12.864,3.846,21.29,5.2c17.963,2.885,32.839,2.231,32.839,2.231l0.433,30.721c0,0-9.436,0.622-20.234-0.445
			c-6.807-0.675-13.711-1.792-16.242-2.206c-4.974-0.811-13.493-2.622-20.749-4.816c-7.255-2.195-14.323-4.542-19.814-6.913
			c-2.057-0.886-5.136-2.084-7.966-3.491c-3.756-1.864-7.299-3.418-10.738-5.408c-4.219-2.442-8.155-4.809-10.89-6.494
			c-1.039-0.639-4.684-3.029-8.155-5.574c-3.042-2.231-5.923-4.622-7.163-5.49c-0.71-0.495-4.891-4.117-8.46-7.331
			c-4.578-4.123-14.779-15.016-21.68-24.799c-2.483-3.52-4.628-7.21-6.74-10.582c-2.739-4.377-4.558-8.705-6.223-12.127
			c-0.971-1.992-2.059-4.607-3.13-7.508c-1.065-2.89-2.177-6.185-3.135-9.222c-1.835-5.809-2.919-11.21-3.538-14.98
			c-0.4-2.45-0.942-5.549-1.202-8.623c-0.455-5.402-0.912-11.297-0.71-17.36c0.2-6,0.834-12.124,1.799-17.688
			c0.994-5.736,2.139-10.734,3.381-14.741c1.424-4.611,3.808-11.833,7.044-18.753c2.605-5.573,6.371-12.493,9.352-16.975
			c2.448-3.681,5.191-7.863,8.838-12.291c2.831-3.441,5.902-6.964,8.923-10.21c4.089-4.388,9.335-9.118,13.446-12.578
			c2.493-2.099,6.831-5.498,11.41-8.745c5.682-4.026,11.889-7.736,14.911-9.392c3.734-2.05,8.539-4.687,13.338-6.82
			c4.845-2.152,9.408-4.011,13.357-5.549c1.882-0.735,6.739-2.467,11.015-3.727c3.771-1.108,7.962-2.328,11.684-3.178
			c4.038-0.921,8.708-1.87,9.554-2.044c4.829-0.993,9.86-1.593,13.679-2.096c4.039-0.533,7.133-0.682,8.167-0.81
			C245.59,66.016,257.491,65.715,257.491,65.715z"/>
		<path fill="#3B8ABF" d="M3.867,232.619h37.875c0,0-0.271-5.241-0.181-11.346c0.083-5.837,0.513-12.453,1.061-16.242
			c0.303-2.075,0.608-5.153,1.164-8.35c0.516-2.951,1.059-6.17,1.789-9.21c1.197-5.007,2.415-9.565,3.388-12.805
			c0.698-2.319,1.583-5.154,2.893-8.599c1.561-4.105,3.424-9.017,4.727-11.593c0.938-1.856,3.788-8.117,5.287-10.744
			c1.838-3.226,1.729-3.125,3.461-6.178c1.031-1.819,2.475-4.225,3.517-5.743c1.064-1.549,2.322-3.362,3.744-5.64
			c0.746-1.189,2.276-3.248,3.2-4.484c1.503-2.016,2.583-3.356,4.193-5.486c1.454-1.921,2.341-2.782,3.805-4.644
			c0.941-1.194,2.627-3.068,3.608-4.141c2.49-2.723,5.609-6.037,7.622-8.028c1.681-1.664,2.28-2.235,5.519-5.287
			c2.572-2.423,5.372-4.77,7.744-6.78c2.603-2.201,6.227-4.977,6.227-4.977s2.905-2.319,6.751-4.967
			c2.432-1.675,5.111-3.449,7.685-5.174c2.583-1.729,5.146-3.186,6.786-4.175c2.34-1.415,6.481-3.747,10.235-5.668
			c4.254-2.175,8.157-3.936,10.963-5.305c2.486-1.216,6.421-2.762,11.017-4.604c3.1-1.243,7.192-2.695,10.389-3.723
			c7.166-2.298,14.348-4.278,18.001-5.186c4.639-1.153,14.602-3.292,22.219-4.17c8.869-1.024,19.208-2.139,29.096-2.233
			c3.288-0.031,9.748,0.066,9.748,0.066V2.576c0,0-22.815-1.022-32.273-0.078c0,0-5.187,0.246-11.277,0.885
			c-6.319,0.662-13.606,1.732-17.374,2.322c-1.978,0.309-8.067,1.346-14.979,2.956c-3.289,0.766-7.137,1.774-10.402,2.603
			c-4.592,1.164-8.464,2.416-11.25,3.337c-4.546,1.504-8.879,3.006-16.078,5.904c-3.117,1.252-7.275,2.862-11.648,4.859
			c-1.37,0.624-11.102,5.404-11.971,5.879c-0.703,0.385-4.25,2.304-7.773,4.339c-4.344,2.51-8.859,5.349-9.694,5.869
			c-1.672,1.038-5.618,3.667-9.383,6.299c-2.098,1.468-4.386,3.192-5.53,4.031c-2.698,1.977-5.971,4.639-7.006,5.472
			c-2.17,1.748-5.013,4.191-5.575,4.676c-1.998,1.723-5.806,5.208-6.269,5.636c-1.558,1.445-4.042,3.87-5.277,5.089
			c-4.519,4.459-13.378,14.009-18.398,20.781c-1.232,1.664-3.193,4.111-5.047,6.774c-3.041,4.36-6.219,9.241-8.091,12.184
			c-1.182,1.865-3.757,6.083-6.313,11.041c-1.142,2.216-2.312,4.512-3.481,6.864c-2.71,5.455-4.822,11.025-6.32,14.547
			c-2.256,5.304-5.614,16.449-7.061,22.028c-1.146,4.411-2.84,13.302-3.635,17.68c-0.579,3.176-1.454,10.831-1.601,13.204
			c-0.152,2.388-0.428,5.122-0.519,7.929c-0.05,1.615-0.07,3.248-0.095,4.833c-0.039,2.248-0.041,4.395-0.074,6.256
			c-0.031,1.629,0.13,5.872,0.366,9.603C3.58,229.686,3.867,232.619,3.867,232.619z"/>
	</g>
	<g>
		<path d="M593.229,221.961c4.746,0,9.297,0.841,13.653,2.52v4.148c-4.454-2.023-9.005-3.037-13.653-3.037
			c-6.46,0-11.77,2.318-15.928,6.952c-4.16,4.538-6.239,10.158-6.239,16.863c0,6.707,2.08,12.303,6.239,16.79
			c4.208,4.685,9.517,7.026,15.928,7.026c4.011,0,7.902-0.738,11.67-2.216v-20.601h-12.846v-3.629h17.323v26.519
			c-5.09,2.371-10.472,3.556-16.148,3.556c-7.733,0-14.094-2.592-19.085-7.778c-5.04-5.233-7.56-11.778-7.56-19.63
			c0-7.802,2.521-14.322,7.56-19.556C579.233,224.604,585.595,221.961,593.229,221.961z"/>
		<path d="M636.504,236.628c3.927,0,7.264,1.408,10.013,4.223c2.74,2.767,4.11,6.124,4.11,10.075c0,2.222-0.773,3.999-2.319,5.333
			c-1.545,1.333-3.495,2.001-5.85,2.001h-19.209c0.196,4.275,1.424,7.789,3.681,10.54c2.405,2.95,5.62,4.423,9.644,4.423
			c3.926,0,7.852-0.715,11.779-2.148v4.001c-3.829,1.185-7.755,1.777-11.779,1.777c-5.84,0-10.306-1.927-13.398-5.778
			c-2.936-3.604-4.404-8.371-4.404-14.297c0-5.778,1.394-10.47,4.184-14.075C626.097,238.655,630.614,236.628,636.504,236.628z
			 M646.15,250.926c0-2.667-0.958-5.111-2.872-7.334c-1.915-2.222-4.148-3.333-6.701-3.333c-3.975,0-7.166,1.407-9.573,4.223
			c-2.16,2.618-3.412,5.999-3.755,10.148h19.219c0.982,0,1.841-0.358,2.578-1.074C645.782,252.84,646.15,251.963,646.15,250.926z"/>
		<path d="M678.006,241.962c-2.631-1.185-5.433-1.778-8.404-1.778c-5.652,0-8.479,2.149-8.479,6.446
			c0,2.321,1.631,4.321,4.894,6.001l9.2,4.74c3.278,2.272,4.917,5.137,4.917,8.593c0,3.704-1.493,6.545-4.477,8.519
			c-2.496,1.531-5.457,2.296-8.881,2.296c-4.013,0-7.414-0.518-10.203-1.555v-4.37c3.229,1.63,6.532,2.444,9.909,2.444
			c2.397,0,4.452-0.592,6.166-1.778c1.909-1.333,2.863-3.037,2.863-5.111c0-2.617-1.631-4.816-4.891-6.593
			c-1.51-0.839-3.018-1.63-4.528-2.371c-1.51-0.74-2.994-1.555-4.453-2.444c-1.739-0.988-3.005-2.16-3.8-3.519
			c-0.795-1.359-1.192-2.827-1.192-4.408c0-3.604,1.272-6.32,3.817-8.147c2.25-1.58,5.113-2.371,8.588-2.371
			c3.083,0,6.067,0.519,8.955,1.556V241.962z"/>
		<path d="M700.392,277.001c-1.273,0-2.447-0.211-3.523-0.63c-1.076-0.42-2.018-1.012-2.826-1.777
			c-0.807-0.766-1.443-1.667-1.908-2.704c-0.466-1.037-0.697-2.172-0.697-3.408v-26.89h-7.341v-3.63h7.341V226.48h4.477v11.482
			h9.028v3.63h-9.028v26.827c0,1.282,0.44,2.428,1.321,3.437c0.88,1.011,1.932,1.516,3.156,1.516c1.713,0,3.572-0.52,5.578-1.556
			v3.778C704.257,276.53,702.398,277.001,700.392,277.001z"/>
		<path d="M713.237,218.998h4.477v4.52h-4.477V218.998z M717.714,238.036v37.557h-4.477v-37.557H717.714z"/>
		<path d="M762.488,257.147c0,5.976-1.494,10.693-4.478,14.149c-3.083,3.704-7.536,5.556-13.359,5.556c-5.774,0-10.276-2-13.505-6
			c-3.084-3.753-4.625-8.617-4.625-14.594c0-5.827,1.516-10.543,4.551-14.148c3.23-3.704,7.731-5.556,13.506-5.556
			c5.675,0,10.129,2.025,13.358,6.074C760.97,246.433,762.488,251.271,762.488,257.147z M731.439,256.223
			c0,4.88,1.028,8.821,3.083,11.827c2.349,3.448,5.725,5.173,10.129,5.173c4.452,0,7.781-1.576,9.982-4.73
			c1.957-2.709,2.936-6.504,2.936-11.383c0-4.828-1.003-8.77-3.009-11.825c-2.3-3.399-5.627-5.101-9.982-5.101
			c-4.454,0-7.806,1.553-10.056,4.657C732.467,247.649,731.439,251.443,731.439,256.223z M748.321,218.998h4.478l-6.313,9.335
			h-3.596L748.321,218.998z"/>
		<path d="M770.195,275.667v-34.519c7.946-2.914,13.415-4.371,16.409-4.371c2.06,0,3.948,0.34,5.664,1.021
			c1.718,0.681,3.177,1.632,4.379,2.853c1.202,1.22,2.133,2.695,2.796,4.423c0.662,1.73,0.993,3.63,0.993,5.704v24.89h-4.477v-24.89
			c0-1.481-0.246-2.852-0.734-4.112c-0.489-1.258-1.163-2.357-2.018-3.296c-0.857-0.937-1.885-1.667-3.083-2.185
			c-1.2-0.519-2.532-0.778-4-0.778c-3.622,0-7.439,0.963-11.45,2.889v32.371H770.195z"/>
		<path d="M848.398,236.702c3.611,0,7.171,0.644,10.684,1.927v-19.556h4.478v54.594c-4.797,2.074-9.421,3.11-13.873,3.11
			c-5.824,0-10.521-1.949-14.093-5.851c-3.622-3.951-5.432-8.815-5.432-14.593c0-5.778,1.615-10.493,4.845-14.148
			C838.177,238.53,842.641,236.702,848.398,236.702z M848.838,240.333c-4.49,0-7.928,1.555-10.318,4.667
			c-2.294,2.913-3.439,6.692-3.439,11.333c0,4.643,1.366,8.569,4.097,11.778c2.83,3.458,6.488,5.185,10.977,5.185
			c2.537,0,5.512-0.641,8.927-1.926v-29.185C855.911,240.95,852.496,240.333,848.838,240.333z"/>
		<path d="M889.732,236.628c3.926,0,7.264,1.408,10.013,4.223c2.74,2.767,4.111,6.124,4.111,10.075c0,2.222-0.773,3.999-2.319,5.333
			c-1.546,1.333-3.496,2.001-5.851,2.001h-19.209c0.196,4.275,1.423,7.789,3.68,10.54c2.405,2.95,5.62,4.423,9.644,4.423
			c3.926,0,7.852-0.715,11.779-2.148v4.001c-3.829,1.185-7.756,1.777-11.779,1.777c-5.84,0-10.305-1.927-13.398-5.778
			c-2.935-3.604-4.404-8.371-4.404-14.297c0-5.778,1.394-10.47,4.184-14.075C879.325,238.655,883.842,236.628,889.732,236.628z
			 M899.379,250.926c0-2.667-0.958-5.111-2.872-7.334c-1.915-2.222-4.148-3.333-6.701-3.333c-3.977,0-7.167,1.407-9.573,4.223
			c-2.162,2.618-3.413,5.999-3.755,10.148h19.22c0.981,0,1.84-0.358,2.577-1.074C899.011,252.84,899.379,251.963,899.379,250.926z"
			/>
		<path d="M937.692,223.369v52.224h-4.477v-52.224H937.692z"/>
		<path d="M949.363,275.667v-34.519c7.945-2.914,13.415-4.371,16.408-4.371c2.06,0,3.947,0.34,5.664,1.021
			c1.717,0.681,3.177,1.632,4.379,2.853c1.202,1.22,2.134,2.695,2.797,4.423c0.661,1.73,0.993,3.63,0.993,5.704v24.89h-4.477v-24.89
			c0-1.481-0.246-2.852-0.734-4.112c-0.49-1.258-1.163-2.357-2.019-3.296c-0.856-0.937-1.884-1.667-3.083-2.185
			c-1.2-0.519-2.533-0.778-4-0.778c-3.622,0-7.439,0.963-11.451,2.889v32.371H949.363z"/>
		<path d="M994.503,227.626c0-2.675,0.929-4.882,2.79-6.617c1.908-1.785,4.208-2.677,6.899-2.677c1.616,0,3.205,0.226,4.771,0.68
			v4.061c-1.615-0.742-3.205-1.112-4.771-1.112c-0.733,0-1.406,0.161-2.018,0.482c-0.613,0.321-1.163,0.74-1.651,1.259
			c-0.49,0.518-0.869,1.124-1.138,1.814c-0.27,0.692-0.403,1.408-0.403,2.149v10.371h8.514v3.629h-8.514v33.927h-4.478v-33.927
			h-7.781v-3.629h7.781V227.626z"/>
		<path d="M1049.112,257.147c0,5.976-1.493,10.693-4.478,14.149c-3.083,3.704-7.536,5.556-13.359,5.556c-5.774,0-10.276-2-13.506-6
			c-3.083-3.753-4.624-8.617-4.624-14.594c0-5.827,1.516-10.543,4.551-14.148c3.229-3.704,7.731-5.556,13.506-5.556
			c5.676,0,10.129,2.025,13.358,6.074C1047.595,246.433,1049.112,251.271,1049.112,257.147z M1018.063,256.223
			c0,4.88,1.028,8.821,3.083,11.827c2.35,3.448,5.726,5.173,10.129,5.173c4.453,0,7.78-1.576,9.982-4.73
			c1.957-2.709,2.937-6.504,2.937-11.383c0-4.828-1.003-8.77-3.009-11.825c-2.3-3.399-5.627-5.101-9.982-5.101
			c-4.454,0-7.805,1.553-10.056,4.657C1019.091,247.649,1018.063,251.443,1018.063,256.223z"/>
		<path d="M1072.6,240.407c-3.475,0-6.899,0.568-10.276,1.704v33.557h-4.477v-35.866c4.55-2.016,9.615-3.024,15.193-3.024
			c0.538,0,1.003,0,1.395,0c0.391,0,0.709,0.025,0.955,0.075v3.704c-0.686-0.049-1.261-0.086-1.725-0.112
			C1073.199,240.419,1072.844,240.407,1072.6,240.407z"/>
		<path d="M1105.851,275.593V249.74c0-2.518-0.882-4.715-2.644-6.593c-1.761-1.876-3.866-2.815-6.312-2.815
			c-2.742,0-6.118,0.962-10.13,2.889v32.371h-4.477v-34.521l6.9-2.666c1.614-0.641,3.106-1.085,4.477-1.333
			c1.37-0.247,2.594-0.372,3.67-0.372c3.865,0,7.021,1.334,9.469,4.001c1.076-0.395,2.128-0.815,3.156-1.259
			c1.027-0.445,2.055-0.864,3.083-1.259c1.419-0.543,2.716-0.926,3.89-1.148c1.175-0.222,2.25-0.334,3.23-0.334
			c3.718,0,6.801,1.26,9.248,3.779c2.446,2.47,3.67,5.555,3.67,9.259v25.853h-4.477V249.74c0-2.518-0.881-4.715-2.643-6.593
			c-1.713-1.876-3.792-2.815-6.239-2.815s-6.018,1.161-10.715,3.481c0.88,1.926,1.32,3.902,1.32,5.926v25.853H1105.851z"/>
		<path d="M1171.029,272.407c-4.454,3.013-9.592,4.52-15.414,4.52c-4.063,0-7.439-1.013-10.129-3.037
			c-2.594-2.075-3.891-4.741-3.891-8c0-3.604,1.542-6.494,4.625-8.667c3.474-2.47,8.538-3.705,15.193-3.705h5.139v-5.23
			c0-2.112-0.784-3.953-2.349-5.525c-1.566-1.62-3.524-2.43-5.872-2.43c-4.502,0-8.637,0.739-12.405,2.222v-4
			c3.817-1.234,8.221-1.853,13.212-1.853c3.327,0,6.14,1.112,8.44,3.334c2.3,2.174,3.45,4.915,3.45,8.223V272.407z
			 M1166.552,257.147h-4.698c-5.334,0-9.372,0.935-12.111,2.803c-2.251,1.524-3.376,3.491-3.376,5.899
			c0,2.114,0.855,3.883,2.569,5.31c1.712,1.425,4.037,2.137,6.973,2.137c3.914,0,7.462-0.909,10.644-2.728V257.147z"/>
		<path d="M1207.802,275.593c-3.476,0.889-6.826,1.334-10.056,1.334c-5.775,0-10.325-1.926-13.652-5.778
			c-3.182-3.654-4.771-8.419-4.771-14.297c0-5.827,1.589-10.617,4.771-14.371c3.376-3.9,7.927-5.852,13.652-5.852
			c3.328,0,6.68,0.47,10.056,1.408v3.852c-3.229-1.086-6.582-1.63-10.056-1.63c-4.306,0-7.732,1.651-10.276,4.952
			c-2.448,3.154-3.67,7.022-3.67,11.604c0,4.534,1.223,8.377,3.67,11.53c2.543,3.302,5.97,4.952,10.276,4.952
			c3.474,0,6.827-0.518,10.056-1.555V275.593z"/>
		<path d="M1215.801,218.998h4.477v4.52h-4.477V218.998z M1220.278,238.036v37.557h-4.477v-37.557H1220.278z"/>
		<path d="M1265.052,257.147c0,5.976-1.493,10.693-4.477,14.149c-3.083,3.704-7.536,5.556-13.359,5.556c-5.774,0-10.276-2-13.505-6
			c-3.083-3.753-4.625-8.617-4.625-14.594c0-5.827,1.516-10.543,4.55-14.148c3.23-3.704,7.731-5.556,13.506-5.556
			c5.676,0,10.13,2.025,13.359,6.074C1263.535,246.433,1265.052,251.271,1265.052,257.147z M1234.003,256.223
			c0,4.88,1.028,8.821,3.083,11.827c2.349,3.448,5.725,5.173,10.129,5.173c4.452,0,7.78-1.576,9.982-4.73
			c1.957-2.709,2.937-6.504,2.937-11.383c0-4.828-1.003-8.77-3.009-11.825c-2.301-3.399-5.628-5.101-9.983-5.101
			c-4.454,0-7.805,1.553-10.056,4.657C1235.031,247.649,1234.003,251.443,1234.003,256.223z M1250.886,218.998h4.478l-6.313,9.335
			h-3.596L1250.886,218.998z"/>
		<path d="M1272.759,275.667v-34.519c7.946-2.914,13.415-4.371,16.409-4.371c2.06,0,3.948,0.34,5.664,1.021
			c1.717,0.681,3.177,1.632,4.379,2.853s2.133,2.695,2.796,4.423c0.662,1.73,0.993,3.63,0.993,5.704v24.89h-4.477v-24.89
			c0-1.481-0.246-2.852-0.734-4.112c-0.49-1.258-1.163-2.357-2.019-3.296c-0.856-0.937-1.884-1.667-3.083-2.185
			c-1.2-0.519-2.532-0.778-4-0.778c-3.622,0-7.439,0.963-11.451,2.889v32.371H1272.759z"/>
		<path d="M581.705,310.853c7.584,0,13.726,2.642,18.423,7.926c4.551,5.137,6.827,11.656,6.827,19.557
			c0,7.951-2.276,14.47-6.827,19.556c-4.698,5.235-10.839,7.852-18.423,7.852c-4.356,0-8.981-1.038-13.873-3.112v-48.593
			C572.53,311.915,577.154,310.853,581.705,310.853z M581.705,362.115c6.263,0,11.352-2.342,15.267-7.028
			c3.67-4.438,5.505-10.033,5.505-16.789c0-6.754-1.835-12.352-5.505-16.789c-3.915-4.684-9.004-7.026-15.267-7.026
			c-2.79,0-5.922,0.617-9.396,1.848v43.933C575.783,361.499,578.916,362.115,581.705,362.115z"/>
		<path d="M650.627,346.04c0,5.977-1.494,10.693-4.478,14.149c-3.083,3.703-7.536,5.556-13.359,5.556c-5.774,0-10.275-2-13.505-6
			c-3.083-3.753-4.624-8.617-4.624-14.593c0-5.827,1.516-10.544,4.551-14.15c3.229-3.703,7.73-5.555,13.505-5.555
			c5.676,0,10.129,2.025,13.359,6.074C649.11,335.324,650.627,340.163,650.627,346.04z M619.579,345.115
			c0,4.879,1.028,8.821,3.083,11.826c2.348,3.449,5.725,5.174,10.128,5.174c4.452,0,7.781-1.577,9.982-4.731
			c1.957-2.709,2.936-6.505,2.936-11.382c0-4.829-1.003-8.77-3.01-11.826c-2.3-3.399-5.627-5.099-9.982-5.099
			c-4.454,0-7.806,1.551-10.055,4.656C620.606,336.542,619.579,340.336,619.579,345.115z"/>
		<path d="M685.051,364.484c-3.475,0.889-6.826,1.333-10.056,1.333c-5.775,0-10.326-1.926-13.653-5.777
			c-3.181-3.654-4.771-8.42-4.771-14.297c0-5.826,1.59-10.617,4.771-14.371c3.376-3.901,7.927-5.852,13.653-5.852
			c3.327,0,6.68,0.47,10.056,1.407v3.853c-3.229-1.086-6.582-1.631-10.056-1.631c-4.307,0-7.732,1.651-10.276,4.952
			c-2.447,3.154-3.67,7.022-3.67,11.605c0,4.534,1.223,8.378,3.67,11.531c2.544,3.301,5.969,4.95,10.276,4.95
			c3.474,0,6.826-0.518,10.056-1.555V364.484z"/>
		<path d="M707.847,325.521c3.927,0,7.264,1.407,10.013,4.223c2.74,2.766,4.11,6.124,4.11,10.074c0,2.222-0.772,4-2.319,5.334
			c-1.545,1.333-3.495,2-5.85,2h-19.21c0.197,4.275,1.424,7.789,3.681,10.542c2.404,2.948,5.619,4.422,9.644,4.422
			c3.926,0,7.851-0.716,11.778-2.149v4.001c-3.828,1.186-7.754,1.778-11.778,1.778c-5.84,0-10.306-1.926-13.398-5.778
			c-2.936-3.603-4.404-8.371-4.404-14.297c0-5.777,1.395-10.469,4.184-14.074C697.44,327.546,701.956,325.521,707.847,325.521z
			 M717.493,339.817c0-2.667-0.957-5.111-2.872-7.334c-1.915-2.222-4.148-3.334-6.701-3.334c-3.976,0-7.167,1.408-9.573,4.223
			c-2.161,2.618-3.413,6-3.756,10.148h19.22c0.982,0,1.84-0.357,2.577-1.075C717.125,341.732,717.493,340.854,717.493,339.817z"/>
		<path d="M730.779,364.559v-34.52c7.945-2.913,13.415-4.371,16.408-4.371c2.061,0,3.948,0.341,5.665,1.022
			c1.716,0.68,3.177,1.632,4.378,2.852c1.202,1.221,2.134,2.696,2.795,4.424c0.662,1.729,0.994,3.629,0.994,5.703v24.89h-4.477
			v-24.89c0-1.481-0.245-2.852-0.734-4.111c-0.49-1.259-1.163-2.357-2.019-3.295c-0.856-0.938-1.884-1.668-3.083-2.186
			c-1.2-0.52-2.533-0.779-4-0.779c-3.622,0-7.439,0.963-11.451,2.89v32.371H730.779z"/>
		<path d="M784.506,365.893c-1.273,0-2.447-0.21-3.523-0.63c-1.077-0.42-2.019-1.012-2.826-1.778
			c-0.808-0.766-1.444-1.666-1.909-2.704c-0.466-1.037-0.697-2.172-0.697-3.407v-26.889h-7.34v-3.63h7.34v-11.482h4.477v11.482
			h9.028v3.63h-9.028v26.826c0,1.281,0.44,2.428,1.322,3.437c0.88,1.011,1.932,1.516,3.156,1.516c1.712,0,3.572-0.519,5.578-1.555
			v3.776C788.371,365.423,786.512,365.893,784.506,365.893z"/>
		<path d="M812.147,325.521c3.927,0,7.265,1.407,10.014,4.223c2.739,2.766,4.11,6.124,4.11,10.074c0,2.222-0.773,4-2.319,5.334
			c-1.545,1.333-3.496,2-5.85,2h-19.21c0.196,4.275,1.423,7.789,3.681,10.542c2.405,2.948,5.62,4.422,9.644,4.422
			c3.926,0,7.852-0.716,11.778-2.149v4.001c-3.829,1.186-7.755,1.778-11.778,1.778c-5.84,0-10.306-1.926-13.398-5.778
			c-2.936-3.603-4.403-8.371-4.403-14.297c0-5.777,1.394-10.469,4.183-14.074C801.74,327.546,806.257,325.521,812.147,325.521z
			 M821.794,339.817c0-2.667-0.958-5.111-2.872-7.334c-1.915-2.222-4.148-3.334-6.701-3.334c-3.976,0-7.167,1.408-9.573,4.223
			c-2.161,2.618-3.412,6-3.755,10.148h19.219c0.982,0,1.841-0.357,2.577-1.075C821.425,341.732,821.794,340.854,821.794,339.817z"/>
	</g>
</g>
</svg>
