<?xml version="1.0" encoding="UTF-8"?>
<svg id="Layer_1" data-name="Layer 1" xmlns="http://www.w3.org/2000/svg" width="1671.94" height="439.15" viewBox="0 0 1671.94 439.15">
  <defs>
    <style>
      .cls-1 {
        fill: #f5f6ff;
      }

      .cls-2 {
        fill: #c5cef7;
      }

      .cls-3 {
        fill: #cad0fc;
      }

      .cls-4 {
        fill: #fddeb2;
      }

      .cls-5 {
        fill: #afb8fa;
      }

      .cls-6 {
        fill: #7f8cf5;
      }
    </style>
  </defs>
  <g>
    <path class="cls-5" d="M335.86,138.18l-193.85,99.37c-1.01.58-2.35.15-2.99-.96l-25.05-43.39c-.64-1.11-.34-2.49.66-3.07l185.2-114.68c1.01-.58,2.35-.15,2.99.96l33.7,58.7c.64,1.11.34,2.49-.66,3.07Z"/>
    <circle class="cls-4" cx="223.9" cy="197.64" r="9.34"/>
    <rect class="cls-6" x="92.31" y="218.43" width="25.93" height="17.01" rx="2.86" ry="2.86" transform="translate(-99.37 83.04) rotate(-30)"/>
    <rect class="cls-1" x="70.73" y="222.94" width="14.13" height="38.93" rx="2.3" ry="2.3" transform="translate(-110.78 71.38) rotate(-30)"/>
    <rect class="cls-2" x="188.07" y="98.29" width="13.3" height="24.39" transform="translate(-28.16 131.67) rotate(-35)"/>
    <rect class="cls-3" x="328.24" y="37.93" width="33.63" height="103.91" rx="5.59" ry="5.59" transform="translate(1.29 184.57) rotate(-30)"/>
    <path d="M128.84,218.98l-4.76-8.26c-2.29-3.96-4.42-7.57-8.85-8.76-4.42-1.19-9.05-.58-13.01,1.71l-15.58,8.99c-8.19,4.73-9.27,14.89-4.54,23.08l4.3,7.45c3.17,5.49,7.45,9.32,13.38,9.32,2.91,0,5.85-.74,8.54-2.29l15.57-8.99c3.97-2.29,6.8-5.99,7.99-10.41s-.76-7.87-3.05-11.83ZM117.32,229.81l-15.57,8.99c-1.89,1.09-4.33.44-5.42-1.45l-4.54-7.85c-1.09-1.89-.44-4.33,1.45-5.42l15.57-8.99c1.89-1.09,4.33-.44,5.42,1.45l4.54,7.85c1.09,1.89.44,4.33-1.45,5.42Z"/>
    <path d="M96.32,237.35l-4.53-7.85c-.66-1.15-.67-2.5-.16-3.63l-4.43-7.67c-4.51-7.81-14.54-10.5-22.35-5.99l-6.72,3.88c-7.81,4.51-10.5,14.54-5.99,22.35l16.28,28.19c3.03,5.24,8.54,8.18,14.2,8.18,2.77,0,5.58-.7,8.15-2.19l6.72-3.88h0c7.81-4.51,10.5-14.54,5.99-22.35l-4.09-7.08c-1.23-.12-2.4-.81-3.06-1.95ZM90.89,257.32l-6.72,3.88c-1.52.88-3.48.35-4.35-1.17l-16.28-28.19c-.88-1.52-.35-3.48,1.17-4.35l6.72-3.88c1.52-.88,3.48-.35,4.35,1.17l16.28,28.19c.88,1.52.35,3.48-1.17,4.35Z"/>
    <path d="M196.41,78.34l-32.48,22.74,27.79,40.44,33.79-21.62-29.1-41.56ZM182.28,104.31l10.89-7.63,13.99,19.98-10.89,7.63-13.99-19.98Z"/>
    <path d="M348.36,129.3l-35.28-61.17c-2.08-3.37-5.83-6.06-9.68-7.09-4-1.07-8.18-.52-11.76,1.55l-183.65,115.46c-3.46,2.08-5.93,5.36-6.98,9.27-1.07,4-.53,8.18,1.54,11.77l8.98,15.55c1.1.21,2.1.86,2.7,1.89l4.54,7.85c.6,1.04.66,2.23.29,3.29l8.55,14.81c2.07,3.58,5.41,6.15,9.41,7.22,1.34.36,2.7.54,4.04.54,2.53,0,5.04-.63,7.31-1.85l196.57-99.42.58-.32c7.4-4.27,7.1-11.94,2.82-19.34ZM335.67,138.29l-104.47,53.54c1.27,1.6,2.04,3.62,2.04,5.82,0,5.16-4.18,9.34-9.34,9.34-4.28,0-7.88-2.88-8.98-6.81l-72.71,37.26c-1.11.64-2.54.26-3.18-.85l-25.05-43.39c-.64-1.11-.26-2.54.85-3.18l184.91-114.29c1.11-.64,2.54-.26,3.18.85l33.61,58.53c.64,1.11.26,2.54-.85,3.18Z"/>
    <path d="M223.9,175.13c-12.42,0-22.52,10.1-22.52,22.52s10.1,22.51,22.52,22.51,22.52-10.1,22.52-22.51-10.1-22.52-22.52-22.52ZM223.9,206.98c-5.16,0-9.34-4.18-9.34-9.34s4.18-9.34,9.34-9.34,9.34,4.18,9.34,9.34-4.18,9.34-9.34,9.34Z"/>
    <path d="M393.13,113.17l-44.2-76.55c-2.79-4.84-7.31-8.3-12.71-9.75-5.41-1.45-11.05-.71-15.88,2.08l-15.7,9.06c-9.99,5.77-13.43,18.6-7.66,28.59l44.2,76.55c3.87,6.71,10.92,10.46,18.16,10.46,3.55,0,7.14-.9,10.43-2.8l15.69-9.06c4.84-2.79,8.3-7.3,9.74-12.71,1.45-5.41.71-11.05-2.08-15.88ZM378.88,130.35l-15.7,9.06c-3.69,2.13-8.46.86-10.59-2.84l-44.2-76.55c-2.13-3.69-.86-8.46,2.84-10.59l15.7-9.06c3.69-2.13,8.46-.86,10.59,2.84l44.2,76.55c2.13,3.69.86,8.46-2.84,10.59Z"/>
    <path d="M203.32,86.33h.01s-34.24,23.98-34.24,23.98c-1.14.8-2.51,1.28-4.01,1.28-3.86,0-6.98-3.12-6.98-6.98,0-2.37,1.19-4.46,3-5.71h0s.32-.22.32-.22l33.77-23.65.14-.1c1.14-.82,2.52-1.28,4.01-1.28,3.84,0,6.96,3.12,6.96,6.98,0,2.36-1.18,4.45-2.98,5.7Z"/>
    <path d="M132.07,361.68c-.53,3.21,1.39,6.47,4.6,7.61h55.95c3.3-.46,5.78-3.17,5.93-6.29.17-3.49-2.62-6.69-6.37-6.99h-54.18c-3.04.43-5.45,2.75-5.93,5.67Z"/>
    <path d="M322.59,363c-.15,3.12-2.62,5.82-5.94,6.3h-55.95c-3.2-1.15-5.13-4.41-4.59-7.61.47-2.91,2.88-5.24,5.92-5.67h18.4l-56.54-142.85,11.98-5.19,58.72,148.04h21.62c3.74.31,6.53,3.51,6.37,6.99Z"/>
    <path d="M150.78,358.52l40.72-98.08c1.31-4.45,5.99-6.42,9.21-4.96,2.53,1.15,4.09,4.42,3.36,7.79l-37.89,95.25h-15.4Z"/>
    <circle cx="207.6" cy="238.51" r="6.17"/>
  </g>
  <g>
    <path d="M607.08,134.16c0-12.46,3.6-22.52,10.79-30.2,7.19-7.67,16.77-11.51,28.75-11.51s21.66,3.82,28.81,11.45c7.15,7.64,10.73,17.72,10.73,30.26s-3.6,22.52-10.79,30.19c-7.19,7.68-16.78,11.51-28.75,11.51s-21.66-3.82-28.81-11.45c-7.15-7.63-10.73-17.72-10.73-30.26ZM632.27,116.01c-3.54,4.46-5.3,10.51-5.3,18.14s1.77,13.68,5.3,18.14c3.54,4.46,8.32,6.69,14.34,6.69s10.81-2.23,14.34-6.69c3.54-4.46,5.3-10.51,5.3-18.14s-1.77-13.68-5.3-18.14c-3.54-4.46-8.32-6.69-14.34-6.69s-10.81,2.23-14.34,6.69Z"/>
    <path d="M698.81,93.77h31.58c8.92,0,15.71,2.11,20.37,6.33,4.66,4.22,6.99,9.58,6.99,16.09,0,4.26-1.13,8-3.38,11.21-2.25,3.22-5.18,5.38-8.8,6.51,9.4,2.81,14.1,9.16,14.1,19.05,0,6.43-2.31,11.71-6.93,15.85-4.62,4.14-10.91,6.21-18.86,6.21h-35.08v-81.24ZM717.37,108.6v18.2h6.87c4.82,0,8.46-.88,10.91-2.65,2.45-1.77,3.68-4.1,3.68-6.99,0-5.71-3.86-8.56-11.57-8.56h-9.88ZM717.37,160.19h9.76c9.16,0,13.74-3.13,13.74-9.4s-4.54-9.4-13.62-9.4h-9.88v18.8Z"/>
    <path d="M818.62,97.39v17.36c-6.51-3.78-13.26-5.67-20.25-5.67-3.13,0-5.53.64-7.17,1.93-1.65,1.29-2.47,2.93-2.47,4.94s1,3.8,3.01,5.36c2.01,1.57,5.02,3.24,9.04,5,2.49,1.13,4.56,2.11,6.21,2.95,1.65.84,3.54,2.01,5.67,3.5,2.13,1.49,3.82,3.05,5.06,4.7,1.24,1.65,2.31,3.68,3.19,6.09.88,2.41,1.33,5.02,1.33,7.83,0,7.31-2.69,13.24-8.08,17.78-5.38,4.54-12.54,6.81-21.46,6.81-9.56,0-17.36-1.69-23.38-5.06v-18.68c7.31,5.3,15.11,7.96,23.38,7.96,2.81,0,5.14-.74,6.99-2.23,1.85-1.49,2.77-3.44,2.77-5.85,0-.8-.12-1.57-.36-2.29s-.68-1.4-1.33-2.05c-.64-.64-1.27-1.18-1.87-1.63-.6-.44-1.49-.96-2.65-1.57-1.17-.6-2.15-1.1-2.95-1.51-.8-.4-1.99-.96-3.56-1.69-1.57-.72-2.83-1.28-3.8-1.69-5.22-2.41-9.42-5.38-12.6-8.92-3.17-3.54-4.76-8.24-4.76-14.1,0-6.99,2.57-12.64,7.71-16.94,5.14-4.3,12.25-6.45,21.33-6.45,8.12,0,15.11,1.37,20.97,4.1Z"/>
    <path d="M852.37,160.19h31.82v14.83h-50.51v-81.24h50.02v14.83h-31.34v18.44h27.97v14.71h-27.97v18.44Z"/>
    <path d="M941.09,175.02l-17.6-28.21h-5.67v28.21h-18.56v-81.24h28.09c9.08,0,16.37,2.41,21.88,7.23,5.5,4.82,8.26,11.09,8.26,18.8,0,11.57-4.94,19.57-14.83,23.99l20.61,31.22h-22.18ZM917.83,108.84v22.9h8.8c8.04,0,12.05-3.94,12.05-11.81,0-3.45-1.05-6.17-3.13-8.14-2.09-1.97-4.94-2.95-8.56-2.95h-9.16Z"/>
    <path d="M1042.59,93.77l-27.36,81.24h-20.49l-27-81.24h20.01l9.76,32.43c1.77,5.79,3.29,11.35,4.58,16.69,1.28,5.35,2.13,9.22,2.53,11.63l.6,3.74c1.28-8.36,3.9-19.05,7.83-32.06l9.76-32.43h19.77Z"/>
    <path d="M1105.39,175.02l-4.94-16.63h-28.45l-4.94,16.63h-19.41l27.12-81.24h23.38l27.12,81.24h-19.89ZM1076.46,143.44h19.53l-.84-2.89c-2.33-7.88-4.24-14.59-5.73-20.13-1.49-5.54-2.39-9.12-2.71-10.73l-.48-2.41c-.64,4.42-3.62,15.51-8.92,33.27l-.84,2.89Z"/>
    <path d="M1190,93.77v14.95h-19.77v66.3h-18.68v-66.3h-19.89v-14.95h58.34Z"/>
    <path d="M1198.44,134.16c0-12.46,3.6-22.52,10.79-30.2,7.19-7.67,16.77-11.51,28.75-11.51s21.66,3.82,28.81,11.45c7.15,7.64,10.73,17.72,10.73,30.26s-3.6,22.52-10.79,30.19c-7.19,7.68-16.78,11.51-28.75,11.51s-21.66-3.82-28.81-11.45c-7.15-7.63-10.73-17.72-10.73-30.26ZM1223.63,116.01c-3.54,4.46-5.3,10.51-5.3,18.14s1.77,13.68,5.3,18.14c3.54,4.46,8.32,6.69,14.34,6.69s10.81-2.23,14.34-6.69c3.54-4.46,5.3-10.51,5.3-18.14s-1.77-13.68-5.3-18.14c-3.54-4.46-8.32-6.69-14.34-6.69s-10.81,2.23-14.34,6.69Z"/>
    <path d="M1332,175.02l-17.6-28.21h-5.67v28.21h-18.56v-81.24h28.09c9.08,0,16.37,2.41,21.88,7.23,5.5,4.82,8.26,11.09,8.26,18.8,0,11.57-4.94,19.57-14.83,23.99l20.61,31.22h-22.18ZM1308.73,108.84v22.9h8.8c8.04,0,12.05-3.94,12.05-11.81,0-3.45-1.05-6.17-3.13-8.14-2.09-1.97-4.94-2.95-8.56-2.95h-9.16Z"/>
    <path d="M1365.39,175.02v-81.24h18.56v81.24h-18.56Z"/>
    <path d="M1397.81,134.16c0-12.46,3.6-22.52,10.79-30.2,7.19-7.67,16.77-11.51,28.75-11.51s21.66,3.82,28.81,11.45c7.15,7.64,10.73,17.72,10.73,30.26s-3.6,22.52-10.79,30.19c-7.19,7.68-16.78,11.51-28.75,11.51s-21.66-3.82-28.81-11.45c-7.15-7.63-10.73-17.72-10.73-30.26ZM1423,116.01c-3.54,4.46-5.3,10.51-5.3,18.14s1.77,13.68,5.3,18.14c3.54,4.46,8.32,6.69,14.34,6.69s10.81-2.23,14.34-6.69c3.54-4.46,5.3-10.51,5.3-18.14s-1.77-13.68-5.3-18.14c-3.54-4.46-8.32-6.69-14.34-6.69s-10.81,2.23-14.34,6.69Z"/>
    <path d="M1536.43,97.39v17.36c-6.51-3.78-13.26-5.67-20.25-5.67-3.13,0-5.53.64-7.17,1.93-1.65,1.29-2.47,2.93-2.47,4.94s1,3.8,3.01,5.36c2.01,1.57,5.02,3.24,9.04,5,2.49,1.13,4.56,2.11,6.21,2.95,1.65.84,3.54,2.01,5.67,3.5,2.13,1.49,3.82,3.05,5.06,4.7,1.24,1.65,2.31,3.68,3.19,6.09.88,2.41,1.33,5.02,1.33,7.83,0,7.31-2.69,13.24-8.08,17.78-5.38,4.54-12.54,6.81-21.46,6.81-9.56,0-17.36-1.69-23.38-5.06v-18.68c7.31,5.3,15.11,7.96,23.38,7.96,2.81,0,5.14-.74,6.99-2.23,1.85-1.49,2.77-3.44,2.77-5.85,0-.8-.12-1.57-.36-2.29s-.68-1.4-1.33-2.05c-.64-.64-1.27-1.18-1.87-1.63-.6-.44-1.49-.96-2.65-1.57-1.17-.6-2.15-1.1-2.95-1.51-.8-.4-1.99-.96-3.56-1.69-1.57-.72-2.83-1.28-3.8-1.69-5.22-2.41-9.42-5.38-12.6-8.92-3.17-3.54-4.76-8.24-4.76-14.1,0-6.99,2.57-12.64,7.71-16.94,5.14-4.3,12.25-6.45,21.33-6.45,8.12,0,15.11,1.37,20.97,4.1Z"/>
  </g>
  <g>
    <path d="M527.92,259.13c0-8.82,2.26-15.83,6.78-21.04,4.52-5.21,10.63-7.82,18.34-7.82s14.04,2.59,18.51,7.78c4.46,5.19,6.7,12.21,6.7,21.08s-2.26,15.84-6.78,21.08c-4.52,5.24-10.63,7.86-18.34,7.86s-13.7-2.63-18.3-7.9c-4.6-5.27-6.9-12.28-6.9-21.04ZM534.99,259.13c0,6.93,1.65,12.42,4.95,16.47,3.3,4.05,7.69,6.07,13.18,6.07s10.13-2,13.27-5.99c3.13-3.99,4.7-9.51,4.7-16.55s-1.58-12.56-4.74-16.55c-3.16-3.99-7.6-5.99-13.31-5.99s-10.08,2.01-13.27,6.03c-3.19,4.02-4.78,9.52-4.78,16.51Z"/>
    <path d="M619.15,245.24v42.17h-6.57v-36.84h-14.14v36.84h-6.57v-36.84h-7.24v-5.32h7.24v-3.91c0-4.1,1.11-7.35,3.33-9.73,2.22-2.38,5.35-3.58,9.4-3.58s7.79.94,11.56,2.83v6.07c-3.88-2-7.65-2.99-11.31-2.99-4.27,0-6.4,2.5-6.4,7.49v3.83h20.71Z"/>
    <path d="M635.29,266.53c.05,4.55,1.44,8.33,4.16,11.35,2.72,3.02,6.57,4.53,11.56,4.53,3.21,0,6.21-.92,8.98-2.74v6.24c-2.66,1.61-5.93,2.41-9.81,2.41-6.65,0-11.94-2.12-15.84-6.36-3.91-4.24-5.86-9.41-5.86-15.51s1.96-11.14,5.86-15.47c3.91-4.32,9.25-6.49,16.01-6.49,3.6,0,6.82.78,9.65,2.33v6.24c-2.55-1.72-5.54-2.58-8.98-2.58-4.77,0-8.58,1.54-11.44,4.62-2.86,3.08-4.28,6.89-4.28,11.44Z"/>
    <path d="M670.68,235.05c-.8-.8-1.21-1.82-1.21-3.04s.4-2.25,1.21-3.08c.8-.83,1.82-1.25,3.04-1.25s2.25.42,3.08,1.25c.83.83,1.25,1.86,1.25,3.08s-.42,2.23-1.25,3.04c-.83.8-1.86,1.21-3.08,1.21s-2.23-.4-3.04-1.21ZM670.47,287.41v-42.17h6.57v42.17h-6.57Z"/>
    <path d="M696,245.24v7.32c2.5-5.27,6.93-7.9,13.31-7.9,4.1,0,7.37,1.25,9.81,3.74,2.44,2.5,3.66,5.82,3.66,9.98v29.03h-6.57v-27.28c0-3.1-.79-5.48-2.37-7.11-1.58-1.64-3.65-2.45-6.2-2.45-3.16,0-5.89,1.22-8.19,3.66-2.3,2.44-3.45,5.82-3.45,10.15v23.04h-6.49v-42.17h6.49Z"/>
    <path d="M735.34,254.06v-6.57c3.16-1.94,7.32-2.91,12.48-2.91,10.59,0,15.89,5.38,15.89,16.13v26.7h-6.49v-4.99c-2.16,3.6-6.1,5.41-11.81,5.41-3.94,0-7.11-1.16-9.52-3.49-2.41-2.33-3.62-5.27-3.62-8.82,0-4.05,1.54-7.19,4.62-9.44,3.08-2.25,7.28-3.37,12.6-3.37h7.65v-2.16c0-3.33-.75-5.83-2.25-7.53-1.5-1.69-4.02-2.54-7.57-2.54-4.49,0-8.48,1.19-11.98,3.58ZM757.13,267.95h-7.32c-3.55,0-6.21.69-7.98,2.08-1.78,1.39-2.66,3.13-2.66,5.24s.69,3.81,2.08,5.12c1.38,1.3,3.41,1.95,6.07,1.95,2.99,0,5.38-.84,7.15-2.54,1.77-1.69,2.66-3.84,2.66-6.45v-5.41Z"/>
    <path d="M833.31,287.41l-4.91-14.72h-23.7l-4.99,14.72h-7.24l19.54-56.06h9.31l19.21,56.06h-7.24ZM806.61,266.95h19.88l-1.08-3.24-8.73-26.95c-.67,2.38-3.66,11.39-8.98,27.03l-1.08,3.16Z"/>
    <path d="M872.48,246.65v6.24c-2.55-1.55-6.04-2.33-10.48-2.33-2.22,0-3.98.51-5.28,1.54-1.3,1.03-1.95,2.34-1.95,3.95,0,1,.19,1.87.58,2.62.39.75,1.15,1.48,2.29,2.2,1.14.72,1.97,1.21,2.5,1.46.53.25,1.68.76,3.45,1.54,3.55,1.44,6.32,3.08,8.32,4.91,2,1.83,2.99,4.3,2.99,7.4,0,3.6-1.26,6.46-3.78,8.57-2.52,2.11-5.98,3.16-10.35,3.16-5.1,0-9.23-.86-12.39-2.58v-6.4c3.71,2.22,7.71,3.33,11.98,3.33,2.55,0,4.49-.5,5.82-1.5,1.33-1,2-2.36,2-4.08,0-2-.74-3.55-2.2-4.66-1.47-1.11-3.92-2.36-7.36-3.74-3.16-1.22-5.7-2.74-7.61-4.57-1.91-1.83-2.87-4.3-2.87-7.4,0-3.49,1.32-6.28,3.95-8.36,2.63-2.08,5.92-3.12,9.86-3.12,4.38,0,7.9.61,10.56,1.83Z"/>
    <path d="M914.57,279.09v6.15c-3.27,1.72-7.26,2.58-11.98,2.58-6.38,0-11.52-1.95-15.43-5.86-3.91-3.91-5.86-9.08-5.86-15.51s1.75-12,5.24-15.89c3.49-3.88,7.98-5.82,13.47-5.82s9.45,1.69,12.56,5.07c3.1,3.38,4.66,8.18,4.66,14.39,0,1.78-.14,3.41-.42,4.91h-28.78c.5,4.16,2.08,7.35,4.74,9.56,2.66,2.22,6.15,3.33,10.48,3.33,4.71,0,8.48-.97,11.31-2.91ZM910.66,263.62v-1.66c0-3.49-.94-6.28-2.83-8.36-1.89-2.08-4.49-3.12-7.82-3.12s-5.85,1.14-8.07,3.41c-2.22,2.27-3.52,5.52-3.91,9.73h22.62Z"/>
    <path d="M950.16,246.65v6.24c-2.55-1.55-6.04-2.33-10.48-2.33-2.22,0-3.98.51-5.28,1.54-1.3,1.03-1.95,2.34-1.95,3.95,0,1,.19,1.87.58,2.62.39.75,1.15,1.48,2.29,2.2,1.14.72,1.97,1.21,2.5,1.46.53.25,1.68.76,3.45,1.54,3.55,1.44,6.32,3.08,8.32,4.91,2,1.83,2.99,4.3,2.99,7.4,0,3.6-1.26,6.46-3.78,8.57-2.52,2.11-5.98,3.16-10.35,3.16-5.1,0-9.23-.86-12.39-2.58v-6.4c3.71,2.22,7.71,3.33,11.98,3.33,2.55,0,4.49-.5,5.82-1.5,1.33-1,2-2.36,2-4.08,0-2-.74-3.55-2.2-4.66-1.47-1.11-3.92-2.36-7.36-3.74-3.16-1.22-5.7-2.74-7.61-4.57-1.91-1.83-2.87-4.3-2.87-7.4,0-3.49,1.32-6.28,3.95-8.36,2.63-2.08,5.92-3.12,9.86-3.12,4.38,0,7.9.61,10.56,1.83Z"/>
    <path d="M978.61,288.16c-6.04,0-10.83-2.04-14.35-6.11-3.52-4.08-5.28-9.22-5.28-15.43s1.82-11.49,5.45-15.68c3.63-4.19,8.36-6.28,14.18-6.28,6.38,0,11.3,2.05,14.76,6.15,3.46,4.1,5.2,9.31,5.2,15.64s-1.78,11.45-5.32,15.55c-3.55,4.1-8.43,6.15-14.64,6.15ZM978.61,250.48c-3.99,0-7.12,1.55-9.4,4.66-2.27,3.11-3.41,6.9-3.41,11.39s1.16,8.11,3.49,11.19c2.33,3.08,5.43,4.62,9.31,4.62,4.21,0,7.46-1.51,9.73-4.53,2.27-3.02,3.41-6.78,3.41-11.27s-1.08-8.5-3.24-11.52c-2.16-3.02-5.46-4.53-9.9-4.53Z"/>
    <path d="M1014.7,245.24v7.4c2.22-5.21,6.04-7.82,11.48-7.82,1,0,1.77.06,2.33.17v6.49c-1.17-.39-2.36-.58-3.58-.58-2.94,0-5.38,1.36-7.32,4.08-1.94,2.72-2.91,5.85-2.91,9.4v23.04h-6.57l.08-42.17h6.49Z"/>
    <path d="M1036.24,254.06v-6.57c3.16-1.94,7.32-2.91,12.48-2.91,10.59,0,15.89,5.38,15.89,16.13v26.7h-6.49v-4.99c-2.16,3.6-6.1,5.41-11.81,5.41-3.94,0-7.11-1.16-9.52-3.49-2.41-2.33-3.62-5.27-3.62-8.82,0-4.05,1.54-7.19,4.62-9.44,3.08-2.25,7.28-3.37,12.6-3.37h7.65v-2.16c0-3.33-.75-5.83-2.25-7.53-1.5-1.69-4.02-2.54-7.57-2.54-4.49,0-8.48,1.19-11.98,3.58ZM1058.03,267.95h-7.32c-3.55,0-6.21.69-7.98,2.08-1.78,1.39-2.66,3.13-2.66,5.24s.69,3.81,2.08,5.12c1.38,1.3,3.41,1.95,6.07,1.95,2.99,0,5.38-.84,7.15-2.54,1.77-1.69,2.66-3.84,2.66-6.45v-5.41Z"/>
    <path d="M1124.98,228.61h6.57v58.8h-6.57v-6.24c-2.99,4.6-7.32,6.9-12.97,6.9s-10-2.08-13.18-6.24c-3.19-4.16-4.78-9.2-4.78-15.14,0-6.6,1.69-11.93,5.07-16.01,3.38-4.08,7.74-6.11,13.06-6.11s9.76,2.36,12.81,7.07v-23.04ZM1112.59,282.09c3.44,0,6.36-1.27,8.77-3.83,2.41-2.55,3.62-6.62,3.62-12.23s-1.25-9.23-3.74-11.73c-2.49-2.5-5.24-3.74-8.23-3.74-3.49,0-6.39,1.4-8.69,4.2-2.3,2.8-3.45,6.81-3.45,12.02,0,4.55,1.11,8.23,3.33,11.06,2.22,2.83,5.02,4.24,8.4,4.24Z"/>
    <path d="M1174.47,279.09v6.15c-3.27,1.72-7.26,2.58-11.98,2.58-6.38,0-11.52-1.95-15.43-5.86-3.91-3.91-5.86-9.08-5.86-15.51s1.75-12,5.24-15.89c3.49-3.88,7.98-5.82,13.47-5.82s9.45,1.69,12.56,5.07c3.1,3.38,4.66,8.18,4.66,14.39,0,1.78-.14,3.41-.42,4.91h-28.78c.5,4.16,2.08,7.35,4.74,9.56,2.66,2.22,6.15,3.33,10.48,3.33,4.71,0,8.48-.97,11.31-2.91ZM1170.56,263.62v-1.66c0-3.49-.94-6.28-2.83-8.36-1.89-2.08-4.49-3.12-7.82-3.12s-5.85,1.14-8.07,3.41c-2.22,2.27-3.52,5.52-3.91,9.73h22.62Z"/>
    <path d="M1219.54,231.35v5.91h-15.14v50.15h-6.74v-50.15h-15.14v-5.91h37.01Z"/>
    <path d="M1257.97,279.09v6.15c-3.27,1.72-7.26,2.58-11.98,2.58-6.38,0-11.52-1.95-15.43-5.86-3.91-3.91-5.86-9.08-5.86-15.51s1.75-12,5.24-15.89c3.49-3.88,7.98-5.82,13.47-5.82s9.45,1.69,12.56,5.07c3.1,3.38,4.66,8.18,4.66,14.39,0,1.78-.14,3.41-.42,4.91h-28.78c.5,4.16,2.08,7.35,4.74,9.56,2.66,2.22,6.15,3.33,10.48,3.33,4.71,0,8.48-.97,11.31-2.91ZM1254.06,263.62v-1.66c0-3.49-.94-6.28-2.83-8.36-1.89-2.08-4.49-3.12-7.82-3.12s-5.85,1.14-8.07,3.41c-2.22,2.27-3.52,5.52-3.91,9.73h22.62Z"/>
    <path d="M1274.93,266.53c.05,4.55,1.44,8.33,4.16,11.35,2.72,3.02,6.57,4.53,11.56,4.53,3.21,0,6.21-.92,8.98-2.74v6.24c-2.66,1.61-5.93,2.41-9.81,2.41-6.65,0-11.94-2.12-15.84-6.36-3.91-4.24-5.86-9.41-5.86-15.51s1.96-11.14,5.86-15.47c3.91-4.32,9.25-6.49,16.01-6.49,3.6,0,6.82.78,9.65,2.33v6.24c-2.55-1.72-5.54-2.58-8.98-2.58-4.77,0-8.58,1.54-11.44,4.62-2.86,3.08-4.28,6.89-4.28,11.44Z"/>
    <path d="M1316.27,245.24v7.32c2.5-5.27,6.93-7.9,13.31-7.9,4.1,0,7.37,1.25,9.81,3.74,2.44,2.5,3.66,5.82,3.66,9.98v29.03h-6.57v-27.28c0-3.1-.79-5.48-2.37-7.11-1.58-1.64-3.65-2.45-6.2-2.45-3.16,0-5.89,1.22-8.19,3.66-2.3,2.44-3.45,5.82-3.45,10.15v23.04h-6.49v-42.17h6.49Z"/>
    <path d="M1371.83,288.16c-6.04,0-10.83-2.04-14.35-6.11-3.52-4.08-5.28-9.22-5.28-15.43s1.82-11.49,5.45-15.68c3.63-4.19,8.36-6.28,14.18-6.28,6.38,0,11.3,2.05,14.76,6.15,3.46,4.1,5.2,9.31,5.2,15.64s-1.78,11.45-5.32,15.55c-3.55,4.1-8.43,6.15-14.64,6.15ZM1371.83,250.48c-3.99,0-7.12,1.55-9.4,4.66-2.27,3.11-3.41,6.9-3.41,11.39s1.16,8.11,3.49,11.19c2.33,3.08,5.43,4.62,9.31,4.62,4.21,0,7.46-1.51,9.73-4.53,2.27-3.02,3.41-6.78,3.41-11.27s-1.08-8.5-3.24-11.52c-2.16-3.02-5.46-4.53-9.9-4.53Z"/>
    <path d="M1401.77,287.41v-58.8h6.57v58.8h-6.57Z"/>
    <path d="M1437.95,288.16c-6.04,0-10.83-2.04-14.35-6.11-3.52-4.08-5.28-9.22-5.28-15.43s1.82-11.49,5.45-15.68c3.63-4.19,8.36-6.28,14.18-6.28,6.38,0,11.3,2.05,14.76,6.15,3.46,4.1,5.2,9.31,5.2,15.64s-1.78,11.45-5.32,15.55c-3.55,4.1-8.43,6.15-14.64,6.15ZM1437.95,250.48c-3.99,0-7.12,1.55-9.4,4.66-2.27,3.11-3.41,6.9-3.41,11.39s1.16,8.11,3.49,11.19c2.33,3.08,5.43,4.62,9.31,4.62,4.21,0,7.46-1.51,9.73-4.53,2.27-3.02,3.41-6.78,3.41-11.27s-1.08-8.5-3.24-11.52c-2.16-3.02-5.46-4.53-9.9-4.53Z"/>
    <path d="M1495,245.24h6.57v38.76c0,6.43-1.78,11.27-5.32,14.51-3.55,3.24-8.12,4.87-13.72,4.87-5.1,0-9.45-.86-13.06-2.58v-6.57c3.55,2.05,7.71,3.08,12.48,3.08,4.05,0,7.24-1.08,9.56-3.24,2.33-2.16,3.49-5.55,3.49-10.15v-4.74c-2.77,4.77-6.9,7.15-12.39,7.15-4.82,0-8.94-1.77-12.35-5.32-3.41-3.55-5.12-8.48-5.12-14.8s1.58-11.42,4.74-15.47c3.16-4.05,7.29-6.07,12.39-6.07,5.77,0,10.01,2.52,12.72,7.57v-6.99ZM1483.36,280.5c3.05,0,5.75-1.18,8.11-3.53,2.36-2.36,3.54-5.86,3.54-10.52,0-5.38-1.14-9.37-3.41-11.98-2.27-2.61-4.91-3.91-7.9-3.91-3.6,0-6.46,1.43-8.57,4.28-2.11,2.86-3.16,6.58-3.16,11.19s1.16,8.3,3.49,10.77c2.33,2.47,4.96,3.7,7.9,3.7Z"/>
    <path d="M1513.55,287.41v-42.17h6.57v42.17h-6.57ZM1514.46,240.83l8.23-12.97h7.82l-10.31,12.97h-5.74Z"/>
    <path d="M1533.51,254.06v-6.57c3.16-1.94,7.32-2.91,12.48-2.91,10.59,0,15.89,5.38,15.89,16.13v26.7h-6.49v-4.99c-2.16,3.6-6.1,5.41-11.81,5.41-3.94,0-7.11-1.16-9.52-3.49-2.41-2.33-3.62-5.27-3.62-8.82,0-4.05,1.54-7.19,4.62-9.44,3.08-2.25,7.28-3.37,12.6-3.37h7.65v-2.16c0-3.33-.75-5.83-2.25-7.53-1.5-1.69-4.02-2.54-7.57-2.54-4.49,0-8.48,1.19-11.98,3.58ZM1555.3,267.95h-7.32c-3.55,0-6.21.69-7.98,2.08-1.78,1.39-2.66,3.13-2.66,5.24s.69,3.81,2.08,5.12c1.38,1.3,3.41,1.95,6.07,1.95,2.99,0,5.38-.84,7.15-2.54,1.77-1.69,2.66-3.84,2.66-6.45v-5.41Z"/>
    <path d="M1596.46,246.65v6.24c-2.55-1.55-6.04-2.33-10.48-2.33-2.22,0-3.98.51-5.28,1.54-1.3,1.03-1.95,2.34-1.95,3.95,0,1,.19,1.87.58,2.62.39.75,1.15,1.48,2.29,2.2,1.14.72,1.97,1.21,2.5,1.46.53.25,1.68.76,3.45,1.54,3.55,1.44,6.32,3.08,8.32,4.91,2,1.83,2.99,4.3,2.99,7.4,0,3.6-1.26,6.46-3.78,8.57-2.52,2.11-5.98,3.16-10.35,3.16-5.1,0-9.23-.86-12.39-2.58v-6.4c3.71,2.22,7.71,3.33,11.98,3.33,2.55,0,4.49-.5,5.82-1.5,1.33-1,2-2.36,2-4.08,0-2-.74-3.55-2.2-4.66-1.47-1.11-3.92-2.36-7.36-3.74-3.16-1.22-5.7-2.74-7.61-4.57-1.91-1.83-2.87-4.3-2.87-7.4,0-3.49,1.32-6.28,3.95-8.36,2.63-2.08,5.92-3.12,9.86-3.12,4.38,0,7.9.61,10.56,1.83Z"/>
    <path d="M865.04,368.09v6.15c-3.27,1.72-7.26,2.58-11.98,2.58-6.38,0-11.52-1.95-15.43-5.86-3.91-3.91-5.86-9.08-5.86-15.51s1.75-12,5.24-15.89c3.49-3.88,7.98-5.82,13.47-5.82s9.45,1.69,12.56,5.07c3.1,3.38,4.66,8.18,4.66,14.39,0,1.78-.14,3.41-.42,4.91h-28.78c.5,4.16,2.08,7.35,4.74,9.56,2.66,2.22,6.15,3.33,10.48,3.33,4.71,0,8.48-.97,11.31-2.91ZM861.13,352.62v-1.66c0-3.49-.94-6.28-2.83-8.36-1.89-2.08-4.49-3.12-7.82-3.12s-5.85,1.14-8.07,3.41c-2.22,2.27-3.52,5.52-3.91,9.73h22.62Z"/>
    <path d="M898.8,376.41v-56.06h6.74v56.06h-6.74Z"/>
    <path d="M925,334.24v7.32c2.5-5.27,6.93-7.9,13.31-7.9,4.1,0,7.37,1.25,9.81,3.74,2.44,2.5,3.66,5.82,3.66,9.98v29.03h-6.57v-27.28c0-3.1-.79-5.48-2.37-7.11-1.58-1.64-3.65-2.45-6.2-2.45-3.16,0-5.89,1.22-8.19,3.66-2.3,2.44-3.45,5.82-3.45,10.15v23.04h-6.49v-42.17h6.49Z"/>
    <path d="M983.55,317.61v5.99c-1.33-.44-2.61-.67-3.83-.67-1.78,0-3.23.61-4.37,1.83-1.14,1.22-1.7,3.11-1.7,5.66v3.83h9.31v5.32h-9.31v36.84h-6.57v-36.84h-7.24v-5.32h7.24v-3.91c0-4.1,1.09-7.35,3.29-9.73,2.19-2.38,5.22-3.58,9.11-3.58,1.33,0,2.69.19,4.08.58Z"/>
    <path d="M1007.92,377.16c-6.04,0-10.83-2.04-14.35-6.11-3.52-4.08-5.28-9.22-5.28-15.43s1.82-11.49,5.45-15.68c3.63-4.19,8.36-6.28,14.18-6.28,6.38,0,11.3,2.05,14.76,6.15,3.46,4.1,5.2,9.31,5.2,15.64s-1.78,11.45-5.32,15.55c-3.55,4.1-8.43,6.15-14.64,6.15ZM1007.92,339.48c-3.99,0-7.12,1.55-9.4,4.66-2.27,3.11-3.41,6.9-3.41,11.39s1.16,8.11,3.49,11.19c2.33,3.08,5.43,4.62,9.31,4.62,4.21,0,7.46-1.51,9.73-4.53,2.27-3.02,3.41-6.78,3.41-11.27s-1.08-8.5-3.24-11.52c-2.16-3.02-5.46-4.53-9.9-4.53Z"/>
    <path d="M1044.02,334.24v7.4c2.22-5.21,6.04-7.82,11.48-7.82,1,0,1.77.06,2.33.17v6.49c-1.17-.39-2.36-.58-3.58-.58-2.94,0-5.38,1.36-7.32,4.08-1.94,2.72-2.91,5.85-2.91,9.4v23.04h-6.57l.08-42.17h6.49Z"/>
    <path d="M1071.13,334.24v6.82c2.33-4.93,6.29-7.4,11.89-7.4,6.49,0,10.59,2.74,12.31,8.23,1.22-2.66,2.92-4.7,5.12-6.11,2.19-1.41,4.64-2.12,7.36-2.12,4.38,0,7.68,1.25,9.9,3.74,2.22,2.5,3.33,5.85,3.33,10.06v28.94h-6.57v-27.28c0-6.38-2.69-9.56-8.07-9.56-2.66,0-5.05,1.21-7.15,3.62-2.11,2.41-3.16,5.81-3.16,10.19v23.04h-6.57v-27.28c0-6.38-2.69-9.56-8.07-9.56-2.66,0-5.05,1.21-7.15,3.62-2.11,2.41-3.16,5.81-3.16,10.19v23.04h-6.49v-42.17h6.49Z"/>
    <path d="M1133.59,343.06v-6.57c3.16-1.94,7.32-2.91,12.48-2.91,10.59,0,15.89,5.38,15.89,16.13v26.7h-6.49v-4.99c-2.16,3.6-6.1,5.41-11.81,5.41-3.94,0-7.11-1.16-9.52-3.49-2.41-2.33-3.62-5.27-3.62-8.82,0-4.05,1.54-7.19,4.62-9.44,3.08-2.25,7.28-3.37,12.6-3.37h7.65v-2.16c0-3.33-.75-5.83-2.25-7.53-1.5-1.69-4.02-2.54-7.57-2.54-4.49,0-8.48,1.19-11.98,3.58ZM1155.38,356.95h-7.32c-3.55,0-6.21.69-7.98,2.08-1.78,1.39-2.66,3.13-2.66,5.24s.69,3.81,2.08,5.12c1.38,1.3,3.41,1.95,6.07,1.95,2.99,0,5.38-.84,7.15-2.54,1.77-1.69,2.66-3.84,2.66-6.45v-5.41Z"/>
    <path d="M1177.92,355.53c.05,4.55,1.44,8.33,4.16,11.35,2.72,3.02,6.57,4.53,11.56,4.53,3.21,0,6.21-.92,8.98-2.74v6.24c-2.66,1.61-5.93,2.41-9.81,2.41-6.65,0-11.94-2.12-15.84-6.36-3.91-4.24-5.86-9.41-5.86-15.51s1.96-11.14,5.86-15.47c3.91-4.32,9.25-6.49,16.01-6.49,3.6,0,6.82.78,9.65,2.33v6.24c-2.55-1.72-5.54-2.58-8.98-2.58-4.77,0-8.58,1.54-11.44,4.62-2.86,3.08-4.28,6.89-4.28,11.44Z"/>
    <path d="M1213.31,324.05c-.8-.8-1.21-1.82-1.21-3.04s.4-2.25,1.21-3.08c.8-.83,1.82-1.25,3.04-1.25s2.25.42,3.08,1.25c.83.83,1.25,1.86,1.25,3.08s-.42,2.23-1.25,3.04c-.83.8-1.86,1.21-3.08,1.21s-2.23-.4-3.04-1.21ZM1213.1,376.41v-42.17h6.57v42.17h-6.57Z"/>
    <path d="M1249.28,377.16c-6.04,0-10.83-2.04-14.35-6.11-3.52-4.08-5.28-9.22-5.28-15.43s1.82-11.49,5.45-15.68c3.63-4.19,8.36-6.28,14.18-6.28,6.38,0,11.3,2.05,14.76,6.15,3.46,4.1,5.2,9.31,5.2,15.64s-1.78,11.45-5.32,15.55c-3.55,4.1-8.43,6.15-14.64,6.15ZM1249.28,339.48c-3.99,0-7.12,1.55-9.4,4.66-2.27,3.11-3.41,6.9-3.41,11.39s1.16,8.11,3.49,11.19c2.33,3.08,5.43,4.62,9.31,4.62,4.21,0,7.46-1.51,9.73-4.53,2.27-3.02,3.41-6.78,3.41-11.27s-1.08-8.5-3.24-11.52c-2.16-3.02-5.46-4.53-9.9-4.53ZM1247.53,329.83l8.23-12.97h7.82l-10.31,12.97h-5.74Z"/>
    <path d="M1285.37,334.24v7.32c2.5-5.27,6.93-7.9,13.31-7.9,4.1,0,7.37,1.25,9.81,3.74,2.44,2.5,3.66,5.82,3.66,9.98v29.03h-6.57v-27.28c0-3.1-.79-5.48-2.37-7.11-1.58-1.64-3.65-2.45-6.2-2.45-3.16,0-5.89,1.22-8.19,3.66-2.3,2.44-3.45,5.82-3.45,10.15v23.04h-6.49v-42.17h6.49Z"/>
  </g>
</svg>