<?xml version="1.0" encoding="utf-8"?>
<!-- Generator: Adobe Illustrator 24.1.0, SVG Export Plug-In . SVG Version: 6.00 Build 0)  -->
<svg version="1.1" id="Capa_1" xmlns="http://www.w3.org/2000/svg" xmlns:xlink="http://www.w3.org/1999/xlink" x="0px" y="0px"
	 viewBox="0 0 1304 368" enable-background="new 0 0 1304 368" xml:space="preserve">
<g>
	<g>
		<g>
			<path d="M412.681,284.64c5.176,0,10.139,0.911,14.89,2.73v4.497c-4.855-2.195-9.82-3.292-14.89-3.292
				c-7.043,0-12.833,2.513-17.368,7.537c-4.537,4.919-6.806,11.011-6.806,18.28c0,7.27,2.269,13.337,6.806,18.2
				c4.589,5.08,10.376,7.617,17.368,7.617c4.376,0,8.619-0.8,12.728-2.401v-22.332H411.4v-3.935h18.893v28.748
				c-5.553,2.57-11.421,3.855-17.612,3.855c-8.431,0-15.367-2.811-20.812-8.431c-5.496-5.675-8.245-12.769-8.245-21.281
				c0-8.458,2.748-15.524,8.245-21.2C397.418,287.505,404.356,284.64,412.681,284.64z"/>
			<path d="M459.875,300.539c4.281,0,7.922,1.526,10.921,4.578c2.987,2.999,4.482,6.638,4.482,10.921
				c0,2.409-0.844,4.336-2.529,5.782c-1.688,1.445-3.813,2.167-6.38,2.167H445.42c0.214,4.635,1.552,8.445,4.013,11.427
				c2.623,3.197,6.13,4.794,10.519,4.794c4.28,0,8.561-0.775,12.845-2.329v4.337c-4.177,1.285-8.458,1.927-12.845,1.927
				c-6.368,0-11.239-2.088-14.611-6.264c-3.202-3.907-4.803-9.074-4.803-15.498c0-6.264,1.521-11.349,4.562-15.258
				C448.525,302.736,453.451,300.539,459.875,300.539z M470.394,316.038c0-2.892-1.044-5.541-3.132-7.95
				c-2.087-2.409-4.522-3.614-7.306-3.614c-4.336,0-7.817,1.526-10.441,4.578c-2.356,2.838-3.72,6.504-4.094,11.001h20.961
				c1.069,0,2.007-0.387,2.809-1.164C469.993,318.113,470.394,317.162,470.394,316.038z"/>
			<path d="M505.134,306.321c-2.87-1.285-5.925-1.928-9.166-1.928c-6.162,0-9.244,2.329-9.244,6.986
				c0,2.517,1.777,4.685,5.333,6.505l10.035,5.14c3.574,2.463,5.363,5.568,5.363,9.315c0,4.015-1.628,7.094-4.882,9.234
				c-2.722,1.66-5.952,2.49-9.687,2.49c-4.376,0-8.083-0.561-11.125-1.686v-4.738c3.521,1.767,7.122,2.649,10.806,2.649
				c2.612,0,4.855-0.642,6.724-1.926c2.082-1.445,3.121-3.293,3.121-5.541c0-2.837-1.778-5.22-5.335-7.147
				c-1.645-0.91-3.29-1.767-4.938-2.569c-1.645-0.804-3.265-1.687-4.856-2.65c-1.895-1.071-3.277-2.342-4.144-3.816
				c-0.866-1.471-1.3-3.063-1.3-4.777c0-3.907,1.388-6.853,4.164-8.834c2.453-1.712,5.575-2.569,9.365-2.569
				c3.363,0,6.618,0.563,9.766,1.686V306.321z"/>
			<path d="M529.547,344.304c-1.389,0-2.669-0.228-3.843-0.682c-1.174-0.455-2.2-1.097-3.081-1.928
				c-0.879-0.829-1.573-1.807-2.081-2.931c-0.509-1.125-0.76-2.355-0.76-3.694v-29.15h-8.006v-3.935h8.006v-12.447h4.882v12.447
				h9.845v3.935h-9.845v29.083c0,1.389,0.48,2.631,1.441,3.725c0.958,1.096,2.106,1.643,3.441,1.643
				c1.867,0,3.895-0.562,6.084-1.686v4.096C533.763,343.795,531.735,344.304,529.547,344.304z"/>
			<path d="M543.555,281.428h4.885v4.898h-4.885V281.428z M548.44,302.065v40.713h-4.885v-40.713H548.44z"/>
			<path d="M597.267,322.783c0,6.478-1.63,11.592-4.885,15.338c-3.36,4.015-8.218,6.022-14.568,6.022
				c-6.297,0-11.206-2.168-14.729-6.504c-3.361-4.068-5.044-9.342-5.044-15.819c0-6.317,1.655-11.43,4.965-15.338
				c3.521-4.015,8.43-6.023,14.726-6.023c6.192,0,11.048,2.196,14.569,6.585C595.61,311.167,597.267,316.414,597.267,322.783z
				 M563.406,321.781c0,5.288,1.12,9.562,3.362,12.819c2.562,3.739,6.244,5.608,11.045,5.608c4.856,0,8.485-1.708,10.886-5.128
				c2.135-2.937,3.202-7.05,3.202-12.338c0-5.235-1.093-9.507-3.282-12.82c-2.509-3.685-6.136-5.528-10.887-5.528
				c-4.855,0-8.51,1.683-10.964,5.048C564.526,312.487,563.406,316.6,563.406,321.781z M581.817,281.428h4.882l-6.884,10.118h-3.923
				L581.817,281.428z"/>
			<path d="M605.67,342.859v-37.421c8.667-3.158,14.629-4.737,17.895-4.737c2.247,0,4.304,0.368,6.177,1.106
				c1.872,0.738,3.465,1.77,4.776,3.092c1.31,1.324,2.325,2.922,3.048,4.796c0.722,1.874,1.083,3.935,1.083,6.183v26.982h-4.882
				v-26.982c0-1.605-0.267-3.091-0.802-4.456c-0.533-1.365-1.267-2.557-2.199-3.574c-0.936-1.016-2.056-1.807-3.363-2.37
				c-1.308-0.562-2.761-0.843-4.362-0.843c-3.95,0-8.111,1.044-12.486,3.132v35.092H605.67z"/>
			<path d="M690.954,300.62c3.938,0,7.821,0.697,11.653,2.088v-21.2h4.882v59.183c-5.231,2.249-10.274,3.373-15.129,3.373
				c-6.351,0-11.474-2.114-15.369-6.344c-3.95-4.283-5.924-9.556-5.924-15.819c0-6.264,1.763-11.376,5.285-15.338
				C679.808,302.601,684.675,300.62,690.954,300.62z M691.432,304.554c-4.895,0-8.644,1.687-11.252,5.06
				c-2.5,3.16-3.75,7.255-3.75,12.287c0,5.032,1.491,9.288,4.47,12.768c3.085,3.749,7.076,5.621,11.97,5.621
				c2.767,0,6.01-0.694,9.737-2.087v-31.639C699.148,305.225,695.423,304.554,691.432,304.554z"/>
			<path d="M736.03,300.539c4.282,0,7.923,1.526,10.92,4.578c2.988,2.999,4.483,6.638,4.483,10.921c0,2.409-0.845,4.336-2.53,5.782
				c-1.687,1.445-3.812,2.167-6.38,2.167h-20.948c0.212,4.635,1.551,8.445,4.012,11.427c2.624,3.197,6.13,4.794,10.518,4.794
				c4.281,0,8.562-0.775,12.846-2.329v4.337c-4.177,1.285-8.458,1.927-12.846,1.927c-6.369,0-11.238-2.088-14.61-6.264
				c-3.202-3.907-4.805-9.074-4.805-15.498c0-6.264,1.522-11.349,4.563-15.258C724.682,302.736,729.606,300.539,736.03,300.539z
				 M746.549,316.038c0-2.892-1.044-5.541-3.131-7.95c-2.088-2.409-4.524-3.614-7.308-3.614c-4.335,0-7.817,1.526-10.441,4.578
				c-2.355,2.838-3.72,6.504-4.093,11.001h20.96c1.069,0,2.007-0.387,2.809-1.164C746.148,318.113,746.549,317.162,746.549,316.038z
				"/>
			<path d="M811.946,286.085v3.935h-23.212v21.521h23.212v3.935h-23.212v23.288h23.212v3.935h-28.095v-56.613H811.946z"/>
			<path d="M843.566,306.321c-2.871-1.285-5.925-1.928-9.166-1.928c-6.163,0-9.244,2.329-9.244,6.986
				c0,2.517,1.777,4.685,5.335,6.505l10.033,5.14c3.576,2.463,5.364,5.568,5.364,9.315c0,4.015-1.628,7.094-4.883,9.234
				c-2.722,1.66-5.951,2.49-9.686,2.49c-4.376,0-8.084-0.561-11.127-1.686v-4.738c3.523,1.767,7.125,2.649,10.807,2.649
				c2.613,0,4.856-0.642,6.725-1.926c2.08-1.445,3.121-3.293,3.121-5.541c0-2.837-1.778-5.22-5.335-7.147
				c-1.645-0.91-3.292-1.767-4.938-2.569c-1.645-0.804-3.264-1.687-4.856-2.65c-1.896-1.071-3.277-2.342-4.144-3.816
				c-0.866-1.471-1.3-3.063-1.3-4.777c0-3.907,1.387-6.853,4.164-8.834c2.453-1.712,5.575-2.569,9.365-2.569
				c3.363,0,6.618,0.563,9.766,1.686V306.321z"/>
			<path d="M854.451,365.634v-61.805c5.176-2.193,10.673-3.29,16.489-3.29c6.245,0,11.18,2.008,14.809,6.023
				c3.415,3.801,5.123,8.913,5.123,15.338c0,6.263-1.949,11.511-5.843,15.739c-4.043,4.284-9.203,6.424-15.48,6.424
				c-1.757,0-3.486-0.137-5.188-0.409c-1.702-0.274-3.379-0.657-5.025-1.148v23.128H854.451z M870.507,304.474
				c-3.778,0-7.502,0.615-11.172,1.844v31.809c3.776,1.335,7.021,2.003,9.734,2.003c4.896,0,8.912-1.843,12.052-5.528
				c2.925-3.472,4.387-7.718,4.387-12.74c0-5.127-1.224-9.24-3.67-12.338C879.126,306.157,875.347,304.474,870.507,304.474z"/>
			<path d="M930.094,339.325c-4.856,3.267-10.459,4.898-16.809,4.898c-4.43,0-8.112-1.098-11.047-3.292
				c-2.828-2.249-4.242-5.139-4.242-8.673c0-3.907,1.68-7.039,5.042-9.395c3.789-2.676,9.312-4.015,16.57-4.015h5.603v-5.67
				c0-2.288-0.854-4.285-2.562-5.989c-1.707-1.757-3.842-2.636-6.404-2.636c-4.909,0-9.419,0.804-13.528,2.41v-4.336
				c4.163-1.338,8.965-2.008,14.409-2.008c3.628,0,6.696,1.205,9.205,3.614c2.507,2.356,3.762,5.328,3.762,8.913V339.325z
				 M925.212,322.783h-5.123c-5.817,0-10.22,1.013-13.208,3.037c-2.454,1.652-3.682,3.785-3.682,6.396
				c0,2.292,0.932,4.21,2.801,5.755c1.868,1.546,4.402,2.317,7.604,2.317c4.269,0,8.137-0.984,11.607-2.957V322.783z"/>
			<path d="M970.197,342.779c-3.79,0.963-7.443,1.445-10.967,1.445c-6.298,0-11.26-2.087-14.887-6.264
				c-3.471-3.96-5.204-9.126-5.204-15.498c0-6.316,1.733-11.509,5.204-15.578c3.681-4.228,8.643-6.345,14.887-6.345
				c3.63,0,7.285,0.51,10.967,1.526v4.175c-3.521-1.176-7.178-1.767-10.967-1.767c-4.695,0-8.431,1.79-11.207,5.368
				c-2.669,3.419-4.002,7.613-4.002,12.58c0,4.915,1.333,9.082,4.002,12.499c2.775,3.579,6.511,5.368,11.207,5.368
				c3.789,0,7.446-0.561,10.967-1.686V342.779z"/>
			<path d="M978.92,281.428h4.883v4.898h-4.883V281.428z M983.804,302.065v40.713h-4.883v-40.713H983.804z"/>
			<path d="M1032.631,322.783c0,6.478-1.629,11.592-4.884,15.338c-3.361,4.015-8.218,6.022-14.568,6.022
				c-6.298,0-11.206-2.168-14.728-6.504c-3.362-4.068-5.044-9.342-5.044-15.819c0-6.317,1.654-11.43,4.964-15.338
				c3.521-4.015,8.43-6.023,14.729-6.023c6.19,0,11.046,2.196,14.567,6.585C1030.976,311.167,1032.631,316.414,1032.631,322.783z
				 M998.771,321.781c0,5.288,1.121,9.562,3.363,12.819c2.561,3.739,6.244,5.608,11.045,5.608c4.856,0,8.485-1.708,10.887-5.128
				c2.133-2.937,3.202-7.05,3.202-12.338c0-5.235-1.094-9.507-3.282-12.82c-2.509-3.685-6.137-5.528-10.886-5.528
				c-4.856,0-8.513,1.683-10.966,5.048C999.891,312.487,998.771,316.6,998.771,321.781z"/>
			<path d="M1062.408,306.321c-2.87-1.285-5.925-1.928-9.166-1.928c-6.163,0-9.245,2.329-9.245,6.986
				c0,2.517,1.778,4.685,5.335,6.505l10.034,5.14c3.574,2.463,5.362,5.568,5.362,9.315c0,4.015-1.628,7.094-4.882,9.234
				c-2.722,1.66-5.952,2.49-9.686,2.49c-4.376,0-8.085-0.561-11.126-1.686v-4.738c3.521,1.767,7.124,2.649,10.807,2.649
				c2.614,0,4.854-0.642,6.724-1.926c2.082-1.445,3.121-3.293,3.121-5.541c0-2.837-1.777-5.22-5.335-7.147
				c-1.644-0.91-3.29-1.767-4.937-2.569c-1.645-0.804-3.262-1.687-4.856-2.65c-1.896-1.071-3.276-2.342-4.144-3.816
				c-0.866-1.471-1.3-3.063-1.3-4.777c0-3.907,1.387-6.853,4.163-8.834c2.454-1.712,5.577-2.569,9.366-2.569
				c3.363,0,6.617,0.563,9.766,1.686V306.321z"/>
			<path d="M1122.44,286.085v3.935h-21.692v21.521h20.733v3.935h-20.733v27.223h-4.883v-56.613H1122.44z"/>
			<path d="M1136.528,302.065v40.713h-4.883v-40.713H1136.528z M1137.889,281.428h4.883l-6.884,10.118h-3.922L1137.889,281.428z"/>
			<path d="M1169.586,306.321c-2.868-1.285-5.924-1.928-9.165-1.928c-6.165,0-9.246,2.329-9.246,6.986
				c0,2.517,1.778,4.685,5.337,6.505l10.033,5.14c3.573,2.463,5.362,5.568,5.362,9.315c0,4.015-1.628,7.094-4.882,9.234
				c-2.722,1.66-5.951,2.49-9.686,2.49c-4.377,0-8.085-0.561-11.126-1.686v-4.738c3.521,1.767,7.123,2.649,10.806,2.649
				c2.615,0,4.855-0.642,6.724-1.926c2.082-1.445,3.122-3.293,3.122-5.541c0-2.837-1.778-5.22-5.333-7.147
				c-1.647-0.91-3.293-1.767-4.938-2.569c-1.646-0.804-3.267-1.687-4.857-2.65c-1.896-1.071-3.277-2.342-4.143-3.816
				c-0.867-1.471-1.301-3.063-1.301-4.777c0-3.907,1.388-6.853,4.163-8.834c2.453-1.712,5.576-2.569,9.365-2.569
				c3.362,0,6.616,0.563,9.766,1.686V306.321z"/>
			<path d="M1181.112,281.428h4.881v4.898h-4.881V281.428z M1185.994,302.065v40.713h-4.881v-40.713H1185.994z"/>
			<path d="M1226.738,342.779c-3.791,0.963-7.445,1.445-10.967,1.445c-6.297,0-11.259-2.087-14.887-6.264
				c-3.471-3.96-5.204-9.126-5.204-15.498c0-6.316,1.733-11.509,5.204-15.578c3.681-4.228,8.644-6.345,14.887-6.345
				c3.628,0,7.286,0.51,10.967,1.526v4.175c-3.523-1.176-7.179-1.767-10.967-1.767c-4.695,0-8.432,1.79-11.206,5.368
				c-2.669,3.419-4.002,7.613-4.002,12.58c0,4.915,1.333,9.082,4.002,12.499c2.774,3.579,6.511,5.368,11.206,5.368
				c3.789,0,7.444-0.561,10.967-1.686V342.779z"/>
			<path d="M1271.4,322.783c0,6.478-1.627,11.592-4.882,15.338c-3.361,4.015-8.218,6.022-14.567,6.022
				c-6.298,0-11.207-2.168-14.729-6.504c-3.361-4.068-5.043-9.342-5.043-15.819c0-6.317,1.654-11.43,4.962-15.338
				c3.523-4.015,8.433-6.023,14.729-6.023c6.191,0,11.047,2.196,14.568,6.585C1269.747,311.167,1271.4,316.414,1271.4,322.783z
				 M1237.542,321.781c0,5.288,1.121,9.562,3.363,12.819c2.56,3.739,6.243,5.608,11.046,5.608c4.855,0,8.485-1.708,10.885-5.128
				c2.135-2.937,3.203-7.05,3.203-12.338c0-5.235-1.094-9.507-3.282-12.82c-2.509-3.685-6.137-5.528-10.887-5.528
				c-4.856,0-8.512,1.683-10.965,5.048C1238.663,312.487,1237.542,316.6,1237.542,321.781z"/>
			<path d="M1301.18,306.321c-2.871-1.285-5.926-1.928-9.166-1.928c-6.164,0-9.246,2.329-9.246,6.986
				c0,2.517,1.779,4.685,5.335,6.505l10.033,5.14c3.576,2.463,5.364,5.568,5.364,9.315c0,4.015-1.63,7.094-4.883,9.234
				c-2.722,1.66-5.95,2.49-9.686,2.49c-4.375,0-8.083-0.561-11.127-1.686v-4.738c3.522,1.767,7.125,2.649,10.809,2.649
				c2.612,0,4.854-0.642,6.723-1.926c2.082-1.445,3.121-3.293,3.121-5.541c0-2.837-1.778-5.22-5.335-7.147
				c-1.645-0.91-3.29-1.767-4.938-2.569c-1.645-0.804-3.264-1.687-4.856-2.65c-1.896-1.071-3.277-2.342-4.144-3.816
				c-0.866-1.471-1.3-3.063-1.3-4.777c0-3.907,1.388-6.853,4.163-8.834c2.454-1.712,5.576-2.569,9.365-2.569
				c3.364,0,6.619,0.563,9.767,1.686V306.321z"/>
		</g>
	</g>
	<g>
		<g>
			<path d="M398.178,106.396c0-9.464,1.212-18.611,3.639-27.446c2.426-8.832,5.883-17.08,10.377-24.743
				c4.492-7.66,9.861-14.646,16.107-20.957c6.243-6.308,13.184-11.695,20.822-16.156c7.636-4.462,15.836-7.931,24.595-10.411
				c8.761-2.478,17.902-3.718,27.427-3.718c9.434,0,18.532,1.239,27.291,3.718c8.76,2.481,16.958,5.949,24.595,10.411
				c7.636,4.462,14.599,9.849,20.89,16.156c6.289,6.311,11.659,13.297,16.106,20.957c4.447,7.663,7.906,15.911,10.379,24.743
				c2.47,8.835,3.706,18.029,3.706,27.582c0,9.555-1.236,18.705-3.706,27.446c-2.472,8.744-5.931,16.947-10.379,24.608
				c-4.447,7.662-9.817,14.625-16.106,20.889c-6.291,6.266-13.254,11.627-20.89,16.089c-7.637,4.462-15.835,7.909-24.595,10.343
				c-8.76,2.434-17.905,3.651-27.427,3.651c-9.524,0-18.664-1.217-27.426-3.651c-8.76-2.434-16.96-5.902-24.596-10.41
				c-7.638-4.507-14.579-9.892-20.822-16.158c-6.245-6.263-11.591-13.204-16.038-20.821c-4.448-7.616-7.884-15.819-10.31-24.607
				C399.39,125.122,398.178,115.951,398.178,106.396z M437.128,106.126c0,9.105,1.637,17.623,4.918,25.554
				c3.279,7.932,7.771,14.828,13.478,20.686c5.705,5.861,12.442,10.502,20.215,13.926c7.771,3.427,16.194,5.138,25.27,5.138
				c8.984,0,17.364-1.711,25.137-5.138c7.769-3.424,14.532-8.065,20.283-13.926c5.748-5.857,10.262-12.754,13.542-20.686
				c3.279-7.931,4.921-16.449,4.921-25.554c0-9.012-1.642-17.486-4.921-25.419c-3.28-7.93-7.794-14.848-13.542-20.753
				c-5.752-5.902-12.514-10.567-20.283-13.993c-7.773-3.425-16.153-5.138-25.137-5.138c-9.075,0-17.498,1.713-25.27,5.138
				c-7.773,3.426-14.51,8.091-20.215,13.993c-5.707,5.905-10.199,12.823-13.478,20.753
				C438.765,88.64,437.128,97.113,437.128,106.126z"/>
			<path d="M639.554,11.753c0-1.622,0.491-3.019,1.479-4.191c0.984-1.171,2.461-1.757,4.432-1.757h26.727
				c1.521,0,2.955,0.54,4.298,1.622c1.344,1.082,2.016,2.524,2.016,4.326v188.88c0,3.968-2.107,5.949-6.314,5.949h-26.727
				c-3.94,0-5.911-1.981-5.911-5.949V11.753z"/>
			<path d="M722.305,11.753c0-1.622,0.515-3.019,1.548-4.191c1.033-1.171,2.493-1.757,4.38-1.757h27.359
				c0.627,0,1.325,0.135,2.089,0.404c0.763,0.272,1.461,0.676,2.09,1.218c0.627,0.541,1.167,1.172,1.617,1.892
				c0.448,0.723,0.674,1.533,0.674,2.434v80.311L837.67,9.995c1.797-2.793,3.773-4.19,5.929-4.19h38.546
				c2.425,0,3.639,0.54,3.639,1.622c0,0.723-0.539,1.669-1.616,2.839l-71.161,83.15l83.02,107.758
				c1.348,1.803,2.022,3.109,2.022,3.921c0,0.993-0.945,1.487-2.831,1.487h-40.971c-2.158,0-4.135-1.396-5.93-4.191l-63.344-80.988
				l-22.911,23.796v55.434c0,3.968-2.158,5.949-6.47,5.949h-27.359c-3.955,0-5.928-1.981-5.928-5.949V11.753z"/>
			<path d="M916.377,106.396c0-9.464,1.213-18.611,3.639-27.446c2.426-8.832,5.884-17.08,10.378-24.743
				c4.492-7.66,9.858-14.646,16.105-20.957c6.244-6.308,13.185-11.695,20.823-16.156c7.636-4.462,15.836-7.931,24.595-10.411
				c8.759-2.478,17.902-3.718,27.427-3.718c9.434,0,18.53,1.239,27.292,3.718c8.76,2.481,16.958,5.949,24.596,10.411
				c7.636,4.462,14.599,9.849,20.89,16.156c6.288,6.311,11.658,13.297,16.105,20.957c4.448,7.663,7.905,15.911,10.377,24.743
				c2.47,8.835,3.707,18.029,3.707,27.582c0,9.555-1.237,18.705-3.707,27.446c-2.472,8.744-5.929,16.947-10.377,24.608
				c-4.447,7.662-9.817,14.625-16.105,20.889c-6.291,6.266-13.254,11.627-20.89,16.089c-7.638,4.462-15.836,7.909-24.596,10.343
				c-8.762,2.434-17.904,3.651-27.427,3.651c-9.525,0-18.666-1.217-27.427-3.651c-8.759-2.434-16.959-5.902-24.595-10.41
				c-7.637-4.507-14.579-9.892-20.822-16.158c-6.246-6.263-11.591-13.204-16.039-20.821c-4.448-7.616-7.884-15.819-10.31-24.607
				C917.59,125.122,916.377,115.951,916.377,106.396z M955.326,106.126c0,9.105,1.639,17.623,4.92,25.554
				c3.278,7.932,7.77,14.828,13.477,20.686c5.706,5.861,12.444,10.502,20.216,13.926c7.769,3.427,16.192,5.138,25.27,5.138
				c8.984,0,17.36-1.711,25.135-5.138c7.771-3.424,14.531-8.065,20.283-13.926c5.749-5.857,10.264-12.754,13.545-20.686
				c3.28-7.931,4.919-16.449,4.919-25.554c0-9.012-1.639-17.486-4.919-25.419c-3.281-7.93-7.796-14.848-13.545-20.753
				c-5.751-5.902-12.512-10.567-20.283-13.993c-7.775-3.425-16.151-5.138-25.135-5.138c-9.078,0-17.5,1.713-25.27,5.138
				c-7.773,3.426-14.51,8.091-20.216,13.993c-5.707,5.905-10.198,12.823-13.477,20.753
				C956.965,88.64,955.326,97.113,955.326,106.126z"/>
			<path d="M1271.502,59.345c-1.169,0-2.247-0.292-3.233-0.878c-0.992-0.586-2.113-1.374-3.37-2.367l-0.271-0.135
				c-1.707-1.711-3.908-3.604-6.603-5.679c-2.695-2.072-5.707-4.01-9.03-5.813c-3.326-1.802-6.897-3.334-10.715-4.598
				c-3.819-1.261-7.706-1.892-11.658-1.892c-5.033,0-9.48,0.563-13.343,1.69c-3.864,1.128-7.1,2.659-9.703,4.597
				c-2.606,1.939-4.582,4.215-5.931,6.828c-1.347,2.616-2.021,5.409-2.021,8.383c0,3.244,1.01,6.083,3.032,8.517
				c2.021,2.434,4.762,4.597,8.222,6.49c3.458,1.893,7.433,3.629,11.929,5.206c4.49,1.578,9.208,3.133,14.149,4.665
				c5.66,1.712,11.274,3.562,16.846,5.542c5.571,1.984,10.896,4.215,15.973,6.692c5.075,2.481,9.814,5.23,14.218,8.248
				c4.401,3.021,8.197,6.49,11.388,10.411c3.188,3.921,5.705,8.294,7.547,13.116c1.84,4.823,2.763,10.253,2.763,16.292
				c0,9.826-1.977,18.705-5.93,26.635c-3.955,7.933-9.413,14.716-16.374,20.349c-6.965,5.634-15.142,9.96-24.529,12.979
				c-9.39,3.019-19.476,4.53-30.257,4.53c-6.92,0-13.793-0.812-20.62-2.434c-6.829-1.623-13.39-3.921-19.677-6.896
				c-6.29-2.975-12.244-6.558-17.858-10.749c-5.615-4.191-10.625-8.9-15.026-14.129v0.135l-0.271-0.541
				c-1.978-2.252-2.964-4.326-2.964-6.22c0-0.991,0.269-1.937,0.809-2.839c0.537-0.9,1.347-1.893,2.426-2.974l4.447-4.462
				c1.347-1.17,2.783-2.478,4.313-3.922c1.526-1.44,3.052-2.748,4.581-3.921c1.526-1.17,2.942-2.163,4.246-2.975
				c1.301-0.81,2.357-1.216,3.167-1.216c1.257,0,2.426,0.406,3.504,1.216c1.08,0.812,1.975,1.578,2.695,2.299l0.539,0.54h-0.135
				c3.146,2.975,6.673,5.814,10.581,8.518c3.909,2.703,7.928,5.116,12.063,7.233c4.131,2.118,8.241,3.785,12.331,5.002
				c4.087,1.217,7.929,1.825,11.523,1.825c4.941,0,9.569-0.629,13.882-1.893c4.312-1.262,8.041-3.042,11.187-5.34
				c3.143-2.299,5.614-5.07,7.413-8.316c1.796-3.244,2.696-6.848,2.696-10.816c0-3.965-1.169-7.369-3.505-10.208
				c-2.337-2.839-5.39-5.317-9.164-7.436c-3.774-2.116-8.02-3.941-12.736-5.475c-4.718-1.532-9.457-2.975-14.219-4.327
				c-10.961-3.333-20.552-6.94-28.773-10.816c-8.224-3.875-15.075-8.225-20.553-13.047c-5.483-4.821-9.594-10.229-12.333-16.225
				c-2.74-5.993-4.11-12.729-4.11-20.212c0-8.383,1.684-16.022,5.055-22.918c3.367-6.896,8.152-12.797,14.352-17.711
				c6.201-4.912,13.658-8.742,22.374-11.493c8.713-2.748,18.464-4.123,29.246-4.123c8.175,0,16.486,1.284,24.933,3.853
				c8.443,2.568,16.26,6.108,23.451,10.614c2.155,1.352,4.356,2.886,6.603,4.597c2.245,1.713,4.312,3.448,6.201,5.205
				c1.886,1.758,3.436,3.471,4.649,5.138c1.212,1.669,1.819,3.089,1.819,4.26c0,1.081-0.269,2.187-0.808,3.312
				c-0.539,1.128-1.215,2.142-2.021,3.042l-4.044,4.327v-0.135c-1.348,1.442-2.742,2.93-4.178,4.462
				c-1.438,1.533-2.877,2.906-4.313,4.123c-1.438,1.218-2.742,2.23-3.908,3.042C1273.299,58.939,1272.311,59.345,1271.502,59.345z"
				/>
		</g>
	</g>
	<g>
		<polygon fill="#A32B14" points="3.5,173.393 76.115,86.149 144.306,173.393 144.306,366.289 3.5,366.289 		"/>
		<polygon fill="#A32B14" points="153.778,175.792 153.778,359.089 223.868,269.755 223.868,90.949 		"/>
		<polygon fill="#A32B14" points="288.911,360.772 288.886,173.977 223.868,90.949 290.165,4.502 365.939,100.84 365.939,264.17 		
			"/>
	</g>
</g>
</svg>
