<svg version="1.1" id="Layer_1" xmlns="http://www.w3.org/2000/svg" xmlns:xlink="http://www.w3.org/1999/xlink" x="0px" y="0px"
	 width="100%" viewBox="0 0 1304 368" enable-background="new 0 0 1304 368" xml:space="preserve">
<path fill="#FEFEFE" opacity="1.000000" stroke="none" 
	d="
M465.000000,369.000000 
	C310.382477,369.000000 155.764954,369.000000 1.073719,369.000000 
	C1.073719,246.421494 1.073719,123.842934 1.073719,1.000000 
	C178.355255,1.000000 355.710663,1.000000 533.356140,1.347554 
	C532.337402,1.932067 531.009338,2.092534 529.722595,2.417040 
	C480.718689,14.775040 449.964661,60.450577 456.834290,110.648087 
	C464.050690,163.379471 513.400024,200.547516 565.851929,192.755997 
	C610.937927,186.058685 644.160034,150.954010 648.744446,105.166267 
	C653.032471,62.339031 626.793823,21.093021 585.404358,5.714200 
	C580.672302,3.955953 575.804749,2.562554 571.000000,0.999997 
	C720.022034,1.000000 869.044006,1.000000 1018.395569,1.364043 
	C969.001648,10.658794 933.553772,61.836994 942.320007,112.038628 
	C951.531738,164.791290 997.959229,199.413666 1050.666626,192.835892 
	C1091.213989,187.775665 1124.297241,156.654633 1132.725830,115.643661 
	C1140.886719,75.935898 1121.906860,32.973640 1086.618652,13.303514 
	C1077.087646,7.990824 1066.242188,5.036707 1056.000000,0.999999 
	C1106.688721,1.000000 1157.377319,1.000000 1208.390381,1.350238 
	C1200.874878,5.198183 1192.405029,7.731238 1185.308594,12.366965 
	C1159.742432,29.068142 1156.338135,70.120438 1184.476440,89.690842 
	C1197.786621,98.948219 1212.779785,104.129669 1227.973633,109.119431 
	C1236.914551,112.055656 1246.099976,114.961914 1254.192017,119.598282 
	C1265.996704,126.361877 1266.761963,140.716797 1256.549805,149.839600 
	C1253.644287,152.435196 1250.017944,154.501724 1246.378662,155.943634 
	C1237.093628,159.622360 1227.612061,159.758682 1218.089600,156.398376 
	C1206.617065,152.349945 1196.566895,146.010178 1187.653198,137.830917 
	C1182.136353,132.768616 1180.797729,132.441391 1174.934570,137.057037 
	C1170.627319,140.447891 1166.568604,144.187805 1162.643311,148.022141 
	C1157.082153,153.454422 1156.896729,156.242889 1162.232422,161.991760 
	C1185.485474,187.046143 1214.082031,197.324966 1247.864136,191.608932 
	C1265.984375,188.542923 1281.679443,180.509079 1292.563965,165.036911 
	C1306.723022,144.910126 1309.704468,110.156960 1277.882568,92.766495 
	C1265.315918,85.898888 1251.393433,81.504982 1238.064941,76.041519 
	C1229.030640,72.338272 1219.473755,69.595314 1211.021484,64.866280 
	C1200.596680,59.033520 1200.358032,47.245480 1209.674805,39.614132 
	C1212.062256,37.658600 1214.972778,36.091770 1217.897339,35.086430 
	C1228.810059,31.335186 1239.697021,31.959946 1249.758789,37.528831 
	C1256.393799,41.201202 1262.479248,45.927612 1268.565552,50.507862 
	C1272.226196,53.262714 1275.447388,53.618076 1278.767944,50.391285 
	C1283.420532,45.869907 1288.133057,41.397747 1292.564575,36.665527 
	C1295.695679,33.322170 1296.063843,29.406540 1292.691895,25.962420 
	C1289.327881,22.526413 1285.798950,19.200254 1282.027588,16.224640 
	C1272.533447,8.733635 1261.329590,4.704061 1250.000000,1.000000 
	C1268.326294,1.000000 1286.652710,1.000000 1304.984253,0.999999 
	C1304.989502,123.612877 1304.989502,246.225754 1304.989502,369.000000 
	C1067.311401,369.000000 829.622681,369.000000 591.551208,368.539520 
	C591.168457,363.127533 591.168457,358.175995 591.168457,352.979248 
	C593.422791,353.189575 595.222961,353.434601 597.030396,353.513672 
	C609.082764,354.041229 618.072449,345.326233 617.530823,333.676758 
	C616.977661,321.778900 608.132324,314.700592 595.756653,316.371704 
	C592.808716,316.769775 589.781799,317.217896 587.046997,318.293396 
	C585.673218,318.833649 583.966675,320.825287 583.953186,322.175934 
	C583.797913,337.782257 583.938171,353.391510 584.000000,369.000000 
	C546.977966,369.000000 509.955963,369.000000 472.578125,368.659607 
	C478.848022,351.687469 485.473724,335.055695 492.213470,318.137665 
	C489.623993,318.137665 487.483826,318.137665 485.167877,318.137665 
	C483.623657,321.993530 482.086456,325.832153 480.549103,329.670715 
	C479.014404,333.502625 477.479584,337.334503 475.593781,342.042877 
	C472.771729,335.622070 469.949707,330.167664 467.971741,324.422668 
	C466.087585,318.950165 463.129791,316.461700 457.030365,318.487030 
	C459.231781,323.313782 461.506531,328.250092 463.737579,333.206055 
	C466.460388,339.254425 471.017059,345.232422 471.303497,351.402313 
	C471.570709,357.158264 467.282806,363.125671 465.000000,369.000000 
M294.245972,244.000977 
	C272.316986,249.452515 259.420502,266.299377 259.690308,289.141479 
	C259.953308,311.408203 277.415588,329.584137 300.699921,331.827057 
	C321.178375,333.799652 342.349762,318.427948 346.949371,298.322479 
	C349.927979,285.302612 347.523193,273.245636 341.417908,261.614807 
	C343.160950,261.080475 344.938995,260.639008 346.641602,259.997314 
	C362.715729,253.938751 372.949585,242.488800 375.716949,225.610825 
	C378.418274,209.135620 373.653839,194.739441 360.305847,183.320023 
	C363.163971,180.100937 366.428955,177.156326 368.815155,173.618866 
	C386.162231,147.902466 372.864838,111.843102 340.794006,104.324799 
	C341.607971,102.874565 342.463501,101.445915 343.229584,99.970833 
	C354.119568,79.002441 346.809265,53.195122 326.579590,41.152920 
	C306.164917,29.000589 279.728241,35.052715 266.660950,54.981571 
	C249.993134,80.401649 262.976501,116.203049 295.120026,123.714699 
	C282.398010,143.168793 286.532074,168.517014 302.870880,182.317749 
	C303.334930,182.709702 303.531311,183.418579 303.235901,184.207291 
	C286.653442,199.004227 282.905670,220.903564 293.586060,240.395981 
	C294.204254,241.524261 294.552460,242.800491 294.245972,244.000977 
M89.892052,123.014336 
	C98.647675,120.876892 106.501984,116.973251 112.701317,110.369316 
	C126.466118,95.706100 129.152679,74.494766 119.598740,57.716835 
	C109.622704,40.197651 90.795563,31.704401 70.732422,36.068928 
	C49.635567,40.658321 34.033764,60.975468 36.912907,82.937004 
	C37.899452,90.462189 41.530174,97.640724 43.217667,105.138100 
	C25.364351,109.714851 13.493416,120.757019 9.344877,138.718384 
	C5.299250,156.234177 10.755288,171.188370 24.074373,183.709625 
	C11.253808,195.272980 6.007209,209.519699 8.990839,226.617691 
	C12.028148,244.023239 27.645863,259.522064 43.786041,261.822052 
	C38.627792,271.487366 35.230495,281.443329 36.706028,292.746094 
	C39.496998,314.125305 56.432331,330.249664 78.247383,331.804169 
	C98.436485,333.242828 117.927773,319.411163 123.518883,299.678040 
	C129.376495,279.004272 120.015404,257.344421 100.934654,247.800766 
	C97.142151,245.903854 93.055183,244.595657 89.656433,242.613327 
	C96.881401,230.991302 98.915474,218.645187 95.175621,205.353699 
	C92.653000,196.388275 87.097069,189.491348 81.290131,182.599411 
	C96.254837,170.321503 103.782814,145.401840 89.892052,123.014336 
M807.177368,122.680054 
	C810.880066,118.941658 814.582764,115.203262 818.344177,111.405617 
	C819.018799,112.191490 819.472168,112.679008 819.880859,113.201492 
	C838.855530,137.459656 857.785889,161.752838 876.870361,185.924301 
	C878.490479,187.976227 881.096008,190.547836 883.313904,190.616638 
	C896.461548,191.024429 909.629883,190.771896 922.791016,190.695023 
	C923.189331,190.692703 923.584656,190.181168 925.174194,189.082825 
	C898.323975,154.193069 871.561157,119.416809 844.830505,84.682419 
	C867.965881,57.592075 890.757019,30.904858 913.947021,3.750629 
	C911.900146,3.012931 911.280151,2.596747 910.658203,2.593800 
	C898.163696,2.534582 885.667603,2.433506 873.175842,2.614676 
	C871.611694,2.637361 869.713867,3.871120 868.572449,5.101873 
	C856.123596,18.524353 843.811218,32.073257 831.428040,45.556911 
	C820.239685,57.739689 809.009766,69.884247 797.004517,82.906525 
	C797.004517,80.781654 797.004456,79.852997 797.004456,78.924347 
	C797.004456,56.096832 797.016235,33.269310 796.996277,10.441815 
	C796.991211,4.616732 795.024658,2.557059 789.308105,2.502697 
	C781.644104,2.429817 773.978210,2.423586 766.314392,2.505862 
	C761.019409,2.562707 759.547424,4.081045 759.502747,9.488084 
	C759.433960,17.818726 759.484314,26.150351 759.484314,34.481560 
	C759.484253,83.968941 759.480225,133.456329 759.489136,182.943710 
	C759.490356,189.755920 760.548035,190.819031 767.221863,190.834656 
	C774.553284,190.851837 781.884888,190.863190 789.216187,190.831055 
	C795.537842,190.803345 796.981812,189.422440 796.996033,183.336777 
	C797.024414,171.173264 797.695862,158.957870 796.789856,146.862152 
	C796.039368,136.842743 798.661499,129.112457 807.177368,122.680054 
M681.996704,133.500000 
	C681.996704,150.318344 681.980225,167.136719 682.006104,183.955017 
	C682.014587,189.443542 683.301392,190.778641 688.694519,190.821442 
	C696.353882,190.882233 704.014404,190.879150 711.673828,190.822693 
	C717.165283,190.782227 718.811890,189.208588 718.815247,183.637680 
	C718.850159,125.689346 718.850647,67.740967 718.812927,9.792633 
	C718.809509,4.497559 716.818359,2.571464 711.533630,2.508365 
	C704.374390,2.422886 697.213257,2.476119 690.052979,2.489714 
	C683.026367,2.503056 682.000183,3.532936 681.999268,10.608625 
	C681.993958,51.239082 681.996704,91.869545 681.996704,133.500000 
M152.719086,198.193878 
	C164.435699,187.623474 177.927505,180.060425 193.124542,174.936920 
	C212.136108,188.438110 229.078598,206.942398 231.621414,217.380859 
	C228.621033,216.576111 225.749191,215.191177 222.910217,215.255585 
	C220.943237,215.300201 219.021561,217.342468 217.079651,218.492157 
	C218.237244,220.417542 218.986038,223.489105 220.622208,224.072693 
	C228.276901,226.802887 236.156372,228.918488 243.998047,231.100876 
	C246.986954,231.932709 249.595932,230.876450 250.050201,227.642365 
	C251.229904,219.243439 252.301346,210.808121 252.786316,202.351212 
	C252.879974,200.718109 250.360062,197.997482 248.577744,197.517883 
	C247.351181,197.187866 244.682266,199.540237 243.808777,201.273621 
	C242.783463,203.308273 243.004578,205.971039 242.825592,207.310196 
	C231.316940,195.924911 219.524445,184.258835 208.936050,173.783936 
	C221.106766,166.593170 234.446838,158.711548 248.003860,150.701721 
	C248.003860,152.116837 247.512131,154.196350 248.133606,155.860031 
	C248.842865,157.758728 250.563843,160.668533 251.808701,160.650269 
	C253.643188,160.623383 256.740784,158.643524 257.043304,157.063339 
	C258.574097,149.067230 259.498505,140.944611 260.368530,132.837692 
	C260.700806,129.741653 259.024170,127.650238 255.660141,127.767097 
	C247.679977,128.044296 239.679642,128.208282 231.746475,129.005341 
	C229.992432,129.181564 227.434052,131.582550 227.091049,133.322754 
	C226.482742,136.409027 228.857071,138.034805 232.061752,138.013184 
	C234.937820,137.993759 237.814117,138.009094 241.417816,138.009094 
	C227.294296,153.131241 211.249069,163.657547 192.394821,169.743881 
	C175.626587,159.721954 163.066040,145.294281 152.657028,127.175903 
	C156.560730,128.191635 159.420334,129.512512 162.263824,129.478729 
	C164.256775,129.455017 167.116318,128.066788 168.009338,126.427505 
	C169.511597,123.669861 167.674149,121.260841 164.717224,120.365372 
	C157.091370,118.055939 149.415436,115.912048 141.762573,113.691475 
	C138.072266,112.620697 135.704453,114.223450 135.205460,117.736450 
	C134.059097,125.806847 133.032700,133.917114 132.586594,142.045715 
	C132.492462,143.760941 134.765671,146.613190 136.525452,147.194901 
	C139.404205,148.146454 141.491333,146.098557 141.951324,142.933838 
	C142.265137,140.774811 142.539871,138.610138 142.677658,137.590622 
	C154.297241,149.049438 166.020264,160.610275 177.497147,171.928375 
	C162.969116,176.868729 149.668121,185.507248 136.644928,196.559265 
	C136.959518,193.324356 137.746994,190.944901 137.225861,188.898743 
	C136.751022,187.034409 135.178207,184.707367 133.514084,184.057571 
	C130.837463,183.012421 128.571930,184.723618 128.141479,187.685562 
	C126.992569,195.591263 125.954575,203.515717 125.047028,211.452682 
	C124.627243,215.123840 126.459839,217.204178 130.264236,217.062134 
	C138.079086,216.770325 145.916794,216.638153 153.683090,215.838181 
	C155.472412,215.653870 158.115784,213.236221 158.420456,211.504105 
	C158.944321,208.525772 156.636108,206.765045 153.386948,206.814011 
	C150.482269,206.857803 147.576416,206.823227 144.470230,206.823227 
	C147.236191,203.906937 149.716766,201.291550 152.719086,198.193878 
M855.560486,244.073669 
	C853.775513,228.284790 838.091003,218.061478 819.061829,225.319092 
	C817.911987,225.757645 816.576965,227.611923 816.559448,228.825195 
	C816.376587,241.481766 816.379944,254.142868 816.550720,266.799744 
	C816.567139,268.020172 817.782166,269.845245 818.903015,270.337677 
	C838.535828,278.963165 856.717285,266.358917 855.560486,244.073669 
M492.422302,272.022156 
	C494.334015,271.469177 496.375885,271.169769 498.113403,270.277557 
	C499.350037,269.642548 501.013977,268.237732 501.051575,267.127838 
	C501.308838,259.533203 501.186523,251.925705 501.186523,244.318573 
	C494.484802,244.318573 488.265778,244.318573 481.914124,244.318573 
	C482.016479,246.432846 482.102234,248.204346 482.204773,250.322067 
	C486.131012,250.322067 489.731506,250.322067 493.810669,250.322067 
	C493.810669,252.965103 493.810669,255.250153 493.810699,257.535217 
	C493.810760,266.149109 493.267578,266.676147 484.614594,266.458618 
	C474.589050,266.206573 467.350586,259.358459 466.572754,249.389664 
	C465.800903,239.497650 471.838135,230.864197 481.636658,229.763702 
	C487.201508,229.138702 493.020477,230.776062 498.738037,231.395981 
	C499.459167,225.239059 499.459167,225.239075 493.040314,223.929169 
	C491.899445,223.696350 490.765686,223.418335 489.616638,223.237152 
	C470.014679,220.145905 454.658875,236.777542 459.996368,255.308624 
	C463.650757,267.996155 476.164825,274.660889 492.422302,272.022156 
M720.367310,265.006866 
	C727.695068,274.162262 739.056152,275.938843 751.012512,269.686310 
	C751.012512,253.808594 751.015564,237.843674 750.997070,221.878769 
	C750.996521,221.415512 750.768188,220.952499 750.627747,220.420044 
	C748.317566,220.420044 746.097961,220.420044 743.373779,220.420044 
	C743.373779,225.943512 743.373779,231.197952 743.373779,236.711380 
	C734.195801,235.299393 725.631226,235.081955 720.198975,243.566132 
	C715.914673,250.257462 716.101074,257.393494 720.367310,265.006866 
M923.924011,237.236038 
	C917.143188,235.001221 910.425781,235.781342 903.910461,238.124573 
	C902.573364,238.605469 900.970764,240.737762 900.952026,242.128555 
	C900.743774,257.585510 900.815613,273.046356 900.848267,288.506042 
	C900.849915,289.263123 901.188477,290.019470 901.312561,290.536377 
	C903.736023,290.536377 905.816223,290.536377 908.345459,290.536377 
	C908.345459,284.493500 908.345459,278.751923 908.345459,273.025970 
	C923.979675,273.211182 931.437744,269.206390 933.890991,259.563812 
	C936.244934,250.311188 932.753052,242.068680 923.924011,237.236038 
M1038.087769,236.114410 
	C1037.258057,236.073196 1036.428589,235.999924 1035.598755,235.995575 
	C1023.756531,235.933426 1016.493225,242.808105 1016.475647,254.084747 
	C1016.458435,265.131378 1024.462769,273.202271 1035.707153,273.105682 
	C1039.144531,273.076202 1042.575684,272.167328 1046.007202,271.644470 
	C1049.401001,271.127441 1050.536865,269.264801 1050.268555,265.779449 
	C1049.912476,261.152679 1050.180786,256.477814 1050.180786,251.823639 
	C1050.180786,241.401260 1050.180786,230.978882 1050.180786,220.493240 
	C1047.445435,220.493240 1045.245361,220.493240 1042.718994,220.493240 
	C1042.718994,226.105347 1042.718994,231.381760 1042.718994,236.857086 
	C1041.229614,236.601837 1040.098389,236.407944 1038.087769,236.114410 
M543.842712,329.172485 
	C543.842712,327.591095 543.842712,326.009705 543.842712,324.032654 
	C537.083801,324.032654 530.989075,324.032654 524.776672,324.032654 
	C524.776672,319.552155 524.776672,315.480560 524.776672,310.924561 
	C531.225464,310.924561 537.481506,310.924561 543.646851,310.924561 
	C543.646851,308.660217 543.646851,306.884888 543.646851,305.051514 
	C534.677795,305.051514 525.936279,305.051514 517.248535,305.051514 
	C517.248535,320.718719 517.248535,336.123291 517.248535,351.514923 
	C526.242554,351.514923 534.953491,351.514923 543.603577,351.514923 
	C543.603577,349.390656 543.603577,347.627258 543.603577,345.405884 
	C537.258850,345.405884 531.170105,345.405884 524.925781,345.405884 
	C524.925781,340.245453 524.925781,335.555328 524.925781,330.889923 
	C531.378479,330.582184 537.472290,330.291565 543.842712,329.172485 
M627.455505,317.961731 
	C626.858521,319.990936 626.261475,322.020142 625.594971,324.285645 
	C630.521851,323.637054 634.559570,322.747559 638.614319,322.661713 
	C643.750732,322.553040 645.390991,325.068176 644.456726,329.431854 
	C638.814270,330.788483 633.403442,331.646637 628.328125,333.449402 
	C624.247742,334.898773 622.332275,338.632904 622.491150,343.021149 
	C622.652710,347.482056 625.188965,350.457092 629.236084,352.020447 
	C636.740967,354.919556 643.947937,353.583618 650.769531,349.853821 
	C651.738464,349.324036 652.448853,347.482422 652.484131,346.225739 
	C652.656738,340.074371 652.705750,333.910950 652.516357,327.760468 
	C652.336731,321.925842 649.284302,317.647797 643.465210,316.923004 
	C638.510742,316.305969 633.339600,317.428986 627.455505,317.961731 
M742.142273,346.502228 
	C748.278381,335.579346 745.087036,321.984833 735.352051,317.577057 
	C726.714722,313.666290 715.985535,316.672241 711.659668,324.214813 
	C706.821045,332.651184 709.140259,345.072723 716.536682,350.336121 
	C724.111267,355.726379 735.379089,354.287689 742.142273,346.502228 
M639.982361,272.963928 
	C650.580566,270.009064 655.493835,261.990051 653.464050,250.960297 
	C651.480103,240.179092 644.292969,234.888138 633.042603,235.926620 
	C623.621033,236.796295 617.796326,243.775391 617.811218,254.176743 
	C617.829773,267.123413 625.264160,273.709778 639.982361,272.963928 
M971.514099,250.141129 
	C971.534180,243.752792 968.365417,239.399628 962.630615,237.039658 
	C953.370850,233.229095 942.768494,238.583282 940.066406,248.235138 
	C935.472900,264.643311 946.850281,276.015167 964.190430,272.708496 
	C969.127686,271.766968 970.671692,269.761139 969.022583,265.130615 
	C953.013000,268.143524 946.947021,265.928711 947.541626,257.182861 
	C952.675293,257.182861 957.824707,257.305237 962.965271,257.144287 
	C967.103455,257.014740 970.385071,255.414963 971.514099,250.141129 
M864.072021,243.704529 
	C859.862183,251.741379 859.749573,259.802765 865.210083,267.138641 
	C870.536987,274.294891 878.390198,273.562256 886.182068,272.662201 
	C891.211853,272.081207 892.681213,269.762299 891.017578,265.128540 
	C875.045166,268.158569 868.918884,265.920044 869.539856,257.344391 
	C869.702026,257.308258 869.864075,257.241302 870.026428,257.240479 
	C874.345642,257.218933 878.665649,257.144409 882.983765,257.205383 
	C887.178711,257.264587 891.070984,256.666595 892.971741,252.310913 
	C894.604370,248.570053 892.748413,243.017181 889.053406,239.758682 
	C881.958313,233.501602 871.172363,234.965134 864.072021,243.704529 
M1089.161987,251.621658 
	C1089.874268,244.505508 1086.636353,239.182968 1080.192017,236.876785 
	C1070.870972,233.541122 1060.739258,238.731186 1058.071655,248.208008 
	C1053.456543,264.603668 1064.834229,276.008575 1082.163452,272.716675 
	C1087.087891,271.781189 1088.652832,269.775391 1087.041382,265.140961 
	C1070.885620,268.071198 1065.032593,265.939148 1065.511719,257.186249 
	C1070.480957,257.186249 1075.551392,257.756104 1080.405884,256.977875 
	C1083.437622,256.491882 1086.143311,253.972610 1089.161987,251.621658 
M946.631104,315.984314 
	C939.171692,316.465942 933.392334,319.595673 931.000732,326.995087 
	C928.500793,334.729553 929.098511,342.286407 934.933777,348.455597 
	C940.328918,354.159393 947.327759,354.565674 954.390381,352.559235 
	C962.509094,350.252808 967.059814,341.639069 965.662903,332.162109 
	C964.121643,321.705322 958.139221,316.374207 946.631104,315.984314 
M1212.646118,269.963440 
	C1213.383667,268.826233 1214.722168,267.708130 1214.758911,266.548706 
	C1214.964722,260.066742 1215.057739,253.566559 1214.795044,247.088608 
	C1214.554932,241.169144 1209.917480,236.319565 1203.865967,236.151794 
	C1198.814087,236.011765 1193.732056,236.957153 1188.824707,237.407074 
	C1188.824707,240.211517 1188.824707,242.087265 1188.824707,244.019440 
	C1205.008667,241.072678 1207.282471,241.820175 1206.818237,249.242722 
	C1201.560425,250.425751 1196.321289,251.198868 1191.369019,252.838638 
	C1186.867798,254.329102 1184.569824,257.980743 1184.814941,262.913849 
	C1185.064697,267.943268 1188.132812,270.714081 1192.574097,272.144867 
	C1199.250732,274.295746 1205.687988,273.260742 1212.646118,269.963440 
M758.734924,260.437256 
	C761.956299,270.998840 769.769592,275.045258 782.414001,272.700287 
	C788.777893,271.520111 788.823792,271.452332 787.615479,265.024170 
	C772.256958,268.508118 766.648865,266.565582 766.056091,257.180664 
	C771.195251,257.180664 776.319275,257.307373 781.434570,257.150391 
	C788.762939,256.925507 792.165588,251.565430 789.306091,244.800873 
	C787.027527,239.410309 782.758911,236.512894 777.006470,236.036499 
	C764.070312,234.965164 756.205261,245.062836 758.734924,260.437256 
M529.291565,273.038055 
	C538.727905,271.989502 538.727905,271.989502 537.712280,265.143738 
	C521.548950,268.037018 515.796387,265.950134 516.321655,257.183289 
	C520.791077,257.183289 525.275146,257.106995 529.755432,257.205414 
	C533.993103,257.298492 538.097839,256.644348 539.681885,252.251633 
	C541.351624,247.621521 539.608826,243.387573 536.108093,240.059265 
	C527.775452,232.137009 512.950317,235.982208 509.174957,247.144089 
	C505.246063,258.760071 510.202637,274.893219 529.291565,273.038055 
M673.722595,242.620758 
	C681.086487,241.668198 683.939636,244.118515 683.964783,251.470871 
	C683.987366,258.065918 683.969482,264.661133 683.969482,271.204559 
	C686.794922,271.204559 689.020569,271.204559 691.566833,271.204559 
	C691.566833,263.874969 691.698181,256.902069 691.534546,249.936111 
	C691.315002,240.588821 684.631348,234.736877 675.393860,236.148315 
	C670.360046,236.917435 665.474060,238.653702 660.772461,239.887863 
	C660.772461,250.746643 660.772461,260.991943 660.772461,271.240356 
	C663.360840,271.240356 665.604065,271.240356 668.030518,271.240356 
	C668.030518,263.593414 668.261353,256.262177 667.936768,248.955582 
	C667.764648,245.082397 668.835693,242.980881 673.722595,242.620758 
M1104.030396,266.298462 
	C1104.030396,258.992584 1104.030396,251.686722 1104.030396,244.518127 
	C1115.526978,239.638016 1119.969482,242.425964 1119.969604,254.187607 
	C1119.969604,259.928131 1119.969604,265.668640 1119.969604,271.125427 
	C1122.972168,271.125427 1125.183838,271.125427 1127.559448,271.125427 
	C1127.559448,263.531647 1127.760864,256.372009 1127.506958,249.228531 
	C1127.212036,240.931686 1121.470581,235.437012 1113.182495,236.120392 
	C1108.134766,236.536575 1103.184570,238.338562 1098.251831,239.734482 
	C1097.480103,239.952881 1096.527100,241.319611 1096.516357,242.166260 
	C1096.393921,251.779282 1096.438843,261.394409 1096.438843,271.284485 
	C1099.136963,271.284485 1101.368408,271.284485 1104.030396,271.284485 
	C1104.030396,269.820892 1104.030396,268.531647 1104.030396,266.298462 
M994.532471,235.973923 
	C990.022217,237.078598 985.469482,238.043488 981.032532,239.389648 
	C979.969482,239.712189 978.569031,241.289246 978.548889,242.313507 
	C978.359375,251.916077 978.436401,261.523926 978.436401,271.286621 
	C981.254578,271.286621 983.493164,271.286621 986.030579,271.286621 
	C986.030579,263.203705 985.994019,255.398270 986.068726,247.593887 
	C986.080322,246.384567 986.441650,244.204971 986.911560,244.128128 
	C990.572754,243.529510 994.611206,242.351501 997.890137,243.387436 
	C999.848572,244.006165 1001.564331,248.216248 1001.788452,250.943527 
	C1002.340942,257.665955 1001.969482,264.464294 1001.969482,271.218201 
	C1004.775574,271.218201 1007.000671,271.218201 1009.567383,271.218201 
	C1009.567383,264.070831 1009.647522,257.268036 1009.547791,250.467865 
	C1009.412659,241.252869 1004.879395,236.674484 994.532471,235.973923 
M800.972351,344.414734 
	C800.972351,346.846375 800.972351,349.277985 800.972351,351.691406 
	C803.757935,351.691406 805.880188,351.691406 808.621155,351.691406 
	C808.621155,344.646484 808.621155,337.765991 808.621155,330.466797 
	C814.663391,330.466797 820.092224,330.466797 825.492065,330.466797 
	C825.492065,328.146179 825.492065,326.269928 825.492065,323.999207 
	C819.693665,323.999207 814.267151,323.999207 808.791382,323.999207 
	C808.791382,319.522064 808.791382,315.451172 808.791382,310.935974 
	C814.753967,310.935974 820.501526,310.935974 826.344666,310.935974 
	C826.344666,308.725403 826.344666,306.965790 826.344666,305.000702 
	C817.861938,305.000702 809.593689,305.000702 800.972351,305.000702 
	C800.972351,317.879395 800.972351,330.658813 800.972351,344.414734 
M751.430115,352.027069 
	C757.135132,352.045013 763.030396,352.918854 768.463013,351.711304 
	C771.087036,351.128052 773.755249,346.927673 774.759888,343.831757 
	C776.041199,339.882874 773.533142,336.427612 769.928772,334.351257 
	C766.914368,332.614777 763.567078,331.427917 760.661133,329.544189 
	C759.392090,328.721527 758.215820,326.761871 758.226440,325.327606 
	C758.232971,324.452362 760.569092,322.882751 761.875549,322.865265 
	C765.456421,322.817413 769.046082,323.425385 772.812073,323.791199 
	C772.812073,322.172058 772.812073,320.215729 772.812073,317.005035 
	C767.785767,317.005035 762.695923,316.459167 757.786499,317.166199 
	C753.318054,317.809662 750.531372,321.223114 750.200317,325.899841 
	C749.894165,330.224854 752.350708,333.060394 756.050659,334.941498 
	C758.566284,336.220459 761.324585,337.175903 763.531006,338.857727 
	C765.129395,340.076050 766.000549,342.248383 767.196045,343.995300 
	C765.275085,345.039459 763.362671,346.927368 761.431396,346.946747 
	C757.759399,346.983673 754.076721,345.952057 749.978943,345.297150 
	C750.214355,347.478119 750.441101,349.578339 751.430115,352.027069 
M561.684875,353.539398 
	C563.671997,353.370728 565.704956,353.412598 567.637085,352.991608 
	C572.330017,351.969055 576.088989,349.614594 576.892517,344.467682 
	C577.691223,339.351868 575.133667,335.876831 570.698975,333.628723 
	C568.183289,332.353455 565.454773,331.399628 563.170593,329.802612 
	C561.763184,328.818665 561.012390,326.895660 559.966797,325.394318 
	C561.573853,324.453522 563.164246,322.765717 564.791443,322.729340 
	C568.049866,322.656555 571.328613,323.487335 574.794678,323.972473 
	C574.794678,322.237671 574.794678,320.283386 574.794678,318.131042 
	C569.626038,316.022827 564.313049,315.315063 558.891296,317.307251 
	C554.968872,318.748505 552.519592,321.607849 552.194336,325.827148 
	C551.878113,329.928925 554.073059,332.788910 557.546875,334.677551 
	C560.316284,336.183167 563.375183,337.245270 565.912109,339.055664 
	C567.410889,340.125153 568.144226,342.267334 569.221741,343.927124 
	C567.482971,344.985992 565.748657,346.916901 564.004578,346.925720 
	C560.142029,346.945282 556.274597,345.999298 552.414795,345.447906 
	C551.811218,352.270294 551.811279,352.269623 558.373779,353.121490 
	C559.199219,353.228607 560.023193,353.346649 561.684875,353.539398 
M855.646606,317.922241 
	C847.852905,323.234039 848.335938,330.878571 856.745117,335.240845 
	C859.096191,336.460419 861.666565,337.384979 863.744202,338.961578 
	C865.260925,340.112549 866.134949,342.110504 867.295532,343.730896 
	C865.441956,344.858978 863.607544,346.884949 861.730652,346.925079 
	C858.015747,347.004547 854.277344,345.986694 849.286072,345.231415 
	C850.346619,347.778534 851.046997,351.781189 852.244202,351.935791 
	C857.524292,352.617523 863.038208,352.779541 868.289429,351.972351 
	C872.248657,351.363770 874.676331,347.976501 874.990479,343.678955 
	C875.301453,339.426392 873.368225,336.284180 869.762878,334.249176 
	C866.884277,332.624390 863.712402,331.491119 860.939880,329.718628 
	C859.614807,328.871460 858.914124,327.047485 857.930664,325.665955 
	C859.453674,324.650116 860.950256,322.834229 862.505188,322.782806 
	C865.877136,322.671295 869.278992,323.461975 872.837830,323.904816 
	C872.837830,322.079987 872.837830,320.126007 872.837830,318.066559 
	C867.354919,316.072632 861.906616,315.215118 855.646606,317.922241 
M983.975708,338.520660 
	C985.308899,340.358978 986.642090,342.197327 987.975220,344.035706 
	C985.875183,345.068451 983.791321,346.908600 981.671387,346.951050 
	C978.198547,347.020691 974.702332,345.921692 971.199219,345.312683 
	C971.199219,347.494232 971.199219,349.615143 971.199219,352.605225 
	C976.962219,352.605225 982.585144,353.174744 988.026367,352.425385 
	C992.395569,351.823669 995.345337,348.449310 995.769897,343.759003 
	C996.172485,339.311035 993.961060,336.091431 990.130005,334.021881 
	C987.358643,332.524719 984.339355,331.441986 981.714050,329.737793 
	C980.383606,328.874054 979.680664,327.043915 978.693970,325.650665 
	C980.230957,324.641571 981.738892,322.844025 983.311035,322.785980 
	C986.684998,322.661499 990.092041,323.434418 993.602661,323.853882 
	C993.602661,321.904480 993.602661,319.997559 993.602661,318.033966 
	C987.730652,316.050934 981.822388,314.646454 976.568665,318.104431 
	C974.032410,319.773773 971.537964,323.344879 971.352295,326.205963 
	C971.182617,328.821991 973.709656,332.081635 975.867004,334.239014 
	C977.760437,336.132507 980.789062,336.890808 983.975708,338.520660 
M547.513794,251.888611 
	C551.221313,254.033676 555.070374,255.975067 558.575562,258.411285 
	C560.281738,259.597198 561.345520,261.707397 562.700134,263.399170 
	C560.681213,264.592133 558.699463,266.691071 556.635010,266.775909 
	C553.117981,266.920471 549.549011,265.799286 544.452942,264.952515 
	C545.754883,267.804626 546.537354,271.656982 547.744873,271.795135 
	C553.049133,272.402039 558.578857,272.540222 563.823792,271.651093 
	C567.481323,271.031067 569.838745,267.766571 570.170166,263.620209 
	C570.512207,259.342468 568.759155,256.151703 565.148438,254.079239 
	C562.138977,252.351837 558.846069,251.106094 555.895386,249.294159 
	C554.656921,248.533676 552.971069,246.492676 553.267151,245.689301 
	C553.775940,244.308853 555.651733,242.572113 557.002808,242.529053 
	C560.562866,242.415604 564.149292,243.131592 567.836975,243.529327 
	C569.323853,239.255753 567.977356,236.470154 562.851807,236.338837 
	C559.734619,236.258987 556.469116,236.006378 553.512878,236.770294 
	C546.098022,238.686325 543.821899,244.213867 547.513794,251.888611 
M1235.974243,272.986359 
	C1241.159302,271.833984 1245.486084,269.707214 1246.139160,263.658600 
	C1246.796509,257.571228 1242.849976,254.676315 1238.130249,252.378082 
	C1236.189575,251.433075 1233.999512,250.828369 1232.337891,249.535614 
	C1230.961060,248.464584 1230.193604,246.610580 1229.156250,245.103455 
	C1230.775269,244.136932 1232.379028,242.399307 1234.016357,242.367233 
	C1237.248291,242.303909 1240.498901,243.185242 1244.795654,243.835419 
	C1244.021973,241.420609 1243.858154,237.895996 1242.571533,237.422531 
	C1237.384888,235.513931 1231.869507,234.956390 1226.635620,237.836105 
	C1219.903320,241.540283 1219.595337,250.016998 1226.150269,253.994324 
	C1228.839111,255.625824 1231.949219,256.601685 1234.515259,258.383484 
	C1236.232666,259.576141 1237.329590,261.662781 1238.704102,263.349365 
	C1236.528320,264.559692 1234.401001,266.651031 1232.165527,266.773560 
	C1228.822998,266.956848 1225.404419,265.755005 1222.016968,265.142120 
	C1220.823853,271.572083 1221.088501,272.100159 1227.120605,272.863251 
	C1229.744141,273.195160 1232.432739,273.011993 1235.974243,272.986359 
M579.977539,261.301178 
	C579.995605,262.798950 579.834045,264.324921 580.064331,265.789337 
	C580.860352,270.852844 585.878967,273.723145 591.884583,273.105255 
	C597.086304,272.570068 597.530029,269.527069 596.531921,265.248749 
	C595.135437,265.726990 593.765503,266.248657 592.364319,266.664948 
	C589.563904,267.496979 587.648376,266.664581 587.596497,263.528748 
	C587.490356,257.117279 587.564758,250.702881 587.564758,243.766266 
	C591.027039,243.766266 593.914185,243.766266 596.500854,243.766266 
	C596.500854,241.479462 596.500854,239.737839 596.500854,237.576080 
	C593.382507,237.576080 590.627136,237.576080 587.382690,237.576080 
	C587.382690,233.893295 587.382690,230.637589 587.382690,227.476410 
	C584.632507,227.476410 582.401978,227.476410 579.769287,227.476410 
	C579.769287,231.069046 579.769287,234.324707 579.769287,237.627625 
	C577.422913,237.771927 575.486511,237.891022 573.494141,238.013550 
	C573.494141,240.150253 573.494141,242.014145 573.494141,244.167984 
	C575.787659,244.167984 577.722961,244.167984 579.977539,244.167984 
	C579.977539,249.757278 579.977539,255.054382 579.977539,261.301178 
M896.825073,338.640015 
	C899.628845,351.614594 911.104309,356.943665 924.657410,351.513458 
	C924.657410,349.761688 924.657410,347.987976 924.657410,345.749329 
	C917.544678,346.971558 910.009338,349.768127 905.563599,341.399963 
	C902.949768,336.479889 903.230835,331.325226 906.530945,326.803101 
	C911.372253,320.169037 918.081787,322.993256 924.718262,323.983612 
	C924.439331,321.286072 926.562134,318.258759 922.186890,317.064575 
	C906.860718,312.881439 895.386780,322.200134 896.825073,338.640015 
M1145.408081,264.122345 
	C1140.947388,259.177368 1140.560791,253.451050 1143.444824,247.904144 
	C1147.783203,239.560425 1155.476807,242.669922 1162.193848,243.615692 
	C1162.193848,241.300156 1162.193848,239.378662 1162.193848,237.545258 
	C1149.357788,234.541046 1141.584961,236.648270 1136.945435,244.209763 
	C1132.794067,250.975662 1133.295288,260.649933 1138.114136,266.769623 
	C1143.263672,273.309326 1151.985596,274.967438 1162.363770,271.289337 
	C1162.363770,269.569550 1162.363770,267.791077 1162.363770,267.254669 
	C1156.639404,266.343933 1151.311890,265.496338 1145.408081,264.122345 
M661.046021,344.205719 
	C666.881958,353.390717 676.123962,355.987427 686.810181,351.549774 
	C686.810181,349.599701 686.810181,347.747345 686.810181,345.795898 
	C680.271484,346.965668 673.753784,349.395538 669.032166,342.964294 
	C665.575500,338.256073 665.529541,332.861023 668.324402,327.906067 
	C672.800903,319.969788 680.189209,322.903625 687.397766,323.980164 
	C686.561157,321.173523 688.976013,317.903625 684.289062,316.985077 
	C676.344299,315.428101 668.839844,315.715851 663.288635,322.409241 
	C658.048462,328.727722 657.695007,335.989197 661.046021,344.205719 
M610.577026,246.607864 
	C610.577026,243.823212 610.577026,241.038559 610.577026,238.128815 
	C607.809021,238.128815 605.453003,238.128815 603.231079,238.128815 
	C603.231079,249.385941 603.231079,260.296295 603.231079,271.249573 
	C605.729492,271.249573 607.955933,271.249573 610.577026,271.249573 
	C610.577026,263.145935 610.577026,255.363327 610.577026,246.607864 
M883.541870,317.973907 
	C883.024170,318.444427 882.058289,318.911377 882.054504,319.386047 
	C881.968872,330.120087 881.988708,340.854950 881.988708,351.563019 
	C884.748901,351.563019 886.965820,351.563019 889.246887,351.563019 
	C889.246887,340.229187 889.246887,329.210266 889.246887,317.968506 
	C887.439514,317.968506 885.955261,317.968506 883.541870,317.973907 
M694.429382,346.262909 
	C694.429382,348.040466 694.429382,349.818054 694.429382,351.573914 
	C697.290466,351.573914 699.522095,351.573914 701.763672,351.573914 
	C701.763672,340.232849 701.763672,329.195068 701.763672,318.243774 
	C699.247192,318.243774 697.012268,318.243774 694.429382,318.243774 
	C694.429382,327.450287 694.429382,336.384308 694.429382,346.262909 
M1177.173340,251.504547 
	C1177.173340,247.070236 1177.173340,242.635925 1177.173340,238.114227 
	C1174.508423,238.114227 1172.303345,238.114227 1170.045898,238.114227 
	C1170.045898,249.284561 1170.045898,260.166077 1170.045898,271.201263 
	C1172.488403,271.201263 1174.706299,271.201263 1177.173340,271.201263 
	C1177.173340,264.760040 1177.173340,258.631073 1177.173340,251.504547 
M835.635071,351.828613 
	C837.388245,351.828613 839.141418,351.828613 840.847900,351.828613 
	C840.847900,340.194061 840.847900,329.184509 840.847900,318.196564 
	C838.428345,318.196564 836.333801,318.196564 833.829529,318.196564 
	C833.829529,327.129639 833.768188,335.871185 833.869629,344.610840 
	C833.897339,346.997559 834.413818,349.378662 835.635071,351.828613 
M637.646729,220.807129 
	C636.006653,223.645309 634.366577,226.483490 632.524292,229.671677 
	C639.929749,230.050644 642.530090,227.958328 644.748291,220.503540 
	C642.585510,220.503540 640.473755,220.503540 637.646729,220.807129 
M846.642456,301.053406 
	C838.631287,300.426208 837.491150,301.292328 835.130066,309.783844 
	C839.336121,310.878784 842.490051,309.779053 844.336121,305.572632 
	C844.923767,304.233521 845.944641,303.084564 846.642456,301.053406 
M1175.884155,220.403061 
	C1173.967896,220.403061 1172.051758,220.403061 1170.121826,220.403061 
	C1170.121826,223.086487 1170.121826,225.266190 1170.121826,227.428436 
	C1172.588989,227.428436 1174.681396,227.428436 1177.411133,227.428436 
	C1177.139160,224.983871 1176.895508,222.793320 1175.884155,220.403061 
M608.136292,220.338593 
	C606.519409,220.338593 604.902527,220.338593 603.305908,220.338593 
	C603.305908,223.061417 603.305908,225.262253 603.305908,227.266663 
	C605.928589,227.266663 608.158386,227.266663 611.537170,227.266663 
	C610.508179,224.501846 609.738037,222.432755 608.136292,220.338593 
M885.420471,307.887909 
	C891.927673,308.511871 889.024048,304.032104 889.460632,300.964294 
	C886.822998,300.964294 884.572571,300.964294 881.789978,300.964294 
	C883.270325,303.302521 879.147400,307.151367 885.420471,307.887909 
M698.587341,307.887909 
	C705.060120,308.007416 700.859009,303.461029 702.078430,300.998840 
	C699.317444,300.998840 697.070618,300.998840 694.855103,300.998840 
	C694.045410,307.173492 694.045410,307.173492 698.587341,307.887909 
z"/>
<path fill="#020202" opacity="1.000000" stroke="none" 
	d="
M570.531372,0.999997 
	C575.804749,2.562554 580.672302,3.955953 585.404358,5.714200 
	C626.793823,21.093021 653.032471,62.339031 648.744446,105.166267 
	C644.160034,150.954010 610.937927,186.058685 565.851929,192.755997 
	C513.400024,200.547516 464.050690,163.379471 456.834290,110.648087 
	C449.964661,60.450577 480.718689,14.775040 529.722595,2.417040 
	C531.009338,2.092534 532.337402,1.932067 533.823120,1.347554 
	C546.020874,1.000000 558.041809,1.000000 570.531372,0.999997 
M494.721069,80.376144 
	C487.864471,106.702217 498.136017,134.192841 520.036804,148.130783 
	C557.008545,171.660126 604.695190,149.557449 611.251770,105.852875 
	C616.024353,74.040100 595.777893,43.481285 565.644043,37.015190 
	C533.738159,30.168856 504.096313,48.005650 494.721069,80.376144 
z"/>
<path fill="#020202" opacity="1.000000" stroke="none" 
	d="
M1055.531372,0.999999 
	C1066.242188,5.036707 1077.087646,7.990824 1086.618652,13.303514 
	C1121.906860,32.973640 1140.886719,75.935898 1132.725830,115.643661 
	C1124.297241,156.654633 1091.213989,187.775665 1050.666626,192.835892 
	C997.959229,199.413666 951.531738,164.791290 942.320007,112.038628 
	C933.553772,61.836994 969.001648,10.658794 1018.862549,1.364043 
	C1031.020874,1.000000 1043.041870,1.000000 1055.531372,0.999999 
M1054.503052,155.176926 
	C1082.317017,146.842773 1099.228149,121.293922 1097.154175,90.741707 
	C1094.539307,52.222897 1054.914185,26.025017 1018.448364,38.705910 
	C988.135803,49.247032 971.264709,82.388123 980.309204,113.801003 
	C989.334106,145.145782 1020.388672,164.175339 1054.503052,155.176926 
z"/>
<path fill="#020202" opacity="1.000000" stroke="none" 
	d="
M1249.531372,1.000000 
	C1261.329590,4.704061 1272.533447,8.733635 1282.027588,16.224640 
	C1285.798950,19.200254 1289.327881,22.526413 1292.691895,25.962420 
	C1296.063843,29.406540 1295.695679,33.322170 1292.564575,36.665527 
	C1288.133057,41.397747 1283.420532,45.869907 1278.767944,50.391285 
	C1275.447388,53.618076 1272.226196,53.262714 1268.565552,50.507862 
	C1262.479248,45.927612 1256.393799,41.201202 1249.758789,37.528831 
	C1239.697021,31.959946 1228.810059,31.335186 1217.897339,35.086430 
	C1214.972778,36.091770 1212.062256,37.658600 1209.674805,39.614132 
	C1200.358032,47.245480 1200.596680,59.033520 1211.021484,64.866280 
	C1219.473755,69.595314 1229.030640,72.338272 1238.064941,76.041519 
	C1251.393433,81.504982 1265.315918,85.898888 1277.882568,92.766495 
	C1309.704468,110.156960 1306.723022,144.910126 1292.563965,165.036911 
	C1281.679443,180.509079 1265.984375,188.542923 1247.864136,191.608932 
	C1214.082031,197.324966 1185.485474,187.046143 1162.232422,161.991760 
	C1156.896729,156.242889 1157.082153,153.454422 1162.643311,148.022141 
	C1166.568604,144.187805 1170.627319,140.447891 1174.934570,137.057037 
	C1180.797729,132.441391 1182.136353,132.768616 1187.653198,137.830917 
	C1196.566895,146.010178 1206.617065,152.349945 1218.089600,156.398376 
	C1227.612061,159.758682 1237.093628,159.622360 1246.378662,155.943634 
	C1250.017944,154.501724 1253.644287,152.435196 1256.549805,149.839600 
	C1266.761963,140.716797 1265.996704,126.361877 1254.192017,119.598282 
	C1246.099976,114.961914 1236.914551,112.055656 1227.973633,109.119431 
	C1212.779785,104.129669 1197.786621,98.948219 1184.476440,89.690842 
	C1156.338135,70.120438 1159.742432,29.068142 1185.308594,12.366965 
	C1192.405029,7.731238 1200.874878,5.198183 1208.857422,1.350238 
	C1222.354248,1.000000 1235.708496,1.000000 1249.531372,1.000000 
z"/>
<path fill="#080808" opacity="1.000000" stroke="none" 
	d="
M584.437500,369.000000 
	C583.938171,353.391510 583.797913,337.782257 583.953186,322.175934 
	C583.966675,320.825287 585.673218,318.833649 587.046997,318.293396 
	C589.781799,317.217896 592.808716,316.769775 595.756653,316.371704 
	C608.132324,314.700592 616.977661,321.778900 617.530823,333.676758 
	C618.072449,345.326233 609.082764,354.041229 597.030396,353.513672 
	C595.222961,353.434601 593.422791,353.189575 591.168457,352.979248 
	C591.168457,358.175995 591.168457,363.127533 591.084229,368.539520 
	C588.958313,369.000000 586.916687,369.000000 584.437500,369.000000 
M592.043030,323.349152 
	C591.757935,330.397675 591.387085,337.445282 591.308716,344.496124 
	C591.300049,345.276306 592.840393,346.499390 593.869385,346.794067 
	C599.218140,348.325928 604.000061,346.662445 607.174194,342.435486 
	C610.371704,338.177429 610.721802,332.048279 608.017273,327.409943 
	C605.226685,322.624146 600.756531,322.155640 595.892151,322.721222 
	C594.903381,322.836182 593.915527,322.959473 592.043030,323.349152 
z"/>
<path fill="#090909" opacity="1.000000" stroke="none" 
	d="
M465.437500,369.000000 
	C467.282806,363.125671 471.570709,357.158264 471.303497,351.402313 
	C471.017059,345.232422 466.460388,339.254425 463.737579,333.206055 
	C461.506531,328.250092 459.231781,323.313782 457.030365,318.487030 
	C463.129791,316.461700 466.087585,318.950165 467.971741,324.422668 
	C469.949707,330.167664 472.771729,335.622070 475.593781,342.042877 
	C477.479584,337.334503 479.014404,333.502625 480.549103,329.670715 
	C482.086456,325.832153 483.623657,321.993530 485.167877,318.137665 
	C487.483826,318.137665 489.623993,318.137665 492.213470,318.137665 
	C485.473724,335.055695 478.848022,351.687469 472.111145,368.659607 
	C469.958344,369.000000 467.916656,369.000000 465.437500,369.000000 
z"/>
<path fill="#030303" opacity="1.000000" stroke="none" 
	d="
M806.926147,122.930885 
	C798.661499,129.112457 796.039368,136.842743 796.789856,146.862152 
	C797.695862,158.957870 797.024414,171.173264 796.996033,183.336777 
	C796.981812,189.422440 795.537842,190.803345 789.216187,190.831055 
	C781.884888,190.863190 774.553284,190.851837 767.221863,190.834656 
	C760.548035,190.819031 759.490356,189.755920 759.489136,182.943710 
	C759.480225,133.456329 759.484253,83.968941 759.484314,34.481560 
	C759.484314,26.150351 759.433960,17.818726 759.502747,9.488084 
	C759.547424,4.081045 761.019409,2.562707 766.314392,2.505862 
	C773.978210,2.423586 781.644104,2.429817 789.308105,2.502697 
	C795.024658,2.557059 796.991211,4.616732 796.996277,10.441815 
	C797.016235,33.269310 797.004456,56.096832 797.004456,78.924347 
	C797.004456,79.852997 797.004517,80.781654 797.004517,82.906525 
	C809.009766,69.884247 820.239685,57.739689 831.428040,45.556911 
	C843.811218,32.073257 856.123596,18.524353 868.572449,5.101873 
	C869.713867,3.871120 871.611694,2.637361 873.175842,2.614676 
	C885.667603,2.433506 898.163696,2.534582 910.658203,2.593800 
	C911.280151,2.596747 911.900146,3.012931 913.947021,3.750629 
	C890.757019,30.904858 867.965881,57.592075 844.830505,84.682419 
	C871.561157,119.416809 898.323975,154.193069 925.174194,189.082825 
	C923.584656,190.181168 923.189331,190.692703 922.791016,190.695023 
	C909.629883,190.771896 896.461548,191.024429 883.313904,190.616638 
	C881.096008,190.547836 878.490479,187.976227 876.870361,185.924301 
	C857.785889,161.752838 838.855530,137.459656 819.880859,113.201492 
	C819.472168,112.679008 819.018799,112.191490 818.344177,111.405617 
	C814.582764,115.203262 810.880066,118.941658 806.926147,122.930885 
z"/>
<path fill="#030303" opacity="1.000000" stroke="none" 
	d="
M681.996704,133.000000 
	C681.996704,91.869545 681.993958,51.239082 681.999268,10.608625 
	C682.000183,3.532936 683.026367,2.503056 690.052979,2.489714 
	C697.213257,2.476119 704.374390,2.422886 711.533630,2.508365 
	C716.818359,2.571464 718.809509,4.497559 718.812927,9.792633 
	C718.850647,67.740967 718.850159,125.689346 718.815247,183.637680 
	C718.811890,189.208588 717.165283,190.782227 711.673828,190.822693 
	C704.014404,190.879150 696.353882,190.882233 688.694519,190.821442 
	C683.301392,190.778641 682.014587,189.443542 682.006104,183.955017 
	C681.980225,167.136719 681.996704,150.318344 681.996704,133.000000 
z"/>
<path fill="#8D1B19" opacity="1.000000" stroke="none" 
	d="
M295.035950,122.982903 
	C262.976501,116.203049 249.993134,80.401649 266.660950,54.981571 
	C279.728241,35.052715 306.164917,29.000589 326.579590,41.152920 
	C346.809265,53.195122 354.119568,79.002441 343.229584,99.970833 
	C342.463501,101.445915 341.607971,102.874565 340.472473,104.839844 
	C339.243256,106.327400 338.245728,107.231239 337.441589,108.282936 
	C328.418274,120.084290 309.305054,126.725716 295.035950,122.982903 
z"/>
<path fill="#8D1B19" opacity="1.000000" stroke="none" 
	d="
M89.103996,243.016006 
	C93.055183,244.595657 97.142151,245.903854 100.934654,247.800766 
	C120.015404,257.344421 129.376495,279.004272 123.518883,299.678040 
	C117.927773,319.411163 98.436485,333.242828 78.247383,331.804169 
	C56.432331,330.249664 39.496998,314.125305 36.706028,292.746094 
	C35.230495,281.443329 38.627792,271.487366 44.064896,261.366394 
	C47.866943,257.624847 51.127384,253.987198 54.964264,251.121292 
	C65.107025,243.545319 76.856148,242.074982 89.103996,243.016006 
z"/>
<path fill="#9E4444" opacity="1.000000" stroke="none" 
	d="
M89.380219,242.814667 
	C76.856148,242.074982 65.107025,243.545319 54.964264,251.121292 
	C51.127384,253.987198 47.866943,257.624847 44.001221,261.018646 
	C27.645863,259.522064 12.028148,244.023239 8.990839,226.617691 
	C6.007209,209.519699 11.253808,195.272980 24.537556,183.330658 
	C36.847401,173.868362 50.295418,171.821198 64.368004,175.259583 
	C70.122742,176.665649 75.313057,180.381775 80.760147,183.046967 
	C87.097069,189.491348 92.653000,196.388275 95.175621,205.353699 
	C98.915474,218.645187 96.881401,230.991302 89.380219,242.814667 
z"/>
<path fill="#9E4444" opacity="1.000000" stroke="none" 
	d="
M295.078003,123.348801 
	C309.305054,126.725716 328.418274,120.084290 337.441589,108.282936 
	C338.245728,107.231239 339.243256,106.327400 340.436035,105.211060 
	C372.864838,111.843102 386.162231,147.902466 368.815155,173.618866 
	C366.428955,177.156326 363.163971,180.100937 359.894531,183.758484 
	C358.312225,184.816223 357.088318,185.353317 355.978424,186.067596 
	C345.734955,192.659912 334.531097,194.927689 322.830078,191.858093 
	C316.266968,190.136353 310.163208,186.663544 303.852509,183.979675 
	C303.531311,183.418579 303.334930,182.709702 302.870880,182.317749 
	C286.532074,168.517014 282.398010,143.168793 295.078003,123.348801 
z"/>
<path fill="#BA8181" opacity="1.000000" stroke="none" 
	d="
M43.952854,104.977638 
	C41.530174,97.640724 37.899452,90.462189 36.912907,82.937004 
	C34.033764,60.975468 49.635567,40.658321 70.732422,36.068928 
	C90.795563,31.704401 109.622704,40.197651 119.598740,57.716835 
	C129.152679,74.494766 126.466118,95.706100 112.701317,110.369316 
	C106.501984,116.973251 98.647675,120.876892 89.361488,122.795120 
	C77.167488,108.304764 62.566101,101.525795 43.952854,104.977638 
z"/>
<path fill="#BA8181" opacity="1.000000" stroke="none" 
	d="
M340.717255,261.921692 
	C347.523193,273.245636 349.927979,285.302612 346.949371,298.322479 
	C342.349762,318.427948 321.178375,333.799652 300.699921,331.827057 
	C277.415588,329.584137 259.953308,311.408203 259.690308,289.141479 
	C259.420502,266.299377 272.316986,249.452515 294.937256,244.140915 
	C302.583710,251.395096 309.609192,258.206757 319.752808,260.933167 
	C326.777985,262.821381 333.689423,262.501251 340.717255,261.921692 
z"/>
<path fill="#B76B6B" opacity="1.000000" stroke="none" 
	d="
M43.585258,105.057869 
	C62.566101,101.525795 77.167488,108.304764 88.995453,122.886124 
	C103.782814,145.401840 96.254837,170.321503 81.025146,182.823181 
	C75.313057,180.381775 70.122742,176.665649 64.368004,175.259583 
	C50.295418,171.821198 36.847401,173.868362 24.673473,183.009537 
	C10.755288,171.188370 5.299250,156.234177 9.344877,138.718384 
	C13.493416,120.757019 25.364351,109.714851 43.585258,105.057869 
z"/>
<path fill="#B76B6B" opacity="1.000000" stroke="none" 
	d="
M341.067566,261.768250 
	C333.689423,262.501251 326.777985,262.821381 319.752808,260.933167 
	C309.609192,258.206757 302.583710,251.395096 295.327393,244.144363 
	C294.552460,242.800491 294.204254,241.524261 293.586060,240.395981 
	C282.905670,220.903564 286.653442,199.004227 303.544189,184.093475 
	C310.163208,186.663544 316.266968,190.136353 322.830078,191.858093 
	C334.531097,194.927689 345.734955,192.659912 355.978424,186.067596 
	C357.088318,185.353317 358.312225,184.816223 359.821838,184.078430 
	C373.653839,194.739441 378.418274,209.135620 375.716949,225.610825 
	C372.949585,242.488800 362.715729,253.938751 346.641602,259.997314 
	C344.938995,260.639008 343.160950,261.080475 341.067566,261.768250 
z"/>
<path fill="#331110" opacity="1.000000" stroke="none" 
	d="
M152.458221,198.435028 
	C149.716766,201.291550 147.236191,203.906937 144.470230,206.823227 
	C147.576416,206.823227 150.482269,206.857803 153.386948,206.814011 
	C156.636108,206.765045 158.944321,208.525772 158.420456,211.504105 
	C158.115784,213.236221 155.472412,215.653870 153.683090,215.838181 
	C145.916794,216.638153 138.079086,216.770325 130.264236,217.062134 
	C126.459839,217.204178 124.627243,215.123840 125.047028,211.452682 
	C125.954575,203.515717 126.992569,195.591263 128.141479,187.685562 
	C128.571930,184.723618 130.837463,183.012421 133.514084,184.057571 
	C135.178207,184.707367 136.751022,187.034409 137.225861,188.898743 
	C137.746994,190.944901 136.959518,193.324356 136.644928,196.559265 
	C149.668121,185.507248 162.969116,176.868729 177.497147,171.928375 
	C166.020264,160.610275 154.297241,149.049438 142.677658,137.590622 
	C142.539871,138.610138 142.265137,140.774811 141.951324,142.933838 
	C141.491333,146.098557 139.404205,148.146454 136.525452,147.194901 
	C134.765671,146.613190 132.492462,143.760941 132.586594,142.045715 
	C133.032700,133.917114 134.059097,125.806847 135.205460,117.736450 
	C135.704453,114.223450 138.072266,112.620697 141.762573,113.691475 
	C149.415436,115.912048 157.091370,118.055939 164.717224,120.365372 
	C167.674149,121.260841 169.511597,123.669861 168.009338,126.427505 
	C167.116318,128.066788 164.256775,129.455017 162.263824,129.478729 
	C159.420334,129.512512 156.560730,128.191635 152.657028,127.175903 
	C163.066040,145.294281 175.626587,159.721954 192.394821,169.743881 
	C211.249069,163.657547 227.294296,153.131241 241.417816,138.009094 
	C237.814117,138.009094 234.937820,137.993759 232.061752,138.013184 
	C228.857071,138.034805 226.482742,136.409027 227.091049,133.322754 
	C227.434052,131.582550 229.992432,129.181564 231.746475,129.005341 
	C239.679642,128.208282 247.679977,128.044296 255.660141,127.767097 
	C259.024170,127.650238 260.700806,129.741653 260.368530,132.837692 
	C259.498505,140.944611 258.574097,149.067230 257.043304,157.063339 
	C256.740784,158.643524 253.643188,160.623383 251.808701,160.650269 
	C250.563843,160.668533 248.842865,157.758728 248.133606,155.860031 
	C247.512131,154.196350 248.003860,152.116837 248.003860,150.701721 
	C234.446838,158.711548 221.106766,166.593170 208.936050,173.783936 
	C219.524445,184.258835 231.316940,195.924911 242.825592,207.310196 
	C243.004578,205.971039 242.783463,203.308273 243.808777,201.273621 
	C244.682266,199.540237 247.351181,197.187866 248.577744,197.517883 
	C250.360062,197.997482 252.879974,200.718109 252.786316,202.351212 
	C252.301346,210.808121 251.229904,219.243439 250.050201,227.642365 
	C249.595932,230.876450 246.986954,231.932709 243.998047,231.100876 
	C236.156372,228.918488 228.276901,226.802887 220.622208,224.072693 
	C218.986038,223.489105 218.237244,220.417542 217.079651,218.492157 
	C219.021561,217.342468 220.943237,215.300201 222.910217,215.255585 
	C225.749191,215.191177 228.621033,216.576111 231.621414,217.380859 
	C229.078598,206.942398 212.136108,188.438110 193.124542,174.936920 
	C177.927505,180.060425 164.435699,187.623474 152.458221,198.435028 
z"/>
<path fill="#0D0D0D" opacity="1.000000" stroke="none" 
	d="
M855.637451,244.503326 
	C856.717285,266.358917 838.535828,278.963165 818.903015,270.337677 
	C817.782166,269.845245 816.567139,268.020172 816.550720,266.799744 
	C816.379944,254.142868 816.376587,241.481766 816.559448,228.825195 
	C816.576965,227.611923 817.911987,225.757645 819.061829,225.319092 
	C838.091003,218.061478 853.775513,228.284790 855.637451,244.503326 
M824.021667,240.537048 
	C824.021667,248.806458 824.021667,257.075867 824.021667,265.175751 
	C833.882202,267.699341 840.492737,265.718842 844.968567,259.238068 
	C849.505981,252.668137 849.263794,242.132568 844.428589,235.744507 
	C839.810303,229.643036 833.032654,227.915207 824.021667,230.738342 
	C824.021667,233.602097 824.021667,236.578125 824.021667,240.537048 
z"/>
<path fill="#090909" opacity="1.000000" stroke="none" 
	d="
M491.997528,272.073914 
	C476.164825,274.660889 463.650757,267.996155 459.996368,255.308624 
	C454.658875,236.777542 470.014679,220.145905 489.616638,223.237152 
	C490.765686,223.418335 491.899445,223.696350 493.040314,223.929169 
	C499.459167,225.239075 499.459167,225.239059 498.738037,231.395981 
	C493.020477,230.776062 487.201508,229.138702 481.636658,229.763702 
	C471.838135,230.864197 465.800903,239.497650 466.572754,249.389664 
	C467.350586,259.358459 474.589050,266.206573 484.614594,266.458618 
	C493.267578,266.676147 493.810760,266.149109 493.810699,257.535217 
	C493.810669,255.250153 493.810669,252.965103 493.810669,250.322067 
	C489.731506,250.322067 486.131012,250.322067 482.204773,250.322067 
	C482.102234,248.204346 482.016479,246.432846 481.914124,244.318573 
	C488.265778,244.318573 494.484802,244.318573 501.186523,244.318573 
	C501.186523,251.925705 501.308838,259.533203 501.051575,267.127838 
	C501.013977,268.237732 499.350037,269.642548 498.113403,270.277557 
	C496.375885,271.169769 494.334015,271.469177 491.997528,272.073914 
z"/>
<path fill="#0B0B0B" opacity="1.000000" stroke="none" 
	d="
M720.169250,264.690552 
	C716.101074,257.393494 715.914673,250.257462 720.198975,243.566132 
	C725.631226,235.081955 734.195801,235.299393 743.373779,236.711380 
	C743.373779,231.197952 743.373779,225.943512 743.373779,220.420044 
	C746.097961,220.420044 748.317566,220.420044 750.627747,220.420044 
	C750.768188,220.952499 750.996521,221.415512 750.997070,221.878769 
	C751.015564,237.843674 751.012512,253.808594 751.012512,269.686310 
	C739.056152,275.938843 727.695068,274.162262 720.169250,264.690552 
M741.783569,242.955734 
	C732.102478,241.068207 726.764893,243.588089 725.308472,250.938141 
	C724.265808,256.199646 725.433655,260.971802 729.730652,264.457764 
	C733.914062,267.851501 738.541870,267.650970 743.822937,265.369507 
	C743.438232,257.963715 743.054077,250.568985 741.783569,242.955734 
z"/>
<path fill="#060606" opacity="1.000000" stroke="none" 
	d="
M924.262573,237.435867 
	C932.753052,242.068680 936.244934,250.311188 933.890991,259.563812 
	C931.437744,269.206390 923.979675,273.211182 908.345459,273.025970 
	C908.345459,278.751923 908.345459,284.493500 908.345459,290.536377 
	C905.816223,290.536377 903.736023,290.536377 901.312561,290.536377 
	C901.188477,290.019470 900.849915,289.263123 900.848267,288.506042 
	C900.815613,273.046356 900.743774,257.585510 900.952026,242.128555 
	C900.970764,240.737762 902.573364,238.605469 903.910461,238.124573 
	C910.425781,235.781342 917.143188,235.001221 924.262573,237.435867 
M917.860535,242.320007 
	C914.674438,242.548431 911.488281,242.776855 908.317871,243.004150 
	C908.317871,251.099365 908.317871,258.357819 908.317871,265.558746 
	C916.741089,268.643860 923.499939,266.059204 925.970764,258.923798 
	C928.532898,251.524826 925.601440,244.980927 917.860535,242.320007 
z"/>
<path fill="#060606" opacity="1.000000" stroke="none" 
	d="
M1038.527344,236.164246 
	C1040.098389,236.407944 1041.229614,236.601837 1042.718994,236.857086 
	C1042.718994,231.381760 1042.718994,226.105347 1042.718994,220.493240 
	C1045.245361,220.493240 1047.445435,220.493240 1050.180786,220.493240 
	C1050.180786,230.978882 1050.180786,241.401260 1050.180786,251.823639 
	C1050.180786,256.477814 1049.912476,261.152679 1050.268555,265.779449 
	C1050.536865,269.264801 1049.401001,271.127441 1046.007202,271.644470 
	C1042.575684,272.167328 1039.144531,273.076202 1035.707153,273.105682 
	C1024.462769,273.202271 1016.458435,265.131378 1016.475647,254.084747 
	C1016.493225,242.808105 1023.756531,235.933426 1035.598755,235.995575 
	C1036.428589,235.999924 1037.258057,236.073196 1038.527344,236.164246 
M1024.701538,250.490524 
	C1023.296753,256.170013 1024.676880,261.111572 1029.262939,264.709717 
	C1033.414185,267.966675 1038.069946,267.572845 1042.625977,265.696045 
	C1042.625977,258.066681 1042.625977,250.819336 1042.625977,243.641907 
	C1032.751099,240.542816 1028.213135,242.131668 1024.701538,250.490524 
z"/>
<path fill="#101010" opacity="1.000000" stroke="none" 
	d="
M543.704346,329.586731 
	C537.472290,330.291565 531.378479,330.582184 524.925781,330.889923 
	C524.925781,335.555328 524.925781,340.245453 524.925781,345.405884 
	C531.170105,345.405884 537.258850,345.405884 543.603577,345.405884 
	C543.603577,347.627258 543.603577,349.390656 543.603577,351.514923 
	C534.953491,351.514923 526.242554,351.514923 517.248535,351.514923 
	C517.248535,336.123291 517.248535,320.718719 517.248535,305.051514 
	C525.936279,305.051514 534.677795,305.051514 543.646851,305.051514 
	C543.646851,306.884888 543.646851,308.660217 543.646851,310.924561 
	C537.481506,310.924561 531.225464,310.924561 524.776672,310.924561 
	C524.776672,315.480560 524.776672,319.552155 524.776672,324.032654 
	C530.989075,324.032654 537.083801,324.032654 543.842712,324.032654 
	C543.842712,326.009705 543.842712,327.591095 543.704346,329.586731 
z"/>
<path fill="#0F0F0F" opacity="1.000000" stroke="none" 
	d="
M627.859863,317.871948 
	C633.339600,317.428986 638.510742,316.305969 643.465210,316.923004 
	C649.284302,317.647797 652.336731,321.925842 652.516357,327.760468 
	C652.705750,333.910950 652.656738,340.074371 652.484131,346.225739 
	C652.448853,347.482422 651.738464,349.324036 650.769531,349.853821 
	C643.947937,353.583618 636.740967,354.919556 629.236084,352.020447 
	C625.188965,350.457092 622.652710,347.482056 622.491150,343.021149 
	C622.332275,338.632904 624.247742,334.898773 628.328125,333.449402 
	C633.403442,331.646637 638.814270,330.788483 644.456726,329.431854 
	C645.390991,325.068176 643.750732,322.553040 638.614319,322.661713 
	C634.559570,322.747559 630.521851,323.637054 625.594971,324.285645 
	C626.261475,322.020142 626.858521,319.990936 627.859863,317.871948 
M644.984192,339.524109 
	C644.837097,338.744629 644.959167,337.555420 644.498779,337.252899 
	C641.734619,335.437134 632.437256,337.501038 630.954468,340.495300 
	C630.332275,341.751617 630.875854,345.053192 631.279297,345.121460 
	C635.157898,345.777649 639.143433,346.263306 643.037842,345.976105 
	C643.818359,345.918549 644.342346,342.382019 644.984192,339.524109 
z"/>
<path fill="#0A0A0A" opacity="1.000000" stroke="none" 
	d="
M741.934570,346.811035 
	C735.379089,354.287689 724.111267,355.726379 716.536682,350.336121 
	C709.140259,345.072723 706.821045,332.651184 711.659668,324.214813 
	C715.985535,316.672241 726.714722,313.666290 735.352051,317.577057 
	C745.087036,321.984833 748.278381,335.579346 741.934570,346.811035 
M727.511963,347.151886 
	C733.993896,346.520935 736.386230,344.292664 737.227539,338.102081 
	C738.262817,330.484650 735.873108,324.769928 730.817139,322.903503 
	C726.910706,321.461456 723.030823,321.880951 720.193054,324.832520 
	C716.258179,328.925171 716.360535,334.168976 717.683044,339.327179 
	C718.856689,343.904755 721.594482,346.939789 727.511963,347.151886 
z"/>
<path fill="#090909" opacity="1.000000" stroke="none" 
	d="
M639.544312,273.003357 
	C625.264160,273.709778 617.829773,267.123413 617.811218,254.176743 
	C617.796326,243.775391 623.621033,236.796295 633.042603,235.926620 
	C644.292969,234.888138 651.480103,240.179092 653.464050,250.960297 
	C655.493835,261.990051 650.580566,270.009064 639.544312,273.003357 
M626.899719,261.137604 
	C629.981750,266.180756 633.909973,268.077240 638.834717,266.721405 
	C643.967346,265.308380 645.810486,261.353485 645.897705,256.534790 
	C645.947754,253.768768 645.707947,250.821930 644.779602,248.252441 
	C643.135742,243.702850 639.494934,241.646652 634.604675,242.025818 
	C629.837341,242.395462 626.544434,245.153229 626.034119,250.111191 
	C625.687073,253.483063 626.348145,256.958710 626.899719,261.137604 
z"/>
<path fill="#090909" opacity="1.000000" stroke="none" 
	d="
M971.437378,250.513794 
	C970.385071,255.414963 967.103455,257.014740 962.965271,257.144287 
	C957.824707,257.305237 952.675293,257.182861 947.541626,257.182861 
	C946.947021,265.928711 953.013000,268.143524 969.022583,265.130615 
	C970.671692,269.761139 969.127686,271.766968 964.190430,272.708496 
	C946.850281,276.015167 935.472900,264.643311 940.066406,248.235138 
	C942.768494,238.583282 953.370850,233.229095 962.630615,237.039658 
	C968.365417,239.399628 971.534180,243.752792 971.437378,250.513794 
M948.079407,250.987106 
	C952.227661,250.991470 956.376221,250.966736 960.524109,251.008682 
	C964.380432,251.047699 964.805725,249.104782 963.137756,246.277328 
	C961.289124,243.143661 958.514343,241.476425 954.780884,242.461472 
	C950.524292,243.584564 947.184998,245.694641 948.079407,250.987106 
z"/>
<path fill="#090909" opacity="1.000000" stroke="none" 
	d="
M864.281311,243.398010 
	C871.172363,234.965134 881.958313,233.501602 889.053406,239.758682 
	C892.748413,243.017181 894.604370,248.570053 892.971741,252.310913 
	C891.070984,256.666595 887.178711,257.264587 882.983765,257.205383 
	C878.665649,257.144409 874.345642,257.218933 870.026428,257.240479 
	C869.864075,257.241302 869.702026,257.308258 869.539856,257.344391 
	C868.918884,265.920044 875.045166,268.158569 891.017578,265.128540 
	C892.681213,269.762299 891.211853,272.081207 886.182068,272.662201 
	C878.390198,273.562256 870.536987,274.294891 865.210083,267.138641 
	C859.749573,259.802765 859.862183,251.741379 864.281311,243.398010 
M873.700867,251.000900 
	C876.683594,251.000610 879.666382,250.996536 882.649109,251.000900 
	C886.660278,251.006790 886.710510,248.859283 885.079529,246.178909 
	C883.192627,243.077744 880.427368,241.521744 876.678528,242.471207 
	C872.337402,243.570679 869.503235,246.029221 869.004028,251.000900 
	C870.475342,251.000900 871.628723,251.000900 873.700867,251.000900 
z"/>
<path fill="#090909" opacity="1.000000" stroke="none" 
	d="
M1089.078613,251.993713 
	C1086.143311,253.972610 1083.437622,256.491882 1080.405884,256.977875 
	C1075.551392,257.756104 1070.480957,257.186249 1065.511719,257.186249 
	C1065.032593,265.939148 1070.885620,268.071198 1087.041382,265.140961 
	C1088.652832,269.775391 1087.087891,271.781189 1082.163452,272.716675 
	C1064.834229,276.008575 1053.456543,264.603668 1058.071655,248.208008 
	C1060.739258,238.731186 1070.870972,233.541122 1080.192017,236.876785 
	C1086.636353,239.182968 1089.874268,244.505508 1089.078613,251.993713 
M1066.079590,250.987091 
	C1070.227905,250.991455 1074.376343,250.966797 1078.524292,251.008698 
	C1082.380981,251.047653 1082.805542,249.104279 1081.137695,246.277130 
	C1079.288818,243.143478 1076.514038,241.476288 1072.780518,242.461548 
	C1068.524170,243.584839 1065.184448,245.694473 1066.079590,250.987091 
z"/>
<path fill="#0A0A0A" opacity="1.000000" stroke="none" 
	d="
M947.068909,315.983398 
	C958.139221,316.374207 964.121643,321.705322 965.662903,332.162109 
	C967.059814,341.639069 962.509094,350.252808 954.390381,352.559235 
	C947.327759,354.565674 940.328918,354.159393 934.933777,348.455597 
	C929.098511,342.286407 928.500793,334.729553 931.000732,326.995087 
	C933.392334,319.595673 939.171692,316.465942 947.068909,315.983398 
M954.440735,345.106171 
	C958.491150,340.292267 959.269775,332.280273 956.137085,327.031067 
	C953.836731,323.176697 950.305420,321.731628 945.980042,322.328064 
	C942.018982,322.874207 939.076660,325.048065 938.220154,329.020172 
	C937.004944,334.656128 936.670837,340.449615 941.364624,344.805939 
	C945.083618,348.257507 949.519165,347.837708 954.440735,345.106171 
z"/>
<path fill="#0B0B0B" opacity="1.000000" stroke="none" 
	d="
M1212.274902,270.120483 
	C1205.687988,273.260742 1199.250732,274.295746 1192.574097,272.144867 
	C1188.132812,270.714081 1185.064697,267.943268 1184.814941,262.913849 
	C1184.569824,257.980743 1186.867798,254.329102 1191.369019,252.838638 
	C1196.321289,251.198868 1201.560425,250.425751 1206.818237,249.242722 
	C1207.282471,241.820175 1205.008667,241.072678 1188.824707,244.019440 
	C1188.824707,242.087265 1188.824707,240.211517 1188.824707,237.407074 
	C1193.732056,236.957153 1198.814087,236.011765 1203.865967,236.151794 
	C1209.917480,236.319565 1214.554932,241.169144 1214.795044,247.088608 
	C1215.057739,253.566559 1214.964722,260.066742 1214.758911,266.548706 
	C1214.722168,267.708130 1213.383667,268.826233 1212.274902,270.120483 
M1199.651855,267.000427 
	C1207.765625,266.320007 1208.517700,265.184418 1206.360596,256.392548 
	C1203.817017,256.603119 1200.957397,256.221619 1198.678101,257.196594 
	C1196.234985,258.241608 1192.829102,260.346649 1192.538086,262.375580 
	C1192.037842,265.862305 1195.644775,266.799683 1199.651855,267.000427 
z"/>
<path fill="#070707" opacity="1.000000" stroke="none" 
	d="
M758.624451,260.033203 
	C756.205261,245.062836 764.070312,234.965164 777.006470,236.036499 
	C782.758911,236.512894 787.027527,239.410309 789.306091,244.800873 
	C792.165588,251.565430 788.762939,256.925507 781.434570,257.150391 
	C776.319275,257.307373 771.195251,257.180664 766.056091,257.180664 
	C766.648865,266.565582 772.256958,268.508118 787.615479,265.024170 
	C788.823792,271.452332 788.777893,271.520111 782.414001,272.700287 
	C769.769592,275.045258 761.956299,270.998840 758.624451,260.033203 
M776.913330,242.324600 
	C769.721802,242.456451 766.567139,244.944260 766.134216,251.004623 
	C770.293457,251.004623 774.445068,251.106140 778.586609,250.946198 
	C779.926392,250.894455 782.290222,250.281357 782.358215,249.708176 
	C782.528137,248.276367 781.950867,246.515106 781.104431,245.274124 
	C780.327637,244.135056 778.807129,243.503143 776.913330,242.324600 
z"/>
<path fill="#070707" opacity="1.000000" stroke="none" 
	d="
M528.832764,273.084900 
	C510.202637,274.893219 505.246063,258.760071 509.174957,247.144089 
	C512.950317,235.982208 527.775452,232.137009 536.108093,240.059265 
	C539.608826,243.387573 541.351624,247.621521 539.681885,252.251633 
	C538.097839,256.644348 533.993103,257.298492 529.755432,257.205414 
	C525.275146,257.106995 520.791077,257.183289 516.321655,257.183289 
	C515.796387,265.950134 521.548950,268.037018 537.712280,265.143738 
	C538.727905,271.989502 538.727905,271.989502 528.832764,273.084900 
M528.120361,251.004669 
	C529.604675,250.577103 531.088989,250.149536 532.573303,249.721970 
	C532.015503,248.086639 531.920288,245.596405 530.804321,244.992645 
	C528.423584,243.704529 525.438538,242.612900 522.837769,242.862839 
	C518.714600,243.259125 516.421082,246.316986 515.591797,251.004684 
	C519.713257,251.004684 523.461731,251.004684 528.120361,251.004669 
z"/>
<path fill="#101010" opacity="1.000000" stroke="none" 
	d="
M673.279724,242.717117 
	C668.835693,242.980881 667.764648,245.082397 667.936768,248.955582 
	C668.261353,256.262177 668.030518,263.593414 668.030518,271.240356 
	C665.604065,271.240356 663.360840,271.240356 660.772461,271.240356 
	C660.772461,260.991943 660.772461,250.746643 660.772461,239.887863 
	C665.474060,238.653702 670.360046,236.917435 675.393860,236.148315 
	C684.631348,234.736877 691.315002,240.588821 691.534546,249.936111 
	C691.698181,256.902069 691.566833,263.874969 691.566833,271.204559 
	C689.020569,271.204559 686.794922,271.204559 683.969482,271.204559 
	C683.969482,264.661133 683.987366,258.065918 683.964783,251.470871 
	C683.939636,244.118515 681.086487,241.668198 673.279724,242.717117 
z"/>
<path fill="#101010" opacity="1.000000" stroke="none" 
	d="
M1104.030396,266.770447 
	C1104.030396,268.531647 1104.030396,269.820892 1104.030396,271.284485 
	C1101.368408,271.284485 1099.136963,271.284485 1096.438843,271.284485 
	C1096.438843,261.394409 1096.393921,251.779282 1096.516357,242.166260 
	C1096.527100,241.319611 1097.480103,239.952881 1098.251831,239.734482 
	C1103.184570,238.338562 1108.134766,236.536575 1113.182495,236.120392 
	C1121.470581,235.437012 1127.212036,240.931686 1127.506958,249.228531 
	C1127.760864,256.372009 1127.559448,263.531647 1127.559448,271.125427 
	C1125.183838,271.125427 1122.972168,271.125427 1119.969604,271.125427 
	C1119.969604,265.668640 1119.969604,259.928131 1119.969604,254.187607 
	C1119.969482,242.425964 1115.526978,239.638016 1104.030396,244.518127 
	C1104.030396,251.686722 1104.030396,258.992584 1104.030396,266.770447 
z"/>
<path fill="#101010" opacity="1.000000" stroke="none" 
	d="
M994.967529,235.971954 
	C1004.879395,236.674484 1009.412659,241.252869 1009.547791,250.467865 
	C1009.647522,257.268036 1009.567383,264.070831 1009.567383,271.218201 
	C1007.000671,271.218201 1004.775574,271.218201 1001.969482,271.218201 
	C1001.969482,264.464294 1002.340942,257.665955 1001.788452,250.943527 
	C1001.564331,248.216248 999.848572,244.006165 997.890137,243.387436 
	C994.611206,242.351501 990.572754,243.529510 986.911560,244.128128 
	C986.441650,244.204971 986.080322,246.384567 986.068726,247.593887 
	C985.994019,255.398270 986.030579,263.203705 986.030579,271.286621 
	C983.493164,271.286621 981.254578,271.286621 978.436401,271.286621 
	C978.436401,261.523926 978.359375,251.916077 978.548889,242.313507 
	C978.569031,241.289246 979.969482,239.712189 981.032532,239.389648 
	C985.469482,238.043488 990.022217,237.078598 994.967529,235.971954 
z"/>
<path fill="#0F0F0F" opacity="1.000000" stroke="none" 
	d="
M800.972351,343.926483 
	C800.972351,330.658813 800.972351,317.879395 800.972351,305.000702 
	C809.593689,305.000702 817.861938,305.000702 826.344666,305.000702 
	C826.344666,306.965790 826.344666,308.725403 826.344666,310.935974 
	C820.501526,310.935974 814.753967,310.935974 808.791382,310.935974 
	C808.791382,315.451172 808.791382,319.522064 808.791382,323.999207 
	C814.267151,323.999207 819.693665,323.999207 825.492065,323.999207 
	C825.492065,326.269928 825.492065,328.146179 825.492065,330.466797 
	C820.092224,330.466797 814.663391,330.466797 808.621155,330.466797 
	C808.621155,337.765991 808.621155,344.646484 808.621155,351.691406 
	C805.880188,351.691406 803.757935,351.691406 800.972351,351.691406 
	C800.972351,349.277985 800.972351,346.846375 800.972351,343.926483 
z"/>
<path fill="#0C0C0C" opacity="1.000000" stroke="none" 
	d="
M751.048950,351.852783 
	C750.441101,349.578339 750.214355,347.478119 749.978943,345.297150 
	C754.076721,345.952057 757.759399,346.983673 761.431396,346.946747 
	C763.362671,346.927368 765.275085,345.039459 767.196045,343.995300 
	C766.000549,342.248383 765.129395,340.076050 763.531006,338.857727 
	C761.324585,337.175903 758.566284,336.220459 756.050659,334.941498 
	C752.350708,333.060394 749.894165,330.224854 750.200317,325.899841 
	C750.531372,321.223114 753.318054,317.809662 757.786499,317.166199 
	C762.695923,316.459167 767.785767,317.005035 772.812073,317.005035 
	C772.812073,320.215729 772.812073,322.172058 772.812073,323.791199 
	C769.046082,323.425385 765.456421,322.817413 761.875549,322.865265 
	C760.569092,322.882751 758.232971,324.452362 758.226440,325.327606 
	C758.215820,326.761871 759.392090,328.721527 760.661133,329.544189 
	C763.567078,331.427917 766.914368,332.614777 769.928772,334.351257 
	C773.533142,336.427612 776.041199,339.882874 774.759888,343.831757 
	C773.755249,346.927673 771.087036,351.128052 768.463013,351.711304 
	C763.030396,352.918854 757.135132,352.045013 751.048950,351.852783 
z"/>
<path fill="#0C0C0C" opacity="1.000000" stroke="none" 
	d="
M561.266357,353.499512 
	C560.023193,353.346649 559.199219,353.228607 558.373779,353.121490 
	C551.811279,352.269623 551.811218,352.270294 552.414795,345.447906 
	C556.274597,345.999298 560.142029,346.945282 564.004578,346.925720 
	C565.748657,346.916901 567.482971,344.985992 569.221741,343.927124 
	C568.144226,342.267334 567.410889,340.125153 565.912109,339.055664 
	C563.375183,337.245270 560.316284,336.183167 557.546875,334.677551 
	C554.073059,332.788910 551.878113,329.928925 552.194336,325.827148 
	C552.519592,321.607849 554.968872,318.748505 558.891296,317.307251 
	C564.313049,315.315063 569.626038,316.022827 574.794678,318.131042 
	C574.794678,320.283386 574.794678,322.237671 574.794678,323.972473 
	C571.328613,323.487335 568.049866,322.656555 564.791443,322.729340 
	C563.164246,322.765717 561.573853,324.453522 559.966797,325.394287 
	C561.012390,326.895660 561.763184,328.818665 563.170593,329.802612 
	C565.454773,331.399628 568.183289,332.353455 570.698975,333.628723 
	C575.133667,335.876831 577.691223,339.351868 576.892517,344.467682 
	C576.088989,349.614594 572.330017,351.969055 567.637085,352.991608 
	C565.704956,353.412598 563.671997,353.370728 561.266357,353.499512 
z"/>
<path fill="#0C0C0C" opacity="1.000000" stroke="none" 
	d="
M855.994385,317.750549 
	C861.906616,315.215118 867.354919,316.072632 872.837830,318.066559 
	C872.837830,320.126007 872.837830,322.079987 872.837830,323.904816 
	C869.278992,323.461975 865.877136,322.671295 862.505188,322.782806 
	C860.950256,322.834229 859.453674,324.650116 857.930664,325.665955 
	C858.914124,327.047485 859.614807,328.871460 860.939880,329.718628 
	C863.712402,331.491119 866.884277,332.624390 869.762878,334.249176 
	C873.368225,336.284180 875.301453,339.426392 874.990479,343.678955 
	C874.676331,347.976501 872.248657,351.363770 868.289429,351.972351 
	C863.038208,352.779541 857.524292,352.617523 852.244202,351.935791 
	C851.046997,351.781189 850.346619,347.778534 849.286072,345.231415 
	C854.277344,345.986694 858.015747,347.004547 861.730652,346.925079 
	C863.607544,346.884949 865.441956,344.858978 867.295532,343.730896 
	C866.134949,342.110504 865.260925,340.112549 863.744202,338.961578 
	C861.666565,337.384979 859.096191,336.460419 856.745117,335.240845 
	C848.335938,330.878571 847.852905,323.234039 855.994385,317.750549 
z"/>
<path fill="#0D0D0D" opacity="1.000000" stroke="none" 
	d="
M983.645996,338.335602 
	C980.789062,336.890808 977.760437,336.132507 975.867004,334.239014 
	C973.709656,332.081635 971.182617,328.821991 971.352295,326.205963 
	C971.537964,323.344879 974.032410,319.773773 976.568665,318.104431 
	C981.822388,314.646454 987.730652,316.050934 993.602661,318.033966 
	C993.602661,319.997559 993.602661,321.904480 993.602661,323.853882 
	C990.092041,323.434418 986.684998,322.661499 983.311035,322.785980 
	C981.738892,322.844025 980.230957,324.641571 978.693970,325.650696 
	C979.680664,327.043915 980.383606,328.874054 981.714050,329.737793 
	C984.339355,331.441986 987.358643,332.524719 990.130005,334.021881 
	C993.961060,336.091431 996.172485,339.311035 995.769897,343.759003 
	C995.345337,348.449310 992.395569,351.823669 988.026367,352.425385 
	C982.585144,353.174744 976.962219,352.605225 971.199219,352.605225 
	C971.199219,349.615143 971.199219,347.494232 971.199219,345.312683 
	C974.702332,345.921692 978.198547,347.020691 981.671387,346.951050 
	C983.791321,346.908600 985.875183,345.068451 987.975220,344.035706 
	C986.642090,342.197327 985.308899,340.358978 983.645996,338.335602 
z"/>
<path fill="#0B0B0B" opacity="1.000000" stroke="none" 
	d="
M547.288513,251.594635 
	C543.821899,244.213867 546.098022,238.686325 553.512878,236.770294 
	C556.469116,236.006378 559.734619,236.258987 562.851807,236.338837 
	C567.977356,236.470154 569.323853,239.255753 567.836975,243.529327 
	C564.149292,243.131592 560.562866,242.415604 557.002808,242.529053 
	C555.651733,242.572113 553.775940,244.308853 553.267151,245.689301 
	C552.971069,246.492676 554.656921,248.533676 555.895386,249.294159 
	C558.846069,251.106094 562.138977,252.351837 565.148438,254.079239 
	C568.759155,256.151703 570.512207,259.342468 570.170166,263.620209 
	C569.838745,267.766571 567.481323,271.031067 563.823792,271.651093 
	C558.578857,272.540222 553.049133,272.402039 547.744873,271.795135 
	C546.537354,271.656982 545.754883,267.804626 544.452942,264.952515 
	C549.549011,265.799286 553.117981,266.920471 556.635010,266.775909 
	C558.699463,266.691071 560.681213,264.592133 562.700134,263.399170 
	C561.345520,261.707397 560.281738,259.597198 558.575562,258.411285 
	C555.070374,255.975067 551.221313,254.033676 547.288513,251.594635 
z"/>
<path fill="#0B0B0B" opacity="1.000000" stroke="none" 
	d="
M1235.532959,273.024567 
	C1232.432739,273.011993 1229.744141,273.195160 1227.120605,272.863251 
	C1221.088501,272.100159 1220.823853,271.572083 1222.016968,265.142120 
	C1225.404419,265.755005 1228.822998,266.956848 1232.165527,266.773560 
	C1234.401001,266.651031 1236.528320,264.559692 1238.704102,263.349365 
	C1237.329590,261.662781 1236.232666,259.576141 1234.515259,258.383484 
	C1231.949219,256.601685 1228.839111,255.625824 1226.150269,253.994324 
	C1219.595337,250.016998 1219.903320,241.540283 1226.635620,237.836105 
	C1231.869507,234.956390 1237.384888,235.513931 1242.571533,237.422531 
	C1243.858154,237.895996 1244.021973,241.420609 1244.795654,243.835419 
	C1240.498901,243.185242 1237.248291,242.303909 1234.016357,242.367233 
	C1232.379028,242.399307 1230.775269,244.136932 1229.156250,245.103455 
	C1230.193604,246.610580 1230.961060,248.464584 1232.337891,249.535614 
	C1233.999512,250.828369 1236.189575,251.433075 1238.130249,252.378082 
	C1242.849976,254.676315 1246.796509,257.571228 1246.139160,263.658600 
	C1245.486084,269.707214 1241.159302,271.833984 1235.532959,273.024567 
z"/>
<path fill="#0C0C0C" opacity="1.000000" stroke="none" 
	d="
M579.977539,260.826355 
	C579.977539,255.054382 579.977539,249.757278 579.977539,244.167984 
	C577.722961,244.167984 575.787659,244.167984 573.494141,244.167984 
	C573.494141,242.014145 573.494141,240.150253 573.494141,238.013550 
	C575.486511,237.891022 577.422913,237.771927 579.769287,237.627625 
	C579.769287,234.324707 579.769287,231.069046 579.769287,227.476410 
	C582.401978,227.476410 584.632507,227.476410 587.382690,227.476410 
	C587.382690,230.637589 587.382690,233.893295 587.382690,237.576080 
	C590.627136,237.576080 593.382507,237.576080 596.500854,237.576080 
	C596.500854,239.737839 596.500854,241.479462 596.500854,243.766266 
	C593.914185,243.766266 591.027039,243.766266 587.564758,243.766266 
	C587.564758,250.702881 587.490356,257.117279 587.596497,263.528748 
	C587.648376,266.664581 589.563904,267.496979 592.364319,266.664948 
	C593.765503,266.248657 595.135437,265.726990 596.531921,265.248749 
	C597.530029,269.527069 597.086304,272.570068 591.884583,273.105255 
	C585.878967,273.723145 580.860352,270.852844 580.064331,265.789337 
	C579.834045,264.324921 579.995605,262.798950 579.977539,260.826355 
z"/>
<path fill="#0D0D0D" opacity="1.000000" stroke="none" 
	d="
M896.767944,338.237793 
	C895.386780,322.200134 906.860718,312.881439 922.186890,317.064575 
	C926.562134,318.258759 924.439331,321.286072 924.718262,323.983612 
	C918.081787,322.993256 911.372253,320.169037 906.530945,326.803101 
	C903.230835,331.325226 902.949768,336.479889 905.563599,341.399963 
	C910.009338,349.768127 917.544678,346.971558 924.657410,345.749329 
	C924.657410,347.987976 924.657410,349.761688 924.657410,351.513458 
	C911.104309,356.943665 899.628845,351.614594 896.767944,338.237793 
z"/>
<path fill="#0C0C0C" opacity="1.000000" stroke="none" 
	d="
M1145.696289,264.385559 
	C1151.311890,265.496338 1156.639404,266.343933 1162.363770,267.254669 
	C1162.363770,267.791077 1162.363770,269.569550 1162.363770,271.289337 
	C1151.985596,274.967438 1143.263672,273.309326 1138.114136,266.769623 
	C1133.295288,260.649933 1132.794067,250.975662 1136.945435,244.209763 
	C1141.584961,236.648270 1149.357788,234.541046 1162.193848,237.545258 
	C1162.193848,239.378662 1162.193848,241.300156 1162.193848,243.615692 
	C1155.476807,242.669922 1147.783203,239.560425 1143.444824,247.904144 
	C1140.560791,253.451050 1140.947388,259.177368 1145.696289,264.385559 
z"/>
<path fill="#0C0C0C" opacity="1.000000" stroke="none" 
	d="
M660.911987,343.844299 
	C657.695007,335.989197 658.048462,328.727722 663.288635,322.409241 
	C668.839844,315.715851 676.344299,315.428101 684.289062,316.985077 
	C688.976013,317.903625 686.561157,321.173523 687.397766,323.980164 
	C680.189209,322.903625 672.800903,319.969788 668.324402,327.906067 
	C665.529541,332.861023 665.575500,338.256073 669.032166,342.964294 
	C673.753784,349.395538 680.271484,346.965668 686.810181,345.795898 
	C686.810181,347.747345 686.810181,349.599701 686.810181,351.549774 
	C676.123962,355.987427 666.881958,353.390717 660.911987,343.844299 
z"/>
<path fill="#131313" opacity="1.000000" stroke="none" 
	d="
M610.577026,247.094299 
	C610.577026,255.363327 610.577026,263.145935 610.577026,271.249573 
	C607.955933,271.249573 605.729492,271.249573 603.231079,271.249573 
	C603.231079,260.296295 603.231079,249.385941 603.231079,238.128815 
	C605.453003,238.128815 607.809021,238.128815 610.577026,238.128815 
	C610.577026,241.038559 610.577026,243.823212 610.577026,247.094299 
z"/>
<path fill="#111111" opacity="1.000000" stroke="none" 
	d="
M884.006470,317.971191 
	C885.955261,317.968506 887.439514,317.968506 889.246887,317.968506 
	C889.246887,329.210266 889.246887,340.229187 889.246887,351.563019 
	C886.965820,351.563019 884.748901,351.563019 881.988708,351.563019 
	C881.988708,340.854950 881.968872,330.120087 882.054504,319.386047 
	C882.058289,318.911377 883.024170,318.444427 884.006470,317.971191 
z"/>
<path fill="#111111" opacity="1.000000" stroke="none" 
	d="
M694.429382,345.790588 
	C694.429382,336.384308 694.429382,327.450287 694.429382,318.243774 
	C697.012268,318.243774 699.247192,318.243774 701.763672,318.243774 
	C701.763672,329.195068 701.763672,340.232849 701.763672,351.573914 
	C699.522095,351.573914 697.290466,351.573914 694.429382,351.573914 
	C694.429382,349.818054 694.429382,348.040466 694.429382,345.790588 
z"/>
<path fill="#030303" opacity="1.000000" stroke="none" 
	d="
M1177.173340,252.003326 
	C1177.173340,258.631073 1177.173340,264.760040 1177.173340,271.201263 
	C1174.706299,271.201263 1172.488403,271.201263 1170.045898,271.201263 
	C1170.045898,260.166077 1170.045898,249.284561 1170.045898,238.114227 
	C1172.303345,238.114227 1174.508423,238.114227 1177.173340,238.114227 
	C1177.173340,242.635925 1177.173340,247.070236 1177.173340,252.003326 
z"/>
<path fill="#020202" opacity="1.000000" stroke="none" 
	d="
M835.170532,351.795471 
	C834.413818,349.378662 833.897339,346.997559 833.869629,344.610840 
	C833.768188,335.871185 833.829529,327.129639 833.829529,318.196564 
	C836.333801,318.196564 838.428345,318.196564 840.847900,318.196564 
	C840.847900,329.184509 840.847900,340.194061 840.847900,351.828613 
	C839.141418,351.828613 837.388245,351.828613 835.170532,351.795471 
z"/>
<path fill="#1B1B1B" opacity="1.000000" stroke="none" 
	d="
M638.004395,220.655334 
	C640.473755,220.503540 642.585510,220.503540 644.748291,220.503540 
	C642.530090,227.958328 639.929749,230.050644 632.524292,229.671677 
	C634.366577,226.483490 636.006653,223.645309 638.004395,220.655334 
z"/>
<path fill="#0B0B0B" opacity="1.000000" stroke="none" 
	d="
M846.704834,301.450989 
	C845.944641,303.084564 844.923767,304.233521 844.336121,305.572632 
	C842.490051,309.779053 839.336121,310.878784 835.130066,309.783844 
	C837.491150,301.292328 838.631287,300.426208 846.704834,301.450989 
z"/>
<path fill="#202020" opacity="1.000000" stroke="none" 
	d="
M1176.267944,220.502914 
	C1176.895508,222.793320 1177.139160,224.983871 1177.411133,227.428436 
	C1174.681396,227.428436 1172.588989,227.428436 1170.121826,227.428436 
	C1170.121826,225.266190 1170.121826,223.086487 1170.121826,220.403061 
	C1172.051758,220.403061 1173.967896,220.403061 1176.267944,220.502914 
z"/>
<path fill="#292929" opacity="1.000000" stroke="none" 
	d="
M608.552124,220.351135 
	C609.738037,222.432755 610.508179,224.501846 611.537170,227.266663 
	C608.158386,227.266663 605.928589,227.266663 603.305908,227.266663 
	C603.305908,225.262253 603.305908,223.061417 603.305908,220.338593 
	C604.902527,220.338593 606.519409,220.338593 608.552124,220.351135 
z"/>
<path fill="#161616" opacity="1.000000" stroke="none" 
	d="
M884.979370,307.887573 
	C879.147400,307.151367 883.270325,303.302521 881.789978,300.964294 
	C884.572571,300.964294 886.822998,300.964294 889.460632,300.964294 
	C889.024048,304.032104 891.927673,308.511871 884.979370,307.887573 
z"/>
<path fill="#161616" opacity="1.000000" stroke="none" 
	d="
M698.154663,307.887878 
	C694.045410,307.173492 694.045410,307.173492 694.855103,300.998840 
	C697.070618,300.998840 699.317444,300.998840 702.078430,300.998840 
	C700.859009,303.461029 705.060120,308.007416 698.154663,307.887878 
z"/>
<path fill="#FEFEFE" opacity="1.000000" stroke="none" 
	d="
M494.816345,79.977051 
	C504.096313,48.005650 533.738159,30.168856 565.644043,37.015190 
	C595.777893,43.481285 616.024353,74.040100 611.251770,105.852875 
	C604.695190,149.557449 557.008545,171.660126 520.036804,148.130783 
	C498.136017,134.192841 487.864471,106.702217 494.816345,79.977051 
z"/>
<path fill="#FEFEFE" opacity="1.000000" stroke="none" 
	d="
M1054.119629,155.322281 
	C1020.388672,164.175339 989.334106,145.145782 980.309204,113.801003 
	C971.264709,82.388123 988.135803,49.247032 1018.448364,38.705910 
	C1054.914185,26.025017 1094.539307,52.222897 1097.154175,90.741707 
	C1099.228149,121.293922 1082.317017,146.842773 1054.119629,155.322281 
z"/>
<path fill="#F9F9F9" opacity="1.000000" stroke="none" 
	d="
M592.485107,323.214050 
	C593.915527,322.959473 594.903381,322.836182 595.892151,322.721222 
	C600.756531,322.155640 605.226685,322.624146 608.017273,327.409943 
	C610.721802,332.048279 610.371704,338.177429 607.174194,342.435486 
	C604.000061,346.662445 599.218140,348.325928 593.869385,346.794067 
	C592.840393,346.499390 591.300049,345.276306 591.308716,344.496124 
	C591.387085,337.445282 591.757935,330.397675 592.485107,323.214050 
z"/>
<path fill="#FDFDFD" opacity="1.000000" stroke="none" 
	d="
M824.021667,240.045609 
	C824.021667,236.578125 824.021667,233.602097 824.021667,230.738342 
	C833.032654,227.915207 839.810303,229.643036 844.428589,235.744507 
	C849.263794,242.132568 849.505981,252.668137 844.968567,259.238068 
	C840.492737,265.718842 833.882202,267.699341 824.021667,265.175751 
	C824.021667,257.075867 824.021667,248.806458 824.021667,240.045609 
z"/>
<path fill="#FBFBFB" opacity="1.000000" stroke="none" 
	d="
M742.226746,243.065002 
	C743.054077,250.568985 743.438232,257.963715 743.822937,265.369507 
	C738.541870,267.650970 733.914062,267.851501 729.730652,264.457764 
	C725.433655,260.971802 724.265808,256.199646 725.308472,250.938141 
	C726.764893,243.588089 732.102478,241.068207 742.226746,243.065002 
z"/>
<path fill="#F8F8F8" opacity="1.000000" stroke="none" 
	d="
M918.246582,242.431366 
	C925.601440,244.980927 928.532898,251.524826 925.970764,258.923798 
	C923.499939,266.059204 916.741089,268.643860 908.317871,265.558746 
	C908.317871,258.357819 908.317871,251.099365 908.317871,243.004150 
	C911.488281,242.776855 914.674438,242.548431 918.246582,242.431366 
z"/>
<path fill="#F8F8F8" opacity="1.000000" stroke="none" 
	d="
M1024.793945,250.101807 
	C1028.213135,242.131668 1032.751099,240.542816 1042.625977,243.641907 
	C1042.625977,250.819336 1042.625977,258.066681 1042.625977,265.696045 
	C1038.069946,267.572845 1033.414185,267.966675 1029.262939,264.709717 
	C1024.676880,261.111572 1023.296753,256.170013 1024.793945,250.101807 
z"/>
<path fill="#F8F8F8" opacity="1.000000" stroke="none" 
	d="
M644.984375,339.986847 
	C644.342346,342.382019 643.818359,345.918549 643.037842,345.976105 
	C639.143433,346.263306 635.157898,345.777649 631.279297,345.121460 
	C630.875854,345.053192 630.332275,341.751617 630.954468,340.495300 
	C632.437256,337.501038 641.734619,335.437134 644.498779,337.252899 
	C644.959167,337.555420 644.837097,338.744629 644.984375,339.986847 
z"/>
<path fill="#FAFAFA" opacity="1.000000" stroke="none" 
	d="
M727.094604,347.149384 
	C721.594482,346.939789 718.856689,343.904755 717.683044,339.327179 
	C716.360535,334.168976 716.258179,328.925171 720.193054,324.832520 
	C723.030823,321.880951 726.910706,321.461456 730.817139,322.903503 
	C735.873108,324.769928 738.262817,330.484650 737.227539,338.102081 
	C736.386230,344.292664 733.993896,346.520935 727.094604,347.149384 
z"/>
<path fill="#FBFBFB" opacity="1.000000" stroke="none" 
	d="
M626.729126,260.762787 
	C626.348145,256.958710 625.687073,253.483063 626.034119,250.111191 
	C626.544434,245.153229 629.837341,242.395462 634.604675,242.025818 
	C639.494934,241.646652 643.135742,243.702850 644.779602,248.252441 
	C645.707947,250.821930 645.947754,253.768768 645.897705,256.534790 
	C645.810486,261.353485 643.967346,265.308380 638.834717,266.721405 
	C633.909973,268.077240 629.981750,266.180756 626.729126,260.762787 
z"/>
<path fill="#F6F6F6" opacity="1.000000" stroke="none" 
	d="
M947.658691,250.890167 
	C947.184998,245.694641 950.524292,243.584564 954.780884,242.461472 
	C958.514343,241.476425 961.289124,243.143661 963.137756,246.277328 
	C964.805725,249.104782 964.380432,251.047699 960.524109,251.008682 
	C956.376221,250.966736 952.227661,250.991470 947.658691,250.890167 
z"/>
<path fill="#F6F6F6" opacity="1.000000" stroke="none" 
	d="
M873.241455,251.000900 
	C871.628723,251.000900 870.475342,251.000900 869.004028,251.000900 
	C869.503235,246.029221 872.337402,243.570679 876.678528,242.471207 
	C880.427368,241.521744 883.192627,243.077744 885.079529,246.178909 
	C886.710510,248.859283 886.660278,251.006790 882.649109,251.000900 
	C879.666382,250.996536 876.683594,251.000610 873.241455,251.000900 
z"/>
<path fill="#F6F6F6" opacity="1.000000" stroke="none" 
	d="
M1065.658936,250.890259 
	C1065.184448,245.694473 1068.524170,243.584839 1072.780518,242.461548 
	C1076.514038,241.476288 1079.288818,243.143478 1081.137695,246.277130 
	C1082.805542,249.104279 1082.380981,251.047653 1078.524292,251.008698 
	C1074.376343,250.966797 1070.227905,250.991455 1065.658936,250.890259 
z"/>
<path fill="#FBFBFB" opacity="1.000000" stroke="none" 
	d="
M954.148071,345.381256 
	C949.519165,347.837708 945.083618,348.257507 941.364624,344.805939 
	C936.670837,340.449615 937.004944,334.656128 938.220154,329.020172 
	C939.076660,325.048065 942.018982,322.874207 945.980042,322.328064 
	C950.305420,321.731628 953.836731,323.176697 956.137085,327.031067 
	C959.269775,332.280273 958.491150,340.292267 954.148071,345.381256 
z"/>
<path fill="#F3F3F3" opacity="1.000000" stroke="none" 
	d="
M1199.229248,266.999878 
	C1195.644775,266.799683 1192.037842,265.862305 1192.538086,262.375580 
	C1192.829102,260.346649 1196.234985,258.241608 1198.678101,257.196594 
	C1200.957397,256.221619 1203.817017,256.603119 1206.360596,256.392548 
	C1208.517700,265.184418 1207.765625,266.320007 1199.229248,266.999878 
z"/>
<path fill="#F6F6F6" opacity="1.000000" stroke="none" 
	d="
M777.263794,242.486191 
	C778.807129,243.503143 780.327637,244.135056 781.104431,245.274124 
	C781.950867,246.515106 782.528137,248.276367 782.358215,249.708176 
	C782.290222,250.281357 779.926392,250.894455 778.586609,250.946198 
	C774.445068,251.106140 770.293457,251.004623 766.134216,251.004623 
	C766.567139,244.944260 769.721802,242.456451 777.263794,242.486191 
z"/>
<path fill="#F6F6F6" opacity="1.000000" stroke="none" 
	d="
M527.665283,251.004669 
	C523.461731,251.004684 519.713257,251.004684 515.591797,251.004684 
	C516.421082,246.316986 518.714600,243.259125 522.837769,242.862839 
	C525.438538,242.612900 528.423584,243.704529 530.804321,244.992645 
	C531.920288,245.596405 532.015503,248.086639 532.573303,249.721954 
	C531.088989,250.149536 529.604675,250.577103 527.665283,251.004669 
z"/>
</svg>