<?xml version="1.0" encoding="utf-8"?>
<!-- Generator: Adobe Illustrator 24.1.0, SVG Export Plug-In . SVG Version: 6.00 Build 0)  -->
<svg version="1.1" id="Capa_1" xmlns="http://www.w3.org/2000/svg" xmlns:xlink="http://www.w3.org/1999/xlink" x="0px" y="0px"
	 viewBox="0 0 1304 368" enable-background="new 0 0 1304 368" xml:space="preserve">
<g>
	<g>
		<path d="M392.271,345.878l-35.035-94.058h8.626l31.319,84.052l31.186-84.052h8.627l-34.903,94.058H392.271z"/>
		<path d="M509.318,312.657c0,10.763-2.699,19.258-8.095,25.483c-5.574,6.671-13.625,10.006-24.153,10.006
			c-10.44,0-18.579-3.602-24.418-10.807c-5.574-6.758-8.361-15.52-8.361-26.283c0-10.494,2.741-18.989,8.229-25.483
			c5.839-6.671,13.978-10.006,24.418-10.006c10.262,0,18.314,3.648,24.153,10.94C506.576,293.358,509.318,302.074,509.318,312.657z
			 M453.183,310.992c0,8.786,1.858,15.887,5.574,21.298c4.247,6.212,10.351,9.319,18.314,9.319c8.05,0,14.067-2.84,18.049-8.52
			c3.537-4.881,5.309-11.714,5.309-20.5c0-8.697-1.814-15.795-5.441-21.299c-4.16-6.123-10.175-9.185-18.049-9.185
			c-8.052,0-14.113,2.796-18.181,8.387C455.041,295.551,453.183,302.384,453.183,310.992z"/>
		<path d="M546.742,348.413c-2.301,0-4.425-0.38-6.371-1.134c-1.946-0.757-3.649-1.822-5.109-3.202
			c-1.46-1.378-2.61-3.002-3.45-4.87c-0.842-1.868-1.261-3.913-1.261-6.137v-48.43h-13.27v-6.537h13.27v-20.679h8.095v20.679h16.323
			v6.537h-16.323v48.317c0,2.308,0.796,4.372,2.389,6.189c1.593,1.82,3.494,2.729,5.706,2.729c3.096,0,6.457-0.934,10.086-2.802
			v6.804C553.729,347.567,550.369,348.413,546.742,348.413z"/>
		<path d="M629.552,312.657c0,10.763-2.699,19.258-8.095,25.483c-5.574,6.671-13.625,10.006-24.153,10.006
			c-10.44,0-18.579-3.602-24.419-10.807c-5.574-6.758-8.36-15.52-8.36-26.283c0-10.494,2.741-18.989,8.228-25.483
			c5.839-6.671,13.978-10.006,24.418-10.006c10.262,0,18.314,3.648,24.153,10.94C626.81,293.358,629.552,302.074,629.552,312.657z
			 M573.416,310.992c0,8.786,1.858,15.887,5.575,21.298c4.247,6.212,10.351,9.319,18.313,9.319c8.049,0,14.067-2.84,18.048-8.52
			c3.538-4.881,5.309-11.714,5.309-20.5c0-8.697-1.814-15.795-5.441-21.299c-4.16-6.123-10.175-9.185-18.048-9.185
			c-8.052,0-14.113,2.796-18.181,8.387C575.274,295.551,573.416,302.384,573.416,310.992z"/>
		<path d="M729.748,251.686v6.538h-38.486v35.755h38.486v6.538h-38.486v38.69h38.486v6.537h-46.582v-94.058H729.748z"/>
		<path d="M764.915,348.28c-2.301,0-4.425-0.388-6.37-1.157c-1.947-0.774-3.649-1.862-5.109-3.269
			c-1.459-1.408-2.611-3.045-3.451-4.914c-0.842-1.868-1.261-3.913-1.261-6.137v-88.988h8.096v88.988
			c0,2.314,0.796,4.382,2.389,6.204c1.592,1.824,3.494,2.735,5.706,2.735c3.007,0,6.325-0.978,9.954-2.935v7.021
			C771.684,347.462,768.366,348.28,764.915,348.28z"/>
		<path d="M812.368,275.701c7.1,0,13.135,2.535,18.104,7.605c4.954,4.982,7.432,11.03,7.432,18.144c0,4.002-1.398,7.205-4.192,9.606
			c-2.796,2.402-6.321,3.602-10.577,3.602h-34.731c0.354,7.701,2.574,14.03,6.654,18.985c4.349,5.311,10.161,7.966,17.437,7.966
			c7.098,0,14.196-1.289,21.296-3.87v7.205c-6.922,2.135-14.022,3.202-21.296,3.202c-10.559,0-18.634-3.469-24.224-10.407
			c-5.309-6.491-7.962-15.076-7.962-25.749c0-10.406,2.521-18.855,7.564-25.349C793.553,279.349,801.718,275.701,812.368,275.701z
			 M829.809,301.45c0-4.803-1.732-9.206-5.192-13.208c-3.463-4.003-7.5-6.004-12.116-6.004c-7.189,0-12.958,2.535-17.308,7.605
			c-3.907,4.715-6.169,10.806-6.789,18.278h34.749c1.775,0,3.328-0.644,4.66-1.935C829.143,304.898,829.809,303.318,829.809,301.45z
			"/>
		<path d="M900.277,345.878c-6.283,1.601-12.342,2.402-18.182,2.402c-10.44,0-18.668-3.469-24.684-10.407
			c-5.752-6.581-8.626-15.164-8.626-25.749c0-10.494,2.873-19.122,8.626-25.883c6.105-7.025,14.332-10.54,24.684-10.54
			c6.016,0,12.077,0.846,18.182,2.535v6.938c-5.839-1.955-11.901-2.936-18.182-2.936c-7.786,0-13.98,2.973-18.579,8.918
			c-4.425,5.68-6.636,12.647-6.636,20.9c0,8.166,2.21,15.089,6.636,20.767c4.599,5.945,10.792,8.918,18.579,8.918
			c6.281,0,12.343-0.934,18.182-2.802V345.878z"/>
		<path d="M936.106,348.413c-2.302,0-4.425-0.38-6.371-1.134c-1.946-0.757-3.649-1.822-5.109-3.202
			c-1.46-1.378-2.61-3.002-3.45-4.87c-0.841-1.868-1.26-3.913-1.26-6.137v-48.43h-13.271v-6.537h13.271v-20.679h8.095v20.679h16.324
			v6.537h-16.324v48.317c0,2.308,0.796,4.372,2.389,6.189c1.593,1.82,3.494,2.729,5.707,2.729c3.096,0,6.457-0.934,10.086-2.802
			v6.804C943.094,347.567,939.733,348.413,936.106,348.413z"/>
		<path d="M985.74,282.506c-6.283,0-12.475,1.023-18.579,3.068v60.437h-8.095v-64.596c8.228-3.631,17.385-5.447,27.471-5.447
			c0.973,0,1.813,0,2.522,0c0.707,0,1.281,0.046,1.725,0.133v6.67c-1.24-0.087-2.278-0.154-3.119-0.2
			C986.822,282.529,986.181,282.506,985.74,282.506z"/>
		<path d="M1063.107,312.657c0,10.763-2.699,19.258-8.095,25.483c-5.574,6.671-13.625,10.006-24.153,10.006
			c-10.441,0-18.58-3.602-24.418-10.807c-5.574-6.758-8.36-15.52-8.36-26.283c0-10.494,2.741-18.989,8.227-25.483
			c5.839-6.671,13.977-10.006,24.418-10.006c10.263,0,18.314,3.648,24.153,10.94
			C1060.365,293.358,1063.107,302.074,1063.107,312.657z M1006.972,310.992c0,8.786,1.858,15.887,5.574,21.298
			c4.247,6.212,10.352,9.319,18.314,9.319c8.049,0,14.067-2.84,18.048-8.52c3.538-4.881,5.309-11.714,5.309-20.5
			c0-8.697-1.814-15.795-5.441-21.299c-4.159-6.123-10.175-9.185-18.049-9.185c-8.052,0-14.112,2.796-18.181,8.387
			C1008.83,295.551,1006.972,302.384,1006.972,310.992z M1037.495,243.949h8.096l-11.413,16.81h-6.503L1037.495,243.949z"/>
		<path d="M1077.042,346.011V283.84c14.366-5.247,24.254-7.872,29.667-7.872c3.725,0,7.137,0.613,10.241,1.839
			c3.105,1.226,5.744,2.939,7.917,5.137c2.174,2.199,3.857,4.855,5.056,7.967c1.196,3.114,1.796,6.537,1.796,10.273v44.827h-8.095
			v-44.827c0-2.668-0.444-5.136-1.327-7.405c-0.886-2.268-2.102-4.246-3.65-5.937c-1.549-1.689-3.406-3.002-5.573-3.936
			c-2.169-0.934-4.579-1.401-7.233-1.401c-6.548,0-13.449,1.734-20.703,5.203v58.302H1077.042z"/>
		<path d="M1152.817,243.949h8.096v8.138h-8.096V243.949z M1160.913,278.236v67.642h-8.096v-67.642H1160.913z"/>
		<path d="M1228.46,345.878c-6.283,1.601-12.342,2.402-18.182,2.402c-10.44,0-18.668-3.469-24.684-10.407
			c-5.752-6.581-8.626-15.164-8.626-25.749c0-10.494,2.874-19.122,8.626-25.883c6.104-7.025,14.333-10.54,24.684-10.54
			c6.016,0,12.077,0.846,18.182,2.535v6.938c-5.839-1.955-11.9-2.936-18.182-2.936c-7.787,0-13.98,2.973-18.579,8.918
			c-4.425,5.68-6.635,12.647-6.635,20.9c0,8.166,2.21,15.089,6.635,20.767c4.599,5.945,10.792,8.918,18.579,8.918
			c6.282,0,12.342-0.934,18.182-2.802V345.878z"/>
		<path d="M1302.51,312.657c0,10.763-2.699,19.258-8.095,25.483c-5.575,6.671-13.626,10.006-24.153,10.006
			c-10.44,0-18.579-3.602-24.419-10.807c-5.574-6.758-8.36-15.52-8.36-26.283c0-10.494,2.741-18.989,8.229-25.483
			c5.839-6.671,13.977-10.006,24.418-10.006c10.262,0,18.314,3.648,24.153,10.94C1299.766,293.358,1302.51,302.074,1302.51,312.657z
			 M1246.374,310.992c0,8.786,1.858,15.887,5.574,21.298c4.247,6.212,10.351,9.319,18.313,9.319c8.049,0,14.067-2.84,18.048-8.52
			c3.537-4.881,5.309-11.714,5.309-20.5c0-8.697-1.814-15.795-5.441-21.299c-4.16-6.123-10.175-9.185-18.048-9.185
			c-8.052,0-14.113,2.796-18.181,8.387C1248.232,295.551,1246.374,302.384,1246.374,310.992z"/>
	</g>
	<g>
		<g>
			<path d="M356.281,37.801c0-3.305,1.574-4.959,4.723-4.959h59.614c7.066,0,13.574,1.39,19.521,4.168
				c5.947,2.779,11.073,6.489,15.376,11.132c4.304,4.643,7.644,9.971,10.023,15.985c2.378,6.014,3.569,12.292,3.569,18.834
				c0,6.402-1.174,12.575-3.521,18.518c-2.347,5.945-5.639,11.22-9.877,15.827c-4.239,4.608-9.302,8.3-15.186,11.078
				c-5.885,2.78-12.331,4.168-19.336,4.168h-34.574v52.44c0,3.025-1.569,4.537-4.707,4.537h-21.023
				c-3.069,0-4.602-1.512-4.602-4.537V37.801z M438.461,82.803c0-2.89-0.561-5.727-1.684-8.514
				c-1.121-2.784-2.664-5.253-4.627-7.402c-1.962-2.15-4.311-3.895-7.046-5.234c-2.736-1.339-5.715-2.01-8.939-2.01h-29.551v46.32
				h29.551c3.155,0,6.099-0.633,8.834-1.903c2.734-1.269,5.1-2.979,7.1-5.129c1.997-2.15,3.558-4.618,4.679-7.404
				C437.9,88.743,438.461,85.834,438.461,82.803z"/>
			<path d="M494.923,37.907c0-3.376,1.539-5.065,4.618-5.065h101.176c1.82,0,3.112,0.513,3.883,1.537
				c0.77,1.024,1.155,2.312,1.155,3.864v18.638c0,1.271-0.438,2.4-1.312,3.39c-0.876,0.989-2.188,1.482-3.936,1.482h-74.623v31.97
				H583.4c1.399-0.14,2.519,0.158,3.359,0.897c0.839,0.739,1.259,1.988,1.259,3.746v19.097c0,1.266-0.351,2.393-1.05,3.377
				c-0.699,0.986-1.82,1.477-3.358,1.477h-57.726v38.301h77.352c1.958,0,3.253,0.424,3.884,1.271
				c0.629,0.847,0.944,2.153,0.944,3.917v19.274c0,2.966-1.54,4.448-4.618,4.448H499.542c-1.26,0-2.345-0.351-3.253-1.055
				c-0.91-0.703-1.365-1.828-1.365-3.376V37.907z"/>
			<path d="M633.148,37.801c0-3.305,1.538-4.959,4.617-4.959h64.233c7.066,0,13.678,1.337,19.837,4.01
				c6.156,2.674,11.526,6.296,16.11,10.867c4.582,4.574,8.187,9.955,10.81,16.144c2.625,6.191,3.937,12.767,3.937,19.731
				c0,4.854-0.666,9.496-1.995,13.928c-1.33,4.431-3.185,8.546-5.563,12.345c-2.379,3.799-5.213,7.228-8.501,10.288
				c-3.29,3.06-6.927,5.645-10.916,7.755l27.288,54.128c0.14,0.704,0.384,1.408,0.735,2.11c0.349,0.704,0.525,1.443,0.525,2.215
				c0,2.111-1.225,3.166-3.674,3.166h-24.349c-2.519,0-4.198-1.301-5.038-3.904l-25.399-50.646c-1.12,0-2.327,0.018-3.621,0.053
				c-1.296,0.036-3.08,0.052-5.353,0.052c-2.275,0-5.248,0-8.922,0c-3.673,0-8.415,0-14.221,0v49.908
				c0,3.025-1.611,4.537-4.828,4.537h-21.097c-1.4,0-2.518-0.369-3.358-1.108c-0.84-0.738-1.259-1.881-1.259-3.429V37.801z
				 M721.624,83.752c0-3.017-0.561-5.949-1.68-8.79c-1.119-2.842-2.694-5.388-4.723-7.633c-2.03-2.246-4.444-4.071-7.242-5.476
				c-2.799-1.403-5.843-2.211-9.131-2.421c-2.449-0.069-4.845-0.122-7.189-0.158c-2.345-0.035-4.775-0.053-7.294-0.053H663.69
				v48.958h27.708c1.398,0,2.71,0,3.935,0c1.223,0,2.536-0.07,3.936-0.211c3.288-0.211,6.313-0.983,9.079-2.316
				c2.763-1.332,5.124-3.104,7.084-5.317c1.958-2.21,3.479-4.738,4.565-7.58C721.081,89.912,721.624,86.911,721.624,83.752z"/>
			<path d="M867.825,74.626c-0.91,0-1.749-0.228-2.519-0.686c-0.771-0.457-1.645-1.072-2.624-1.847l-0.21-0.105
				c-1.33-1.335-3.043-2.813-5.143-4.431c-2.099-1.617-4.444-3.129-7.032-4.537c-2.59-1.407-5.371-2.601-8.344-3.587
				c-2.975-0.984-6-1.477-9.078-1.477c-3.92,0-7.383,0.44-10.391,1.319c-3.009,0.881-5.528,2.076-7.557,3.587
				c-2.03,1.513-3.568,3.289-4.618,5.329c-1.05,2.04-1.575,4.22-1.575,6.542c0,2.532,0.788,4.748,2.362,6.647
				c1.574,1.9,3.707,3.588,6.402,5.065c2.693,1.477,5.789,2.832,9.289,4.062c3.497,1.231,7.171,2.445,11.02,3.64
				c4.408,1.337,8.78,2.78,13.119,4.326c4.337,1.548,8.483,3.289,12.437,5.223c3.953,1.936,7.643,4.081,11.073,6.436
				c3.427,2.358,6.385,5.065,8.869,8.125c2.483,3.06,4.443,6.473,5.877,10.235c1.434,3.764,2.152,8.002,2.152,12.714
				c0,7.668-1.54,14.597-4.618,20.786c-3.081,6.191-7.331,11.484-12.753,15.88c-5.423,4.397-11.791,7.774-19.102,10.129
				c-7.313,2.356-15.166,3.534-23.563,3.534c-5.389,0-10.741-0.633-16.058-1.899c-5.319-1.266-10.427-3.06-15.324-5.381
				c-4.899-2.321-9.535-5.117-13.906-8.388c-4.374-3.271-8.275-6.945-11.703-11.026v0.105l-0.21-0.422
				c-1.54-1.758-2.31-3.376-2.31-4.854c0-0.773,0.211-1.512,0.63-2.216c0.419-0.702,1.049-1.477,1.889-2.321l3.463-3.481
				c1.05-0.914,2.168-1.934,3.358-3.06c1.189-1.124,2.378-2.145,3.569-3.06c1.188-0.914,2.291-1.688,3.306-2.321
				c1.014-0.633,1.837-0.95,2.467-0.95c0.979,0,1.889,0.317,2.729,0.95c0.839,0.633,1.538,1.231,2.099,1.794l0.42,0.422h-0.105
				c2.448,2.321,5.195,4.537,8.239,6.647c3.043,2.111,6.174,3.993,9.393,5.645c3.217,1.653,6.418,2.954,9.603,3.904
				c3.182,0.95,6.174,1.424,8.973,1.424c3.847,0,7.452-0.491,10.81-1.477c3.359-0.984,6.262-2.374,8.712-4.168
				c2.448-1.794,4.371-3.957,5.772-6.489c1.399-2.533,2.099-5.344,2.099-8.441c0-3.094-0.91-5.75-2.729-7.966
				c-1.821-2.216-4.198-4.15-7.138-5.803c-2.938-1.652-6.244-3.076-9.917-4.273c-3.673-1.195-7.365-2.321-11.073-3.376
				c-8.538-2.602-16.006-5.416-22.408-8.441c-6.402-3.024-11.738-6.419-16.005-10.182c-4.269-3.762-7.469-7.983-9.603-12.661
				c-2.136-4.677-3.201-9.935-3.201-15.774c0-6.542,1.312-12.503,3.936-17.884c2.624-5.381,6.35-9.988,11.177-13.822
				c4.829-3.833,10.635-6.822,17.423-8.969c6.786-2.145,14.379-3.218,22.775-3.218c6.366,0,12.839,1.002,19.417,3.007
				c6.576,2.005,12.663,4.766,18.262,8.283c1.68,1.055,3.393,2.253,5.143,3.587c1.748,1.337,3.358,2.691,4.827,4.063
				c1.469,1.372,2.677,2.709,3.621,4.009c0.944,1.303,1.417,2.41,1.417,3.324c0,0.844-0.21,1.706-0.63,2.585
				c-0.42,0.881-0.944,1.672-1.574,2.374l-3.148,3.376v-0.105c-1.05,1.126-2.135,2.286-3.253,3.482
				c-1.121,1.197-2.24,2.268-3.359,3.218c-1.12,0.949-2.135,1.741-3.044,2.374C869.224,74.309,868.455,74.626,867.825,74.626z"/>
			<path d="M917.781,37.907c0-3.376,1.539-5.065,4.618-5.065h101.177c1.819,0,3.112,0.513,3.883,1.537
				c0.77,1.024,1.155,2.312,1.155,3.864v18.638c0,1.271-0.438,2.4-1.312,3.39c-0.876,0.989-2.188,1.482-3.936,1.482h-74.623v31.97
				h57.515c1.399-0.14,2.519,0.158,3.359,0.897c0.839,0.739,1.259,1.988,1.259,3.746v19.097c0,1.266-0.352,2.393-1.05,3.377
				c-0.7,0.986-1.82,1.477-3.358,1.477h-57.726v38.301h77.352c1.958,0,3.254,0.424,3.884,1.271c0.629,0.847,0.944,2.153,0.944,3.917
				v19.274c0,2.966-1.54,4.448-4.618,4.448H922.399c-1.26,0-2.345-0.351-3.253-1.055c-0.91-0.703-1.365-1.828-1.365-3.376V37.907z"
				/>
			<path d="M1049.813,111.344c0-7.385,0.945-14.524,2.834-21.419c1.888-6.893,4.582-13.329,8.081-19.309
				c3.498-5.978,7.678-11.43,12.542-16.354c4.862-4.923,10.267-9.127,16.215-12.609c5.947-3.481,12.333-6.189,19.154-8.124
				c6.822-1.934,13.941-2.902,21.358-2.902c7.347,0,14.432,0.968,21.253,2.902c6.822,1.935,13.207,4.643,19.155,8.124
				c5.946,3.482,11.369,7.686,16.268,12.609c4.897,4.925,9.078,10.377,12.542,16.354c3.463,5.98,6.156,12.416,8.082,19.309
				c1.924,6.895,2.886,14.069,2.886,21.524c0,7.457-0.962,14.597-2.886,21.419c-1.925,6.823-4.618,13.225-8.082,19.203
				c-3.464,5.98-7.645,11.414-12.542,16.302c-4.898,4.89-10.321,9.074-16.268,12.556c-5.948,3.482-12.333,6.173-19.155,8.072
				c-6.822,1.899-13.942,2.848-21.358,2.848c-7.417,0-14.536-0.949-21.358-2.848c-6.822-1.899-13.208-4.606-19.154-8.124
				c-5.949-3.517-11.354-7.719-16.216-12.609c-4.865-4.888-9.026-10.304-12.49-16.249c-3.463-5.943-6.141-12.345-8.029-19.203
				C1050.758,125.957,1049.813,118.801,1049.813,111.344z M1080.145,111.133c0,7.106,1.276,13.753,3.831,19.942
				c2.554,6.191,6.052,11.571,10.496,16.143c4.443,4.574,9.69,8.195,15.743,10.868c6.052,2.674,12.611,4.01,19.679,4.01
				c6.997,0,13.521-1.336,19.575-4.01c6.051-2.673,11.316-6.294,15.795-10.868c4.477-4.572,7.993-9.952,10.548-16.143
				c2.553-6.189,3.831-12.836,3.831-19.942c0-7.033-1.278-13.646-3.831-19.837c-2.555-6.189-6.071-11.588-10.548-16.196
				c-4.479-4.606-9.744-8.247-15.795-10.921c-6.054-2.672-12.578-4.01-19.575-4.01c-7.068,0-13.627,1.337-19.679,4.01
				c-6.053,2.674-11.3,6.314-15.743,10.921c-4.444,4.608-7.942,10.007-10.496,16.196
				C1081.421,97.488,1080.145,104.1,1080.145,111.133z"/>
		</g>
	</g>
	<g>
		<polygon fill="#4F0107" points="2.5,179.911 154.613,88.325 154.613,3 2.5,91.457 		"/>
		<polygon fill="#4F0107" points="154.613,276.195 2.5,187.739 2.5,276.195 154.613,367 314.527,277.76 314.527,187.739 		"/>
		<polygon fill="#4F0107" points="233.399,132.16 233.399,39.792 314.527,91.457 314.527,179.911 		"/>
	</g>
</g>
</svg>
