<?xml version="1.0" encoding="utf-8"?>
<!-- Generator: Adobe Illustrator 24.1.0, SVG Export Plug-In . SVG Version: 6.00 Build 0)  -->
<svg version="1.1" id="Capa_1" xmlns="http://www.w3.org/2000/svg" xmlns:xlink="http://www.w3.org/1999/xlink" x="0px" y="0px"
	 viewBox="0 0 1304 368" enable-background="new 0 0 1304 368" xml:space="preserve">
<g>
	<g>
		<g>
			<path d="M490.138,297.09c4.194,0,8.215,0.734,12.065,2.2v3.625c-3.935-1.769-7.957-2.653-12.065-2.653
				c-5.708,0-10.401,2.025-14.076,6.076c-3.676,3.964-5.514,8.875-5.514,14.734c0,5.859,1.837,10.75,5.514,14.669
				c3.718,4.093,8.411,6.141,14.076,6.141c3.545,0,6.983-0.647,10.313-1.937v-18H489.1v-3.172h15.309v23.173
				c-4.499,2.07-9.255,3.106-14.271,3.106c-6.833,0-12.455-2.266-16.865-6.796c-4.454-4.572-6.681-10.29-6.681-17.152
				c0-6.816,2.227-12.513,6.681-17.087C477.77,299.399,483.392,297.09,490.138,297.09z"/>
			<path d="M528.382,309.906c3.47,0,6.42,1.23,8.85,3.689c2.421,2.417,3.632,5.351,3.632,8.802c0,1.942-0.683,3.496-2.049,4.662
				c-1.366,1.164-3.089,1.747-5.171,1.747h-16.975c0.173,3.735,1.257,6.806,3.252,9.211c2.125,2.576,4.966,3.865,8.523,3.865
				c3.469,0,6.939-0.626,10.409-1.878v3.495c-3.383,1.036-6.854,1.553-10.409,1.553c-5.161,0-9.108-1.683-11.841-5.048
				c-2.594-3.149-3.892-7.315-3.892-12.493c0-5.048,1.232-9.148,3.697-12.298C519.185,311.676,523.176,309.906,528.382,309.906z
				 M536.907,322.397c0-2.329-0.846-4.465-2.539-6.406c-1.692-1.942-3.666-2.913-5.922-2.913c-3.514,0-6.333,1.229-8.46,3.689
				c-1.91,2.288-3.016,5.242-3.318,8.867h16.985c0.867,0,1.626-0.312,2.277-0.938C536.581,324.071,536.907,323.304,536.907,322.397z
				"/>
			<path d="M565.059,314.566c-2.326-1.035-4.801-1.554-7.428-1.554c-4.995,0-7.492,1.878-7.492,5.632
				c0,2.029,1.441,3.776,4.323,5.243l8.131,4.143c2.896,1.985,4.346,4.488,4.346,7.508c0,3.236-1.32,5.718-3.957,7.443
				c-2.206,1.337-4.822,2.006-7.849,2.006c-3.547,0-6.552-0.452-9.017-1.358v-3.819c2.854,1.425,5.773,2.137,8.757,2.137
				c2.119,0,3.935-0.518,5.449-1.554c1.687-1.166,2.529-2.654,2.529-4.467c0-2.287-1.441-4.207-4.323-5.761
				c-1.333-0.733-2.667-1.423-4.001-2.07c-1.333-0.647-2.646-1.359-3.935-2.137c-1.537-0.862-2.656-1.886-3.358-3.074
				c-0.703-1.186-1.054-2.469-1.054-3.851c0-3.149,1.125-5.523,3.374-7.12c1.988-1.381,4.518-2.071,7.589-2.071
				c2.725,0,5.362,0.453,7.914,1.359V314.566z"/>
			<path d="M584.842,345.182c-1.125,0-2.163-0.185-3.114-0.55c-0.952-0.368-1.784-0.885-2.497-1.553
				c-0.713-0.669-1.276-1.457-1.686-2.363c-0.412-0.906-0.617-1.898-0.617-2.977v-23.496h-6.487v-3.172h6.487v-10.033h3.957v10.033
				h7.979v3.172h-7.979v23.442c0,1.119,0.39,2.12,1.168,3.002c0.778,0.883,1.707,1.324,2.789,1.324c1.513,0,3.156-0.453,4.93-1.359
				v3.301C588.258,344.771,586.615,345.182,584.842,345.182z"/>
			<path d="M596.194,294.5h3.958v3.949h-3.958V294.5z M600.151,311.136v32.815h-3.958v-32.815H600.151z"/>
			<path d="M639.719,327.834c0,5.223-1.319,9.344-3.957,12.363c-2.725,3.236-6.66,4.854-11.806,4.854
				c-5.103,0-9.081-1.748-11.936-5.243c-2.725-3.278-4.086-7.529-4.086-12.751c0-5.091,1.34-9.212,4.022-12.363
				c2.853-3.237,6.832-4.854,11.935-4.854c5.017,0,8.952,1.77,11.806,5.307C638.378,318.472,639.719,322.701,639.719,327.834z
				 M612.28,327.027c0,4.263,0.908,7.708,2.725,10.334c2.075,3.014,5.06,4.521,8.952,4.521c3.934,0,6.875-1.378,8.821-4.134
				c1.73-2.368,2.595-5.683,2.595-9.946c0-4.22-0.887-7.664-2.659-10.333c-2.033-2.969-4.973-4.456-8.822-4.456
				c-3.935,0-6.898,1.357-8.886,4.069C613.188,319.536,612.28,322.851,612.28,327.027z M627.2,294.5h3.957l-5.578,8.156h-3.179
				L627.2,294.5z"/>
			<path d="M646.53,344.016v-30.162c7.021-2.546,11.856-3.819,14.501-3.819c1.82,0,3.488,0.297,5.005,0.892
				c1.518,0.595,2.808,1.426,3.87,2.492c1.063,1.067,1.885,2.355,2.471,3.866c0.585,1.511,0.878,3.17,0.878,4.983v21.748h-3.957
				v-21.748c0-1.294-0.216-2.492-0.648-3.593c-0.433-1.1-1.027-2.06-1.784-2.88c-0.757-0.819-1.666-1.457-2.725-1.909
				c-1.06-0.454-2.238-0.68-3.536-0.68c-3.2,0-6.573,0.842-10.119,2.524v28.285H646.53z"/>
			<path d="M715.641,309.97c3.19,0,6.337,0.561,9.442,1.683v-17.088h3.957v47.704c-4.239,1.811-8.326,2.718-12.26,2.718
				c-5.147,0-9.298-1.704-12.455-5.114c-3.201-3.451-4.8-7.701-4.8-12.75c0-5.049,1.426-9.169,4.281-12.363
				C706.607,311.567,710.553,309.97,715.641,309.97z M716.028,313.142c-3.967,0-7.005,1.359-9.118,4.077
				c-2.027,2.547-3.04,5.848-3.04,9.904c0,4.057,1.208,7.487,3.622,10.292c2.5,3.02,5.733,4.531,9.701,4.531
				c2.242,0,4.871-0.56,7.889-1.683V314.76C722.28,313.682,719.262,313.142,716.028,313.142z"/>
			<path d="M752.169,309.906c3.47,0,6.419,1.23,8.85,3.689c2.421,2.417,3.632,5.351,3.632,8.802c0,1.942-0.683,3.496-2.049,4.662
				c-1.366,1.164-3.089,1.747-5.17,1.747h-16.976c0.173,3.735,1.257,6.806,3.252,9.211c2.125,2.576,4.966,3.865,8.523,3.865
				c3.469,0,6.938-0.626,10.409-1.878v3.495c-3.383,1.036-6.854,1.553-10.409,1.553c-5.162,0-9.108-1.683-11.841-5.048
				c-2.595-3.149-3.892-7.315-3.892-12.493c0-5.048,1.233-9.148,3.698-12.298C742.972,311.676,746.963,309.906,752.169,309.906z
				 M760.694,322.397c0-2.329-0.847-4.465-2.538-6.406c-1.692-1.942-3.666-2.913-5.922-2.913c-3.514,0-6.333,1.229-8.46,3.689
				c-1.909,2.288-3.015,5.242-3.318,8.867h16.985c0.867,0,1.627-0.312,2.277-0.938C760.369,324.071,760.694,323.304,760.694,322.397
				z"/>
			<path d="M803.766,343.887h-3.958v-42.46h-13.816v-3.172h31.59v3.172h-13.816V343.887z"/>
			<path d="M836.328,313.207c-3.071,0-6.098,0.497-9.081,1.489v29.32h-3.957v-31.338c4.022-1.762,8.498-2.643,13.427-2.643
				c0.476,0,0.886,0,1.232,0s0.626,0.022,0.843,0.064v3.236c-0.606-0.042-1.114-0.074-1.524-0.096
				C836.857,313.218,836.544,313.207,836.328,313.207z"/>
			<path d="M868.372,341.168c-3.935,2.633-8.476,3.95-13.622,3.95c-3.59,0-6.573-0.885-8.952-2.655
				c-2.292-1.811-3.438-4.141-3.438-6.989c0-3.15,1.362-5.674,4.087-7.574c3.07-2.156,7.546-3.236,13.428-3.236h4.541v-4.57
				c0-1.845-0.692-3.454-2.076-4.827c-1.384-1.416-3.114-2.124-5.189-2.124c-3.979,0-7.633,0.648-10.962,1.942v-3.495
				c3.372-1.079,7.265-1.619,11.676-1.619c2.94,0,5.426,0.971,7.459,2.913c2.032,1.899,3.048,4.294,3.048,7.185V341.168z
				 M864.416,327.834h-4.152c-4.713,0-8.281,0.817-10.703,2.45c-1.989,1.332-2.983,3.05-2.983,5.155
				c0,1.846,0.756,3.393,2.271,4.638c1.513,1.246,3.567,1.869,6.162,1.869c3.459,0,6.594-0.794,9.406-2.385V327.834z"/>
			<path d="M891.14,309.97c5.06,0,9.059,1.619,12,4.854c2.767,3.064,4.151,7.163,4.151,12.298c0,5.049-1.579,9.278-4.735,12.686
				c-3.287,3.453-7.482,5.178-12.585,5.178c-3.936,0-8.001-0.906-12.195-2.718v-47.704h3.957l-0.065,17.088
				C884.825,310.532,887.982,309.97,891.14,309.97z M881.734,340.263c3.104,1.123,5.733,1.683,7.889,1.683
				c4.01,0,7.264-1.511,9.766-4.531c2.371-2.761,3.556-6.192,3.556-10.292c0-4.099-0.992-7.4-2.975-9.904
				c-2.2-2.718-5.26-4.077-9.183-4.077c-3.19,0-6.209,0.54-9.054,1.618V340.263z"/>
			<path d="M938.946,341.168c-3.935,2.633-8.476,3.95-13.622,3.95c-3.59,0-6.574-0.885-8.952-2.655
				c-2.293-1.811-3.438-4.141-3.438-6.989c0-3.15,1.362-5.674,4.086-7.574c3.071-2.156,7.546-3.236,13.428-3.236h4.541v-4.57
				c0-1.845-0.692-3.454-2.076-4.827c-1.384-1.416-3.113-2.124-5.189-2.124c-3.979,0-7.632,0.648-10.962,1.942v-3.495
				c3.373-1.079,7.265-1.619,11.676-1.619c2.94,0,5.426,0.971,7.46,2.913c2.032,1.899,3.048,4.294,3.048,7.185V341.168z
				 M934.989,327.834h-4.151c-4.714,0-8.281,0.817-10.703,2.45c-1.989,1.332-2.984,3.05-2.984,5.155
				c0,1.846,0.756,3.393,2.271,4.638c1.513,1.246,3.568,1.869,6.163,1.869c3.459,0,6.594-0.794,9.405-2.385V327.834z"/>
			<path d="M952.762,354.373c0,2.287-0.843,4.211-2.53,5.777c-1.687,1.585-3.697,2.378-6.032,2.378
				c-1.427,0-2.811-0.197-4.152-0.594v-3.547c1.297,0.647,2.682,0.971,4.152,0.971c0.648,0,1.242-0.142,1.784-0.421
				c0.539-0.282,1.026-0.647,1.46-1.1c0.432-0.453,0.767-0.982,1.005-1.586c0.237-0.604,0.357-1.23,0.357-1.877V311.07h3.956
				V354.373z M948.806,294.5h3.956v3.949h-3.956V294.5z"/>
			<path d="M992.395,327.834c0,5.223-1.32,9.344-3.957,12.363c-2.725,3.236-6.661,4.854-11.806,4.854
				c-5.103,0-9.082-1.748-11.936-5.243c-2.725-3.278-4.086-7.529-4.086-12.751c0-5.091,1.339-9.212,4.021-12.363
				c2.854-3.237,6.832-4.854,11.936-4.854c5.016,0,8.952,1.77,11.806,5.307C991.054,318.472,992.395,322.701,992.395,327.834z
				 M964.956,327.027c0,4.263,0.908,7.708,2.725,10.334c2.075,3.014,5.059,4.521,8.952,4.521c3.935,0,6.875-1.378,8.822-4.134
				c1.729-2.368,2.595-5.683,2.595-9.946c0-4.22-0.887-7.664-2.659-10.333c-2.034-2.969-4.974-4.456-8.822-4.456
				c-3.936,0-6.898,1.357-8.887,4.069C965.864,319.536,964.956,322.851,964.956,327.027z"/>
			<path d="M1016.525,314.566c-2.325-1.035-4.801-1.554-7.427-1.554c-4.995,0-7.492,1.878-7.492,5.632
				c0,2.029,1.441,3.776,4.324,5.243l8.131,4.143c2.896,1.985,4.346,4.488,4.346,7.508c0,3.236-1.319,5.718-3.957,7.443
				c-2.206,1.337-4.823,2.006-7.849,2.006c-3.547,0-6.552-0.452-9.017-1.358v-3.819c2.854,1.425,5.773,2.137,8.757,2.137
				c2.118,0,3.935-0.518,5.449-1.554c1.686-1.166,2.529-2.654,2.529-4.467c0-2.287-1.441-4.207-4.323-5.761
				c-1.333-0.733-2.667-1.423-4.001-2.07c-1.333-0.647-2.646-1.359-3.936-2.137c-1.537-0.862-2.655-1.886-3.358-3.074
				c-0.703-1.186-1.053-2.469-1.053-3.851c0-3.149,1.124-5.523,3.373-7.12c1.988-1.381,4.518-2.071,7.59-2.071
				c2.724,0,5.361,0.453,7.914,1.359V314.566z"/>
			<path d="M1057.938,309.97c3.19,0,6.337,0.561,9.442,1.683v-17.088h3.957v47.704c-4.239,1.811-8.326,2.718-12.26,2.718
				c-5.147,0-9.298-1.704-12.455-5.114c-3.201-3.451-4.8-7.701-4.8-12.75c0-5.049,1.427-9.169,4.281-12.363
				C1048.905,311.567,1052.85,309.97,1057.938,309.97z M1058.326,313.142c-3.967,0-7.005,1.359-9.118,4.077
				c-2.027,2.547-3.04,5.848-3.04,9.904c0,4.057,1.208,7.487,3.622,10.292c2.5,3.02,5.733,4.531,9.701,4.531
				c2.242,0,4.871-0.56,7.889-1.683V314.76C1064.577,313.682,1061.559,313.142,1058.326,313.142z"/>
			<path d="M1094.467,309.906c3.47,0,6.419,1.23,8.85,3.689c2.42,2.417,3.632,5.351,3.632,8.802c0,1.942-0.683,3.496-2.05,4.662
				c-1.366,1.164-3.089,1.747-5.17,1.747h-16.976c0.173,3.735,1.257,6.806,3.252,9.211c2.126,2.576,4.966,3.865,8.523,3.865
				c3.469,0,6.938-0.626,10.409-1.878v3.495c-3.383,1.036-6.854,1.553-10.409,1.553c-5.161,0-9.108-1.683-11.841-5.048
				c-2.595-3.149-3.892-7.315-3.892-12.493c0-5.048,1.233-9.148,3.698-12.298C1085.27,311.676,1089.26,309.906,1094.467,309.906z
				 M1102.991,322.397c0-2.329-0.847-4.465-2.538-6.406c-1.692-1.942-3.666-2.913-5.922-2.913c-3.514,0-6.334,1.229-8.461,3.689
				c-1.908,2.288-3.015,5.242-3.317,8.867h16.985c0.867,0,1.627-0.312,2.277-0.938
				C1102.666,324.071,1102.991,323.304,1102.991,322.397z"/>
			<path d="M1155.339,297.09c4.194,0,8.216,0.734,12.065,2.2v3.625c-3.937-1.769-7.957-2.653-12.065-2.653
				c-5.708,0-10.401,2.025-14.077,6.076c-3.676,3.964-5.514,8.875-5.514,14.734c0,5.859,1.838,10.75,5.514,14.669
				c3.719,4.093,8.411,6.141,14.077,6.141c3.546,0,6.983-0.647,10.313-1.937v-18h-11.352v-3.172h15.309v23.173
				c-4.498,2.07-9.255,3.106-14.271,3.106c-6.833,0-12.455-2.266-16.866-6.796c-4.454-4.572-6.681-10.29-6.681-17.152
				c0-6.816,2.227-12.513,6.681-17.087C1142.971,299.399,1148.592,297.09,1155.339,297.09z"/>
			<path d="M1193.415,313.207c-3.071,0-6.098,0.497-9.081,1.489v29.32h-3.957v-31.338c4.021-1.762,8.497-2.643,13.427-2.643
				c0.476,0,0.887,0,1.233,0c0.346,0,0.626,0.022,0.843,0.064v3.236c-0.606-0.042-1.113-0.074-1.524-0.096
				C1193.944,313.218,1193.631,313.207,1193.415,313.207z"/>
			<path d="M1225.458,341.168c-3.935,2.633-8.476,3.95-13.622,3.95c-3.59,0-6.573-0.885-8.951-2.655
				c-2.293-1.811-3.438-4.141-3.438-6.989c0-3.15,1.361-5.674,4.086-7.574c3.07-2.156,7.546-3.236,13.428-3.236h4.541v-4.57
				c0-1.845-0.692-3.454-2.076-4.827c-1.384-1.416-3.113-2.124-5.189-2.124c-3.979,0-7.633,0.648-10.962,1.942v-3.495
				c3.372-1.079,7.265-1.619,11.676-1.619c2.94,0,5.427,0.971,7.46,2.913c2.032,1.899,3.048,4.294,3.048,7.185V341.168z
				 M1221.502,327.834h-4.152c-4.713,0-8.281,0.817-10.703,2.45c-1.988,1.332-2.983,3.05-2.983,5.155
				c0,1.846,0.757,3.393,2.271,4.638c1.514,1.246,3.567,1.869,6.162,1.869c3.46,0,6.595-0.794,9.406-2.385V327.834z"/>
			<path d="M1249.423,309.97c3.189,0,6.337,0.561,9.441,1.683v-17.088h3.957v47.704c-4.239,1.811-8.325,2.718-12.26,2.718
				c-5.147,0-9.298-1.704-12.455-5.114c-3.2-3.451-4.8-7.701-4.8-12.75c0-5.049,1.427-9.169,4.281-12.363
				C1240.39,311.567,1244.334,309.97,1249.423,309.97z M1249.811,313.142c-3.967,0-7.006,1.359-9.118,4.077
				c-2.026,2.547-3.04,5.848-3.04,9.904c0,4.057,1.208,7.487,3.622,10.292c2.5,3.02,5.733,4.531,9.7,4.531
				c2.242,0,4.871-0.56,7.89-1.683V314.76C1256.062,313.682,1253.043,313.142,1249.811,313.142z"/>
			<path d="M1302,327.834c0,5.223-1.319,9.344-3.956,12.363c-2.725,3.236-6.661,4.854-11.807,4.854
				c-5.103,0-9.081-1.748-11.936-5.243c-2.725-3.278-4.086-7.529-4.086-12.751c0-5.091,1.339-9.212,4.021-12.363
				c2.854-3.237,6.832-4.854,11.936-4.854c5.016,0,8.952,1.77,11.806,5.307C1300.659,318.472,1302,322.701,1302,327.834z
				 M1274.562,327.027c0,4.263,0.908,7.708,2.725,10.334c2.075,3.014,5.06,4.521,8.951,4.521c3.935,0,6.876-1.378,8.822-4.134
				c1.729-2.368,2.595-5.683,2.595-9.946c0-4.22-0.887-7.664-2.659-10.333c-2.034-2.969-4.974-4.456-8.822-4.456
				c-3.936,0-6.898,1.357-8.887,4.069C1275.47,319.536,1274.562,322.851,1274.562,327.027z"/>
		</g>
	</g>
	<g>
		<g>
			<path d="M472.566,64.522c0-3.71,1.779-5.564,5.339-5.564h67.391c7.988,0,15.344,1.559,22.068,4.676
				c6.722,3.119,12.518,7.281,17.382,12.49c4.865,5.209,8.641,11.187,11.331,17.936c2.688,6.747,4.034,13.792,4.034,21.132
				c0,7.182-1.328,14.108-3.981,20.778c-2.653,6.669-6.375,12.589-11.166,17.757c-4.792,5.17-10.515,9.314-17.166,12.431
				c-6.654,3.118-13.94,4.676-21.859,4.676h-39.083v58.839c0,3.394-1.775,5.091-5.321,5.091h-23.766
				c-3.469,0-5.202-1.697-5.202-5.091V64.522z M565.465,115.015c0-3.244-0.633-6.426-1.902-9.552
				c-1.268-3.126-3.012-5.895-5.232-8.307c-2.219-2.412-4.874-4.369-7.966-5.873c-3.092-1.502-6.461-2.254-10.105-2.254h-33.406V141
				h33.406c3.567,0,6.894-0.709,9.986-2.133c3.09-1.425,5.766-3.344,8.025-5.756c2.258-2.412,4.023-5.181,5.29-8.308
				C564.832,121.679,565.465,118.415,565.465,115.015z"/>
			<path d="M622.294,147.038c0-8.287,1.068-16.296,3.204-24.033c2.135-7.733,5.179-14.955,9.135-21.664
				c3.955-6.708,8.68-12.826,14.178-18.35c5.497-5.524,11.608-10.242,18.331-14.148c6.722-3.907,13.941-6.944,21.653-9.116
				c7.711-2.17,15.759-3.255,24.144-3.255c8.306,0,16.314,1.086,24.026,3.255c7.711,2.172,14.928,5.209,21.652,9.116
				c6.722,3.906,12.852,8.624,18.39,14.148c5.536,5.524,10.263,11.642,14.178,18.35c3.916,6.709,6.96,13.931,9.136,21.664
				c2.174,7.736,3.262,15.787,3.262,24.153c0,8.366-1.088,16.378-3.262,24.032c-2.176,7.656-5.221,14.839-9.136,21.546
				c-3.915,6.71-8.642,12.806-14.178,18.292c-5.537,5.486-11.668,10.18-18.39,14.087c-6.724,3.908-13.941,6.927-21.652,9.058
				c-7.712,2.131-15.762,3.196-24.146,3.196c-8.385,0-16.432-1.065-24.145-3.196c-7.711-2.131-14.93-5.169-21.652-9.117
				c-6.724-3.945-12.834-8.661-18.331-14.147c-5.499-5.484-10.204-11.561-14.119-18.23c-3.915-6.668-6.941-13.851-9.076-21.547
				C623.362,163.436,622.294,155.405,622.294,147.038z M656.583,146.802c0,7.972,1.441,15.432,4.33,22.376
				c2.886,6.947,6.841,12.984,11.865,18.113c5.022,5.131,10.954,9.196,17.797,12.195c6.84,3,14.255,4.498,22.245,4.498
				c7.909,0,15.286-1.498,22.128-4.498c6.841-2.999,12.793-7.064,17.857-12.195c5.06-5.128,9.036-11.166,11.924-18.113
				c2.886-6.944,4.33-14.403,4.33-22.376c0-7.892-1.444-15.31-4.33-22.257c-2.888-6.943-6.863-13.003-11.924-18.173
				c-5.063-5.168-11.016-9.252-17.857-12.252c-6.842-3-14.219-4.5-22.128-4.5c-7.99,0-15.405,1.5-22.245,4.5
				c-6.843,3-12.776,7.084-17.797,12.252c-5.024,5.169-8.978,11.229-11.865,18.173C658.024,131.492,656.583,138.91,656.583,146.802z
				 M709.261,7.577c0.632-1.735,1.522-2.999,2.67-3.789c1.146-0.788,2.392-1.183,3.737-1.183h21.119
				c1.264,0,2.154,0.295,2.669,0.888c0.514,0.591,0.772,1.323,0.772,2.19c0,0.633-0.059,1.323-0.178,2.072
				c-0.119,0.75-0.337,1.479-0.652,2.189l-11.271,25.099c-1.504,3.315-3.601,4.972-6.289,4.972h-18.508
				c-1.346,0-2.215-0.314-2.61-0.947c-0.397-0.631-0.594-1.38-0.594-2.25c0-0.788,0.039-1.578,0.119-2.368
				c0.078-0.788,0.315-1.617,0.712-2.486L709.261,7.577z"/>
			<path d="M834.906,64.166c0-1.42,0.473-2.643,1.417-3.669c0.945-1.025,2.287-1.539,4.022-1.539h23.528
				c1.417,0,2.66,0.455,3.725,1.361c1.064,0.908,1.596,2.19,1.596,3.847v138.159h74.273c1.424,0,2.648,0.495,3.678,1.481
				c1.027,0.987,1.542,2.308,1.542,3.966v21.665c0,1.42-0.474,2.664-1.423,3.729c-0.95,1.066-2.215,1.598-3.797,1.598H840.108
				c-3.469,0-5.202-1.735-5.202-5.209V64.166z"/>
			<path d="M1005.636,163.376c0,6.63,0.949,12.591,2.847,17.876c1.898,5.289,4.568,9.767,8.01,13.438
				c3.44,3.669,7.552,6.472,12.338,8.405c4.785,1.936,10.103,2.901,15.958,2.901c6.169,0,11.706-1.025,16.611-3.078
				c4.904-2.052,9.036-4.952,12.398-8.702c3.362-3.747,5.933-8.246,7.712-13.496c1.781-5.248,2.669-11.029,2.669-17.345v-99.21
				c0-1.42,0.513-2.643,1.538-3.669c1.021-1.025,2.324-1.539,3.902-1.539h22.937c1.654,0,3.053,0.513,4.196,1.539
				c1.143,1.027,1.715,2.249,1.715,3.669v100.511c0,12.236-1.976,22.909-5.928,32.024c-3.953,9.116-9.286,16.714-16.004,22.79
				c-6.719,6.078-14.542,10.617-23.472,13.614c-8.932,3-18.375,4.5-28.334,4.5c-9.958,0-19.404-1.599-28.333-4.796
				c-8.932-3.196-16.755-7.873-23.474-14.027c-6.719-6.158-12.052-13.773-16.004-22.851c-3.952-9.075-5.927-19.493-5.927-31.255
				V64.166c0-1.261,0.454-2.445,1.365-3.552c0.908-1.104,2.076-1.656,3.5-1.656h24.204c1.187,0,2.412,0.513,3.678,1.539
				c1.264,1.027,1.898,2.249,1.898,3.669V163.376z"/>
			<path d="M1139.94,230.62c0.79-1.261,1.581-2.546,2.374-3.848c0.789-1.302,1.619-2.622,2.492-3.965l52.084-76.833
				c-9.57-14.207-19.042-28.254-28.414-42.146c-9.374-13.89-18.254-27.032-26.637-39.424l-0.594-0.829
				c-0.712-1.184-1.067-2.09-1.067-2.722c0-0.869,0.433-1.362,1.305-1.48c0.87-0.119,1.858-0.256,2.966-0.414h28.001
				c1.739,0,3.183,0.374,4.329,1.124c1.147,0.751,2.315,1.994,3.501,3.729l35.95,53.275l36.188-53.275
				c1.264-1.735,2.471-2.978,3.617-3.729c1.146-0.75,2.591-1.124,4.332-1.124h28.237c1.264,0.079,2.214,0.257,2.848,0.532
				c0.631,0.278,0.949,0.811,0.949,1.599c0,0.71-0.476,1.776-1.424,3.197c-8.466,12.392-17.44,25.554-26.933,39.481
				c-9.492,13.931-18.983,28-28.476,42.207l56.001,82.635c0.712,1.105,1.166,2.033,1.365,2.782c0.196,0.751,0.296,1.323,0.296,1.716
				c0,1.107-0.871,1.658-2.609,1.658h-29.899c-1.108,0-2.058-0.196-2.848-0.591c-0.791-0.395-1.542-0.949-2.254-1.658
				c-0.712-0.711-1.405-1.578-2.076-2.604c-0.674-1.025-1.444-2.17-2.314-3.434c-5.932-8.681-11.767-17.323-17.499-25.927
				c-5.736-8.602-11.568-17.244-17.501-25.927c-6.329,9.314-12.597,18.608-18.806,27.88c-6.21,9.275-12.439,18.568-18.688,27.881
				c-1.739,2.92-3.955,4.38-6.644,4.38h-30.136c-1.741,0-2.609-0.591-2.609-1.775c0-0.238,0.078-0.67,0.236-1.303
				C1139.743,231.055,1139.861,230.7,1139.94,230.62z"/>
		</g>
	</g>
	<polygon fill="#2169A2" points="2,275.883 2,94.438 180.686,4.473 364.921,94.438 364.921,275.883 182.617,366.605 83.024,316.707 
		83.024,136.773 184.426,88.125 283.897,138.289 283.897,233.545 182.617,284.956 162.012,275.503 162.012,181.815 182.617,170.04 
		202.873,182.136 202.873,230.521 243.384,210.866 243.384,159.456 182.617,127.704 124.613,158.877 124.38,294.783 
		182.617,322.758 324.407,254.714 324.407,115.607 182.617,46.054 42.512,115.607 42.512,295.541 	"/>
</g>
</svg>
