<?xml version="1.0" encoding="utf-8"?>
<!-- Generator: Adobe Illustrator 24.1.0, SVG Export Plug-In . SVG Version: 6.00 Build 0)  -->
<svg version="1.1" id="Capa_1" xmlns="http://www.w3.org/2000/svg" xmlns:xlink="http://www.w3.org/1999/xlink" x="0px" y="0px"
	 viewBox="0 0 1304 368" enable-background="new 0 0 1304 368" xml:space="preserve">
<g>
	<g>
		<g>
			<g>
				<path d="M378.178,200.958c0-1.799,0.835-2.699,2.509-2.699h34.889c3.838,0,7.43,0.727,10.774,2.183
					c3.344,1.456,6.261,3.427,8.751,5.915c2.489,2.489,4.446,5.419,5.872,8.787c1.425,3.371,2.138,6.951,2.138,10.741
					c0,2.642-0.361,5.169-1.083,7.581c-0.722,2.412-1.729,4.652-3.021,6.72c-1.293,2.068-2.832,3.935-4.617,5.6
					c-1.787,1.666-3.763,3.073-5.929,4.222l14.822,29.463c0.076,0.384,0.209,0.767,0.399,1.149c0.19,0.383,0.285,0.785,0.285,1.206
					c0,1.149-0.665,1.723-1.995,1.723h-13.226c-1.368,0-2.281-0.707-2.736-2.124l-13.796-27.569c-0.609,0-1.264,0.01-1.967,0.029
					c-0.704,0.02-1.673,0.028-2.908,0.028c-1.235,0-2.85,0-4.846,0c-1.995,0-4.57,0-7.725,0v27.167c0,1.646-0.875,2.469-2.622,2.469
					h-11.458c-0.761,0-1.368-0.201-1.825-0.603c-0.456-0.402-0.684-1.024-0.684-1.866V200.958z M426.236,225.971
					c0-1.642-0.305-3.238-0.912-4.785c-0.609-1.547-1.464-2.933-2.565-4.155c-1.103-1.223-2.414-2.216-3.934-2.98
					c-1.52-0.764-3.173-1.203-4.959-1.318c-1.332-0.038-2.632-0.066-3.906-0.086c-1.273-0.019-2.594-0.029-3.961-0.029h-11.231
					v26.65h15.05c0.76,0,1.473,0,2.138,0c0.664,0,1.377-0.038,2.138-0.114c1.786-0.115,3.43-0.535,4.932-1.261
					c1.5-0.726,2.784-1.69,3.848-2.894c1.063-1.204,1.89-2.58,2.479-4.127C425.942,229.324,426.236,227.691,426.236,225.971z"/>
				<path d="M457.476,201.016c0-1.838,0.835-2.757,2.509-2.757h54.956c0.988,0,1.691,0.279,2.109,0.836
					c0.418,0.558,0.627,1.258,0.627,2.104v10.145c0,0.692-0.238,1.307-0.712,1.845c-0.476,0.539-1.188,0.807-2.138,0.807h-40.533
					v17.402h31.241c0.76-0.076,1.368,0.087,1.824,0.488c0.456,0.402,0.685,1.082,0.685,2.039v10.396c0,0.689-0.191,1.302-0.57,1.838
					c-0.38,0.537-0.988,0.804-1.824,0.804h-31.354v20.848h42.015c1.064,0,1.768,0.231,2.11,0.692
					c0.342,0.461,0.513,1.172,0.513,2.132v10.492c0,1.614-0.837,2.421-2.509,2.421h-56.438c-0.684,0-1.274-0.191-1.768-0.574
					c-0.494-0.382-0.741-0.995-0.741-1.838V201.016z"/>
				<path d="M580.729,221.003c-0.495,0-0.951-0.124-1.369-0.373c-0.418-0.249-0.893-0.583-1.425-1.006l-0.114-0.057
					c-0.722-0.727-1.653-1.531-2.793-2.413c-1.14-0.88-2.414-1.703-3.819-2.47c-1.407-0.765-2.918-1.416-4.532-1.953
					c-1.616-0.536-3.259-0.804-4.932-0.804c-2.128,0-4.011,0.24-5.643,0.718c-1.635,0.48-3.003,1.13-4.104,1.953
					c-1.103,0.824-1.939,1.79-2.509,2.9c-0.57,1.112-0.856,2.298-0.856,3.561c0,1.379,0.428,2.585,1.283,3.619
					c0.855,1.034,2.014,1.953,3.478,2.757c1.462,0.804,3.144,1.542,5.045,2.211c1.9,0.67,3.896,1.331,5.986,1.982
					c2.395,0.727,4.769,1.513,7.127,2.354c2.356,0.843,4.607,1.79,6.755,2.843c2.146,1.054,4.152,2.221,6.015,3.503
					c1.862,1.284,3.468,2.757,4.817,4.422c1.349,1.666,2.413,3.524,3.192,5.572c0.779,2.049,1.169,4.356,1.169,6.921
					c0,4.174-0.836,7.946-2.509,11.315c-1.673,3.37-3.981,6.251-6.926,8.644c-2.946,2.394-6.405,4.232-10.375,5.514
					c-3.973,1.282-8.238,1.924-12.799,1.924c-2.927,0-5.834-0.344-8.722-1.034c-2.889-0.69-5.664-1.665-8.323-2.929
					c-2.661-1.264-5.179-2.785-7.554-4.566c-2.376-1.781-4.495-3.781-6.356-6.002v0.057l-0.114-0.23
					c-0.836-0.957-1.255-1.837-1.255-2.642c0-0.42,0.115-0.823,0.342-1.206c0.228-0.383,0.57-0.804,1.026-1.264l1.881-1.896
					c0.57-0.498,1.177-1.053,1.824-1.666c0.646-0.612,1.292-1.168,1.938-1.666c0.646-0.497,1.245-0.919,1.796-1.264
					c0.551-0.344,0.998-0.517,1.34-0.517c0.531,0,1.026,0.172,1.482,0.517c0.456,0.345,0.835,0.671,1.14,0.977l0.228,0.23h-0.057
					c1.33,1.263,2.822,2.47,4.475,3.618c1.653,1.148,3.354,2.174,5.102,3.073c1.748,0.9,3.486,1.608,5.216,2.125
					c1.729,0.517,3.354,0.776,4.874,0.776c2.089,0,4.047-0.268,5.872-0.804c1.825-0.536,3.401-1.292,4.731-2.269
					c1.331-0.977,2.375-2.153,3.136-3.532c0.76-1.378,1.14-2.909,1.14-4.595c0-1.685-0.494-3.13-1.482-4.336
					c-0.989-1.206-2.281-2.259-3.877-3.159c-1.597-0.899-3.392-1.674-5.388-2.326c-1.995-0.651-4-1.264-6.015-1.838
					c-4.637-1.416-8.694-2.948-12.171-4.594c-3.477-1.646-6.375-3.494-8.693-5.542c-2.319-2.048-4.057-4.345-5.216-6.892
					c-1.16-2.546-1.738-5.408-1.738-8.586c0-3.562,0.712-6.806,2.138-9.735c1.425-2.929,3.449-5.437,6.071-7.525
					c2.623-2.086,5.776-3.713,9.463-4.882c3.686-1.167,7.81-1.752,12.371-1.752c3.458,0,6.974,0.545,10.546,1.637
					c3.572,1.091,6.878,2.595,9.919,4.508c0.913,0.575,1.843,1.227,2.794,1.954c0.95,0.727,1.825,1.464,2.622,2.211
					c0.798,0.747,1.454,1.474,1.966,2.182c0.514,0.709,0.77,1.312,0.77,1.81c0,0.459-0.114,0.929-0.342,1.407
					c-0.228,0.479-0.513,0.91-0.855,1.293l-1.71,1.837v-0.057c-0.57,0.613-1.16,1.244-1.767,1.895
					c-0.609,0.651-1.217,1.234-1.824,1.751c-0.609,0.517-1.16,0.947-1.654,1.292C581.488,220.831,581.07,221.003,580.729,221.003z"
					/>
				<path d="M604.5,240.99c0-4.02,0.513-7.906,1.539-11.659c1.026-3.752,2.488-7.255,4.39-10.511c1.9-3.254,4.17-6.221,6.812-8.902
					c2.642-2.68,5.578-4.968,8.808-6.864c3.231-1.895,6.699-3.368,10.404-4.422c3.706-1.053,7.573-1.58,11.602-1.58
					c3.991,0,7.839,0.526,11.544,1.58c3.706,1.054,7.173,2.527,10.404,4.422c3.23,1.896,6.176,4.184,8.836,6.864
					c2.66,2.681,4.932,5.648,6.813,8.902c1.881,3.255,3.344,6.759,4.39,10.511c1.045,3.753,1.568,7.659,1.568,11.717
					c0,4.059-0.523,7.946-1.568,11.659c-1.046,3.714-2.508,7.199-4.39,10.453c-1.881,3.255-4.153,6.213-6.813,8.874
					c-2.661,2.662-5.607,4.939-8.836,6.835c-3.231,1.895-6.698,3.359-10.404,4.393c-3.705,1.034-7.573,1.551-11.601,1.551
					c-4.028,0-7.896-0.517-11.601-1.551c-3.705-1.034-7.174-2.507-10.404-4.422c-3.232-1.914-6.167-4.202-8.808-6.864
					c-2.642-2.661-4.902-5.608-6.784-8.845c-1.881-3.235-3.335-6.72-4.361-10.453C605.013,248.945,604.5,245.049,604.5,240.99z
					 M620.976,240.876c0,3.868,0.692,7.486,2.081,10.855c1.387,3.37,3.287,6.298,5.701,8.788c2.413,2.489,5.263,4.46,8.551,5.916
					c3.287,1.456,6.85,2.182,10.689,2.182c3.8,0,7.345-0.727,10.632-2.182c3.287-1.455,6.146-3.426,8.58-5.916
					c2.432-2.489,4.342-5.418,5.73-8.788c1.387-3.369,2.08-6.988,2.08-10.855c0-3.829-0.693-7.428-2.08-10.797
					c-1.388-3.37-3.298-6.308-5.73-8.816c-2.433-2.508-5.293-4.49-8.58-5.945c-3.288-1.455-6.833-2.182-10.632-2.182
					c-3.839,0-7.402,0.727-10.689,2.182c-3.288,1.455-6.138,3.437-8.551,5.945c-2.414,2.508-4.314,5.446-5.701,8.816
					C621.668,233.447,620.976,237.047,620.976,240.876z"/>
				<path d="M706.659,200.786c0-0.689,0.227-1.283,0.682-1.781c0.454-0.497,1.098-0.747,1.932-0.747h11.306
					c0.681,0,1.278,0.22,1.79,0.661c0.511,0.441,0.767,1.063,0.767,1.867v67.026h35.688c0.684,0,1.273,0.24,1.767,0.718
					c0.494,0.479,0.741,1.12,0.741,1.924v10.511c0,0.689-0.228,1.292-0.684,1.809c-0.456,0.517-1.064,0.775-1.824,0.775h-49.664
					c-1.666,0-2.499-0.842-2.499-2.527V200.786z"/>
				<path d="M788.693,248.916c0,3.217,0.456,6.108,1.368,8.673c0.912,2.566,2.195,4.739,3.848,6.519
					c1.653,1.78,3.629,3.14,5.929,4.078c2.299,0.938,4.855,1.407,7.667,1.407c2.965,0,5.625-0.498,7.981-1.494
					c2.356-0.996,4.341-2.403,5.957-4.221c1.615-1.818,2.851-4.001,3.706-6.548c0.855-2.546,1.283-5.351,1.283-8.415v-48.13
					c0-0.689,0.246-1.283,0.738-1.781c0.492-0.497,1.117-0.747,1.875-0.747h11.021c0.794,0,1.467,0.249,2.016,0.747
					c0.549,0.498,0.824,1.091,0.824,1.781v48.762c0,5.936-0.949,11.114-2.849,15.536c-1.899,4.423-4.461,8.108-7.69,11.057
					c-3.228,2.949-6.987,5.15-11.278,6.605c-4.292,1.455-8.829,2.183-13.614,2.183c-4.785,0-9.324-0.775-13.614-2.327
					c-4.292-1.551-8.051-3.819-11.279-6.806c-3.228-2.986-5.791-6.681-7.69-11.085c-1.899-4.403-2.848-9.457-2.848-15.163v-48.762
					c0-0.612,0.219-1.187,0.656-1.723c0.437-0.536,0.998-0.804,1.682-0.804h11.63c0.57,0,1.159,0.249,1.767,0.747
					c0.608,0.498,0.913,1.091,0.913,1.781V248.916z"/>
				<path d="M923.574,204.462c0.456,0.268,0.836,0.594,1.14,0.976c0.303,0.383,0.457,0.843,0.457,1.378
					c0,0.422-0.115,0.862-0.342,1.321l-5.53,9.477c-0.647,0.881-1.331,1.321-2.053,1.321c-0.228,0-0.494-0.048-0.797-0.144
					c-0.305-0.095-0.609-0.239-0.913-0.431c-2.394-1.723-4.96-3.063-7.696-4.021c-2.736-0.956-5.644-1.436-8.722-1.436
					c-3.877,0-7.43,0.737-10.661,2.211c-3.231,1.475-6.024,3.475-8.38,6.002c-2.357,2.527-4.19,5.495-5.501,8.902
					c-1.311,3.408-1.967,7.065-1.967,10.97c0,3.868,0.656,7.495,1.967,10.884c1.311,3.389,3.144,6.347,5.501,8.874
					c2.356,2.527,5.149,4.518,8.38,5.974c3.231,1.455,6.784,2.182,10.661,2.182c3.078,0,6.015-0.478,8.808-1.436
					c2.793-0.957,5.368-2.297,7.725-4.021c0.303-0.229,0.617-0.382,0.94-0.46c0.322-0.076,0.599-0.134,0.827-0.172
					c0.646,0,1.311,0.422,1.995,1.264l5.644,9.592c0.229,0.46,0.342,0.881,0.342,1.263c0,0.537-0.162,0.977-0.485,1.321
					c-0.323,0.344-0.693,0.67-1.111,0.976c-3.573,2.413-7.42,4.279-11.544,5.601c-4.124,1.321-8.465,1.981-13.026,1.981
					c-4.028,0-7.896-0.517-11.601-1.551c-3.705-1.034-7.174-2.507-10.404-4.422c-3.231-1.914-6.167-4.202-8.808-6.864
					c-2.642-2.661-4.913-5.608-6.813-8.845c-1.901-3.235-3.364-6.72-4.39-10.453c-1.026-3.733-1.539-7.629-1.539-11.688
					c0-4.058,0.513-7.954,1.539-11.688c1.026-3.733,2.489-7.236,4.39-10.51c1.9-3.273,4.17-6.251,6.813-8.931
					c2.641-2.68,5.577-4.968,8.808-6.864c3.23-1.895,6.699-3.369,10.404-4.422c3.706-1.053,7.573-1.58,11.601-1.58
					c4.523,0,8.817,0.642,12.884,1.924C916.182,200.203,920.001,202.05,923.574,204.462z"/>
				<path d="M940.676,200.786c0-0.689,0.208-1.283,0.625-1.781c0.417-0.497,1.042-0.747,1.875-0.747h11.306
					c0.644,0,1.25,0.23,1.818,0.689c0.568,0.459,0.853,1.072,0.853,1.838v80.236c0,1.685-0.891,2.527-2.67,2.527h-11.306
					c-1.667,0-2.5-0.842-2.5-2.527V200.786z"/>
				<path d="M972.315,240.99c0-4.02,0.513-7.906,1.539-11.659c1.026-3.752,2.489-7.255,4.39-10.511
					c1.9-3.254,4.171-6.221,6.813-8.902c2.642-2.68,5.577-4.968,8.808-6.864c3.23-1.895,6.698-3.368,10.404-4.422
					c3.706-1.053,7.572-1.58,11.602-1.58c3.99,0,7.839,0.526,11.544,1.58c3.706,1.054,7.173,2.527,10.404,4.422
					c3.229,1.896,6.176,4.184,8.836,6.864c2.66,2.681,4.931,5.648,6.812,8.902c1.882,3.255,3.344,6.759,4.39,10.511
					c1.045,3.753,1.568,7.659,1.568,11.717c0,4.059-0.522,7.946-1.568,11.659c-1.046,3.714-2.508,7.199-4.39,10.453
					c-1.881,3.255-4.152,6.213-6.812,8.874c-2.661,2.662-5.607,4.939-8.836,6.835c-3.231,1.895-6.699,3.359-10.404,4.393
					c-3.705,1.034-7.573,1.551-11.601,1.551c-4.029,0-7.896-0.517-11.601-1.551c-3.706-1.034-7.175-2.507-10.404-4.422
					c-3.231-1.914-6.167-4.202-8.808-6.864c-2.642-2.661-4.903-5.608-6.784-8.845c-1.881-3.235-3.335-6.72-4.361-10.453
					C972.829,248.945,972.315,245.049,972.315,240.99z M988.791,240.876c0,3.868,0.693,7.486,2.081,10.855
					c1.387,3.37,3.287,6.298,5.701,8.788c2.413,2.489,5.263,4.46,8.551,5.916c3.287,1.456,6.85,2.182,10.689,2.182
					c3.8,0,7.344-0.727,10.632-2.182c3.286-1.455,6.146-3.426,8.579-5.916c2.432-2.489,4.342-5.418,5.73-8.788
					c1.387-3.369,2.081-6.988,2.081-10.855c0-3.829-0.693-7.428-2.081-10.797c-1.388-3.37-3.298-6.308-5.73-8.816
					c-2.433-2.508-5.293-4.49-8.579-5.945c-3.288-1.455-6.833-2.182-10.632-2.182c-3.839,0-7.402,0.727-10.689,2.182
					c-3.288,1.455-6.139,3.437-8.551,5.945c-2.414,2.508-4.314,5.446-5.701,8.816C989.484,233.447,988.791,237.047,988.791,240.876z
					"/>
				<path d="M1074.416,200.843c0-0.727,0.219-1.34,0.656-1.838c0.437-0.497,1.055-0.747,1.853-0.747h13.112
					c0.531,0,1.035,0.124,1.511,0.373c0.475,0.25,0.901,0.642,1.282,1.177c6.499,9.343,12.941,18.619,19.326,27.827
					c6.385,9.21,12.826,18.485,19.326,27.827v-55.022c0.114-0.689,0.398-1.225,0.854-1.608c0.456-0.382,1.007-0.574,1.653-0.574
					h11.002c0.761,0,1.416,0.23,1.969,0.689c0.55,0.459,0.826,1.072,0.826,1.838v80.408c0,1.571-0.895,2.355-2.68,2.355h-12.371
					c-0.837,0-1.617-0.517-2.337-1.551c-6.69-9.763-13.351-19.517-19.982-29.262c-6.632-9.745-13.273-19.518-19.925-29.321v57.607
					c0,0.843-0.199,1.475-0.598,1.895c-0.399,0.422-1.074,0.632-2.023,0.632h-10.946c-0.875,0-1.511-0.22-1.909-0.66
					c-0.4-0.44-0.6-1.043-0.6-1.809V200.843z"/>
				<path d="M1166.2,201.016c0-1.838,0.836-2.757,2.509-2.757h54.956c0.988,0,1.691,0.279,2.109,0.836
					c0.419,0.558,0.628,1.258,0.628,2.104v10.145c0,0.692-0.238,1.307-0.714,1.845c-0.475,0.539-1.188,0.807-2.137,0.807h-40.534
					v17.402h31.242c0.759-0.076,1.367,0.087,1.823,0.488c0.455,0.402,0.684,1.082,0.684,2.039v10.396c0,0.689-0.19,1.302-0.57,1.838
					c-0.379,0.537-0.988,0.804-1.823,0.804h-31.355v20.848h42.016c1.064,0,1.768,0.231,2.109,0.692s0.513,1.172,0.513,2.132v10.492
					c0,1.614-0.835,2.421-2.508,2.421h-56.438c-0.684,0-1.274-0.191-1.768-0.574c-0.494-0.382-0.741-0.995-0.741-1.838V201.016z"/>
				<path d="M1289.453,221.003c-0.495,0-0.951-0.124-1.368-0.373c-0.419-0.249-0.895-0.583-1.427-1.006l-0.113-0.057
					c-0.723-0.727-1.653-1.531-2.793-2.413c-1.141-0.88-2.414-1.703-3.82-2.47c-1.407-0.765-2.918-1.416-4.531-1.953
					c-1.616-0.536-3.26-0.804-4.932-0.804c-2.129,0-4.01,0.24-5.645,0.718c-1.633,0.48-3.003,1.13-4.104,1.953
					c-1.103,0.824-1.938,1.79-2.508,2.9c-0.57,1.112-0.855,2.298-0.855,3.561c0,1.379,0.427,2.585,1.283,3.619
					c0.854,1.034,2.013,1.953,3.477,2.757c1.463,0.804,3.146,1.542,5.046,2.211c1.899,0.67,3.896,1.331,5.985,1.982
					c2.396,0.727,4.77,1.513,7.126,2.354c2.357,0.843,4.608,1.79,6.756,2.843c2.146,1.054,4.152,2.221,6.015,3.503
					c1.862,1.284,3.468,2.757,4.816,4.422c1.35,1.666,2.414,3.524,3.193,5.572c0.779,2.049,1.169,4.356,1.169,6.921
					c0,4.174-0.837,7.946-2.51,11.315c-1.673,3.37-3.98,6.251-6.926,8.644c-2.945,2.394-6.404,4.232-10.375,5.514
					c-3.972,1.282-8.238,1.924-12.8,1.924c-2.926,0-5.833-0.344-8.722-1.034c-2.888-0.69-5.663-1.665-8.322-2.929
					c-2.661-1.264-5.179-2.785-7.555-4.566c-2.376-1.781-4.494-3.781-6.355-6.002v0.057l-0.115-0.23
					c-0.836-0.957-1.253-1.837-1.253-2.642c0-0.42,0.113-0.823,0.342-1.206c0.228-0.383,0.569-0.804,1.026-1.264l1.881-1.896
					c0.57-0.498,1.177-1.053,1.824-1.666c0.646-0.612,1.291-1.168,1.938-1.666c0.646-0.497,1.243-0.919,1.796-1.264
					c0.55-0.344,0.997-0.517,1.34-0.517c0.531,0,1.025,0.172,1.48,0.517c0.458,0.345,0.837,0.671,1.142,0.977l0.228,0.23h-0.058
					c1.331,1.263,2.823,2.47,4.477,3.618c1.653,1.148,3.354,2.174,5.103,3.073c1.747,0.9,3.486,1.608,5.216,2.125
					c1.729,0.517,3.353,0.776,4.873,0.776c2.091,0,4.049-0.268,5.873-0.804c1.824-0.536,3.401-1.292,4.731-2.269
					c1.329-0.977,2.375-2.153,3.135-3.532c0.761-1.378,1.142-2.909,1.142-4.595c0-1.685-0.494-3.13-1.483-4.336
					c-0.988-1.206-2.279-2.259-3.876-3.159c-1.597-0.899-3.393-1.674-5.388-2.326c-1.995-0.651-4-1.264-6.014-1.838
					c-4.638-1.416-8.694-2.948-12.172-4.594c-3.479-1.646-6.376-3.494-8.693-5.542c-2.319-2.048-4.058-4.345-5.217-6.892
					c-1.159-2.546-1.738-5.408-1.738-8.586c0-3.562,0.713-6.806,2.138-9.735s3.449-5.437,6.071-7.525
					c2.623-2.086,5.775-3.713,9.463-4.882c3.687-1.167,7.811-1.752,12.371-1.752c3.457,0,6.973,0.545,10.547,1.637
					c3.572,1.091,6.879,2.595,9.919,4.508c0.912,0.575,1.843,1.227,2.794,1.954c0.949,0.727,1.824,1.464,2.622,2.211
					c0.799,0.747,1.454,1.474,1.967,2.182c0.514,0.709,0.771,1.312,0.771,1.81c0,0.459-0.114,0.929-0.342,1.407
					c-0.229,0.479-0.515,0.91-0.856,1.293l-1.71,1.837v-0.057c-0.57,0.613-1.16,1.244-1.768,1.895
					c-0.608,0.651-1.217,1.234-1.824,1.751c-0.607,0.517-1.158,0.947-1.653,1.292
					C1290.212,220.831,1289.795,221.003,1289.453,221.003z"/>
			</g>
		</g>
		<g>
			<g>
				<path d="M416.471,150.793l-30.316-73.839v73.728h-6.774V71.807h11.993l28.762,70.036l28.762-70.036h11.993v78.875h-6.774V76.954
					l-30.316,73.839H416.471z"/>
				<path d="M530.183,122.936c0,9.025-2.259,16.149-6.774,21.369c-4.664,5.594-11.401,8.391-20.211,8.391
					c-8.736,0-15.546-3.02-20.433-9.062c-4.664-5.667-6.996-13.015-6.996-22.04c0-8.8,2.294-15.923,6.885-21.369
					c4.886-5.594,11.696-8.392,20.433-8.392c8.587,0,15.325,3.06,20.211,9.174C527.888,106.752,530.183,114.061,530.183,122.936z
					 M483.21,121.539c0,7.368,1.555,13.322,4.663,17.86c3.554,5.21,8.662,7.814,15.325,7.814c6.736,0,11.771-2.381,15.103-7.145
					c2.959-4.092,4.442-9.823,4.442-17.19c0-7.293-1.519-13.246-4.554-17.861c-3.481-5.134-8.514-7.702-15.102-7.702
					c-6.737,0-11.809,2.344-15.214,7.033C484.765,108.591,483.21,114.321,483.21,121.539z M508.751,65.318h6.773l-9.549,14.097
					h-5.442L508.751,65.318z"/>
				<path d="M566.101,92.057c5.462,0,10.85,0.97,16.164,2.909V65.43h6.774v82.455c-7.256,3.132-14.252,4.698-20.988,4.698
					c-8.811,0-15.918-2.945-21.321-8.838c-5.479-5.966-8.217-13.313-8.217-22.04c0-8.728,2.443-15.85,7.329-21.37
					C550.637,94.817,557.39,92.057,566.101,92.057z M566.765,97.539c-6.792,0-11.993,2.35-15.609,7.048
					c-3.47,4.402-5.204,10.107-5.204,17.118c0,7.011,2.067,12.94,6.2,17.788c4.281,5.222,9.815,7.831,16.607,7.831
					c3.838,0,8.339-0.969,13.506-2.909v-44.08C577.468,98.473,572.3,97.539,566.765,97.539z"/>
				<path d="M651.668,94.183v51.912c-11.503,4.402-19.74,6.601-24.713,6.601c-3.116,0-5.974-0.514-8.571-1.542
					c-2.598-1.028-4.804-2.463-6.623-4.307c-1.818-1.843-3.229-4.053-4.23-6.626c-1.003-2.573-1.502-5.426-1.502-8.559V94.183h6.774
					v37.479c0,2.238,0.368,4.308,1.107,6.21c0.738,1.902,1.752,3.543,3.043,4.922c1.291,1.381,2.839,2.461,4.647,3.245
					c1.808,0.783,3.817,1.175,6.031,1.175c5.386,0,11.14-1.454,17.265-4.363V94.183H651.668z"/>
				<path d="M682.761,152.808c-1.926,0-3.703-0.326-5.33-0.97c-1.629-0.649-3.054-1.561-4.275-2.741
					c-1.222-1.18-2.185-2.554-2.887-4.12c-0.705-1.567-1.055-3.281-1.055-5.147V65.207h6.774v74.623
					c0,1.941,0.667,3.675,1.999,5.203c1.333,1.529,2.924,2.294,4.775,2.294c2.516,0,5.292-0.819,8.329-2.461v5.887
					C688.425,152.122,685.649,152.808,682.761,152.808z"/>
				<path d="M749.944,122.936c0,9.025-2.258,16.149-6.773,21.369c-4.664,5.594-11.401,8.391-20.211,8.391
					c-8.736,0-15.546-3.02-20.433-9.062c-4.664-5.667-6.996-13.015-6.996-22.04c0-8.8,2.294-15.923,6.884-21.369
					c4.887-5.594,11.697-8.392,20.433-8.392c8.587,0,15.325,3.06,20.211,9.174C747.649,106.752,749.944,114.061,749.944,122.936z
					 M702.971,121.539c0,7.368,1.555,13.322,4.664,17.86c3.554,5.21,8.662,7.814,15.325,7.814c6.736,0,11.771-2.381,15.103-7.145
					c2.96-4.092,4.442-9.823,4.442-17.19c0-7.293-1.519-13.246-4.554-17.861c-3.48-5.134-8.514-7.702-15.103-7.702
					c-6.737,0-11.809,2.344-15.213,7.033C704.526,108.591,702.971,114.321,702.971,121.539z"/>
				<path d="M818.287,92.057c5.462,0,10.85,0.97,16.165,2.909V65.43h6.774v82.455c-7.256,3.132-14.252,4.698-20.988,4.698
					c-8.811,0-15.918-2.945-21.321-8.838c-5.48-5.966-8.218-13.313-8.218-22.04c0-8.728,2.443-15.85,7.329-21.37
					C802.824,94.817,809.577,92.057,818.287,92.057z M818.952,97.539c-6.792,0-11.993,2.35-15.609,7.048
					c-3.47,4.402-5.203,10.107-5.203,17.118c0,7.011,2.066,12.94,6.199,17.788c4.281,5.222,9.815,7.831,16.607,7.831
					c3.838,0,8.339-0.969,13.506-2.909v-44.08C829.654,98.473,824.487,97.539,818.952,97.539z"/>
				<path d="M880.821,91.945c5.941,0,10.991,2.126,15.15,6.378c4.145,4.177,6.218,9.249,6.218,15.215
					c0,3.356-1.169,6.041-3.508,8.055c-2.338,2.014-5.289,3.021-8.851,3.021h-29.062c0.297,6.458,2.154,11.765,5.568,15.92
					c3.639,4.454,8.502,6.68,14.591,6.68c5.94,0,11.879-1.081,17.819-3.245v6.042c-5.792,1.789-11.732,2.684-17.819,2.684
					c-8.835,0-15.592-2.909-20.27-8.727c-4.442-5.443-6.663-12.642-6.663-21.593c0-8.727,2.109-15.812,6.33-21.256
					C865.077,95.004,871.91,91.945,880.821,91.945z M895.416,113.538c0-4.028-1.449-7.72-4.345-11.076
					c-2.898-3.356-6.276-5.035-10.139-5.035c-6.016,0-10.842,2.125-14.483,6.377c-3.269,3.954-5.162,9.062-5.681,15.327h29.077
					c1.486,0,2.785-0.54,3.899-1.622C894.859,116.43,895.416,115.104,895.416,113.538z"/>
			</g>
		</g>
	</g>
	<path fill-rule="evenodd" clip-rule="evenodd" fill="#9B2710" d="M92.502,83.815c5.886-5.102,12.469-8.697,20.03-10.402
		c3.062-0.689,6.151-1.074,9.294-1.072c32.411,0.007,64.823,0.003,97.232,0.003c3.556,0,3.545,0,3.56-3.689
		c0.016-3.745-0.142-7.489,0.742-11.197c3.095-12.991,14.213-21.925,27.472-21.931c28.152-0.012,56.305-0.012,84.457,0
		c15.729,0.007,28.235,12.636,28.235,28.477c0.003,29.1,0.003,58.202,0,87.301c0,15.659-12.584,28.35-28.159,28.401
		c-3.062,0.01-6.128,0.099-9.183-0.041c-1.563-0.071-1.829,0.47-1.825,1.915c0.044,21.389,0.031,42.777,0.031,64.166
		c0,11.331,0,22.664,0,33.996c-0.004,20.226-13.525,37.891-32.92,43.008c-3.556,0.939-7.179,1.389-10.848,1.392
		c-23.494,0.014-46.985,0.029-70.48-0.037c-1.83-0.005-2.343,0.465-2.275,2.306c0.223,6.106,0.055,12.153-2.251,17.993
		c-5.122,12.98-17.401,21.576-31.272,21.582c-36.87,0.02-73.742,0.02-110.612,0.001c-18.49-0.008-33.586-14.976-33.638-33.671
		c-0.108-38.288-0.123-76.574,0.004-114.859c0.064-18.816,15.169-33.595,33.878-33.596c4.192,0,8.388-0.084,12.577,0.043
		c1.617,0.047,1.933-0.471,1.929-1.999c-0.049-21.389,0.002-42.778-0.051-64.166c-0.019-8.577,1.98-16.562,6.319-23.948
		c0.168-0.283,0.299-0.586,0.437-0.885c0.023-0.052-0.006-0.128-0.012-0.195c-0.095-0.053-0.234-0.176-0.278-0.148
		c-4.114,2.677-8.673,3.489-13.496,3.475c-15.772-0.047-31.547-0.009-47.319-0.023c-7.879-0.007-14.183-3.103-18.535-9.836
		c-2.311-3.581-3.299-7.585-3.303-11.823C2.226,57.457,2.206,40.561,2.244,23.666C2.273,11.101,11.375,2.001,23.809,2.001
		C40.116,2,56.42,2,72.727,2.001c12.526,0,21.503,9.035,21.503,21.646c0.001,15.959-0.024,31.918,0.016,47.875
		C94.257,75.686,94.25,79.82,92.502,83.815z M122.549,92.67c-1.598,0-3.193,0.073-4.761,0.411
		c-11.496,2.477-19.144,12.065-19.158,24.116c-0.023,21.456,0.026,42.912-0.059,64.367c-0.009,2.04,0.615,2.344,2.444,2.34
		c24.358-0.063,48.716-0.044,73.075-0.043c18.852,0.001,33.814,15.071,33.816,34.071c0.002,27.892,0.019,55.786-0.044,83.677
		c-0.002,1.788,0.442,2.199,2.19,2.193c23.426-0.063,46.853-0.04,70.278-0.044c13.288-0.003,23.807-10.563,23.815-23.963
		c0.019-32.722-0.006-65.443,0.043-98.161c0.003-1.607-0.44-1.966-1.976-1.96c-17.039,0.056-34.076,0.038-51.112,0.033
		c-15.978-0.004-28.48-12.596-28.483-28.682c-0.003-18.774-0.025-37.548,0.042-56.322c0.006-1.699-0.436-2.077-2.078-2.069
		c-16.506,0.065-33.011,0.04-49.516,0.04C154.893,92.672,138.72,92.672,122.549,92.67z M187.798,218.162
		c-0.016-7.683-5.814-13.885-13.11-13.896c-24.815-0.04-49.63-0.006-74.445-0.044c-1.33-0.002-1.648,0.402-1.646,1.692
		c0.034,24.599-0.05,49.196,0.056,73.794c0.062,13.751,10.546,24.049,24.141,24.05c21.024,0.003,42.046-0.016,63.068,0.037
		c1.562,0.004,1.988-0.394,1.982-1.986c-0.066-13.94-0.038-27.881-0.038-41.824C187.806,246.045,187.825,232.104,187.798,218.162z
		 M50.164,331.014c0.006,8.374,5.677,14.564,13.516,14.572c36.862,0.037,73.725,0.032,110.586,0.004
		c6.804-0.005,12.123-4.724,13.292-11.509c0.45-2.605,0.021-5.229,0.286-7.816c0.192-1.886-0.551-2.157-2.218-2.154
		c-21.227,0.057-42.452,0.049-63.677,0.017c-2.055-0.004-4.134-0.134-6.158-0.466c-21.957-3.627-37.341-21.927-37.341-44.351
		c-0.002-24.4-0.014-48.802,0.032-73.203c0.003-1.454-0.274-1.978-1.827-1.9c-2.787,0.144-5.589,0.011-8.381,0.051
		c-2.459,0.036-4.947-0.304-7.368,0.222c-6.483,1.404-10.735,7.1-10.742,14.315c-0.013,18.702-0.003,37.406-0.003,56.11
		C50.161,293.608,50.15,312.311,50.164,331.014z M242.803,150.782c0.017,4.968,3.267,8.509,7.9,8.52
		c17.3,0.039,34.601,0.004,51.901,0.041c1.194,0.002,1.581-0.265,1.576-1.541c-0.048-14.012,0.095-28.023-0.069-42.031
		c-0.147-12.616-10.744-23.025-23.258-23.085c-12.042-0.057-24.087,0.019-36.129-0.051c-1.615-0.009-1.977,0.495-1.967,2.036
		c0.067,9.386,0.034,18.771,0.034,28.156C242.792,132.145,242.769,141.464,242.803,150.782z M343.28,64.076
		c-0.007-4.814-3.397-8.218-8.173-8.221c-28.01-0.011-56.017-0.01-84.024,0c-4.769,0-8.144,3.332-8.281,8.164
		c-0.059,2.078,0.14,4.17-0.055,6.231c-0.177,1.889,0.566,2.142,2.219,2.133c12.105-0.069,24.216-0.059,36.324-0.015
		c2.053,0.008,4.128,0.145,6.153,0.474c21.217,3.446,36.938,22.064,36.943,43.697c0.003,13.672,0.021,27.347-0.03,41.019
		c-0.005,1.378,0.297,1.855,1.736,1.796c2.855-0.119,5.72-0.028,8.58-0.037c5.428-0.015,8.613-3.257,8.614-8.778
		c0.003-14.275,0.002-28.553,0.002-42.83C343.289,93.164,343.3,78.619,343.28,64.076z M74.088,24.4
		c0.014-1.539-0.323-2.057-1.963-2.049c-15.896,0.065-31.794,0.065-47.689,0c-1.627-0.007-1.999,0.497-1.995,2.045
		c0.049,16.35,0.049,32.701,0.003,49.052c-0.004,1.591,0.35,2.226,2.096,2.219c15.83-0.064,31.659-0.064,47.49,0
		c1.752,0.008,2.069-0.637,2.055-2.216c-0.066-8.107-0.031-16.217-0.031-24.325C74.055,40.883,74.018,32.642,74.088,24.4z
		 M294.439,237.911c0-7.508,0.181-15.022-0.045-22.524c-0.31-10.32-8.746-18.308-18.997-18.313
		c-13.71-0.008-27.42-0.003-41.13-0.003c-11.658,0-19.828,8.205-19.841,19.962c-0.015,13.878-0.02,27.758,0.002,41.637
		c0.018,11.84,8.23,20.073,19.982,20.077c13.243,0.004,26.486,0.001,39.73,0.001c12.282-0.001,20.343-8.122,20.36-20.521
		c0.009-6.772,0.001-13.544,0.001-20.316C294.481,237.911,294.46,237.911,294.439,237.911z M234.57,256.619
		c-0.014,1.314,0.196,1.847,1.689,1.84c12.114-0.064,24.226-0.061,36.339-0.006c1.439,0.008,1.759-0.47,1.755-1.834
		c-0.046-12.472-0.046-24.942,0-37.415c0.004-1.365-0.313-1.841-1.753-1.836c-12.114,0.056-24.227,0.06-36.338-0.005
		c-1.493-0.008-1.706,0.525-1.691,1.84c0.062,6.234,0.028,12.474,0.028,18.708C234.598,244.147,234.632,250.382,234.57,256.619z"/>
</g>
</svg>
