<?xml version="1.0" encoding="utf-8"?>
<!-- Generator: Adobe Illustrator 24.1.0, SVG Export Plug-In . SVG Version: 6.00 Build 0)  -->
<svg version="1.1" id="Capa_1" xmlns="http://www.w3.org/2000/svg" xmlns:xlink="http://www.w3.org/1999/xlink" x="0px"
    y="0px" viewBox="0 0 1304 368" enable-background="new 0 0 1304 368" xml:space="preserve">
    <g id="svg_1">
        <g id="svg_2">
            <path id="svg_3"
                d="m159.305,243.52749c-2.844,-0.19 -8.579,-0.726 -11.295,-1.597c-3.203,-1.027 -9.002,-4.689 -11.635,-6.801c-3.348,-2.69 -9.428,-9.044 -12.258,-12.029c-2.506,-2.642 -7.077,-7.989 -9.08,-11.044c-1.49,-2.264 -3.164,-7.432 -3.564,-10.118c-1.455,-9.787 0,-39.588 0,-39.588s-11.125,8.951 -13.045,13.195c-1.712,3.779 -1.47,18.277 -1.274,24.373c0.087,2.721 4.577,20.983 6.464,23.453c4.994,6.529 10.584,12.702 12.705,15.207c3.133,3.702 10.236,10.377 14.126,13.254c3.542,2.623 11.555,6.625 15.814,7.688c5.183,1.297 21.346,0.801 21.346,0.801l0,17.194c0,0 -49.331,1.97 -65.622,0c-8.162,-0.987 -24.391,-4.566 -31.95,-7.836c-5.555,-2.403 -16.085,-8.606 -20.836,-12.378c-5.827,-4.624 -17.014,-14.637 -21.531,-20.572c-5.378,-7.064 -16.096,-21.2 -19.667,-29.351c-2.938,-6.71 -8.003,-16.503 -8.003,-29.036l0,-151.954c0,0 46.58,-21.64 63.25,-24.795c10.102,-1.91 31.095,-2.329 41.111,0c16.668,3.878 63.249,26.392 63.249,26.392l0,215.941c-0.002,0 -6.234,-0.26 -8.305,-0.399zm-142.705,-205.143l0,75.179c0,0 11.33,11.161 15.714,14.098c6.771,4.539 21.503,11.65 29.452,13.233c10.766,2.143 33.127,3.204 43.78,0.66c6.842,-1.636 20.004,-7.416 25.693,-11.597c5.373,-3.946 18.977,-18.796 18.977,-18.796l0,-72.778c0,0 -15.32,1.213 -20.159,2.799c-3.197,1.046 -9.2,4.328 -11.862,6.399c-4.656,3.622 -13.78,11.425 -16.999,16.395c-2.161,3.34 -4.737,10.9 -6.253,14.563c-1.965,4.746 -6.541,19.181 -6.541,19.181l-4.992,19.039l-9.489,-31.988c0,0 -2.666,-11.627 -4.348,-15.197c-1.862,-3.957 -6.931,-11.186 -9.883,-14.395c-2.822,-3.072 -8.675,-9.216 -12.312,-11.22c-2.98,-1.642 -9.638,-3.437 -12.988,-3.974c-4.411,-0.709 -17.79,-1.601 -17.79,-1.601z"
                fill="#00599D" />
            <path id="svg_4"
                d="m58.075,85.00249c0,6.38 -5.117,11.552 -11.42,11.552c-6.305,0 -11.419,-5.172 -11.419,-11.552c0,-6.378 5.115,-11.552 11.419,-11.552c6.303,0 11.42,5.174 11.42,11.552z"
                fill="#00599D" />
            <path id="svg_5"
                d="m133.044,85.00249c0,6.38 -5.113,11.552 -11.418,11.552c-6.306,0 -11.419,-5.172 -11.419,-11.552c0,-6.378 5.113,-11.552 11.419,-11.552c6.305,0 11.418,5.174 11.418,11.552z"
                fill="#00599D" />
        </g>
        <g id="svg_6">
            <g id="svg_7">
                <path id="svg_8"
                    d="m446.821,48.26249c-0.878,0 -1.688,-0.218 -2.431,-0.657c-0.744,-0.437 -1.588,-1.026 -2.533,-1.769l-0.202,-0.101c-1.284,-1.279 -2.939,-2.694 -4.965,-4.245c-2.027,-1.549 -4.29,-2.998 -6.788,-4.347c-2.5,-1.347 -5.184,-2.492 -8.054,-3.436c-2.872,-0.943 -5.792,-1.415 -8.764,-1.415c-3.784,0 -7.127,0.421 -10.03,1.263c-2.905,0.844 -5.337,1.989 -7.295,3.437c-1.96,1.45 -3.445,3.151 -4.457,5.105c-1.013,1.955 -1.52,4.043 -1.52,6.267c0,2.426 0.76,4.548 2.28,6.368c1.52,1.819 3.579,3.437 6.18,4.852c2.599,1.415 5.588,2.713 8.966,3.891c3.377,1.18 6.922,2.343 10.638,3.487c4.255,1.281 8.475,2.663 12.664,4.144c4.187,1.483 8.189,3.151 12.005,5.003c3.815,1.854 7.379,3.909 10.689,6.166c3.308,2.259 6.162,4.851 8.56,7.783c2.396,2.932 4.288,6.201 5.674,9.805c1.384,3.606 2.077,7.666 2.077,12.179c0,7.346 -1.487,13.984 -4.458,19.913c-2.973,5.93 -7.077,11.001 -12.31,15.212c-5.235,4.212 -11.382,7.447 -18.439,9.704c-7.059,2.256 -14.64,3.386 -22.745,3.386c-5.202,0 -10.37,-0.607 -15.501,-1.82c-5.134,-1.213 -10.065,-2.932 -14.792,-5.155c-4.729,-2.224 -9.204,-4.902 -13.425,-8.036c-4.222,-3.134 -7.988,-6.654 -11.296,-10.563l0,0.101l-0.203,-0.404c-1.486,-1.684 -2.229,-3.234 -2.229,-4.65c0,-0.741 0.203,-1.448 0.608,-2.123c0.405,-0.673 1.013,-1.415 1.824,-2.223l3.343,-3.336c1.013,-0.875 2.093,-1.852 3.242,-2.931c1.147,-1.077 2.296,-2.055 3.444,-2.932c1.148,-0.875 2.212,-1.617 3.191,-2.224c0.979,-0.606 1.773,-0.91 2.381,-0.91c0.945,0 1.823,0.303 2.634,0.91c0.81,0.607 1.484,1.179 2.026,1.718l0.405,0.404l-0.101,0c2.363,2.223 5.015,4.347 7.952,6.368c2.938,2.021 5.961,3.825 9.068,5.408c3.106,1.584 6.197,2.83 9.271,3.74c3.072,0.909 5.96,1.364 8.662,1.364c3.714,0 7.193,-0.47 10.435,-1.415c3.242,-0.943 6.044,-2.274 8.409,-3.993c2.363,-1.718 4.22,-3.791 5.572,-6.217c1.351,-2.426 2.026,-5.12 2.026,-8.087c0,-2.964 -0.878,-5.508 -2.634,-7.631c-1.757,-2.123 -4.053,-3.975 -6.889,-5.559c-2.837,-1.583 -6.029,-2.947 -9.575,-4.094c-3.546,-1.145 -7.109,-2.223 -10.689,-3.234c-8.241,-2.492 -15.45,-5.188 -21.63,-8.086c-6.18,-2.896 -11.331,-6.149 -15.451,-9.754c-4.12,-3.604 -7.21,-7.647 -9.27,-12.129c-2.061,-4.481 -3.09,-9.518 -3.09,-15.111c0,-6.267 1.266,-11.979 3.799,-17.133c2.533,-5.155 6.129,-9.568 10.79,-13.241c4.661,-3.672 10.266,-6.535 16.818,-8.592c6.551,-2.055 13.88,-3.083 21.985,-3.083c6.146,0 12.393,0.959 18.743,2.881c6.348,1.92 12.224,4.566 17.628,7.935c1.621,1.011 3.276,2.158 4.965,3.437c1.688,1.281 3.243,2.577 4.66,3.891c1.419,1.314 2.584,2.595 3.495,3.841c0.912,1.248 1.368,2.309 1.368,3.184c0,0.809 -0.203,1.635 -0.608,2.476c-0.405,0.844 -0.911,1.602 -1.52,2.275l-3.04,3.234l0,-0.101c-1.013,1.079 -2.061,2.191 -3.14,3.336c-1.082,1.147 -2.163,2.174 -3.242,3.083c-1.081,0.91 -2.061,1.668 -2.938,2.274c-0.872,0.608 -1.614,0.912 -2.223,0.912z" />
                <path id="svg_9"
                    d="m588.66,95.56749c0,-1.347 0.37,-2.426 1.114,-3.234c0.743,-0.808 1.857,-1.213 3.344,-1.213l16.514,0c1.148,0 2.229,0.404 3.242,1.213c1.013,0.809 1.52,1.887 1.52,3.234l0,46.396c0,0.809 -0.203,1.583 -0.609,2.325c-0.405,0.742 -1.149,1.45 -2.229,2.123c-0.068,0 -0.102,0.017 -0.102,0.051c0,0.034 -0.035,0.05 -0.101,0.05c-3.175,2.224 -6.586,4.212 -10.233,5.963c-3.647,1.753 -7.464,3.219 -11.448,4.397c-3.987,1.179 -8.072,2.088 -12.259,2.729c-4.189,0.64 -8.375,0.961 -12.562,0.961c-7.092,0 -13.948,-0.91 -20.567,-2.73c-6.62,-1.819 -12.783,-4.413 -18.489,-7.784c-5.709,-3.368 -10.909,-7.394 -15.602,-12.079c-4.696,-4.683 -8.73,-9.871 -12.107,-15.566c-3.378,-5.694 -5.977,-11.826 -7.8,-18.397c-1.824,-6.57 -2.736,-13.426 -2.736,-20.57c0,-7.075 0.912,-13.898 2.736,-20.468c1.823,-6.57 4.423,-12.719 7.8,-18.447c3.377,-5.727 7.412,-10.95 12.107,-15.667c4.694,-4.716 9.911,-8.76 15.653,-12.13c5.74,-3.369 11.905,-5.979 18.49,-7.833c6.585,-1.853 13.457,-2.78 20.618,-2.78c4.795,0 9.574,0.422 14.336,1.263c4.761,0.843 9.372,2.107 13.829,3.79c1.687,0.674 3.698,1.517 6.028,2.527c2.33,1.011 4.541,2.123 6.636,3.336c2.093,1.213 3.866,2.461 5.319,3.74c1.452,1.281 2.178,2.527 2.178,3.74c0,0.541 -0.304,1.4 -0.912,2.579c-0.607,1.179 -1.368,2.511 -2.279,3.992c-0.912,1.483 -1.942,3.017 -3.091,4.599c-1.149,1.585 -2.263,3.017 -3.343,4.296c-1.081,1.281 -2.061,2.342 -2.938,3.184c-0.879,0.844 -1.555,1.263 -2.027,1.263c-0.405,0 -0.896,-0.084 -1.469,-0.252c-0.575,-0.168 -1.165,-0.488 -1.773,-0.96c-4.255,-2.965 -9.052,-5.323 -14.387,-7.076c-5.336,-1.751 -10.774,-2.628 -16.312,-2.628c-7.228,0 -13.847,1.349 -19.858,4.043c-6.012,2.696 -11.179,6.335 -15.501,10.916c-4.323,4.584 -7.699,9.89 -10.131,15.92c-2.431,6.032 -3.647,12.383 -3.647,19.053c0,6.874 1.3,13.327 3.901,19.357c2.599,6.032 6.112,11.288 10.537,15.768c4.423,4.482 9.608,8.02 15.551,10.614c5.943,2.595 12.259,3.891 18.946,3.891c2.498,0 4.964,-0.185 7.396,-0.556c2.431,-0.369 4.712,-0.841 6.839,-1.415c2.128,-0.572 4.035,-1.213 5.724,-1.92c1.688,-0.708 3.072,-1.398 4.154,-2.073l0,-31.535z" />
                <path id="svg_10"
                    d="m635.464,154.59749c0.337,-1.347 0.725,-2.593 1.164,-3.74c0.439,-1.146 0.827,-2.189 1.166,-3.134l54.608,-135.649c0.203,-0.741 0.76,-1.567 1.671,-2.476c0.912,-0.91 2.144,-1.365 3.698,-1.365l16.312,0c1.621,0 2.786,0.404 3.495,1.213c0.71,0.809 1.232,1.517 1.57,2.123l3.343,7.884l53.494,133.526c0,0.202 0.051,0.556 0.152,1.062c0.102,0.505 0.152,0.927 0.152,1.263c0,2.021 -1.486,3.032 -4.458,3.032l-19.957,0c-1.487,0 -2.634,-0.303 -3.445,-0.91c-0.81,-0.606 -1.487,-1.55 -2.027,-2.83l-1.824,-4.65c-1.284,-3.235 -2.568,-6.469 -3.85,-9.704c-1.284,-3.234 -2.533,-6.502 -3.749,-9.804l-62.511,0c-1.757,4.718 -3.461,9.148 -5.116,13.292c-1.656,4.145 -3.057,7.768 -4.205,10.866c-0.947,2.494 -2.703,3.74 -5.269,3.74l-20.263,0c-1.284,0 -2.314,-0.235 -3.09,-0.708c-0.777,-0.471 -1.165,-1.178 -1.165,-2.123c0.003,-0.402 0.036,-0.705 0.104,-0.908zm70.515,-107.851c-3.647,9.299 -7.279,18.936 -10.892,28.908c-3.615,9.974 -7.244,19.577 -10.891,28.807l43.16,0l-21.377,-57.715z" />
            </g>
        </g>
        <g id="svg_11">
            <g id="svg_12">
                <path id="svg_13"
                    d="m380.39,195.34449c5.036,0 9.866,0.881 14.488,2.642l0,4.352c-4.726,-2.124 -9.555,-3.186 -14.488,-3.186c-6.855,0 -12.489,2.432 -16.902,7.294c-4.414,4.76 -6.621,10.657 -6.621,17.691c0,7.035 2.207,12.906 6.621,17.613c4.465,4.916 10.099,7.372 16.902,7.372c4.258,0 8.386,-0.775 12.385,-2.324l0,-21.612l-13.631,0l0,-3.808l18.383,0l0,27.822c-5.401,2.486 -11.113,3.73 -17.137,3.73c-8.205,0 -14.955,-2.72 -20.252,-8.16c-5.349,-5.491 -8.023,-12.356 -8.023,-20.594c0,-8.186 2.674,-15.024 8.023,-20.516c5.4,-5.544 12.151,-8.316 20.252,-8.316z" />
                <path id="svg_14"
                    d="m426.314,210.73149c4.167,0 7.709,1.477 10.626,4.429c2.908,2.902 4.362,6.425 4.362,10.569c0,2.331 -0.82,4.196 -2.461,5.595c-1.641,1.399 -3.71,2.098 -6.208,2.098l-20.385,0c0.208,4.485 1.51,8.172 3.905,11.058c2.552,3.094 5.964,4.64 10.234,4.64c4.166,0 8.332,-0.75 12.5,-2.254l0,4.197c-4.063,1.244 -8.23,1.865 -12.5,1.865c-6.197,0 -10.937,-2.02 -14.218,-6.062c-3.116,-3.781 -4.674,-8.781 -4.674,-14.998c0,-6.062 1.48,-10.983 4.44,-14.766c3.335,-4.246 8.128,-6.371 14.379,-6.371zm10.237,14.998c0,-2.798 -1.016,-5.362 -3.047,-7.694c-2.033,-2.331 -4.402,-3.497 -7.112,-3.497c-4.219,0 -7.605,1.477 -10.159,4.429c-2.293,2.747 -3.621,6.295 -3.985,10.647l20.396,0c1.042,0 1.953,-0.375 2.735,-1.127c0.781,-0.749 1.172,-1.67 1.172,-2.758z" />
                <path id="svg_15"
                    d="m470.355,216.32649c-2.792,-1.244 -5.765,-1.865 -8.918,-1.865c-5.998,0 -8.997,2.253 -8.997,6.76c0,2.436 1.731,4.534 5.192,6.295l9.763,4.973c3.478,2.384 5.218,5.389 5.218,9.015c0,3.886 -1.585,6.865 -4.751,8.937c-2.648,1.605 -5.791,2.409 -9.425,2.409c-4.258,0 -7.867,-0.544 -10.827,-1.632l0,-4.585c3.427,1.71 6.932,2.565 10.516,2.565c2.543,0 4.724,-0.622 6.543,-1.865c2.025,-1.399 3.038,-3.186 3.038,-5.362c0,-2.746 -1.731,-5.051 -5.19,-6.916c-1.602,-0.881 -3.203,-1.71 -4.805,-2.487c-1.602,-0.776 -3.177,-1.632 -4.726,-2.564c-1.845,-1.036 -3.188,-2.266 -4.032,-3.692c-0.844,-1.425 -1.264,-2.965 -1.264,-4.624c0,-3.781 1.35,-6.631 4.05,-8.549c2.388,-1.657 5.426,-2.487 9.114,-2.487c3.271,0 6.439,0.544 9.503,1.632l0,4.042l-0.002,0z" />
                <path id="svg_16"
                    d="m494.112,253.08449c-1.351,0 -2.597,-0.221 -3.739,-0.66c-1.143,-0.441 -2.142,-1.061 -2.999,-1.865c-0.857,-0.803 -1.532,-1.748 -2.025,-2.836c-0.494,-1.088 -0.74,-2.279 -0.74,-3.575l0,-28.21l-7.789,0l0,-3.808l7.789,0l0,-12.045l4.751,0l0,12.045l9.581,0l0,3.808l-9.581,0l0,28.144c0,1.344 0.467,2.546 1.402,3.605c0.934,1.06 2.051,1.59 3.349,1.59c1.817,0 3.79,-0.544 5.92,-1.632l0,3.963c-1.817,0.983 -3.79,1.476 -5.919,1.476z" />
                <path id="svg_17"
                    d="m507.743,192.23549l4.752,0l0,4.741l-4.752,0l0,-4.741zm4.752,19.972l0,39.4l-4.752,0l0,-39.4l4.752,0z" />
                <path id="svg_18"
                    d="m560.009,232.25749c0,6.269 -1.585,11.217 -4.751,14.843c-3.272,3.885 -7.997,5.828 -14.177,5.828c-6.128,0 -10.905,-2.098 -14.332,-6.295c-3.271,-3.936 -4.907,-9.04 -4.907,-15.309c0,-6.113 1.609,-11.061 4.829,-14.843c3.427,-3.886 8.204,-5.828 14.332,-5.828c6.023,0 10.749,2.125 14.177,6.372c3.218,3.991 4.829,9.067 4.829,15.232zm-32.949,-0.97c0,5.118 1.09,9.254 3.271,12.406c2.493,3.618 6.076,5.428 10.749,5.428c4.725,0 8.257,-1.654 10.594,-4.963c2.076,-2.843 3.116,-6.823 3.116,-11.941c0,-5.066 -1.065,-9.201 -3.194,-12.406c-2.442,-3.566 -5.972,-5.35 -10.593,-5.35c-4.726,0 -8.283,1.628 -10.671,4.885c-2.182,2.947 -3.272,6.927 -3.272,11.941zm17.915,-39.052l4.751,0l-6.698,9.792l-3.817,0l5.764,-9.792z" />
                <path id="svg_19"
                    d="m568.187,251.68549l0,-36.214c8.432,-3.056 14.236,-4.585 17.413,-4.585c2.186,0 4.189,0.357 6.011,1.071c1.822,0.714 3.371,1.712 4.647,2.992c1.275,1.281 2.264,2.828 2.967,4.641c0.702,1.814 1.054,3.808 1.054,5.984l0,26.111l-4.752,0l0,-26.111c0,-1.554 -0.26,-2.992 -0.779,-4.313c-0.52,-1.321 -1.234,-2.473 -2.142,-3.458c-0.909,-0.984 -2,-1.748 -3.272,-2.293c-1.273,-0.544 -2.687,-0.816 -4.245,-0.816c-3.844,0 -7.894,1.01 -12.151,3.031l0,33.96l-4.751,0z" />
                <path id="svg_20"
                    d="m629.644,251.53049l22.199,-54.788l6.232,0l21.576,54.788l-5.063,0l-5.686,-14.299l-28.354,0l-5.764,14.299l-5.14,0zm37.778,-18.107l-12.463,-31.629l-12.852,31.629l25.315,0z" />
                <path id="svg_21"
                    d="m714.936,251.60849c-3.688,0.933 -7.244,1.399 -10.671,1.399c-6.129,0 -10.958,-2.021 -14.488,-6.062c-3.376,-3.833 -5.063,-8.832 -5.063,-14.998c0,-6.113 1.687,-11.139 5.063,-15.076c3.583,-4.092 8.412,-6.139 14.488,-6.139c3.531,0 7.088,0.493 10.671,1.477l0,4.041c-3.427,-1.139 -6.985,-1.71 -10.671,-1.71c-4.57,0 -8.206,1.731 -10.905,5.195c-2.597,3.309 -3.895,7.367 -3.895,12.174c0,4.756 1.298,8.789 3.895,12.097c2.7,3.463 6.335,5.195 10.905,5.195c3.686,0 7.244,-0.544 10.671,-1.632l0,4.039z" />
                <path id="svg_22"
                    d="m751.467,248.26649c-4.726,3.161 -10.179,4.74 -16.358,4.74c-4.311,0 -7.894,-1.062 -10.749,-3.186c-2.753,-2.176 -4.128,-4.974 -4.128,-8.393c0,-3.782 1.636,-6.812 4.907,-9.093c3.686,-2.59 9.061,-3.886 16.124,-3.886l5.452,0l0,-5.487c0,-2.215 -0.831,-4.147 -2.492,-5.796c-1.662,-1.7 -3.739,-2.55 -6.231,-2.55c-4.779,0 -9.166,0.777 -13.164,2.331l0,-4.196c4.05,-1.295 8.724,-1.943 14.021,-1.943c3.531,0 6.516,1.165 8.958,3.497c2.44,2.28 3.661,5.156 3.661,8.626l0,25.336l-0.001,0zm-4.752,-16.009l-4.985,0c-5.661,0 -9.945,0.98 -12.853,2.94c-2.389,1.599 -3.583,3.662 -3.583,6.189c0,2.217 0.908,4.074 2.727,5.57c1.817,1.496 4.284,2.243 7.399,2.243c4.154,0 7.919,-0.953 11.294,-2.862l0,-14.08l0.001,0z" />
                <path id="svg_23"
                    d="m780.242,210.80849c3.831,0 7.61,0.674 11.338,2.021l0,-20.516l4.752,0l0,57.274c-5.09,2.176 -9.997,3.264 -14.722,3.264c-6.18,0 -11.166,-2.046 -14.956,-6.139c-3.843,-4.144 -5.764,-9.248 -5.764,-15.309c0,-6.062 1.713,-11.009 5.141,-14.843c3.365,-3.834 8.101,-5.752 14.211,-5.752zm0.466,3.808c-4.764,0 -8.413,1.632 -10.949,4.896c-2.434,3.057 -3.65,7.021 -3.65,11.89c0,4.87 1.45,8.989 4.349,12.356c3.003,3.627 6.885,5.44 11.648,5.44c2.693,0 5.849,-0.673 9.474,-2.021l0,-30.619c-3.365,-1.293 -6.989,-1.942 -10.872,-1.942z" />
                <path id="svg_24"
                    d="m824.106,210.73149c4.167,0 7.709,1.477 10.626,4.429c2.908,2.902 4.362,6.425 4.362,10.569c0,2.331 -0.82,4.196 -2.46,5.595c-1.641,1.399 -3.71,2.098 -6.209,2.098l-20.385,0c0.208,4.485 1.51,8.172 3.905,11.058c2.552,3.094 5.964,4.64 10.235,4.64c4.166,0 8.332,-0.75 12.5,-2.254l0,4.197c-4.062,1.244 -8.231,1.865 -12.5,1.865c-6.197,0 -10.937,-2.02 -14.219,-6.062c-3.115,-3.781 -4.673,-8.781 -4.673,-14.998c0,-6.062 1.48,-10.983 4.44,-14.766c3.334,-4.246 8.127,-6.371 14.378,-6.371zm10.236,14.998c0,-2.798 -1.016,-5.362 -3.047,-7.694c-2.032,-2.331 -4.402,-3.497 -7.111,-3.497c-4.22,0 -7.606,1.477 -10.159,4.429c-2.293,2.747 -3.621,6.295 -3.985,10.647l20.395,0c1.042,0 1.955,-0.375 2.735,-1.127c0.783,-0.749 1.172,-1.67 1.172,-2.758zm-6.308,-33.571l4.752,0l-6.699,9.792l-3.817,0l5.764,-9.792z" />
                <path id="svg_25"
                    d="m872.199,251.60849l0,-27.122c0,-2.643 -0.935,-4.947 -2.805,-6.916c-1.869,-1.968 -4.103,-2.953 -6.698,-2.953c-2.908,0 -6.492,1.01 -10.75,3.031l0,33.96l-4.751,0l0,-36.214l7.322,-2.798c1.714,-0.673 3.297,-1.139 4.751,-1.399c1.453,-0.259 2.752,-0.389 3.895,-0.389c4.101,0 7.451,1.399 10.049,4.196c1.142,-0.414 2.259,-0.855 3.35,-1.321c1.09,-0.466 2.18,-0.906 3.271,-1.321c1.505,-0.569 2.882,-0.971 4.128,-1.204c1.247,-0.233 2.388,-0.35 3.427,-0.35c3.945,0 7.216,1.321 9.814,3.963c2.597,2.591 3.895,5.828 3.895,9.714l0,27.122l-4.752,0l0,-27.122c0,-2.643 -0.934,-4.947 -2.805,-6.916c-1.818,-1.968 -4.025,-2.953 -6.62,-2.953c-2.597,0 -6.387,1.218 -11.372,3.652c0.935,2.021 1.402,4.093 1.402,6.217l0,27.122l-4.751,0l0,0.001z" />
                <path id="svg_26"
                    d="m913.325,192.23549l4.752,0l0,4.741l-4.752,0l0,-4.741zm4.752,19.972l0,39.4l-4.752,0l0,-39.4l4.752,0z" />
                <path id="svg_27"
                    d="m957.723,251.60849c-3.687,0.933 -7.243,1.399 -10.671,1.399c-6.128,0 -10.958,-2.021 -14.489,-6.062c-3.376,-3.833 -5.062,-8.832 -5.062,-14.998c0,-6.113 1.686,-11.139 5.062,-15.076c3.583,-4.092 8.413,-6.139 14.489,-6.139c3.531,0 7.088,0.493 10.671,1.477l0,4.041c-3.427,-1.139 -6.984,-1.71 -10.671,-1.71c-4.57,0 -8.205,1.731 -10.905,5.195c-2.598,3.309 -3.895,7.367 -3.895,12.174c0,4.756 1.297,8.789 3.895,12.097c2.7,3.463 6.335,5.195 10.905,5.195c3.687,0 7.244,-0.544 10.671,-1.632l0,4.039z" />
                <path id="svg_28"
                    d="m994.254,248.26649c-4.726,3.161 -10.179,4.74 -16.358,4.74c-4.31,0 -7.894,-1.062 -10.749,-3.186c-2.754,-2.176 -4.128,-4.974 -4.128,-8.393c0,-3.782 1.635,-6.812 4.907,-9.093c3.687,-2.59 9.06,-3.886 16.123,-3.886l5.453,0l0,-5.487c0,-2.215 -0.832,-4.147 -2.492,-5.796c-1.663,-1.7 -3.739,-2.55 -6.232,-2.55c-4.778,0 -9.165,0.777 -13.163,2.331l0,-4.196c4.05,-1.295 8.724,-1.943 14.02,-1.943c3.531,0 6.517,1.165 8.958,3.497c2.441,2.28 3.661,5.156 3.661,8.626l0,25.336zm-4.752,-16.009l-4.985,0c-5.661,0 -9.944,0.98 -12.852,2.94c-2.39,1.599 -3.584,3.662 -3.584,6.189c0,2.217 0.907,4.074 2.727,5.57c1.816,1.496 4.283,2.243 7.4,2.243c4.154,0 7.918,-0.953 11.294,-2.862l0,-14.08z" />
            </g>
        </g>
    </g>
    </g>
</svg>