<?xml version="1.0" encoding="utf-8"?>
<!-- Generator: Adobe Illustrator 24.1.0, SVG Export Plug-In . SVG Version: 6.00 Build 0)  -->
<svg version="1.1" id="Capa_1" xmlns="http://www.w3.org/2000/svg" xmlns:xlink="http://www.w3.org/1999/xlink" x="0px" y="0px"
	 viewBox="0 0 1304 368" enable-background="new 0 0 1304 368" xml:space="preserve">
<g>
	<g>
		<g>
			<path d="M466.641,261.161c4.881,0,9.563,0.855,14.043,2.564v4.222c-4.58-2.06-9.262-3.091-14.043-3.091
				c-6.644,0-12.105,2.36-16.382,7.077c-4.279,4.618-6.418,10.339-6.418,17.164c0,6.826,2.138,12.523,6.418,17.089
				c4.328,4.769,9.788,7.152,16.382,7.152c4.126,0,8.128-0.752,12.004-2.255v-20.969h-13.212v-3.694h17.817v26.993
				c-5.235,2.413-10.772,3.619-16.609,3.619c-7.954,0-14.496-2.639-19.629-7.917c-5.185-5.327-7.776-11.988-7.776-19.981
				c0-7.942,2.592-14.577,7.776-19.906C452.245,263.85,458.789,261.161,466.641,261.161z"/>
			<path d="M511.151,276.089c4.038,0,7.472,1.433,10.299,4.298c2.817,2.816,4.228,6.233,4.228,10.255
				c0,2.262-0.796,4.071-2.386,5.429c-1.59,1.357-3.596,2.036-6.018,2.036h-19.757c0.202,4.352,1.464,7.929,3.785,10.729
				c2.474,3.002,5.78,4.502,9.92,4.502c4.038,0,8.076-0.729,12.115-2.186v4.071c-3.938,1.207-7.977,1.81-12.115,1.81
				c-6.007,0-10.601-1.961-13.781-5.881c-3.02-3.669-4.53-8.521-4.53-14.553c0-5.881,1.435-10.656,4.304-14.326
				C500.447,278.151,505.092,276.089,511.151,276.089z M521.072,290.642c0-2.715-0.984-5.203-2.953-7.465
				c-1.97-2.262-4.267-3.393-6.893-3.393c-4.09,0-7.373,1.433-9.847,4.298c-2.222,2.665-3.509,6.107-3.862,10.33h19.768
				c1.01,0,1.893-0.364,2.651-1.093C520.694,292.59,521.072,291.698,521.072,290.642z"/>
			<path d="M553.838,281.518c-2.706-1.206-5.588-1.81-8.644-1.81c-5.813,0-8.719,2.187-8.719,6.561c0,2.363,1.676,4.398,5.033,6.107
				l9.463,4.826c3.371,2.313,5.057,5.229,5.057,8.746c0,3.77-1.536,6.661-4.605,8.671c-2.567,1.558-5.613,2.338-9.135,2.338
				c-4.128,0-7.625-0.528-10.495-1.583v-4.449c3.322,1.659,6.72,2.488,10.192,2.488c2.465,0,4.58-0.603,6.341-1.81
				c1.963-1.357,2.945-3.091,2.945-5.203c0-2.663-1.678-4.901-5.031-6.71c-1.552-0.854-3.105-1.659-4.657-2.413
				c-1.553-0.754-3.079-1.583-4.58-2.488c-1.789-1.005-3.091-2.198-3.909-3.581c-0.817-1.382-1.225-2.877-1.225-4.486
				c0-3.669,1.309-6.434,3.926-8.294c2.315-1.608,5.259-2.413,8.834-2.413c3.17,0,6.239,0.528,9.21,1.583V281.518z"/>
			<path d="M576.863,317.183c-1.31,0-2.518-0.214-3.623-0.642c-1.108-0.427-2.077-1.029-2.907-1.809
				c-0.831-0.778-1.485-1.696-1.963-2.752c-0.479-1.056-0.717-2.211-0.717-3.468v-27.371h-7.55v-3.694h7.55V265.76h4.605v11.687
				h9.287v3.694h-9.287v27.307c0,1.305,0.453,2.47,1.359,3.498c0.907,1.028,1.988,1.542,3.247,1.542
				c1.761,0,3.673-0.527,5.737-1.583v3.845C580.838,316.705,578.927,317.183,576.863,317.183z"/>
			<path d="M590.075,258.144h4.605v4.6h-4.605V258.144z M594.68,277.522v38.228h-4.605v-38.228H594.68z"/>
			<path d="M640.732,296.975c0,6.083-1.536,10.884-4.605,14.401c-3.171,3.771-7.752,5.655-13.74,5.655
				c-5.939,0-10.57-2.036-13.892-6.107c-3.171-3.819-4.756-8.771-4.756-14.854c0-5.931,1.559-10.731,4.681-14.401
				c3.322-3.771,7.951-5.655,13.891-5.655c5.838,0,10.418,2.062,13.741,6.183C639.171,286.068,640.732,290.994,640.732,296.975z
				 M608.797,296.034c0,4.965,1.057,8.978,3.172,12.037c2.414,3.511,5.888,5.267,10.418,5.267c4.579,0,8.003-1.604,10.267-4.815
				c2.012-2.758,3.02-6.62,3.02-11.585c0-4.916-1.032-8.927-3.095-12.037c-2.367-3.46-5.789-5.192-10.268-5.192
				c-4.58,0-8.029,1.581-10.342,4.741C609.854,287.308,608.797,291.169,608.797,296.034z M626.161,258.144h4.606l-6.493,9.501h-3.7
				L626.161,258.144z"/>
			<path d="M648.659,315.826v-35.137c8.173-2.965,13.799-4.448,16.877-4.448c2.118,0,4.06,0.346,5.826,1.039
				c1.766,0.692,3.267,1.661,4.504,2.902c1.236,1.243,2.194,2.744,2.876,4.503c0.681,1.76,1.021,3.695,1.021,5.806v25.335h-4.605
				v-25.335c0-1.508-0.252-2.902-0.755-4.185c-0.503-1.282-1.196-2.399-2.076-3.355c-0.882-0.954-1.938-1.696-3.171-2.224
				c-1.234-0.528-2.604-0.792-4.115-0.792c-3.725,0-7.651,0.98-11.777,2.94v32.951H648.659z"/>
			<path d="M729.095,276.165c3.713,0,7.376,0.654,10.989,1.96V258.22h4.606v55.57c-4.933,2.111-9.69,3.167-14.269,3.167
				c-5.989,0-10.822-1.985-14.496-5.957c-3.725-4.02-5.586-8.972-5.586-14.853c0-5.881,1.661-10.681,4.982-14.401
				C718.581,278.025,723.173,276.165,729.095,276.165z M729.547,279.86c-4.617,0-8.154,1.583-10.612,4.75
				c-2.36,2.967-3.539,6.811-3.539,11.536c0,4.726,1.406,8.722,4.215,11.988c2.911,3.52,6.673,5.278,11.29,5.278
				c2.609,0,5.669-0.652,9.182-1.96v-29.708C736.822,280.489,733.31,279.86,729.547,279.86z"/>
			<path d="M771.609,276.089c4.039,0,7.472,1.433,10.299,4.298c2.818,2.816,4.228,6.233,4.228,10.255
				c0,2.262-0.795,4.071-2.385,5.429c-1.59,1.357-3.596,2.036-6.017,2.036h-19.758c0.202,4.352,1.464,7.929,3.785,10.729
				c2.474,3.002,5.781,4.502,9.919,4.502c4.038,0,8.076-0.729,12.115-2.186v4.071c-3.938,1.207-7.977,1.81-12.115,1.81
				c-6.006,0-10.6-1.961-13.78-5.881c-3.019-3.669-4.53-8.521-4.53-14.553c0-5.881,1.434-10.656,4.304-14.326
				C760.905,278.151,765.55,276.089,771.609,276.089z M781.531,290.642c0-2.715-0.985-5.203-2.954-7.465
				c-1.97-2.262-4.267-3.393-6.893-3.393c-4.089,0-7.372,1.433-9.846,4.298c-2.223,2.665-3.51,6.107-3.863,10.33h19.769
				c1.009,0,1.893-0.364,2.65-1.093C781.152,292.59,781.531,291.698,781.531,290.642z"/>
			<path d="M820.94,262.593v53.157h-4.606v-53.157H820.94z"/>
			<path d="M832.942,315.826v-35.137c8.172-2.965,13.798-4.448,16.877-4.448c2.118,0,4.06,0.346,5.826,1.039
				c1.766,0.692,3.267,1.661,4.504,2.902c1.236,1.243,2.195,2.744,2.876,4.503c0.681,1.76,1.021,3.695,1.021,5.806v25.335h-4.605
				v-25.335c0-1.508-0.252-2.902-0.755-4.185c-0.503-1.282-1.196-2.399-2.076-3.355c-0.882-0.954-1.938-1.696-3.171-2.224
				c-1.234-0.528-2.604-0.792-4.115-0.792c-3.725,0-7.651,0.98-11.776,2.94v32.951H832.942z"/>
			<path d="M875.597,277.522l12.835,33.025l11.853-33.025h3.926l-13.816,38.228h-4.983l-14.722-38.228H875.597z"/>
			<path d="M926.222,276.089c4.04,0,7.472,1.433,10.3,4.298c2.818,2.816,4.227,6.233,4.227,10.255c0,2.262-0.795,4.071-2.384,5.429
				c-1.591,1.357-3.596,2.036-6.017,2.036H912.59c0.201,4.352,1.463,7.929,3.785,10.729c2.474,3.002,5.78,4.502,9.919,4.502
				c4.039,0,8.076-0.729,12.116-2.186v4.071c-3.939,1.207-7.977,1.81-12.116,1.81c-6.006,0-10.599-1.961-13.779-5.881
				c-3.021-3.669-4.53-8.521-4.53-14.553c0-5.881,1.434-10.656,4.303-14.326C915.519,278.151,920.165,276.089,926.222,276.089z
				 M936.144,290.642c0-2.715-0.985-5.203-2.954-7.465c-1.97-2.262-4.266-3.393-6.893-3.393c-4.089,0-7.371,1.433-9.846,4.298
				c-2.223,2.665-3.51,6.107-3.862,10.33h19.768c1.01,0,1.893-0.364,2.65-1.093C935.766,292.59,936.144,291.698,936.144,290.642z"/>
			<path d="M968.91,281.518c-2.708-1.206-5.588-1.81-8.645-1.81c-5.813,0-8.72,2.187-8.72,6.561c0,2.363,1.677,4.398,5.032,6.107
				l9.463,4.826c3.371,2.313,5.059,5.229,5.059,8.746c0,3.77-1.536,6.661-4.605,8.671c-2.567,1.558-5.613,2.338-9.136,2.338
				c-4.127,0-7.625-0.528-10.494-1.583v-4.449c3.322,1.659,6.719,2.488,10.192,2.488c2.466,0,4.579-0.603,6.342-1.81
				c1.963-1.357,2.945-3.091,2.945-5.203c0-2.663-1.678-4.901-5.031-6.71c-1.553-0.854-3.105-1.659-4.658-2.413
				c-1.552-0.754-3.078-1.583-4.58-2.488c-1.788-1.005-3.091-2.198-3.908-3.581c-0.817-1.382-1.226-2.877-1.226-4.486
				c0-3.669,1.308-6.434,3.926-8.294c2.315-1.608,5.26-2.413,8.834-2.413c3.171,0,6.24,0.528,9.211,1.583V281.518z"/>
			<path d="M991.935,317.183c-1.31,0-2.518-0.214-3.624-0.642c-1.108-0.427-2.076-1.029-2.906-1.809
				c-0.832-0.778-1.486-1.696-1.964-2.752c-0.479-1.056-0.718-2.211-0.718-3.468v-27.371h-7.549v-3.694h7.549V265.76h4.606v11.687
				h9.286v3.694h-9.286v27.307c0,1.305,0.453,2.47,1.359,3.498c0.906,1.028,1.988,1.542,3.247,1.542
				c1.761,0,3.674-0.527,5.737-1.583v3.845C995.91,316.705,993.998,317.183,991.935,317.183z"/>
			<path d="M1005.147,258.144h4.605v4.6h-4.605V258.144z M1009.752,277.522v38.228h-4.605v-38.228H1009.752z"/>
			<path d="M1038.667,337.616c-4.983,0-9.815-0.931-14.496-2.79v-4.298c4.529,2.262,9.36,3.393,14.496,3.393
				c2.968,0,5.51-1.133,7.625-3.399c2.113-2.165,3.17-4.757,3.17-7.777v-7.024c-1.561,0.462-3.146,0.82-4.756,1.078
				c-1.612,0.256-3.272,0.384-4.983,0.384c-6.04,0-10.947-2.036-14.722-6.108c-3.675-3.97-5.512-8.922-5.512-14.854
				c0-6.032,1.61-10.831,4.832-14.401c3.381-3.77,8.074-5.655,14.078-5.655c5.702,0,10.924,1.031,15.668,3.091v43.506
				c0,4.223-1.51,7.74-4.53,10.556C1046.567,336.183,1042.943,337.616,1038.667,337.616z M1038.817,279.86
				c-4.681,0-8.255,1.58-10.721,4.739c-2.367,2.959-3.549,6.821-3.549,11.586c0,4.665,1.409,8.677,4.229,12.037
				c2.918,3.511,6.719,5.266,11.4,5.266c2.616,0,5.711-0.626,9.286-1.88V281.59C1045.888,280.437,1042.339,279.86,1038.817,279.86z"
				/>
			<path d="M1092.72,312.508c-4.58,3.067-9.865,4.599-15.854,4.599c-4.178,0-7.65-1.03-10.419-3.091
				c-2.668-2.111-4.001-4.826-4.001-8.144c0-3.669,1.586-6.609,4.756-8.822c3.573-2.513,8.783-3.77,15.628-3.77h5.286v-5.324
				c0-2.148-0.807-4.023-2.417-5.624c-1.611-1.649-3.624-2.473-6.04-2.473c-4.631,0-8.884,0.754-12.759,2.262v-4.071
				c3.925-1.256,8.455-1.885,13.589-1.885c3.423,0,6.317,1.131,8.682,3.393c2.364,2.212,3.548,5.002,3.548,8.369V312.508z
				 M1088.116,296.975h-4.833c-5.487,0-9.639,0.951-12.458,2.853c-2.315,1.552-3.473,3.553-3.473,6.005
				c0,2.151,0.88,3.953,2.643,5.404c1.762,1.451,4.152,2.176,7.172,2.176c4.026,0,7.675-0.925,10.948-2.777V296.975z"/>
			<path d="M1130.543,315.75c-3.574,0.905-7.021,1.357-10.342,1.357c-5.94,0-10.621-1.96-14.044-5.881
				c-3.272-3.72-4.906-8.57-4.906-14.552c0-5.931,1.634-10.807,4.906-14.628c3.475-3.971,8.154-5.957,14.044-5.957
				c3.422,0,6.869,0.479,10.342,1.433v3.921c-3.322-1.105-6.77-1.659-10.342-1.659c-4.431,0-7.953,1.68-10.569,5.04
				c-2.518,3.21-3.775,7.148-3.775,11.812c0,4.614,1.258,8.527,3.775,11.736c2.616,3.36,6.139,5.04,10.569,5.04
				c3.572,0,7.02-0.528,10.342-1.583V315.75z"/>
			<path d="M1138.771,258.144h4.604v4.6h-4.604V258.144z M1143.376,277.522v38.228h-4.604v-38.228H1143.376z"/>
			<path d="M1189.427,296.975c0,6.083-1.535,10.884-4.604,14.401c-3.172,3.771-7.751,5.655-13.741,5.655
				c-5.94,0-10.569-2.036-13.891-6.107c-3.172-3.819-4.758-8.771-4.758-14.854c0-5.931,1.561-10.731,4.682-14.401
				c3.323-3.771,7.951-5.655,13.892-5.655c5.839,0,10.419,2.062,13.741,6.183C1187.866,286.068,1189.427,290.994,1189.427,296.975z
				 M1157.492,296.034c0,4.965,1.057,8.978,3.172,12.037c2.416,3.511,5.888,5.267,10.418,5.267c4.58,0,8.002-1.604,10.268-4.815
				c2.013-2.758,3.021-6.62,3.021-11.585c0-4.916-1.033-8.927-3.098-12.037c-2.365-3.46-5.789-5.192-10.267-5.192
				c-4.581,0-8.028,1.581-10.343,4.741C1158.549,287.308,1157.492,291.169,1157.492,296.034z"/>
			<path d="M1198.41,315.826v-35.137c8.174-2.965,13.799-4.448,16.879-4.448c2.119,0,4.06,0.346,5.825,1.039
				c1.767,0.692,3.269,1.661,4.504,2.902c1.237,1.243,2.195,2.744,2.876,4.503c0.682,1.76,1.022,3.695,1.022,5.806v25.335h-4.606
				v-25.335c0-1.508-0.252-2.902-0.754-4.185c-0.505-1.282-1.196-2.399-2.076-3.355c-0.883-0.954-1.938-1.696-3.171-2.224
				c-1.233-0.528-2.604-0.792-4.116-0.792c-3.725,0-7.65,0.98-11.776,2.94v32.951H1198.41z"/>
			<path d="M1256.736,276.089c4.04,0,7.472,1.433,10.299,4.298c2.819,2.816,4.229,6.233,4.229,10.255
				c0,2.262-0.795,4.071-2.386,5.429c-1.589,1.357-3.595,2.036-6.017,2.036h-19.757c0.201,4.352,1.464,7.929,3.786,10.729
				c2.474,3.002,5.778,4.502,9.918,4.502c4.039,0,8.076-0.729,12.114-2.186v4.071c-3.937,1.207-7.976,1.81-12.114,1.81
				c-6.007,0-10.601-1.961-13.779-5.881c-3.021-3.669-4.531-8.521-4.531-14.553c0-5.881,1.434-10.656,4.305-14.326
				C1246.032,278.151,1250.679,276.089,1256.736,276.089z M1266.658,290.642c0-2.715-0.984-5.203-2.953-7.465
				c-1.971-2.262-4.268-3.393-6.893-3.393c-4.091,0-7.371,1.433-9.846,4.298c-2.223,2.665-3.511,6.107-3.862,10.33h19.768
				c1.01,0,1.894-0.364,2.65-1.093C1266.28,292.59,1266.658,291.698,1266.658,290.642z"/>
			<path d="M1299.424,281.518c-2.706-1.206-5.588-1.81-8.646-1.81c-5.813,0-8.72,2.187-8.72,6.561c0,2.363,1.679,4.398,5.032,6.107
				l9.464,4.826c3.371,2.313,5.059,5.229,5.059,8.746c0,3.77-1.535,6.661-4.605,8.671c-2.566,1.558-5.612,2.338-9.135,2.338
				c-4.127,0-7.626-0.528-10.494-1.583v-4.449c3.32,1.659,6.719,2.488,10.191,2.488c2.467,0,4.579-0.603,6.342-1.81
				c1.962-1.357,2.945-3.091,2.945-5.203c0-2.663-1.678-4.901-5.032-6.71c-1.552-0.854-3.104-1.659-4.658-2.413
				c-1.551-0.754-3.077-1.583-4.579-2.488c-1.789-1.005-3.092-2.198-3.907-3.581c-0.818-1.382-1.227-2.877-1.227-4.486
				c0-3.669,1.309-6.434,3.927-8.294c2.314-1.608,5.258-2.413,8.833-2.413c3.169,0,6.239,0.528,9.21,1.583V281.518z"/>
		</g>
	</g>
	<g>
		<g>
			<path d="M544.642,73.251c-0.95,0-1.825-0.236-2.628-0.71c-0.804-0.474-1.715-1.11-2.736-1.914l-0.219-0.109
				c-1.387-1.384-3.174-2.915-5.364-4.592c-2.189-1.676-4.635-3.243-7.334-4.701c-2.702-1.458-5.602-2.696-8.704-3.717
				c-3.102-1.02-6.258-1.531-9.469-1.531c-4.088,0-7.701,0.457-10.838,1.367c-3.138,0.912-5.766,2.151-7.881,3.717
				c-2.118,1.568-3.722,3.408-4.817,5.521c-1.095,2.115-1.642,4.374-1.642,6.779c0,2.624,0.821,4.92,2.463,6.888
				c1.642,1.968,3.867,3.717,6.678,5.248c2.808,1.531,6.038,2.935,9.688,4.209c3.649,1.275,7.48,2.533,11.495,3.771
				c4.598,1.386,9.159,2.88,13.685,4.483c4.524,1.604,8.849,3.408,12.972,5.412c4.123,2.006,7.973,4.229,11.549,6.67
				c3.576,2.443,6.659,5.248,9.25,8.418c2.59,3.171,4.634,6.707,6.131,10.606c1.495,3.9,2.244,8.292,2.244,13.174
				c0,7.945-1.606,15.126-4.816,21.539c-3.213,6.414-7.646,11.899-13.301,16.454c-5.657,4.556-12.299,8.055-19.925,10.496
				c-7.627,2.441-15.819,3.662-24.575,3.662c-5.621,0-11.204-0.656-16.75-1.968c-5.547-1.312-10.875-3.171-15.982-5.576
				c-5.109-2.405-9.945-5.302-14.505-8.691c-4.561-3.39-8.63-7.197-12.206-11.426v0.11l-0.219-0.438
				c-1.607-1.821-2.408-3.499-2.408-5.029c0-0.801,0.218-1.566,0.656-2.296c0.439-0.728,1.095-1.531,1.971-2.405l3.613-3.608
				c1.094-0.946,2.261-2.004,3.503-3.171c1.24-1.165,2.48-2.222,3.722-3.17c1.241-0.946,2.391-1.749,3.449-2.405
				c1.057-0.656,1.915-0.984,2.573-0.984c1.021,0,1.971,0.328,2.846,0.984c0.875,0.656,1.604,1.276,2.189,1.859l0.439,0.438h-0.109
				c2.554,2.405,5.418,4.701,8.593,6.887c3.175,2.187,6.441,4.138,9.798,5.85c3.356,1.713,6.694,3.061,10.017,4.046
				c3.32,0.984,6.44,1.476,9.359,1.476c4.014,0,7.773-0.509,11.276-1.53c3.503-1.02,6.53-2.46,9.086-4.319
				c2.554-1.858,4.56-4.1,6.021-6.724c1.459-2.623,2.189-5.538,2.189-8.746c0-3.206-0.948-5.959-2.846-8.255
				c-1.898-2.296-4.379-4.3-7.444-6.013c-3.065-1.712-6.514-3.188-10.345-4.429c-3.831-1.238-7.682-2.405-11.549-3.498
				c-8.905-2.696-16.695-5.612-23.373-8.747c-6.678-3.133-12.244-6.65-16.694-10.55c-4.452-3.898-7.792-8.271-10.017-13.12
				c-2.227-4.847-3.338-10.294-3.338-16.345c0-6.779,1.368-12.956,4.104-18.532c2.737-5.576,6.623-10.349,11.658-14.322
				c5.036-3.972,11.093-7.069,18.173-9.293c7.078-2.223,14.998-3.335,23.755-3.335c6.641,0,13.392,1.039,20.252,3.116
				c6.86,2.077,13.209,4.938,19.048,8.583c1.752,1.093,3.54,2.333,5.365,3.717c1.823,1.386,3.502,2.788,5.036,4.209
				c1.532,1.422,2.791,2.807,3.777,4.155c0.985,1.349,1.477,2.497,1.477,3.443c0,0.875-0.219,1.769-0.657,2.679
				c-0.439,0.912-0.986,1.732-1.643,2.46l-3.284,3.499v-0.109c-1.095,1.167-2.227,2.369-3.393,3.607
				c-1.168,1.24-2.337,2.351-3.504,3.335c-1.168,0.984-2.227,1.804-3.174,2.46C546.101,72.923,545.298,73.251,544.642,73.251z"/>
			<path d="M596.857,34.766c0-1.312,0.398-2.441,1.199-3.389c0.8-0.946,2-1.421,3.6-1.421h21.711c1.236,0,2.399,0.438,3.491,1.313
				c1.091,0.874,1.637,2.041,1.637,3.498v152.736c0,3.208-1.711,4.811-5.128,4.811h-21.711c-3.2,0-4.799-1.603-4.799-4.811V34.766z"
				/>
			<path d="M786.351,41.763c0.877,0.511,1.606,1.131,2.19,1.859c0.583,0.729,0.875,1.604,0.875,2.624
				c0,0.803-0.219,1.64-0.657,2.515L778.141,66.8c-1.242,1.678-2.556,2.515-3.94,2.515c-0.438,0-0.949-0.09-1.533-0.274
				c-0.585-0.18-1.168-0.454-1.751-0.819c-4.598-3.28-9.524-5.831-14.778-7.653c-5.255-1.821-10.838-2.734-16.75-2.734
				c-7.444,0-14.269,1.405-20.471,4.209c-6.205,2.807-11.568,6.615-16.092,11.425c-4.526,4.81-8.046,10.46-10.564,16.946
				c-2.518,6.488-3.776,13.448-3.776,20.882c0,7.363,1.259,14.268,3.776,20.718c2.518,6.451,6.039,12.082,10.564,16.892
				c4.524,4.811,9.888,8.601,16.092,11.37c6.202,2.771,13.026,4.154,20.471,4.154c5.912,0,11.549-0.91,16.914-2.733
				c5.363-1.821,10.307-4.373,14.832-7.653c0.583-0.437,1.186-0.728,1.806-0.875c0.62-0.145,1.15-0.255,1.588-0.328
				c1.24,0,2.518,0.803,3.831,2.405l10.838,18.259c0.437,0.874,0.657,1.677,0.657,2.405c0,1.021-0.312,1.858-0.931,2.515
				c-0.621,0.656-1.333,1.276-2.135,1.858c-6.861,4.592-14.251,8.145-22.168,10.66c-7.919,2.515-16.257,3.772-25.015,3.772
				c-7.736,0-15.161-0.984-22.277-2.952c-7.116-1.968-13.776-4.772-19.979-8.418c-6.204-3.644-11.842-7.999-16.913-13.066
				c-5.074-5.065-9.434-10.677-13.081-16.837c-3.65-6.159-6.459-12.792-8.429-19.898c-1.971-7.106-2.956-14.522-2.956-22.249
				c0-7.725,0.985-15.143,2.956-22.249c1.97-7.106,4.779-13.775,8.429-20.008c3.648-6.231,8.008-11.898,13.081-17
				c5.071-5.101,10.709-9.458,16.913-13.065c6.203-3.608,12.863-6.414,19.979-8.418c7.116-2.004,14.541-3.007,22.277-3.007
				c8.685,0,16.931,1.222,24.741,3.663C772.156,33.656,779.49,37.171,786.351,41.763z"/>
			<path d="M819.191,34.766c0-1.312,0.399-2.441,1.199-3.389c0.8-0.946,2-1.421,3.6-1.421h21.711c1.237,0,2.399,0.438,3.491,1.313
				c1.091,0.874,1.637,2.041,1.637,3.498v152.736c0,3.208-1.711,4.811-5.128,4.811H823.99c-3.2,0-4.799-1.603-4.799-4.811V34.766z"
				/>
			<path d="M916.838,126.386c0,6.123,0.876,11.627,2.627,16.509c1.751,4.884,4.214,9.02,7.389,12.409
				c3.175,3.39,6.969,5.978,11.385,7.763c4.415,1.787,9.322,2.679,14.724,2.679c5.692,0,10.8-0.946,15.326-2.843
				c4.524-1.895,8.337-4.573,11.44-8.036c3.102-3.461,5.473-7.616,7.116-12.464c1.642-4.846,2.463-10.185,2.463-16.017v-91.62
				c0-1.312,0.472-2.441,1.417-3.389c0.945-0.946,2.145-1.421,3.601-1.421h21.164c1.525,0,2.817,0.475,3.873,1.421
				c1.054,0.948,1.582,2.078,1.582,3.389v92.823c0,11.298-1.823,21.156-5.47,29.574c-3.647,8.419-8.567,15.435-14.766,21.046
				c-6.199,5.614-13.417,9.804-21.656,12.573c-8.241,2.769-16.955,4.155-26.143,4.155c-9.189,0-17.904-1.476-26.144-4.428
				c-8.241-2.952-15.459-7.27-21.658-12.956c-6.199-5.686-11.119-12.718-14.767-21.101c-3.647-8.381-5.469-18.002-5.469-28.863
				V34.766c0-1.165,0.419-2.258,1.259-3.28c0.838-1.02,1.916-1.531,3.229-1.531h22.333c1.094,0,2.225,0.475,3.393,1.421
				c1.167,0.948,1.752,2.078,1.752,3.389V126.386z"/>
			<path d="M1192.923,111.298c0,7.581-0.988,14.852-2.96,21.811c-1.973,6.961-4.748,13.448-8.326,19.461
				c-3.578,6.013-7.87,11.463-12.872,16.345c-5.003,4.884-10.571,9.057-16.708,12.518c-6.136,3.462-12.727,6.141-19.773,8.036
				c-7.048,1.896-14.407,2.843-22.077,2.843h-52.587c-1.315,0-2.483-0.291-3.506-0.875c-1.023-0.582-1.533-1.821-1.533-3.717V35.094
				c0-3.425,1.679-5.139,5.039-5.139h52.587c11.612,0,22.441,2.096,32.484,6.287c10.042,4.192,18.789,9.949,26.238,17.274
				s13.313,15.926,17.585,25.802C1190.785,89.196,1192.923,99.856,1192.923,111.298z M1084.217,59.913v102.443h10.4
				c5.473,0,10.946-0.109,16.421-0.328c7.225-0.218,13.903-1.695,20.034-4.431c6.129-2.737,11.438-6.403,15.927-11
				c4.489-4.597,7.991-9.979,10.509-16.145c2.519-6.165,3.777-12.786,3.777-19.864c0-7.515-1.368-14.392-4.105-20.631
				c-2.735-6.239-6.478-11.582-11.221-16.034c-4.744-4.45-10.291-7.897-16.639-10.342c-6.351-2.445-13.101-3.668-20.254-3.668
				H1084.217z"/>
		</g>
	</g>
	<g>
		<path fill="#061E5C" d="M187.526,306.24L15.35,324.254l5.527-101.914L79.544,82.093l64.053-58.703l18.848-12.047l96.503,29.906
			l76.097,89.3l11.479,105.081l8.209,13.559l-58.374,116.03L187.526,306.24z M271.417,223.725l62.918,24.781l3.686-3.324
			L326.4,138.167L271.417,223.725z M199.145,132.349l63.628,89.991l53.141-88.47L199.145,132.349z M208.356,126.119l108.266-2.631
			l-61.218-68.115l-51.299,62.994L208.356,126.119z M252.145,46.234l-88.426-22.431l23.666,97.192L252.145,46.234z M130.824,213.401
			l120.896,15.585l0.141-5.121l-60.224-84.039l-13.322,6.921L130.824,213.401z M154.366,29.205l-71.563,64.24l84.742,28.244
			l8.502-4.432L154.366,29.205z M122.056,209.879l55.267-76.284l-94.662-29.489L122.056,209.879z M39.583,194.653l7.797,12.002
			l64.19,8.209L78.41,112.689L39.583,194.653z M30.371,224.557l-4.959,87.638l83.466-87.223l-65.895-10.798L30.371,224.557z
			 M37.597,312.195l138.162-13.637l-52.994-62.371l-11.62-0.557L37.597,312.195z M205.522,304.163l45.914-67.009l-123.427-11.213
			l63.627,76.145L205.522,304.163z M213.459,309.147l72.695,40.706l-20.83-97.33l-12.188-1.384L213.459,309.147z M296.074,343.206
			l38.91-80.497l-3.767-4.925l-46.622-18.829l-11.479,12.044L296.074,343.206z"/>
		<path fill="#2862E0" stroke="#2862E0" stroke-miterlimit="10" d="M263.77,65.468c-11.424,0-20.685-9.048-20.685-20.208
			c0-11.161,9.261-20.208,20.685-20.208c11.424,0,20.686,9.047,20.686,20.208C284.456,56.42,275.194,65.468,263.77,65.468z"/>
		<path fill="#3FB4FC" d="M326.888,143.165c-9.436,0.001-17.086-7.474-17.086-16.691c0-9.22,7.65-16.692,17.086-16.692
			c9.435,0,17.084,7.473,17.084,16.692C343.973,135.69,336.324,143.165,326.888,143.165z"/>
		<path fill="#2862E0" stroke="#2862E0" stroke-miterlimit="10" d="M346.443,266.107c-10.844,0-19.635-8.59-19.635-19.185
			c0-10.594,8.791-19.183,19.635-19.183c10.844-0.001,19.636,8.589,19.636,19.184C366.079,257.517,357.287,266.107,346.443,266.107z
			"/>
		<path fill="#2150AD" stroke="#2150AD" stroke-miterlimit="10" d="M291.177,365.79c-12.253,0-22.187-9.705-22.187-21.676
			s9.933-21.676,22.187-21.675c12.252,0,22.187,9.704,22.187,21.676C313.363,356.086,303.429,365.79,291.177,365.79z"/>
		<path fill="#2150AD" stroke="#2150AD" stroke-miterlimit="10" d="M185.546,146.878c-11.424,0-20.686-9.05-20.686-20.211
			c0-11.159,9.262-20.208,20.686-20.208c11.423,0,20.685,9.049,20.685,20.208C206.231,137.828,196.969,146.878,185.546,146.878z"/>
		<path fill="#428EFC" d="M263.77,253.206c-11.424,0-20.685-9.049-20.685-20.21c0-11.161,9.261-20.21,20.685-20.21
			c11.424,0,20.686,9.049,20.686,20.21C284.456,244.157,275.194,253.206,263.77,253.206z"/>
		<path fill="#3FB4FC" d="M195.749,326.306c-11.423,0-20.684-9.048-20.684-20.208s9.261-20.209,20.684-20.209
			c11.424,0.001,20.686,9.049,20.686,20.209S207.173,326.305,195.749,326.306z"/>
		<path fill="#2862E0" stroke="#2862E0" stroke-miterlimit="10" d="M22.297,339.598c-11.422,0-20.685-9.047-20.685-20.21
			c0-11.16,9.262-20.208,20.685-20.208c11.425,0,20.686,9.047,20.686,20.209C42.983,330.551,33.723,339.598,22.297,339.598z"/>
		<path fill="#2150AD" stroke="#2150AD" stroke-miterlimit="10" d="M27.685,224.408c-10.33,0-18.703-8.181-18.703-18.27
			c0-10.091,8.373-18.271,18.703-18.271c10.327-0.001,18.7,8.181,18.7,18.271C46.385,216.227,38.012,224.408,27.685,224.408z"/>
		<path fill="#428EFC" d="M115.966,239.361c-12.284,0-22.244-9.732-22.244-21.732c0-12.002,9.959-21.734,22.244-21.734
			c12.285,0,22.246,9.732,22.246,21.734C138.211,229.629,128.251,239.361,115.966,239.361z"/>
		<path fill="#3FB4FC" d="M74.73,116.416c-10.328,0-18.702-8.179-18.702-18.269c0-10.09,8.373-18.271,18.702-18.27
			c10.327,0,18.7,8.18,18.701,18.27C93.432,108.238,85.057,116.416,74.73,116.416z"/>
		<path fill="#428EFC" d="M156.639,28.918c-7.669,0-13.884-6.072-13.884-13.564c0-7.49,6.215-13.563,13.884-13.564
			c7.668,0,13.883,6.074,13.883,13.564C170.521,22.847,164.307,28.918,156.639,28.918z"/>
	</g>
</g>
</svg>
