<?xml version="1.0" encoding="UTF-8" standalone="no"?>
<!-- Generator: Adobe Illustrator 24.1.0, SVG Export Plug-In . SVG Version: 6.00 Build 0)  -->

<svg
   xmlns:dc="http://purl.org/dc/elements/1.1/"
   xmlns:cc="http://creativecommons.org/ns#"
   xmlns:rdf="http://www.w3.org/1999/02/22-rdf-syntax-ns#"
   xmlns:svg="http://www.w3.org/2000/svg"
   xmlns="http://www.w3.org/2000/svg"
   xmlns:sodipodi="http://sodipodi.sourceforge.net/DTD/sodipodi-0.dtd"
   xmlns:inkscape="http://www.inkscape.org/namespaces/inkscape"
   version="1.1"
   id="Capa_1"
   x="0px"
   y="0px"
   viewBox="0 0 1304 368"
   enable-background="new 0 0 1304 368"
   xml:space="preserve"
   sodipodi:docname="sisifo2.svg"
   inkscape:version="0.92.5 (2060ec1f9f, 2020-04-08)"><metadata
   id="metadata93"><rdf:RDF><cc:Work
       rdf:about=""><dc:format>image/svg+xml</dc:format><dc:type
         rdf:resource="http://purl.org/dc/dcmitype/StillImage" /><dc:title></dc:title></cc:Work></rdf:RDF></metadata><defs
   id="defs91">
		
	</defs><sodipodi:namedview
   pagecolor="#ffffff"
   bordercolor="#666666"
   borderopacity="1"
   objecttolerance="10"
   gridtolerance="10"
   guidetolerance="10"
   inkscape:pageopacity="0"
   inkscape:pageshadow="2"
   inkscape:window-width="1848"
   inkscape:window-height="1016"
   id="namedview89"
   showgrid="false"
   inkscape:zoom="0.96088437"
   inkscape:cx="838.30217"
   inkscape:cy="66.653779"
   inkscape:window-x="72"
   inkscape:window-y="27"
   inkscape:window-maximized="1"
   inkscape:current-layer="g60" />
<g
   id="g86">
	<g
   id="g60">
			
			
			
			
			
			
			
			
			
			
			
			
			
			
			
			
			
			
			
			
			
			
			
			
			
			
			
			
			
		<text
   xml:space="preserve"
   style="font-style:normal;font-weight:300;font-size:77.33333333px;line-height:1.25;font-family:'For the love of fonts light';letter-spacing:0px;word-spacing:0px;fill:#000000;fill-opacity:1;stroke:none;-inkscape-font-specification:'For the love of fonts light, Light';font-stretch:normal;font-variant:normal;text-anchor:start;text-align:start;writing-mode:lr;font-variant-ligatures:normal;font-variant-caps:normal;font-variant-numeric:normal;font-feature-settings:normal;"
   x="486.01062"
   y="244.15576"
   id="text3846"><tspan
     sodipodi:role="line"
     id="tspan3844"
     x="486.01062"
     y="244.15576"
     style="font-style:normal;font-variant:normal;font-weight:300;font-stretch:normal;font-size:77.33333333px;font-family:'For the love of fonts light';-inkscape-font-specification:'For the love of fonts light, Light';font-variant-ligatures:normal;font-variant-caps:normal;font-variant-numeric:normal;font-feature-settings:normal;text-align:start;writing-mode:lr;text-anchor:start;">Gestión de Auditoría y</tspan><tspan
     sodipodi:role="line"
     x="486.01062"
     y="344.15573"
     id="tspan3848"
     style="font-style:normal;font-variant:normal;font-weight:300;font-stretch:normal;font-size:77.33333333px;font-family:'For the love of fonts light';-inkscape-font-specification:'For the love of fonts light, Light';font-variant-ligatures:normal;font-variant-caps:normal;font-variant-numeric:normal;font-feature-settings:normal;text-align:start;writing-mode:lr;text-anchor:start;">Planes de Mejoramiento</tspan></text>
</g>
	<g
   id="g78">
		<g
   id="g76">
			<path
   d="M652.481,79.028c-0.784,0-1.509-0.194-2.171-0.586c-0.664-0.392-1.418-0.917-2.261-1.581l-0.181-0.09     c-1.147-1.144-2.624-2.408-4.433-3.795c-1.809-1.386-3.83-2.68-6.061-3.886c-2.231-1.203-4.628-2.227-7.191-3.07     c-2.563-0.843-5.171-1.265-7.825-1.265c-3.378,0-6.363,0.377-8.955,1.129c-2.593,0.754-4.764,1.777-6.512,3.072     c-1.75,1.296-3.076,2.816-3.981,4.562c-0.905,1.748-1.356,3.613-1.356,5.601c0,2.168,0.678,4.065,2.036,5.691     c1.356,1.626,3.195,3.072,5.517,4.337c2.32,1.264,4.99,2.424,8.005,3.477c3.015,1.054,6.18,2.093,9.497,3.117     c3.8,1.145,7.567,2.38,11.307,3.704c3.738,1.326,7.312,2.816,10.719,4.471c3.406,1.657,6.588,3.494,9.544,5.511     c2.953,2.02,5.501,4.337,7.643,6.958c2.139,2.619,3.828,5.541,5.065,8.762c1.235,3.223,1.854,6.851,1.854,10.886     c0,6.564-1.327,12.497-3.98,17.797c-2.654,5.3-6.316,9.832-10.99,13.595c-4.673,3.766-10.162,6.656-16.462,8.673     c-6.303,2.018-13.071,3.027-20.308,3.027c-4.644,0-9.257-0.542-13.839-1.627c-4.583-1.083-8.986-2.62-13.207-4.606     c-4.222-1.987-8.217-4.382-11.984-7.182c-3.77-2.801-7.132-5.947-10.087-9.441v0.09l-0.181-0.362     c-1.327-1.503-1.99-2.89-1.99-4.154c0-0.663,0.181-1.295,0.543-1.898c0.361-0.602,0.904-1.265,1.627-1.987l2.986-2.982     c0.904-0.781,1.868-1.654,2.895-2.619c1.024-0.962,2.049-1.836,3.075-2.62c1.024-0.781,1.974-1.445,2.849-1.987     c0.873-0.542,1.583-0.813,2.125-0.813c0.843,0,1.628,0.271,2.352,0.813c0.723,0.542,1.325,1.054,1.809,1.535l0.362,0.362h-0.09     c2.11,1.987,4.478,3.884,7.101,5.691c2.623,1.807,5.321,3.419,8.095,4.833c2.773,1.416,5.532,2.529,8.277,3.342     c2.744,0.814,5.321,1.22,7.734,1.22c3.315,0,6.422-0.42,9.317-1.264c2.895-0.843,5.396-2.033,7.508-3.569     c2.11-1.536,3.768-3.387,4.974-5.556c1.206-2.168,1.81-4.576,1.81-7.227c0-2.65-0.784-4.923-2.352-6.821     c-1.568-1.896-3.618-3.553-6.15-4.969c-2.533-1.414-5.382-2.633-8.549-3.659c-3.166-1.023-6.347-1.987-9.543-2.89     c-7.358-2.229-13.794-4.637-19.311-7.229c-5.518-2.588-10.117-5.495-13.795-8.718c-3.679-3.22-6.438-6.834-8.276-10.839     c-1.841-4.005-2.759-8.507-2.759-13.507c0-5.601,1.131-10.705,3.391-15.312c2.262-4.608,5.474-8.552,9.634-11.835     c4.162-3.282,9.167-5.841,15.016-7.679c5.848-1.835,12.392-2.755,19.629-2.755c5.486,0,11.065,0.858,16.734,2.575     c5.668,1.717,10.915,4.081,15.739,7.092c1.447,0.903,2.925,1.928,4.433,3.071c1.506,1.145,2.895,2.303,4.16,3.478     c1.267,1.174,2.307,2.32,3.121,3.433c0.814,1.116,1.221,2.064,1.221,2.846c0,0.723-0.182,1.461-0.542,2.213     c-0.362,0.754-0.815,1.432-1.358,2.033l-2.713,2.891v-0.09c-0.905,0.963-1.841,1.957-2.804,2.98     c-0.965,1.026-1.931,1.942-2.895,2.755c-0.965,0.813-1.84,1.491-2.623,2.033C653.686,78.757,653.024,79.028,652.481,79.028z"
   id="path64" />
			<path
   d="M695.537,47.228c0-1.083,0.329-2.017,0.99-2.8c0.662-0.782,1.653-1.174,2.976-1.174h17.938     c1.022,0,1.982,0.362,2.885,1.085c0.901,0.722,1.352,1.686,1.352,2.89v126.205c0,2.651-1.413,3.976-4.237,3.976h-17.938     c-2.644,0-3.965-1.324-3.965-3.976V47.228z M704.129,5.492c0.482-1.324,1.161-2.288,2.036-2.891     c0.873-0.601,1.824-0.903,2.85-0.903h16.101c0.964,0,1.643,0.226,2.035,0.678c0.392,0.452,0.588,1.009,0.588,1.67     c0,0.483-0.045,1.01-0.135,1.582c-0.091,0.573-0.257,1.129-0.498,1.671l-8.593,19.153c-1.147,2.529-2.745,3.793-4.794,3.793     h-14.111c-1.027,0-1.689-0.239-1.991-0.723c-0.302-0.481-0.452-1.053-0.452-1.716c0-0.602,0.029-1.205,0.09-1.808     c0.06-0.6,0.24-1.232,0.543-1.896L704.129,5.492z"
   id="path66" />
			<path
   d="M827.601,79.028c-0.785,0-1.508-0.194-2.171-0.586c-0.664-0.392-1.417-0.917-2.261-1.581l-0.181-0.09     c-1.146-1.144-2.623-2.408-4.432-3.795c-1.809-1.386-3.831-2.68-6.061-3.886c-2.231-1.203-4.628-2.227-7.19-3.07     c-2.563-0.843-5.172-1.265-7.825-1.265c-3.378,0-6.363,0.377-8.956,1.129c-2.593,0.754-4.764,1.777-6.512,3.072     c-1.75,1.296-3.075,2.816-3.98,4.562c-0.905,1.748-1.356,3.613-1.356,5.601c0,2.168,0.678,4.065,2.035,5.691     c1.357,1.626,3.195,3.072,5.517,4.337c2.321,1.264,4.99,2.424,8.005,3.477c3.015,1.054,6.181,2.093,9.498,3.117     c3.799,1.145,7.567,2.38,11.307,3.704c3.739,1.326,7.311,2.816,10.72,4.471c3.406,1.657,6.587,3.494,9.543,5.511     c2.954,2.02,5.501,4.337,7.644,6.958c2.14,2.619,3.829,5.541,5.065,8.762c1.235,3.223,1.854,6.851,1.854,10.886     c0,6.564-1.326,12.497-3.98,17.797c-2.654,5.3-6.317,9.832-10.99,13.595c-4.674,3.766-10.162,6.656-16.463,8.673     c-6.302,2.018-13.07,3.027-20.307,3.027c-4.645,0-9.257-0.542-13.84-1.627c-4.583-1.083-8.986-2.62-13.206-4.606     c-4.222-1.987-8.217-4.382-11.985-7.182c-3.77-2.801-7.133-5.947-10.086-9.441v0.09l-0.181-0.362     c-1.327-1.503-1.99-2.89-1.99-4.154c0-0.663,0.181-1.295,0.543-1.898c0.361-0.602,0.904-1.265,1.628-1.987l2.984-2.982     c0.905-0.781,1.869-1.654,2.895-2.619c1.024-0.962,2.049-1.836,3.075-2.62c1.025-0.781,1.975-1.445,2.85-1.987     c0.873-0.542,1.583-0.813,2.125-0.813c0.844,0,1.628,0.271,2.352,0.813c0.724,0.542,1.327,1.054,1.809,1.535l0.363,0.362h-0.091     c2.11,1.987,4.477,3.884,7.101,5.691c2.623,1.807,5.321,3.419,8.096,4.833c2.772,1.416,5.532,2.529,8.276,3.342     c2.744,0.814,5.322,1.22,7.734,1.22c3.315,0,6.422-0.42,9.317-1.264c2.894-0.843,5.396-2.033,7.507-3.569     c2.11-1.536,3.769-3.387,4.975-5.556c1.206-2.168,1.81-4.576,1.81-7.227c0-2.65-0.785-4.923-2.352-6.821     c-1.569-1.896-3.618-3.553-6.151-4.969c-2.533-1.414-5.382-2.633-8.549-3.659c-3.165-1.023-6.347-1.987-9.542-2.89     c-7.359-2.229-13.794-4.637-19.312-7.229c-5.517-2.588-10.117-5.495-13.794-8.718c-3.68-3.22-6.438-6.834-8.277-10.839     c-1.84-4.005-2.758-8.507-2.758-13.507c0-5.601,1.13-10.705,3.392-15.312c2.261-4.608,5.473-8.552,9.633-11.835     c4.161-3.282,9.166-5.841,15.016-7.679c5.848-1.835,12.393-2.755,19.629-2.755c5.487,0,11.065,0.858,16.734,2.575     c5.668,1.717,10.914,4.081,15.739,7.092c1.447,0.903,2.924,1.928,4.433,3.071c1.506,1.145,2.894,2.303,4.161,3.478     c1.266,1.174,2.307,2.32,3.12,3.433c0.815,1.116,1.222,2.064,1.222,2.846c0,0.723-0.181,1.461-0.543,2.213     c-0.361,0.754-0.814,1.432-1.356,2.033l-2.713,2.891v-0.09c-0.905,0.963-1.841,1.957-2.805,2.98     c-0.965,1.026-1.93,1.942-2.894,2.755c-0.965,0.813-1.84,1.491-2.624,2.033C828.806,78.757,828.144,79.028,827.601,79.028z"
   id="path68" />
			<path
   d="M870.746,47.228c0-1.083,0.329-2.017,0.991-2.8c0.662-0.782,1.653-1.174,2.976-1.174h17.938     c1.021,0,1.983,0.362,2.885,1.085c0.901,0.722,1.352,1.686,1.352,2.89v126.205c0,2.651-1.413,3.976-4.237,3.976h-17.938     c-2.644,0-3.966-1.324-3.966-3.976V47.228z"
   id="path70" />
			<path
   d="M926.557,47.409c0-1.324,0.346-2.333,1.04-3.025c0.692-0.691,1.612-1.068,2.759-1.129h85.933     c2.773,0,4.161,1.445,4.161,4.335v15.72c0,1.084-0.362,2.064-1.085,2.936c-0.724,0.874-1.75,1.31-3.076,1.31h-63.409v36.137     c1.567,0,3.648,0,6.241,0c2.592,0,5.427,0,8.503,0c3.076,0,6.272,0.015,9.588,0.044c3.316,0.032,6.513,0.045,9.588,0.045     c3.075,0,5.894,0,8.458,0c2.563,0,4.658,0,6.287,0c1.086,0,2.02,0.315,2.804,0.948c0.783,0.632,1.176,1.672,1.176,3.117v15.359     c0,1.082-0.348,2.063-1.04,2.936c-0.694,0.874-1.644,1.31-2.85,1.31h-48.755v46.163c0,2.529-1.417,3.795-4.252,3.795h-18.453     c-2.413-0.12-3.618-1.384-3.618-3.795V47.409z"
   id="path72" />
			<path
   d="M1036.278,110.467c0-6.324,0.814-12.436,2.443-18.338c1.628-5.903,3.949-11.413,6.965-16.532     c3.015-5.119,6.617-9.787,10.809-14.003c4.19-4.215,8.849-7.815,13.976-10.796c5.125-2.981,10.628-5.299,16.508-6.956     c5.881-1.655,12.014-2.484,18.406-2.484c6.334,0,12.438,0.829,18.318,2.484c5.88,1.657,11.382,3.975,16.508,6.956     c5.125,2.98,9.801,6.581,14.021,10.796c4.221,4.216,7.824,8.884,10.809,14.003c2.985,5.119,5.307,10.629,6.966,16.532     c1.657,5.902,2.488,12.045,2.488,18.429c0,6.385-0.831,12.498-2.488,18.339c-1.659,5.843-3.98,11.324-6.966,16.442     c-2.984,5.12-6.588,9.772-10.809,13.957c-4.221,4.187-8.896,7.77-14.021,10.75c-5.126,2.982-10.628,5.285-16.508,6.912     c-5.881,1.626-12.016,2.44-18.406,2.44c-6.393,0-12.529-0.814-18.409-2.44c-5.879-1.626-11.382-3.943-16.508-6.956     c-5.125-3.012-9.783-6.61-13.975-10.796c-4.192-4.185-7.778-8.822-10.764-13.912c-2.985-5.089-5.291-10.57-6.919-16.442     C1037.092,122.979,1036.278,116.852,1036.278,110.467z M1062.419,110.286c0,6.084,1.1,11.774,3.303,17.075     c2.2,5.3,5.215,9.908,9.045,13.822c3.829,3.916,8.351,7.017,13.568,9.305c5.215,2.289,10.869,3.433,16.961,3.433     c6.029,0,11.653-1.144,16.869-3.433c5.215-2.288,9.753-5.389,13.613-9.305c3.859-3.914,6.889-8.522,9.092-13.822     c2.199-5.3,3.3-10.991,3.3-17.075c0-6.021-1.101-11.683-3.3-16.983c-2.203-5.299-5.232-9.922-9.092-13.868     c-3.86-3.944-8.398-7.061-13.613-9.35c-5.216-2.289-10.84-3.434-16.869-3.434c-6.092,0-11.746,1.145-16.961,3.434     c-5.218,2.289-9.74,5.405-13.568,9.35c-3.831,3.945-6.845,8.568-9.045,13.868C1063.519,98.603,1062.419,104.264,1062.419,110.286     z"
   id="path74" />
		</g>
	</g>
	<g
   id="g84">
		<path
   fill="#731514"
   d="M147.679,56.057v278.65l21.151,6.184V70.32l48.444,32.669l-0.115,237.626l23.055-5.662l0.072-216.443    l48.841,32.935v165.681l-0.002,12.377c-27.548,21.688-57.311,32.297-96.827,33.099c-54.221,1.102-94.191-34.169-94.191-34.169    V23.425L147.679,56.057z"
   id="path80" />
		<path
   fill="#731514"
   d="M307.91,6.885l-0.085,31.367c40.234,31.071,59.988,74.753,59.988,129.475    c0,93.826-76.158,169.886-170.102,169.886c-93.946,0-170.102-76.06-170.102-169.886c0-51.145,18.152-93.261,53.959-124.406    l-0.018-32.185C32.683,46.554,2.578,102.814,2.578,167.727c0,107.634,87.363,194.887,195.134,194.887    c107.769,0,195.134-87.253,195.134-194.887C392.846,99.828,360.635,41.777,307.91,6.885z"
   id="path82" />
	</g>
</g>
<flowRoot
   xml:space="preserve"
   id="flowRoot3798"
   style="fill:black;fill-opacity:1;stroke:none;font-family:sans-serif;font-style:normal;font-weight:normal;font-size:40px;line-height:1.25;letter-spacing:0px;word-spacing:0px"><flowRegion
     id="flowRegion3800"><rect
       id="rect3802"
       width="619.22125"
       height="138.41415"
       x="453.74866"
       y="197.3239" /></flowRegion><flowPara
     id="flowPara3804"></flowPara></flowRoot><flowRoot
   xml:space="preserve"
   id="flowRoot3806"
   style="font-style:normal;font-weight:normal;font-size:40px;line-height:1.25;font-family:sans-serif;letter-spacing:0px;word-spacing:0px;fill:#000000;fill-opacity:1;stroke:none"><flowRegion
     id="flowRegion3808"><rect
       id="rect3810"
       width="771.16461"
       height="171.71681"
       x="541.16815"
       y="188.99823" /></flowRegion><flowPara
     id="flowPara3812" /></flowRoot></svg>