<?xml version="1.0" encoding="utf-8"?>
<!-- Generator: Adobe Illustrator 24.1.0, SVG Export Plug-In . SVG Version: 6.00 Build 0)  -->
<svg version="1.1" id="Capa_1" xmlns="http://www.w3.org/2000/svg" xmlns:xlink="http://www.w3.org/1999/xlink" x="0px" y="0px"
	 viewBox="0 0 1304 368" enable-background="new 0 0 1304 368" xml:space="preserve">
<g>
	<g>
		<g>
			<path d="M599.215,192.805c5.254,0,10.293,0.92,15.116,2.759v4.545c-4.931-2.218-9.97-3.329-15.116-3.329
				c-7.152,0-13.032,2.541-17.635,7.619c-4.606,4.97-6.908,11.129-6.908,18.477c0,7.348,2.302,13.479,6.908,18.395
				c4.659,5.134,10.537,7.699,17.635,7.699c4.441,0,8.749-0.809,12.921-2.426v-22.572h-14.222v-3.978h19.179v29.058
				c-5.636,2.598-11.595,3.896-17.879,3.896c-8.561,0-15.603-2.841-21.13-8.522c-5.581-5.735-8.371-12.905-8.371-21.51
				c0-8.547,2.789-15.69,8.371-21.426C583.72,195.7,590.764,192.805,599.215,192.805z"/>
			<path d="M647.128,208.874c4.348,0,8.044,1.543,11.087,4.627c3.034,3.031,4.551,6.71,4.551,11.038
				c0,2.436-0.856,4.383-2.568,5.844c-1.711,1.461-3.87,2.191-6.477,2.191h-21.268c0.217,4.685,1.576,8.535,4.075,11.55
				c2.662,3.231,6.222,4.845,10.678,4.845c4.346,0,8.693-0.783,13.041-2.353v4.382c-4.238,1.299-8.586,1.948-13.041,1.948
				c-6.467,0-11.411-2.11-14.834-6.331c-3.25-3.949-4.875-9.172-4.875-15.665c0-6.331,1.544-11.471,4.632-15.422
				C635.606,211.094,640.606,208.874,647.128,208.874z M657.809,224.539c0-2.921-1.06-5.6-3.179-8.035
				c-2.121-2.435-4.593-3.652-7.419-3.652c-4.403,0-7.936,1.542-10.599,4.626c-2.393,2.869-3.778,6.575-4.158,11.12h21.28
				c1.087,0,2.038-0.393,2.852-1.177C657.401,226.637,657.809,225.676,657.809,224.539z"/>
			<path d="M693.079,214.719c-2.913-1.299-6.015-1.948-9.305-1.948c-6.258,0-9.386,2.354-9.386,7.062
				c0,2.543,1.805,4.735,5.417,6.575l10.186,5.194c3.63,2.489,5.445,5.628,5.445,9.415c0,4.059-1.653,7.171-4.958,9.334
				c-2.763,1.677-6.042,2.516-9.833,2.516c-4.443,0-8.207-0.568-11.296-1.704v-4.79c3.576,1.787,7.232,2.679,10.971,2.679
				c2.654,0,4.929-0.65,6.826-1.948c2.113-1.46,3.17-3.327,3.17-5.6c0-2.867-1.806-5.276-5.416-7.224
				c-1.671-0.919-3.342-1.786-5.013-2.597c-1.671-0.811-3.314-1.705-4.931-2.679c-1.925-1.081-3.326-2.366-4.206-3.855
				c-0.881-1.488-1.319-3.098-1.319-4.83c0-3.948,1.408-6.926,4.226-8.928c2.491-1.731,5.661-2.598,9.508-2.598
				c3.414,0,6.718,0.568,9.915,1.705V214.719z"/>
			<path d="M717.864,253.109c-1.409,0-2.71-0.231-3.9-0.69c-1.193-0.46-2.235-1.107-3.129-1.948
				c-0.894-0.837-1.599-1.826-2.113-2.962c-0.515-1.137-0.772-2.381-0.772-3.733v-29.463h-8.127v-3.978h8.127v-12.581h4.957v12.581
				h9.996v3.978h-9.996v29.393c0,1.405,0.488,2.661,1.462,3.767c0.976,1.106,2.14,1.659,3.495,1.659
				c1.897,0,3.955-0.568,6.177-1.704v4.14C722.144,252.595,720.085,253.109,717.864,253.109z"/>
			<path d="M732.086,189.558h4.958v4.951h-4.958V189.558z M737.044,210.417v41.151h-4.958v-41.151H737.044z"/>
			<path d="M786.616,231.357c0,6.549-1.653,11.717-4.957,15.503c-3.414,4.058-8.344,6.087-14.792,6.087
				c-6.393,0-11.377-2.191-14.953-6.575c-3.413-4.111-5.12-9.441-5.12-15.989c0-6.384,1.679-11.552,5.039-15.503
				c3.576-4.058,8.56-6.087,14.953-6.087c6.285,0,11.216,2.219,14.791,6.656C784.935,219.617,786.616,224.918,786.616,231.357z
				 M752.239,230.345c0,5.345,1.138,9.665,3.414,12.957c2.6,3.78,6.338,5.668,11.214,5.668c4.93,0,8.615-1.727,11.052-5.182
				c2.167-2.969,3.25-7.126,3.25-12.472c0-5.29-1.11-9.608-3.331-12.956c-2.547-3.725-6.232-5.588-11.053-5.588
				c-4.931,0-8.642,1.7-11.133,5.101C753.377,220.95,752.239,225.108,752.239,230.345z M770.931,189.558h4.958l-6.989,10.227h-3.982
				L770.931,189.558z"/>
			<path d="M795.148,251.649v-37.823c8.797-3.191,14.854-4.789,18.167-4.789c2.281,0,4.371,0.373,6.272,1.12
				c1.9,0.745,3.517,1.788,4.848,3.125c1.331,1.337,2.361,2.953,3.095,4.846c0.733,1.895,1.099,3.978,1.099,6.25v27.271h-4.957
				v-27.271c0-1.623-0.272-3.124-0.813-4.505c-0.542-1.379-1.287-2.583-2.234-3.611c-0.949-1.027-2.087-1.826-3.414-2.394
				c-1.329-0.568-2.803-0.852-4.429-0.852c-4.01,0-8.236,1.055-12.677,3.165v35.469H795.148z"/>
			<path d="M881.734,208.956c3.997,0,7.94,0.704,11.83,2.11v-21.427h4.957v59.818c-5.31,2.272-10.43,3.408-15.36,3.408
				c-6.448,0-11.648-2.137-15.602-6.412c-4.011-4.328-6.015-9.658-6.015-15.989c0-6.331,1.789-11.497,5.364-15.502
				C870.417,210.958,875.359,208.956,881.734,208.956z M882.221,212.933c-4.971,0-8.777,1.704-11.423,5.113
				c-2.54,3.193-3.808,7.333-3.808,12.418c0,5.087,1.512,9.389,4.537,12.905c3.133,3.788,7.183,5.682,12.154,5.682
				c2.808,0,6.103-0.703,9.884-2.11v-31.978C890.052,213.61,886.271,212.933,882.221,212.933z"/>
			<path d="M927.498,208.874c4.349,0,8.044,1.543,11.087,4.627c3.033,3.031,4.551,6.71,4.551,11.038
				c0,2.436-0.856,4.383-2.568,5.844c-1.711,1.461-3.87,2.191-6.478,2.191h-21.268c0.216,4.685,1.575,8.535,4.074,11.55
				c2.663,3.231,6.222,4.845,10.678,4.845c4.346,0,8.693-0.783,13.041-2.353v4.382c-4.239,1.299-8.586,1.948-13.041,1.948
				c-6.466,0-11.411-2.11-14.834-6.331c-3.25-3.949-4.877-9.172-4.877-15.665c0-6.331,1.544-11.471,4.632-15.422
				C915.976,211.094,920.977,208.874,927.498,208.874z M938.178,224.539c0-2.921-1.06-5.6-3.18-8.035
				c-2.121-2.435-4.592-3.652-7.419-3.652c-4.403,0-7.936,1.542-10.6,4.626c-2.392,2.869-3.777,6.575-4.157,11.12h21.279
				c1.088,0,2.039-0.393,2.854-1.177C937.771,226.637,938.178,225.676,938.178,224.539z"/>
			<path d="M981.006,226.407v25.161h-4.958v-55.192c5.417-2.38,10.538-3.571,15.36-3.571c4.604,0,8.505,1.542,11.703,4.626
				c3.196,3.085,4.796,6.873,4.796,11.363c0,4.98-1.761,9.172-5.283,12.581c-3.523,3.356-7.802,5.033-12.841,5.033H981.006z
				 M981.006,222.43h8.776c3.63,0,6.717-1.349,9.265-4.045c2.6-2.752,3.901-5.961,3.901-9.629c0-3.126-1.138-5.905-3.414-8.333
				c-2.275-2.427-4.985-3.642-8.127-3.642c-3.087,0-6.556,0.675-10.402,2.023V222.43z"/>
			<path d="M1026.353,253.028c-1.409,0-2.71-0.236-3.901-0.704c-1.192-0.471-2.235-1.132-3.129-1.988
				c-0.894-0.857-1.599-1.854-2.113-2.99c-0.516-1.136-0.772-2.38-0.772-3.732v-54.137h4.958v54.137
				c0,1.408,0.488,2.665,1.462,3.774c0.976,1.109,2.14,1.664,3.495,1.664c1.841,0,3.873-0.595,6.095-1.786v4.271
				C1030.498,252.532,1028.466,253.028,1026.353,253.028z"/>
			<path d="M1068.287,248.077c-4.93,3.301-10.62,4.951-17.067,4.951c-4.497,0-8.236-1.109-11.214-3.328
				c-2.873-2.272-4.308-5.195-4.308-8.766c0-3.949,1.707-7.114,5.12-9.496c3.846-2.705,9.454-4.059,16.822-4.059h5.689v-5.731
				c0-2.314-0.868-4.331-2.601-6.053c-1.735-1.775-3.901-2.663-6.502-2.663c-4.984,0-9.563,0.813-13.733,2.435v-4.383
				c4.226-1.352,9.102-2.029,14.628-2.029c3.683,0,6.799,1.218,9.347,3.652c2.544,2.382,3.819,5.385,3.819,9.01V248.077z
				 M1063.33,231.357h-5.202c-5.906,0-10.375,1.024-13.409,3.071c-2.493,1.67-3.738,3.824-3.738,6.464
				c0,2.315,0.947,4.254,2.844,5.816c1.896,1.563,4.469,2.343,7.721,2.343c4.333,0,8.261-0.995,11.784-2.989V231.357z"/>
			<path d="M1080.557,251.649v-37.823c8.797-3.191,14.853-4.789,18.167-4.789c2.28,0,4.371,0.373,6.271,1.12
				c1.901,0.745,3.518,1.788,4.849,3.125c1.33,1.337,2.361,2.953,3.095,4.846c0.732,1.895,1.1,3.978,1.1,6.25v27.271h-4.957v-27.271
				c0-1.623-0.271-3.124-0.813-4.505c-0.543-1.379-1.288-2.583-2.235-3.611c-0.948-1.027-2.086-1.826-3.414-2.394
				c-1.327-0.568-2.802-0.852-4.428-0.852c-4.01,0-8.236,1.055-12.679,3.165v35.469H1080.557z"/>
			<path d="M1143.34,208.874c4.35,0,8.045,1.543,11.089,4.627c3.034,3.031,4.552,6.71,4.552,11.038c0,2.436-0.856,4.383-2.568,5.844
				c-1.712,1.461-3.87,2.191-6.479,2.191h-21.267c0.217,4.685,1.575,8.535,4.074,11.55c2.662,3.231,6.223,4.845,10.679,4.845
				c4.346,0,8.692-0.783,13.041-2.353v4.382c-4.24,1.299-8.588,1.948-13.041,1.948c-6.467,0-11.41-2.11-14.834-6.331
				c-3.252-3.949-4.877-9.172-4.877-15.665c0-6.331,1.544-11.471,4.633-15.422C1131.819,211.094,1136.82,208.874,1143.34,208.874z
				 M1154.022,224.539c0-2.921-1.061-5.6-3.181-8.035c-2.119-2.435-4.593-3.652-7.418-3.652c-4.403,0-7.937,1.542-10.601,4.626
				c-2.392,2.869-3.778,6.575-4.156,11.12h21.28c1.086,0,2.037-0.393,2.852-1.177
				C1153.615,226.637,1154.022,225.676,1154.022,224.539z"/>
			<path d="M1189.291,214.719c-2.913-1.299-6.015-1.948-9.305-1.948c-6.258,0-9.385,2.354-9.385,7.062
				c0,2.543,1.804,4.735,5.415,6.575l10.186,5.194c3.63,2.489,5.446,5.628,5.446,9.415c0,4.059-1.653,7.171-4.957,9.334
				c-2.764,1.677-6.042,2.516-9.834,2.516c-4.443,0-8.209-0.568-11.297-1.704v-4.79c3.576,1.787,7.234,2.679,10.973,2.679
				c2.653,0,4.928-0.65,6.825-1.948c2.114-1.46,3.17-3.327,3.17-5.6c0-2.867-1.806-5.276-5.416-7.224
				c-1.671-0.919-3.341-1.786-5.013-2.597c-1.671-0.811-3.313-1.705-4.932-2.679c-1.925-1.081-3.325-2.366-4.206-3.855
				c-0.881-1.488-1.319-3.098-1.319-4.83c0-3.948,1.409-6.926,4.226-8.928c2.492-1.731,5.662-2.598,9.509-2.598
				c3.414,0,6.717,0.568,9.914,1.705V214.719z"/>
			<path d="M1241.176,208.956c3.997,0,7.938,0.704,11.829,2.11v-21.427h4.956v59.818c-5.309,2.272-10.428,3.408-15.357,3.408
				c-6.449,0-11.652-2.137-15.604-6.412c-4.011-4.328-6.013-9.658-6.013-15.989c0-6.331,1.786-11.497,5.363-15.502
				C1229.859,210.958,1234.801,208.956,1241.176,208.956z M1241.661,212.933c-4.97,0-8.777,1.704-11.423,5.113
				c-2.54,3.193-3.807,7.333-3.807,12.418c0,5.087,1.511,9.389,4.535,12.905c3.133,3.788,7.185,5.682,12.154,5.682
				c2.808,0,6.102-0.703,9.884-2.11v-31.978C1249.493,213.61,1245.711,212.933,1241.661,212.933z"/>
			<path d="M1286.941,208.874c4.347,0,8.04,1.543,11.084,4.627c3.035,3.031,4.553,6.71,4.553,11.038
				c0,2.436-0.857,4.383-2.569,5.844c-1.711,1.461-3.868,2.191-6.475,2.191h-21.271c0.217,4.685,1.577,8.535,4.074,11.55
				c2.665,3.231,6.224,4.845,10.68,4.845c4.346,0,8.691-0.783,13.04-2.353v4.382c-4.239,1.299-8.585,1.948-13.04,1.948
				c-6.467,0-11.41-2.11-14.834-6.331c-3.253-3.949-4.876-9.172-4.876-15.665c0-6.331,1.544-11.471,4.633-15.422
				C1275.418,211.094,1280.418,208.874,1286.941,208.874z M1297.62,224.539c0-2.921-1.062-5.6-3.18-8.035
				c-2.12-2.435-4.594-3.652-7.421-3.652c-4.4,0-7.935,1.542-10.6,4.626c-2.391,2.869-3.775,6.575-4.156,11.12h21.28
				c1.087,0,2.037-0.393,2.854-1.177C1297.212,226.637,1297.62,225.676,1297.62,224.539z"/>
			<path d="M599.296,342.404l-22.186-53.569v53.487h-4.958v-57.221h8.777l21.048,50.81l21.049-50.81h8.777v57.221h-4.958v-53.487
				l-22.187,53.569H599.296z"/>
			<path d="M662.407,299.71c4.348,0,8.043,1.542,11.087,4.627c3.033,3.031,4.551,6.71,4.551,11.038c0,2.435-0.856,4.383-2.568,5.844
				c-1.712,1.461-3.87,2.191-6.477,2.191h-21.268c0.217,4.685,1.576,8.535,4.075,11.549c2.663,3.232,6.222,4.846,10.678,4.846
				c4.346,0,8.693-0.784,13.04-2.354v4.383c-4.238,1.298-8.586,1.948-13.04,1.948c-6.466,0-11.411-2.109-14.834-6.331
				c-3.25-3.949-4.876-9.171-4.876-15.664c0-6.331,1.544-11.471,4.632-15.421C650.885,301.93,655.885,299.71,662.407,299.71z
				 M673.087,315.375c0-2.922-1.06-5.6-3.179-8.036c-2.121-2.435-4.593-3.652-7.419-3.652c-4.402,0-7.936,1.542-10.6,4.626
				c-2.393,2.869-3.778,6.574-4.157,11.12h21.28c1.087,0,2.038-0.391,2.853-1.177C672.68,317.473,673.087,316.512,673.087,315.375z"
				/>
			<path d="M692.835,355.47c0,2.868-1.057,5.282-3.169,7.244c-2.113,1.989-4.632,2.983-7.559,2.983
				c-1.788,0-3.521-0.249-5.201-0.746v-4.449c1.625,0.811,3.36,1.217,5.201,1.217c0.813,0,1.557-0.176,2.236-0.527
				c0.676-0.353,1.286-0.812,1.828-1.38c0.54-0.568,0.961-1.232,1.259-1.989c0.297-0.758,0.448-1.541,0.448-2.354v-54.298h4.957
				V355.47z M687.878,280.393h4.957v4.952h-4.957V280.393z"/>
			<path d="M742.488,322.193c0,6.548-1.653,11.716-4.957,15.502c-3.414,4.059-8.344,6.088-14.792,6.088
				c-6.393,0-11.377-2.191-14.954-6.574c-3.413-4.111-5.12-9.442-5.12-15.989c0-6.384,1.679-11.552,5.039-15.502
				c3.575-4.059,8.56-6.087,14.953-6.087c6.285,0,11.215,2.219,14.792,6.656C740.808,310.452,742.488,315.754,742.488,322.193z
				 M708.112,321.179c0,5.346,1.138,9.666,3.414,12.958c2.6,3.778,6.338,5.669,11.214,5.669c4.93,0,8.614-1.727,11.052-5.184
				c2.167-2.968,3.25-7.125,3.25-12.471c0-5.291-1.111-9.61-3.331-12.957c-2.547-3.725-6.231-5.588-11.053-5.588
				c-4.93,0-8.642,1.701-11.133,5.103C709.25,311.787,708.112,315.944,708.112,321.179z"/>
			<path d="M768.494,303.85c-3.848,0-7.64,0.623-11.377,1.867v36.767h-4.958v-39.297c5.039-2.209,10.646-3.314,16.822-3.314
				c0.596,0,1.11,0,1.544,0c0.433,0,0.785,0.028,1.056,0.082v4.058c-0.759-0.054-1.396-0.094-1.91-0.122
				C769.157,303.864,768.764,303.85,768.494,303.85z"/>
			<path d="M808.64,338.913c-4.931,3.302-10.62,4.951-17.067,4.951c-4.497,0-8.236-1.109-11.215-3.328
				c-2.872-2.272-4.308-5.194-4.308-8.765c0-3.95,1.707-7.115,5.12-9.497c3.847-2.704,9.454-4.058,16.823-4.058h5.688v-5.731
				c0-2.313-0.867-4.331-2.6-6.053c-1.735-1.775-3.901-2.663-6.502-2.663c-4.985,0-9.563,0.812-13.734,2.435v-4.383
				c4.226-1.352,9.102-2.029,14.628-2.029c3.684,0,6.799,1.218,9.346,3.653c2.545,2.381,3.82,5.384,3.82,9.009V338.913z
				 M803.682,322.193h-5.201c-5.906,0-10.375,1.024-13.409,3.071c-2.493,1.67-3.739,3.825-3.739,6.464
				c0,2.315,0.947,4.255,2.845,5.816c1.896,1.563,4.469,2.343,7.72,2.343c4.334,0,8.262-0.996,11.784-2.989V322.193z"/>
			<path d="M846.997,342.404v-28.327c0-2.76-0.976-5.166-2.925-7.224c-1.951-2.056-4.281-3.084-6.989-3.084
				c-3.035,0-6.773,1.055-11.215,3.166v35.469h-4.958v-37.823l7.639-2.922c1.788-0.702,3.441-1.189,4.957-1.461
				c1.516-0.27,2.872-0.406,4.064-0.406c4.279,0,7.774,1.461,10.484,4.384c1.191-0.433,2.357-0.894,3.495-1.38
				c1.137-0.488,2.275-0.946,3.413-1.38c1.57-0.594,3.006-1.014,4.307-1.258c1.3-0.244,2.491-0.366,3.576-0.366
				c4.117,0,7.53,1.38,10.239,4.14c2.708,2.707,4.064,6.087,4.064,10.146v28.327h-4.957v-28.327c0-2.76-0.976-5.166-2.926-7.224
				c-1.897-2.056-4.199-3.084-6.908-3.084c-2.709,0-6.664,1.271-11.865,3.814c0.975,2.11,1.462,4.275,1.462,6.494v28.327H846.997z"
				/>
			<path d="M889.905,280.393h4.958v4.952h-4.958V280.393z M894.863,301.252v41.151h-4.958v-41.151H894.863z"/>
			<path d="M924.327,299.71c4.348,0,8.044,1.542,11.087,4.627c3.034,3.031,4.551,6.71,4.551,11.038c0,2.435-0.856,4.383-2.568,5.844
				c-1.712,1.461-3.87,2.191-6.477,2.191h-21.268c0.217,4.685,1.576,8.535,4.075,11.549c2.662,3.232,6.222,4.846,10.678,4.846
				c4.347,0,8.693-0.784,13.041-2.354v4.383c-4.238,1.298-8.586,1.948-13.041,1.948c-6.466,0-11.411-2.109-14.834-6.331
				c-3.25-3.949-4.876-9.171-4.876-15.664c0-6.331,1.544-11.471,4.632-15.421C912.806,301.93,917.806,299.71,924.327,299.71z
				 M935.008,315.375c0-2.922-1.06-5.6-3.179-8.036c-2.122-2.435-4.593-3.652-7.42-3.652c-4.402,0-7.935,1.542-10.599,4.626
				c-2.393,2.869-3.777,6.574-4.157,11.12h21.28c1.087,0,2.038-0.391,2.853-1.177C934.6,317.473,935.008,316.512,935.008,315.375z"
				/>
			<path d="M949.716,342.484v-37.823c8.797-3.191,14.853-4.789,18.167-4.789c2.28,0,4.37,0.373,6.271,1.118
				c1.9,0.747,3.517,1.789,4.849,3.126c1.33,1.337,2.361,2.953,3.095,4.847c0.733,1.895,1.1,3.976,1.1,6.25v27.271h-4.957v-27.271
				c0-1.624-0.272-3.125-0.813-4.504c-0.542-1.38-1.287-2.584-2.235-3.612c-0.948-1.027-2.086-1.826-3.413-2.394
				c-1.329-0.568-2.804-0.853-4.429-0.853c-4.01,0-8.236,1.055-12.677,3.166v35.468H949.716z"/>
			<path d="M1009.203,343.945c-1.409,0-2.71-0.231-3.9-0.69c-1.192-0.461-2.235-1.108-3.129-1.947
				c-0.894-0.839-1.599-1.827-2.113-2.963c-0.516-1.136-0.772-2.379-0.772-3.733v-29.463h-8.127v-3.977h8.127v-12.581h4.957v12.581
				h9.995v3.977h-9.995v29.394c0,1.404,0.488,2.66,1.462,3.766c0.976,1.107,2.14,1.659,3.495,1.659c1.896,0,3.955-0.568,6.177-1.704
				v4.14C1013.482,343.43,1011.424,343.945,1009.203,343.945z"/>
			<path d="M1059.915,322.193c0,6.548-1.654,11.716-4.957,15.502c-3.414,4.059-8.345,6.088-14.791,6.088
				c-6.394,0-11.378-2.191-14.954-6.574c-3.413-4.111-5.12-9.442-5.12-15.989c0-6.384,1.679-11.552,5.039-15.502
				c3.575-4.059,8.56-6.087,14.953-6.087c6.284,0,11.215,2.219,14.791,6.656C1058.234,310.452,1059.915,315.754,1059.915,322.193z
				 M1025.539,321.179c0,5.346,1.138,9.666,3.414,12.958c2.601,3.778,6.338,5.669,11.215,5.669c4.929,0,8.614-1.727,11.052-5.184
				c2.166-2.968,3.25-7.125,3.25-12.471c0-5.291-1.111-9.61-3.332-12.957c-2.547-3.725-6.231-5.588-11.053-5.588
				c-4.931,0-8.643,1.701-11.133,5.103C1026.676,311.787,1025.539,315.944,1025.539,321.179z"/>
		</g>
	</g>
	<g>
		<g>
			<path d="M652.481,79.028c-0.784,0-1.509-0.194-2.171-0.586c-0.664-0.392-1.418-0.917-2.261-1.581l-0.181-0.09
				c-1.147-1.144-2.624-2.408-4.433-3.795c-1.809-1.386-3.83-2.68-6.061-3.886c-2.231-1.203-4.628-2.227-7.191-3.07
				c-2.563-0.843-5.171-1.265-7.825-1.265c-3.378,0-6.363,0.377-8.955,1.129c-2.593,0.754-4.764,1.777-6.512,3.072
				c-1.75,1.296-3.076,2.816-3.981,4.562c-0.905,1.748-1.356,3.613-1.356,5.601c0,2.168,0.678,4.065,2.036,5.691
				c1.356,1.626,3.195,3.072,5.517,4.337c2.32,1.264,4.99,2.424,8.005,3.477c3.015,1.054,6.18,2.093,9.497,3.117
				c3.8,1.145,7.567,2.38,11.307,3.704c3.738,1.326,7.312,2.816,10.719,4.471c3.406,1.657,6.588,3.494,9.544,5.511
				c2.953,2.02,5.501,4.337,7.643,6.958c2.139,2.619,3.828,5.541,5.065,8.762c1.235,3.223,1.854,6.851,1.854,10.886
				c0,6.564-1.327,12.497-3.98,17.797c-2.654,5.3-6.316,9.832-10.99,13.595c-4.673,3.766-10.162,6.656-16.462,8.673
				c-6.303,2.018-13.071,3.027-20.308,3.027c-4.644,0-9.257-0.542-13.839-1.627c-4.583-1.083-8.986-2.62-13.207-4.606
				c-4.222-1.987-8.217-4.382-11.984-7.182c-3.77-2.801-7.132-5.947-10.087-9.441v0.09l-0.181-0.362
				c-1.327-1.503-1.99-2.89-1.99-4.154c0-0.663,0.181-1.295,0.543-1.898c0.361-0.602,0.904-1.265,1.627-1.987l2.986-2.982
				c0.904-0.781,1.868-1.654,2.895-2.619c1.024-0.962,2.049-1.836,3.075-2.62c1.024-0.781,1.974-1.445,2.849-1.987
				c0.873-0.542,1.583-0.813,2.125-0.813c0.843,0,1.628,0.271,2.352,0.813c0.723,0.542,1.325,1.054,1.809,1.535l0.362,0.362h-0.09
				c2.11,1.987,4.478,3.884,7.101,5.691c2.623,1.807,5.321,3.419,8.095,4.833c2.773,1.416,5.532,2.529,8.277,3.342
				c2.744,0.814,5.321,1.22,7.734,1.22c3.315,0,6.422-0.42,9.317-1.264c2.895-0.843,5.396-2.033,7.508-3.569
				c2.11-1.536,3.768-3.387,4.974-5.556c1.206-2.168,1.81-4.576,1.81-7.227c0-2.65-0.784-4.923-2.352-6.821
				c-1.568-1.896-3.618-3.553-6.15-4.969c-2.533-1.414-5.382-2.633-8.549-3.659c-3.166-1.023-6.347-1.987-9.543-2.89
				c-7.358-2.229-13.794-4.637-19.311-7.229c-5.518-2.588-10.117-5.495-13.795-8.718c-3.679-3.22-6.438-6.834-8.276-10.839
				c-1.841-4.005-2.759-8.507-2.759-13.507c0-5.601,1.131-10.705,3.391-15.312c2.262-4.608,5.474-8.552,9.634-11.835
				c4.162-3.282,9.167-5.841,15.016-7.679c5.848-1.835,12.392-2.755,19.629-2.755c5.486,0,11.065,0.858,16.734,2.575
				c5.668,1.717,10.915,4.081,15.739,7.092c1.447,0.903,2.925,1.928,4.433,3.071c1.506,1.145,2.895,2.303,4.16,3.478
				c1.267,1.174,2.307,2.32,3.121,3.433c0.814,1.116,1.221,2.064,1.221,2.846c0,0.723-0.182,1.461-0.542,2.213
				c-0.362,0.754-0.815,1.432-1.358,2.033l-2.713,2.891v-0.09c-0.905,0.963-1.841,1.957-2.804,2.98
				c-0.965,1.026-1.931,1.942-2.895,2.755c-0.965,0.813-1.84,1.491-2.623,2.033C653.686,78.757,653.024,79.028,652.481,79.028z"/>
			<path d="M695.537,47.228c0-1.083,0.329-2.017,0.99-2.8c0.662-0.782,1.653-1.174,2.976-1.174h17.938
				c1.022,0,1.982,0.362,2.885,1.085c0.901,0.722,1.352,1.686,1.352,2.89v126.205c0,2.651-1.413,3.976-4.237,3.976h-17.938
				c-2.644,0-3.965-1.324-3.965-3.976V47.228z M704.129,5.492c0.482-1.324,1.161-2.288,2.036-2.891
				c0.873-0.601,1.824-0.903,2.85-0.903h16.101c0.964,0,1.643,0.226,2.035,0.678c0.392,0.452,0.588,1.009,0.588,1.67
				c0,0.483-0.045,1.01-0.135,1.582c-0.091,0.573-0.257,1.129-0.498,1.671l-8.593,19.153c-1.147,2.529-2.745,3.793-4.794,3.793
				h-14.111c-1.027,0-1.689-0.239-1.991-0.723c-0.302-0.481-0.452-1.053-0.452-1.716c0-0.602,0.029-1.205,0.09-1.808
				c0.06-0.6,0.24-1.232,0.543-1.896L704.129,5.492z"/>
			<path d="M827.601,79.028c-0.785,0-1.508-0.194-2.171-0.586c-0.664-0.392-1.417-0.917-2.261-1.581l-0.181-0.09
				c-1.146-1.144-2.623-2.408-4.432-3.795c-1.809-1.386-3.831-2.68-6.061-3.886c-2.231-1.203-4.628-2.227-7.19-3.07
				c-2.563-0.843-5.172-1.265-7.825-1.265c-3.378,0-6.363,0.377-8.956,1.129c-2.593,0.754-4.764,1.777-6.512,3.072
				c-1.75,1.296-3.075,2.816-3.98,4.562c-0.905,1.748-1.356,3.613-1.356,5.601c0,2.168,0.678,4.065,2.035,5.691
				c1.357,1.626,3.195,3.072,5.517,4.337c2.321,1.264,4.99,2.424,8.005,3.477c3.015,1.054,6.181,2.093,9.498,3.117
				c3.799,1.145,7.567,2.38,11.307,3.704c3.739,1.326,7.311,2.816,10.72,4.471c3.406,1.657,6.587,3.494,9.543,5.511
				c2.954,2.02,5.501,4.337,7.644,6.958c2.14,2.619,3.829,5.541,5.065,8.762c1.235,3.223,1.854,6.851,1.854,10.886
				c0,6.564-1.326,12.497-3.98,17.797c-2.654,5.3-6.317,9.832-10.99,13.595c-4.674,3.766-10.162,6.656-16.463,8.673
				c-6.302,2.018-13.07,3.027-20.307,3.027c-4.645,0-9.257-0.542-13.84-1.627c-4.583-1.083-8.986-2.62-13.206-4.606
				c-4.222-1.987-8.217-4.382-11.985-7.182c-3.77-2.801-7.133-5.947-10.086-9.441v0.09l-0.181-0.362
				c-1.327-1.503-1.99-2.89-1.99-4.154c0-0.663,0.181-1.295,0.543-1.898c0.361-0.602,0.904-1.265,1.628-1.987l2.984-2.982
				c0.905-0.781,1.869-1.654,2.895-2.619c1.024-0.962,2.049-1.836,3.075-2.62c1.025-0.781,1.975-1.445,2.85-1.987
				c0.873-0.542,1.583-0.813,2.125-0.813c0.844,0,1.628,0.271,2.352,0.813c0.724,0.542,1.327,1.054,1.809,1.535l0.363,0.362h-0.091
				c2.11,1.987,4.477,3.884,7.101,5.691c2.623,1.807,5.321,3.419,8.096,4.833c2.772,1.416,5.532,2.529,8.276,3.342
				c2.744,0.814,5.322,1.22,7.734,1.22c3.315,0,6.422-0.42,9.317-1.264c2.894-0.843,5.396-2.033,7.507-3.569
				c2.11-1.536,3.769-3.387,4.975-5.556c1.206-2.168,1.81-4.576,1.81-7.227c0-2.65-0.785-4.923-2.352-6.821
				c-1.569-1.896-3.618-3.553-6.151-4.969c-2.533-1.414-5.382-2.633-8.549-3.659c-3.165-1.023-6.347-1.987-9.542-2.89
				c-7.359-2.229-13.794-4.637-19.312-7.229c-5.517-2.588-10.117-5.495-13.794-8.718c-3.68-3.22-6.438-6.834-8.277-10.839
				c-1.84-4.005-2.758-8.507-2.758-13.507c0-5.601,1.13-10.705,3.392-15.312c2.261-4.608,5.473-8.552,9.633-11.835
				c4.161-3.282,9.166-5.841,15.016-7.679c5.848-1.835,12.393-2.755,19.629-2.755c5.487,0,11.065,0.858,16.734,2.575
				c5.668,1.717,10.914,4.081,15.739,7.092c1.447,0.903,2.924,1.928,4.433,3.071c1.506,1.145,2.894,2.303,4.161,3.478
				c1.266,1.174,2.307,2.32,3.12,3.433c0.815,1.116,1.222,2.064,1.222,2.846c0,0.723-0.181,1.461-0.543,2.213
				c-0.361,0.754-0.814,1.432-1.356,2.033l-2.713,2.891v-0.09c-0.905,0.963-1.841,1.957-2.805,2.98
				c-0.965,1.026-1.93,1.942-2.894,2.755c-0.965,0.813-1.84,1.491-2.624,2.033C828.806,78.757,828.144,79.028,827.601,79.028z"/>
			<path d="M870.746,47.228c0-1.083,0.329-2.017,0.991-2.8c0.662-0.782,1.653-1.174,2.976-1.174h17.938
				c1.021,0,1.983,0.362,2.885,1.085c0.901,0.722,1.352,1.686,1.352,2.89v126.205c0,2.651-1.413,3.976-4.237,3.976h-17.938
				c-2.644,0-3.966-1.324-3.966-3.976V47.228z"/>
			<path d="M926.557,47.409c0-1.324,0.346-2.333,1.04-3.025c0.692-0.691,1.612-1.068,2.759-1.129h85.933
				c2.773,0,4.161,1.445,4.161,4.335v15.72c0,1.084-0.362,2.064-1.085,2.936c-0.724,0.874-1.75,1.31-3.076,1.31h-63.409v36.137
				c1.567,0,3.648,0,6.241,0c2.592,0,5.427,0,8.503,0c3.076,0,6.272,0.015,9.588,0.044c3.316,0.032,6.513,0.045,9.588,0.045
				c3.075,0,5.894,0,8.458,0c2.563,0,4.658,0,6.287,0c1.086,0,2.02,0.315,2.804,0.948c0.783,0.632,1.176,1.672,1.176,3.117v15.359
				c0,1.082-0.348,2.063-1.04,2.936c-0.694,0.874-1.644,1.31-2.85,1.31h-48.755v46.163c0,2.529-1.417,3.795-4.252,3.795h-18.453
				c-2.413-0.12-3.618-1.384-3.618-3.795V47.409z"/>
			<path d="M1036.278,110.467c0-6.324,0.814-12.436,2.443-18.338c1.628-5.903,3.949-11.413,6.965-16.532
				c3.015-5.119,6.617-9.787,10.809-14.003c4.19-4.215,8.849-7.815,13.976-10.796c5.125-2.981,10.628-5.299,16.508-6.956
				c5.881-1.655,12.014-2.484,18.406-2.484c6.334,0,12.438,0.829,18.318,2.484c5.88,1.657,11.382,3.975,16.508,6.956
				c5.125,2.98,9.801,6.581,14.021,10.796c4.221,4.216,7.824,8.884,10.809,14.003c2.985,5.119,5.307,10.629,6.966,16.532
				c1.657,5.902,2.488,12.045,2.488,18.429c0,6.385-0.831,12.498-2.488,18.339c-1.659,5.843-3.98,11.324-6.966,16.442
				c-2.984,5.12-6.588,9.772-10.809,13.957c-4.221,4.187-8.896,7.77-14.021,10.75c-5.126,2.982-10.628,5.285-16.508,6.912
				c-5.881,1.626-12.016,2.44-18.406,2.44c-6.393,0-12.529-0.814-18.409-2.44c-5.879-1.626-11.382-3.943-16.508-6.956
				c-5.125-3.012-9.783-6.61-13.975-10.796c-4.192-4.185-7.778-8.822-10.764-13.912c-2.985-5.089-5.291-10.57-6.919-16.442
				C1037.092,122.979,1036.278,116.852,1036.278,110.467z M1062.419,110.286c0,6.084,1.1,11.774,3.303,17.075
				c2.2,5.3,5.215,9.908,9.045,13.822c3.829,3.916,8.351,7.017,13.568,9.305c5.215,2.289,10.869,3.433,16.961,3.433
				c6.029,0,11.653-1.144,16.869-3.433c5.215-2.288,9.753-5.389,13.613-9.305c3.859-3.914,6.889-8.522,9.092-13.822
				c2.199-5.3,3.3-10.991,3.3-17.075c0-6.021-1.101-11.683-3.3-16.983c-2.203-5.299-5.232-9.922-9.092-13.868
				c-3.86-3.944-8.398-7.061-13.613-9.35c-5.216-2.289-10.84-3.434-16.869-3.434c-6.092,0-11.746,1.145-16.961,3.434
				c-5.218,2.289-9.74,5.405-13.568,9.35c-3.831,3.945-6.845,8.568-9.045,13.868C1063.519,98.603,1062.419,104.264,1062.419,110.286
				z"/>
		</g>
	</g>
	<g>
		<path fill="#731514" d="M147.679,56.057v278.65l21.151,6.184V70.32l48.444,32.669l-0.115,237.626l23.055-5.662l0.072-216.443
			l48.841,32.935v165.681l-0.002,12.377c-27.548,21.688-57.311,32.297-96.827,33.099c-54.221,1.102-94.191-34.169-94.191-34.169
			V23.425L147.679,56.057z"/>
		<path fill="#731514" d="M307.91,6.885l-0.085,31.367c40.234,31.071,59.988,74.753,59.988,129.475
			c0,93.826-76.158,169.886-170.102,169.886c-93.946,0-170.102-76.06-170.102-169.886c0-51.145,18.152-93.261,53.959-124.406
			l-0.018-32.185C32.683,46.554,2.578,102.814,2.578,167.727c0,107.634,87.363,194.887,195.134,194.887
			c107.769,0,195.134-87.253,195.134-194.887C392.846,99.828,360.635,41.777,307.91,6.885z"/>
	</g>
</g>
</svg>
