<?xml version="1.0" encoding="utf-8"?>
<!-- Generator: Adobe Illustrator 24.1.0, SVG Export Plug-In . SVG Version: 6.00 Build 0)  -->
<svg version="1.1" id="Capa_1" xmlns="http://www.w3.org/2000/svg" xmlns:xlink="http://www.w3.org/1999/xlink" x="0px" y="0px"
	 viewBox="0 0 1304 368" enable-background="new 0 0 1304 368" xml:space="preserve">
<g>
	<g>
		<path fill="#333333" d="M317.051,157.554c4.026,0,6.615,2.553,8.053,5.957c7.766,17.871,18.695,24.112,34.801,24.112
			c12.943,0,29.912-5.39,29.912-23.261c0-20.424-16.106-24.679-33.65-29.501c-22.434-6.241-45.73-15.318-45.73-42.55
			c0-22.126,23.296-41.131,49.182-41.131c23.871,0,35.951,13.899,37.677,17.02c2.013,3.121,3.164,6.24,3.164,9.361
			c0,4.822-2.876,8.794-9.204,8.794c-3.739,0-6.903-1.135-9.779-6.241c-3.451-5.957-10.354-10.779-21.858-10.779
			c-15.531,0-29.049,10.779-29.049,22.41c0,14.184,16.394,19.573,31.349,24.112c27.611,8.51,48.894,19.006,48.894,48.507
			c0,26.948-23.584,42.833-51.194,42.833c-19.558,0-32.788-8.793-41.991-19.572c-5.465-6.524-10.066-14.467-10.066-20.141
			C307.56,161.809,311.298,157.554,317.051,157.554z"/>
		<path fill="#333333" d="M425.477,129.187c0-43.117,35.376-78.008,79.093-78.008c43.717,0,79.093,34.891,79.093,78.008
			s-35.376,78.008-79.093,78.008c-10.929,0-22.147-2.836-33.651-8.51c-11.504-5.957-19.845-12.197-25.31-18.722v66.945
			c0,5.39-4.602,9.928-10.066,9.928c-5.464,0-10.066-4.538-10.066-9.928V129.187z M504.57,187.338c32.5,0,58.96-26.097,58.96-58.151
			c0-32.054-26.46-58.151-58.96-58.151c-32.5,0-58.96,26.098-58.96,58.151C445.61,161.242,472.07,187.338,504.57,187.338z"/>
		<path fill="#333333" d="M724.882,181.381l-3.163,3.121c-14.093,13.899-33.939,22.692-55.797,22.692
			c-43.717,0-79.093-34.891-79.093-78.008s35.376-78.008,79.093-78.008s79.093,34.891,79.093,78.008v61.272
			c0,5.389-4.602,9.928-10.066,9.928c-5.465,0-10.066-4.539-10.066-9.928V181.381z M665.921,187.338
			c32.5,0,58.96-26.097,58.96-58.151c0-32.054-26.46-58.151-58.96-58.151c-32.5,0-58.96,26.098-58.96,58.151
			C606.961,161.242,633.421,187.338,665.921,187.338z"/>
		<path fill="#333333" d="M777.227,211.45c3.738,0,6.902,2.553,8.916,5.673c2.3,3.404,4.89,6.525,8.053,9.645
			c10.642,10.496,25.598,17.021,41.704,17.021c32.5,0,58.96-26.098,58.96-58.152v-4.255l-3.164,3.121
			c-14.093,13.899-33.938,22.692-55.797,22.692c-43.717,0-79.093-34.891-79.093-78.008s35.376-78.008,79.093-78.008
			c21.858,0,41.704,8.51,55.797,22.977c1.15,0.852,2.301,1.985,3.164,3.121v-8.793c0-5.39,4.602-9.929,10.066-9.929
			c5.464,0,10.066,4.539,10.066,9.929v117.153c0,43.117-35.376,78.009-79.093,78.009c-21.858,0-41.416-8.511-56.084-22.977
			c-3.739-3.688-7.19-7.943-10.354-12.765c-1.438-1.985-2.301-4.255-2.301-6.524C767.16,215.989,771.762,211.45,777.227,211.45z
			 M835.899,187.338c32.5,0,58.96-26.097,58.96-58.151c0-32.054-26.46-58.151-58.96-58.151s-58.96,26.098-58.96,58.151
			C776.939,161.242,803.399,187.338,835.899,187.338z"/>
		<path fill="#333333" d="M1010.194,51.179c43.716,0,79.093,34.891,79.093,78.008s-35.376,78.008-79.093,78.008
			c-43.717,0-79.093-34.891-79.093-78.008S966.477,51.179,1010.194,51.179z M1010.194,187.338c32.5,0,58.961-26.097,58.961-58.151
			c0-32.054-26.46-58.151-58.961-58.151c-32.5,0-58.96,26.098-58.96,58.151C951.234,161.242,977.694,187.338,1010.194,187.338z"/>
		<path fill="#C41111" d="M1106.832,11.75c0-5.39,4.602-9.929,10.066-9.929s10.066,4.539,10.066,9.929v66.661
			c5.465-6.524,13.806-12.765,25.311-18.437c11.504-5.957,22.721-8.794,33.649-8.794c43.718,0,79.094,34.891,79.094,78.008
			s-35.376,78.008-79.094,78.008c-43.716,0-79.093-34.891-79.093-78.008V11.75z M1185.925,187.338
			c32.5,0,58.961-26.097,58.961-58.151c0-32.054-26.461-58.151-58.961-58.151c-32.499,0-58.96,26.098-58.96,58.151
			C1126.965,161.242,1153.426,187.338,1185.925,187.338z"/>
		<path fill="#C41111" d="M1290.616,9.764c6.902,0,12.08,5.105,12.08,11.913c0,6.808-5.178,11.915-12.08,11.915
			s-12.079-5.106-12.079-11.915C1278.537,14.87,1283.714,9.764,1290.616,9.764z M1280.263,68.483c0-5.39,4.601-9.929,10.065-9.929
			s10.066,4.539,10.066,9.929v121.976c0,5.389-4.602,9.928-10.066,9.928s-10.065-4.539-10.065-9.928V68.483z"/>
	</g>
	<g>
		<path fill="#BB7900" d="M99.01,149.458c1.194,2.629-19.179,23.616-19.636,18.346c-4.772-54.985,24.089-92.804,22.926-90.112
			c-0.152,0.356,0.102,0.286-0.055,0.646C95.158,94.604,84.206,116.889,99.01,149.458z"/>
		<path fill="#FE3F3F" d="M152.699,287.707c-1.048,0.031,9.741-33.178,4.075-38.42c-1.132-1.047,19.436-15.248,19.436-15.248
			C182.495,242.994,154.967,287.641,152.699,287.707z"/>
		
			<radialGradient id="SVGID_1_" cx="-611.0299" cy="600.9216" r="41.3004" gradientTransform="matrix(-0.6496 -1.1098 1.1521 -0.6561 -958.1955 -96.7446)" gradientUnits="userSpaceOnUse">
			<stop  offset="0" style="stop-color:#548FAE"/>
			<stop  offset="1" style="stop-color:#00284B"/>
		</radialGradient>
		<path fill="url(#SVGID_1_)" d="M189.745,198.153c0,31.555-26.669,57.133-59.568,57.133c-32.898,0-59.57-25.578-59.57-57.133
			c0-31.555,26.672-57.133,59.57-57.133C163.075,141.02,189.745,166.598,189.745,198.153z"/>
		<linearGradient id="SVGID_2_" gradientUnits="userSpaceOnUse" x1="2.696" y1="151.9918" x2="106.9824" y2="151.9918">
			<stop  offset="0" style="stop-color:#FFCE72"/>
			<stop  offset="1" style="stop-color:#FFA400"/>
		</linearGradient>
		<path fill="url(#SVGID_2_)" d="M106.982,226.98c0-0.846-1.081-2.074-1.594-2.736C54.091,157.871,94.27,92.567,101.324,79.891
			c0,0,1.257-1.614,0.976-2.199c-0.581-1.203-1.915-0.84-3.012-1.024c-7.182-1.202-18.003,3.926-25.619,6.996
			C35.624,99.004-7.862,166.298,4.999,197.077c12.38,29.627,78.981,31.514,97.31,30.078
			C105.486,226.904,106.982,227.496,106.982,226.98z"/>
		<path fill="#D11717" d="M156.793,174.203c-0.107,0.86,0.338,0.949,0.716,1.436c52.498,67.82-21.609,131.584-32.32,141.905
			c-0.915,0.879-1.908,0.913-1.24,1.443c0.357,0.284,0.921,0.399,1.553,0.527c10.198,2.071,49.071-7.755,57.339-11.089
			c38.045-15.341,79.9-68.63,67.039-99.409c-12.892-30.854-77.936-35.834-91.196-35.367
			C157.63,173.685,156.831,173.892,156.793,174.203z"/>
	</g>
	<g>
		<g>
			<path d="M347.517,278.518v61.858h-5.427v-61.858H347.517z"/>
			<path d="M361.661,340.464v-40.888c9.63-3.45,16.259-5.176,19.887-5.176c2.496,0,4.784,0.402,6.865,1.209
				c2.081,0.806,3.85,1.933,5.307,3.378c1.457,1.446,2.586,3.193,3.389,5.24c0.802,2.048,1.204,4.299,1.204,6.756v29.481h-5.426
				v-29.481c0-1.755-0.297-3.378-0.89-4.87c-0.594-1.491-1.41-2.792-2.447-3.904c-1.038-1.11-2.284-1.974-3.736-2.588
				c-1.454-0.614-3.069-0.921-4.848-0.921c-4.39,0-9.016,1.141-13.878,3.422v38.343H361.661z"/>
			<path d="M426.779,342.043c-1.543,0-2.966-0.249-4.27-0.746c-1.306-0.498-2.447-1.198-3.425-2.105
				c-0.979-0.906-1.751-1.975-2.313-3.203c-0.564-1.228-0.845-2.574-0.845-4.037v-31.85h-8.897v-4.299h8.897v-13.6h5.427v13.6
				h10.942v4.299h-10.942v31.776c0,1.518,0.534,2.875,1.602,4.07c1.067,1.197,2.342,1.795,3.825,1.795
				c2.076,0,4.329-0.614,6.762-1.842v4.475C431.463,341.487,429.21,342.043,426.779,342.043z"/>
			<path d="M460.28,294.224c4.759,0,8.804,1.667,12.136,5.001c3.321,3.277,4.982,7.254,4.982,11.933c0,2.632-0.937,4.738-2.81,6.317
				c-1.874,1.58-4.237,2.369-7.091,2.369h-23.281c0.238,5.065,1.725,9.227,4.461,12.486c2.914,3.494,6.811,5.239,11.688,5.239
				c4.758,0,9.517-0.848,14.276-2.545v4.738c-4.64,1.404-9.399,2.106-14.276,2.106c-7.077,0-12.49-2.281-16.238-6.844
				c-3.559-4.27-5.338-9.914-5.338-16.934c0-6.844,1.69-12.4,5.071-16.671C447.667,296.623,453.14,294.224,460.28,294.224z
				 M471.971,311.158c0-3.159-1.16-6.054-3.48-8.686c-2.321-2.633-5.028-3.948-8.122-3.948c-4.82,0-8.687,1.667-11.603,5.001
				c-2.619,3.102-4.135,7.108-4.551,12.021h23.294c1.189,0,2.231-0.424,3.124-1.272
				C471.525,313.426,471.971,312.386,471.971,311.158z"/>
			<path d="M499.015,341.956c-1.543,0-2.966-0.255-4.27-0.761c-1.306-0.509-2.447-1.225-3.425-2.149
				c-0.978-0.926-1.75-2.004-2.313-3.232c-0.564-1.228-0.845-2.573-0.845-4.036v-58.523h5.427v58.523
				c0,1.521,0.534,2.881,1.602,4.079c1.067,1.2,2.342,1.799,3.825,1.799c2.016,0,4.24-0.643,6.672-1.93v4.617
				C503.552,341.418,501.328,341.956,499.015,341.956z"/>
			<path d="M512.892,273.342h5.427v5.352h-5.427V273.342z M518.319,295.891v44.485h-5.427v-44.485H518.319z"/>
			<path d="M552.39,365.821c-5.871,0-11.564-1.083-17.08-3.246v-5.001c5.337,2.632,11.031,3.948,17.08,3.948
				c3.499,0,6.495-1.319,8.985-3.955c2.491-2.52,3.736-5.536,3.736-9.051v-8.174c-1.838,0.538-3.707,0.954-5.605,1.254
				c-1.899,0.297-3.856,0.447-5.871,0.447c-7.117,0-12.899-2.369-17.348-7.107c-4.33-4.62-6.494-10.382-6.494-17.285
				c0-7.019,1.898-12.604,5.693-16.759c3.984-4.387,9.514-6.581,16.589-6.581c6.719,0,12.873,1.199,18.462,3.597v50.627
				c0,4.914-1.779,9.007-5.337,12.284C561.701,364.154,557.43,365.821,552.39,365.821z M552.568,298.611
				c-5.516,0-9.728,1.838-12.633,5.515c-2.789,3.444-4.182,7.938-4.182,13.482c0,5.429,1.66,10.097,4.982,14.007
				c3.438,4.086,7.917,6.128,13.433,6.128c3.083,0,6.731-0.729,10.942-2.188v-34.931C560.9,299.283,556.719,298.611,552.568,298.611
				z"/>
			<path d="M601.992,294.224c4.759,0,8.804,1.667,12.136,5.001c3.321,3.277,4.982,7.254,4.982,11.933
				c0,2.632-0.938,4.738-2.811,6.317c-1.874,1.58-4.237,2.369-7.091,2.369h-23.281c0.238,5.065,1.725,9.227,4.461,12.486
				c2.914,3.494,6.812,5.239,11.689,5.239c4.758,0,9.516-0.848,14.275-2.545v4.738c-4.64,1.404-9.4,2.106-14.275,2.106
				c-7.078,0-12.491-2.281-16.238-6.844c-3.559-4.27-5.338-9.914-5.338-16.934c0-6.844,1.69-12.4,5.071-16.671
				C589.378,296.623,594.852,294.224,601.992,294.224z M613.683,311.158c0-3.159-1.16-6.054-3.481-8.686
				c-2.321-2.633-5.028-3.948-8.121-3.948c-4.82,0-8.687,1.667-11.603,5.001c-2.619,3.102-4.135,7.108-4.551,12.021h23.294
				c1.19,0,2.231-0.424,3.124-1.272C613.237,313.426,613.683,312.386,613.683,311.158z"/>
			<path d="M629.785,340.464v-40.888c9.63-3.45,16.259-5.176,19.887-5.176c2.497,0,4.784,0.402,6.865,1.209
				c2.081,0.806,3.851,1.933,5.307,3.378c1.457,1.446,2.586,3.193,3.389,5.24c0.802,2.048,1.203,4.299,1.203,6.756v29.481h-5.426
				v-29.481c0-1.755-0.297-3.378-0.889-4.87c-0.594-1.491-1.41-2.792-2.447-3.904c-1.038-1.11-2.284-1.974-3.736-2.588
				c-1.454-0.614-3.069-0.921-4.848-0.921c-4.391,0-9.016,1.141-13.878,3.422v38.343H629.785z"/>
			<path d="M711.54,340.376c-4.212,1.053-8.273,1.579-12.188,1.579c-6.999,0-12.515-2.281-16.547-6.844
				c-3.856-4.329-5.783-9.973-5.783-16.934c0-6.901,1.927-12.575,5.783-17.022c4.092-4.62,9.608-6.932,16.547-6.932
				c4.033,0,8.095,0.557,12.188,1.667v4.563c-3.915-1.287-7.978-1.93-12.188-1.93c-5.22,0-9.372,1.955-12.455,5.865
				c-2.966,3.735-4.448,8.318-4.448,13.745c0,5.37,1.482,9.923,4.448,13.658c3.083,3.91,7.235,5.865,12.455,5.865
				c4.21,0,8.273-0.615,12.188-1.843V340.376z"/>
			<path d="M721.235,273.342h5.427v5.352h-5.427V273.342z M726.662,295.891v44.485h-5.427v-44.485H726.662z"/>
			<path d="M773.009,336.603c-5.397,3.569-11.624,5.353-18.682,5.353c-4.924,0-9.016-1.199-12.277-3.598
				c-3.144-2.456-4.715-5.615-4.715-9.476c0-4.27,1.868-7.691,5.605-10.266c4.21-2.924,10.349-4.387,18.415-4.387h6.227v-6.195
				c0-2.501-0.95-4.682-2.847-6.543c-1.899-1.919-4.271-2.879-7.117-2.879c-5.457,0-10.468,0.878-15.035,2.632v-4.738
				c4.626-1.461,9.963-2.193,16.013-2.193c4.033,0,7.442,1.316,10.231,3.948c2.787,2.575,4.181,5.821,4.181,9.739V336.603z
				 M767.583,318.529h-5.694c-6.465,0-11.358,1.106-14.679,3.318c-2.729,1.806-4.092,4.136-4.092,6.988
				c0,2.503,1.037,4.6,3.113,6.288c2.076,1.69,4.894,2.532,8.452,2.532c4.744,0,9.044-1.076,12.899-3.231V318.529z"/>
			<path d="M830.604,294.312c4.376,0,8.692,0.761,12.95,2.281v-23.164h5.426v64.665c-5.813,2.457-11.418,3.686-16.814,3.686
				c-7.059,0-12.752-2.31-17.08-6.932c-4.391-4.679-6.583-10.441-6.583-17.286c0-6.843,1.957-12.429,5.872-16.758
				C818.217,296.476,823.627,294.312,830.604,294.312z M831.137,298.611c-5.44,0-9.607,1.843-12.504,5.528
				c-2.78,3.452-4.168,7.927-4.168,13.424c0,5.5,1.656,10.15,4.967,13.951c3.429,4.095,7.863,6.142,13.304,6.142
				c3.074,0,6.681-0.76,10.82-2.282v-34.569C839.711,299.343,835.571,298.611,831.137,298.611z"/>
			<path d="M880.702,294.224c4.76,0,8.804,1.667,12.136,5.001c3.321,3.277,4.982,7.254,4.982,11.933c0,2.632-0.937,4.738-2.81,6.317
				c-1.874,1.58-4.237,2.369-7.091,2.369h-23.281c0.238,5.065,1.725,9.227,4.46,12.486c2.915,3.494,6.811,5.239,11.689,5.239
				c4.758,0,9.517-0.848,14.276-2.545v4.738c-4.64,1.404-9.399,2.106-14.276,2.106c-7.078,0-12.49-2.281-16.238-6.844
				c-3.559-4.27-5.338-9.914-5.338-16.934c0-6.844,1.69-12.4,5.071-16.671C868.089,296.623,873.563,294.224,880.702,294.224z
				 M892.394,311.158c0-3.159-1.161-6.054-3.481-8.686c-2.321-2.633-5.028-3.948-8.122-3.948c-4.819,0-8.687,1.667-11.603,5.001
				c-2.619,3.102-4.135,7.108-4.551,12.021h23.294c1.19,0,2.232-0.424,3.123-1.272C891.947,313.426,892.394,312.386,892.394,311.158
				z"/>
			<path d="M972.102,340.289l-32.916-56.154v56.154h-5.427v-61.858h8.362l32.827,56.242v-56.242h5.427v61.858H972.102z"/>
			<path d="M1013.075,294.224c4.759,0,8.804,1.667,12.136,5.001c3.321,3.277,4.982,7.254,4.982,11.933
				c0,2.632-0.937,4.738-2.811,6.317c-1.874,1.58-4.237,2.369-7.091,2.369H997.01c0.238,5.065,1.725,9.227,4.46,12.486
				c2.915,3.494,6.812,5.239,11.688,5.239c4.758,0,9.517-0.848,14.276-2.545v4.738c-4.64,1.404-9.399,2.106-14.276,2.106
				c-7.077,0-12.49-2.281-16.238-6.844c-3.559-4.27-5.338-9.914-5.338-16.934c0-6.844,1.69-12.4,5.071-16.671
				C1000.461,296.623,1005.935,294.224,1013.075,294.224z M1024.766,311.158c0-3.159-1.16-6.054-3.481-8.686
				c-2.321-2.633-5.028-3.948-8.121-3.948c-4.82,0-8.687,1.667-11.603,5.001c-2.619,3.102-4.135,7.108-4.551,12.021h23.294
				c1.19,0,2.231-0.424,3.123-1.272C1024.32,313.426,1024.766,312.386,1024.766,311.158z"/>
			<path d="M1060.795,365.821c-5.872,0-11.565-1.083-17.081-3.246v-5.001c5.337,2.632,11.031,3.948,17.081,3.948
				c3.499,0,6.495-1.319,8.985-3.955c2.491-2.52,3.736-5.536,3.736-9.051v-8.174c-1.839,0.538-3.707,0.954-5.604,1.254
				c-1.899,0.297-3.856,0.447-5.872,0.447c-7.117,0-12.899-2.369-17.348-7.107c-4.33-4.62-6.494-10.382-6.494-17.285
				c0-7.019,1.897-12.604,5.693-16.759c3.984-4.387,9.514-6.581,16.589-6.581c6.719,0,12.873,1.199,18.462,3.597v50.627
				c0,4.914-1.779,9.007-5.337,12.284C1070.105,364.154,1065.835,365.821,1060.795,365.821z M1060.973,298.611
				c-5.516,0-9.728,1.838-12.632,5.515c-2.789,3.444-4.182,7.938-4.182,13.482c0,5.429,1.66,10.097,4.982,14.007
				c3.439,4.086,7.917,6.128,13.434,6.128c3.083,0,6.73-0.729,10.942-2.188v-34.931
				C1069.305,299.283,1065.124,298.611,1060.973,298.611z"/>
			<path d="M1132.408,318.529c0,7.078-1.81,12.665-5.427,16.758c-3.736,4.387-9.134,6.581-16.19,6.581
				c-7,0-12.455-2.369-16.369-7.107c-3.736-4.445-5.605-10.207-5.605-17.286c0-6.901,1.838-12.488,5.516-16.759
				c3.914-4.387,9.371-6.581,16.369-6.581c6.879,0,12.276,2.4,16.191,7.195C1130.569,305.836,1132.408,311.568,1132.408,318.529z
				 M1094.777,317.433c0,5.778,1.245,10.448,3.736,14.007c2.847,4.086,6.939,6.129,12.277,6.129c5.396,0,9.429-1.867,12.098-5.604
				c2.371-3.209,3.559-7.703,3.559-13.481c0-5.72-1.216-10.389-3.646-14.008c-2.789-4.026-6.821-6.04-12.1-6.04
				c-5.396,0-9.461,1.839-12.188,5.516C1096.022,307.279,1094.777,311.773,1094.777,317.433z"/>
			<path d="M1174.131,340.376c-4.213,1.053-8.273,1.579-12.188,1.579c-6.999,0-12.515-2.281-16.547-6.844
				c-3.856-4.329-5.782-9.973-5.782-16.934c0-6.901,1.926-12.575,5.782-17.022c4.093-4.62,9.608-6.932,16.547-6.932
				c4.032,0,8.096,0.557,12.188,1.667v4.563c-3.914-1.287-7.979-1.93-12.188-1.93c-5.22,0-9.371,1.955-12.454,5.865
				c-2.967,3.735-4.448,8.318-4.448,13.745c0,5.37,1.481,9.923,4.448,13.658c3.083,3.91,7.234,5.865,12.454,5.865
				c4.21,0,8.274-0.615,12.188-1.843V340.376z"/>
			<path d="M1183.826,273.342h5.427v5.352h-5.427V273.342z M1189.253,295.891v44.485h-5.427v-44.485H1189.253z"/>
			<path d="M1243.518,318.529c0,7.078-1.809,12.665-5.426,16.758c-3.737,4.387-9.135,6.581-16.191,6.581
				c-6.999,0-12.455-2.369-16.369-7.107c-3.736-4.445-5.604-10.207-5.604-17.286c0-6.901,1.838-12.488,5.516-16.759
				c3.914-4.387,9.37-6.581,16.369-6.581c6.879,0,12.276,2.4,16.19,7.195C1241.68,305.836,1243.518,311.568,1243.518,318.529z
				 M1205.887,317.433c0,5.778,1.246,10.448,3.737,14.007c2.847,4.086,6.938,6.129,12.276,6.129c5.396,0,9.43-1.867,12.099-5.604
				c2.371-3.209,3.559-7.703,3.559-13.481c0-5.72-1.216-10.389-3.647-14.008c-2.788-4.026-6.82-6.04-12.099-6.04
				c-5.397,0-9.461,1.839-12.188,5.516C1207.133,307.279,1205.887,311.773,1205.887,317.433z"/>
			<path d="M1276.611,300.542c-3.188-1.404-6.585-2.106-10.187-2.106c-6.85,0-10.275,2.544-10.275,7.634
				c0,2.75,1.978,5.119,5.931,7.107l11.15,5.616c3.973,2.691,5.96,6.084,5.96,10.178c0,4.387-1.81,7.751-5.426,10.09
				c-3.025,1.813-6.614,2.72-10.765,2.72c-4.863,0-8.985-0.615-12.366-1.843v-5.176c3.915,1.93,7.918,2.895,12.01,2.895
				c2.906,0,5.396-0.702,7.473-2.105c2.313-1.58,3.47-3.598,3.47-6.055c0-3.1-1.977-5.704-5.929-7.809
				c-1.829-0.993-3.657-1.93-5.487-2.808c-1.829-0.877-3.628-1.843-5.397-2.896c-2.107-1.169-3.642-2.558-4.604-4.167
				c-0.964-1.608-1.445-3.348-1.445-5.221c0-4.269,1.542-7.486,4.627-9.651c2.727-1.871,6.196-2.808,10.408-2.808
				c3.736,0,7.354,0.614,10.854,1.843V300.542z"/>
		</g>
	</g>
</g>
</svg>
