<?xml version="1.0" encoding="utf-8"?>
<!-- Generator: Adobe Illustrator 24.1.0, SVG Export Plug-In . SVG Version: 6.00 Build 0)  -->
<svg version="1.1" id="Capa_1" xmlns="http://www.w3.org/2000/svg" xmlns:xlink="http://www.w3.org/1999/xlink" x="0px" y="0px"
	 viewBox="0 0 1304 368" enable-background="new 0 0 1304 368" xml:space="preserve">
<g>
	<g>
		<g>
			<path d="M387.958,17.282c0-1.488,0.474-2.68,1.424-3.573c0.947-0.893,2.151-1.34,3.611-1.34h115.138
				c1.313,0,2.498,0.41,3.556,1.228c1.057,0.82,1.66,2.048,1.806,3.685v19.542c0,1.49-0.456,2.792-1.368,3.909
				c-0.913,1.117-2.243,1.674-3.994,1.674h-41.59v130.649c0,1.34-0.457,2.532-1.368,3.574c-0.913,1.044-2.172,1.564-3.776,1.564
				h-21.562c-1.313,0-2.5-0.483-3.556-1.452c-1.059-0.967-1.588-2.195-1.588-3.685V42.406h-41.699c-1.46,0-2.664-0.464-3.611-1.395
				c-0.95-0.93-1.424-2.326-1.424-4.188V17.282z"/>
			<path d="M539.102,17.729c0-3.573,1.604-5.36,4.815-5.36h105.506c1.896,0,3.245,0.543,4.05,1.626
				c0.801,1.083,1.203,2.446,1.203,4.09v19.725c0,1.345-0.456,2.54-1.368,3.587c-0.913,1.047-2.281,1.569-4.104,1.569h-77.816
				v33.834h59.977c1.458-0.148,2.626,0.168,3.502,0.95c0.876,0.781,1.313,2.104,1.313,3.964v20.211c0,1.34-0.366,2.532-1.094,3.574
				c-0.73,1.043-1.898,1.563-3.502,1.563h-60.195v40.535h80.662c2.042,0,3.393,0.448,4.05,1.345
				c0.656,0.897,0.985,2.279,0.985,4.146v20.398c0,3.139-1.606,4.707-4.815,4.707H543.917c-1.313,0-2.446-0.372-3.393-1.117
				c-0.949-0.743-1.423-1.935-1.423-3.573V17.729z"/>
			<path d="M692.433,17.282c0.146-1.413,0.693-2.586,1.641-3.517c0.948-0.93,2.152-1.396,3.613-1.396h27.361
				c2.553,0,4.231,1.415,5.035,4.243l38.634,109.879c6.493-18.462,13.005-36.775,19.536-54.94
				c6.528-18.163,13.004-36.476,19.426-54.939c1.021-2.828,2.698-4.243,5.034-4.243h27.472c1.458,0,2.644,0.485,3.557,1.452
				c0.912,0.969,1.404,2.121,1.478,3.461c2.697,26.13,5.434,52.148,8.207,78.055c2.773,25.906,5.544,51.888,8.319,77.943v0.335
				c0,3.053-1.607,4.579-4.817,4.579h-21.232c-3.283,0-4.999-1.637-5.144-4.914L819.39,67.643l-36.446,102.732
				c-0.365,1.043-0.949,2.009-1.75,2.903c-0.804,0.893-1.642,1.34-2.517,1.34h-19.7c-0.949,0-1.825-0.427-2.627-1.284
				c-0.804-0.855-1.386-1.842-1.752-2.959c-5.984-17.197-12.003-34.282-18.058-51.255c-6.057-16.973-12.148-34.094-18.277-51.367
				l-11.164,105.524c0,3.276-1.679,4.914-5.035,4.914h-21.232c-3.211,0-4.815-1.637-4.815-4.914L692.433,17.282z"/>
			<path d="M889.873,17.282c0-1.34,0.398-2.493,1.198-3.461c0.801-0.967,2-1.452,3.6-1.452h21.706c1.236,0,2.399,0.447,3.489,1.34
				c1.091,0.894,1.637,2.085,1.637,3.573v155.997c0,3.276-1.71,4.914-5.126,4.914h-21.706c-3.199,0-4.798-1.637-4.798-4.914V17.282z
				"/>
			<path d="M1049.553,56.588c-0.949,0-1.824-0.241-2.625-0.726c-0.805-0.483-1.715-1.134-2.737-1.954l-0.219-0.112
				c-1.388-1.414-3.174-2.977-5.362-4.69c-2.189-1.712-4.635-3.312-7.333-4.802c-2.701-1.488-5.6-2.754-8.701-3.797
				c-3.102-1.042-6.257-1.563-9.467-1.563c-4.087,0-7.699,0.466-10.835,1.396c-3.139,0.931-5.765,2.196-7.881,3.796
				c-2.117,1.602-3.721,3.481-4.815,5.639c-1.095,2.16-1.642,4.467-1.642,6.923c0,2.68,0.821,5.025,2.462,7.035
				c1.642,2.01,3.867,3.796,6.676,5.36c2.808,1.563,6.037,2.997,9.687,4.299c3.647,1.304,7.478,2.588,11.491,3.853
				c4.597,1.415,9.156,2.942,13.681,4.578c4.523,1.638,8.847,3.481,12.97,5.527c4.121,2.049,7.97,4.319,11.546,6.812
				c3.574,2.495,6.658,5.36,9.248,8.598c2.59,3.238,4.633,6.85,6.129,10.831c1.496,3.983,2.244,8.469,2.244,13.456
				c0,8.115-1.605,15.448-4.815,21.998c-3.212,6.551-7.645,12.154-13.298,16.806c-5.655,4.653-12.296,8.227-19.919,10.719
				c-7.626,2.493-15.815,3.741-24.571,3.741c-5.62,0-11.201-0.67-16.745-2.01c-5.546-1.34-10.873-3.238-15.979-5.695
				c-5.108-2.457-9.943-5.416-14.502-8.878c-4.56-3.461-8.628-7.351-12.203-11.669v0.112l-0.219-0.447
				c-1.607-1.86-2.408-3.573-2.408-5.136c0-0.819,0.219-1.601,0.657-2.345c0.438-0.744,1.095-1.563,1.97-2.457l3.612-3.685
				c1.094-0.967,2.261-2.047,3.501-3.238c1.24-1.19,2.479-2.27,3.721-3.239c1.24-0.966,2.389-1.787,3.448-2.456
				c1.057-0.67,1.915-1.005,2.572-1.005c1.021,0,1.97,0.335,2.846,1.005c0.875,0.67,1.604,1.303,2.189,1.898l0.438,0.447h-0.109
				c2.553,2.456,5.417,4.801,8.591,7.035c3.174,2.233,6.44,4.226,9.796,5.974c3.355,1.75,6.693,3.126,10.015,4.131
				c3.319,1.005,6.438,1.508,9.357,1.508c4.012,0,7.771-0.52,11.273-1.564c3.502-1.042,6.529-2.512,9.084-4.411
				c2.554-1.898,4.56-4.188,6.02-6.867c1.458-2.68,2.188-5.657,2.188-8.933c0-3.275-0.949-6.086-2.846-8.431
				c-1.897-2.345-4.377-4.391-7.442-6.141c-3.064-1.748-6.512-3.256-10.342-4.523c-3.831-1.265-7.68-2.457-11.546-3.573
				c-8.903-2.753-16.691-5.731-23.367-8.933c-6.676-3.2-12.241-6.792-16.69-10.776c-4.451-3.982-7.79-8.448-10.014-13.4
				c-2.227-4.95-3.338-10.514-3.338-16.694c0-6.923,1.368-13.232,4.104-18.928c2.736-5.695,6.621-10.57,11.656-14.628
				c5.034-4.057,11.09-7.22,18.168-9.492c7.076-2.269,14.994-3.406,23.75-3.406c6.639,0,13.389,1.061,20.248,3.182
				c6.858,2.122,13.205,5.044,19.044,8.766c1.751,1.117,3.539,2.384,5.363,3.797c1.823,1.415,3.502,2.847,5.034,4.299
				c1.532,1.452,2.791,2.867,3.776,4.244c0.985,1.378,1.477,2.55,1.477,3.517c0,0.893-0.218,1.806-0.656,2.736
				c-0.438,0.931-0.985,1.769-1.642,2.513l-3.284,3.573V45.98c-1.094,1.192-2.226,2.42-3.393,3.685
				c-1.167,1.267-2.336,2.401-3.502,3.406c-1.168,1.005-2.226,1.842-3.173,2.512C1051.013,56.253,1050.21,56.588,1049.553,56.588z"
				/>
		</g>
	</g>
	<g>
		<g>
			<path d="M415.068,323.541c-8.639,0-15.746-2.929-21.321-8.785c-5.631-5.912-8.447-13.303-8.447-22.172
				c0-8.813,2.815-16.175,8.447-22.088c5.685-5.967,12.793-8.952,21.321-8.952c4.756,0,9.238,0.753,13.448,2.259v4.518
				c-4.319-1.784-8.802-2.677-13.448-2.677c-7.217,0-13.149,2.618-17.796,7.853c-4.646,5.124-6.97,11.473-6.97,19.046
				c0,7.574,2.323,13.896,6.97,18.962c4.702,5.292,10.632,7.937,17.796,7.937c4.646,0,9.129-0.864,13.448-2.594v4.518
				C423.978,322.815,419.496,323.541,415.068,323.541z"/>
			<path d="M476.653,279.783v38.822c-8.495,3.292-14.578,4.936-18.25,4.936c-2.301,0-4.412-0.384-6.33-1.153
				c-1.917-0.769-3.547-1.842-4.89-3.221c-1.343-1.378-2.385-3.031-3.124-4.955c-0.741-1.924-1.11-4.058-1.11-6.4v-28.029h5.003
				v28.029c0,1.673,0.271,3.221,0.817,4.643c0.544,1.422,1.294,2.65,2.247,3.681c0.953,1.033,2.097,1.841,3.432,2.427
				c1.335,0.585,2.819,0.878,4.454,0.878c3.977,0,8.226-1.088,12.749-3.263v-36.395H476.653z"/>
			<path d="M526.511,301.285c0,6.75-1.668,12.077-5.002,15.981c-3.445,4.183-8.42,6.275-14.925,6.275
				c-6.451,0-11.48-2.259-15.088-6.777c-3.444-4.238-5.166-9.733-5.166-16.483c0-6.581,1.694-11.908,5.084-15.98
				c3.608-4.184,8.638-6.275,15.089-6.275c6.341,0,11.316,2.288,14.925,6.861C524.816,289.183,526.511,294.648,526.511,301.285z
				 M491.823,300.241c0,5.51,1.148,9.963,3.443,13.356c2.625,3.896,6.396,5.844,11.317,5.844c4.975,0,8.693-1.781,11.153-5.343
				c2.186-3.061,3.28-7.346,3.28-12.856c0-5.454-1.121-9.905-3.362-13.356c-2.57-3.839-6.287-5.76-11.152-5.76
				c-4.976,0-8.721,1.753-11.235,5.259C492.971,290.558,491.823,294.843,491.823,300.241z"/>
			<path d="M549.635,323.708c-1.423,0-2.734-0.237-3.936-0.711c-1.203-0.475-2.255-1.143-3.157-2.008
				c-0.902-0.864-1.613-1.882-2.132-3.054c-0.52-1.171-0.78-2.454-0.78-3.849v-30.371h-8.2v-4.1h8.2v-12.969h5.002v12.969h10.086
				v4.1h-10.086v30.301c0,1.447,0.492,2.742,1.476,3.881c0.984,1.142,2.16,1.711,3.527,1.711c1.913,0,3.99-0.586,6.232-1.757v4.267
				C553.953,323.178,551.877,323.708,549.635,323.708z"/>
			<path d="M593.507,318.521c-4.976,3.403-10.716,5.104-17.221,5.104c-4.538,0-8.311-1.144-11.317-3.431
				c-2.898-2.342-4.346-5.354-4.346-9.036c0-4.071,1.722-7.334,5.167-9.789c3.881-2.788,9.539-4.183,16.975-4.183h5.74v-5.908
				c0-2.385-0.875-4.465-2.624-6.24c-1.75-1.83-3.935-2.745-6.56-2.745c-5.03,0-9.649,0.837-13.859,2.51v-4.518
				c4.265-1.394,9.185-2.092,14.761-2.092c3.717,0,6.86,1.255,9.43,3.765c2.569,2.456,3.854,5.551,3.854,9.287V318.521z
				 M588.504,301.285h-5.248c-5.959,0-10.469,1.055-13.53,3.165c-2.516,1.722-3.772,3.943-3.772,6.664
				c0,2.387,0.956,4.386,2.87,5.996c1.914,1.611,4.51,2.415,7.791,2.415c4.373,0,8.336-1.026,11.89-3.081V301.285z"/>
			<path d="M626.635,284.133c-2.939-1.338-6.069-2.008-9.389-2.008c-6.315,0-9.471,2.426-9.471,7.279
				c0,2.623,1.821,4.882,5.465,6.778l10.279,5.354c3.662,2.566,5.494,5.802,5.494,9.706c0,4.183-1.669,7.391-5.002,9.622
				c-2.788,1.728-6.096,2.593-9.922,2.593c-4.483,0-8.282-0.586-11.398-1.757v-4.936c3.608,1.84,7.298,2.761,11.071,2.761
				c2.678,0,4.974-0.669,6.888-2.008c2.132-1.506,3.198-3.43,3.198-5.773c0-2.956-1.822-5.438-5.464-7.447
				c-1.686-0.948-3.372-1.841-5.059-2.677c-1.686-0.837-3.345-1.757-4.976-2.761c-1.942-1.115-3.357-2.439-4.244-3.974
				c-0.889-1.533-1.333-3.192-1.333-4.979c0-4.07,1.422-7.139,4.264-9.203c2.514-1.785,5.713-2.678,9.595-2.678
				c3.443,0,6.778,0.586,10.004,1.757V284.133z"/>
			<path d="M666.653,296.182v25.936h-5.002v-56.894c5.466-2.453,10.632-3.681,15.499-3.681c4.646,0,8.582,1.589,11.809,4.768
				c3.225,3.18,4.838,7.085,4.838,11.714c0,5.132-1.777,9.454-5.33,12.969c-3.555,3.459-7.873,5.188-12.957,5.188H666.653z
				 M666.653,292.082h8.857c3.662,0,6.779-1.39,9.348-4.17c2.624-2.835,3.936-6.144,3.936-9.925c0-3.223-1.148-6.088-3.444-8.591
				c-2.296-2.502-5.03-3.753-8.2-3.753c-3.116,0-6.615,0.695-10.497,2.085V292.082z"/>
			<path d="M732.009,318.521c-4.975,3.403-10.716,5.104-17.221,5.104c-4.539,0-8.311-1.144-11.317-3.431
				c-2.898-2.342-4.346-5.354-4.346-9.036c0-4.071,1.722-7.334,5.166-9.789c3.881-2.788,9.539-4.183,16.975-4.183h5.74v-5.908
				c0-2.385-0.875-4.465-2.623-6.24c-1.75-1.83-3.937-2.745-6.56-2.745c-5.03,0-9.649,0.837-13.858,2.51v-4.518
				c4.264-1.394,9.184-2.092,14.761-2.092c3.716,0,6.86,1.255,9.431,3.765c2.569,2.456,3.854,5.551,3.854,9.287V318.521z
				 M727.006,301.285h-5.247c-5.959,0-10.47,1.055-13.531,3.165c-2.515,1.722-3.772,3.943-3.772,6.664
				c0,2.387,0.956,4.386,2.871,5.996c1.913,1.611,4.51,2.415,7.79,2.415c4.373,0,8.336-1.026,11.89-3.081V301.285z"/>
			<path d="M760.873,282.376c-3.882,0-7.707,0.642-11.48,1.925v37.901h-5.003v-40.509c5.084-2.278,10.743-3.416,16.976-3.416
				c0.601,0,1.119,0,1.558,0c0.437,0,0.791,0.029,1.066,0.083v4.184c-0.766-0.055-1.409-0.097-1.927-0.126
				C761.542,282.391,761.146,282.376,760.873,282.376z"/>
			<path d="M785.065,323.708c-1.422,0-2.734-0.237-3.936-0.711c-1.203-0.475-2.255-1.143-3.157-2.008
				c-0.903-0.864-1.613-1.882-2.132-3.054c-0.521-1.171-0.779-2.454-0.779-3.849v-30.371h-8.2v-4.1h8.2v-12.969h5.002v12.969h10.087
				v4.1h-10.087v30.301c0,1.447,0.493,2.742,1.477,3.881c0.984,1.142,2.16,1.711,3.526,1.711c1.913,0,3.99-0.586,6.232-1.757v4.267
				C789.383,323.178,787.306,323.708,785.065,323.708z"/>
			<path d="M815.945,278.11c4.387,0,8.115,1.59,11.187,4.769c3.061,3.124,4.591,6.917,4.591,11.378c0,2.51-0.863,4.518-2.59,6.024
				c-1.727,1.506-3.905,2.259-6.536,2.259h-21.46c0.218,4.829,1.59,8.798,4.112,11.906c2.687,3.331,6.278,4.995,10.774,4.995
				c4.386,0,8.771-0.808,13.159-2.426v4.518c-4.277,1.339-8.665,2.008-13.159,2.008c-6.525,0-11.515-2.175-14.969-6.526
				c-3.28-4.071-4.92-9.455-4.92-16.148c0-6.526,1.559-11.825,4.675-15.897C804.318,280.398,809.364,278.11,815.945,278.11z
				 M826.722,294.257c0-3.012-1.07-5.773-3.208-8.283c-2.14-2.51-4.634-3.765-7.486-3.765c-4.442,0-8.007,1.59-10.696,4.769
				c-2.413,2.957-3.811,6.777-4.194,11.463h21.472c1.097,0,2.056-0.404,2.879-1.213C826.31,296.42,826.722,295.429,826.722,294.257z
				"/>
			<path d="M862.31,284.133c-2.939-1.338-6.069-2.008-9.389-2.008c-6.315,0-9.472,2.426-9.472,7.279
				c0,2.623,1.822,4.882,5.465,6.778l10.279,5.354c3.662,2.566,5.494,5.802,5.494,9.706c0,4.183-1.669,7.391-5.003,9.622
				c-2.788,1.728-6.096,2.593-9.922,2.593c-4.483,0-8.283-0.586-11.399-1.757v-4.936c3.608,1.84,7.298,2.761,11.07,2.761
				c2.678,0,4.974-0.669,6.889-2.008c2.132-1.506,3.198-3.43,3.198-5.773c0-2.956-1.822-5.438-5.464-7.447
				c-1.687-0.948-3.373-1.841-5.06-2.677c-1.686-0.837-3.344-1.757-4.975-2.761c-1.942-1.115-3.357-2.439-4.245-3.974
				c-0.888-1.533-1.332-3.192-1.332-4.979c0-4.07,1.421-7.139,4.264-9.203c2.515-1.785,5.713-2.678,9.595-2.678
				c3.444,0,6.777,0.586,10.004,1.757V284.133z"/>
			<path d="M902.328,296.182v25.936h-5.001v-56.894c5.465-2.453,10.631-3.681,15.497-3.681c4.646,0,8.582,1.589,11.809,4.768
				c3.225,3.18,4.838,7.085,4.838,11.714c0,5.132-1.777,9.454-5.33,12.969c-3.555,3.459-7.872,5.188-12.957,5.188H902.328z
				 M902.328,292.082h8.856c3.662,0,6.778-1.39,9.349-4.17c2.624-2.835,3.936-6.144,3.936-9.925c0-3.223-1.148-6.088-3.444-8.591
				c-2.296-2.502-5.031-3.753-8.201-3.753c-3.116,0-6.614,0.695-10.496,2.085V292.082z"/>
			<path d="M954.693,278.11c4.387,0,8.116,1.59,11.188,4.769c3.061,3.124,4.591,6.917,4.591,11.378c0,2.51-0.863,4.518-2.59,6.024
				c-1.728,1.506-3.906,2.259-6.537,2.259h-21.46c0.218,4.829,1.59,8.798,4.111,11.906c2.687,3.331,6.278,4.995,10.774,4.995
				c4.386,0,8.772-0.808,13.159-2.426v4.518c-4.277,1.339-8.665,2.008-13.159,2.008c-6.524,0-11.514-2.175-14.968-6.526
				c-3.28-4.071-4.92-9.455-4.92-16.148c0-6.526,1.558-11.825,4.675-15.897C943.067,280.398,948.113,278.11,954.693,278.11z
				 M965.47,294.257c0-3.012-1.07-5.773-3.208-8.283c-2.14-2.51-4.635-3.765-7.487-3.765c-4.442,0-8.007,1.59-10.695,4.769
				c-2.414,2.957-3.812,6.777-4.194,11.463h21.472c1.097,0,2.057-0.404,2.879-1.213C965.059,296.42,965.47,295.429,965.47,294.257z"
				/>
			<path d="M980.312,322.202v-38.989c8.878-3.29,14.988-4.936,18.332-4.936c2.301,0,4.41,0.384,6.328,1.153
				c1.918,0.769,3.55,1.843,4.893,3.221c1.342,1.379,2.383,3.045,3.123,4.996c0.74,1.953,1.11,4.1,1.11,6.443v28.112h-5.002V294.09
				c0-1.673-0.274-3.221-0.82-4.643c-0.547-1.423-1.3-2.664-2.254-3.724c-0.958-1.059-2.106-1.882-3.445-2.468
				c-1.34-0.586-2.83-0.879-4.47-0.879c-4.046,0-8.31,1.088-12.792,3.263v36.563H980.312z"/>
			<path d="M1047.718,284.133c-2.939-1.338-6.069-2.008-9.389-2.008c-6.315,0-9.471,2.426-9.471,7.279
				c0,2.623,1.822,4.882,5.465,6.778l10.278,5.354c3.662,2.566,5.495,5.802,5.495,9.706c0,4.183-1.669,7.391-5.003,9.622
				c-2.788,1.728-6.096,2.593-9.922,2.593c-4.483,0-8.282-0.586-11.398-1.757v-4.936c3.607,1.84,7.297,2.761,11.07,2.761
				c2.678,0,4.974-0.669,6.888-2.008c2.132-1.506,3.198-3.43,3.198-5.773c0-2.956-1.822-5.438-5.464-7.447
				c-1.687-0.948-3.373-1.841-5.059-2.677c-1.687-0.837-3.345-1.757-4.976-2.761c-1.943-1.115-3.357-2.439-4.245-3.974
				c-0.888-1.533-1.332-3.192-1.332-4.979c0-4.07,1.421-7.139,4.265-9.203c2.513-1.785,5.712-2.678,9.595-2.678
				c3.443,0,6.777,0.586,10.003,1.757V284.133z"/>
			<path d="M1059.526,258.197h5.002v5.104h-5.002V258.197z M1064.528,279.699v42.419h-5.002v-42.419H1064.528z"/>
			<path d="M1114.549,301.285c0,6.75-1.667,12.077-5.002,15.981c-3.445,4.183-8.419,6.275-14.925,6.275
				c-6.451,0-11.479-2.259-15.087-6.777c-3.445-4.238-5.167-9.733-5.167-16.483c0-6.581,1.695-11.908,5.086-15.98
				c3.606-4.184,8.636-6.275,15.088-6.275c6.341,0,11.316,2.288,14.925,6.861C1112.855,289.183,1114.549,294.648,1114.549,301.285z
				 M1079.862,300.241c0,5.51,1.148,9.963,3.444,13.356c2.624,3.896,6.397,5.844,11.316,5.844c4.975,0,8.692-1.781,11.153-5.343
				c2.188-3.061,3.28-7.346,3.28-12.856c0-5.454-1.12-9.905-3.362-13.356c-2.57-3.839-6.287-5.76-11.152-5.76
				c-4.976,0-8.721,1.753-11.235,5.259C1081.01,290.558,1079.862,294.843,1079.862,300.241z"/>
			<path d="M1124.308,322.202v-38.989c8.878-3.29,14.987-4.936,18.332-4.936c2.302,0,4.411,0.384,6.328,1.153
				s3.549,1.843,4.891,3.221c1.345,1.379,2.385,3.045,3.125,4.996c0.739,1.953,1.109,4.1,1.109,6.443v28.112h-5.002V294.09
				c0-1.673-0.274-3.221-0.82-4.643c-0.547-1.423-1.299-2.664-2.255-3.724c-0.956-1.059-2.105-1.882-3.443-2.468
				c-1.341-0.586-2.831-0.879-4.47-0.879c-4.047,0-8.31,1.088-12.794,3.263v36.563H1124.308z"/>
			<path d="M1200.652,318.521c-4.975,3.403-10.716,5.104-17.222,5.104c-4.538,0-8.309-1.144-11.316-3.431
				c-2.898-2.342-4.345-5.354-4.345-9.036c0-4.071,1.721-7.334,5.165-9.789c3.882-2.788,9.539-4.183,16.976-4.183h5.74v-5.908
				c0-2.385-0.876-4.465-2.625-6.24c-1.75-1.83-3.936-2.745-6.561-2.745c-5.029,0-9.648,0.837-13.858,2.51v-4.518
				c4.265-1.394,9.186-2.092,14.761-2.092c3.716,0,6.86,1.255,9.431,3.765c2.57,2.456,3.854,5.551,3.854,9.287V318.521z
				 M1195.65,301.285h-5.249c-5.959,0-10.47,1.055-13.53,3.165c-2.515,1.722-3.773,3.943-3.773,6.664
				c0,2.387,0.957,4.386,2.871,5.996s4.51,2.415,7.79,2.415c4.373,0,8.336-1.026,11.892-3.081V301.285z"/>
			<path d="M1223.119,323.625c-1.421,0-2.733-0.243-3.937-0.726c-1.202-0.485-2.253-1.167-3.155-2.049
				c-0.904-0.883-1.615-1.91-2.132-3.081c-0.52-1.171-0.78-2.454-0.78-3.849v-55.806h5.004v55.806c0,1.451,0.49,2.748,1.475,3.89
				c0.984,1.144,2.159,1.715,3.525,1.715c1.858,0,3.91-0.613,6.151-1.841v4.403C1227.303,323.112,1225.252,323.625,1223.119,323.625
				z"/>
			<path d="M1252.441,278.11c4.388,0,8.117,1.59,11.188,4.769c3.063,3.124,4.592,6.917,4.592,11.378c0,2.51-0.863,4.518-2.589,6.024
				c-1.728,1.506-3.906,2.259-6.536,2.259h-21.461c0.219,4.829,1.589,8.798,4.112,11.906c2.687,3.331,6.278,4.995,10.772,4.995
				c4.387,0,8.773-0.808,13.16-2.426v4.518c-4.277,1.339-8.664,2.008-13.16,2.008c-6.523,0-11.512-2.175-14.968-6.526
				c-3.279-4.071-4.921-9.455-4.921-16.148c0-6.526,1.559-11.825,4.676-15.897C1240.814,280.398,1245.861,278.11,1252.441,278.11z
				 M1263.221,294.257c0-3.012-1.071-5.773-3.209-8.283c-2.141-2.51-4.635-3.765-7.486-3.765c-4.443,0-8.008,1.59-10.696,4.769
				c-2.414,2.957-3.811,6.777-4.194,11.463h21.472c1.098,0,2.057-0.404,2.879-1.213
				C1262.809,296.42,1263.221,295.429,1263.221,294.257z"/>
			<path d="M1298.81,284.133c-2.939-1.338-6.07-2.008-9.39-2.008c-6.314,0-9.472,2.426-9.472,7.279c0,2.623,1.823,4.882,5.466,6.778
				l10.277,5.354c3.662,2.566,5.495,5.802,5.495,9.706c0,4.183-1.667,7.391-5.002,9.622c-2.788,1.728-6.098,2.593-9.923,2.593
				c-4.482,0-8.281-0.586-11.398-1.757v-4.936c3.61,1.84,7.298,2.761,11.071,2.761c2.679,0,4.975-0.669,6.889-2.008
				c2.132-1.506,3.197-3.43,3.197-5.773c0-2.956-1.822-5.438-5.464-7.447c-1.687-0.948-3.372-1.841-5.061-2.677
				c-1.685-0.837-3.344-1.757-4.973-2.761c-1.942-1.115-3.358-2.439-4.246-3.974c-0.889-1.533-1.331-3.192-1.331-4.979
				c0-4.07,1.42-7.139,4.265-9.203c2.514-1.785,5.711-2.678,9.594-2.678c3.443,0,6.779,0.586,10.005,1.757V284.133z"/>
		</g>
	</g>
	<g>
		<path fill-rule="evenodd" clip-rule="evenodd" fill="#EEDFDE" d="M179.723,1.039c29.169,0,58.339,0.013,87.51-0.039
			c1.369-0.002,2.097,0.498,2.775,1.879c29.075,59.276,58.175,118.536,87.329,177.758c0.869,1.765,0.779,2.967-0.047,4.648
			c-29.167,59.29-58.298,118.606-87.4,177.938c-0.661,1.346-1.388,1.775-2.693,1.774c-58.397-0.041-116.794-0.042-175.19,0.002
			c-1.319,0.002-2.002-0.474-2.653-1.806C60.161,303.687,30.94,244.2,1.688,184.735c-0.653-1.326-0.679-2.231-0.012-3.584
			c12.928-26.215,25.8-52.468,38.689-78.712c16.329-33.245,32.67-66.483,48.964-99.753c0.637-1.298,1.316-1.68,2.542-1.678
			C121.154,1.049,150.439,1.039,179.723,1.039z"/>
		<path fill-rule="evenodd" clip-rule="evenodd" fill="#89221E" d="M180.231,101.297c14.1,0,28.201,0.026,42.301-0.041
			c1.39-0.007,2.07,0.536,2.742,1.929c12.618,26.152,25.279,52.273,37.971,78.376c0.546,1.123,0.621,1.958,0.118,3.113
			c-7.05,16.209-14.064,32.439-21.086,48.666c-5.835,13.481-11.678,26.958-17.478,40.461c-0.473,1.103-0.989,1.534-2.065,1.533
			c-28.143-0.037-56.286-0.035-84.43-0.004c-0.985,0-1.515-0.341-1.972-1.389c-11.159-25.542-22.351-51.063-33.537-76.589
			c-1.852-4.223-3.676-8.465-5.579-12.656c-0.505-1.113-0.562-1.933,0.005-3.107c12.644-26.21,25.25-52.447,37.82-78.706
			c0.585-1.224,1.213-1.617,2.376-1.613C151.688,101.314,165.96,101.297,180.231,101.297z"/>
		<path fill-rule="evenodd" clip-rule="evenodd" fill="#89221E" d="M297.774,87.455c-0.877,0-1.493,0-2.108,0
			c-24.719,0-49.439-0.012-74.158,0.003c-25.118,0.014-50.237,0.078-75.354,0.077c-27.574-0.002-55.146-0.053-82.72-0.081
			c-2.05-0.002-2.055-0.006-1.008-2.136c11.281-22.966,22.572-45.928,33.821-68.917c0.586-1.198,1.198-1.639,2.382-1.638
			c53.949,0.038,107.898,0.034,161.847,0.024c0.999,0,1.759,0.06,2.378,1.326c11.441,23.398,22.938,46.758,34.42,70.129
			C297.413,86.528,297.519,86.835,297.774,87.455z"/>
		<path fill-rule="evenodd" clip-rule="evenodd" fill="#BB807E" d="M66.787,289.206c0.924,0,1.546,0,2.167,0
			c73.698,0,147.395,0,221.095,0c2.469,0,2.469,0,1.249,2.485c-9.466,19.28-18.94,38.554-28.374,57.856
			c-0.527,1.077-1.091,1.463-2.138,1.463c-54.117-0.029-108.235-0.028-162.354-0.006c-0.952,0.001-1.554-0.271-2.059-1.305
			c-9.64-19.702-19.313-39.384-28.977-59.071C67.229,290.292,67.097,289.933,66.787,289.206z"/>
		<path fill-rule="evenodd" clip-rule="evenodd" fill="#BB807E" d="M122.276,101.367c-3.226,6.725-6.321,13.199-9.431,19.664
			c-9.599,19.963-19.195,39.929-28.825,59.871c-0.622,1.289-0.712,2.292-0.101,3.68c12.622,28.705,25.195,57.44,37.778,86.168
			c0.62,1.412,1.253,2.817,2,4.496c-0.835,0-1.388,0-1.941,0c-20.038,0-40.077-0.014-60.115,0.033
			c-1.284,0.003-2.013-0.383-2.686-1.756c-14.539-29.697-29.128-59.36-43.72-89.022c-0.481-0.98-0.702-1.757-0.134-2.911
			c12.929-26.222,25.816-52.471,38.692-78.729c0.488-0.994,0.947-1.602,2.072-1.599c21.808,0.047,43.616,0.035,65.424,0.036
			C121.514,101.299,121.74,101.33,122.276,101.367z"/>
		<path fill-rule="evenodd" clip-rule="evenodd" fill="#BB807E" d="M237.417,275.162c2.92-6.788,5.711-13.303,8.522-19.807
			c6.97-16.135,13.948-32.265,20.924-48.396c3.254-7.528,6.489-15.069,9.792-22.567c0.539-1.223,0.492-2.115-0.09-3.313
			c-12.598-25.894-25.154-51.817-37.718-77.735c-0.988-2.039-0.988-2.045,1.024-2.045c21.003-0.001,42.006,0.014,63.009-0.038
			c1.32-0.004,2.033,0.474,2.688,1.813c12.767,26.088,25.573,52.151,38.392,78.203c0.523,1.065,0.716,1.865,0.117,3.08
			c-14.67,29.751-29.294,59.532-43.905,89.323c-0.494,1.008-0.952,1.603-2.07,1.6c-19.861-0.045-39.723-0.032-59.584-0.035
			C238.236,275.245,237.958,275.204,237.417,275.162z"/>
	</g>
</g>
</svg>
