<?xml version="1.0" encoding="utf-8"?>
<!-- Generator: Adobe Illustrator 24.1.0, SVG Export Plug-In . SVG Version: 6.00 Build 0)  -->
<svg version="1.1" id="Capa_1" xmlns="http://www.w3.org/2000/svg" xmlns:xlink="http://www.w3.org/1999/xlink" x="0px" y="0px"
	 viewBox="0 0 1304 368" enable-background="new 0 0 1304 368" xml:space="preserve">
<g>
	<g>
		<g>
			<path d="M455.647,63.14c0-1.616,0.521-2.908,1.564-3.877c1.042-0.97,2.366-1.454,3.973-1.454h126.652
				c1.445,0,2.749,0.444,3.912,1.333c1.163,0.89,1.826,2.222,1.987,3.998v21.199c0,1.617-0.502,3.029-1.505,4.24
				c-1.004,1.211-2.468,1.817-4.394,1.817h-45.749v141.736c0,1.454-0.502,2.747-1.505,3.877c-1.004,1.132-2.389,1.696-4.154,1.696
				h-23.717c-1.444,0-2.75-0.524-3.912-1.575c-1.165-1.048-1.747-2.381-1.747-3.998V90.396h-45.869
				c-1.607,0-2.931-0.503-3.973-1.514c-1.044-1.008-1.564-2.523-1.564-4.543V63.14z"/>
			<path d="M622.025,63.14c0-1.454,0.439-2.705,1.318-3.756c0.88-1.048,2.2-1.574,3.96-1.574h23.875
				c1.359,0,2.639,0.484,3.838,1.454c1.2,0.969,1.8,2.261,1.8,3.877v169.235c0,3.555-1.881,5.33-5.639,5.33h-23.875
				c-3.519,0-5.278-1.775-5.278-5.33V63.14z"/>
			<path d="M684.508,63.14c0-1.616,0.521-2.908,1.565-3.877c1.042-0.97,2.366-1.454,3.973-1.454h126.653
				c1.444,0,2.748,0.444,3.912,1.333c1.163,0.89,1.825,2.222,1.987,3.998v21.199c0,1.617-0.503,3.029-1.505,4.24
				c-1.004,1.211-2.467,1.817-4.393,1.817h-45.75v141.736c0,1.454-0.502,2.747-1.505,3.877c-1.004,1.132-2.389,1.696-4.153,1.696
				h-23.717c-1.444,0-2.75-0.524-3.912-1.575c-1.164-1.048-1.746-2.381-1.746-3.998V90.396h-45.87c-1.606,0-2.931-0.503-3.973-1.514
				c-1.044-1.008-1.565-2.523-1.565-4.543V63.14z"/>
			<path d="M838.486,233.223c0.401-1.615,0.862-3.108,1.385-4.483c0.521-1.371,0.982-2.623,1.384-3.755l64.892-162.572
				c0.24-0.889,0.903-1.878,1.987-2.968c1.083-1.091,2.547-1.635,4.394-1.635h19.383c1.926,0,3.31,0.484,4.154,1.454
				c0.842,0.969,1.463,1.817,1.866,2.544l3.973,9.449l63.567,160.029c0,0.242,0.061,0.667,0.181,1.272
				c0.121,0.605,0.181,1.111,0.181,1.514c0,2.422-1.767,3.634-5.298,3.634h-23.717c-1.767,0-3.13-0.363-4.093-1.09
				c-0.964-0.727-1.767-1.857-2.408-3.392l-2.168-5.573c-1.525-3.876-3.051-7.754-4.575-11.63c-1.525-3.876-3.01-7.792-4.454-11.75
				h-74.281c-2.088,5.654-4.114,10.963-6.08,15.93c-1.968,4.967-3.633,9.31-4.997,13.023c-1.124,2.989-3.21,4.482-6.261,4.482
				h-24.077c-1.526,0-2.75-0.283-3.672-0.848c-0.924-0.563-1.385-1.412-1.385-2.544
				C838.366,233.829,838.405,233.465,838.486,233.223z M922.28,103.965c-4.336,11.145-8.65,22.694-12.942,34.646
				c-4.295,11.953-8.608,23.462-12.942,34.525h51.287L922.28,103.965z M920.834,8.141c0.642-1.775,1.545-3.067,2.709-3.877
				c1.162-0.806,2.427-1.211,3.793-1.211h21.429c1.283,0,2.187,0.302,2.709,0.909c0.521,0.604,0.783,1.353,0.783,2.24
				c0,0.648-0.061,1.353-0.181,2.121c-0.121,0.768-0.343,1.513-0.663,2.24l-11.437,25.683c-1.526,3.392-3.653,5.087-6.381,5.087
				h-18.781c-1.365,0-2.247-0.321-2.649-0.969c-0.402-0.645-0.601-1.412-0.601-2.302c0-0.806,0.039-1.614,0.12-2.422
				c0.079-0.807,0.32-1.655,0.723-2.544L920.834,8.141z"/>
			<path d="M1031.592,63.261c0-1.533,0.46-2.827,1.384-3.877c0.923-1.048,2.228-1.574,3.913-1.574h27.691
				c1.122,0,2.185,0.263,3.19,0.787c1.003,0.527,1.906,1.354,2.709,2.483c13.724,19.706,27.328,39.271,40.813,58.693
				c13.483,19.425,27.087,38.989,40.812,58.693V62.413c0.242-1.455,0.843-2.584,1.806-3.392c0.964-0.806,2.126-1.211,3.492-1.211
				h23.236c1.604,0,2.989,0.484,4.154,1.454c1.162,0.969,1.745,2.261,1.745,3.877v169.598c0,3.312-1.887,4.967-5.658,4.967h-26.125
				c-1.767,0-3.413-1.09-4.936-3.271c-14.127-20.594-28.192-41.167-42.198-61.722c-14.006-20.553-28.032-41.167-42.077-61.843
				v121.505c0,1.777-0.421,3.11-1.264,3.997c-0.843,0.89-2.269,1.333-4.274,1.333h-23.115c-1.847,0-3.19-0.463-4.033-1.393
				c-0.842-0.928-1.264-2.199-1.264-3.816V63.261z"/>
		</g>
	</g>
	<g>
		<g>
			<path d="M493.437,281.837c6.731,0,13.186,1.188,19.364,3.561v5.866c-6.316-2.862-12.771-4.295-19.364-4.295
				c-9.162,0-16.692,3.278-22.59,9.832c-5.9,6.417-8.85,14.365-8.85,23.846c0,9.484,2.95,17.398,8.85,23.742
				c5.968,6.625,13.497,9.936,22.59,9.936c5.689,0,11.207-1.044,16.552-3.132v-29.132h-18.218v-5.133h24.569v37.503
				c-7.219,3.351-14.854,5.027-22.904,5.027c-10.966,0-19.988-3.667-27.067-10.999c-7.149-7.402-10.723-16.656-10.723-27.761
				c0-11.032,3.574-20.251,10.723-27.654C473.587,285.574,482.61,281.837,493.437,281.837z"/>
			<path d="M554.815,302.578c5.569,0,10.302,1.99,14.202,5.972c3.886,3.912,5.83,8.66,5.83,14.246c0,3.142-1.097,5.657-3.29,7.543
				c-2.192,1.886-4.957,2.829-8.297,2.829h-27.244c0.277,6.046,2.018,11.016,5.22,14.906c3.411,4.17,7.971,6.254,13.678,6.254
				c5.567,0,11.136-1.011,16.706-3.038v5.657c-5.43,1.676-10.999,2.514-16.706,2.514c-8.283,0-14.618-2.723-19.003-8.171
				c-4.164-5.097-6.246-11.837-6.246-20.217c0-8.171,1.977-14.805,5.934-19.903C540.055,305.442,546.46,302.578,554.815,302.578z
				 M568.496,322.795c0-3.77-1.358-7.227-4.073-10.37c-2.716-3.143-5.884-4.715-9.504-4.715c-5.64,0-10.165,1.991-13.578,5.972
				c-3.064,3.702-4.839,8.485-5.325,14.352h27.259c1.393,0,2.61-0.506,3.655-1.52C567.974,325.503,568.496,324.263,568.496,322.795z
				"/>
			<path d="M613.676,310.12c-3.731-1.676-7.705-2.514-11.919-2.514c-8.017,0-12.025,3.038-12.025,9.114
				c0,3.283,2.313,6.111,6.939,8.484l13.05,6.705c4.649,3.213,6.975,7.264,6.975,12.151c0,5.238-2.118,9.254-6.351,12.046
				c-3.54,2.164-7.74,3.247-12.597,3.247c-5.692,0-10.515-0.733-14.47-2.199v-6.18c4.58,2.304,9.265,3.457,14.054,3.457
				c3.4,0,6.315-0.838,8.745-2.515c2.707-1.886,4.06-4.295,4.06-7.228c0-3.701-2.313-6.809-6.937-9.322
				c-2.141-1.188-4.282-2.306-6.422-3.353c-2.141-1.048-4.246-2.2-6.316-3.457c-2.465-1.396-4.262-3.054-5.39-4.976
				c-1.127-1.92-1.689-3.997-1.689-6.233c0-5.097,1.804-8.938,5.413-11.523c3.192-2.234,7.251-3.352,12.181-3.352
				c4.371,0,8.605,0.733,12.7,2.2V310.12z"/>
			<path d="M645.428,359.668c-1.805,0-3.472-0.297-4.997-0.89c-1.527-0.594-2.862-1.431-4.008-2.515
				c-1.146-1.082-2.048-2.357-2.707-3.823c-0.66-1.466-0.989-3.072-0.989-4.819v-38.025h-10.41v-5.133h10.41v-16.237h6.352v16.237
				h12.805v5.133h-12.805v37.937c0,1.812,0.624,3.432,1.874,4.86c1.249,1.429,2.74,2.142,4.476,2.142
				c2.429,0,5.066-0.733,7.912-2.199v5.342C650.909,359.004,648.273,359.668,645.428,359.668z"/>
			<path d="M663.646,277.646h6.352v6.391h-6.352V277.646z M669.997,304.568v53.111h-6.352v-53.111H669.997z"/>
			<path d="M733.498,331.595c0,8.451-2.118,15.121-6.351,20.008c-4.371,5.238-10.688,7.857-18.947,7.857
				c-8.189,0-14.574-2.829-19.155-8.485c-4.373-5.307-6.559-12.186-6.559-20.637c0-8.239,2.15-14.91,6.454-20.008
				c4.582-5.238,10.965-7.856,19.156-7.856c8.05,0,14.366,2.865,18.947,8.59C731.347,316.442,733.498,323.285,733.498,331.595z
				 M689.462,330.287c0,6.899,1.458,12.475,4.373,16.723c3.331,4.878,8.12,7.316,14.366,7.316c6.314,0,11.036-2.229,14.158-6.69
				c2.775-3.831,4.164-9.197,4.164-16.096c0-6.829-1.423-12.402-4.267-16.723c-3.263-4.807-7.982-7.212-14.158-7.212
				c-6.317,0-11.071,2.195-14.263,6.585C690.92,318.164,689.462,323.529,689.462,330.287z M713.406,277.646h6.351l-8.953,13.199
				h-5.102L713.406,277.646z"/>
			<path d="M744.431,357.783v-48.815c11.269-4.12,19.026-6.18,23.272-6.18c2.921,0,5.599,0.482,8.034,1.444
				c2.436,0.962,4.506,2.308,6.21,4.033c1.706,1.727,3.026,3.811,3.966,6.255c0.938,2.445,1.41,5.133,1.41,8.066v35.197h-6.351
				v-35.197c0-2.096-0.349-4.034-1.042-5.814c-0.695-1.781-1.649-3.334-2.862-4.662c-1.215-1.326-2.673-2.358-4.373-3.09
				c-1.702-0.733-3.591-1.099-5.674-1.099c-5.137,0-10.55,1.362-16.24,4.085v45.777H744.431z"/>
			<path d="M855.347,302.683c5.12,0,10.172,0.908,15.154,2.723v-27.655h6.35v77.205c-6.802,2.932-13.361,4.398-19.675,4.398
				c-8.261,0-14.923-2.758-19.989-8.275c-5.137-5.587-7.704-12.465-7.704-20.637c0-8.17,2.291-14.839,6.872-20.008
				C840.85,305.268,847.18,302.683,855.347,302.683z M855.969,307.815c-6.367,0-11.243,2.2-14.633,6.6
				c-3.253,4.121-4.878,9.463-4.878,16.027c0,6.565,1.938,12.118,5.812,16.656c4.013,4.889,9.202,7.333,15.569,7.333
				c3.597,0,7.817-0.908,12.662-2.724v-41.274C866.002,308.69,861.159,307.815,855.969,307.815z"/>
			<path d="M913.971,302.578c5.569,0,10.303,1.99,14.202,5.972c3.886,3.912,5.831,8.66,5.831,14.246
				c0,3.142-1.098,5.657-3.289,7.543c-2.193,1.886-4.958,2.829-8.298,2.829h-27.244c0.277,6.046,2.018,11.016,5.22,14.906
				c3.411,4.17,7.971,6.254,13.678,6.254c5.568,0,11.136-1.011,16.706-3.038v5.657c-5.43,1.676-11,2.514-16.706,2.514
				c-8.283,0-14.617-2.723-19.001-8.171c-4.165-5.097-6.247-11.837-6.247-20.217c0-8.171,1.978-14.805,5.934-19.903
				C899.21,305.442,905.616,302.578,913.971,302.578z M927.652,322.795c0-3.77-1.358-7.227-4.073-10.37
				c-2.716-3.143-5.882-4.715-9.504-4.715c-5.639,0-10.165,1.991-13.578,5.972c-3.064,3.702-4.839,8.485-5.325,14.352h27.259
				c1.393,0,2.611-0.506,3.655-1.52C927.13,325.503,927.652,324.263,927.652,322.795z"/>
			<path d="M975.437,357.783v-48.815c11.27-4.12,19.026-6.18,23.272-6.18c2.921,0,5.598,0.482,8.033,1.444
				c2.435,0.962,4.505,2.308,6.211,4.033c1.704,1.727,3.025,3.811,3.966,6.255c0.938,2.445,1.408,5.133,1.408,8.066v35.197h-6.35
				v-35.197c0-2.096-0.348-4.034-1.041-5.814c-0.695-1.781-1.65-3.334-2.864-4.662c-1.215-1.326-2.672-2.358-4.371-3.09
				c-1.702-0.733-3.593-1.099-5.674-1.099c-5.137,0-10.551,1.362-16.241,4.085v45.777H975.437z"/>
			<path d="M1081.622,331.595c0,8.451-2.118,15.121-6.352,20.008c-4.371,5.238-10.688,7.857-18.947,7.857
				c-8.189,0-14.574-2.829-19.155-8.485c-4.373-5.307-6.559-12.186-6.559-20.637c0-8.239,2.15-14.91,6.454-20.008
				c4.582-5.238,10.965-7.856,19.156-7.856c8.05,0,14.366,2.865,18.947,8.59C1079.47,316.442,1081.622,323.285,1081.622,331.595z
				 M1037.585,330.287c0,6.899,1.457,12.475,4.372,16.723c3.332,4.878,8.121,7.316,14.366,7.316c6.314,0,11.036-2.229,14.158-6.69
				c2.775-3.831,4.164-9.197,4.164-16.096c0-6.829-1.423-12.402-4.268-16.723c-3.263-4.807-7.981-7.212-14.158-7.212
				c-6.316,0-11.071,2.195-14.263,6.585C1039.042,318.164,1037.585,323.529,1037.585,330.287z M1061.529,277.646h6.351
				l-8.953,13.199h-5.102L1061.529,277.646z"/>
			<path d="M1125.97,357.679V321.12c0-3.562-1.249-6.668-3.748-9.323c-2.499-2.654-5.484-3.982-8.953-3.982
				c-3.888,0-8.677,1.362-14.367,4.086v45.778h-6.35v-48.815l9.786-3.772c2.291-0.906,4.407-1.535,6.351-1.885
				c1.942-0.349,3.677-0.523,5.205-0.523c5.481,0,9.958,1.885,13.429,5.656c1.527-0.558,3.02-1.152,4.477-1.781
				c1.458-0.628,2.915-1.22,4.373-1.781c2.012-0.767,3.853-1.31,5.518-1.624c1.666-0.314,3.192-0.471,4.581-0.471
				c5.273,0,9.646,1.78,13.117,5.342c3.47,3.493,5.205,7.856,5.205,13.094v36.559h-6.35V321.12c0-3.562-1.249-6.668-3.748-9.323
				c-2.43-2.654-5.379-3.982-8.849-3.982c-3.471,0-8.537,1.642-15.199,4.924c1.249,2.723,1.874,5.517,1.874,8.38v36.559H1125.97z"/>
			<path d="M1180.937,277.646h6.35v6.391h-6.35V277.646z M1187.287,304.568v53.111h-6.35v-53.111H1187.287z"/>
			<path d="M1203.838,357.783v-48.815c11.269-4.12,19.026-6.18,23.272-6.18c2.921,0,5.599,0.482,8.034,1.444
				c2.435,0.962,4.506,2.308,6.21,4.033c1.706,1.727,3.026,3.811,3.966,6.255c0.938,2.445,1.409,5.133,1.409,8.066v35.197h-6.35
				v-35.197c0-2.096-0.349-4.034-1.042-5.814c-0.695-1.781-1.65-3.334-2.862-4.662c-1.215-1.326-2.673-2.358-4.373-3.09
				c-1.701-0.733-3.592-1.099-5.674-1.099c-5.136,0-10.55,1.362-16.241,4.085v45.777H1203.838z"/>
			<path d="M1300.759,353.174c-6.316,4.26-13.604,6.39-21.862,6.39c-5.762,0-10.551-1.432-14.366-4.295
				c-3.68-2.933-5.518-6.704-5.518-11.313c0-5.097,2.187-9.183,6.559-12.257c4.926-3.491,12.11-5.238,21.549-5.238h7.288v-7.396
				c0-2.985-1.111-5.59-3.332-7.813c-2.222-2.292-4.997-3.438-8.328-3.438c-6.386,0-12.25,1.048-17.593,3.143v-5.656
				c5.413-1.745,11.659-2.619,18.739-2.619c4.718,0,8.708,1.571,11.972,4.713c3.261,3.075,4.894,6.95,4.894,11.629V353.174z
				 M1294.408,331.595h-6.663c-7.565,0-13.292,1.321-17.177,3.962c-3.193,2.155-4.789,4.938-4.789,8.343
				c0,2.989,1.213,5.491,3.643,7.508c2.429,2.016,5.726,3.024,9.89,3.024c5.551,0,10.583-1.286,15.096-3.858V331.595z"/>
		</g>
	</g>
	<g>
		<path fill-rule="evenodd" clip-rule="evenodd" fill="#FFF1E1" d="M47.63,3.458c2.312-0.021,6.808-0.026,10.074-0.031
			c83.727-0.1,167.454-0.091,251.18-0.014l6.674-0.06c0,0,30.87,59.808,42.899,84.917c1.207,2.517,3.748,8.597,3.748,8.597
			s-2.707,6.678-4.357,10.023c-14.593,29.564-29.371,59.007-44.104,88.478c-28.257,56.532-56.526,113.058-84.751,169.608
			c-0.367,0.733-1.102,2.076-1.102,2.076s-1.175,0.001-1.95,0c-27.805-0.059-55.609-0.014-83.414-0.102l-8.524,0.024l0,0
			c0,0-3.086-7.045-4.624-10.132c-26.337-52.894-52.579-105.852-78.856-158.788c-15.306-30.835-30.663-61.638-45.904-92.519
			c-1.166-2.363-3.862-8.668-3.862-8.668s2.871-6.181,4.207-8.869c12.885-25.955,25.891-51.829,38.911-77.692
			C44.542,8.982,45.592,7.179,47.63,3.458z"/>
		<path fill-rule="evenodd" clip-rule="evenodd" fill="#FF9F30" d="M58.091,14.193c82.901,0,165.487,0,248.373,0
			c-1.406,2.888-2.702,5.625-4.059,8.321c-10.816,21.476-21.72,42.893-32.392,64.464c-1.71,3.455-3.517,4.606-6.964,4.597
			c-55.289-0.151-110.581-0.12-165.872-0.047c-1.971,0.003-3.002-0.745-3.9-2.666c-5.79-12.397-11.66-24.745-17.511-37.104
			c-5.521-11.664-11.052-23.316-16.574-34.979C58.84,16.033,58.541,15.252,58.091,14.193z"/>
		<path fill-rule="evenodd" clip-rule="evenodd" fill="#FFD5A6" d="M183.89,356.336c-12.06,0-24.118,0.008-36.176-0.018
			c-0.706-0.001-1.67,0.466-2.07-0.385c-0.345-0.729,0.463-1.387,0.797-2.053c7.171-14.298,14.335-28.601,21.52-42.887
			c7.815-15.533,15.663-31.043,23.474-46.579c9.914-19.719,19.785-39.467,29.71-59.176c8.448-16.779,16.958-33.514,25.416-50.284
			c7.546-14.963,15.076-29.938,22.561-44.942c0.783-1.567,1.17-1.809,1.997-0.078c6.273,13.151,12.573,26.284,18.895,39.402
			c5.624,11.665,11.278,23.31,16.944,34.95c0.544,1.119,0.545,1.946-0.058,3.144c-6.701,13.276-13.313,26.616-19.964,39.928
			c-5.715,11.436-11.461,22.852-17.175,34.29c-5.777,11.563-11.522,23.15-17.298,34.711c-5.713,11.439-11.452,22.859-17.167,34.294
			c-3.937,7.876-7.883,15.743-11.754,23.662c-0.737,1.507-1.575,2.073-3.099,2.063C208.257,356.302,196.074,356.336,183.89,356.336z
			"/>
		<path fill-rule="evenodd" clip-rule="evenodd" fill="#FF9F30" d="M181.061,102.327c26.049,0,52.099,0,78.148,0
			c0.438,0,0.876,0.031,1.311-0.006c1.23-0.107,1.595,0.16,0.838,1.617c-2.571,4.955-5.03,9.986-7.544,14.981
			c-9.077,18.046-18.159,36.088-27.243,54.13c-7.48,14.855-14.958,29.716-22.445,44.568c-8.147,16.163-16.302,32.32-24.455,48.479
			c-0.157,0.313-0.325,0.617-0.473,0.936c-0.535,1.163-0.955,1.309-1.566-0.02c-1.819-3.954-3.73-7.852-5.589-11.779
			c-9.871-20.848-19.748-41.695-29.605-62.552c-6.921-14.645-13.805-29.313-20.727-43.959c-6.92-14.645-13.872-29.269-20.794-43.912
			c-1.16-2.453-1.12-2.482,1.247-2.482C128.463,102.327,154.762,102.327,181.061,102.327z"/>
		<path fill-rule="evenodd" clip-rule="evenodd" fill="#FFD5A6" d="M91.862,108.393c3.192,6.721,6.257,13.17,9.318,19.619
			c6.216,13.104,12.445,26.203,18.645,39.316c4.673,9.883,9.292,19.803,13.968,29.687c6.084,12.857,12.213,25.686,18.299,38.543
			c4.647,9.819,9.254,19.664,13.887,29.491c2.061,4.373,4.124,8.749,6.225,13.1c0.507,1.053,0.481,1.839-0.084,2.95
			c-7.932,15.624-15.803,31.286-23.682,46.946c-3.608,7.175-7.199,14.361-10.802,21.541c-0.148,0.296-0.333,0.57-0.606,1.034
			c-2.609-5.212-5.14-10.242-7.646-15.286c-5.224-10.513-10.437-21.037-15.649-31.558c-5.463-11.024-10.915-22.053-16.383-33.073
			c-5.497-11.081-11.014-22.149-16.515-33.231c-5.034-10.14-10.057-20.29-15.089-30.432c-3.292-6.635-6.576-13.279-9.913-19.885
			c-0.611-1.207-0.601-2.175-0.013-3.39c4.968-10.27,9.899-20.566,14.823-30.863c3.504-7.332,6.978-14.682,10.474-22.018
			C84.642,123.492,88.176,116.108,91.862,108.393z"/>
		<path fill-rule="evenodd" clip-rule="evenodd" fill="#FF9F30" d="M349.302,102.475c-12.09,24.203-24.045,48.142-36.212,72.499
			c-11.699-24.282-23.253-48.265-34.93-72.499C301.952,102.475,325.46,102.475,349.302,102.475z"/>
		<path fill-rule="evenodd" clip-rule="evenodd" fill="#FF9F30" d="M349.272,91.35c-23.644,0-47.021,0-70.695,0
			c12.03-23.897,23.978-47.625,36.083-71.672C326.251,43.679,337.708,67.404,349.272,91.35z"/>
		<path fill-rule="evenodd" clip-rule="evenodd" fill="#FF9F30" d="M49.621,174.511c-2.912-5.853-5.652-11.355-8.388-16.863
			c-7.44-14.969-14.879-29.941-22.313-44.916c-1.462-2.945-2.879-5.921-4.366-8.848c-0.571-1.126-0.383-1.59,0.738-1.558
			c0.312,0.01,0.625,0,0.936,0c21.868,0,43.734-0.003,65.601,0.01c0.607,0,1.439-0.345,1.774,0.242
			c0.441,0.773-0.357,1.412-0.673,2.072c-6.146,12.912-12.3,25.822-18.457,38.731C59.589,153.623,54.702,163.861,49.621,174.511z"/>
		<path fill-rule="evenodd" clip-rule="evenodd" fill="#FF9F30" d="M49.937,19.776c11.35,23.967,22.556,47.635,33.874,71.535
			c-23.271,0-46.312,0-69.721,0C26.071,67.403,37.944,43.708,49.937,19.776z"/>
	</g>
</g>
</svg>
